M48
; DRILL file KiCad 10.0.5 date 2026-08-02T18:56:19
; FORMAT={-:-/ absolute / metric / decimal}
; #@! TF.CreationDate,2026-08-02T18:56:19+03:00
; #@! TF.GenerationSoftware,Kicad,Pcbnew,10.0.5
; #@! TF.FileFunction,Plated,1,2,PTH
FMAT,2
METRIC
; #@! TA.AperFunction,Plated,PTH,ComponentDrill
T1C0.200
; #@! TA.AperFunction,Plated,PTH,ViaDrill
T2C0.300
; #@! TA.AperFunction,Plated,PTH,ComponentDrill
T3C0.600
; #@! TA.AperFunction,Plated,PTH,ComponentDrill
T4C0.800
; #@! TA.AperFunction,Plated,PTH,ComponentDrill
T5C1.000
%
G90
G05
T1
X134.9Y-109.272
X134.9Y-110.672
X135.6Y-108.572
X135.6Y-109.972
X135.6Y-111.372
X136.3Y-109.272
X136.3Y-110.672
X137.0Y-108.572
X137.0Y-109.972
X137.0Y-111.372
X137.7Y-109.272
X137.7Y-110.672
T2
X122.3Y-102.832
X128.016Y-117.732
X128.524Y-94.869
X128.905Y-117.729
X129.8Y-117.732
X129.9Y-102.832
X130.7Y-117.732
X131.6Y-117.732
X132.5Y-117.732
X133.3Y-80.4
X133.4Y-117.732
X133.981Y-78.723
X134.0Y-85.2
X134.1Y-77.2
X134.1Y-78.0
X134.1Y-84.4
X134.1Y-85.9
X134.1Y-86.7
X134.1Y-87.5
X134.164Y-88.521
X134.2Y-76.2
X134.2Y-81.9
X134.2Y-82.7
X134.2Y-83.5
X134.3Y-79.5
X134.3Y-81.1
X134.3Y-117.732
X135.2Y-117.732
X136.1Y-117.732
X137.0Y-117.732
X137.922Y-117.729
X138.55Y-93.675
X138.8Y-117.732
X139.7Y-117.732
X140.0Y-91.732
X140.589Y-117.729
X141.2Y-89.232
X141.3Y-92.832
X141.3Y-93.732
X141.3Y-94.532
X141.478Y-117.729
X142.175Y-89.225
X142.2Y-92.832
X142.2Y-93.732
X142.2Y-94.532
X142.65Y-85.082
X142.8Y-74.332
X142.8Y-75.132
X143.1Y-92.832
X143.1Y-93.732
X143.1Y-94.532
X143.375Y-89.45
X145.15Y-74.553
X145.29Y-111.342
X146.15Y-74.85
X146.442Y-96.91
X146.6Y-92.832
X146.6Y-93.732
X146.6Y-94.532
X146.631Y-103.051
X146.7Y-89.325
X147.166Y-104.294
X147.725Y-74.9
X147.8Y-111.232
X147.9Y-95.232
X149.4Y-112.8
X150.1Y-86.732
X150.65Y-82.4
X150.7Y-78.332
X153.5Y-74.832
X154.0Y-78.932
X154.0Y-79.632
X154.0Y-80.332
X154.0Y-81.032
X154.0Y-81.732
X154.2Y-74.832
X154.4Y-114.432
X155.067Y-77.632
X155.304Y-114.328
X157.3Y-94.332
X159.2Y-98.232
X159.2Y-99.032
X160.1Y-98.232
X160.1Y-99.032
X160.2Y-105.732
X160.6Y-100.132
X161.4Y-100.132
X161.8Y-80.832
X162.5Y-95.132
X162.6Y-77.132
X162.6Y-80.832
X163.4Y-80.832
X163.6Y-77.132
X163.635Y-126.167
X163.638Y-122.174
X163.873Y-89.46
X164.146Y-119.634
X164.3Y-80.932
X164.3Y-81.732
X164.6Y-77.132
X164.973Y-82.76
X164.973Y-83.66
X164.973Y-84.56
X164.973Y-85.46
X164.973Y-86.36
X164.973Y-87.26
X164.973Y-88.16
X165.2Y-80.932
X165.2Y-81.732
X165.873Y-82.76
X165.873Y-83.66
X165.873Y-84.56
X165.873Y-85.46
X165.873Y-86.36
X165.873Y-87.26
T4
X158.115Y-106.172
X158.115Y-108.712
X158.115Y-111.252
T5
X114.76Y-77.0
X114.76Y-79.54
X114.76Y-82.08
X114.76Y-84.62
X114.76Y-87.16
X114.76Y-89.7
X114.76Y-92.24
X114.76Y-94.78
X114.76Y-97.32
X114.76Y-99.86
X117.3Y-77.0
X117.3Y-79.54
X117.3Y-82.08
X117.3Y-84.62
X117.3Y-87.16
X117.3Y-89.7
X117.3Y-92.24
X117.3Y-94.78
X117.3Y-97.32
X117.3Y-99.86
X170.48Y-82.732
X170.48Y-85.232
T3
G00X165.489Y-118.647
M15
G01X166.589Y-118.647
M16
G05
G00X165.489Y-127.287
M15
G01X166.589Y-127.287
M16
G05
G00X169.839Y-118.647
M15
G01X170.639Y-118.647
M16
G05
G00X169.839Y-127.287
M15
G01X170.639Y-127.287
M16
G05
M30
