%TF.GenerationSoftware,KiCad,Pcbnew,10.0.1*%
%TF.CreationDate,2026-07-13T19:05:02+03:00*%
%TF.ProjectId,ads1299_test_board,61647331-3239-4395-9f74-6573745f626f,rev?*%
%TF.SameCoordinates,Original*%
%TF.FileFunction,Soldermask,Top*%
%TF.FilePolarity,Negative*%
%FSLAX46Y46*%
G04 Gerber Fmt 4.6, Leading zero omitted, Abs format (unit mm)*
G04 Created by KiCad (PCBNEW 10.0.1) date 2026-07-13 19:05:02*
%MOMM*%
%LPD*%
G01*
G04 APERTURE LIST*
G04 Aperture macros list*
%AMRoundRect*
0 Rectangle with rounded corners*
0 $1 Rounding radius*
0 $2 $3 $4 $5 $6 $7 $8 $9 X,Y pos of 4 corners*
0 Add a 4 corners polygon primitive as box body*
4,1,4,$2,$3,$4,$5,$6,$7,$8,$9,$2,$3,0*
0 Add four circle primitives for the rounded corners*
1,1,$1+$1,$2,$3*
1,1,$1+$1,$4,$5*
1,1,$1+$1,$6,$7*
1,1,$1+$1,$8,$9*
0 Add four rect primitives between the rounded corners*
20,1,$1+$1,$2,$3,$4,$5,0*
20,1,$1+$1,$4,$5,$6,$7,0*
20,1,$1+$1,$6,$7,$8,$9,0*
20,1,$1+$1,$8,$9,$2,$3,0*%
G04 Aperture macros list end*
%ADD10R,0.650000X1.050000*%
%ADD11RoundRect,0.162500X0.617500X0.162500X-0.617500X0.162500X-0.617500X-0.162500X0.617500X-0.162500X0*%
%ADD12RoundRect,0.250000X-0.337500X-0.475000X0.337500X-0.475000X0.337500X0.475000X-0.337500X0.475000X0*%
%ADD13RoundRect,0.075000X-0.662500X-0.075000X0.662500X-0.075000X0.662500X0.075000X-0.662500X0.075000X0*%
%ADD14RoundRect,0.075000X-0.075000X-0.662500X0.075000X-0.662500X0.075000X0.662500X-0.075000X0.662500X0*%
%ADD15RoundRect,0.160000X-0.197500X-0.160000X0.197500X-0.160000X0.197500X0.160000X-0.197500X0.160000X0*%
%ADD16RoundRect,0.155000X-0.155000X0.212500X-0.155000X-0.212500X0.155000X-0.212500X0.155000X0.212500X0*%
%ADD17RoundRect,0.150000X0.150000X-0.587500X0.150000X0.587500X-0.150000X0.587500X-0.150000X-0.587500X0*%
%ADD18RoundRect,0.150000X0.512500X0.150000X-0.512500X0.150000X-0.512500X-0.150000X0.512500X-0.150000X0*%
%ADD19RoundRect,0.218750X0.256250X-0.218750X0.256250X0.218750X-0.256250X0.218750X-0.256250X-0.218750X0*%
%ADD20R,1.500000X1.500000*%
%ADD21C,1.600000*%
%ADD22RoundRect,0.101600X0.475000X0.400000X-0.475000X0.400000X-0.475000X-0.400000X0.475000X-0.400000X0*%
%ADD23RoundRect,0.101600X0.475000X0.275000X-0.475000X0.275000X-0.475000X-0.275000X0.475000X-0.275000X0*%
%ADD24RoundRect,0.160000X0.197500X0.160000X-0.197500X0.160000X-0.197500X-0.160000X0.197500X-0.160000X0*%
%ADD25RoundRect,0.155000X0.212500X0.155000X-0.212500X0.155000X-0.212500X-0.155000X0.212500X-0.155000X0*%
%ADD26RoundRect,0.101600X0.280000X0.150000X-0.280000X0.150000X-0.280000X-0.150000X0.280000X-0.150000X0*%
%ADD27RoundRect,0.155000X-0.212500X-0.155000X0.212500X-0.155000X0.212500X0.155000X-0.212500X0.155000X0*%
%ADD28RoundRect,0.225000X0.225000X0.375000X-0.225000X0.375000X-0.225000X-0.375000X0.225000X-0.375000X0*%
%ADD29RoundRect,0.075000X0.200000X-0.075000X0.200000X0.075000X-0.200000X0.075000X-0.200000X-0.075000X0*%
%ADD30RoundRect,0.150000X-0.825000X-0.150000X0.825000X-0.150000X0.825000X0.150000X-0.825000X0.150000X0*%
%ADD31RoundRect,0.250000X-0.650000X0.412500X-0.650000X-0.412500X0.650000X-0.412500X0.650000X0.412500X0*%
%ADD32RoundRect,0.250000X0.550000X-0.700000X0.550000X0.700000X-0.550000X0.700000X-0.550000X-0.700000X0*%
%ADD33R,1.500000X0.900000*%
%ADD34R,0.900000X1.500000*%
%ADD35C,0.600000*%
%ADD36R,3.900000X3.900000*%
%ADD37RoundRect,0.155000X0.155000X-0.212500X0.155000X0.212500X-0.155000X0.212500X-0.155000X-0.212500X0*%
%ADD38RoundRect,0.237500X0.237500X-0.300000X0.237500X0.300000X-0.237500X0.300000X-0.237500X-0.300000X0*%
%ADD39RoundRect,0.087500X0.087500X-0.250000X0.087500X0.250000X-0.087500X0.250000X-0.087500X-0.250000X0*%
%ADD40RoundRect,0.150000X0.150000X-0.512500X0.150000X0.512500X-0.150000X0.512500X-0.150000X-0.512500X0*%
%ADD41RoundRect,0.250001X1.399999X-1.099999X1.399999X1.099999X-1.399999X1.099999X-1.399999X-1.099999X0*%
%ADD42O,3.300000X2.700000*%
%ADD43RoundRect,0.250000X-0.750000X0.600000X-0.750000X-0.600000X0.750000X-0.600000X0.750000X0.600000X0*%
%ADD44O,2.000000X1.700000*%
%ADD45C,0.650000*%
%ADD46RoundRect,0.150000X0.470000X-0.150000X0.470000X0.150000X-0.470000X0.150000X-0.470000X-0.150000X0*%
%ADD47RoundRect,0.075000X0.545000X-0.075000X0.545000X0.075000X-0.545000X0.075000X-0.545000X-0.075000X0*%
%ADD48O,2.100000X1.000000*%
%ADD49O,1.800000X1.000000*%
%ADD50C,1.000000*%
G04 APERTURE END LIST*
D10*
%TO.C,SW2*%
X151833000Y-111549000D03*
X151833000Y-107399000D03*
X153983000Y-111549000D03*
X153983000Y-107399000D03*
%TD*%
D11*
%TO.C,IC2*%
X160750000Y-78081920D03*
X160750000Y-77131920D03*
X160750000Y-76181920D03*
X158050000Y-76181920D03*
X158050000Y-78081920D03*
%TD*%
D12*
%TO.C,C18*%
X160662500Y-86331920D03*
X162737500Y-86331920D03*
%TD*%
D13*
%TO.C,U1*%
X137537500Y-78381920D03*
X137537500Y-78881920D03*
X137537500Y-79381920D03*
X137537500Y-79881920D03*
X137537500Y-80381920D03*
X137537500Y-80881920D03*
X137537500Y-81381920D03*
X137537500Y-81881920D03*
X137537500Y-82381920D03*
X137537500Y-82881920D03*
X137537500Y-83381920D03*
X137537500Y-83881920D03*
X137537500Y-84381920D03*
X137537500Y-84881920D03*
X137537500Y-85381920D03*
X137537500Y-85881920D03*
D14*
X139450000Y-87794420D03*
X139950000Y-87794420D03*
X140450000Y-87794420D03*
X140950000Y-87794420D03*
X141450000Y-87794420D03*
X141950000Y-87794420D03*
X142450000Y-87794420D03*
X142950000Y-87794420D03*
X143450000Y-87794420D03*
X143950000Y-87794420D03*
X144450000Y-87794420D03*
X144950000Y-87794420D03*
X145450000Y-87794420D03*
X145950000Y-87794420D03*
X146450000Y-87794420D03*
X146950000Y-87794420D03*
D13*
X148862500Y-85881920D03*
X148862500Y-85381920D03*
X148862500Y-84881920D03*
X148862500Y-84381920D03*
X148862500Y-83881920D03*
X148862500Y-83381920D03*
X148862500Y-82881920D03*
X148862500Y-82381920D03*
X148862500Y-81881920D03*
X148862500Y-81381920D03*
X148862500Y-80881920D03*
X148862500Y-80381920D03*
X148862500Y-79881920D03*
X148862500Y-79381920D03*
X148862500Y-78881920D03*
X148862500Y-78381920D03*
D14*
X146950000Y-76469420D03*
X146450000Y-76469420D03*
X145950000Y-76469420D03*
X145450000Y-76469420D03*
X144950000Y-76469420D03*
X144450000Y-76469420D03*
X143950000Y-76469420D03*
X143450000Y-76469420D03*
X142950000Y-76469420D03*
X142450000Y-76469420D03*
X141950000Y-76469420D03*
X141450000Y-76469420D03*
X140950000Y-76469420D03*
X140450000Y-76469420D03*
X139950000Y-76469420D03*
X139450000Y-76469420D03*
%TD*%
D15*
%TO.C,R15*%
X158602500Y-95581920D03*
X159797500Y-95581920D03*
%TD*%
D16*
%TO.C,C7*%
X146650000Y-90564420D03*
X146650000Y-91699420D03*
%TD*%
D17*
%TO.C,Q1*%
X165237500Y-99969420D03*
X167137500Y-99969420D03*
X166187500Y-98094420D03*
%TD*%
D18*
%TO.C,U6*%
X160237500Y-81781920D03*
X160237500Y-80831920D03*
X160237500Y-79881920D03*
X157962500Y-79881920D03*
X157962500Y-81781920D03*
%TD*%
D19*
%TO.C,D1*%
X157587500Y-100869420D03*
X157587500Y-99294420D03*
%TD*%
D20*
%TO.C,SW1*%
X163340000Y-108431920D03*
D21*
X165880000Y-108431920D03*
X160800000Y-108431920D03*
%TD*%
D22*
%TO.C,R31*%
X128900000Y-89356920D03*
D23*
X128900000Y-88431920D03*
X128900000Y-87631920D03*
D22*
X128900000Y-86706920D03*
X127100000Y-86706920D03*
D23*
X127100000Y-87631920D03*
X127100000Y-88431920D03*
D22*
X127100000Y-89356920D03*
%TD*%
D24*
%TO.C,R27*%
X153047500Y-81731920D03*
X151852500Y-81731920D03*
%TD*%
D25*
%TO.C,C8*%
X143967500Y-73531920D03*
X142832500Y-73531920D03*
%TD*%
D16*
%TO.C,C16*%
X162594232Y-93014420D03*
X162594232Y-94149420D03*
%TD*%
D26*
%TO.C,CN1*%
X133660000Y-86481920D03*
X133660000Y-85981920D03*
X133660000Y-85481920D03*
X133660000Y-84981920D03*
X132340000Y-84981920D03*
X132340000Y-85481920D03*
X132340000Y-85981920D03*
X132340000Y-86481920D03*
%TD*%
D27*
%TO.C,C15*%
X158632500Y-91831920D03*
X159767500Y-91831920D03*
%TD*%
D24*
%TO.C,R19*%
X136097500Y-75200000D03*
X134902500Y-75200000D03*
%TD*%
D22*
%TO.C,R23*%
X128900000Y-81056920D03*
D23*
X128900000Y-80131920D03*
X128900000Y-79331920D03*
D22*
X128900000Y-78406920D03*
X127100000Y-78406920D03*
D23*
X127100000Y-79331920D03*
X127100000Y-80131920D03*
D22*
X127100000Y-81056920D03*
%TD*%
D12*
%TO.C,C17*%
X160662500Y-88531920D03*
X162737500Y-88531920D03*
%TD*%
D28*
%TO.C,D2*%
X167637500Y-102481920D03*
X164337500Y-102481920D03*
%TD*%
D29*
%TO.C,U7*%
X157685000Y-115231920D03*
X157685000Y-114731920D03*
X157685000Y-114231920D03*
X157685000Y-113731920D03*
X157685000Y-113231920D03*
X156915000Y-113231920D03*
X156915000Y-113731920D03*
X156915000Y-114231920D03*
X156915000Y-114731920D03*
X156915000Y-115231920D03*
%TD*%
D24*
%TO.C,R28*%
X153047500Y-80331920D03*
X151852500Y-80331920D03*
%TD*%
D30*
%TO.C,U4*%
X126225000Y-92376920D03*
X126225000Y-93646920D03*
X126225000Y-94916920D03*
X126225000Y-96186920D03*
X131175000Y-96186920D03*
X131175000Y-94916920D03*
X131175000Y-93646920D03*
X131175000Y-92376920D03*
%TD*%
D31*
%TO.C,C6*%
X144950000Y-90969420D03*
X144950000Y-94094420D03*
%TD*%
D15*
%TO.C,R21*%
X121902500Y-101131920D03*
X123097500Y-101131920D03*
%TD*%
%TO.C,R25*%
X139802500Y-72900000D03*
X140997500Y-72900000D03*
%TD*%
D16*
%TO.C,C10*%
X143250000Y-90564420D03*
X143250000Y-91699420D03*
%TD*%
D24*
%TO.C,R17*%
X160797500Y-74631920D03*
X159602500Y-74631920D03*
%TD*%
D16*
%TO.C,R10*%
X159087500Y-99914420D03*
X159087500Y-101049420D03*
%TD*%
D32*
%TO.C,L2*%
X166150000Y-95431920D03*
X166150000Y-91331920D03*
%TD*%
D33*
%TO.C,U3*%
X143550000Y-117691920D03*
X143550000Y-116421920D03*
X143550000Y-115151920D03*
X143550000Y-113881920D03*
X143550000Y-112611920D03*
X143550000Y-111341920D03*
X143550000Y-110071920D03*
X143550000Y-108801920D03*
X143550000Y-107531920D03*
X143550000Y-106261920D03*
X143550000Y-104991920D03*
X143550000Y-103721920D03*
X143550000Y-102451920D03*
X143550000Y-101181920D03*
D34*
X141785000Y-99931920D03*
X140515000Y-99931920D03*
X139245000Y-99931920D03*
X137975000Y-99931920D03*
X136705000Y-99931920D03*
X135435000Y-99931920D03*
X134165000Y-99931920D03*
X132895000Y-99931920D03*
X131625000Y-99931920D03*
X130355000Y-99931920D03*
X129085000Y-99931920D03*
X127815000Y-99931920D03*
D33*
X126050000Y-101181920D03*
X126050000Y-102451920D03*
X126050000Y-103721920D03*
X126050000Y-104991920D03*
X126050000Y-106261920D03*
X126050000Y-107531920D03*
X126050000Y-108801920D03*
X126050000Y-110071920D03*
X126050000Y-111341920D03*
X126050000Y-112611920D03*
X126050000Y-113881920D03*
X126050000Y-115151920D03*
X126050000Y-116421920D03*
X126050000Y-117691920D03*
D35*
X137700000Y-110671920D03*
X137700000Y-109271920D03*
X137000000Y-111371920D03*
X137000000Y-109971920D03*
X137000000Y-108571920D03*
X136300000Y-110671920D03*
D36*
X136300000Y-109971920D03*
D35*
X136300000Y-109271920D03*
X135600000Y-111371920D03*
X135600000Y-109971920D03*
X135600000Y-108571920D03*
X134900000Y-110671920D03*
X134900000Y-109271920D03*
%TD*%
D15*
%TO.C,R16*%
X158602500Y-93081920D03*
X159797500Y-93081920D03*
%TD*%
D37*
%TO.C,C22*%
X154200000Y-76999420D03*
X154200000Y-75864420D03*
%TD*%
D38*
%TO.C,C21*%
X152500000Y-76794420D03*
X152500000Y-75069420D03*
%TD*%
D39*
%TO.C,IC1*%
X161250000Y-91794420D03*
X161750000Y-91794420D03*
X162250000Y-91794420D03*
X162250000Y-90369420D03*
X161750000Y-90369420D03*
X161250000Y-90369420D03*
%TD*%
D25*
%TO.C,C13*%
X162405000Y-105781920D03*
X161270000Y-105781920D03*
%TD*%
D37*
%TO.C,C1*%
X142250000Y-91699420D03*
X142250000Y-90564420D03*
%TD*%
D40*
%TO.C,U2*%
X160487500Y-103719420D03*
X161437500Y-103719420D03*
X162387500Y-103719420D03*
X162387500Y-101444420D03*
X160487500Y-101444420D03*
%TD*%
D37*
%TO.C,C28*%
X133800000Y-93549420D03*
X133800000Y-92414420D03*
%TD*%
D41*
%TO.C,J3*%
X109700000Y-94881920D03*
D42*
X109700000Y-90681920D03*
X109700000Y-86481920D03*
X109700000Y-82281920D03*
X109700000Y-78081920D03*
X115200000Y-94881920D03*
X115200000Y-90681920D03*
X115200000Y-86481920D03*
X115200000Y-82281920D03*
X115200000Y-78081920D03*
%TD*%
D24*
%TO.C,R14*%
X159797500Y-94331920D03*
X158602500Y-94331920D03*
%TD*%
D15*
%TO.C,R12*%
X134902500Y-76200000D03*
X136097500Y-76200000D03*
%TD*%
D24*
%TO.C,R29*%
X153047500Y-79331920D03*
X151852500Y-79331920D03*
%TD*%
D25*
%TO.C,R9*%
X158705000Y-102581920D03*
X157570000Y-102581920D03*
%TD*%
D12*
%TO.C,C19*%
X160662500Y-84131920D03*
X162737500Y-84131920D03*
%TD*%
D27*
%TO.C,R11*%
X161282500Y-98131920D03*
X162417500Y-98131920D03*
%TD*%
D37*
%TO.C,C11*%
X141250000Y-91699420D03*
X141250000Y-90564420D03*
%TD*%
D15*
%TO.C,R18*%
X161800000Y-79831920D03*
X162995000Y-79831920D03*
%TD*%
D43*
%TO.C,J1*%
X169100000Y-82731920D03*
D44*
X169100000Y-85231920D03*
%TD*%
D24*
%TO.C,R20*%
X147197500Y-115131920D03*
X146002500Y-115131920D03*
%TD*%
D26*
%TO.C,CN2*%
X133660000Y-82581920D03*
X133660000Y-82081920D03*
X133660000Y-81581920D03*
X133660000Y-81081920D03*
X132340000Y-81081920D03*
X132340000Y-81581920D03*
X132340000Y-82081920D03*
X132340000Y-82581920D03*
%TD*%
D45*
%TO.C,P1*%
X161895000Y-118521920D03*
X161895000Y-112741920D03*
D46*
X160775000Y-118831920D03*
X160775000Y-118031920D03*
D47*
X160775000Y-116881920D03*
X160775000Y-115881920D03*
X160775000Y-115381920D03*
X160775000Y-114381920D03*
D46*
X160775000Y-113231920D03*
X160775000Y-112431920D03*
X160775000Y-112431920D03*
X160775000Y-113231920D03*
D47*
X160775000Y-113881920D03*
X160775000Y-114881920D03*
X160775000Y-116381920D03*
X160775000Y-117381920D03*
D46*
X160775000Y-118031920D03*
X160775000Y-118831920D03*
D48*
X161375000Y-119951920D03*
D49*
X165575000Y-119951920D03*
D48*
X161375000Y-111311920D03*
D49*
X165575000Y-111311920D03*
%TD*%
D50*
%TO.C,TP1*%
X153200000Y-85131920D03*
%TD*%
D15*
%TO.C,R26*%
X145302500Y-73331920D03*
X146497500Y-73331920D03*
%TD*%
D16*
%TO.C,R24*%
X158600000Y-116764420D03*
X158600000Y-117899420D03*
%TD*%
D25*
%TO.C,C12*%
X162417500Y-99331920D03*
X161282500Y-99331920D03*
%TD*%
%TO.C,R22*%
X117367500Y-99031920D03*
X116232500Y-99031920D03*
%TD*%
%TO.C,C26*%
X140967500Y-73900000D03*
X139832500Y-73900000D03*
%TD*%
%TO.C,C9*%
X143967500Y-72531920D03*
X142832500Y-72531920D03*
%TD*%
D37*
%TO.C,C24*%
X148900000Y-115067500D03*
X148900000Y-113932500D03*
%TD*%
D24*
%TO.C,R30*%
X153047500Y-78331920D03*
X151852500Y-78331920D03*
%TD*%
M02*
