%TF.GenerationSoftware,KiCad,Pcbnew,10.0.1*%
%TF.CreationDate,2026-07-16T21:16:00+03:00*%
%TF.ProjectId,ads1299_test_board,61647331-3239-4395-9f74-6573745f626f,rev?*%
%TF.SameCoordinates,Original*%
%TF.FileFunction,Soldermask,Bot*%
%TF.FilePolarity,Negative*%
%FSLAX46Y46*%
G04 Gerber Fmt 4.6, Leading zero omitted, Abs format (unit mm)*
G04 Created by KiCad (PCBNEW 10.0.1) date 2026-07-16 21:16:00*
%MOMM*%
%LPD*%
G01*
G04 APERTURE LIST*
G04 Aperture macros list*
%AMRoundRect*
0 Rectangle with rounded corners*
0 $1 Rounding radius*
0 $2 $3 $4 $5 $6 $7 $8 $9 X,Y pos of 4 corners*
0 Add a 4 corners polygon primitive as box body*
4,1,4,$2,$3,$4,$5,$6,$7,$8,$9,$2,$3,0*
0 Add four circle primitives for the rounded corners*
1,1,$1+$1,$2,$3*
1,1,$1+$1,$4,$5*
1,1,$1+$1,$6,$7*
1,1,$1+$1,$8,$9*
0 Add four rect primitives between the rounded corners*
20,1,$1+$1,$2,$3,$4,$5,0*
20,1,$1+$1,$4,$5,$6,$7,0*
20,1,$1+$1,$6,$7,$8,$9,0*
20,1,$1+$1,$8,$9,$2,$3,0*%
G04 Aperture macros list end*
%ADD10R,1.500000X1.500000*%
%ADD11C,1.600000*%
%ADD12RoundRect,0.250000X0.600000X0.600000X-0.600000X0.600000X-0.600000X-0.600000X0.600000X-0.600000X0*%
%ADD13C,1.700000*%
%ADD14RoundRect,0.250000X-0.750000X0.600000X-0.750000X-0.600000X0.750000X-0.600000X0.750000X0.600000X0*%
%ADD15O,2.000000X1.700000*%
%ADD16C,0.650000*%
%ADD17O,2.100000X1.000000*%
%ADD18O,1.800000X1.000000*%
%ADD19RoundRect,0.101600X0.280000X0.150000X-0.280000X0.150000X-0.280000X-0.150000X0.280000X-0.150000X0*%
G04 APERTURE END LIST*
D10*
%TO.C,SW1*%
X158115000Y-108712000D03*
D11*
X158115000Y-106172000D03*
X158115000Y-111252000D03*
%TD*%
D12*
%TO.C,J2*%
X117300000Y-99860000D03*
D13*
X114760000Y-99860000D03*
X117300000Y-97320000D03*
X114760000Y-97320000D03*
X117300000Y-94780000D03*
X114760000Y-94780000D03*
X117300000Y-92240000D03*
X114760000Y-92240000D03*
X117300000Y-89700000D03*
X114760000Y-89700000D03*
X117300000Y-87160000D03*
X114760000Y-87160000D03*
X117300000Y-84620000D03*
X114760000Y-84620000D03*
X117300000Y-82080000D03*
X114760000Y-82080000D03*
X117300000Y-79540000D03*
X114760000Y-79540000D03*
X117300000Y-77000000D03*
X114760000Y-77000000D03*
%TD*%
D14*
%TO.C,J1*%
X169100000Y-82731920D03*
D15*
X169100000Y-85231920D03*
%TD*%
D16*
%TO.C,P1*%
X165735000Y-125857000D03*
X165735000Y-120077000D03*
D17*
X165215000Y-127287000D03*
D18*
X169415000Y-127287000D03*
D17*
X165215000Y-118647000D03*
D18*
X169415000Y-118647000D03*
%TD*%
D19*
%TO.C,CN4*%
X137260000Y-78192000D03*
X137260000Y-78692000D03*
X137260000Y-79192000D03*
X137260000Y-79692000D03*
X135940000Y-79692000D03*
X135940000Y-79192000D03*
X135940000Y-78692000D03*
X135940000Y-78192000D03*
%TD*%
%TO.C,CN1*%
X137260000Y-85050000D03*
X137260000Y-85550000D03*
X137260000Y-86050000D03*
X137260000Y-86550000D03*
X135940000Y-86550000D03*
X135940000Y-86050000D03*
X135940000Y-85550000D03*
X135940000Y-85050000D03*
%TD*%
%TO.C,CN3*%
X137260000Y-80478000D03*
X137260000Y-80978000D03*
X137260000Y-81478000D03*
X137260000Y-81978000D03*
X135940000Y-81978000D03*
X135940000Y-81478000D03*
X135940000Y-80978000D03*
X135940000Y-80478000D03*
%TD*%
%TO.C,CN2*%
X137260000Y-82764000D03*
X137260000Y-83264000D03*
X137260000Y-83764000D03*
X137260000Y-84264000D03*
X135940000Y-84264000D03*
X135940000Y-83764000D03*
X135940000Y-83264000D03*
X135940000Y-82764000D03*
%TD*%
M02*
