%TF.GenerationSoftware,KiCad,Pcbnew,10.0.1*%
%TF.CreationDate,2026-07-13T19:05:02+03:00*%
%TF.ProjectId,ads1299_test_board,61647331-3239-4395-9f74-6573745f626f,rev?*%
%TF.SameCoordinates,Original*%
%TF.FileFunction,Legend,Top*%
%TF.FilePolarity,Positive*%
%FSLAX46Y46*%
G04 Gerber Fmt 4.6, Leading zero omitted, Abs format (unit mm)*
G04 Created by KiCad (PCBNEW 10.0.1) date 2026-07-13 19:05:02*
%MOMM*%
%LPD*%
G01*
G04 APERTURE LIST*
%ADD10C,0.150000*%
%ADD11C,0.101600*%
%ADD12C,0.120000*%
%ADD13C,0.200000*%
%ADD14C,0.050000*%
%ADD15C,0.250000*%
%ADD16C,0.000000*%
G04 APERTURE END LIST*
D10*
X155915200Y-110807332D02*
X155962819Y-110664475D01*
X155962819Y-110664475D02*
X155962819Y-110426380D01*
X155962819Y-110426380D02*
X155915200Y-110331142D01*
X155915200Y-110331142D02*
X155867580Y-110283523D01*
X155867580Y-110283523D02*
X155772342Y-110235904D01*
X155772342Y-110235904D02*
X155677104Y-110235904D01*
X155677104Y-110235904D02*
X155581866Y-110283523D01*
X155581866Y-110283523D02*
X155534247Y-110331142D01*
X155534247Y-110331142D02*
X155486628Y-110426380D01*
X155486628Y-110426380D02*
X155439009Y-110616856D01*
X155439009Y-110616856D02*
X155391390Y-110712094D01*
X155391390Y-110712094D02*
X155343771Y-110759713D01*
X155343771Y-110759713D02*
X155248533Y-110807332D01*
X155248533Y-110807332D02*
X155153295Y-110807332D01*
X155153295Y-110807332D02*
X155058057Y-110759713D01*
X155058057Y-110759713D02*
X155010438Y-110712094D01*
X155010438Y-110712094D02*
X154962819Y-110616856D01*
X154962819Y-110616856D02*
X154962819Y-110378761D01*
X154962819Y-110378761D02*
X155010438Y-110235904D01*
X154962819Y-109902570D02*
X155962819Y-109664475D01*
X155962819Y-109664475D02*
X155248533Y-109473999D01*
X155248533Y-109473999D02*
X155962819Y-109283523D01*
X155962819Y-109283523D02*
X154962819Y-109045428D01*
X155058057Y-108712094D02*
X155010438Y-108664475D01*
X155010438Y-108664475D02*
X154962819Y-108569237D01*
X154962819Y-108569237D02*
X154962819Y-108331142D01*
X154962819Y-108331142D02*
X155010438Y-108235904D01*
X155010438Y-108235904D02*
X155058057Y-108188285D01*
X155058057Y-108188285D02*
X155153295Y-108140666D01*
X155153295Y-108140666D02*
X155248533Y-108140666D01*
X155248533Y-108140666D02*
X155391390Y-108188285D01*
X155391390Y-108188285D02*
X155962819Y-108759713D01*
X155962819Y-108759713D02*
X155962819Y-108140666D01*
X162954819Y-77708109D02*
X161954819Y-77708109D01*
X162859580Y-76660491D02*
X162907200Y-76708110D01*
X162907200Y-76708110D02*
X162954819Y-76850967D01*
X162954819Y-76850967D02*
X162954819Y-76946205D01*
X162954819Y-76946205D02*
X162907200Y-77089062D01*
X162907200Y-77089062D02*
X162811961Y-77184300D01*
X162811961Y-77184300D02*
X162716723Y-77231919D01*
X162716723Y-77231919D02*
X162526247Y-77279538D01*
X162526247Y-77279538D02*
X162383390Y-77279538D01*
X162383390Y-77279538D02*
X162192914Y-77231919D01*
X162192914Y-77231919D02*
X162097676Y-77184300D01*
X162097676Y-77184300D02*
X162002438Y-77089062D01*
X162002438Y-77089062D02*
X161954819Y-76946205D01*
X161954819Y-76946205D02*
X161954819Y-76850967D01*
X161954819Y-76850967D02*
X162002438Y-76708110D01*
X162002438Y-76708110D02*
X162050057Y-76660491D01*
X162050057Y-76279538D02*
X162002438Y-76231919D01*
X162002438Y-76231919D02*
X161954819Y-76136681D01*
X161954819Y-76136681D02*
X161954819Y-75898586D01*
X161954819Y-75898586D02*
X162002438Y-75803348D01*
X162002438Y-75803348D02*
X162050057Y-75755729D01*
X162050057Y-75755729D02*
X162145295Y-75708110D01*
X162145295Y-75708110D02*
X162240533Y-75708110D01*
X162240533Y-75708110D02*
X162383390Y-75755729D01*
X162383390Y-75755729D02*
X162954819Y-76327157D01*
X162954819Y-76327157D02*
X162954819Y-75708110D01*
X164585714Y-86618024D02*
X164547618Y-86656120D01*
X164547618Y-86656120D02*
X164433333Y-86694215D01*
X164433333Y-86694215D02*
X164357142Y-86694215D01*
X164357142Y-86694215D02*
X164242856Y-86656120D01*
X164242856Y-86656120D02*
X164166666Y-86579929D01*
X164166666Y-86579929D02*
X164128571Y-86503739D01*
X164128571Y-86503739D02*
X164090475Y-86351358D01*
X164090475Y-86351358D02*
X164090475Y-86237072D01*
X164090475Y-86237072D02*
X164128571Y-86084691D01*
X164128571Y-86084691D02*
X164166666Y-86008500D01*
X164166666Y-86008500D02*
X164242856Y-85932310D01*
X164242856Y-85932310D02*
X164357142Y-85894215D01*
X164357142Y-85894215D02*
X164433333Y-85894215D01*
X164433333Y-85894215D02*
X164547618Y-85932310D01*
X164547618Y-85932310D02*
X164585714Y-85970405D01*
X165347618Y-86694215D02*
X164890475Y-86694215D01*
X165119047Y-86694215D02*
X165119047Y-85894215D01*
X165119047Y-85894215D02*
X165042856Y-86008500D01*
X165042856Y-86008500D02*
X164966666Y-86084691D01*
X164966666Y-86084691D02*
X164890475Y-86122786D01*
X165804761Y-86237072D02*
X165728571Y-86198977D01*
X165728571Y-86198977D02*
X165690476Y-86160881D01*
X165690476Y-86160881D02*
X165652380Y-86084691D01*
X165652380Y-86084691D02*
X165652380Y-86046596D01*
X165652380Y-86046596D02*
X165690476Y-85970405D01*
X165690476Y-85970405D02*
X165728571Y-85932310D01*
X165728571Y-85932310D02*
X165804761Y-85894215D01*
X165804761Y-85894215D02*
X165957142Y-85894215D01*
X165957142Y-85894215D02*
X166033333Y-85932310D01*
X166033333Y-85932310D02*
X166071428Y-85970405D01*
X166071428Y-85970405D02*
X166109523Y-86046596D01*
X166109523Y-86046596D02*
X166109523Y-86084691D01*
X166109523Y-86084691D02*
X166071428Y-86160881D01*
X166071428Y-86160881D02*
X166033333Y-86198977D01*
X166033333Y-86198977D02*
X165957142Y-86237072D01*
X165957142Y-86237072D02*
X165804761Y-86237072D01*
X165804761Y-86237072D02*
X165728571Y-86275167D01*
X165728571Y-86275167D02*
X165690476Y-86313262D01*
X165690476Y-86313262D02*
X165652380Y-86389453D01*
X165652380Y-86389453D02*
X165652380Y-86541834D01*
X165652380Y-86541834D02*
X165690476Y-86618024D01*
X165690476Y-86618024D02*
X165728571Y-86656120D01*
X165728571Y-86656120D02*
X165804761Y-86694215D01*
X165804761Y-86694215D02*
X165957142Y-86694215D01*
X165957142Y-86694215D02*
X166033333Y-86656120D01*
X166033333Y-86656120D02*
X166071428Y-86618024D01*
X166071428Y-86618024D02*
X166109523Y-86541834D01*
X166109523Y-86541834D02*
X166109523Y-86389453D01*
X166109523Y-86389453D02*
X166071428Y-86313262D01*
X166071428Y-86313262D02*
X166033333Y-86275167D01*
X166033333Y-86275167D02*
X165957142Y-86237072D01*
X147988095Y-75486739D02*
X147988095Y-76296262D01*
X147988095Y-76296262D02*
X148035714Y-76391500D01*
X148035714Y-76391500D02*
X148083333Y-76439120D01*
X148083333Y-76439120D02*
X148178571Y-76486739D01*
X148178571Y-76486739D02*
X148369047Y-76486739D01*
X148369047Y-76486739D02*
X148464285Y-76439120D01*
X148464285Y-76439120D02*
X148511904Y-76391500D01*
X148511904Y-76391500D02*
X148559523Y-76296262D01*
X148559523Y-76296262D02*
X148559523Y-75486739D01*
X149559523Y-76486739D02*
X148988095Y-76486739D01*
X149273809Y-76486739D02*
X149273809Y-75486739D01*
X149273809Y-75486739D02*
X149178571Y-75629596D01*
X149178571Y-75629596D02*
X149083333Y-75724834D01*
X149083333Y-75724834D02*
X148988095Y-75772453D01*
X155985714Y-95944215D02*
X155719047Y-95563262D01*
X155528571Y-95944215D02*
X155528571Y-95144215D01*
X155528571Y-95144215D02*
X155833333Y-95144215D01*
X155833333Y-95144215D02*
X155909523Y-95182310D01*
X155909523Y-95182310D02*
X155947618Y-95220405D01*
X155947618Y-95220405D02*
X155985714Y-95296596D01*
X155985714Y-95296596D02*
X155985714Y-95410881D01*
X155985714Y-95410881D02*
X155947618Y-95487072D01*
X155947618Y-95487072D02*
X155909523Y-95525167D01*
X155909523Y-95525167D02*
X155833333Y-95563262D01*
X155833333Y-95563262D02*
X155528571Y-95563262D01*
X156747618Y-95944215D02*
X156290475Y-95944215D01*
X156519047Y-95944215D02*
X156519047Y-95144215D01*
X156519047Y-95144215D02*
X156442856Y-95258500D01*
X156442856Y-95258500D02*
X156366666Y-95334691D01*
X156366666Y-95334691D02*
X156290475Y-95372786D01*
X157471428Y-95144215D02*
X157090476Y-95144215D01*
X157090476Y-95144215D02*
X157052380Y-95525167D01*
X157052380Y-95525167D02*
X157090476Y-95487072D01*
X157090476Y-95487072D02*
X157166666Y-95448977D01*
X157166666Y-95448977D02*
X157357142Y-95448977D01*
X157357142Y-95448977D02*
X157433333Y-95487072D01*
X157433333Y-95487072D02*
X157471428Y-95525167D01*
X157471428Y-95525167D02*
X157509523Y-95601358D01*
X157509523Y-95601358D02*
X157509523Y-95791834D01*
X157509523Y-95791834D02*
X157471428Y-95868024D01*
X157471428Y-95868024D02*
X157433333Y-95906120D01*
X157433333Y-95906120D02*
X157357142Y-95944215D01*
X157357142Y-95944215D02*
X157166666Y-95944215D01*
X157166666Y-95944215D02*
X157090476Y-95906120D01*
X157090476Y-95906120D02*
X157052380Y-95868024D01*
X146936104Y-93265252D02*
X146974200Y-93303348D01*
X146974200Y-93303348D02*
X147012295Y-93417633D01*
X147012295Y-93417633D02*
X147012295Y-93493824D01*
X147012295Y-93493824D02*
X146974200Y-93608110D01*
X146974200Y-93608110D02*
X146898009Y-93684300D01*
X146898009Y-93684300D02*
X146821819Y-93722395D01*
X146821819Y-93722395D02*
X146669438Y-93760491D01*
X146669438Y-93760491D02*
X146555152Y-93760491D01*
X146555152Y-93760491D02*
X146402771Y-93722395D01*
X146402771Y-93722395D02*
X146326580Y-93684300D01*
X146326580Y-93684300D02*
X146250390Y-93608110D01*
X146250390Y-93608110D02*
X146212295Y-93493824D01*
X146212295Y-93493824D02*
X146212295Y-93417633D01*
X146212295Y-93417633D02*
X146250390Y-93303348D01*
X146250390Y-93303348D02*
X146288485Y-93265252D01*
X146212295Y-92998586D02*
X146212295Y-92465252D01*
X146212295Y-92465252D02*
X147012295Y-92808110D01*
X167692261Y-97981977D02*
X167597023Y-97934358D01*
X167597023Y-97934358D02*
X167501785Y-97839120D01*
X167501785Y-97839120D02*
X167358928Y-97696262D01*
X167358928Y-97696262D02*
X167263690Y-97648643D01*
X167263690Y-97648643D02*
X167168452Y-97648643D01*
X167216071Y-97886739D02*
X167120833Y-97839120D01*
X167120833Y-97839120D02*
X167025595Y-97743881D01*
X167025595Y-97743881D02*
X166977976Y-97553405D01*
X166977976Y-97553405D02*
X166977976Y-97220072D01*
X166977976Y-97220072D02*
X167025595Y-97029596D01*
X167025595Y-97029596D02*
X167120833Y-96934358D01*
X167120833Y-96934358D02*
X167216071Y-96886739D01*
X167216071Y-96886739D02*
X167406547Y-96886739D01*
X167406547Y-96886739D02*
X167501785Y-96934358D01*
X167501785Y-96934358D02*
X167597023Y-97029596D01*
X167597023Y-97029596D02*
X167644642Y-97220072D01*
X167644642Y-97220072D02*
X167644642Y-97553405D01*
X167644642Y-97553405D02*
X167597023Y-97743881D01*
X167597023Y-97743881D02*
X167501785Y-97839120D01*
X167501785Y-97839120D02*
X167406547Y-97886739D01*
X167406547Y-97886739D02*
X167216071Y-97886739D01*
X168597023Y-97886739D02*
X168025595Y-97886739D01*
X168311309Y-97886739D02*
X168311309Y-96886739D01*
X168311309Y-96886739D02*
X168216071Y-97029596D01*
X168216071Y-97029596D02*
X168120833Y-97124834D01*
X168120833Y-97124834D02*
X168025595Y-97172453D01*
X156954819Y-84293824D02*
X157764342Y-84293824D01*
X157764342Y-84293824D02*
X157859580Y-84246205D01*
X157859580Y-84246205D02*
X157907200Y-84198586D01*
X157907200Y-84198586D02*
X157954819Y-84103348D01*
X157954819Y-84103348D02*
X157954819Y-83912872D01*
X157954819Y-83912872D02*
X157907200Y-83817634D01*
X157907200Y-83817634D02*
X157859580Y-83770015D01*
X157859580Y-83770015D02*
X157764342Y-83722396D01*
X157764342Y-83722396D02*
X156954819Y-83722396D01*
X156954819Y-82817634D02*
X156954819Y-83008110D01*
X156954819Y-83008110D02*
X157002438Y-83103348D01*
X157002438Y-83103348D02*
X157050057Y-83150967D01*
X157050057Y-83150967D02*
X157192914Y-83246205D01*
X157192914Y-83246205D02*
X157383390Y-83293824D01*
X157383390Y-83293824D02*
X157764342Y-83293824D01*
X157764342Y-83293824D02*
X157859580Y-83246205D01*
X157859580Y-83246205D02*
X157907200Y-83198586D01*
X157907200Y-83198586D02*
X157954819Y-83103348D01*
X157954819Y-83103348D02*
X157954819Y-82912872D01*
X157954819Y-82912872D02*
X157907200Y-82817634D01*
X157907200Y-82817634D02*
X157859580Y-82770015D01*
X157859580Y-82770015D02*
X157764342Y-82722396D01*
X157764342Y-82722396D02*
X157526247Y-82722396D01*
X157526247Y-82722396D02*
X157431009Y-82770015D01*
X157431009Y-82770015D02*
X157383390Y-82817634D01*
X157383390Y-82817634D02*
X157335771Y-82912872D01*
X157335771Y-82912872D02*
X157335771Y-83103348D01*
X157335771Y-83103348D02*
X157383390Y-83198586D01*
X157383390Y-83198586D02*
X157431009Y-83246205D01*
X157431009Y-83246205D02*
X157526247Y-83293824D01*
X156089795Y-100989895D02*
X155289795Y-100989895D01*
X155289795Y-100989895D02*
X155289795Y-100799419D01*
X155289795Y-100799419D02*
X155327890Y-100685133D01*
X155327890Y-100685133D02*
X155404080Y-100608943D01*
X155404080Y-100608943D02*
X155480271Y-100570848D01*
X155480271Y-100570848D02*
X155632652Y-100532752D01*
X155632652Y-100532752D02*
X155746938Y-100532752D01*
X155746938Y-100532752D02*
X155899319Y-100570848D01*
X155899319Y-100570848D02*
X155975509Y-100608943D01*
X155975509Y-100608943D02*
X156051700Y-100685133D01*
X156051700Y-100685133D02*
X156089795Y-100799419D01*
X156089795Y-100799419D02*
X156089795Y-100989895D01*
X156089795Y-99770848D02*
X156089795Y-100227991D01*
X156089795Y-99999419D02*
X155289795Y-99999419D01*
X155289795Y-99999419D02*
X155404080Y-100075610D01*
X155404080Y-100075610D02*
X155480271Y-100151800D01*
X155480271Y-100151800D02*
X155518366Y-100227991D01*
X157887200Y-109918332D02*
X157934819Y-109775475D01*
X157934819Y-109775475D02*
X157934819Y-109537380D01*
X157934819Y-109537380D02*
X157887200Y-109442142D01*
X157887200Y-109442142D02*
X157839580Y-109394523D01*
X157839580Y-109394523D02*
X157744342Y-109346904D01*
X157744342Y-109346904D02*
X157649104Y-109346904D01*
X157649104Y-109346904D02*
X157553866Y-109394523D01*
X157553866Y-109394523D02*
X157506247Y-109442142D01*
X157506247Y-109442142D02*
X157458628Y-109537380D01*
X157458628Y-109537380D02*
X157411009Y-109727856D01*
X157411009Y-109727856D02*
X157363390Y-109823094D01*
X157363390Y-109823094D02*
X157315771Y-109870713D01*
X157315771Y-109870713D02*
X157220533Y-109918332D01*
X157220533Y-109918332D02*
X157125295Y-109918332D01*
X157125295Y-109918332D02*
X157030057Y-109870713D01*
X157030057Y-109870713D02*
X156982438Y-109823094D01*
X156982438Y-109823094D02*
X156934819Y-109727856D01*
X156934819Y-109727856D02*
X156934819Y-109489761D01*
X156934819Y-109489761D02*
X156982438Y-109346904D01*
X156934819Y-109013570D02*
X157934819Y-108775475D01*
X157934819Y-108775475D02*
X157220533Y-108584999D01*
X157220533Y-108584999D02*
X157934819Y-108394523D01*
X157934819Y-108394523D02*
X156934819Y-108156428D01*
X157934819Y-107251666D02*
X157934819Y-107823094D01*
X157934819Y-107537380D02*
X156934819Y-107537380D01*
X156934819Y-107537380D02*
X157077676Y-107632618D01*
X157077676Y-107632618D02*
X157172914Y-107727856D01*
X157172914Y-107727856D02*
X157220533Y-107823094D01*
D11*
X127485714Y-85746731D02*
X127219047Y-85365778D01*
X127028571Y-85746731D02*
X127028571Y-84946731D01*
X127028571Y-84946731D02*
X127333333Y-84946731D01*
X127333333Y-84946731D02*
X127409523Y-84984826D01*
X127409523Y-84984826D02*
X127447618Y-85022921D01*
X127447618Y-85022921D02*
X127485714Y-85099112D01*
X127485714Y-85099112D02*
X127485714Y-85213397D01*
X127485714Y-85213397D02*
X127447618Y-85289588D01*
X127447618Y-85289588D02*
X127409523Y-85327683D01*
X127409523Y-85327683D02*
X127333333Y-85365778D01*
X127333333Y-85365778D02*
X127028571Y-85365778D01*
X127752380Y-84946731D02*
X128247618Y-84946731D01*
X128247618Y-84946731D02*
X127980952Y-85251493D01*
X127980952Y-85251493D02*
X128095237Y-85251493D01*
X128095237Y-85251493D02*
X128171428Y-85289588D01*
X128171428Y-85289588D02*
X128209523Y-85327683D01*
X128209523Y-85327683D02*
X128247618Y-85403874D01*
X128247618Y-85403874D02*
X128247618Y-85594350D01*
X128247618Y-85594350D02*
X128209523Y-85670540D01*
X128209523Y-85670540D02*
X128171428Y-85708636D01*
X128171428Y-85708636D02*
X128095237Y-85746731D01*
X128095237Y-85746731D02*
X127866666Y-85746731D01*
X127866666Y-85746731D02*
X127790475Y-85708636D01*
X127790475Y-85708636D02*
X127752380Y-85670540D01*
X129009523Y-85746731D02*
X128552380Y-85746731D01*
X128780952Y-85746731D02*
X128780952Y-84946731D01*
X128780952Y-84946731D02*
X128704761Y-85061016D01*
X128704761Y-85061016D02*
X128628571Y-85137207D01*
X128628571Y-85137207D02*
X128552380Y-85175302D01*
D10*
X154583214Y-82114215D02*
X154316547Y-81733262D01*
X154126071Y-82114215D02*
X154126071Y-81314215D01*
X154126071Y-81314215D02*
X154430833Y-81314215D01*
X154430833Y-81314215D02*
X154507023Y-81352310D01*
X154507023Y-81352310D02*
X154545118Y-81390405D01*
X154545118Y-81390405D02*
X154583214Y-81466596D01*
X154583214Y-81466596D02*
X154583214Y-81580881D01*
X154583214Y-81580881D02*
X154545118Y-81657072D01*
X154545118Y-81657072D02*
X154507023Y-81695167D01*
X154507023Y-81695167D02*
X154430833Y-81733262D01*
X154430833Y-81733262D02*
X154126071Y-81733262D01*
X154887975Y-81390405D02*
X154926071Y-81352310D01*
X154926071Y-81352310D02*
X155002261Y-81314215D01*
X155002261Y-81314215D02*
X155192737Y-81314215D01*
X155192737Y-81314215D02*
X155268928Y-81352310D01*
X155268928Y-81352310D02*
X155307023Y-81390405D01*
X155307023Y-81390405D02*
X155345118Y-81466596D01*
X155345118Y-81466596D02*
X155345118Y-81542786D01*
X155345118Y-81542786D02*
X155307023Y-81657072D01*
X155307023Y-81657072D02*
X154849880Y-82114215D01*
X154849880Y-82114215D02*
X155345118Y-82114215D01*
X155611785Y-81314215D02*
X156145119Y-81314215D01*
X156145119Y-81314215D02*
X155802261Y-82114215D01*
X142966667Y-74986104D02*
X142928571Y-75024200D01*
X142928571Y-75024200D02*
X142814286Y-75062295D01*
X142814286Y-75062295D02*
X142738095Y-75062295D01*
X142738095Y-75062295D02*
X142623809Y-75024200D01*
X142623809Y-75024200D02*
X142547619Y-74948009D01*
X142547619Y-74948009D02*
X142509524Y-74871819D01*
X142509524Y-74871819D02*
X142471428Y-74719438D01*
X142471428Y-74719438D02*
X142471428Y-74605152D01*
X142471428Y-74605152D02*
X142509524Y-74452771D01*
X142509524Y-74452771D02*
X142547619Y-74376580D01*
X142547619Y-74376580D02*
X142623809Y-74300390D01*
X142623809Y-74300390D02*
X142738095Y-74262295D01*
X142738095Y-74262295D02*
X142814286Y-74262295D01*
X142814286Y-74262295D02*
X142928571Y-74300390D01*
X142928571Y-74300390D02*
X142966667Y-74338485D01*
X143423809Y-74605152D02*
X143347619Y-74567057D01*
X143347619Y-74567057D02*
X143309524Y-74528961D01*
X143309524Y-74528961D02*
X143271428Y-74452771D01*
X143271428Y-74452771D02*
X143271428Y-74414676D01*
X143271428Y-74414676D02*
X143309524Y-74338485D01*
X143309524Y-74338485D02*
X143347619Y-74300390D01*
X143347619Y-74300390D02*
X143423809Y-74262295D01*
X143423809Y-74262295D02*
X143576190Y-74262295D01*
X143576190Y-74262295D02*
X143652381Y-74300390D01*
X143652381Y-74300390D02*
X143690476Y-74338485D01*
X143690476Y-74338485D02*
X143728571Y-74414676D01*
X143728571Y-74414676D02*
X143728571Y-74452771D01*
X143728571Y-74452771D02*
X143690476Y-74528961D01*
X143690476Y-74528961D02*
X143652381Y-74567057D01*
X143652381Y-74567057D02*
X143576190Y-74605152D01*
X143576190Y-74605152D02*
X143423809Y-74605152D01*
X143423809Y-74605152D02*
X143347619Y-74643247D01*
X143347619Y-74643247D02*
X143309524Y-74681342D01*
X143309524Y-74681342D02*
X143271428Y-74757533D01*
X143271428Y-74757533D02*
X143271428Y-74909914D01*
X143271428Y-74909914D02*
X143309524Y-74986104D01*
X143309524Y-74986104D02*
X143347619Y-75024200D01*
X143347619Y-75024200D02*
X143423809Y-75062295D01*
X143423809Y-75062295D02*
X143576190Y-75062295D01*
X143576190Y-75062295D02*
X143652381Y-75024200D01*
X143652381Y-75024200D02*
X143690476Y-74986104D01*
X143690476Y-74986104D02*
X143728571Y-74909914D01*
X143728571Y-74909914D02*
X143728571Y-74757533D01*
X143728571Y-74757533D02*
X143690476Y-74681342D01*
X143690476Y-74681342D02*
X143652381Y-74643247D01*
X143652381Y-74643247D02*
X143576190Y-74605152D01*
X161880336Y-94096205D02*
X161918432Y-94134301D01*
X161918432Y-94134301D02*
X161956527Y-94248586D01*
X161956527Y-94248586D02*
X161956527Y-94324777D01*
X161956527Y-94324777D02*
X161918432Y-94439063D01*
X161918432Y-94439063D02*
X161842241Y-94515253D01*
X161842241Y-94515253D02*
X161766051Y-94553348D01*
X161766051Y-94553348D02*
X161613670Y-94591444D01*
X161613670Y-94591444D02*
X161499384Y-94591444D01*
X161499384Y-94591444D02*
X161347003Y-94553348D01*
X161347003Y-94553348D02*
X161270812Y-94515253D01*
X161270812Y-94515253D02*
X161194622Y-94439063D01*
X161194622Y-94439063D02*
X161156527Y-94324777D01*
X161156527Y-94324777D02*
X161156527Y-94248586D01*
X161156527Y-94248586D02*
X161194622Y-94134301D01*
X161194622Y-94134301D02*
X161232717Y-94096205D01*
X161956527Y-93334301D02*
X161956527Y-93791444D01*
X161956527Y-93562872D02*
X161156527Y-93562872D01*
X161156527Y-93562872D02*
X161270812Y-93639063D01*
X161270812Y-93639063D02*
X161347003Y-93715253D01*
X161347003Y-93715253D02*
X161385098Y-93791444D01*
X161156527Y-92648586D02*
X161156527Y-92800967D01*
X161156527Y-92800967D02*
X161194622Y-92877158D01*
X161194622Y-92877158D02*
X161232717Y-92915253D01*
X161232717Y-92915253D02*
X161347003Y-92991443D01*
X161347003Y-92991443D02*
X161499384Y-93029539D01*
X161499384Y-93029539D02*
X161804146Y-93029539D01*
X161804146Y-93029539D02*
X161880336Y-92991443D01*
X161880336Y-92991443D02*
X161918432Y-92953348D01*
X161918432Y-92953348D02*
X161956527Y-92877158D01*
X161956527Y-92877158D02*
X161956527Y-92724777D01*
X161956527Y-92724777D02*
X161918432Y-92648586D01*
X161918432Y-92648586D02*
X161880336Y-92610491D01*
X161880336Y-92610491D02*
X161804146Y-92572396D01*
X161804146Y-92572396D02*
X161613670Y-92572396D01*
X161613670Y-92572396D02*
X161537479Y-92610491D01*
X161537479Y-92610491D02*
X161499384Y-92648586D01*
X161499384Y-92648586D02*
X161461289Y-92724777D01*
X161461289Y-92724777D02*
X161461289Y-92877158D01*
X161461289Y-92877158D02*
X161499384Y-92953348D01*
X161499384Y-92953348D02*
X161537479Y-92991443D01*
X161537479Y-92991443D02*
X161613670Y-93029539D01*
D11*
X132747619Y-87820540D02*
X132709523Y-87858636D01*
X132709523Y-87858636D02*
X132595238Y-87896731D01*
X132595238Y-87896731D02*
X132519047Y-87896731D01*
X132519047Y-87896731D02*
X132404761Y-87858636D01*
X132404761Y-87858636D02*
X132328571Y-87782445D01*
X132328571Y-87782445D02*
X132290476Y-87706255D01*
X132290476Y-87706255D02*
X132252380Y-87553874D01*
X132252380Y-87553874D02*
X132252380Y-87439588D01*
X132252380Y-87439588D02*
X132290476Y-87287207D01*
X132290476Y-87287207D02*
X132328571Y-87211016D01*
X132328571Y-87211016D02*
X132404761Y-87134826D01*
X132404761Y-87134826D02*
X132519047Y-87096731D01*
X132519047Y-87096731D02*
X132595238Y-87096731D01*
X132595238Y-87096731D02*
X132709523Y-87134826D01*
X132709523Y-87134826D02*
X132747619Y-87172921D01*
X133090476Y-87896731D02*
X133090476Y-87096731D01*
X133090476Y-87096731D02*
X133547619Y-87896731D01*
X133547619Y-87896731D02*
X133547619Y-87096731D01*
X134347618Y-87896731D02*
X133890475Y-87896731D01*
X134119047Y-87896731D02*
X134119047Y-87096731D01*
X134119047Y-87096731D02*
X134042856Y-87211016D01*
X134042856Y-87211016D02*
X133966666Y-87287207D01*
X133966666Y-87287207D02*
X133890475Y-87325302D01*
D10*
X156003214Y-92118024D02*
X155965118Y-92156120D01*
X155965118Y-92156120D02*
X155850833Y-92194215D01*
X155850833Y-92194215D02*
X155774642Y-92194215D01*
X155774642Y-92194215D02*
X155660356Y-92156120D01*
X155660356Y-92156120D02*
X155584166Y-92079929D01*
X155584166Y-92079929D02*
X155546071Y-92003739D01*
X155546071Y-92003739D02*
X155507975Y-91851358D01*
X155507975Y-91851358D02*
X155507975Y-91737072D01*
X155507975Y-91737072D02*
X155546071Y-91584691D01*
X155546071Y-91584691D02*
X155584166Y-91508500D01*
X155584166Y-91508500D02*
X155660356Y-91432310D01*
X155660356Y-91432310D02*
X155774642Y-91394215D01*
X155774642Y-91394215D02*
X155850833Y-91394215D01*
X155850833Y-91394215D02*
X155965118Y-91432310D01*
X155965118Y-91432310D02*
X156003214Y-91470405D01*
X156765118Y-92194215D02*
X156307975Y-92194215D01*
X156536547Y-92194215D02*
X156536547Y-91394215D01*
X156536547Y-91394215D02*
X156460356Y-91508500D01*
X156460356Y-91508500D02*
X156384166Y-91584691D01*
X156384166Y-91584691D02*
X156307975Y-91622786D01*
X157488928Y-91394215D02*
X157107976Y-91394215D01*
X157107976Y-91394215D02*
X157069880Y-91775167D01*
X157069880Y-91775167D02*
X157107976Y-91737072D01*
X157107976Y-91737072D02*
X157184166Y-91698977D01*
X157184166Y-91698977D02*
X157374642Y-91698977D01*
X157374642Y-91698977D02*
X157450833Y-91737072D01*
X157450833Y-91737072D02*
X157488928Y-91775167D01*
X157488928Y-91775167D02*
X157527023Y-91851358D01*
X157527023Y-91851358D02*
X157527023Y-92041834D01*
X157527023Y-92041834D02*
X157488928Y-92118024D01*
X157488928Y-92118024D02*
X157450833Y-92156120D01*
X157450833Y-92156120D02*
X157374642Y-92194215D01*
X157374642Y-92194215D02*
X157184166Y-92194215D01*
X157184166Y-92194215D02*
X157107976Y-92156120D01*
X157107976Y-92156120D02*
X157069880Y-92118024D01*
X132688214Y-75562295D02*
X132421547Y-75181342D01*
X132231071Y-75562295D02*
X132231071Y-74762295D01*
X132231071Y-74762295D02*
X132535833Y-74762295D01*
X132535833Y-74762295D02*
X132612023Y-74800390D01*
X132612023Y-74800390D02*
X132650118Y-74838485D01*
X132650118Y-74838485D02*
X132688214Y-74914676D01*
X132688214Y-74914676D02*
X132688214Y-75028961D01*
X132688214Y-75028961D02*
X132650118Y-75105152D01*
X132650118Y-75105152D02*
X132612023Y-75143247D01*
X132612023Y-75143247D02*
X132535833Y-75181342D01*
X132535833Y-75181342D02*
X132231071Y-75181342D01*
X133450118Y-75562295D02*
X132992975Y-75562295D01*
X133221547Y-75562295D02*
X133221547Y-74762295D01*
X133221547Y-74762295D02*
X133145356Y-74876580D01*
X133145356Y-74876580D02*
X133069166Y-74952771D01*
X133069166Y-74952771D02*
X132992975Y-74990866D01*
X133831071Y-75562295D02*
X133983452Y-75562295D01*
X133983452Y-75562295D02*
X134059642Y-75524200D01*
X134059642Y-75524200D02*
X134097738Y-75486104D01*
X134097738Y-75486104D02*
X134173928Y-75371819D01*
X134173928Y-75371819D02*
X134212023Y-75219438D01*
X134212023Y-75219438D02*
X134212023Y-74914676D01*
X134212023Y-74914676D02*
X134173928Y-74838485D01*
X134173928Y-74838485D02*
X134135833Y-74800390D01*
X134135833Y-74800390D02*
X134059642Y-74762295D01*
X134059642Y-74762295D02*
X133907261Y-74762295D01*
X133907261Y-74762295D02*
X133831071Y-74800390D01*
X133831071Y-74800390D02*
X133792976Y-74838485D01*
X133792976Y-74838485D02*
X133754880Y-74914676D01*
X133754880Y-74914676D02*
X133754880Y-75105152D01*
X133754880Y-75105152D02*
X133792976Y-75181342D01*
X133792976Y-75181342D02*
X133831071Y-75219438D01*
X133831071Y-75219438D02*
X133907261Y-75257533D01*
X133907261Y-75257533D02*
X134059642Y-75257533D01*
X134059642Y-75257533D02*
X134135833Y-75219438D01*
X134135833Y-75219438D02*
X134173928Y-75181342D01*
X134173928Y-75181342D02*
X134212023Y-75105152D01*
D11*
X127485714Y-77346731D02*
X127219047Y-76965778D01*
X127028571Y-77346731D02*
X127028571Y-76546731D01*
X127028571Y-76546731D02*
X127333333Y-76546731D01*
X127333333Y-76546731D02*
X127409523Y-76584826D01*
X127409523Y-76584826D02*
X127447618Y-76622921D01*
X127447618Y-76622921D02*
X127485714Y-76699112D01*
X127485714Y-76699112D02*
X127485714Y-76813397D01*
X127485714Y-76813397D02*
X127447618Y-76889588D01*
X127447618Y-76889588D02*
X127409523Y-76927683D01*
X127409523Y-76927683D02*
X127333333Y-76965778D01*
X127333333Y-76965778D02*
X127028571Y-76965778D01*
X127790475Y-76622921D02*
X127828571Y-76584826D01*
X127828571Y-76584826D02*
X127904761Y-76546731D01*
X127904761Y-76546731D02*
X128095237Y-76546731D01*
X128095237Y-76546731D02*
X128171428Y-76584826D01*
X128171428Y-76584826D02*
X128209523Y-76622921D01*
X128209523Y-76622921D02*
X128247618Y-76699112D01*
X128247618Y-76699112D02*
X128247618Y-76775302D01*
X128247618Y-76775302D02*
X128209523Y-76889588D01*
X128209523Y-76889588D02*
X127752380Y-77346731D01*
X127752380Y-77346731D02*
X128247618Y-77346731D01*
X128514285Y-76546731D02*
X129009523Y-76546731D01*
X129009523Y-76546731D02*
X128742857Y-76851493D01*
X128742857Y-76851493D02*
X128857142Y-76851493D01*
X128857142Y-76851493D02*
X128933333Y-76889588D01*
X128933333Y-76889588D02*
X128971428Y-76927683D01*
X128971428Y-76927683D02*
X129009523Y-77003874D01*
X129009523Y-77003874D02*
X129009523Y-77194350D01*
X129009523Y-77194350D02*
X128971428Y-77270540D01*
X128971428Y-77270540D02*
X128933333Y-77308636D01*
X128933333Y-77308636D02*
X128857142Y-77346731D01*
X128857142Y-77346731D02*
X128628571Y-77346731D01*
X128628571Y-77346731D02*
X128552380Y-77308636D01*
X128552380Y-77308636D02*
X128514285Y-77270540D01*
D10*
X164548214Y-88818024D02*
X164510118Y-88856120D01*
X164510118Y-88856120D02*
X164395833Y-88894215D01*
X164395833Y-88894215D02*
X164319642Y-88894215D01*
X164319642Y-88894215D02*
X164205356Y-88856120D01*
X164205356Y-88856120D02*
X164129166Y-88779929D01*
X164129166Y-88779929D02*
X164091071Y-88703739D01*
X164091071Y-88703739D02*
X164052975Y-88551358D01*
X164052975Y-88551358D02*
X164052975Y-88437072D01*
X164052975Y-88437072D02*
X164091071Y-88284691D01*
X164091071Y-88284691D02*
X164129166Y-88208500D01*
X164129166Y-88208500D02*
X164205356Y-88132310D01*
X164205356Y-88132310D02*
X164319642Y-88094215D01*
X164319642Y-88094215D02*
X164395833Y-88094215D01*
X164395833Y-88094215D02*
X164510118Y-88132310D01*
X164510118Y-88132310D02*
X164548214Y-88170405D01*
X165310118Y-88894215D02*
X164852975Y-88894215D01*
X165081547Y-88894215D02*
X165081547Y-88094215D01*
X165081547Y-88094215D02*
X165005356Y-88208500D01*
X165005356Y-88208500D02*
X164929166Y-88284691D01*
X164929166Y-88284691D02*
X164852975Y-88322786D01*
X165576785Y-88094215D02*
X166110119Y-88094215D01*
X166110119Y-88094215D02*
X165767261Y-88894215D01*
X165403756Y-104544215D02*
X165403756Y-103744215D01*
X165403756Y-103744215D02*
X165594232Y-103744215D01*
X165594232Y-103744215D02*
X165708518Y-103782310D01*
X165708518Y-103782310D02*
X165784708Y-103858500D01*
X165784708Y-103858500D02*
X165822803Y-103934691D01*
X165822803Y-103934691D02*
X165860899Y-104087072D01*
X165860899Y-104087072D02*
X165860899Y-104201358D01*
X165860899Y-104201358D02*
X165822803Y-104353739D01*
X165822803Y-104353739D02*
X165784708Y-104429929D01*
X165784708Y-104429929D02*
X165708518Y-104506120D01*
X165708518Y-104506120D02*
X165594232Y-104544215D01*
X165594232Y-104544215D02*
X165403756Y-104544215D01*
X166165660Y-103820405D02*
X166203756Y-103782310D01*
X166203756Y-103782310D02*
X166279946Y-103744215D01*
X166279946Y-103744215D02*
X166470422Y-103744215D01*
X166470422Y-103744215D02*
X166546613Y-103782310D01*
X166546613Y-103782310D02*
X166584708Y-103820405D01*
X166584708Y-103820405D02*
X166622803Y-103896596D01*
X166622803Y-103896596D02*
X166622803Y-103972786D01*
X166622803Y-103972786D02*
X166584708Y-104087072D01*
X166584708Y-104087072D02*
X166127565Y-104544215D01*
X166127565Y-104544215D02*
X166622803Y-104544215D01*
X156718095Y-111436739D02*
X156718095Y-112246262D01*
X156718095Y-112246262D02*
X156765714Y-112341500D01*
X156765714Y-112341500D02*
X156813333Y-112389120D01*
X156813333Y-112389120D02*
X156908571Y-112436739D01*
X156908571Y-112436739D02*
X157099047Y-112436739D01*
X157099047Y-112436739D02*
X157194285Y-112389120D01*
X157194285Y-112389120D02*
X157241904Y-112341500D01*
X157241904Y-112341500D02*
X157289523Y-112246262D01*
X157289523Y-112246262D02*
X157289523Y-111436739D01*
X157670476Y-111436739D02*
X158337142Y-111436739D01*
X158337142Y-111436739D02*
X157908571Y-112436739D01*
X154633214Y-80704215D02*
X154366547Y-80323262D01*
X154176071Y-80704215D02*
X154176071Y-79904215D01*
X154176071Y-79904215D02*
X154480833Y-79904215D01*
X154480833Y-79904215D02*
X154557023Y-79942310D01*
X154557023Y-79942310D02*
X154595118Y-79980405D01*
X154595118Y-79980405D02*
X154633214Y-80056596D01*
X154633214Y-80056596D02*
X154633214Y-80170881D01*
X154633214Y-80170881D02*
X154595118Y-80247072D01*
X154595118Y-80247072D02*
X154557023Y-80285167D01*
X154557023Y-80285167D02*
X154480833Y-80323262D01*
X154480833Y-80323262D02*
X154176071Y-80323262D01*
X154937975Y-79980405D02*
X154976071Y-79942310D01*
X154976071Y-79942310D02*
X155052261Y-79904215D01*
X155052261Y-79904215D02*
X155242737Y-79904215D01*
X155242737Y-79904215D02*
X155318928Y-79942310D01*
X155318928Y-79942310D02*
X155357023Y-79980405D01*
X155357023Y-79980405D02*
X155395118Y-80056596D01*
X155395118Y-80056596D02*
X155395118Y-80132786D01*
X155395118Y-80132786D02*
X155357023Y-80247072D01*
X155357023Y-80247072D02*
X154899880Y-80704215D01*
X154899880Y-80704215D02*
X155395118Y-80704215D01*
X155852261Y-80247072D02*
X155776071Y-80208977D01*
X155776071Y-80208977D02*
X155737976Y-80170881D01*
X155737976Y-80170881D02*
X155699880Y-80094691D01*
X155699880Y-80094691D02*
X155699880Y-80056596D01*
X155699880Y-80056596D02*
X155737976Y-79980405D01*
X155737976Y-79980405D02*
X155776071Y-79942310D01*
X155776071Y-79942310D02*
X155852261Y-79904215D01*
X155852261Y-79904215D02*
X156004642Y-79904215D01*
X156004642Y-79904215D02*
X156080833Y-79942310D01*
X156080833Y-79942310D02*
X156118928Y-79980405D01*
X156118928Y-79980405D02*
X156157023Y-80056596D01*
X156157023Y-80056596D02*
X156157023Y-80094691D01*
X156157023Y-80094691D02*
X156118928Y-80170881D01*
X156118928Y-80170881D02*
X156080833Y-80208977D01*
X156080833Y-80208977D02*
X156004642Y-80247072D01*
X156004642Y-80247072D02*
X155852261Y-80247072D01*
X155852261Y-80247072D02*
X155776071Y-80285167D01*
X155776071Y-80285167D02*
X155737976Y-80323262D01*
X155737976Y-80323262D02*
X155699880Y-80399453D01*
X155699880Y-80399453D02*
X155699880Y-80551834D01*
X155699880Y-80551834D02*
X155737976Y-80628024D01*
X155737976Y-80628024D02*
X155776071Y-80666120D01*
X155776071Y-80666120D02*
X155852261Y-80704215D01*
X155852261Y-80704215D02*
X156004642Y-80704215D01*
X156004642Y-80704215D02*
X156080833Y-80666120D01*
X156080833Y-80666120D02*
X156118928Y-80628024D01*
X156118928Y-80628024D02*
X156157023Y-80551834D01*
X156157023Y-80551834D02*
X156157023Y-80399453D01*
X156157023Y-80399453D02*
X156118928Y-80323262D01*
X156118928Y-80323262D02*
X156080833Y-80285167D01*
X156080833Y-80285167D02*
X156004642Y-80247072D01*
X127938095Y-90336739D02*
X127938095Y-91146262D01*
X127938095Y-91146262D02*
X127985714Y-91241500D01*
X127985714Y-91241500D02*
X128033333Y-91289120D01*
X128033333Y-91289120D02*
X128128571Y-91336739D01*
X128128571Y-91336739D02*
X128319047Y-91336739D01*
X128319047Y-91336739D02*
X128414285Y-91289120D01*
X128414285Y-91289120D02*
X128461904Y-91241500D01*
X128461904Y-91241500D02*
X128509523Y-91146262D01*
X128509523Y-91146262D02*
X128509523Y-90336739D01*
X129414285Y-90670072D02*
X129414285Y-91336739D01*
X129176190Y-90289120D02*
X128938095Y-91003405D01*
X128938095Y-91003405D02*
X129557142Y-91003405D01*
X145236104Y-95965252D02*
X145274200Y-96003348D01*
X145274200Y-96003348D02*
X145312295Y-96117633D01*
X145312295Y-96117633D02*
X145312295Y-96193824D01*
X145312295Y-96193824D02*
X145274200Y-96308110D01*
X145274200Y-96308110D02*
X145198009Y-96384300D01*
X145198009Y-96384300D02*
X145121819Y-96422395D01*
X145121819Y-96422395D02*
X144969438Y-96460491D01*
X144969438Y-96460491D02*
X144855152Y-96460491D01*
X144855152Y-96460491D02*
X144702771Y-96422395D01*
X144702771Y-96422395D02*
X144626580Y-96384300D01*
X144626580Y-96384300D02*
X144550390Y-96308110D01*
X144550390Y-96308110D02*
X144512295Y-96193824D01*
X144512295Y-96193824D02*
X144512295Y-96117633D01*
X144512295Y-96117633D02*
X144550390Y-96003348D01*
X144550390Y-96003348D02*
X144588485Y-95965252D01*
X144512295Y-95279538D02*
X144512295Y-95431919D01*
X144512295Y-95431919D02*
X144550390Y-95508110D01*
X144550390Y-95508110D02*
X144588485Y-95546205D01*
X144588485Y-95546205D02*
X144702771Y-95622395D01*
X144702771Y-95622395D02*
X144855152Y-95660491D01*
X144855152Y-95660491D02*
X145159914Y-95660491D01*
X145159914Y-95660491D02*
X145236104Y-95622395D01*
X145236104Y-95622395D02*
X145274200Y-95584300D01*
X145274200Y-95584300D02*
X145312295Y-95508110D01*
X145312295Y-95508110D02*
X145312295Y-95355729D01*
X145312295Y-95355729D02*
X145274200Y-95279538D01*
X145274200Y-95279538D02*
X145236104Y-95241443D01*
X145236104Y-95241443D02*
X145159914Y-95203348D01*
X145159914Y-95203348D02*
X144969438Y-95203348D01*
X144969438Y-95203348D02*
X144893247Y-95241443D01*
X144893247Y-95241443D02*
X144855152Y-95279538D01*
X144855152Y-95279538D02*
X144817057Y-95355729D01*
X144817057Y-95355729D02*
X144817057Y-95508110D01*
X144817057Y-95508110D02*
X144855152Y-95584300D01*
X144855152Y-95584300D02*
X144893247Y-95622395D01*
X144893247Y-95622395D02*
X144969438Y-95660491D01*
X121857142Y-100416739D02*
X121523809Y-99940548D01*
X121285714Y-100416739D02*
X121285714Y-99416739D01*
X121285714Y-99416739D02*
X121666666Y-99416739D01*
X121666666Y-99416739D02*
X121761904Y-99464358D01*
X121761904Y-99464358D02*
X121809523Y-99511977D01*
X121809523Y-99511977D02*
X121857142Y-99607215D01*
X121857142Y-99607215D02*
X121857142Y-99750072D01*
X121857142Y-99750072D02*
X121809523Y-99845310D01*
X121809523Y-99845310D02*
X121761904Y-99892929D01*
X121761904Y-99892929D02*
X121666666Y-99940548D01*
X121666666Y-99940548D02*
X121285714Y-99940548D01*
X122238095Y-99511977D02*
X122285714Y-99464358D01*
X122285714Y-99464358D02*
X122380952Y-99416739D01*
X122380952Y-99416739D02*
X122619047Y-99416739D01*
X122619047Y-99416739D02*
X122714285Y-99464358D01*
X122714285Y-99464358D02*
X122761904Y-99511977D01*
X122761904Y-99511977D02*
X122809523Y-99607215D01*
X122809523Y-99607215D02*
X122809523Y-99702453D01*
X122809523Y-99702453D02*
X122761904Y-99845310D01*
X122761904Y-99845310D02*
X122190476Y-100416739D01*
X122190476Y-100416739D02*
X122809523Y-100416739D01*
X123761904Y-100416739D02*
X123190476Y-100416739D01*
X123476190Y-100416739D02*
X123476190Y-99416739D01*
X123476190Y-99416739D02*
X123380952Y-99559596D01*
X123380952Y-99559596D02*
X123285714Y-99654834D01*
X123285714Y-99654834D02*
X123190476Y-99702453D01*
X137585714Y-73262295D02*
X137319047Y-72881342D01*
X137128571Y-73262295D02*
X137128571Y-72462295D01*
X137128571Y-72462295D02*
X137433333Y-72462295D01*
X137433333Y-72462295D02*
X137509523Y-72500390D01*
X137509523Y-72500390D02*
X137547618Y-72538485D01*
X137547618Y-72538485D02*
X137585714Y-72614676D01*
X137585714Y-72614676D02*
X137585714Y-72728961D01*
X137585714Y-72728961D02*
X137547618Y-72805152D01*
X137547618Y-72805152D02*
X137509523Y-72843247D01*
X137509523Y-72843247D02*
X137433333Y-72881342D01*
X137433333Y-72881342D02*
X137128571Y-72881342D01*
X137890475Y-72538485D02*
X137928571Y-72500390D01*
X137928571Y-72500390D02*
X138004761Y-72462295D01*
X138004761Y-72462295D02*
X138195237Y-72462295D01*
X138195237Y-72462295D02*
X138271428Y-72500390D01*
X138271428Y-72500390D02*
X138309523Y-72538485D01*
X138309523Y-72538485D02*
X138347618Y-72614676D01*
X138347618Y-72614676D02*
X138347618Y-72690866D01*
X138347618Y-72690866D02*
X138309523Y-72805152D01*
X138309523Y-72805152D02*
X137852380Y-73262295D01*
X137852380Y-73262295D02*
X138347618Y-73262295D01*
X139071428Y-72462295D02*
X138690476Y-72462295D01*
X138690476Y-72462295D02*
X138652380Y-72843247D01*
X138652380Y-72843247D02*
X138690476Y-72805152D01*
X138690476Y-72805152D02*
X138766666Y-72767057D01*
X138766666Y-72767057D02*
X138957142Y-72767057D01*
X138957142Y-72767057D02*
X139033333Y-72805152D01*
X139033333Y-72805152D02*
X139071428Y-72843247D01*
X139071428Y-72843247D02*
X139109523Y-72919438D01*
X139109523Y-72919438D02*
X139109523Y-73109914D01*
X139109523Y-73109914D02*
X139071428Y-73186104D01*
X139071428Y-73186104D02*
X139033333Y-73224200D01*
X139033333Y-73224200D02*
X138957142Y-73262295D01*
X138957142Y-73262295D02*
X138766666Y-73262295D01*
X138766666Y-73262295D02*
X138690476Y-73224200D01*
X138690476Y-73224200D02*
X138652380Y-73186104D01*
X143536104Y-94046205D02*
X143574200Y-94084301D01*
X143574200Y-94084301D02*
X143612295Y-94198586D01*
X143612295Y-94198586D02*
X143612295Y-94274777D01*
X143612295Y-94274777D02*
X143574200Y-94389063D01*
X143574200Y-94389063D02*
X143498009Y-94465253D01*
X143498009Y-94465253D02*
X143421819Y-94503348D01*
X143421819Y-94503348D02*
X143269438Y-94541444D01*
X143269438Y-94541444D02*
X143155152Y-94541444D01*
X143155152Y-94541444D02*
X143002771Y-94503348D01*
X143002771Y-94503348D02*
X142926580Y-94465253D01*
X142926580Y-94465253D02*
X142850390Y-94389063D01*
X142850390Y-94389063D02*
X142812295Y-94274777D01*
X142812295Y-94274777D02*
X142812295Y-94198586D01*
X142812295Y-94198586D02*
X142850390Y-94084301D01*
X142850390Y-94084301D02*
X142888485Y-94046205D01*
X143612295Y-93284301D02*
X143612295Y-93741444D01*
X143612295Y-93512872D02*
X142812295Y-93512872D01*
X142812295Y-93512872D02*
X142926580Y-93589063D01*
X142926580Y-93589063D02*
X143002771Y-93665253D01*
X143002771Y-93665253D02*
X143040866Y-93741444D01*
X142812295Y-92789062D02*
X142812295Y-92712872D01*
X142812295Y-92712872D02*
X142850390Y-92636681D01*
X142850390Y-92636681D02*
X142888485Y-92598586D01*
X142888485Y-92598586D02*
X142964676Y-92560491D01*
X142964676Y-92560491D02*
X143117057Y-92522396D01*
X143117057Y-92522396D02*
X143307533Y-92522396D01*
X143307533Y-92522396D02*
X143459914Y-92560491D01*
X143459914Y-92560491D02*
X143536104Y-92598586D01*
X143536104Y-92598586D02*
X143574200Y-92636681D01*
X143574200Y-92636681D02*
X143612295Y-92712872D01*
X143612295Y-92712872D02*
X143612295Y-92789062D01*
X143612295Y-92789062D02*
X143574200Y-92865253D01*
X143574200Y-92865253D02*
X143536104Y-92903348D01*
X143536104Y-92903348D02*
X143459914Y-92941443D01*
X143459914Y-92941443D02*
X143307533Y-92979539D01*
X143307533Y-92979539D02*
X143117057Y-92979539D01*
X143117057Y-92979539D02*
X142964676Y-92941443D01*
X142964676Y-92941443D02*
X142888485Y-92903348D01*
X142888485Y-92903348D02*
X142850390Y-92865253D01*
X142850390Y-92865253D02*
X142812295Y-92789062D01*
X157385714Y-74994215D02*
X157119047Y-74613262D01*
X156928571Y-74994215D02*
X156928571Y-74194215D01*
X156928571Y-74194215D02*
X157233333Y-74194215D01*
X157233333Y-74194215D02*
X157309523Y-74232310D01*
X157309523Y-74232310D02*
X157347618Y-74270405D01*
X157347618Y-74270405D02*
X157385714Y-74346596D01*
X157385714Y-74346596D02*
X157385714Y-74460881D01*
X157385714Y-74460881D02*
X157347618Y-74537072D01*
X157347618Y-74537072D02*
X157309523Y-74575167D01*
X157309523Y-74575167D02*
X157233333Y-74613262D01*
X157233333Y-74613262D02*
X156928571Y-74613262D01*
X158147618Y-74994215D02*
X157690475Y-74994215D01*
X157919047Y-74994215D02*
X157919047Y-74194215D01*
X157919047Y-74194215D02*
X157842856Y-74308500D01*
X157842856Y-74308500D02*
X157766666Y-74384691D01*
X157766666Y-74384691D02*
X157690475Y-74422786D01*
X158414285Y-74194215D02*
X158947619Y-74194215D01*
X158947619Y-74194215D02*
X158604761Y-74994215D01*
X159556527Y-98696205D02*
X159175574Y-98962872D01*
X159556527Y-99153348D02*
X158756527Y-99153348D01*
X158756527Y-99153348D02*
X158756527Y-98848586D01*
X158756527Y-98848586D02*
X158794622Y-98772396D01*
X158794622Y-98772396D02*
X158832717Y-98734301D01*
X158832717Y-98734301D02*
X158908908Y-98696205D01*
X158908908Y-98696205D02*
X159023193Y-98696205D01*
X159023193Y-98696205D02*
X159099384Y-98734301D01*
X159099384Y-98734301D02*
X159137479Y-98772396D01*
X159137479Y-98772396D02*
X159175574Y-98848586D01*
X159175574Y-98848586D02*
X159175574Y-99153348D01*
X159556527Y-97934301D02*
X159556527Y-98391444D01*
X159556527Y-98162872D02*
X158756527Y-98162872D01*
X158756527Y-98162872D02*
X158870812Y-98239063D01*
X158870812Y-98239063D02*
X158947003Y-98315253D01*
X158947003Y-98315253D02*
X158985098Y-98391444D01*
X158756527Y-97439062D02*
X158756527Y-97362872D01*
X158756527Y-97362872D02*
X158794622Y-97286681D01*
X158794622Y-97286681D02*
X158832717Y-97248586D01*
X158832717Y-97248586D02*
X158908908Y-97210491D01*
X158908908Y-97210491D02*
X159061289Y-97172396D01*
X159061289Y-97172396D02*
X159251765Y-97172396D01*
X159251765Y-97172396D02*
X159404146Y-97210491D01*
X159404146Y-97210491D02*
X159480336Y-97248586D01*
X159480336Y-97248586D02*
X159518432Y-97286681D01*
X159518432Y-97286681D02*
X159556527Y-97362872D01*
X159556527Y-97362872D02*
X159556527Y-97439062D01*
X159556527Y-97439062D02*
X159518432Y-97515253D01*
X159518432Y-97515253D02*
X159480336Y-97553348D01*
X159480336Y-97553348D02*
X159404146Y-97591443D01*
X159404146Y-97591443D02*
X159251765Y-97629539D01*
X159251765Y-97629539D02*
X159061289Y-97629539D01*
X159061289Y-97629539D02*
X158908908Y-97591443D01*
X158908908Y-97591443D02*
X158832717Y-97553348D01*
X158832717Y-97553348D02*
X158794622Y-97515253D01*
X158794622Y-97515253D02*
X158756527Y-97439062D01*
X170254819Y-93548586D02*
X170254819Y-94024776D01*
X170254819Y-94024776D02*
X169254819Y-94024776D01*
X169350057Y-93262871D02*
X169302438Y-93215252D01*
X169302438Y-93215252D02*
X169254819Y-93120014D01*
X169254819Y-93120014D02*
X169254819Y-92881919D01*
X169254819Y-92881919D02*
X169302438Y-92786681D01*
X169302438Y-92786681D02*
X169350057Y-92739062D01*
X169350057Y-92739062D02*
X169445295Y-92691443D01*
X169445295Y-92691443D02*
X169540533Y-92691443D01*
X169540533Y-92691443D02*
X169683390Y-92739062D01*
X169683390Y-92739062D02*
X170254819Y-93310490D01*
X170254819Y-93310490D02*
X170254819Y-92691443D01*
X145845180Y-100270015D02*
X145035657Y-100270015D01*
X145035657Y-100270015D02*
X144940419Y-100317634D01*
X144940419Y-100317634D02*
X144892800Y-100365253D01*
X144892800Y-100365253D02*
X144845180Y-100460491D01*
X144845180Y-100460491D02*
X144845180Y-100650967D01*
X144845180Y-100650967D02*
X144892800Y-100746205D01*
X144892800Y-100746205D02*
X144940419Y-100793824D01*
X144940419Y-100793824D02*
X145035657Y-100841443D01*
X145035657Y-100841443D02*
X145845180Y-100841443D01*
X145845180Y-101222396D02*
X145845180Y-101841443D01*
X145845180Y-101841443D02*
X145464228Y-101508110D01*
X145464228Y-101508110D02*
X145464228Y-101650967D01*
X145464228Y-101650967D02*
X145416609Y-101746205D01*
X145416609Y-101746205D02*
X145368990Y-101793824D01*
X145368990Y-101793824D02*
X145273752Y-101841443D01*
X145273752Y-101841443D02*
X145035657Y-101841443D01*
X145035657Y-101841443D02*
X144940419Y-101793824D01*
X144940419Y-101793824D02*
X144892800Y-101746205D01*
X144892800Y-101746205D02*
X144845180Y-101650967D01*
X144845180Y-101650967D02*
X144845180Y-101365253D01*
X144845180Y-101365253D02*
X144892800Y-101270015D01*
X144892800Y-101270015D02*
X144940419Y-101222396D01*
X156003214Y-93444215D02*
X155736547Y-93063262D01*
X155546071Y-93444215D02*
X155546071Y-92644215D01*
X155546071Y-92644215D02*
X155850833Y-92644215D01*
X155850833Y-92644215D02*
X155927023Y-92682310D01*
X155927023Y-92682310D02*
X155965118Y-92720405D01*
X155965118Y-92720405D02*
X156003214Y-92796596D01*
X156003214Y-92796596D02*
X156003214Y-92910881D01*
X156003214Y-92910881D02*
X155965118Y-92987072D01*
X155965118Y-92987072D02*
X155927023Y-93025167D01*
X155927023Y-93025167D02*
X155850833Y-93063262D01*
X155850833Y-93063262D02*
X155546071Y-93063262D01*
X156765118Y-93444215D02*
X156307975Y-93444215D01*
X156536547Y-93444215D02*
X156536547Y-92644215D01*
X156536547Y-92644215D02*
X156460356Y-92758500D01*
X156460356Y-92758500D02*
X156384166Y-92834691D01*
X156384166Y-92834691D02*
X156307975Y-92872786D01*
X157450833Y-92644215D02*
X157298452Y-92644215D01*
X157298452Y-92644215D02*
X157222261Y-92682310D01*
X157222261Y-92682310D02*
X157184166Y-92720405D01*
X157184166Y-92720405D02*
X157107976Y-92834691D01*
X157107976Y-92834691D02*
X157069880Y-92987072D01*
X157069880Y-92987072D02*
X157069880Y-93291834D01*
X157069880Y-93291834D02*
X157107976Y-93368024D01*
X157107976Y-93368024D02*
X157146071Y-93406120D01*
X157146071Y-93406120D02*
X157222261Y-93444215D01*
X157222261Y-93444215D02*
X157374642Y-93444215D01*
X157374642Y-93444215D02*
X157450833Y-93406120D01*
X157450833Y-93406120D02*
X157488928Y-93368024D01*
X157488928Y-93368024D02*
X157527023Y-93291834D01*
X157527023Y-93291834D02*
X157527023Y-93101358D01*
X157527023Y-93101358D02*
X157488928Y-93025167D01*
X157488928Y-93025167D02*
X157450833Y-92987072D01*
X157450833Y-92987072D02*
X157374642Y-92948977D01*
X157374642Y-92948977D02*
X157222261Y-92948977D01*
X157222261Y-92948977D02*
X157146071Y-92987072D01*
X157146071Y-92987072D02*
X157107976Y-93025167D01*
X157107976Y-93025167D02*
X157069880Y-93101358D01*
X154486104Y-74546205D02*
X154524200Y-74584301D01*
X154524200Y-74584301D02*
X154562295Y-74698586D01*
X154562295Y-74698586D02*
X154562295Y-74774777D01*
X154562295Y-74774777D02*
X154524200Y-74889063D01*
X154524200Y-74889063D02*
X154448009Y-74965253D01*
X154448009Y-74965253D02*
X154371819Y-75003348D01*
X154371819Y-75003348D02*
X154219438Y-75041444D01*
X154219438Y-75041444D02*
X154105152Y-75041444D01*
X154105152Y-75041444D02*
X153952771Y-75003348D01*
X153952771Y-75003348D02*
X153876580Y-74965253D01*
X153876580Y-74965253D02*
X153800390Y-74889063D01*
X153800390Y-74889063D02*
X153762295Y-74774777D01*
X153762295Y-74774777D02*
X153762295Y-74698586D01*
X153762295Y-74698586D02*
X153800390Y-74584301D01*
X153800390Y-74584301D02*
X153838485Y-74546205D01*
X153838485Y-74241444D02*
X153800390Y-74203348D01*
X153800390Y-74203348D02*
X153762295Y-74127158D01*
X153762295Y-74127158D02*
X153762295Y-73936682D01*
X153762295Y-73936682D02*
X153800390Y-73860491D01*
X153800390Y-73860491D02*
X153838485Y-73822396D01*
X153838485Y-73822396D02*
X153914676Y-73784301D01*
X153914676Y-73784301D02*
X153990866Y-73784301D01*
X153990866Y-73784301D02*
X154105152Y-73822396D01*
X154105152Y-73822396D02*
X154562295Y-74279539D01*
X154562295Y-74279539D02*
X154562295Y-73784301D01*
X153838485Y-73479539D02*
X153800390Y-73441443D01*
X153800390Y-73441443D02*
X153762295Y-73365253D01*
X153762295Y-73365253D02*
X153762295Y-73174777D01*
X153762295Y-73174777D02*
X153800390Y-73098586D01*
X153800390Y-73098586D02*
X153838485Y-73060491D01*
X153838485Y-73060491D02*
X153914676Y-73022396D01*
X153914676Y-73022396D02*
X153990866Y-73022396D01*
X153990866Y-73022396D02*
X154105152Y-73060491D01*
X154105152Y-73060491D02*
X154562295Y-73517634D01*
X154562295Y-73517634D02*
X154562295Y-73022396D01*
X151286104Y-76146205D02*
X151324200Y-76184301D01*
X151324200Y-76184301D02*
X151362295Y-76298586D01*
X151362295Y-76298586D02*
X151362295Y-76374777D01*
X151362295Y-76374777D02*
X151324200Y-76489063D01*
X151324200Y-76489063D02*
X151248009Y-76565253D01*
X151248009Y-76565253D02*
X151171819Y-76603348D01*
X151171819Y-76603348D02*
X151019438Y-76641444D01*
X151019438Y-76641444D02*
X150905152Y-76641444D01*
X150905152Y-76641444D02*
X150752771Y-76603348D01*
X150752771Y-76603348D02*
X150676580Y-76565253D01*
X150676580Y-76565253D02*
X150600390Y-76489063D01*
X150600390Y-76489063D02*
X150562295Y-76374777D01*
X150562295Y-76374777D02*
X150562295Y-76298586D01*
X150562295Y-76298586D02*
X150600390Y-76184301D01*
X150600390Y-76184301D02*
X150638485Y-76146205D01*
X150638485Y-75841444D02*
X150600390Y-75803348D01*
X150600390Y-75803348D02*
X150562295Y-75727158D01*
X150562295Y-75727158D02*
X150562295Y-75536682D01*
X150562295Y-75536682D02*
X150600390Y-75460491D01*
X150600390Y-75460491D02*
X150638485Y-75422396D01*
X150638485Y-75422396D02*
X150714676Y-75384301D01*
X150714676Y-75384301D02*
X150790866Y-75384301D01*
X150790866Y-75384301D02*
X150905152Y-75422396D01*
X150905152Y-75422396D02*
X151362295Y-75879539D01*
X151362295Y-75879539D02*
X151362295Y-75384301D01*
X151362295Y-74622396D02*
X151362295Y-75079539D01*
X151362295Y-74850967D02*
X150562295Y-74850967D01*
X150562295Y-74850967D02*
X150676580Y-74927158D01*
X150676580Y-74927158D02*
X150752771Y-75003348D01*
X150752771Y-75003348D02*
X150790866Y-75079539D01*
X160556527Y-91262871D02*
X159756527Y-91262871D01*
X160480336Y-90424776D02*
X160518432Y-90462872D01*
X160518432Y-90462872D02*
X160556527Y-90577157D01*
X160556527Y-90577157D02*
X160556527Y-90653348D01*
X160556527Y-90653348D02*
X160518432Y-90767634D01*
X160518432Y-90767634D02*
X160442241Y-90843824D01*
X160442241Y-90843824D02*
X160366051Y-90881919D01*
X160366051Y-90881919D02*
X160213670Y-90920015D01*
X160213670Y-90920015D02*
X160099384Y-90920015D01*
X160099384Y-90920015D02*
X159947003Y-90881919D01*
X159947003Y-90881919D02*
X159870812Y-90843824D01*
X159870812Y-90843824D02*
X159794622Y-90767634D01*
X159794622Y-90767634D02*
X159756527Y-90653348D01*
X159756527Y-90653348D02*
X159756527Y-90577157D01*
X159756527Y-90577157D02*
X159794622Y-90462872D01*
X159794622Y-90462872D02*
X159832717Y-90424776D01*
X160556527Y-89662872D02*
X160556527Y-90120015D01*
X160556527Y-89891443D02*
X159756527Y-89891443D01*
X159756527Y-89891443D02*
X159870812Y-89967634D01*
X159870812Y-89967634D02*
X159947003Y-90043824D01*
X159947003Y-90043824D02*
X159985098Y-90120015D01*
X158985714Y-106018024D02*
X158947618Y-106056120D01*
X158947618Y-106056120D02*
X158833333Y-106094215D01*
X158833333Y-106094215D02*
X158757142Y-106094215D01*
X158757142Y-106094215D02*
X158642856Y-106056120D01*
X158642856Y-106056120D02*
X158566666Y-105979929D01*
X158566666Y-105979929D02*
X158528571Y-105903739D01*
X158528571Y-105903739D02*
X158490475Y-105751358D01*
X158490475Y-105751358D02*
X158490475Y-105637072D01*
X158490475Y-105637072D02*
X158528571Y-105484691D01*
X158528571Y-105484691D02*
X158566666Y-105408500D01*
X158566666Y-105408500D02*
X158642856Y-105332310D01*
X158642856Y-105332310D02*
X158757142Y-105294215D01*
X158757142Y-105294215D02*
X158833333Y-105294215D01*
X158833333Y-105294215D02*
X158947618Y-105332310D01*
X158947618Y-105332310D02*
X158985714Y-105370405D01*
X159747618Y-106094215D02*
X159290475Y-106094215D01*
X159519047Y-106094215D02*
X159519047Y-105294215D01*
X159519047Y-105294215D02*
X159442856Y-105408500D01*
X159442856Y-105408500D02*
X159366666Y-105484691D01*
X159366666Y-105484691D02*
X159290475Y-105522786D01*
X160014285Y-105294215D02*
X160509523Y-105294215D01*
X160509523Y-105294215D02*
X160242857Y-105598977D01*
X160242857Y-105598977D02*
X160357142Y-105598977D01*
X160357142Y-105598977D02*
X160433333Y-105637072D01*
X160433333Y-105637072D02*
X160471428Y-105675167D01*
X160471428Y-105675167D02*
X160509523Y-105751358D01*
X160509523Y-105751358D02*
X160509523Y-105941834D01*
X160509523Y-105941834D02*
X160471428Y-106018024D01*
X160471428Y-106018024D02*
X160433333Y-106056120D01*
X160433333Y-106056120D02*
X160357142Y-106094215D01*
X160357142Y-106094215D02*
X160128571Y-106094215D01*
X160128571Y-106094215D02*
X160052380Y-106056120D01*
X160052380Y-106056120D02*
X160014285Y-106018024D01*
X142536104Y-93665252D02*
X142574200Y-93703348D01*
X142574200Y-93703348D02*
X142612295Y-93817633D01*
X142612295Y-93817633D02*
X142612295Y-93893824D01*
X142612295Y-93893824D02*
X142574200Y-94008110D01*
X142574200Y-94008110D02*
X142498009Y-94084300D01*
X142498009Y-94084300D02*
X142421819Y-94122395D01*
X142421819Y-94122395D02*
X142269438Y-94160491D01*
X142269438Y-94160491D02*
X142155152Y-94160491D01*
X142155152Y-94160491D02*
X142002771Y-94122395D01*
X142002771Y-94122395D02*
X141926580Y-94084300D01*
X141926580Y-94084300D02*
X141850390Y-94008110D01*
X141850390Y-94008110D02*
X141812295Y-93893824D01*
X141812295Y-93893824D02*
X141812295Y-93817633D01*
X141812295Y-93817633D02*
X141850390Y-93703348D01*
X141850390Y-93703348D02*
X141888485Y-93665252D01*
X142612295Y-92903348D02*
X142612295Y-93360491D01*
X142612295Y-93131919D02*
X141812295Y-93131919D01*
X141812295Y-93131919D02*
X141926580Y-93208110D01*
X141926580Y-93208110D02*
X142002771Y-93284300D01*
X142002771Y-93284300D02*
X142040866Y-93360491D01*
X163192319Y-101193824D02*
X164001842Y-101193824D01*
X164001842Y-101193824D02*
X164097080Y-101146205D01*
X164097080Y-101146205D02*
X164144700Y-101098586D01*
X164144700Y-101098586D02*
X164192319Y-101003348D01*
X164192319Y-101003348D02*
X164192319Y-100812872D01*
X164192319Y-100812872D02*
X164144700Y-100717634D01*
X164144700Y-100717634D02*
X164097080Y-100670015D01*
X164097080Y-100670015D02*
X164001842Y-100622396D01*
X164001842Y-100622396D02*
X163192319Y-100622396D01*
X163287557Y-100193824D02*
X163239938Y-100146205D01*
X163239938Y-100146205D02*
X163192319Y-100050967D01*
X163192319Y-100050967D02*
X163192319Y-99812872D01*
X163192319Y-99812872D02*
X163239938Y-99717634D01*
X163239938Y-99717634D02*
X163287557Y-99670015D01*
X163287557Y-99670015D02*
X163382795Y-99622396D01*
X163382795Y-99622396D02*
X163478033Y-99622396D01*
X163478033Y-99622396D02*
X163620890Y-99670015D01*
X163620890Y-99670015D02*
X164192319Y-100241443D01*
X164192319Y-100241443D02*
X164192319Y-99622396D01*
X135186104Y-93596205D02*
X135224200Y-93634301D01*
X135224200Y-93634301D02*
X135262295Y-93748586D01*
X135262295Y-93748586D02*
X135262295Y-93824777D01*
X135262295Y-93824777D02*
X135224200Y-93939063D01*
X135224200Y-93939063D02*
X135148009Y-94015253D01*
X135148009Y-94015253D02*
X135071819Y-94053348D01*
X135071819Y-94053348D02*
X134919438Y-94091444D01*
X134919438Y-94091444D02*
X134805152Y-94091444D01*
X134805152Y-94091444D02*
X134652771Y-94053348D01*
X134652771Y-94053348D02*
X134576580Y-94015253D01*
X134576580Y-94015253D02*
X134500390Y-93939063D01*
X134500390Y-93939063D02*
X134462295Y-93824777D01*
X134462295Y-93824777D02*
X134462295Y-93748586D01*
X134462295Y-93748586D02*
X134500390Y-93634301D01*
X134500390Y-93634301D02*
X134538485Y-93596205D01*
X134538485Y-93291444D02*
X134500390Y-93253348D01*
X134500390Y-93253348D02*
X134462295Y-93177158D01*
X134462295Y-93177158D02*
X134462295Y-92986682D01*
X134462295Y-92986682D02*
X134500390Y-92910491D01*
X134500390Y-92910491D02*
X134538485Y-92872396D01*
X134538485Y-92872396D02*
X134614676Y-92834301D01*
X134614676Y-92834301D02*
X134690866Y-92834301D01*
X134690866Y-92834301D02*
X134805152Y-92872396D01*
X134805152Y-92872396D02*
X135262295Y-93329539D01*
X135262295Y-93329539D02*
X135262295Y-92834301D01*
X134805152Y-92377158D02*
X134767057Y-92453348D01*
X134767057Y-92453348D02*
X134728961Y-92491443D01*
X134728961Y-92491443D02*
X134652771Y-92529539D01*
X134652771Y-92529539D02*
X134614676Y-92529539D01*
X134614676Y-92529539D02*
X134538485Y-92491443D01*
X134538485Y-92491443D02*
X134500390Y-92453348D01*
X134500390Y-92453348D02*
X134462295Y-92377158D01*
X134462295Y-92377158D02*
X134462295Y-92224777D01*
X134462295Y-92224777D02*
X134500390Y-92148586D01*
X134500390Y-92148586D02*
X134538485Y-92110491D01*
X134538485Y-92110491D02*
X134614676Y-92072396D01*
X134614676Y-92072396D02*
X134652771Y-92072396D01*
X134652771Y-92072396D02*
X134728961Y-92110491D01*
X134728961Y-92110491D02*
X134767057Y-92148586D01*
X134767057Y-92148586D02*
X134805152Y-92224777D01*
X134805152Y-92224777D02*
X134805152Y-92377158D01*
X134805152Y-92377158D02*
X134843247Y-92453348D01*
X134843247Y-92453348D02*
X134881342Y-92491443D01*
X134881342Y-92491443D02*
X134957533Y-92529539D01*
X134957533Y-92529539D02*
X135109914Y-92529539D01*
X135109914Y-92529539D02*
X135186104Y-92491443D01*
X135186104Y-92491443D02*
X135224200Y-92453348D01*
X135224200Y-92453348D02*
X135262295Y-92377158D01*
X135262295Y-92377158D02*
X135262295Y-92224777D01*
X135262295Y-92224777D02*
X135224200Y-92148586D01*
X135224200Y-92148586D02*
X135186104Y-92110491D01*
X135186104Y-92110491D02*
X135109914Y-92072396D01*
X135109914Y-92072396D02*
X134957533Y-92072396D01*
X134957533Y-92072396D02*
X134881342Y-92110491D01*
X134881342Y-92110491D02*
X134843247Y-92148586D01*
X134843247Y-92148586D02*
X134805152Y-92224777D01*
X156003214Y-94694215D02*
X155736547Y-94313262D01*
X155546071Y-94694215D02*
X155546071Y-93894215D01*
X155546071Y-93894215D02*
X155850833Y-93894215D01*
X155850833Y-93894215D02*
X155927023Y-93932310D01*
X155927023Y-93932310D02*
X155965118Y-93970405D01*
X155965118Y-93970405D02*
X156003214Y-94046596D01*
X156003214Y-94046596D02*
X156003214Y-94160881D01*
X156003214Y-94160881D02*
X155965118Y-94237072D01*
X155965118Y-94237072D02*
X155927023Y-94275167D01*
X155927023Y-94275167D02*
X155850833Y-94313262D01*
X155850833Y-94313262D02*
X155546071Y-94313262D01*
X156765118Y-94694215D02*
X156307975Y-94694215D01*
X156536547Y-94694215D02*
X156536547Y-93894215D01*
X156536547Y-93894215D02*
X156460356Y-94008500D01*
X156460356Y-94008500D02*
X156384166Y-94084691D01*
X156384166Y-94084691D02*
X156307975Y-94122786D01*
X157450833Y-94160881D02*
X157450833Y-94694215D01*
X157260357Y-93856120D02*
X157069880Y-94427548D01*
X157069880Y-94427548D02*
X157565119Y-94427548D01*
X132285714Y-77962295D02*
X132019047Y-77581342D01*
X131828571Y-77962295D02*
X131828571Y-77162295D01*
X131828571Y-77162295D02*
X132133333Y-77162295D01*
X132133333Y-77162295D02*
X132209523Y-77200390D01*
X132209523Y-77200390D02*
X132247618Y-77238485D01*
X132247618Y-77238485D02*
X132285714Y-77314676D01*
X132285714Y-77314676D02*
X132285714Y-77428961D01*
X132285714Y-77428961D02*
X132247618Y-77505152D01*
X132247618Y-77505152D02*
X132209523Y-77543247D01*
X132209523Y-77543247D02*
X132133333Y-77581342D01*
X132133333Y-77581342D02*
X131828571Y-77581342D01*
X133047618Y-77962295D02*
X132590475Y-77962295D01*
X132819047Y-77962295D02*
X132819047Y-77162295D01*
X132819047Y-77162295D02*
X132742856Y-77276580D01*
X132742856Y-77276580D02*
X132666666Y-77352771D01*
X132666666Y-77352771D02*
X132590475Y-77390866D01*
X133352380Y-77238485D02*
X133390476Y-77200390D01*
X133390476Y-77200390D02*
X133466666Y-77162295D01*
X133466666Y-77162295D02*
X133657142Y-77162295D01*
X133657142Y-77162295D02*
X133733333Y-77200390D01*
X133733333Y-77200390D02*
X133771428Y-77238485D01*
X133771428Y-77238485D02*
X133809523Y-77314676D01*
X133809523Y-77314676D02*
X133809523Y-77390866D01*
X133809523Y-77390866D02*
X133771428Y-77505152D01*
X133771428Y-77505152D02*
X133314285Y-77962295D01*
X133314285Y-77962295D02*
X133809523Y-77962295D01*
X154633214Y-79694215D02*
X154366547Y-79313262D01*
X154176071Y-79694215D02*
X154176071Y-78894215D01*
X154176071Y-78894215D02*
X154480833Y-78894215D01*
X154480833Y-78894215D02*
X154557023Y-78932310D01*
X154557023Y-78932310D02*
X154595118Y-78970405D01*
X154595118Y-78970405D02*
X154633214Y-79046596D01*
X154633214Y-79046596D02*
X154633214Y-79160881D01*
X154633214Y-79160881D02*
X154595118Y-79237072D01*
X154595118Y-79237072D02*
X154557023Y-79275167D01*
X154557023Y-79275167D02*
X154480833Y-79313262D01*
X154480833Y-79313262D02*
X154176071Y-79313262D01*
X154937975Y-78970405D02*
X154976071Y-78932310D01*
X154976071Y-78932310D02*
X155052261Y-78894215D01*
X155052261Y-78894215D02*
X155242737Y-78894215D01*
X155242737Y-78894215D02*
X155318928Y-78932310D01*
X155318928Y-78932310D02*
X155357023Y-78970405D01*
X155357023Y-78970405D02*
X155395118Y-79046596D01*
X155395118Y-79046596D02*
X155395118Y-79122786D01*
X155395118Y-79122786D02*
X155357023Y-79237072D01*
X155357023Y-79237072D02*
X154899880Y-79694215D01*
X154899880Y-79694215D02*
X155395118Y-79694215D01*
X155776071Y-79694215D02*
X155928452Y-79694215D01*
X155928452Y-79694215D02*
X156004642Y-79656120D01*
X156004642Y-79656120D02*
X156042738Y-79618024D01*
X156042738Y-79618024D02*
X156118928Y-79503739D01*
X156118928Y-79503739D02*
X156157023Y-79351358D01*
X156157023Y-79351358D02*
X156157023Y-79046596D01*
X156157023Y-79046596D02*
X156118928Y-78970405D01*
X156118928Y-78970405D02*
X156080833Y-78932310D01*
X156080833Y-78932310D02*
X156004642Y-78894215D01*
X156004642Y-78894215D02*
X155852261Y-78894215D01*
X155852261Y-78894215D02*
X155776071Y-78932310D01*
X155776071Y-78932310D02*
X155737976Y-78970405D01*
X155737976Y-78970405D02*
X155699880Y-79046596D01*
X155699880Y-79046596D02*
X155699880Y-79237072D01*
X155699880Y-79237072D02*
X155737976Y-79313262D01*
X155737976Y-79313262D02*
X155776071Y-79351358D01*
X155776071Y-79351358D02*
X155852261Y-79389453D01*
X155852261Y-79389453D02*
X156004642Y-79389453D01*
X156004642Y-79389453D02*
X156080833Y-79351358D01*
X156080833Y-79351358D02*
X156118928Y-79313262D01*
X156118928Y-79313262D02*
X156157023Y-79237072D01*
X157954167Y-104044215D02*
X157687500Y-103663262D01*
X157497024Y-104044215D02*
X157497024Y-103244215D01*
X157497024Y-103244215D02*
X157801786Y-103244215D01*
X157801786Y-103244215D02*
X157877976Y-103282310D01*
X157877976Y-103282310D02*
X157916071Y-103320405D01*
X157916071Y-103320405D02*
X157954167Y-103396596D01*
X157954167Y-103396596D02*
X157954167Y-103510881D01*
X157954167Y-103510881D02*
X157916071Y-103587072D01*
X157916071Y-103587072D02*
X157877976Y-103625167D01*
X157877976Y-103625167D02*
X157801786Y-103663262D01*
X157801786Y-103663262D02*
X157497024Y-103663262D01*
X158335119Y-104044215D02*
X158487500Y-104044215D01*
X158487500Y-104044215D02*
X158563690Y-104006120D01*
X158563690Y-104006120D02*
X158601786Y-103968024D01*
X158601786Y-103968024D02*
X158677976Y-103853739D01*
X158677976Y-103853739D02*
X158716071Y-103701358D01*
X158716071Y-103701358D02*
X158716071Y-103396596D01*
X158716071Y-103396596D02*
X158677976Y-103320405D01*
X158677976Y-103320405D02*
X158639881Y-103282310D01*
X158639881Y-103282310D02*
X158563690Y-103244215D01*
X158563690Y-103244215D02*
X158411309Y-103244215D01*
X158411309Y-103244215D02*
X158335119Y-103282310D01*
X158335119Y-103282310D02*
X158297024Y-103320405D01*
X158297024Y-103320405D02*
X158258928Y-103396596D01*
X158258928Y-103396596D02*
X158258928Y-103587072D01*
X158258928Y-103587072D02*
X158297024Y-103663262D01*
X158297024Y-103663262D02*
X158335119Y-103701358D01*
X158335119Y-103701358D02*
X158411309Y-103739453D01*
X158411309Y-103739453D02*
X158563690Y-103739453D01*
X158563690Y-103739453D02*
X158639881Y-103701358D01*
X158639881Y-103701358D02*
X158677976Y-103663262D01*
X158677976Y-103663262D02*
X158716071Y-103587072D01*
X164585714Y-84418024D02*
X164547618Y-84456120D01*
X164547618Y-84456120D02*
X164433333Y-84494215D01*
X164433333Y-84494215D02*
X164357142Y-84494215D01*
X164357142Y-84494215D02*
X164242856Y-84456120D01*
X164242856Y-84456120D02*
X164166666Y-84379929D01*
X164166666Y-84379929D02*
X164128571Y-84303739D01*
X164128571Y-84303739D02*
X164090475Y-84151358D01*
X164090475Y-84151358D02*
X164090475Y-84037072D01*
X164090475Y-84037072D02*
X164128571Y-83884691D01*
X164128571Y-83884691D02*
X164166666Y-83808500D01*
X164166666Y-83808500D02*
X164242856Y-83732310D01*
X164242856Y-83732310D02*
X164357142Y-83694215D01*
X164357142Y-83694215D02*
X164433333Y-83694215D01*
X164433333Y-83694215D02*
X164547618Y-83732310D01*
X164547618Y-83732310D02*
X164585714Y-83770405D01*
X165347618Y-84494215D02*
X164890475Y-84494215D01*
X165119047Y-84494215D02*
X165119047Y-83694215D01*
X165119047Y-83694215D02*
X165042856Y-83808500D01*
X165042856Y-83808500D02*
X164966666Y-83884691D01*
X164966666Y-83884691D02*
X164890475Y-83922786D01*
X165728571Y-84494215D02*
X165880952Y-84494215D01*
X165880952Y-84494215D02*
X165957142Y-84456120D01*
X165957142Y-84456120D02*
X165995238Y-84418024D01*
X165995238Y-84418024D02*
X166071428Y-84303739D01*
X166071428Y-84303739D02*
X166109523Y-84151358D01*
X166109523Y-84151358D02*
X166109523Y-83846596D01*
X166109523Y-83846596D02*
X166071428Y-83770405D01*
X166071428Y-83770405D02*
X166033333Y-83732310D01*
X166033333Y-83732310D02*
X165957142Y-83694215D01*
X165957142Y-83694215D02*
X165804761Y-83694215D01*
X165804761Y-83694215D02*
X165728571Y-83732310D01*
X165728571Y-83732310D02*
X165690476Y-83770405D01*
X165690476Y-83770405D02*
X165652380Y-83846596D01*
X165652380Y-83846596D02*
X165652380Y-84037072D01*
X165652380Y-84037072D02*
X165690476Y-84113262D01*
X165690476Y-84113262D02*
X165728571Y-84151358D01*
X165728571Y-84151358D02*
X165804761Y-84189453D01*
X165804761Y-84189453D02*
X165957142Y-84189453D01*
X165957142Y-84189453D02*
X166033333Y-84151358D01*
X166033333Y-84151358D02*
X166071428Y-84113262D01*
X166071428Y-84113262D02*
X166109523Y-84037072D01*
X161279946Y-96444215D02*
X161013279Y-96063262D01*
X160822803Y-96444215D02*
X160822803Y-95644215D01*
X160822803Y-95644215D02*
X161127565Y-95644215D01*
X161127565Y-95644215D02*
X161203755Y-95682310D01*
X161203755Y-95682310D02*
X161241850Y-95720405D01*
X161241850Y-95720405D02*
X161279946Y-95796596D01*
X161279946Y-95796596D02*
X161279946Y-95910881D01*
X161279946Y-95910881D02*
X161241850Y-95987072D01*
X161241850Y-95987072D02*
X161203755Y-96025167D01*
X161203755Y-96025167D02*
X161127565Y-96063262D01*
X161127565Y-96063262D02*
X160822803Y-96063262D01*
X162041850Y-96444215D02*
X161584707Y-96444215D01*
X161813279Y-96444215D02*
X161813279Y-95644215D01*
X161813279Y-95644215D02*
X161737088Y-95758500D01*
X161737088Y-95758500D02*
X161660898Y-95834691D01*
X161660898Y-95834691D02*
X161584707Y-95872786D01*
X162803755Y-96444215D02*
X162346612Y-96444215D01*
X162575184Y-96444215D02*
X162575184Y-95644215D01*
X162575184Y-95644215D02*
X162498993Y-95758500D01*
X162498993Y-95758500D02*
X162422803Y-95834691D01*
X162422803Y-95834691D02*
X162346612Y-95872786D01*
X141536104Y-94046205D02*
X141574200Y-94084301D01*
X141574200Y-94084301D02*
X141612295Y-94198586D01*
X141612295Y-94198586D02*
X141612295Y-94274777D01*
X141612295Y-94274777D02*
X141574200Y-94389063D01*
X141574200Y-94389063D02*
X141498009Y-94465253D01*
X141498009Y-94465253D02*
X141421819Y-94503348D01*
X141421819Y-94503348D02*
X141269438Y-94541444D01*
X141269438Y-94541444D02*
X141155152Y-94541444D01*
X141155152Y-94541444D02*
X141002771Y-94503348D01*
X141002771Y-94503348D02*
X140926580Y-94465253D01*
X140926580Y-94465253D02*
X140850390Y-94389063D01*
X140850390Y-94389063D02*
X140812295Y-94274777D01*
X140812295Y-94274777D02*
X140812295Y-94198586D01*
X140812295Y-94198586D02*
X140850390Y-94084301D01*
X140850390Y-94084301D02*
X140888485Y-94046205D01*
X141612295Y-93284301D02*
X141612295Y-93741444D01*
X141612295Y-93512872D02*
X140812295Y-93512872D01*
X140812295Y-93512872D02*
X140926580Y-93589063D01*
X140926580Y-93589063D02*
X141002771Y-93665253D01*
X141002771Y-93665253D02*
X141040866Y-93741444D01*
X141612295Y-92522396D02*
X141612295Y-92979539D01*
X141612295Y-92750967D02*
X140812295Y-92750967D01*
X140812295Y-92750967D02*
X140926580Y-92827158D01*
X140926580Y-92827158D02*
X141002771Y-92903348D01*
X141002771Y-92903348D02*
X141040866Y-92979539D01*
X164185714Y-80194215D02*
X163919047Y-79813262D01*
X163728571Y-80194215D02*
X163728571Y-79394215D01*
X163728571Y-79394215D02*
X164033333Y-79394215D01*
X164033333Y-79394215D02*
X164109523Y-79432310D01*
X164109523Y-79432310D02*
X164147618Y-79470405D01*
X164147618Y-79470405D02*
X164185714Y-79546596D01*
X164185714Y-79546596D02*
X164185714Y-79660881D01*
X164185714Y-79660881D02*
X164147618Y-79737072D01*
X164147618Y-79737072D02*
X164109523Y-79775167D01*
X164109523Y-79775167D02*
X164033333Y-79813262D01*
X164033333Y-79813262D02*
X163728571Y-79813262D01*
X164947618Y-80194215D02*
X164490475Y-80194215D01*
X164719047Y-80194215D02*
X164719047Y-79394215D01*
X164719047Y-79394215D02*
X164642856Y-79508500D01*
X164642856Y-79508500D02*
X164566666Y-79584691D01*
X164566666Y-79584691D02*
X164490475Y-79622786D01*
X165404761Y-79737072D02*
X165328571Y-79698977D01*
X165328571Y-79698977D02*
X165290476Y-79660881D01*
X165290476Y-79660881D02*
X165252380Y-79584691D01*
X165252380Y-79584691D02*
X165252380Y-79546596D01*
X165252380Y-79546596D02*
X165290476Y-79470405D01*
X165290476Y-79470405D02*
X165328571Y-79432310D01*
X165328571Y-79432310D02*
X165404761Y-79394215D01*
X165404761Y-79394215D02*
X165557142Y-79394215D01*
X165557142Y-79394215D02*
X165633333Y-79432310D01*
X165633333Y-79432310D02*
X165671428Y-79470405D01*
X165671428Y-79470405D02*
X165709523Y-79546596D01*
X165709523Y-79546596D02*
X165709523Y-79584691D01*
X165709523Y-79584691D02*
X165671428Y-79660881D01*
X165671428Y-79660881D02*
X165633333Y-79698977D01*
X165633333Y-79698977D02*
X165557142Y-79737072D01*
X165557142Y-79737072D02*
X165404761Y-79737072D01*
X165404761Y-79737072D02*
X165328571Y-79775167D01*
X165328571Y-79775167D02*
X165290476Y-79813262D01*
X165290476Y-79813262D02*
X165252380Y-79889453D01*
X165252380Y-79889453D02*
X165252380Y-80041834D01*
X165252380Y-80041834D02*
X165290476Y-80118024D01*
X165290476Y-80118024D02*
X165328571Y-80156120D01*
X165328571Y-80156120D02*
X165404761Y-80194215D01*
X165404761Y-80194215D02*
X165557142Y-80194215D01*
X165557142Y-80194215D02*
X165633333Y-80156120D01*
X165633333Y-80156120D02*
X165671428Y-80118024D01*
X165671428Y-80118024D02*
X165709523Y-80041834D01*
X165709523Y-80041834D02*
X165709523Y-79889453D01*
X165709523Y-79889453D02*
X165671428Y-79813262D01*
X165671428Y-79813262D02*
X165633333Y-79775167D01*
X165633333Y-79775167D02*
X165557142Y-79737072D01*
X166840819Y-89233333D02*
X167555104Y-89233333D01*
X167555104Y-89233333D02*
X167697961Y-89280952D01*
X167697961Y-89280952D02*
X167793200Y-89376190D01*
X167793200Y-89376190D02*
X167840819Y-89519047D01*
X167840819Y-89519047D02*
X167840819Y-89614285D01*
X167840819Y-88233333D02*
X167840819Y-88804761D01*
X167840819Y-88519047D02*
X166840819Y-88519047D01*
X166840819Y-88519047D02*
X166983676Y-88614285D01*
X166983676Y-88614285D02*
X167078914Y-88709523D01*
X167078914Y-88709523D02*
X167126533Y-88804761D01*
X146085714Y-116664215D02*
X145819047Y-116283262D01*
X145628571Y-116664215D02*
X145628571Y-115864215D01*
X145628571Y-115864215D02*
X145933333Y-115864215D01*
X145933333Y-115864215D02*
X146009523Y-115902310D01*
X146009523Y-115902310D02*
X146047618Y-115940405D01*
X146047618Y-115940405D02*
X146085714Y-116016596D01*
X146085714Y-116016596D02*
X146085714Y-116130881D01*
X146085714Y-116130881D02*
X146047618Y-116207072D01*
X146047618Y-116207072D02*
X146009523Y-116245167D01*
X146009523Y-116245167D02*
X145933333Y-116283262D01*
X145933333Y-116283262D02*
X145628571Y-116283262D01*
X146390475Y-115940405D02*
X146428571Y-115902310D01*
X146428571Y-115902310D02*
X146504761Y-115864215D01*
X146504761Y-115864215D02*
X146695237Y-115864215D01*
X146695237Y-115864215D02*
X146771428Y-115902310D01*
X146771428Y-115902310D02*
X146809523Y-115940405D01*
X146809523Y-115940405D02*
X146847618Y-116016596D01*
X146847618Y-116016596D02*
X146847618Y-116092786D01*
X146847618Y-116092786D02*
X146809523Y-116207072D01*
X146809523Y-116207072D02*
X146352380Y-116664215D01*
X146352380Y-116664215D02*
X146847618Y-116664215D01*
X147342857Y-115864215D02*
X147419047Y-115864215D01*
X147419047Y-115864215D02*
X147495238Y-115902310D01*
X147495238Y-115902310D02*
X147533333Y-115940405D01*
X147533333Y-115940405D02*
X147571428Y-116016596D01*
X147571428Y-116016596D02*
X147609523Y-116168977D01*
X147609523Y-116168977D02*
X147609523Y-116359453D01*
X147609523Y-116359453D02*
X147571428Y-116511834D01*
X147571428Y-116511834D02*
X147533333Y-116588024D01*
X147533333Y-116588024D02*
X147495238Y-116626120D01*
X147495238Y-116626120D02*
X147419047Y-116664215D01*
X147419047Y-116664215D02*
X147342857Y-116664215D01*
X147342857Y-116664215D02*
X147266666Y-116626120D01*
X147266666Y-116626120D02*
X147228571Y-116588024D01*
X147228571Y-116588024D02*
X147190476Y-116511834D01*
X147190476Y-116511834D02*
X147152380Y-116359453D01*
X147152380Y-116359453D02*
X147152380Y-116168977D01*
X147152380Y-116168977D02*
X147190476Y-116016596D01*
X147190476Y-116016596D02*
X147228571Y-115940405D01*
X147228571Y-115940405D02*
X147266666Y-115902310D01*
X147266666Y-115902310D02*
X147342857Y-115864215D01*
D11*
X132547619Y-83820540D02*
X132509523Y-83858636D01*
X132509523Y-83858636D02*
X132395238Y-83896731D01*
X132395238Y-83896731D02*
X132319047Y-83896731D01*
X132319047Y-83896731D02*
X132204761Y-83858636D01*
X132204761Y-83858636D02*
X132128571Y-83782445D01*
X132128571Y-83782445D02*
X132090476Y-83706255D01*
X132090476Y-83706255D02*
X132052380Y-83553874D01*
X132052380Y-83553874D02*
X132052380Y-83439588D01*
X132052380Y-83439588D02*
X132090476Y-83287207D01*
X132090476Y-83287207D02*
X132128571Y-83211016D01*
X132128571Y-83211016D02*
X132204761Y-83134826D01*
X132204761Y-83134826D02*
X132319047Y-83096731D01*
X132319047Y-83096731D02*
X132395238Y-83096731D01*
X132395238Y-83096731D02*
X132509523Y-83134826D01*
X132509523Y-83134826D02*
X132547619Y-83172921D01*
X132890476Y-83896731D02*
X132890476Y-83096731D01*
X132890476Y-83096731D02*
X133347619Y-83896731D01*
X133347619Y-83896731D02*
X133347619Y-83096731D01*
X133690475Y-83172921D02*
X133728571Y-83134826D01*
X133728571Y-83134826D02*
X133804761Y-83096731D01*
X133804761Y-83096731D02*
X133995237Y-83096731D01*
X133995237Y-83096731D02*
X134071428Y-83134826D01*
X134071428Y-83134826D02*
X134109523Y-83172921D01*
X134109523Y-83172921D02*
X134147618Y-83249112D01*
X134147618Y-83249112D02*
X134147618Y-83325302D01*
X134147618Y-83325302D02*
X134109523Y-83439588D01*
X134109523Y-83439588D02*
X133652380Y-83896731D01*
X133652380Y-83896731D02*
X134147618Y-83896731D01*
D10*
X151938095Y-86034739D02*
X152509523Y-86034739D01*
X152223809Y-87034739D02*
X152223809Y-86034739D01*
X152842857Y-87034739D02*
X152842857Y-86034739D01*
X152842857Y-86034739D02*
X153223809Y-86034739D01*
X153223809Y-86034739D02*
X153319047Y-86082358D01*
X153319047Y-86082358D02*
X153366666Y-86129977D01*
X153366666Y-86129977D02*
X153414285Y-86225215D01*
X153414285Y-86225215D02*
X153414285Y-86368072D01*
X153414285Y-86368072D02*
X153366666Y-86463310D01*
X153366666Y-86463310D02*
X153319047Y-86510929D01*
X153319047Y-86510929D02*
X153223809Y-86558548D01*
X153223809Y-86558548D02*
X152842857Y-86558548D01*
X154366666Y-87034739D02*
X153795238Y-87034739D01*
X154080952Y-87034739D02*
X154080952Y-86034739D01*
X154080952Y-86034739D02*
X153985714Y-86177596D01*
X153985714Y-86177596D02*
X153890476Y-86272834D01*
X153890476Y-86272834D02*
X153795238Y-86320453D01*
X147585714Y-73662295D02*
X147319047Y-73281342D01*
X147128571Y-73662295D02*
X147128571Y-72862295D01*
X147128571Y-72862295D02*
X147433333Y-72862295D01*
X147433333Y-72862295D02*
X147509523Y-72900390D01*
X147509523Y-72900390D02*
X147547618Y-72938485D01*
X147547618Y-72938485D02*
X147585714Y-73014676D01*
X147585714Y-73014676D02*
X147585714Y-73128961D01*
X147585714Y-73128961D02*
X147547618Y-73205152D01*
X147547618Y-73205152D02*
X147509523Y-73243247D01*
X147509523Y-73243247D02*
X147433333Y-73281342D01*
X147433333Y-73281342D02*
X147128571Y-73281342D01*
X147890475Y-72938485D02*
X147928571Y-72900390D01*
X147928571Y-72900390D02*
X148004761Y-72862295D01*
X148004761Y-72862295D02*
X148195237Y-72862295D01*
X148195237Y-72862295D02*
X148271428Y-72900390D01*
X148271428Y-72900390D02*
X148309523Y-72938485D01*
X148309523Y-72938485D02*
X148347618Y-73014676D01*
X148347618Y-73014676D02*
X148347618Y-73090866D01*
X148347618Y-73090866D02*
X148309523Y-73205152D01*
X148309523Y-73205152D02*
X147852380Y-73662295D01*
X147852380Y-73662295D02*
X148347618Y-73662295D01*
X149033333Y-72862295D02*
X148880952Y-72862295D01*
X148880952Y-72862295D02*
X148804761Y-72900390D01*
X148804761Y-72900390D02*
X148766666Y-72938485D01*
X148766666Y-72938485D02*
X148690476Y-73052771D01*
X148690476Y-73052771D02*
X148652380Y-73205152D01*
X148652380Y-73205152D02*
X148652380Y-73509914D01*
X148652380Y-73509914D02*
X148690476Y-73586104D01*
X148690476Y-73586104D02*
X148728571Y-73624200D01*
X148728571Y-73624200D02*
X148804761Y-73662295D01*
X148804761Y-73662295D02*
X148957142Y-73662295D01*
X148957142Y-73662295D02*
X149033333Y-73624200D01*
X149033333Y-73624200D02*
X149071428Y-73586104D01*
X149071428Y-73586104D02*
X149109523Y-73509914D01*
X149109523Y-73509914D02*
X149109523Y-73319438D01*
X149109523Y-73319438D02*
X149071428Y-73243247D01*
X149071428Y-73243247D02*
X149033333Y-73205152D01*
X149033333Y-73205152D02*
X148957142Y-73167057D01*
X148957142Y-73167057D02*
X148804761Y-73167057D01*
X148804761Y-73167057D02*
X148728571Y-73205152D01*
X148728571Y-73205152D02*
X148690476Y-73243247D01*
X148690476Y-73243247D02*
X148652380Y-73319438D01*
X157842295Y-117989285D02*
X157461342Y-118255952D01*
X157842295Y-118446428D02*
X157042295Y-118446428D01*
X157042295Y-118446428D02*
X157042295Y-118141666D01*
X157042295Y-118141666D02*
X157080390Y-118065476D01*
X157080390Y-118065476D02*
X157118485Y-118027381D01*
X157118485Y-118027381D02*
X157194676Y-117989285D01*
X157194676Y-117989285D02*
X157308961Y-117989285D01*
X157308961Y-117989285D02*
X157385152Y-118027381D01*
X157385152Y-118027381D02*
X157423247Y-118065476D01*
X157423247Y-118065476D02*
X157461342Y-118141666D01*
X157461342Y-118141666D02*
X157461342Y-118446428D01*
X157118485Y-117684524D02*
X157080390Y-117646428D01*
X157080390Y-117646428D02*
X157042295Y-117570238D01*
X157042295Y-117570238D02*
X157042295Y-117379762D01*
X157042295Y-117379762D02*
X157080390Y-117303571D01*
X157080390Y-117303571D02*
X157118485Y-117265476D01*
X157118485Y-117265476D02*
X157194676Y-117227381D01*
X157194676Y-117227381D02*
X157270866Y-117227381D01*
X157270866Y-117227381D02*
X157385152Y-117265476D01*
X157385152Y-117265476D02*
X157842295Y-117722619D01*
X157842295Y-117722619D02*
X157842295Y-117227381D01*
X157308961Y-116541666D02*
X157842295Y-116541666D01*
X157004200Y-116732142D02*
X157575628Y-116922619D01*
X157575628Y-116922619D02*
X157575628Y-116427380D01*
X161379946Y-97368024D02*
X161341850Y-97406120D01*
X161341850Y-97406120D02*
X161227565Y-97444215D01*
X161227565Y-97444215D02*
X161151374Y-97444215D01*
X161151374Y-97444215D02*
X161037088Y-97406120D01*
X161037088Y-97406120D02*
X160960898Y-97329929D01*
X160960898Y-97329929D02*
X160922803Y-97253739D01*
X160922803Y-97253739D02*
X160884707Y-97101358D01*
X160884707Y-97101358D02*
X160884707Y-96987072D01*
X160884707Y-96987072D02*
X160922803Y-96834691D01*
X160922803Y-96834691D02*
X160960898Y-96758500D01*
X160960898Y-96758500D02*
X161037088Y-96682310D01*
X161037088Y-96682310D02*
X161151374Y-96644215D01*
X161151374Y-96644215D02*
X161227565Y-96644215D01*
X161227565Y-96644215D02*
X161341850Y-96682310D01*
X161341850Y-96682310D02*
X161379946Y-96720405D01*
X162141850Y-97444215D02*
X161684707Y-97444215D01*
X161913279Y-97444215D02*
X161913279Y-96644215D01*
X161913279Y-96644215D02*
X161837088Y-96758500D01*
X161837088Y-96758500D02*
X161760898Y-96834691D01*
X161760898Y-96834691D02*
X161684707Y-96872786D01*
X162446612Y-96720405D02*
X162484708Y-96682310D01*
X162484708Y-96682310D02*
X162560898Y-96644215D01*
X162560898Y-96644215D02*
X162751374Y-96644215D01*
X162751374Y-96644215D02*
X162827565Y-96682310D01*
X162827565Y-96682310D02*
X162865660Y-96720405D01*
X162865660Y-96720405D02*
X162903755Y-96796596D01*
X162903755Y-96796596D02*
X162903755Y-96872786D01*
X162903755Y-96872786D02*
X162865660Y-96987072D01*
X162865660Y-96987072D02*
X162408517Y-97444215D01*
X162408517Y-97444215D02*
X162903755Y-97444215D01*
X116157142Y-100646739D02*
X115823809Y-100170548D01*
X115585714Y-100646739D02*
X115585714Y-99646739D01*
X115585714Y-99646739D02*
X115966666Y-99646739D01*
X115966666Y-99646739D02*
X116061904Y-99694358D01*
X116061904Y-99694358D02*
X116109523Y-99741977D01*
X116109523Y-99741977D02*
X116157142Y-99837215D01*
X116157142Y-99837215D02*
X116157142Y-99980072D01*
X116157142Y-99980072D02*
X116109523Y-100075310D01*
X116109523Y-100075310D02*
X116061904Y-100122929D01*
X116061904Y-100122929D02*
X115966666Y-100170548D01*
X115966666Y-100170548D02*
X115585714Y-100170548D01*
X116538095Y-99741977D02*
X116585714Y-99694358D01*
X116585714Y-99694358D02*
X116680952Y-99646739D01*
X116680952Y-99646739D02*
X116919047Y-99646739D01*
X116919047Y-99646739D02*
X117014285Y-99694358D01*
X117014285Y-99694358D02*
X117061904Y-99741977D01*
X117061904Y-99741977D02*
X117109523Y-99837215D01*
X117109523Y-99837215D02*
X117109523Y-99932453D01*
X117109523Y-99932453D02*
X117061904Y-100075310D01*
X117061904Y-100075310D02*
X116490476Y-100646739D01*
X116490476Y-100646739D02*
X117109523Y-100646739D01*
X117490476Y-99741977D02*
X117538095Y-99694358D01*
X117538095Y-99694358D02*
X117633333Y-99646739D01*
X117633333Y-99646739D02*
X117871428Y-99646739D01*
X117871428Y-99646739D02*
X117966666Y-99694358D01*
X117966666Y-99694358D02*
X118014285Y-99741977D01*
X118014285Y-99741977D02*
X118061904Y-99837215D01*
X118061904Y-99837215D02*
X118061904Y-99932453D01*
X118061904Y-99932453D02*
X118014285Y-100075310D01*
X118014285Y-100075310D02*
X117442857Y-100646739D01*
X117442857Y-100646739D02*
X118061904Y-100646739D01*
X137585714Y-74186104D02*
X137547618Y-74224200D01*
X137547618Y-74224200D02*
X137433333Y-74262295D01*
X137433333Y-74262295D02*
X137357142Y-74262295D01*
X137357142Y-74262295D02*
X137242856Y-74224200D01*
X137242856Y-74224200D02*
X137166666Y-74148009D01*
X137166666Y-74148009D02*
X137128571Y-74071819D01*
X137128571Y-74071819D02*
X137090475Y-73919438D01*
X137090475Y-73919438D02*
X137090475Y-73805152D01*
X137090475Y-73805152D02*
X137128571Y-73652771D01*
X137128571Y-73652771D02*
X137166666Y-73576580D01*
X137166666Y-73576580D02*
X137242856Y-73500390D01*
X137242856Y-73500390D02*
X137357142Y-73462295D01*
X137357142Y-73462295D02*
X137433333Y-73462295D01*
X137433333Y-73462295D02*
X137547618Y-73500390D01*
X137547618Y-73500390D02*
X137585714Y-73538485D01*
X137890475Y-73538485D02*
X137928571Y-73500390D01*
X137928571Y-73500390D02*
X138004761Y-73462295D01*
X138004761Y-73462295D02*
X138195237Y-73462295D01*
X138195237Y-73462295D02*
X138271428Y-73500390D01*
X138271428Y-73500390D02*
X138309523Y-73538485D01*
X138309523Y-73538485D02*
X138347618Y-73614676D01*
X138347618Y-73614676D02*
X138347618Y-73690866D01*
X138347618Y-73690866D02*
X138309523Y-73805152D01*
X138309523Y-73805152D02*
X137852380Y-74262295D01*
X137852380Y-74262295D02*
X138347618Y-74262295D01*
X139033333Y-73462295D02*
X138880952Y-73462295D01*
X138880952Y-73462295D02*
X138804761Y-73500390D01*
X138804761Y-73500390D02*
X138766666Y-73538485D01*
X138766666Y-73538485D02*
X138690476Y-73652771D01*
X138690476Y-73652771D02*
X138652380Y-73805152D01*
X138652380Y-73805152D02*
X138652380Y-74109914D01*
X138652380Y-74109914D02*
X138690476Y-74186104D01*
X138690476Y-74186104D02*
X138728571Y-74224200D01*
X138728571Y-74224200D02*
X138804761Y-74262295D01*
X138804761Y-74262295D02*
X138957142Y-74262295D01*
X138957142Y-74262295D02*
X139033333Y-74224200D01*
X139033333Y-74224200D02*
X139071428Y-74186104D01*
X139071428Y-74186104D02*
X139109523Y-74109914D01*
X139109523Y-74109914D02*
X139109523Y-73919438D01*
X139109523Y-73919438D02*
X139071428Y-73843247D01*
X139071428Y-73843247D02*
X139033333Y-73805152D01*
X139033333Y-73805152D02*
X138957142Y-73767057D01*
X138957142Y-73767057D02*
X138804761Y-73767057D01*
X138804761Y-73767057D02*
X138728571Y-73805152D01*
X138728571Y-73805152D02*
X138690476Y-73843247D01*
X138690476Y-73843247D02*
X138652380Y-73919438D01*
X145266667Y-72686104D02*
X145228571Y-72724200D01*
X145228571Y-72724200D02*
X145114286Y-72762295D01*
X145114286Y-72762295D02*
X145038095Y-72762295D01*
X145038095Y-72762295D02*
X144923809Y-72724200D01*
X144923809Y-72724200D02*
X144847619Y-72648009D01*
X144847619Y-72648009D02*
X144809524Y-72571819D01*
X144809524Y-72571819D02*
X144771428Y-72419438D01*
X144771428Y-72419438D02*
X144771428Y-72305152D01*
X144771428Y-72305152D02*
X144809524Y-72152771D01*
X144809524Y-72152771D02*
X144847619Y-72076580D01*
X144847619Y-72076580D02*
X144923809Y-72000390D01*
X144923809Y-72000390D02*
X145038095Y-71962295D01*
X145038095Y-71962295D02*
X145114286Y-71962295D01*
X145114286Y-71962295D02*
X145228571Y-72000390D01*
X145228571Y-72000390D02*
X145266667Y-72038485D01*
X145647619Y-72762295D02*
X145800000Y-72762295D01*
X145800000Y-72762295D02*
X145876190Y-72724200D01*
X145876190Y-72724200D02*
X145914286Y-72686104D01*
X145914286Y-72686104D02*
X145990476Y-72571819D01*
X145990476Y-72571819D02*
X146028571Y-72419438D01*
X146028571Y-72419438D02*
X146028571Y-72114676D01*
X146028571Y-72114676D02*
X145990476Y-72038485D01*
X145990476Y-72038485D02*
X145952381Y-72000390D01*
X145952381Y-72000390D02*
X145876190Y-71962295D01*
X145876190Y-71962295D02*
X145723809Y-71962295D01*
X145723809Y-71962295D02*
X145647619Y-72000390D01*
X145647619Y-72000390D02*
X145609524Y-72038485D01*
X145609524Y-72038485D02*
X145571428Y-72114676D01*
X145571428Y-72114676D02*
X145571428Y-72305152D01*
X145571428Y-72305152D02*
X145609524Y-72381342D01*
X145609524Y-72381342D02*
X145647619Y-72419438D01*
X145647619Y-72419438D02*
X145723809Y-72457533D01*
X145723809Y-72457533D02*
X145876190Y-72457533D01*
X145876190Y-72457533D02*
X145952381Y-72419438D01*
X145952381Y-72419438D02*
X145990476Y-72381342D01*
X145990476Y-72381342D02*
X146028571Y-72305152D01*
X150559580Y-114942857D02*
X150607200Y-114990476D01*
X150607200Y-114990476D02*
X150654819Y-115133333D01*
X150654819Y-115133333D02*
X150654819Y-115228571D01*
X150654819Y-115228571D02*
X150607200Y-115371428D01*
X150607200Y-115371428D02*
X150511961Y-115466666D01*
X150511961Y-115466666D02*
X150416723Y-115514285D01*
X150416723Y-115514285D02*
X150226247Y-115561904D01*
X150226247Y-115561904D02*
X150083390Y-115561904D01*
X150083390Y-115561904D02*
X149892914Y-115514285D01*
X149892914Y-115514285D02*
X149797676Y-115466666D01*
X149797676Y-115466666D02*
X149702438Y-115371428D01*
X149702438Y-115371428D02*
X149654819Y-115228571D01*
X149654819Y-115228571D02*
X149654819Y-115133333D01*
X149654819Y-115133333D02*
X149702438Y-114990476D01*
X149702438Y-114990476D02*
X149750057Y-114942857D01*
X149750057Y-114561904D02*
X149702438Y-114514285D01*
X149702438Y-114514285D02*
X149654819Y-114419047D01*
X149654819Y-114419047D02*
X149654819Y-114180952D01*
X149654819Y-114180952D02*
X149702438Y-114085714D01*
X149702438Y-114085714D02*
X149750057Y-114038095D01*
X149750057Y-114038095D02*
X149845295Y-113990476D01*
X149845295Y-113990476D02*
X149940533Y-113990476D01*
X149940533Y-113990476D02*
X150083390Y-114038095D01*
X150083390Y-114038095D02*
X150654819Y-114609523D01*
X150654819Y-114609523D02*
X150654819Y-113990476D01*
X149988152Y-113133333D02*
X150654819Y-113133333D01*
X149607200Y-113371428D02*
X150321485Y-113609523D01*
X150321485Y-113609523D02*
X150321485Y-112990476D01*
X154583214Y-78684215D02*
X154316547Y-78303262D01*
X154126071Y-78684215D02*
X154126071Y-77884215D01*
X154126071Y-77884215D02*
X154430833Y-77884215D01*
X154430833Y-77884215D02*
X154507023Y-77922310D01*
X154507023Y-77922310D02*
X154545118Y-77960405D01*
X154545118Y-77960405D02*
X154583214Y-78036596D01*
X154583214Y-78036596D02*
X154583214Y-78150881D01*
X154583214Y-78150881D02*
X154545118Y-78227072D01*
X154545118Y-78227072D02*
X154507023Y-78265167D01*
X154507023Y-78265167D02*
X154430833Y-78303262D01*
X154430833Y-78303262D02*
X154126071Y-78303262D01*
X154849880Y-77884215D02*
X155345118Y-77884215D01*
X155345118Y-77884215D02*
X155078452Y-78188977D01*
X155078452Y-78188977D02*
X155192737Y-78188977D01*
X155192737Y-78188977D02*
X155268928Y-78227072D01*
X155268928Y-78227072D02*
X155307023Y-78265167D01*
X155307023Y-78265167D02*
X155345118Y-78341358D01*
X155345118Y-78341358D02*
X155345118Y-78531834D01*
X155345118Y-78531834D02*
X155307023Y-78608024D01*
X155307023Y-78608024D02*
X155268928Y-78646120D01*
X155268928Y-78646120D02*
X155192737Y-78684215D01*
X155192737Y-78684215D02*
X154964166Y-78684215D01*
X154964166Y-78684215D02*
X154887975Y-78646120D01*
X154887975Y-78646120D02*
X154849880Y-78608024D01*
X155840357Y-77884215D02*
X155916547Y-77884215D01*
X155916547Y-77884215D02*
X155992738Y-77922310D01*
X155992738Y-77922310D02*
X156030833Y-77960405D01*
X156030833Y-77960405D02*
X156068928Y-78036596D01*
X156068928Y-78036596D02*
X156107023Y-78188977D01*
X156107023Y-78188977D02*
X156107023Y-78379453D01*
X156107023Y-78379453D02*
X156068928Y-78531834D01*
X156068928Y-78531834D02*
X156030833Y-78608024D01*
X156030833Y-78608024D02*
X155992738Y-78646120D01*
X155992738Y-78646120D02*
X155916547Y-78684215D01*
X155916547Y-78684215D02*
X155840357Y-78684215D01*
X155840357Y-78684215D02*
X155764166Y-78646120D01*
X155764166Y-78646120D02*
X155726071Y-78608024D01*
X155726071Y-78608024D02*
X155687976Y-78531834D01*
X155687976Y-78531834D02*
X155649880Y-78379453D01*
X155649880Y-78379453D02*
X155649880Y-78188977D01*
X155649880Y-78188977D02*
X155687976Y-78036596D01*
X155687976Y-78036596D02*
X155726071Y-77960405D01*
X155726071Y-77960405D02*
X155764166Y-77922310D01*
X155764166Y-77922310D02*
X155840357Y-77884215D01*
%TO.C,SW2*%
D12*
X151208000Y-111674000D02*
X151328000Y-111674000D01*
X152338000Y-111674000D02*
X153478000Y-111674000D01*
X154488000Y-111674000D02*
X154608000Y-111674000D01*
X154608000Y-111674000D02*
X154608000Y-107274000D01*
X151208000Y-107274000D02*
X151208000Y-111674000D01*
X151328000Y-107274000D02*
X151208000Y-107274000D01*
X153478000Y-107274000D02*
X152338000Y-107274000D01*
X154608000Y-107274000D02*
X154488000Y-107274000D01*
%TO.C,IC2*%
X159300000Y-78741920D02*
X158500000Y-78741920D01*
X159300000Y-78741920D02*
X160100000Y-78741920D01*
X160300000Y-75521920D02*
X158500000Y-75521920D01*
X160840000Y-79021920D02*
X160360000Y-79021920D01*
X160600000Y-78691920D01*
X160840000Y-79021920D01*
G36*
X160840000Y-79021920D02*
G01*
X160360000Y-79021920D01*
X160600000Y-78691920D01*
X160840000Y-79021920D01*
G37*
%TO.C,C18*%
X161438748Y-85596920D02*
X161961252Y-85596920D01*
X161438748Y-87066920D02*
X161961252Y-87066920D01*
%TO.C,U1*%
X138090000Y-77021920D02*
X139040000Y-77021920D01*
X138090000Y-77971920D02*
X138090000Y-77021920D01*
X138090000Y-87241920D02*
X138090000Y-86291920D01*
X139040000Y-87241920D02*
X138090000Y-87241920D01*
X147360000Y-77021920D02*
X148310000Y-77021920D01*
X148310000Y-77021920D02*
X148310000Y-77971920D01*
X148310000Y-86291920D02*
X148310000Y-87241920D01*
X148310000Y-87241920D02*
X147360000Y-87241920D01*
X137450000Y-77971920D02*
X137110000Y-77501920D01*
X137790000Y-77501920D01*
X137450000Y-77971920D01*
G36*
X137450000Y-77971920D02*
G01*
X137110000Y-77501920D01*
X137790000Y-77501920D01*
X137450000Y-77971920D01*
G37*
%TO.C,R15*%
X159032379Y-95201920D02*
X159367621Y-95201920D01*
X159032379Y-95961920D02*
X159367621Y-95961920D01*
%TO.C,C7*%
X146290000Y-91016085D02*
X146290000Y-91247755D01*
X147010000Y-91016085D02*
X147010000Y-91247755D01*
%TO.C,Q1*%
X164627500Y-98271920D02*
X165627500Y-98271920D01*
X164627500Y-99791920D02*
X164627500Y-98271920D01*
X164677500Y-99791920D02*
X164627500Y-99791920D01*
X166577500Y-99791920D02*
X165797500Y-99791920D01*
X166747500Y-98271920D02*
X167747500Y-98271920D01*
X167747500Y-98271920D02*
X167747500Y-99791920D01*
X167747500Y-99791920D02*
X167697500Y-99791920D01*
X166137500Y-100571920D02*
X165807500Y-100331920D01*
X166137500Y-100091920D01*
X166137500Y-100571920D01*
G36*
X166137500Y-100571920D02*
G01*
X165807500Y-100331920D01*
X166137500Y-100091920D01*
X166137500Y-100571920D01*
G37*
%TO.C,U6*%
X158190000Y-79271920D02*
X160010000Y-79271920D01*
X158190000Y-79321920D02*
X158190000Y-79271920D01*
X158190000Y-81221920D02*
X158190000Y-80441920D01*
X158190000Y-82391920D02*
X158190000Y-82341920D01*
X160010000Y-79271920D02*
X160010000Y-79321920D01*
X160010000Y-82341920D02*
X160010000Y-82391920D01*
X160010000Y-82391920D02*
X158190000Y-82391920D01*
X160790000Y-82671920D02*
X160310000Y-82671920D01*
X160550000Y-82341920D01*
X160790000Y-82671920D01*
G36*
X160790000Y-82671920D02*
G01*
X160310000Y-82671920D01*
X160550000Y-82341920D01*
X160790000Y-82671920D01*
G37*
%TO.C,D1*%
X156852500Y-99281920D02*
X156852500Y-101566920D01*
X156852500Y-101566920D02*
X158322500Y-101566920D01*
X158322500Y-101566920D02*
X158322500Y-99281920D01*
%TO.C,SW1*%
X158230000Y-107071920D02*
X168450000Y-107071920D01*
X168450000Y-109791920D01*
X158230000Y-109791920D01*
X158230000Y-107071920D01*
%TO.C,R31*%
D13*
X128000000Y-86331920D02*
X128000000Y-89731920D01*
D14*
X128350000Y-88031920D02*
G75*
G02*
X127650000Y-88031920I-350000J0D01*
G01*
X127650000Y-88031920D02*
G75*
G02*
X128350000Y-88031920I350000J0D01*
G01*
D15*
X129525000Y-90256920D02*
G75*
G02*
X129275000Y-90256920I-125000J0D01*
G01*
X129275000Y-90256920D02*
G75*
G02*
X129525000Y-90256920I125000J0D01*
G01*
%TO.C,R27*%
D12*
X152617621Y-81351920D02*
X152282379Y-81351920D01*
X152617621Y-82111920D02*
X152282379Y-82111920D01*
%TO.C,C8*%
X143515835Y-73171920D02*
X143284165Y-73171920D01*
X143515835Y-73891920D02*
X143284165Y-73891920D01*
%TO.C,C16*%
X162234232Y-93466085D02*
X162234232Y-93697755D01*
X162954232Y-93466085D02*
X162954232Y-93697755D01*
%TO.C,CN1*%
D13*
D16*
X134400000Y-86431920D02*
X134399999Y-86431920D01*
X134399999Y-86431920D01*
X134399999Y-86431920D01*
X134399999Y-86431920D01*
X134399999Y-86431920D01*
X134399999Y-86431920D01*
X134399999Y-86431920D01*
X134399999Y-86431919D01*
X134399999Y-86431919D01*
X134399999Y-86431919D01*
X134399999Y-86431919D01*
X134399999Y-86431919D01*
X134400000Y-86431919D01*
X134400000Y-86431919D01*
X134400000Y-86431919D01*
X134400000Y-86431919D01*
X134400000Y-86431919D01*
X134400000Y-86431919D01*
X134400000Y-86431919D01*
X134400000Y-86431919D01*
X134400000Y-86431919D01*
X134400000Y-86431919D01*
X134400000Y-86431919D01*
X134400000Y-86431919D01*
X134400001Y-86431919D01*
X134400001Y-86431919D01*
X134400001Y-86431919D01*
X134400001Y-86431919D01*
X134400001Y-86431919D01*
X134400001Y-86431919D01*
X134400001Y-86431920D01*
X134400001Y-86431920D01*
X134400001Y-86431920D01*
X134400001Y-86431920D01*
X134400001Y-86431920D01*
X134400001Y-86431920D01*
X134400001Y-86431920D01*
X134400000Y-86431920D01*
X134400000Y-86431920D02*
X134400001Y-86431920D01*
X134400001Y-86431920D01*
X134400001Y-86431920D01*
X134400001Y-86431920D01*
X134400001Y-86431920D01*
X134400001Y-86431920D01*
X134400001Y-86431921D01*
X134400001Y-86431921D01*
X134400001Y-86431921D01*
X134400001Y-86431921D01*
X134400001Y-86431921D01*
X134400001Y-86431921D01*
X134400001Y-86431921D01*
X134400000Y-86431921D01*
X134400000Y-86431921D01*
X134400000Y-86431921D01*
X134400000Y-86431921D01*
X134400000Y-86431921D01*
X134400000Y-86431921D01*
X134400000Y-86431921D01*
X134400000Y-86431921D01*
X134400000Y-86431921D01*
X134400000Y-86431921D01*
X134400000Y-86431921D01*
X134400000Y-86431921D01*
X134399999Y-86431921D01*
X134399999Y-86431921D01*
X134399999Y-86431921D01*
X134399999Y-86431921D01*
X134399999Y-86431921D01*
X134399999Y-86431921D01*
X134399999Y-86431920D01*
X134399999Y-86431920D01*
X134399999Y-86431920D01*
X134399999Y-86431920D01*
X134399999Y-86431920D01*
X134399999Y-86431920D01*
X134400000Y-86431920D01*
D13*
D16*
X134400000Y-86531920D02*
X134399999Y-86531920D01*
X134399999Y-86531920D01*
X134399999Y-86531920D01*
X134399999Y-86531920D01*
X134399999Y-86531920D01*
X134399999Y-86531920D01*
X134399999Y-86531920D01*
X134399999Y-86531919D01*
X134399999Y-86531919D01*
X134399999Y-86531919D01*
X134399999Y-86531919D01*
X134399999Y-86531919D01*
X134400000Y-86531919D01*
X134400000Y-86531919D01*
X134400000Y-86531919D01*
X134400000Y-86531919D01*
X134400000Y-86531919D01*
X134400000Y-86531919D01*
X134400000Y-86531919D01*
X134400000Y-86531919D01*
X134400000Y-86531919D01*
X134400000Y-86531919D01*
X134400000Y-86531919D01*
X134400000Y-86531919D01*
X134400001Y-86531919D01*
X134400001Y-86531919D01*
X134400001Y-86531919D01*
X134400001Y-86531919D01*
X134400001Y-86531919D01*
X134400001Y-86531919D01*
X134400001Y-86531920D01*
X134400001Y-86531920D01*
X134400001Y-86531920D01*
X134400001Y-86531920D01*
X134400001Y-86531920D01*
X134400001Y-86531920D01*
X134400001Y-86531920D01*
X134400000Y-86531920D01*
X134400000Y-86531920D02*
X134400001Y-86531920D01*
X134400001Y-86531920D01*
X134400001Y-86531920D01*
X134400001Y-86531920D01*
X134400001Y-86531920D01*
X134400001Y-86531920D01*
X134400001Y-86531921D01*
X134400001Y-86531921D01*
X134400001Y-86531921D01*
X134400001Y-86531921D01*
X134400001Y-86531921D01*
X134400001Y-86531921D01*
X134400001Y-86531921D01*
X134400000Y-86531921D01*
X134400000Y-86531921D01*
X134400000Y-86531921D01*
X134400000Y-86531921D01*
X134400000Y-86531921D01*
X134400000Y-86531921D01*
X134400000Y-86531921D01*
X134400000Y-86531921D01*
X134400000Y-86531921D01*
X134400000Y-86531921D01*
X134400000Y-86531921D01*
X134400000Y-86531921D01*
X134399999Y-86531921D01*
X134399999Y-86531921D01*
X134399999Y-86531921D01*
X134399999Y-86531921D01*
X134399999Y-86531921D01*
X134399999Y-86531921D01*
X134399999Y-86531920D01*
X134399999Y-86531920D01*
X134399999Y-86531920D01*
X134399999Y-86531920D01*
X134399999Y-86531920D01*
X134399999Y-86531920D01*
X134400000Y-86531920D01*
D13*
D16*
X134400000Y-86531920D02*
X134399999Y-86531920D01*
X134399999Y-86531920D01*
X134399999Y-86531920D01*
X134399999Y-86531920D01*
X134399999Y-86531920D01*
X134399999Y-86531920D01*
X134399999Y-86531920D01*
X134399999Y-86531919D01*
X134399999Y-86531919D01*
X134399999Y-86531919D01*
X134399999Y-86531919D01*
X134399999Y-86531919D01*
X134400000Y-86531919D01*
X134400000Y-86531919D01*
X134400000Y-86531919D01*
X134400000Y-86531919D01*
X134400000Y-86531919D01*
X134400000Y-86531919D01*
X134400000Y-86531919D01*
X134400000Y-86531919D01*
X134400000Y-86531919D01*
X134400000Y-86531919D01*
X134400000Y-86531919D01*
X134400000Y-86531919D01*
X134400001Y-86531919D01*
X134400001Y-86531919D01*
X134400001Y-86531919D01*
X134400001Y-86531919D01*
X134400001Y-86531919D01*
X134400001Y-86531919D01*
X134400001Y-86531920D01*
X134400001Y-86531920D01*
X134400001Y-86531920D01*
X134400001Y-86531920D01*
X134400001Y-86531920D01*
X134400001Y-86531920D01*
X134400001Y-86531920D01*
X134400000Y-86531920D01*
X134400000Y-86531920D02*
X134400001Y-86531920D01*
X134400001Y-86531920D01*
X134400001Y-86531920D01*
X134400001Y-86531920D01*
X134400001Y-86531920D01*
X134400001Y-86531920D01*
X134400001Y-86531921D01*
X134400001Y-86531921D01*
X134400001Y-86531921D01*
X134400001Y-86531921D01*
X134400001Y-86531921D01*
X134400001Y-86531921D01*
X134400001Y-86531921D01*
X134400000Y-86531921D01*
X134400000Y-86531921D01*
X134400000Y-86531921D01*
X134400000Y-86531921D01*
X134400000Y-86531921D01*
X134400000Y-86531921D01*
X134400000Y-86531921D01*
X134400000Y-86531921D01*
X134400000Y-86531921D01*
X134400000Y-86531921D01*
X134400000Y-86531921D01*
X134400000Y-86531921D01*
X134399999Y-86531921D01*
X134399999Y-86531921D01*
X134399999Y-86531921D01*
X134399999Y-86531921D01*
X134399999Y-86531921D01*
X134399999Y-86531921D01*
X134399999Y-86531920D01*
X134399999Y-86531920D01*
X134399999Y-86531920D01*
X134399999Y-86531920D01*
X134399999Y-86531920D01*
X134399999Y-86531920D01*
X134400000Y-86531920D01*
D13*
X134400000Y-86431920D02*
G75*
G02*
X134400000Y-86531920I0J-50000D01*
G01*
X134400000Y-86431920D02*
G75*
G02*
X134400000Y-86531920I0J-50000D01*
G01*
X134400000Y-86531920D02*
G75*
G02*
X134400000Y-86431920I0J50000D01*
G01*
%TO.C,C15*%
D12*
X159084165Y-91471920D02*
X159315835Y-91471920D01*
X159084165Y-92191920D02*
X159315835Y-92191920D01*
%TO.C,R19*%
X135667621Y-74820000D02*
X135332379Y-74820000D01*
X135667621Y-75580000D02*
X135332379Y-75580000D01*
%TO.C,R23*%
D13*
X128000000Y-78031920D02*
X128000000Y-81431920D01*
D14*
X128350000Y-79731920D02*
G75*
G02*
X127650000Y-79731920I-350000J0D01*
G01*
X127650000Y-79731920D02*
G75*
G02*
X128350000Y-79731920I350000J0D01*
G01*
D15*
X129525000Y-81956920D02*
G75*
G02*
X129275000Y-81956920I-125000J0D01*
G01*
X129275000Y-81956920D02*
G75*
G02*
X129525000Y-81956920I125000J0D01*
G01*
%TO.C,C17*%
D12*
X161438748Y-87796920D02*
X161961252Y-87796920D01*
X161438748Y-89266920D02*
X161961252Y-89266920D01*
%TO.C,D2*%
X168347500Y-101481920D02*
X164337500Y-101481920D01*
X168347500Y-103481920D02*
X164337500Y-103481920D01*
X168347500Y-103481920D02*
X168347500Y-101481920D01*
%TO.C,U7*%
X156800000Y-112821920D02*
X157800000Y-112821920D01*
X156800000Y-115641920D02*
X157590000Y-115641920D01*
X157920000Y-115921920D02*
X157920000Y-115641920D01*
X158200000Y-115641920D01*
X157920000Y-115921920D01*
G36*
X157920000Y-115921920D02*
G01*
X157920000Y-115641920D01*
X158200000Y-115641920D01*
X157920000Y-115921920D01*
G37*
%TO.C,R28*%
X152617621Y-79951920D02*
X152282379Y-79951920D01*
X152617621Y-80711920D02*
X152282379Y-80711920D01*
%TO.C,U4*%
X126640000Y-91721920D02*
X130760000Y-91721920D01*
X126640000Y-91816920D02*
X126640000Y-91721920D01*
X126640000Y-96841920D02*
X126640000Y-96746920D01*
X130760000Y-91721920D02*
X130760000Y-91816920D01*
X130760000Y-96746920D02*
X130760000Y-96841920D01*
X130760000Y-96841920D02*
X126640000Y-96841920D01*
X126100000Y-91811920D02*
X125860000Y-91481920D01*
X126340000Y-91481920D01*
X126100000Y-91811920D01*
G36*
X126100000Y-91811920D02*
G01*
X125860000Y-91481920D01*
X126340000Y-91481920D01*
X126100000Y-91811920D01*
G37*
%TO.C,C6*%
X144040000Y-91820668D02*
X144040000Y-93243172D01*
X145860000Y-91820668D02*
X145860000Y-93243172D01*
%TO.C,R21*%
X122332379Y-100751920D02*
X122667621Y-100751920D01*
X122332379Y-101511920D02*
X122667621Y-101511920D01*
%TO.C,R25*%
X140232379Y-72520000D02*
X140567621Y-72520000D01*
X140232379Y-73280000D02*
X140567621Y-73280000D01*
%TO.C,C10*%
X142890000Y-91016085D02*
X142890000Y-91247755D01*
X143610000Y-91016085D02*
X143610000Y-91247755D01*
%TO.C,R17*%
X160367621Y-74251920D02*
X160032379Y-74251920D01*
X160367621Y-75011920D02*
X160032379Y-75011920D01*
%TO.C,R10*%
X158727500Y-100366085D02*
X158727500Y-100597755D01*
X159447500Y-100366085D02*
X159447500Y-100597755D01*
%TO.C,L2*%
X163390000Y-90521920D02*
X165090000Y-90521920D01*
X163390000Y-96241920D02*
X163390000Y-90521920D01*
X165090000Y-96241920D02*
X163390000Y-96241920D01*
X167210000Y-90521920D02*
X168910000Y-90521920D01*
X168910000Y-90521920D02*
X168910000Y-96241920D01*
X168910000Y-96241920D02*
X167210000Y-96241920D01*
%TO.C,U3*%
X125600000Y-99481920D02*
X125600000Y-100481920D01*
X125600000Y-99481920D02*
X127100000Y-99481920D01*
X125600000Y-125331920D02*
X125600000Y-119131920D01*
X144000000Y-99481920D02*
X142500000Y-99481920D01*
X144000000Y-100481920D02*
X144000000Y-99481920D01*
X144000000Y-125331920D02*
X125600000Y-125331920D01*
X144000000Y-125331920D02*
X144000000Y-119131920D01*
X144000000Y-118956920D02*
X144000000Y-118456920D01*
X144500000Y-118456920D01*
X144000000Y-118956920D01*
G36*
X144000000Y-118956920D02*
G01*
X144000000Y-118456920D01*
X144500000Y-118456920D01*
X144000000Y-118956920D01*
G37*
%TO.C,R16*%
X159032379Y-92701920D02*
X159367621Y-92701920D01*
X159032379Y-93461920D02*
X159367621Y-93461920D01*
%TO.C,C22*%
X153840000Y-76547755D02*
X153840000Y-76316085D01*
X154560000Y-76547755D02*
X154560000Y-76316085D01*
%TO.C,C21*%
X151990000Y-76078187D02*
X151990000Y-75785653D01*
X153010000Y-76078187D02*
X153010000Y-75785653D01*
%TO.C,IC1*%
X160815000Y-91507488D02*
X160815000Y-90371920D01*
X162685000Y-90371920D02*
X162685000Y-91791920D01*
X160810000Y-91801920D02*
X160620000Y-91941920D01*
X160620000Y-91661920D01*
X160810000Y-91801920D01*
G36*
X160810000Y-91801920D02*
G01*
X160620000Y-91941920D01*
X160620000Y-91661920D01*
X160810000Y-91801920D01*
G37*
%TO.C,C13*%
X161953335Y-105421920D02*
X161721665Y-105421920D01*
X161953335Y-106141920D02*
X161721665Y-106141920D01*
%TO.C,C1*%
X141890000Y-91247755D02*
X141890000Y-91016085D01*
X142610000Y-91247755D02*
X142610000Y-91016085D01*
%TO.C,U2*%
X159877500Y-101671920D02*
X159927500Y-101671920D01*
X159877500Y-103491920D02*
X159877500Y-101671920D01*
X159927500Y-103491920D02*
X159877500Y-103491920D01*
X161047500Y-101671920D02*
X161827500Y-101671920D01*
X162947500Y-101671920D02*
X162997500Y-101671920D01*
X162997500Y-101671920D02*
X162997500Y-103491920D01*
X162997500Y-103491920D02*
X162947500Y-103491920D01*
X159927500Y-104031920D02*
X159597500Y-104271920D01*
X159597500Y-103791920D01*
X159927500Y-104031920D01*
G36*
X159927500Y-104031920D02*
G01*
X159597500Y-104271920D01*
X159597500Y-103791920D01*
X159927500Y-104031920D01*
G37*
%TO.C,C28*%
X133440000Y-93097755D02*
X133440000Y-92866085D01*
X134160000Y-93097755D02*
X134160000Y-92866085D01*
%TO.C,J3*%
X107100000Y-95081920D02*
X107100000Y-97931920D01*
X107100000Y-97931920D02*
X109950000Y-97931920D01*
X107340000Y-75271920D02*
X117160000Y-75271920D01*
X107340000Y-86481920D02*
X107340000Y-75271920D01*
X107340000Y-86481920D02*
X107340000Y-97691920D01*
X107340000Y-97691920D02*
X117160000Y-97691920D01*
X117160000Y-75271920D02*
X117160000Y-84671920D01*
X117160000Y-84671920D02*
X118560000Y-84671920D01*
X117160000Y-88291920D02*
X118560000Y-88291920D01*
X117160000Y-97691920D02*
X117160000Y-88291920D01*
X118560000Y-84671920D02*
X118560000Y-86481920D01*
X118560000Y-88291920D02*
X118560000Y-86481920D01*
%TO.C,R14*%
X159367621Y-93951920D02*
X159032379Y-93951920D01*
X159367621Y-94711920D02*
X159032379Y-94711920D01*
%TO.C,R12*%
X135332379Y-75820000D02*
X135667621Y-75820000D01*
X135332379Y-76580000D02*
X135667621Y-76580000D01*
%TO.C,R29*%
X152617621Y-78951920D02*
X152282379Y-78951920D01*
X152617621Y-79711920D02*
X152282379Y-79711920D01*
%TO.C,R9*%
X158253335Y-102221920D02*
X158021665Y-102221920D01*
X158253335Y-102941920D02*
X158021665Y-102941920D01*
%TO.C,C19*%
X161438748Y-83396920D02*
X161961252Y-83396920D01*
X161438748Y-84866920D02*
X161961252Y-84866920D01*
%TO.C,R11*%
X161734165Y-97771920D02*
X161965835Y-97771920D01*
X161734165Y-98491920D02*
X161965835Y-98491920D01*
%TO.C,C11*%
X140890000Y-91247755D02*
X140890000Y-91016085D01*
X141610000Y-91247755D02*
X141610000Y-91016085D01*
%TO.C,R18*%
X162229879Y-79451920D02*
X162565121Y-79451920D01*
X162229879Y-80211920D02*
X162565121Y-80211920D01*
%TO.C,J1*%
X166490000Y-79821920D02*
X166490000Y-82321920D01*
X168290000Y-80121920D02*
X168290000Y-81121920D01*
X168290000Y-81121920D02*
X166790000Y-81121920D01*
X168290000Y-86841920D02*
X166790000Y-86841920D01*
X168290000Y-87841920D02*
X168290000Y-86841920D01*
X168990000Y-79821920D02*
X166490000Y-79821920D01*
X169100000Y-80121920D02*
X169100000Y-80621920D01*
X169100000Y-80621920D02*
X170310000Y-80621920D01*
X169100000Y-87341920D02*
X169100000Y-87841920D01*
X170310000Y-80621920D02*
X170310000Y-87341920D01*
X170310000Y-87341920D02*
X169100000Y-87341920D01*
X166790000Y-80121920D02*
X170810000Y-80121920D01*
X170810000Y-87841920D01*
X166790000Y-87841920D01*
X166790000Y-80121920D01*
%TO.C,R20*%
X146767621Y-114751920D02*
X146432379Y-114751920D01*
X146767621Y-115511920D02*
X146432379Y-115511920D01*
%TO.C,CN2*%
D13*
D16*
X134400000Y-82531920D02*
X134399999Y-82531920D01*
X134399999Y-82531920D01*
X134399999Y-82531920D01*
X134399999Y-82531920D01*
X134399999Y-82531920D01*
X134399999Y-82531920D01*
X134399999Y-82531920D01*
X134399999Y-82531919D01*
X134399999Y-82531919D01*
X134399999Y-82531919D01*
X134399999Y-82531919D01*
X134399999Y-82531919D01*
X134400000Y-82531919D01*
X134400000Y-82531919D01*
X134400000Y-82531919D01*
X134400000Y-82531919D01*
X134400000Y-82531919D01*
X134400000Y-82531919D01*
X134400000Y-82531919D01*
X134400000Y-82531919D01*
X134400000Y-82531919D01*
X134400000Y-82531919D01*
X134400000Y-82531919D01*
X134400000Y-82531919D01*
X134400001Y-82531919D01*
X134400001Y-82531919D01*
X134400001Y-82531919D01*
X134400001Y-82531919D01*
X134400001Y-82531919D01*
X134400001Y-82531919D01*
X134400001Y-82531920D01*
X134400001Y-82531920D01*
X134400001Y-82531920D01*
X134400001Y-82531920D01*
X134400001Y-82531920D01*
X134400001Y-82531920D01*
X134400001Y-82531920D01*
X134400000Y-82531920D01*
X134400000Y-82531920D02*
X134400001Y-82531920D01*
X134400001Y-82531920D01*
X134400001Y-82531920D01*
X134400001Y-82531920D01*
X134400001Y-82531920D01*
X134400001Y-82531920D01*
X134400001Y-82531921D01*
X134400001Y-82531921D01*
X134400001Y-82531921D01*
X134400001Y-82531921D01*
X134400001Y-82531921D01*
X134400001Y-82531921D01*
X134400001Y-82531921D01*
X134400000Y-82531921D01*
X134400000Y-82531921D01*
X134400000Y-82531921D01*
X134400000Y-82531921D01*
X134400000Y-82531921D01*
X134400000Y-82531921D01*
X134400000Y-82531921D01*
X134400000Y-82531921D01*
X134400000Y-82531921D01*
X134400000Y-82531921D01*
X134400000Y-82531921D01*
X134400000Y-82531921D01*
X134399999Y-82531921D01*
X134399999Y-82531921D01*
X134399999Y-82531921D01*
X134399999Y-82531921D01*
X134399999Y-82531921D01*
X134399999Y-82531921D01*
X134399999Y-82531920D01*
X134399999Y-82531920D01*
X134399999Y-82531920D01*
X134399999Y-82531920D01*
X134399999Y-82531920D01*
X134399999Y-82531920D01*
X134400000Y-82531920D01*
D13*
D16*
X134400000Y-82631920D02*
X134399999Y-82631920D01*
X134399999Y-82631920D01*
X134399999Y-82631920D01*
X134399999Y-82631920D01*
X134399999Y-82631920D01*
X134399999Y-82631920D01*
X134399999Y-82631920D01*
X134399999Y-82631919D01*
X134399999Y-82631919D01*
X134399999Y-82631919D01*
X134399999Y-82631919D01*
X134399999Y-82631919D01*
X134400000Y-82631919D01*
X134400000Y-82631919D01*
X134400000Y-82631919D01*
X134400000Y-82631919D01*
X134400000Y-82631919D01*
X134400000Y-82631919D01*
X134400000Y-82631919D01*
X134400000Y-82631919D01*
X134400000Y-82631919D01*
X134400000Y-82631919D01*
X134400000Y-82631919D01*
X134400000Y-82631919D01*
X134400001Y-82631919D01*
X134400001Y-82631919D01*
X134400001Y-82631919D01*
X134400001Y-82631919D01*
X134400001Y-82631919D01*
X134400001Y-82631919D01*
X134400001Y-82631920D01*
X134400001Y-82631920D01*
X134400001Y-82631920D01*
X134400001Y-82631920D01*
X134400001Y-82631920D01*
X134400001Y-82631920D01*
X134400001Y-82631920D01*
X134400000Y-82631920D01*
X134400000Y-82631920D02*
X134400001Y-82631920D01*
X134400001Y-82631920D01*
X134400001Y-82631920D01*
X134400001Y-82631920D01*
X134400001Y-82631920D01*
X134400001Y-82631920D01*
X134400001Y-82631921D01*
X134400001Y-82631921D01*
X134400001Y-82631921D01*
X134400001Y-82631921D01*
X134400001Y-82631921D01*
X134400001Y-82631921D01*
X134400001Y-82631921D01*
X134400000Y-82631921D01*
X134400000Y-82631921D01*
X134400000Y-82631921D01*
X134400000Y-82631921D01*
X134400000Y-82631921D01*
X134400000Y-82631921D01*
X134400000Y-82631921D01*
X134400000Y-82631921D01*
X134400000Y-82631921D01*
X134400000Y-82631921D01*
X134400000Y-82631921D01*
X134400000Y-82631921D01*
X134399999Y-82631921D01*
X134399999Y-82631921D01*
X134399999Y-82631921D01*
X134399999Y-82631921D01*
X134399999Y-82631921D01*
X134399999Y-82631921D01*
X134399999Y-82631920D01*
X134399999Y-82631920D01*
X134399999Y-82631920D01*
X134399999Y-82631920D01*
X134399999Y-82631920D01*
X134399999Y-82631920D01*
X134400000Y-82631920D01*
D13*
D16*
X134400000Y-82631920D02*
X134399999Y-82631920D01*
X134399999Y-82631920D01*
X134399999Y-82631920D01*
X134399999Y-82631920D01*
X134399999Y-82631920D01*
X134399999Y-82631920D01*
X134399999Y-82631920D01*
X134399999Y-82631919D01*
X134399999Y-82631919D01*
X134399999Y-82631919D01*
X134399999Y-82631919D01*
X134399999Y-82631919D01*
X134400000Y-82631919D01*
X134400000Y-82631919D01*
X134400000Y-82631919D01*
X134400000Y-82631919D01*
X134400000Y-82631919D01*
X134400000Y-82631919D01*
X134400000Y-82631919D01*
X134400000Y-82631919D01*
X134400000Y-82631919D01*
X134400000Y-82631919D01*
X134400000Y-82631919D01*
X134400000Y-82631919D01*
X134400001Y-82631919D01*
X134400001Y-82631919D01*
X134400001Y-82631919D01*
X134400001Y-82631919D01*
X134400001Y-82631919D01*
X134400001Y-82631919D01*
X134400001Y-82631920D01*
X134400001Y-82631920D01*
X134400001Y-82631920D01*
X134400001Y-82631920D01*
X134400001Y-82631920D01*
X134400001Y-82631920D01*
X134400001Y-82631920D01*
X134400000Y-82631920D01*
X134400000Y-82631920D02*
X134400001Y-82631920D01*
X134400001Y-82631920D01*
X134400001Y-82631920D01*
X134400001Y-82631920D01*
X134400001Y-82631920D01*
X134400001Y-82631920D01*
X134400001Y-82631921D01*
X134400001Y-82631921D01*
X134400001Y-82631921D01*
X134400001Y-82631921D01*
X134400001Y-82631921D01*
X134400001Y-82631921D01*
X134400001Y-82631921D01*
X134400000Y-82631921D01*
X134400000Y-82631921D01*
X134400000Y-82631921D01*
X134400000Y-82631921D01*
X134400000Y-82631921D01*
X134400000Y-82631921D01*
X134400000Y-82631921D01*
X134400000Y-82631921D01*
X134400000Y-82631921D01*
X134400000Y-82631921D01*
X134400000Y-82631921D01*
X134400000Y-82631921D01*
X134399999Y-82631921D01*
X134399999Y-82631921D01*
X134399999Y-82631921D01*
X134399999Y-82631921D01*
X134399999Y-82631921D01*
X134399999Y-82631921D01*
X134399999Y-82631920D01*
X134399999Y-82631920D01*
X134399999Y-82631920D01*
X134399999Y-82631920D01*
X134399999Y-82631920D01*
X134399999Y-82631920D01*
X134400000Y-82631920D01*
D13*
X134400000Y-82531920D02*
G75*
G02*
X134400000Y-82631920I0J-50000D01*
G01*
X134400000Y-82531920D02*
G75*
G02*
X134400000Y-82631920I0J-50000D01*
G01*
X134400000Y-82631920D02*
G75*
G02*
X134400000Y-82531920I0J50000D01*
G01*
%TO.C,P1*%
D12*
X162650000Y-120211920D02*
X164570000Y-120211920D01*
X164570000Y-111051920D02*
X162650000Y-111051920D01*
X166580000Y-111051920D02*
X168285000Y-111051920D01*
X168285000Y-111051920D02*
X168285000Y-120211920D01*
X168285000Y-120211920D02*
X166580000Y-120211920D01*
%TO.C,TP1*%
X153900000Y-85131920D02*
G75*
G02*
X152500000Y-85131920I-700000J0D01*
G01*
X152500000Y-85131920D02*
G75*
G02*
X153900000Y-85131920I700000J0D01*
G01*
%TO.C,R26*%
X145732379Y-72951920D02*
X146067621Y-72951920D01*
X145732379Y-73711920D02*
X146067621Y-73711920D01*
%TO.C,R24*%
X158240000Y-117216085D02*
X158240000Y-117447755D01*
X158960000Y-117216085D02*
X158960000Y-117447755D01*
%TO.C,C12*%
X161965835Y-98971920D02*
X161734165Y-98971920D01*
X161965835Y-99691920D02*
X161734165Y-99691920D01*
%TO.C,R22*%
X116915835Y-98671920D02*
X116684165Y-98671920D01*
X116915835Y-99391920D02*
X116684165Y-99391920D01*
%TO.C,C26*%
X140515835Y-73540000D02*
X140284165Y-73540000D01*
X140515835Y-74260000D02*
X140284165Y-74260000D01*
%TO.C,C9*%
X143515835Y-72171920D02*
X143284165Y-72171920D01*
X143515835Y-72891920D02*
X143284165Y-72891920D01*
%TO.C,C24*%
X148540000Y-114615835D02*
X148540000Y-114384165D01*
X149260000Y-114615835D02*
X149260000Y-114384165D01*
%TO.C,R30*%
X152617621Y-77951920D02*
X152282379Y-77951920D01*
X152617621Y-78711920D02*
X152282379Y-78711920D01*
%TD*%
M02*
