%TF.GenerationSoftware,KiCad,Pcbnew,10.0.1*%
%TF.CreationDate,2026-07-14T21:52:37+03:00*%
%TF.ProjectId,ads1299_test_board,61647331-3239-4395-9f74-6573745f626f,rev?*%
%TF.SameCoordinates,Original*%
%TF.FileFunction,Legend,Top*%
%TF.FilePolarity,Positive*%
%FSLAX46Y46*%
G04 Gerber Fmt 4.6, Leading zero omitted, Abs format (unit mm)*
G04 Created by KiCad (PCBNEW 10.0.1) date 2026-07-14 21:52:37*
%MOMM*%
%LPD*%
G01*
G04 APERTURE LIST*
%ADD10C,0.150000*%
%ADD11C,0.101600*%
%ADD12C,0.120000*%
%ADD13C,0.250000*%
%ADD14C,0.050000*%
%ADD15C,0.200000*%
G04 APERTURE END LIST*
D10*
X136086104Y-94014285D02*
X136124200Y-94052381D01*
X136124200Y-94052381D02*
X136162295Y-94166666D01*
X136162295Y-94166666D02*
X136162295Y-94242857D01*
X136162295Y-94242857D02*
X136124200Y-94357143D01*
X136124200Y-94357143D02*
X136048009Y-94433333D01*
X136048009Y-94433333D02*
X135971819Y-94471428D01*
X135971819Y-94471428D02*
X135819438Y-94509524D01*
X135819438Y-94509524D02*
X135705152Y-94509524D01*
X135705152Y-94509524D02*
X135552771Y-94471428D01*
X135552771Y-94471428D02*
X135476580Y-94433333D01*
X135476580Y-94433333D02*
X135400390Y-94357143D01*
X135400390Y-94357143D02*
X135362295Y-94242857D01*
X135362295Y-94242857D02*
X135362295Y-94166666D01*
X135362295Y-94166666D02*
X135400390Y-94052381D01*
X135400390Y-94052381D02*
X135438485Y-94014285D01*
X135438485Y-93709524D02*
X135400390Y-93671428D01*
X135400390Y-93671428D02*
X135362295Y-93595238D01*
X135362295Y-93595238D02*
X135362295Y-93404762D01*
X135362295Y-93404762D02*
X135400390Y-93328571D01*
X135400390Y-93328571D02*
X135438485Y-93290476D01*
X135438485Y-93290476D02*
X135514676Y-93252381D01*
X135514676Y-93252381D02*
X135590866Y-93252381D01*
X135590866Y-93252381D02*
X135705152Y-93290476D01*
X135705152Y-93290476D02*
X136162295Y-93747619D01*
X136162295Y-93747619D02*
X136162295Y-93252381D01*
X135705152Y-92795238D02*
X135667057Y-92871428D01*
X135667057Y-92871428D02*
X135628961Y-92909523D01*
X135628961Y-92909523D02*
X135552771Y-92947619D01*
X135552771Y-92947619D02*
X135514676Y-92947619D01*
X135514676Y-92947619D02*
X135438485Y-92909523D01*
X135438485Y-92909523D02*
X135400390Y-92871428D01*
X135400390Y-92871428D02*
X135362295Y-92795238D01*
X135362295Y-92795238D02*
X135362295Y-92642857D01*
X135362295Y-92642857D02*
X135400390Y-92566666D01*
X135400390Y-92566666D02*
X135438485Y-92528571D01*
X135438485Y-92528571D02*
X135514676Y-92490476D01*
X135514676Y-92490476D02*
X135552771Y-92490476D01*
X135552771Y-92490476D02*
X135628961Y-92528571D01*
X135628961Y-92528571D02*
X135667057Y-92566666D01*
X135667057Y-92566666D02*
X135705152Y-92642857D01*
X135705152Y-92642857D02*
X135705152Y-92795238D01*
X135705152Y-92795238D02*
X135743247Y-92871428D01*
X135743247Y-92871428D02*
X135781342Y-92909523D01*
X135781342Y-92909523D02*
X135857533Y-92947619D01*
X135857533Y-92947619D02*
X136009914Y-92947619D01*
X136009914Y-92947619D02*
X136086104Y-92909523D01*
X136086104Y-92909523D02*
X136124200Y-92871428D01*
X136124200Y-92871428D02*
X136162295Y-92795238D01*
X136162295Y-92795238D02*
X136162295Y-92642857D01*
X136162295Y-92642857D02*
X136124200Y-92566666D01*
X136124200Y-92566666D02*
X136086104Y-92528571D01*
X136086104Y-92528571D02*
X136009914Y-92490476D01*
X136009914Y-92490476D02*
X135857533Y-92490476D01*
X135857533Y-92490476D02*
X135781342Y-92528571D01*
X135781342Y-92528571D02*
X135743247Y-92566666D01*
X135743247Y-92566666D02*
X135705152Y-92642857D01*
X129538095Y-91854819D02*
X129538095Y-92664342D01*
X129538095Y-92664342D02*
X129585714Y-92759580D01*
X129585714Y-92759580D02*
X129633333Y-92807200D01*
X129633333Y-92807200D02*
X129728571Y-92854819D01*
X129728571Y-92854819D02*
X129919047Y-92854819D01*
X129919047Y-92854819D02*
X130014285Y-92807200D01*
X130014285Y-92807200D02*
X130061904Y-92759580D01*
X130061904Y-92759580D02*
X130109523Y-92664342D01*
X130109523Y-92664342D02*
X130109523Y-91854819D01*
X131014285Y-92188152D02*
X131014285Y-92854819D01*
X130776190Y-91807200D02*
X130538095Y-92521485D01*
X130538095Y-92521485D02*
X131157142Y-92521485D01*
D11*
X123285714Y-90182891D02*
X123019047Y-89801938D01*
X122828571Y-90182891D02*
X122828571Y-89382891D01*
X122828571Y-89382891D02*
X123133333Y-89382891D01*
X123133333Y-89382891D02*
X123209523Y-89420986D01*
X123209523Y-89420986D02*
X123247618Y-89459081D01*
X123247618Y-89459081D02*
X123285714Y-89535272D01*
X123285714Y-89535272D02*
X123285714Y-89649557D01*
X123285714Y-89649557D02*
X123247618Y-89725748D01*
X123247618Y-89725748D02*
X123209523Y-89763843D01*
X123209523Y-89763843D02*
X123133333Y-89801938D01*
X123133333Y-89801938D02*
X122828571Y-89801938D01*
X123552380Y-89382891D02*
X124047618Y-89382891D01*
X124047618Y-89382891D02*
X123780952Y-89687653D01*
X123780952Y-89687653D02*
X123895237Y-89687653D01*
X123895237Y-89687653D02*
X123971428Y-89725748D01*
X123971428Y-89725748D02*
X124009523Y-89763843D01*
X124009523Y-89763843D02*
X124047618Y-89840034D01*
X124047618Y-89840034D02*
X124047618Y-90030510D01*
X124047618Y-90030510D02*
X124009523Y-90106700D01*
X124009523Y-90106700D02*
X123971428Y-90144796D01*
X123971428Y-90144796D02*
X123895237Y-90182891D01*
X123895237Y-90182891D02*
X123666666Y-90182891D01*
X123666666Y-90182891D02*
X123590475Y-90144796D01*
X123590475Y-90144796D02*
X123552380Y-90106700D01*
X124809523Y-90182891D02*
X124352380Y-90182891D01*
X124580952Y-90182891D02*
X124580952Y-89382891D01*
X124580952Y-89382891D02*
X124504761Y-89497176D01*
X124504761Y-89497176D02*
X124428571Y-89573367D01*
X124428571Y-89573367D02*
X124352380Y-89611462D01*
D10*
X137085714Y-76286104D02*
X137047618Y-76324200D01*
X137047618Y-76324200D02*
X136933333Y-76362295D01*
X136933333Y-76362295D02*
X136857142Y-76362295D01*
X136857142Y-76362295D02*
X136742856Y-76324200D01*
X136742856Y-76324200D02*
X136666666Y-76248009D01*
X136666666Y-76248009D02*
X136628571Y-76171819D01*
X136628571Y-76171819D02*
X136590475Y-76019438D01*
X136590475Y-76019438D02*
X136590475Y-75905152D01*
X136590475Y-75905152D02*
X136628571Y-75752771D01*
X136628571Y-75752771D02*
X136666666Y-75676580D01*
X136666666Y-75676580D02*
X136742856Y-75600390D01*
X136742856Y-75600390D02*
X136857142Y-75562295D01*
X136857142Y-75562295D02*
X136933333Y-75562295D01*
X136933333Y-75562295D02*
X137047618Y-75600390D01*
X137047618Y-75600390D02*
X137085714Y-75638485D01*
X137390475Y-75638485D02*
X137428571Y-75600390D01*
X137428571Y-75600390D02*
X137504761Y-75562295D01*
X137504761Y-75562295D02*
X137695237Y-75562295D01*
X137695237Y-75562295D02*
X137771428Y-75600390D01*
X137771428Y-75600390D02*
X137809523Y-75638485D01*
X137809523Y-75638485D02*
X137847618Y-75714676D01*
X137847618Y-75714676D02*
X137847618Y-75790866D01*
X137847618Y-75790866D02*
X137809523Y-75905152D01*
X137809523Y-75905152D02*
X137352380Y-76362295D01*
X137352380Y-76362295D02*
X137847618Y-76362295D01*
X138533333Y-75562295D02*
X138380952Y-75562295D01*
X138380952Y-75562295D02*
X138304761Y-75600390D01*
X138304761Y-75600390D02*
X138266666Y-75638485D01*
X138266666Y-75638485D02*
X138190476Y-75752771D01*
X138190476Y-75752771D02*
X138152380Y-75905152D01*
X138152380Y-75905152D02*
X138152380Y-76209914D01*
X138152380Y-76209914D02*
X138190476Y-76286104D01*
X138190476Y-76286104D02*
X138228571Y-76324200D01*
X138228571Y-76324200D02*
X138304761Y-76362295D01*
X138304761Y-76362295D02*
X138457142Y-76362295D01*
X138457142Y-76362295D02*
X138533333Y-76324200D01*
X138533333Y-76324200D02*
X138571428Y-76286104D01*
X138571428Y-76286104D02*
X138609523Y-76209914D01*
X138609523Y-76209914D02*
X138609523Y-76019438D01*
X138609523Y-76019438D02*
X138571428Y-75943247D01*
X138571428Y-75943247D02*
X138533333Y-75905152D01*
X138533333Y-75905152D02*
X138457142Y-75867057D01*
X138457142Y-75867057D02*
X138304761Y-75867057D01*
X138304761Y-75867057D02*
X138228571Y-75905152D01*
X138228571Y-75905152D02*
X138190476Y-75943247D01*
X138190476Y-75943247D02*
X138152380Y-76019438D01*
X137085714Y-75362295D02*
X136819047Y-74981342D01*
X136628571Y-75362295D02*
X136628571Y-74562295D01*
X136628571Y-74562295D02*
X136933333Y-74562295D01*
X136933333Y-74562295D02*
X137009523Y-74600390D01*
X137009523Y-74600390D02*
X137047618Y-74638485D01*
X137047618Y-74638485D02*
X137085714Y-74714676D01*
X137085714Y-74714676D02*
X137085714Y-74828961D01*
X137085714Y-74828961D02*
X137047618Y-74905152D01*
X137047618Y-74905152D02*
X137009523Y-74943247D01*
X137009523Y-74943247D02*
X136933333Y-74981342D01*
X136933333Y-74981342D02*
X136628571Y-74981342D01*
X137390475Y-74638485D02*
X137428571Y-74600390D01*
X137428571Y-74600390D02*
X137504761Y-74562295D01*
X137504761Y-74562295D02*
X137695237Y-74562295D01*
X137695237Y-74562295D02*
X137771428Y-74600390D01*
X137771428Y-74600390D02*
X137809523Y-74638485D01*
X137809523Y-74638485D02*
X137847618Y-74714676D01*
X137847618Y-74714676D02*
X137847618Y-74790866D01*
X137847618Y-74790866D02*
X137809523Y-74905152D01*
X137809523Y-74905152D02*
X137352380Y-75362295D01*
X137352380Y-75362295D02*
X137847618Y-75362295D01*
X138571428Y-74562295D02*
X138190476Y-74562295D01*
X138190476Y-74562295D02*
X138152380Y-74943247D01*
X138152380Y-74943247D02*
X138190476Y-74905152D01*
X138190476Y-74905152D02*
X138266666Y-74867057D01*
X138266666Y-74867057D02*
X138457142Y-74867057D01*
X138457142Y-74867057D02*
X138533333Y-74905152D01*
X138533333Y-74905152D02*
X138571428Y-74943247D01*
X138571428Y-74943247D02*
X138609523Y-75019438D01*
X138609523Y-75019438D02*
X138609523Y-75209914D01*
X138609523Y-75209914D02*
X138571428Y-75286104D01*
X138571428Y-75286104D02*
X138533333Y-75324200D01*
X138533333Y-75324200D02*
X138457142Y-75362295D01*
X138457142Y-75362295D02*
X138266666Y-75362295D01*
X138266666Y-75362295D02*
X138190476Y-75324200D01*
X138190476Y-75324200D02*
X138152380Y-75286104D01*
X145845180Y-100270015D02*
X145035657Y-100270015D01*
X145035657Y-100270015D02*
X144940419Y-100317634D01*
X144940419Y-100317634D02*
X144892800Y-100365253D01*
X144892800Y-100365253D02*
X144845180Y-100460491D01*
X144845180Y-100460491D02*
X144845180Y-100650967D01*
X144845180Y-100650967D02*
X144892800Y-100746205D01*
X144892800Y-100746205D02*
X144940419Y-100793824D01*
X144940419Y-100793824D02*
X145035657Y-100841443D01*
X145035657Y-100841443D02*
X145845180Y-100841443D01*
X145845180Y-101222396D02*
X145845180Y-101841443D01*
X145845180Y-101841443D02*
X145464228Y-101508110D01*
X145464228Y-101508110D02*
X145464228Y-101650967D01*
X145464228Y-101650967D02*
X145416609Y-101746205D01*
X145416609Y-101746205D02*
X145368990Y-101793824D01*
X145368990Y-101793824D02*
X145273752Y-101841443D01*
X145273752Y-101841443D02*
X145035657Y-101841443D01*
X145035657Y-101841443D02*
X144940419Y-101793824D01*
X144940419Y-101793824D02*
X144892800Y-101746205D01*
X144892800Y-101746205D02*
X144845180Y-101650967D01*
X144845180Y-101650967D02*
X144845180Y-101365253D01*
X144845180Y-101365253D02*
X144892800Y-101270015D01*
X144892800Y-101270015D02*
X144940419Y-101222396D01*
X115696666Y-105414819D02*
X115696666Y-106129104D01*
X115696666Y-106129104D02*
X115649047Y-106271961D01*
X115649047Y-106271961D02*
X115553809Y-106367200D01*
X115553809Y-106367200D02*
X115410952Y-106414819D01*
X115410952Y-106414819D02*
X115315714Y-106414819D01*
X116125238Y-105510057D02*
X116172857Y-105462438D01*
X116172857Y-105462438D02*
X116268095Y-105414819D01*
X116268095Y-105414819D02*
X116506190Y-105414819D01*
X116506190Y-105414819D02*
X116601428Y-105462438D01*
X116601428Y-105462438D02*
X116649047Y-105510057D01*
X116649047Y-105510057D02*
X116696666Y-105605295D01*
X116696666Y-105605295D02*
X116696666Y-105700533D01*
X116696666Y-105700533D02*
X116649047Y-105843390D01*
X116649047Y-105843390D02*
X116077619Y-106414819D01*
X116077619Y-106414819D02*
X116696666Y-106414819D01*
D11*
X123285714Y-82114811D02*
X123019047Y-81733858D01*
X122828571Y-82114811D02*
X122828571Y-81314811D01*
X122828571Y-81314811D02*
X123133333Y-81314811D01*
X123133333Y-81314811D02*
X123209523Y-81352906D01*
X123209523Y-81352906D02*
X123247618Y-81391001D01*
X123247618Y-81391001D02*
X123285714Y-81467192D01*
X123285714Y-81467192D02*
X123285714Y-81581477D01*
X123285714Y-81581477D02*
X123247618Y-81657668D01*
X123247618Y-81657668D02*
X123209523Y-81695763D01*
X123209523Y-81695763D02*
X123133333Y-81733858D01*
X123133333Y-81733858D02*
X122828571Y-81733858D01*
X123552380Y-81314811D02*
X124047618Y-81314811D01*
X124047618Y-81314811D02*
X123780952Y-81619573D01*
X123780952Y-81619573D02*
X123895237Y-81619573D01*
X123895237Y-81619573D02*
X123971428Y-81657668D01*
X123971428Y-81657668D02*
X124009523Y-81695763D01*
X124009523Y-81695763D02*
X124047618Y-81771954D01*
X124047618Y-81771954D02*
X124047618Y-81962430D01*
X124047618Y-81962430D02*
X124009523Y-82038620D01*
X124009523Y-82038620D02*
X123971428Y-82076716D01*
X123971428Y-82076716D02*
X123895237Y-82114811D01*
X123895237Y-82114811D02*
X123666666Y-82114811D01*
X123666666Y-82114811D02*
X123590475Y-82076716D01*
X123590475Y-82076716D02*
X123552380Y-82038620D01*
X124314285Y-81314811D02*
X124809523Y-81314811D01*
X124809523Y-81314811D02*
X124542857Y-81619573D01*
X124542857Y-81619573D02*
X124657142Y-81619573D01*
X124657142Y-81619573D02*
X124733333Y-81657668D01*
X124733333Y-81657668D02*
X124771428Y-81695763D01*
X124771428Y-81695763D02*
X124809523Y-81771954D01*
X124809523Y-81771954D02*
X124809523Y-81962430D01*
X124809523Y-81962430D02*
X124771428Y-82038620D01*
X124771428Y-82038620D02*
X124733333Y-82076716D01*
X124733333Y-82076716D02*
X124657142Y-82114811D01*
X124657142Y-82114811D02*
X124428571Y-82114811D01*
X124428571Y-82114811D02*
X124352380Y-82076716D01*
X124352380Y-82076716D02*
X124314285Y-82038620D01*
X123285714Y-78168811D02*
X123019047Y-77787858D01*
X122828571Y-78168811D02*
X122828571Y-77368811D01*
X122828571Y-77368811D02*
X123133333Y-77368811D01*
X123133333Y-77368811D02*
X123209523Y-77406906D01*
X123209523Y-77406906D02*
X123247618Y-77445001D01*
X123247618Y-77445001D02*
X123285714Y-77521192D01*
X123285714Y-77521192D02*
X123285714Y-77635477D01*
X123285714Y-77635477D02*
X123247618Y-77711668D01*
X123247618Y-77711668D02*
X123209523Y-77749763D01*
X123209523Y-77749763D02*
X123133333Y-77787858D01*
X123133333Y-77787858D02*
X122828571Y-77787858D01*
X123552380Y-77368811D02*
X124047618Y-77368811D01*
X124047618Y-77368811D02*
X123780952Y-77673573D01*
X123780952Y-77673573D02*
X123895237Y-77673573D01*
X123895237Y-77673573D02*
X123971428Y-77711668D01*
X123971428Y-77711668D02*
X124009523Y-77749763D01*
X124009523Y-77749763D02*
X124047618Y-77825954D01*
X124047618Y-77825954D02*
X124047618Y-78016430D01*
X124047618Y-78016430D02*
X124009523Y-78092620D01*
X124009523Y-78092620D02*
X123971428Y-78130716D01*
X123971428Y-78130716D02*
X123895237Y-78168811D01*
X123895237Y-78168811D02*
X123666666Y-78168811D01*
X123666666Y-78168811D02*
X123590475Y-78130716D01*
X123590475Y-78130716D02*
X123552380Y-78092620D01*
X124352380Y-77445001D02*
X124390476Y-77406906D01*
X124390476Y-77406906D02*
X124466666Y-77368811D01*
X124466666Y-77368811D02*
X124657142Y-77368811D01*
X124657142Y-77368811D02*
X124733333Y-77406906D01*
X124733333Y-77406906D02*
X124771428Y-77445001D01*
X124771428Y-77445001D02*
X124809523Y-77521192D01*
X124809523Y-77521192D02*
X124809523Y-77597382D01*
X124809523Y-77597382D02*
X124771428Y-77711668D01*
X124771428Y-77711668D02*
X124314285Y-78168811D01*
X124314285Y-78168811D02*
X124809523Y-78168811D01*
D10*
X162954819Y-77708109D02*
X161954819Y-77708109D01*
X162859580Y-76660491D02*
X162907200Y-76708110D01*
X162907200Y-76708110D02*
X162954819Y-76850967D01*
X162954819Y-76850967D02*
X162954819Y-76946205D01*
X162954819Y-76946205D02*
X162907200Y-77089062D01*
X162907200Y-77089062D02*
X162811961Y-77184300D01*
X162811961Y-77184300D02*
X162716723Y-77231919D01*
X162716723Y-77231919D02*
X162526247Y-77279538D01*
X162526247Y-77279538D02*
X162383390Y-77279538D01*
X162383390Y-77279538D02*
X162192914Y-77231919D01*
X162192914Y-77231919D02*
X162097676Y-77184300D01*
X162097676Y-77184300D02*
X162002438Y-77089062D01*
X162002438Y-77089062D02*
X161954819Y-76946205D01*
X161954819Y-76946205D02*
X161954819Y-76850967D01*
X161954819Y-76850967D02*
X162002438Y-76708110D01*
X162002438Y-76708110D02*
X162050057Y-76660491D01*
X162050057Y-76279538D02*
X162002438Y-76231919D01*
X162002438Y-76231919D02*
X161954819Y-76136681D01*
X161954819Y-76136681D02*
X161954819Y-75898586D01*
X161954819Y-75898586D02*
X162002438Y-75803348D01*
X162002438Y-75803348D02*
X162050057Y-75755729D01*
X162050057Y-75755729D02*
X162145295Y-75708110D01*
X162145295Y-75708110D02*
X162240533Y-75708110D01*
X162240533Y-75708110D02*
X162383390Y-75755729D01*
X162383390Y-75755729D02*
X162954819Y-76327157D01*
X162954819Y-76327157D02*
X162954819Y-75708110D01*
X165358714Y-86146104D02*
X165320618Y-86184200D01*
X165320618Y-86184200D02*
X165206333Y-86222295D01*
X165206333Y-86222295D02*
X165130142Y-86222295D01*
X165130142Y-86222295D02*
X165015856Y-86184200D01*
X165015856Y-86184200D02*
X164939666Y-86108009D01*
X164939666Y-86108009D02*
X164901571Y-86031819D01*
X164901571Y-86031819D02*
X164863475Y-85879438D01*
X164863475Y-85879438D02*
X164863475Y-85765152D01*
X164863475Y-85765152D02*
X164901571Y-85612771D01*
X164901571Y-85612771D02*
X164939666Y-85536580D01*
X164939666Y-85536580D02*
X165015856Y-85460390D01*
X165015856Y-85460390D02*
X165130142Y-85422295D01*
X165130142Y-85422295D02*
X165206333Y-85422295D01*
X165206333Y-85422295D02*
X165320618Y-85460390D01*
X165320618Y-85460390D02*
X165358714Y-85498485D01*
X166120618Y-86222295D02*
X165663475Y-86222295D01*
X165892047Y-86222295D02*
X165892047Y-85422295D01*
X165892047Y-85422295D02*
X165815856Y-85536580D01*
X165815856Y-85536580D02*
X165739666Y-85612771D01*
X165739666Y-85612771D02*
X165663475Y-85650866D01*
X166577761Y-85765152D02*
X166501571Y-85727057D01*
X166501571Y-85727057D02*
X166463476Y-85688961D01*
X166463476Y-85688961D02*
X166425380Y-85612771D01*
X166425380Y-85612771D02*
X166425380Y-85574676D01*
X166425380Y-85574676D02*
X166463476Y-85498485D01*
X166463476Y-85498485D02*
X166501571Y-85460390D01*
X166501571Y-85460390D02*
X166577761Y-85422295D01*
X166577761Y-85422295D02*
X166730142Y-85422295D01*
X166730142Y-85422295D02*
X166806333Y-85460390D01*
X166806333Y-85460390D02*
X166844428Y-85498485D01*
X166844428Y-85498485D02*
X166882523Y-85574676D01*
X166882523Y-85574676D02*
X166882523Y-85612771D01*
X166882523Y-85612771D02*
X166844428Y-85688961D01*
X166844428Y-85688961D02*
X166806333Y-85727057D01*
X166806333Y-85727057D02*
X166730142Y-85765152D01*
X166730142Y-85765152D02*
X166577761Y-85765152D01*
X166577761Y-85765152D02*
X166501571Y-85803247D01*
X166501571Y-85803247D02*
X166463476Y-85841342D01*
X166463476Y-85841342D02*
X166425380Y-85917533D01*
X166425380Y-85917533D02*
X166425380Y-86069914D01*
X166425380Y-86069914D02*
X166463476Y-86146104D01*
X166463476Y-86146104D02*
X166501571Y-86184200D01*
X166501571Y-86184200D02*
X166577761Y-86222295D01*
X166577761Y-86222295D02*
X166730142Y-86222295D01*
X166730142Y-86222295D02*
X166806333Y-86184200D01*
X166806333Y-86184200D02*
X166844428Y-86146104D01*
X166844428Y-86146104D02*
X166882523Y-86069914D01*
X166882523Y-86069914D02*
X166882523Y-85917533D01*
X166882523Y-85917533D02*
X166844428Y-85841342D01*
X166844428Y-85841342D02*
X166806333Y-85803247D01*
X166806333Y-85803247D02*
X166730142Y-85765152D01*
X147988095Y-75486739D02*
X147988095Y-76296262D01*
X147988095Y-76296262D02*
X148035714Y-76391500D01*
X148035714Y-76391500D02*
X148083333Y-76439120D01*
X148083333Y-76439120D02*
X148178571Y-76486739D01*
X148178571Y-76486739D02*
X148369047Y-76486739D01*
X148369047Y-76486739D02*
X148464285Y-76439120D01*
X148464285Y-76439120D02*
X148511904Y-76391500D01*
X148511904Y-76391500D02*
X148559523Y-76296262D01*
X148559523Y-76296262D02*
X148559523Y-75486739D01*
X149559523Y-76486739D02*
X148988095Y-76486739D01*
X149273809Y-76486739D02*
X149273809Y-75486739D01*
X149273809Y-75486739D02*
X149178571Y-75629596D01*
X149178571Y-75629596D02*
X149083333Y-75724834D01*
X149083333Y-75724834D02*
X148988095Y-75772453D01*
X155985714Y-95944215D02*
X155719047Y-95563262D01*
X155528571Y-95944215D02*
X155528571Y-95144215D01*
X155528571Y-95144215D02*
X155833333Y-95144215D01*
X155833333Y-95144215D02*
X155909523Y-95182310D01*
X155909523Y-95182310D02*
X155947618Y-95220405D01*
X155947618Y-95220405D02*
X155985714Y-95296596D01*
X155985714Y-95296596D02*
X155985714Y-95410881D01*
X155985714Y-95410881D02*
X155947618Y-95487072D01*
X155947618Y-95487072D02*
X155909523Y-95525167D01*
X155909523Y-95525167D02*
X155833333Y-95563262D01*
X155833333Y-95563262D02*
X155528571Y-95563262D01*
X156747618Y-95944215D02*
X156290475Y-95944215D01*
X156519047Y-95944215D02*
X156519047Y-95144215D01*
X156519047Y-95144215D02*
X156442856Y-95258500D01*
X156442856Y-95258500D02*
X156366666Y-95334691D01*
X156366666Y-95334691D02*
X156290475Y-95372786D01*
X157471428Y-95144215D02*
X157090476Y-95144215D01*
X157090476Y-95144215D02*
X157052380Y-95525167D01*
X157052380Y-95525167D02*
X157090476Y-95487072D01*
X157090476Y-95487072D02*
X157166666Y-95448977D01*
X157166666Y-95448977D02*
X157357142Y-95448977D01*
X157357142Y-95448977D02*
X157433333Y-95487072D01*
X157433333Y-95487072D02*
X157471428Y-95525167D01*
X157471428Y-95525167D02*
X157509523Y-95601358D01*
X157509523Y-95601358D02*
X157509523Y-95791834D01*
X157509523Y-95791834D02*
X157471428Y-95868024D01*
X157471428Y-95868024D02*
X157433333Y-95906120D01*
X157433333Y-95906120D02*
X157357142Y-95944215D01*
X157357142Y-95944215D02*
X157166666Y-95944215D01*
X157166666Y-95944215D02*
X157090476Y-95906120D01*
X157090476Y-95906120D02*
X157052380Y-95868024D01*
X166429142Y-115788319D02*
X166095809Y-115312128D01*
X165857714Y-115788319D02*
X165857714Y-114788319D01*
X165857714Y-114788319D02*
X166238666Y-114788319D01*
X166238666Y-114788319D02*
X166333904Y-114835938D01*
X166333904Y-114835938D02*
X166381523Y-114883557D01*
X166381523Y-114883557D02*
X166429142Y-114978795D01*
X166429142Y-114978795D02*
X166429142Y-115121652D01*
X166429142Y-115121652D02*
X166381523Y-115216890D01*
X166381523Y-115216890D02*
X166333904Y-115264509D01*
X166333904Y-115264509D02*
X166238666Y-115312128D01*
X166238666Y-115312128D02*
X165857714Y-115312128D01*
X167381523Y-115788319D02*
X166810095Y-115788319D01*
X167095809Y-115788319D02*
X167095809Y-114788319D01*
X167095809Y-114788319D02*
X167000571Y-114931176D01*
X167000571Y-114931176D02*
X166905333Y-115026414D01*
X166905333Y-115026414D02*
X166810095Y-115074033D01*
X167714857Y-114788319D02*
X168333904Y-114788319D01*
X168333904Y-114788319D02*
X168000571Y-115169271D01*
X168000571Y-115169271D02*
X168143428Y-115169271D01*
X168143428Y-115169271D02*
X168238666Y-115216890D01*
X168238666Y-115216890D02*
X168286285Y-115264509D01*
X168286285Y-115264509D02*
X168333904Y-115359747D01*
X168333904Y-115359747D02*
X168333904Y-115597842D01*
X168333904Y-115597842D02*
X168286285Y-115693080D01*
X168286285Y-115693080D02*
X168238666Y-115740700D01*
X168238666Y-115740700D02*
X168143428Y-115788319D01*
X168143428Y-115788319D02*
X167857714Y-115788319D01*
X167857714Y-115788319D02*
X167762476Y-115740700D01*
X167762476Y-115740700D02*
X167714857Y-115693080D01*
X146936104Y-93265252D02*
X146974200Y-93303348D01*
X146974200Y-93303348D02*
X147012295Y-93417633D01*
X147012295Y-93417633D02*
X147012295Y-93493824D01*
X147012295Y-93493824D02*
X146974200Y-93608110D01*
X146974200Y-93608110D02*
X146898009Y-93684300D01*
X146898009Y-93684300D02*
X146821819Y-93722395D01*
X146821819Y-93722395D02*
X146669438Y-93760491D01*
X146669438Y-93760491D02*
X146555152Y-93760491D01*
X146555152Y-93760491D02*
X146402771Y-93722395D01*
X146402771Y-93722395D02*
X146326580Y-93684300D01*
X146326580Y-93684300D02*
X146250390Y-93608110D01*
X146250390Y-93608110D02*
X146212295Y-93493824D01*
X146212295Y-93493824D02*
X146212295Y-93417633D01*
X146212295Y-93417633D02*
X146250390Y-93303348D01*
X146250390Y-93303348D02*
X146288485Y-93265252D01*
X146212295Y-92998586D02*
X146212295Y-92465252D01*
X146212295Y-92465252D02*
X147012295Y-92808110D01*
X167692261Y-97981977D02*
X167597023Y-97934358D01*
X167597023Y-97934358D02*
X167501785Y-97839120D01*
X167501785Y-97839120D02*
X167358928Y-97696262D01*
X167358928Y-97696262D02*
X167263690Y-97648643D01*
X167263690Y-97648643D02*
X167168452Y-97648643D01*
X167216071Y-97886739D02*
X167120833Y-97839120D01*
X167120833Y-97839120D02*
X167025595Y-97743881D01*
X167025595Y-97743881D02*
X166977976Y-97553405D01*
X166977976Y-97553405D02*
X166977976Y-97220072D01*
X166977976Y-97220072D02*
X167025595Y-97029596D01*
X167025595Y-97029596D02*
X167120833Y-96934358D01*
X167120833Y-96934358D02*
X167216071Y-96886739D01*
X167216071Y-96886739D02*
X167406547Y-96886739D01*
X167406547Y-96886739D02*
X167501785Y-96934358D01*
X167501785Y-96934358D02*
X167597023Y-97029596D01*
X167597023Y-97029596D02*
X167644642Y-97220072D01*
X167644642Y-97220072D02*
X167644642Y-97553405D01*
X167644642Y-97553405D02*
X167597023Y-97743881D01*
X167597023Y-97743881D02*
X167501785Y-97839120D01*
X167501785Y-97839120D02*
X167406547Y-97886739D01*
X167406547Y-97886739D02*
X167216071Y-97886739D01*
X168597023Y-97886739D02*
X168025595Y-97886739D01*
X168311309Y-97886739D02*
X168311309Y-96886739D01*
X168311309Y-96886739D02*
X168216071Y-97029596D01*
X168216071Y-97029596D02*
X168120833Y-97124834D01*
X168120833Y-97124834D02*
X168025595Y-97172453D01*
X156954819Y-84293824D02*
X157764342Y-84293824D01*
X157764342Y-84293824D02*
X157859580Y-84246205D01*
X157859580Y-84246205D02*
X157907200Y-84198586D01*
X157907200Y-84198586D02*
X157954819Y-84103348D01*
X157954819Y-84103348D02*
X157954819Y-83912872D01*
X157954819Y-83912872D02*
X157907200Y-83817634D01*
X157907200Y-83817634D02*
X157859580Y-83770015D01*
X157859580Y-83770015D02*
X157764342Y-83722396D01*
X157764342Y-83722396D02*
X156954819Y-83722396D01*
X156954819Y-82817634D02*
X156954819Y-83008110D01*
X156954819Y-83008110D02*
X157002438Y-83103348D01*
X157002438Y-83103348D02*
X157050057Y-83150967D01*
X157050057Y-83150967D02*
X157192914Y-83246205D01*
X157192914Y-83246205D02*
X157383390Y-83293824D01*
X157383390Y-83293824D02*
X157764342Y-83293824D01*
X157764342Y-83293824D02*
X157859580Y-83246205D01*
X157859580Y-83246205D02*
X157907200Y-83198586D01*
X157907200Y-83198586D02*
X157954819Y-83103348D01*
X157954819Y-83103348D02*
X157954819Y-82912872D01*
X157954819Y-82912872D02*
X157907200Y-82817634D01*
X157907200Y-82817634D02*
X157859580Y-82770015D01*
X157859580Y-82770015D02*
X157764342Y-82722396D01*
X157764342Y-82722396D02*
X157526247Y-82722396D01*
X157526247Y-82722396D02*
X157431009Y-82770015D01*
X157431009Y-82770015D02*
X157383390Y-82817634D01*
X157383390Y-82817634D02*
X157335771Y-82912872D01*
X157335771Y-82912872D02*
X157335771Y-83103348D01*
X157335771Y-83103348D02*
X157383390Y-83198586D01*
X157383390Y-83198586D02*
X157431009Y-83246205D01*
X157431009Y-83246205D02*
X157526247Y-83293824D01*
X156089795Y-100989895D02*
X155289795Y-100989895D01*
X155289795Y-100989895D02*
X155289795Y-100799419D01*
X155289795Y-100799419D02*
X155327890Y-100685133D01*
X155327890Y-100685133D02*
X155404080Y-100608943D01*
X155404080Y-100608943D02*
X155480271Y-100570848D01*
X155480271Y-100570848D02*
X155632652Y-100532752D01*
X155632652Y-100532752D02*
X155746938Y-100532752D01*
X155746938Y-100532752D02*
X155899319Y-100570848D01*
X155899319Y-100570848D02*
X155975509Y-100608943D01*
X155975509Y-100608943D02*
X156051700Y-100685133D01*
X156051700Y-100685133D02*
X156089795Y-100799419D01*
X156089795Y-100799419D02*
X156089795Y-100989895D01*
X156089795Y-99770848D02*
X156089795Y-100227991D01*
X156089795Y-99999419D02*
X155289795Y-99999419D01*
X155289795Y-99999419D02*
X155404080Y-100075610D01*
X155404080Y-100075610D02*
X155480271Y-100151800D01*
X155480271Y-100151800D02*
X155518366Y-100227991D01*
X156934747Y-114979200D02*
X157077604Y-115026819D01*
X157077604Y-115026819D02*
X157315699Y-115026819D01*
X157315699Y-115026819D02*
X157410937Y-114979200D01*
X157410937Y-114979200D02*
X157458556Y-114931580D01*
X157458556Y-114931580D02*
X157506175Y-114836342D01*
X157506175Y-114836342D02*
X157506175Y-114741104D01*
X157506175Y-114741104D02*
X157458556Y-114645866D01*
X157458556Y-114645866D02*
X157410937Y-114598247D01*
X157410937Y-114598247D02*
X157315699Y-114550628D01*
X157315699Y-114550628D02*
X157125223Y-114503009D01*
X157125223Y-114503009D02*
X157029985Y-114455390D01*
X157029985Y-114455390D02*
X156982366Y-114407771D01*
X156982366Y-114407771D02*
X156934747Y-114312533D01*
X156934747Y-114312533D02*
X156934747Y-114217295D01*
X156934747Y-114217295D02*
X156982366Y-114122057D01*
X156982366Y-114122057D02*
X157029985Y-114074438D01*
X157029985Y-114074438D02*
X157125223Y-114026819D01*
X157125223Y-114026819D02*
X157363318Y-114026819D01*
X157363318Y-114026819D02*
X157506175Y-114074438D01*
X157839509Y-114026819D02*
X158077604Y-115026819D01*
X158077604Y-115026819D02*
X158268080Y-114312533D01*
X158268080Y-114312533D02*
X158458556Y-115026819D01*
X158458556Y-115026819D02*
X158696652Y-114026819D01*
X159601413Y-115026819D02*
X159029985Y-115026819D01*
X159315699Y-115026819D02*
X159315699Y-114026819D01*
X159315699Y-114026819D02*
X159220461Y-114169676D01*
X159220461Y-114169676D02*
X159125223Y-114264914D01*
X159125223Y-114264914D02*
X159029985Y-114312533D01*
X154583214Y-82114215D02*
X154316547Y-81733262D01*
X154126071Y-82114215D02*
X154126071Y-81314215D01*
X154126071Y-81314215D02*
X154430833Y-81314215D01*
X154430833Y-81314215D02*
X154507023Y-81352310D01*
X154507023Y-81352310D02*
X154545118Y-81390405D01*
X154545118Y-81390405D02*
X154583214Y-81466596D01*
X154583214Y-81466596D02*
X154583214Y-81580881D01*
X154583214Y-81580881D02*
X154545118Y-81657072D01*
X154545118Y-81657072D02*
X154507023Y-81695167D01*
X154507023Y-81695167D02*
X154430833Y-81733262D01*
X154430833Y-81733262D02*
X154126071Y-81733262D01*
X154887975Y-81390405D02*
X154926071Y-81352310D01*
X154926071Y-81352310D02*
X155002261Y-81314215D01*
X155002261Y-81314215D02*
X155192737Y-81314215D01*
X155192737Y-81314215D02*
X155268928Y-81352310D01*
X155268928Y-81352310D02*
X155307023Y-81390405D01*
X155307023Y-81390405D02*
X155345118Y-81466596D01*
X155345118Y-81466596D02*
X155345118Y-81542786D01*
X155345118Y-81542786D02*
X155307023Y-81657072D01*
X155307023Y-81657072D02*
X154849880Y-82114215D01*
X154849880Y-82114215D02*
X155345118Y-82114215D01*
X155611785Y-81314215D02*
X156145119Y-81314215D01*
X156145119Y-81314215D02*
X155802261Y-82114215D01*
X142966667Y-74986104D02*
X142928571Y-75024200D01*
X142928571Y-75024200D02*
X142814286Y-75062295D01*
X142814286Y-75062295D02*
X142738095Y-75062295D01*
X142738095Y-75062295D02*
X142623809Y-75024200D01*
X142623809Y-75024200D02*
X142547619Y-74948009D01*
X142547619Y-74948009D02*
X142509524Y-74871819D01*
X142509524Y-74871819D02*
X142471428Y-74719438D01*
X142471428Y-74719438D02*
X142471428Y-74605152D01*
X142471428Y-74605152D02*
X142509524Y-74452771D01*
X142509524Y-74452771D02*
X142547619Y-74376580D01*
X142547619Y-74376580D02*
X142623809Y-74300390D01*
X142623809Y-74300390D02*
X142738095Y-74262295D01*
X142738095Y-74262295D02*
X142814286Y-74262295D01*
X142814286Y-74262295D02*
X142928571Y-74300390D01*
X142928571Y-74300390D02*
X142966667Y-74338485D01*
X143423809Y-74605152D02*
X143347619Y-74567057D01*
X143347619Y-74567057D02*
X143309524Y-74528961D01*
X143309524Y-74528961D02*
X143271428Y-74452771D01*
X143271428Y-74452771D02*
X143271428Y-74414676D01*
X143271428Y-74414676D02*
X143309524Y-74338485D01*
X143309524Y-74338485D02*
X143347619Y-74300390D01*
X143347619Y-74300390D02*
X143423809Y-74262295D01*
X143423809Y-74262295D02*
X143576190Y-74262295D01*
X143576190Y-74262295D02*
X143652381Y-74300390D01*
X143652381Y-74300390D02*
X143690476Y-74338485D01*
X143690476Y-74338485D02*
X143728571Y-74414676D01*
X143728571Y-74414676D02*
X143728571Y-74452771D01*
X143728571Y-74452771D02*
X143690476Y-74528961D01*
X143690476Y-74528961D02*
X143652381Y-74567057D01*
X143652381Y-74567057D02*
X143576190Y-74605152D01*
X143576190Y-74605152D02*
X143423809Y-74605152D01*
X143423809Y-74605152D02*
X143347619Y-74643247D01*
X143347619Y-74643247D02*
X143309524Y-74681342D01*
X143309524Y-74681342D02*
X143271428Y-74757533D01*
X143271428Y-74757533D02*
X143271428Y-74909914D01*
X143271428Y-74909914D02*
X143309524Y-74986104D01*
X143309524Y-74986104D02*
X143347619Y-75024200D01*
X143347619Y-75024200D02*
X143423809Y-75062295D01*
X143423809Y-75062295D02*
X143576190Y-75062295D01*
X143576190Y-75062295D02*
X143652381Y-75024200D01*
X143652381Y-75024200D02*
X143690476Y-74986104D01*
X143690476Y-74986104D02*
X143728571Y-74909914D01*
X143728571Y-74909914D02*
X143728571Y-74757533D01*
X143728571Y-74757533D02*
X143690476Y-74681342D01*
X143690476Y-74681342D02*
X143652381Y-74643247D01*
X143652381Y-74643247D02*
X143576190Y-74605152D01*
X161880336Y-94096205D02*
X161918432Y-94134301D01*
X161918432Y-94134301D02*
X161956527Y-94248586D01*
X161956527Y-94248586D02*
X161956527Y-94324777D01*
X161956527Y-94324777D02*
X161918432Y-94439063D01*
X161918432Y-94439063D02*
X161842241Y-94515253D01*
X161842241Y-94515253D02*
X161766051Y-94553348D01*
X161766051Y-94553348D02*
X161613670Y-94591444D01*
X161613670Y-94591444D02*
X161499384Y-94591444D01*
X161499384Y-94591444D02*
X161347003Y-94553348D01*
X161347003Y-94553348D02*
X161270812Y-94515253D01*
X161270812Y-94515253D02*
X161194622Y-94439063D01*
X161194622Y-94439063D02*
X161156527Y-94324777D01*
X161156527Y-94324777D02*
X161156527Y-94248586D01*
X161156527Y-94248586D02*
X161194622Y-94134301D01*
X161194622Y-94134301D02*
X161232717Y-94096205D01*
X161956527Y-93334301D02*
X161956527Y-93791444D01*
X161956527Y-93562872D02*
X161156527Y-93562872D01*
X161156527Y-93562872D02*
X161270812Y-93639063D01*
X161270812Y-93639063D02*
X161347003Y-93715253D01*
X161347003Y-93715253D02*
X161385098Y-93791444D01*
X161156527Y-92648586D02*
X161156527Y-92800967D01*
X161156527Y-92800967D02*
X161194622Y-92877158D01*
X161194622Y-92877158D02*
X161232717Y-92915253D01*
X161232717Y-92915253D02*
X161347003Y-92991443D01*
X161347003Y-92991443D02*
X161499384Y-93029539D01*
X161499384Y-93029539D02*
X161804146Y-93029539D01*
X161804146Y-93029539D02*
X161880336Y-92991443D01*
X161880336Y-92991443D02*
X161918432Y-92953348D01*
X161918432Y-92953348D02*
X161956527Y-92877158D01*
X161956527Y-92877158D02*
X161956527Y-92724777D01*
X161956527Y-92724777D02*
X161918432Y-92648586D01*
X161918432Y-92648586D02*
X161880336Y-92610491D01*
X161880336Y-92610491D02*
X161804146Y-92572396D01*
X161804146Y-92572396D02*
X161613670Y-92572396D01*
X161613670Y-92572396D02*
X161537479Y-92610491D01*
X161537479Y-92610491D02*
X161499384Y-92648586D01*
X161499384Y-92648586D02*
X161461289Y-92724777D01*
X161461289Y-92724777D02*
X161461289Y-92877158D01*
X161461289Y-92877158D02*
X161499384Y-92953348D01*
X161499384Y-92953348D02*
X161537479Y-92991443D01*
X161537479Y-92991443D02*
X161613670Y-93029539D01*
X156003214Y-92118024D02*
X155965118Y-92156120D01*
X155965118Y-92156120D02*
X155850833Y-92194215D01*
X155850833Y-92194215D02*
X155774642Y-92194215D01*
X155774642Y-92194215D02*
X155660356Y-92156120D01*
X155660356Y-92156120D02*
X155584166Y-92079929D01*
X155584166Y-92079929D02*
X155546071Y-92003739D01*
X155546071Y-92003739D02*
X155507975Y-91851358D01*
X155507975Y-91851358D02*
X155507975Y-91737072D01*
X155507975Y-91737072D02*
X155546071Y-91584691D01*
X155546071Y-91584691D02*
X155584166Y-91508500D01*
X155584166Y-91508500D02*
X155660356Y-91432310D01*
X155660356Y-91432310D02*
X155774642Y-91394215D01*
X155774642Y-91394215D02*
X155850833Y-91394215D01*
X155850833Y-91394215D02*
X155965118Y-91432310D01*
X155965118Y-91432310D02*
X156003214Y-91470405D01*
X156765118Y-92194215D02*
X156307975Y-92194215D01*
X156536547Y-92194215D02*
X156536547Y-91394215D01*
X156536547Y-91394215D02*
X156460356Y-91508500D01*
X156460356Y-91508500D02*
X156384166Y-91584691D01*
X156384166Y-91584691D02*
X156307975Y-91622786D01*
X157488928Y-91394215D02*
X157107976Y-91394215D01*
X157107976Y-91394215D02*
X157069880Y-91775167D01*
X157069880Y-91775167D02*
X157107976Y-91737072D01*
X157107976Y-91737072D02*
X157184166Y-91698977D01*
X157184166Y-91698977D02*
X157374642Y-91698977D01*
X157374642Y-91698977D02*
X157450833Y-91737072D01*
X157450833Y-91737072D02*
X157488928Y-91775167D01*
X157488928Y-91775167D02*
X157527023Y-91851358D01*
X157527023Y-91851358D02*
X157527023Y-92041834D01*
X157527023Y-92041834D02*
X157488928Y-92118024D01*
X157488928Y-92118024D02*
X157450833Y-92156120D01*
X157450833Y-92156120D02*
X157374642Y-92194215D01*
X157374642Y-92194215D02*
X157184166Y-92194215D01*
X157184166Y-92194215D02*
X157107976Y-92156120D01*
X157107976Y-92156120D02*
X157069880Y-92118024D01*
X140506514Y-71888695D02*
X140239847Y-71507742D01*
X140049371Y-71888695D02*
X140049371Y-71088695D01*
X140049371Y-71088695D02*
X140354133Y-71088695D01*
X140354133Y-71088695D02*
X140430323Y-71126790D01*
X140430323Y-71126790D02*
X140468418Y-71164885D01*
X140468418Y-71164885D02*
X140506514Y-71241076D01*
X140506514Y-71241076D02*
X140506514Y-71355361D01*
X140506514Y-71355361D02*
X140468418Y-71431552D01*
X140468418Y-71431552D02*
X140430323Y-71469647D01*
X140430323Y-71469647D02*
X140354133Y-71507742D01*
X140354133Y-71507742D02*
X140049371Y-71507742D01*
X141268418Y-71888695D02*
X140811275Y-71888695D01*
X141039847Y-71888695D02*
X141039847Y-71088695D01*
X141039847Y-71088695D02*
X140963656Y-71202980D01*
X140963656Y-71202980D02*
X140887466Y-71279171D01*
X140887466Y-71279171D02*
X140811275Y-71317266D01*
X141649371Y-71888695D02*
X141801752Y-71888695D01*
X141801752Y-71888695D02*
X141877942Y-71850600D01*
X141877942Y-71850600D02*
X141916038Y-71812504D01*
X141916038Y-71812504D02*
X141992228Y-71698219D01*
X141992228Y-71698219D02*
X142030323Y-71545838D01*
X142030323Y-71545838D02*
X142030323Y-71241076D01*
X142030323Y-71241076D02*
X141992228Y-71164885D01*
X141992228Y-71164885D02*
X141954133Y-71126790D01*
X141954133Y-71126790D02*
X141877942Y-71088695D01*
X141877942Y-71088695D02*
X141725561Y-71088695D01*
X141725561Y-71088695D02*
X141649371Y-71126790D01*
X141649371Y-71126790D02*
X141611276Y-71164885D01*
X141611276Y-71164885D02*
X141573180Y-71241076D01*
X141573180Y-71241076D02*
X141573180Y-71431552D01*
X141573180Y-71431552D02*
X141611276Y-71507742D01*
X141611276Y-71507742D02*
X141649371Y-71545838D01*
X141649371Y-71545838D02*
X141725561Y-71583933D01*
X141725561Y-71583933D02*
X141877942Y-71583933D01*
X141877942Y-71583933D02*
X141954133Y-71545838D01*
X141954133Y-71545838D02*
X141992228Y-71507742D01*
X141992228Y-71507742D02*
X142030323Y-71431552D01*
D11*
X123285714Y-86198811D02*
X123019047Y-85817858D01*
X122828571Y-86198811D02*
X122828571Y-85398811D01*
X122828571Y-85398811D02*
X123133333Y-85398811D01*
X123133333Y-85398811D02*
X123209523Y-85436906D01*
X123209523Y-85436906D02*
X123247618Y-85475001D01*
X123247618Y-85475001D02*
X123285714Y-85551192D01*
X123285714Y-85551192D02*
X123285714Y-85665477D01*
X123285714Y-85665477D02*
X123247618Y-85741668D01*
X123247618Y-85741668D02*
X123209523Y-85779763D01*
X123209523Y-85779763D02*
X123133333Y-85817858D01*
X123133333Y-85817858D02*
X122828571Y-85817858D01*
X123590475Y-85475001D02*
X123628571Y-85436906D01*
X123628571Y-85436906D02*
X123704761Y-85398811D01*
X123704761Y-85398811D02*
X123895237Y-85398811D01*
X123895237Y-85398811D02*
X123971428Y-85436906D01*
X123971428Y-85436906D02*
X124009523Y-85475001D01*
X124009523Y-85475001D02*
X124047618Y-85551192D01*
X124047618Y-85551192D02*
X124047618Y-85627382D01*
X124047618Y-85627382D02*
X124009523Y-85741668D01*
X124009523Y-85741668D02*
X123552380Y-86198811D01*
X123552380Y-86198811D02*
X124047618Y-86198811D01*
X124314285Y-85398811D02*
X124809523Y-85398811D01*
X124809523Y-85398811D02*
X124542857Y-85703573D01*
X124542857Y-85703573D02*
X124657142Y-85703573D01*
X124657142Y-85703573D02*
X124733333Y-85741668D01*
X124733333Y-85741668D02*
X124771428Y-85779763D01*
X124771428Y-85779763D02*
X124809523Y-85855954D01*
X124809523Y-85855954D02*
X124809523Y-86046430D01*
X124809523Y-86046430D02*
X124771428Y-86122620D01*
X124771428Y-86122620D02*
X124733333Y-86160716D01*
X124733333Y-86160716D02*
X124657142Y-86198811D01*
X124657142Y-86198811D02*
X124428571Y-86198811D01*
X124428571Y-86198811D02*
X124352380Y-86160716D01*
X124352380Y-86160716D02*
X124314285Y-86122620D01*
D10*
X165321214Y-88346104D02*
X165283118Y-88384200D01*
X165283118Y-88384200D02*
X165168833Y-88422295D01*
X165168833Y-88422295D02*
X165092642Y-88422295D01*
X165092642Y-88422295D02*
X164978356Y-88384200D01*
X164978356Y-88384200D02*
X164902166Y-88308009D01*
X164902166Y-88308009D02*
X164864071Y-88231819D01*
X164864071Y-88231819D02*
X164825975Y-88079438D01*
X164825975Y-88079438D02*
X164825975Y-87965152D01*
X164825975Y-87965152D02*
X164864071Y-87812771D01*
X164864071Y-87812771D02*
X164902166Y-87736580D01*
X164902166Y-87736580D02*
X164978356Y-87660390D01*
X164978356Y-87660390D02*
X165092642Y-87622295D01*
X165092642Y-87622295D02*
X165168833Y-87622295D01*
X165168833Y-87622295D02*
X165283118Y-87660390D01*
X165283118Y-87660390D02*
X165321214Y-87698485D01*
X166083118Y-88422295D02*
X165625975Y-88422295D01*
X165854547Y-88422295D02*
X165854547Y-87622295D01*
X165854547Y-87622295D02*
X165778356Y-87736580D01*
X165778356Y-87736580D02*
X165702166Y-87812771D01*
X165702166Y-87812771D02*
X165625975Y-87850866D01*
X166349785Y-87622295D02*
X166883119Y-87622295D01*
X166883119Y-87622295D02*
X166540261Y-88422295D01*
X165403756Y-104544215D02*
X165403756Y-103744215D01*
X165403756Y-103744215D02*
X165594232Y-103744215D01*
X165594232Y-103744215D02*
X165708518Y-103782310D01*
X165708518Y-103782310D02*
X165784708Y-103858500D01*
X165784708Y-103858500D02*
X165822803Y-103934691D01*
X165822803Y-103934691D02*
X165860899Y-104087072D01*
X165860899Y-104087072D02*
X165860899Y-104201358D01*
X165860899Y-104201358D02*
X165822803Y-104353739D01*
X165822803Y-104353739D02*
X165784708Y-104429929D01*
X165784708Y-104429929D02*
X165708518Y-104506120D01*
X165708518Y-104506120D02*
X165594232Y-104544215D01*
X165594232Y-104544215D02*
X165403756Y-104544215D01*
X166165660Y-103820405D02*
X166203756Y-103782310D01*
X166203756Y-103782310D02*
X166279946Y-103744215D01*
X166279946Y-103744215D02*
X166470422Y-103744215D01*
X166470422Y-103744215D02*
X166546613Y-103782310D01*
X166546613Y-103782310D02*
X166584708Y-103820405D01*
X166584708Y-103820405D02*
X166622803Y-103896596D01*
X166622803Y-103896596D02*
X166622803Y-103972786D01*
X166622803Y-103972786D02*
X166584708Y-104087072D01*
X166584708Y-104087072D02*
X166127565Y-104544215D01*
X166127565Y-104544215D02*
X166622803Y-104544215D01*
X160962095Y-119378819D02*
X160962095Y-120188342D01*
X160962095Y-120188342D02*
X161009714Y-120283580D01*
X161009714Y-120283580D02*
X161057333Y-120331200D01*
X161057333Y-120331200D02*
X161152571Y-120378819D01*
X161152571Y-120378819D02*
X161343047Y-120378819D01*
X161343047Y-120378819D02*
X161438285Y-120331200D01*
X161438285Y-120331200D02*
X161485904Y-120283580D01*
X161485904Y-120283580D02*
X161533523Y-120188342D01*
X161533523Y-120188342D02*
X161533523Y-119378819D01*
X161914476Y-119378819D02*
X162581142Y-119378819D01*
X162581142Y-119378819D02*
X162152571Y-120378819D01*
X154633214Y-80704215D02*
X154366547Y-80323262D01*
X154176071Y-80704215D02*
X154176071Y-79904215D01*
X154176071Y-79904215D02*
X154480833Y-79904215D01*
X154480833Y-79904215D02*
X154557023Y-79942310D01*
X154557023Y-79942310D02*
X154595118Y-79980405D01*
X154595118Y-79980405D02*
X154633214Y-80056596D01*
X154633214Y-80056596D02*
X154633214Y-80170881D01*
X154633214Y-80170881D02*
X154595118Y-80247072D01*
X154595118Y-80247072D02*
X154557023Y-80285167D01*
X154557023Y-80285167D02*
X154480833Y-80323262D01*
X154480833Y-80323262D02*
X154176071Y-80323262D01*
X154937975Y-79980405D02*
X154976071Y-79942310D01*
X154976071Y-79942310D02*
X155052261Y-79904215D01*
X155052261Y-79904215D02*
X155242737Y-79904215D01*
X155242737Y-79904215D02*
X155318928Y-79942310D01*
X155318928Y-79942310D02*
X155357023Y-79980405D01*
X155357023Y-79980405D02*
X155395118Y-80056596D01*
X155395118Y-80056596D02*
X155395118Y-80132786D01*
X155395118Y-80132786D02*
X155357023Y-80247072D01*
X155357023Y-80247072D02*
X154899880Y-80704215D01*
X154899880Y-80704215D02*
X155395118Y-80704215D01*
X155852261Y-80247072D02*
X155776071Y-80208977D01*
X155776071Y-80208977D02*
X155737976Y-80170881D01*
X155737976Y-80170881D02*
X155699880Y-80094691D01*
X155699880Y-80094691D02*
X155699880Y-80056596D01*
X155699880Y-80056596D02*
X155737976Y-79980405D01*
X155737976Y-79980405D02*
X155776071Y-79942310D01*
X155776071Y-79942310D02*
X155852261Y-79904215D01*
X155852261Y-79904215D02*
X156004642Y-79904215D01*
X156004642Y-79904215D02*
X156080833Y-79942310D01*
X156080833Y-79942310D02*
X156118928Y-79980405D01*
X156118928Y-79980405D02*
X156157023Y-80056596D01*
X156157023Y-80056596D02*
X156157023Y-80094691D01*
X156157023Y-80094691D02*
X156118928Y-80170881D01*
X156118928Y-80170881D02*
X156080833Y-80208977D01*
X156080833Y-80208977D02*
X156004642Y-80247072D01*
X156004642Y-80247072D02*
X155852261Y-80247072D01*
X155852261Y-80247072D02*
X155776071Y-80285167D01*
X155776071Y-80285167D02*
X155737976Y-80323262D01*
X155737976Y-80323262D02*
X155699880Y-80399453D01*
X155699880Y-80399453D02*
X155699880Y-80551834D01*
X155699880Y-80551834D02*
X155737976Y-80628024D01*
X155737976Y-80628024D02*
X155776071Y-80666120D01*
X155776071Y-80666120D02*
X155852261Y-80704215D01*
X155852261Y-80704215D02*
X156004642Y-80704215D01*
X156004642Y-80704215D02*
X156080833Y-80666120D01*
X156080833Y-80666120D02*
X156118928Y-80628024D01*
X156118928Y-80628024D02*
X156157023Y-80551834D01*
X156157023Y-80551834D02*
X156157023Y-80399453D01*
X156157023Y-80399453D02*
X156118928Y-80323262D01*
X156118928Y-80323262D02*
X156080833Y-80285167D01*
X156080833Y-80285167D02*
X156004642Y-80247072D01*
X145236104Y-95965252D02*
X145274200Y-96003348D01*
X145274200Y-96003348D02*
X145312295Y-96117633D01*
X145312295Y-96117633D02*
X145312295Y-96193824D01*
X145312295Y-96193824D02*
X145274200Y-96308110D01*
X145274200Y-96308110D02*
X145198009Y-96384300D01*
X145198009Y-96384300D02*
X145121819Y-96422395D01*
X145121819Y-96422395D02*
X144969438Y-96460491D01*
X144969438Y-96460491D02*
X144855152Y-96460491D01*
X144855152Y-96460491D02*
X144702771Y-96422395D01*
X144702771Y-96422395D02*
X144626580Y-96384300D01*
X144626580Y-96384300D02*
X144550390Y-96308110D01*
X144550390Y-96308110D02*
X144512295Y-96193824D01*
X144512295Y-96193824D02*
X144512295Y-96117633D01*
X144512295Y-96117633D02*
X144550390Y-96003348D01*
X144550390Y-96003348D02*
X144588485Y-95965252D01*
X144512295Y-95279538D02*
X144512295Y-95431919D01*
X144512295Y-95431919D02*
X144550390Y-95508110D01*
X144550390Y-95508110D02*
X144588485Y-95546205D01*
X144588485Y-95546205D02*
X144702771Y-95622395D01*
X144702771Y-95622395D02*
X144855152Y-95660491D01*
X144855152Y-95660491D02*
X145159914Y-95660491D01*
X145159914Y-95660491D02*
X145236104Y-95622395D01*
X145236104Y-95622395D02*
X145274200Y-95584300D01*
X145274200Y-95584300D02*
X145312295Y-95508110D01*
X145312295Y-95508110D02*
X145312295Y-95355729D01*
X145312295Y-95355729D02*
X145274200Y-95279538D01*
X145274200Y-95279538D02*
X145236104Y-95241443D01*
X145236104Y-95241443D02*
X145159914Y-95203348D01*
X145159914Y-95203348D02*
X144969438Y-95203348D01*
X144969438Y-95203348D02*
X144893247Y-95241443D01*
X144893247Y-95241443D02*
X144855152Y-95279538D01*
X144855152Y-95279538D02*
X144817057Y-95355729D01*
X144817057Y-95355729D02*
X144817057Y-95508110D01*
X144817057Y-95508110D02*
X144855152Y-95584300D01*
X144855152Y-95584300D02*
X144893247Y-95622395D01*
X144893247Y-95622395D02*
X144969438Y-95660491D01*
X122885714Y-100262295D02*
X122619047Y-99881342D01*
X122428571Y-100262295D02*
X122428571Y-99462295D01*
X122428571Y-99462295D02*
X122733333Y-99462295D01*
X122733333Y-99462295D02*
X122809523Y-99500390D01*
X122809523Y-99500390D02*
X122847618Y-99538485D01*
X122847618Y-99538485D02*
X122885714Y-99614676D01*
X122885714Y-99614676D02*
X122885714Y-99728961D01*
X122885714Y-99728961D02*
X122847618Y-99805152D01*
X122847618Y-99805152D02*
X122809523Y-99843247D01*
X122809523Y-99843247D02*
X122733333Y-99881342D01*
X122733333Y-99881342D02*
X122428571Y-99881342D01*
X123190475Y-99538485D02*
X123228571Y-99500390D01*
X123228571Y-99500390D02*
X123304761Y-99462295D01*
X123304761Y-99462295D02*
X123495237Y-99462295D01*
X123495237Y-99462295D02*
X123571428Y-99500390D01*
X123571428Y-99500390D02*
X123609523Y-99538485D01*
X123609523Y-99538485D02*
X123647618Y-99614676D01*
X123647618Y-99614676D02*
X123647618Y-99690866D01*
X123647618Y-99690866D02*
X123609523Y-99805152D01*
X123609523Y-99805152D02*
X123152380Y-100262295D01*
X123152380Y-100262295D02*
X123647618Y-100262295D01*
X124409523Y-100262295D02*
X123952380Y-100262295D01*
X124180952Y-100262295D02*
X124180952Y-99462295D01*
X124180952Y-99462295D02*
X124104761Y-99576580D01*
X124104761Y-99576580D02*
X124028571Y-99652771D01*
X124028571Y-99652771D02*
X123952380Y-99690866D01*
X143536104Y-94046205D02*
X143574200Y-94084301D01*
X143574200Y-94084301D02*
X143612295Y-94198586D01*
X143612295Y-94198586D02*
X143612295Y-94274777D01*
X143612295Y-94274777D02*
X143574200Y-94389063D01*
X143574200Y-94389063D02*
X143498009Y-94465253D01*
X143498009Y-94465253D02*
X143421819Y-94503348D01*
X143421819Y-94503348D02*
X143269438Y-94541444D01*
X143269438Y-94541444D02*
X143155152Y-94541444D01*
X143155152Y-94541444D02*
X143002771Y-94503348D01*
X143002771Y-94503348D02*
X142926580Y-94465253D01*
X142926580Y-94465253D02*
X142850390Y-94389063D01*
X142850390Y-94389063D02*
X142812295Y-94274777D01*
X142812295Y-94274777D02*
X142812295Y-94198586D01*
X142812295Y-94198586D02*
X142850390Y-94084301D01*
X142850390Y-94084301D02*
X142888485Y-94046205D01*
X143612295Y-93284301D02*
X143612295Y-93741444D01*
X143612295Y-93512872D02*
X142812295Y-93512872D01*
X142812295Y-93512872D02*
X142926580Y-93589063D01*
X142926580Y-93589063D02*
X143002771Y-93665253D01*
X143002771Y-93665253D02*
X143040866Y-93741444D01*
X142812295Y-92789062D02*
X142812295Y-92712872D01*
X142812295Y-92712872D02*
X142850390Y-92636681D01*
X142850390Y-92636681D02*
X142888485Y-92598586D01*
X142888485Y-92598586D02*
X142964676Y-92560491D01*
X142964676Y-92560491D02*
X143117057Y-92522396D01*
X143117057Y-92522396D02*
X143307533Y-92522396D01*
X143307533Y-92522396D02*
X143459914Y-92560491D01*
X143459914Y-92560491D02*
X143536104Y-92598586D01*
X143536104Y-92598586D02*
X143574200Y-92636681D01*
X143574200Y-92636681D02*
X143612295Y-92712872D01*
X143612295Y-92712872D02*
X143612295Y-92789062D01*
X143612295Y-92789062D02*
X143574200Y-92865253D01*
X143574200Y-92865253D02*
X143536104Y-92903348D01*
X143536104Y-92903348D02*
X143459914Y-92941443D01*
X143459914Y-92941443D02*
X143307533Y-92979539D01*
X143307533Y-92979539D02*
X143117057Y-92979539D01*
X143117057Y-92979539D02*
X142964676Y-92941443D01*
X142964676Y-92941443D02*
X142888485Y-92903348D01*
X142888485Y-92903348D02*
X142850390Y-92865253D01*
X142850390Y-92865253D02*
X142812295Y-92789062D01*
X157385714Y-74994215D02*
X157119047Y-74613262D01*
X156928571Y-74994215D02*
X156928571Y-74194215D01*
X156928571Y-74194215D02*
X157233333Y-74194215D01*
X157233333Y-74194215D02*
X157309523Y-74232310D01*
X157309523Y-74232310D02*
X157347618Y-74270405D01*
X157347618Y-74270405D02*
X157385714Y-74346596D01*
X157385714Y-74346596D02*
X157385714Y-74460881D01*
X157385714Y-74460881D02*
X157347618Y-74537072D01*
X157347618Y-74537072D02*
X157309523Y-74575167D01*
X157309523Y-74575167D02*
X157233333Y-74613262D01*
X157233333Y-74613262D02*
X156928571Y-74613262D01*
X158147618Y-74994215D02*
X157690475Y-74994215D01*
X157919047Y-74994215D02*
X157919047Y-74194215D01*
X157919047Y-74194215D02*
X157842856Y-74308500D01*
X157842856Y-74308500D02*
X157766666Y-74384691D01*
X157766666Y-74384691D02*
X157690475Y-74422786D01*
X158414285Y-74194215D02*
X158947619Y-74194215D01*
X158947619Y-74194215D02*
X158604761Y-74994215D01*
X159556527Y-98696205D02*
X159175574Y-98962872D01*
X159556527Y-99153348D02*
X158756527Y-99153348D01*
X158756527Y-99153348D02*
X158756527Y-98848586D01*
X158756527Y-98848586D02*
X158794622Y-98772396D01*
X158794622Y-98772396D02*
X158832717Y-98734301D01*
X158832717Y-98734301D02*
X158908908Y-98696205D01*
X158908908Y-98696205D02*
X159023193Y-98696205D01*
X159023193Y-98696205D02*
X159099384Y-98734301D01*
X159099384Y-98734301D02*
X159137479Y-98772396D01*
X159137479Y-98772396D02*
X159175574Y-98848586D01*
X159175574Y-98848586D02*
X159175574Y-99153348D01*
X159556527Y-97934301D02*
X159556527Y-98391444D01*
X159556527Y-98162872D02*
X158756527Y-98162872D01*
X158756527Y-98162872D02*
X158870812Y-98239063D01*
X158870812Y-98239063D02*
X158947003Y-98315253D01*
X158947003Y-98315253D02*
X158985098Y-98391444D01*
X158756527Y-97439062D02*
X158756527Y-97362872D01*
X158756527Y-97362872D02*
X158794622Y-97286681D01*
X158794622Y-97286681D02*
X158832717Y-97248586D01*
X158832717Y-97248586D02*
X158908908Y-97210491D01*
X158908908Y-97210491D02*
X159061289Y-97172396D01*
X159061289Y-97172396D02*
X159251765Y-97172396D01*
X159251765Y-97172396D02*
X159404146Y-97210491D01*
X159404146Y-97210491D02*
X159480336Y-97248586D01*
X159480336Y-97248586D02*
X159518432Y-97286681D01*
X159518432Y-97286681D02*
X159556527Y-97362872D01*
X159556527Y-97362872D02*
X159556527Y-97439062D01*
X159556527Y-97439062D02*
X159518432Y-97515253D01*
X159518432Y-97515253D02*
X159480336Y-97553348D01*
X159480336Y-97553348D02*
X159404146Y-97591443D01*
X159404146Y-97591443D02*
X159251765Y-97629539D01*
X159251765Y-97629539D02*
X159061289Y-97629539D01*
X159061289Y-97629539D02*
X158908908Y-97591443D01*
X158908908Y-97591443D02*
X158832717Y-97553348D01*
X158832717Y-97553348D02*
X158794622Y-97515253D01*
X158794622Y-97515253D02*
X158756527Y-97439062D01*
X170254819Y-93548586D02*
X170254819Y-94024776D01*
X170254819Y-94024776D02*
X169254819Y-94024776D01*
X169350057Y-93262871D02*
X169302438Y-93215252D01*
X169302438Y-93215252D02*
X169254819Y-93120014D01*
X169254819Y-93120014D02*
X169254819Y-92881919D01*
X169254819Y-92881919D02*
X169302438Y-92786681D01*
X169302438Y-92786681D02*
X169350057Y-92739062D01*
X169350057Y-92739062D02*
X169445295Y-92691443D01*
X169445295Y-92691443D02*
X169540533Y-92691443D01*
X169540533Y-92691443D02*
X169683390Y-92739062D01*
X169683390Y-92739062D02*
X170254819Y-93310490D01*
X170254819Y-93310490D02*
X170254819Y-92691443D01*
X156003214Y-93444215D02*
X155736547Y-93063262D01*
X155546071Y-93444215D02*
X155546071Y-92644215D01*
X155546071Y-92644215D02*
X155850833Y-92644215D01*
X155850833Y-92644215D02*
X155927023Y-92682310D01*
X155927023Y-92682310D02*
X155965118Y-92720405D01*
X155965118Y-92720405D02*
X156003214Y-92796596D01*
X156003214Y-92796596D02*
X156003214Y-92910881D01*
X156003214Y-92910881D02*
X155965118Y-92987072D01*
X155965118Y-92987072D02*
X155927023Y-93025167D01*
X155927023Y-93025167D02*
X155850833Y-93063262D01*
X155850833Y-93063262D02*
X155546071Y-93063262D01*
X156765118Y-93444215D02*
X156307975Y-93444215D01*
X156536547Y-93444215D02*
X156536547Y-92644215D01*
X156536547Y-92644215D02*
X156460356Y-92758500D01*
X156460356Y-92758500D02*
X156384166Y-92834691D01*
X156384166Y-92834691D02*
X156307975Y-92872786D01*
X157450833Y-92644215D02*
X157298452Y-92644215D01*
X157298452Y-92644215D02*
X157222261Y-92682310D01*
X157222261Y-92682310D02*
X157184166Y-92720405D01*
X157184166Y-92720405D02*
X157107976Y-92834691D01*
X157107976Y-92834691D02*
X157069880Y-92987072D01*
X157069880Y-92987072D02*
X157069880Y-93291834D01*
X157069880Y-93291834D02*
X157107976Y-93368024D01*
X157107976Y-93368024D02*
X157146071Y-93406120D01*
X157146071Y-93406120D02*
X157222261Y-93444215D01*
X157222261Y-93444215D02*
X157374642Y-93444215D01*
X157374642Y-93444215D02*
X157450833Y-93406120D01*
X157450833Y-93406120D02*
X157488928Y-93368024D01*
X157488928Y-93368024D02*
X157527023Y-93291834D01*
X157527023Y-93291834D02*
X157527023Y-93101358D01*
X157527023Y-93101358D02*
X157488928Y-93025167D01*
X157488928Y-93025167D02*
X157450833Y-92987072D01*
X157450833Y-92987072D02*
X157374642Y-92948977D01*
X157374642Y-92948977D02*
X157222261Y-92948977D01*
X157222261Y-92948977D02*
X157146071Y-92987072D01*
X157146071Y-92987072D02*
X157107976Y-93025167D01*
X157107976Y-93025167D02*
X157069880Y-93101358D01*
X154486104Y-74546205D02*
X154524200Y-74584301D01*
X154524200Y-74584301D02*
X154562295Y-74698586D01*
X154562295Y-74698586D02*
X154562295Y-74774777D01*
X154562295Y-74774777D02*
X154524200Y-74889063D01*
X154524200Y-74889063D02*
X154448009Y-74965253D01*
X154448009Y-74965253D02*
X154371819Y-75003348D01*
X154371819Y-75003348D02*
X154219438Y-75041444D01*
X154219438Y-75041444D02*
X154105152Y-75041444D01*
X154105152Y-75041444D02*
X153952771Y-75003348D01*
X153952771Y-75003348D02*
X153876580Y-74965253D01*
X153876580Y-74965253D02*
X153800390Y-74889063D01*
X153800390Y-74889063D02*
X153762295Y-74774777D01*
X153762295Y-74774777D02*
X153762295Y-74698586D01*
X153762295Y-74698586D02*
X153800390Y-74584301D01*
X153800390Y-74584301D02*
X153838485Y-74546205D01*
X153838485Y-74241444D02*
X153800390Y-74203348D01*
X153800390Y-74203348D02*
X153762295Y-74127158D01*
X153762295Y-74127158D02*
X153762295Y-73936682D01*
X153762295Y-73936682D02*
X153800390Y-73860491D01*
X153800390Y-73860491D02*
X153838485Y-73822396D01*
X153838485Y-73822396D02*
X153914676Y-73784301D01*
X153914676Y-73784301D02*
X153990866Y-73784301D01*
X153990866Y-73784301D02*
X154105152Y-73822396D01*
X154105152Y-73822396D02*
X154562295Y-74279539D01*
X154562295Y-74279539D02*
X154562295Y-73784301D01*
X153838485Y-73479539D02*
X153800390Y-73441443D01*
X153800390Y-73441443D02*
X153762295Y-73365253D01*
X153762295Y-73365253D02*
X153762295Y-73174777D01*
X153762295Y-73174777D02*
X153800390Y-73098586D01*
X153800390Y-73098586D02*
X153838485Y-73060491D01*
X153838485Y-73060491D02*
X153914676Y-73022396D01*
X153914676Y-73022396D02*
X153990866Y-73022396D01*
X153990866Y-73022396D02*
X154105152Y-73060491D01*
X154105152Y-73060491D02*
X154562295Y-73517634D01*
X154562295Y-73517634D02*
X154562295Y-73022396D01*
X161006209Y-87465033D02*
X161006209Y-87798366D01*
X161530019Y-87798366D02*
X160530019Y-87798366D01*
X160530019Y-87798366D02*
X160530019Y-87322176D01*
X161530019Y-86417414D02*
X161530019Y-86988842D01*
X161530019Y-86703128D02*
X160530019Y-86703128D01*
X160530019Y-86703128D02*
X160672876Y-86798366D01*
X160672876Y-86798366D02*
X160768114Y-86893604D01*
X160768114Y-86893604D02*
X160815733Y-86988842D01*
X151286104Y-76146205D02*
X151324200Y-76184301D01*
X151324200Y-76184301D02*
X151362295Y-76298586D01*
X151362295Y-76298586D02*
X151362295Y-76374777D01*
X151362295Y-76374777D02*
X151324200Y-76489063D01*
X151324200Y-76489063D02*
X151248009Y-76565253D01*
X151248009Y-76565253D02*
X151171819Y-76603348D01*
X151171819Y-76603348D02*
X151019438Y-76641444D01*
X151019438Y-76641444D02*
X150905152Y-76641444D01*
X150905152Y-76641444D02*
X150752771Y-76603348D01*
X150752771Y-76603348D02*
X150676580Y-76565253D01*
X150676580Y-76565253D02*
X150600390Y-76489063D01*
X150600390Y-76489063D02*
X150562295Y-76374777D01*
X150562295Y-76374777D02*
X150562295Y-76298586D01*
X150562295Y-76298586D02*
X150600390Y-76184301D01*
X150600390Y-76184301D02*
X150638485Y-76146205D01*
X150638485Y-75841444D02*
X150600390Y-75803348D01*
X150600390Y-75803348D02*
X150562295Y-75727158D01*
X150562295Y-75727158D02*
X150562295Y-75536682D01*
X150562295Y-75536682D02*
X150600390Y-75460491D01*
X150600390Y-75460491D02*
X150638485Y-75422396D01*
X150638485Y-75422396D02*
X150714676Y-75384301D01*
X150714676Y-75384301D02*
X150790866Y-75384301D01*
X150790866Y-75384301D02*
X150905152Y-75422396D01*
X150905152Y-75422396D02*
X151362295Y-75879539D01*
X151362295Y-75879539D02*
X151362295Y-75384301D01*
X151362295Y-74622396D02*
X151362295Y-75079539D01*
X151362295Y-74850967D02*
X150562295Y-74850967D01*
X150562295Y-74850967D02*
X150676580Y-74927158D01*
X150676580Y-74927158D02*
X150752771Y-75003348D01*
X150752771Y-75003348D02*
X150790866Y-75079539D01*
X160556527Y-91262871D02*
X159756527Y-91262871D01*
X160480336Y-90424776D02*
X160518432Y-90462872D01*
X160518432Y-90462872D02*
X160556527Y-90577157D01*
X160556527Y-90577157D02*
X160556527Y-90653348D01*
X160556527Y-90653348D02*
X160518432Y-90767634D01*
X160518432Y-90767634D02*
X160442241Y-90843824D01*
X160442241Y-90843824D02*
X160366051Y-90881919D01*
X160366051Y-90881919D02*
X160213670Y-90920015D01*
X160213670Y-90920015D02*
X160099384Y-90920015D01*
X160099384Y-90920015D02*
X159947003Y-90881919D01*
X159947003Y-90881919D02*
X159870812Y-90843824D01*
X159870812Y-90843824D02*
X159794622Y-90767634D01*
X159794622Y-90767634D02*
X159756527Y-90653348D01*
X159756527Y-90653348D02*
X159756527Y-90577157D01*
X159756527Y-90577157D02*
X159794622Y-90462872D01*
X159794622Y-90462872D02*
X159832717Y-90424776D01*
X160556527Y-89662872D02*
X160556527Y-90120015D01*
X160556527Y-89891443D02*
X159756527Y-89891443D01*
X159756527Y-89891443D02*
X159870812Y-89967634D01*
X159870812Y-89967634D02*
X159947003Y-90043824D01*
X159947003Y-90043824D02*
X159985098Y-90120015D01*
X163696714Y-106077104D02*
X163658618Y-106115200D01*
X163658618Y-106115200D02*
X163544333Y-106153295D01*
X163544333Y-106153295D02*
X163468142Y-106153295D01*
X163468142Y-106153295D02*
X163353856Y-106115200D01*
X163353856Y-106115200D02*
X163277666Y-106039009D01*
X163277666Y-106039009D02*
X163239571Y-105962819D01*
X163239571Y-105962819D02*
X163201475Y-105810438D01*
X163201475Y-105810438D02*
X163201475Y-105696152D01*
X163201475Y-105696152D02*
X163239571Y-105543771D01*
X163239571Y-105543771D02*
X163277666Y-105467580D01*
X163277666Y-105467580D02*
X163353856Y-105391390D01*
X163353856Y-105391390D02*
X163468142Y-105353295D01*
X163468142Y-105353295D02*
X163544333Y-105353295D01*
X163544333Y-105353295D02*
X163658618Y-105391390D01*
X163658618Y-105391390D02*
X163696714Y-105429485D01*
X164458618Y-106153295D02*
X164001475Y-106153295D01*
X164230047Y-106153295D02*
X164230047Y-105353295D01*
X164230047Y-105353295D02*
X164153856Y-105467580D01*
X164153856Y-105467580D02*
X164077666Y-105543771D01*
X164077666Y-105543771D02*
X164001475Y-105581866D01*
X164725285Y-105353295D02*
X165220523Y-105353295D01*
X165220523Y-105353295D02*
X164953857Y-105658057D01*
X164953857Y-105658057D02*
X165068142Y-105658057D01*
X165068142Y-105658057D02*
X165144333Y-105696152D01*
X165144333Y-105696152D02*
X165182428Y-105734247D01*
X165182428Y-105734247D02*
X165220523Y-105810438D01*
X165220523Y-105810438D02*
X165220523Y-106000914D01*
X165220523Y-106000914D02*
X165182428Y-106077104D01*
X165182428Y-106077104D02*
X165144333Y-106115200D01*
X165144333Y-106115200D02*
X165068142Y-106153295D01*
X165068142Y-106153295D02*
X164839571Y-106153295D01*
X164839571Y-106153295D02*
X164763380Y-106115200D01*
X164763380Y-106115200D02*
X164725285Y-106077104D01*
X142536104Y-93665252D02*
X142574200Y-93703348D01*
X142574200Y-93703348D02*
X142612295Y-93817633D01*
X142612295Y-93817633D02*
X142612295Y-93893824D01*
X142612295Y-93893824D02*
X142574200Y-94008110D01*
X142574200Y-94008110D02*
X142498009Y-94084300D01*
X142498009Y-94084300D02*
X142421819Y-94122395D01*
X142421819Y-94122395D02*
X142269438Y-94160491D01*
X142269438Y-94160491D02*
X142155152Y-94160491D01*
X142155152Y-94160491D02*
X142002771Y-94122395D01*
X142002771Y-94122395D02*
X141926580Y-94084300D01*
X141926580Y-94084300D02*
X141850390Y-94008110D01*
X141850390Y-94008110D02*
X141812295Y-93893824D01*
X141812295Y-93893824D02*
X141812295Y-93817633D01*
X141812295Y-93817633D02*
X141850390Y-93703348D01*
X141850390Y-93703348D02*
X141888485Y-93665252D01*
X142612295Y-92903348D02*
X142612295Y-93360491D01*
X142612295Y-93131919D02*
X141812295Y-93131919D01*
X141812295Y-93131919D02*
X141926580Y-93208110D01*
X141926580Y-93208110D02*
X142002771Y-93284300D01*
X142002771Y-93284300D02*
X142040866Y-93360491D01*
X163192319Y-101193824D02*
X164001842Y-101193824D01*
X164001842Y-101193824D02*
X164097080Y-101146205D01*
X164097080Y-101146205D02*
X164144700Y-101098586D01*
X164144700Y-101098586D02*
X164192319Y-101003348D01*
X164192319Y-101003348D02*
X164192319Y-100812872D01*
X164192319Y-100812872D02*
X164144700Y-100717634D01*
X164144700Y-100717634D02*
X164097080Y-100670015D01*
X164097080Y-100670015D02*
X164001842Y-100622396D01*
X164001842Y-100622396D02*
X163192319Y-100622396D01*
X163287557Y-100193824D02*
X163239938Y-100146205D01*
X163239938Y-100146205D02*
X163192319Y-100050967D01*
X163192319Y-100050967D02*
X163192319Y-99812872D01*
X163192319Y-99812872D02*
X163239938Y-99717634D01*
X163239938Y-99717634D02*
X163287557Y-99670015D01*
X163287557Y-99670015D02*
X163382795Y-99622396D01*
X163382795Y-99622396D02*
X163478033Y-99622396D01*
X163478033Y-99622396D02*
X163620890Y-99670015D01*
X163620890Y-99670015D02*
X164192319Y-100241443D01*
X164192319Y-100241443D02*
X164192319Y-99622396D01*
X156003214Y-94694215D02*
X155736547Y-94313262D01*
X155546071Y-94694215D02*
X155546071Y-93894215D01*
X155546071Y-93894215D02*
X155850833Y-93894215D01*
X155850833Y-93894215D02*
X155927023Y-93932310D01*
X155927023Y-93932310D02*
X155965118Y-93970405D01*
X155965118Y-93970405D02*
X156003214Y-94046596D01*
X156003214Y-94046596D02*
X156003214Y-94160881D01*
X156003214Y-94160881D02*
X155965118Y-94237072D01*
X155965118Y-94237072D02*
X155927023Y-94275167D01*
X155927023Y-94275167D02*
X155850833Y-94313262D01*
X155850833Y-94313262D02*
X155546071Y-94313262D01*
X156765118Y-94694215D02*
X156307975Y-94694215D01*
X156536547Y-94694215D02*
X156536547Y-93894215D01*
X156536547Y-93894215D02*
X156460356Y-94008500D01*
X156460356Y-94008500D02*
X156384166Y-94084691D01*
X156384166Y-94084691D02*
X156307975Y-94122786D01*
X157450833Y-94160881D02*
X157450833Y-94694215D01*
X157260357Y-93856120D02*
X157069880Y-94427548D01*
X157069880Y-94427548D02*
X157565119Y-94427548D01*
X140506514Y-75038295D02*
X140239847Y-74657342D01*
X140049371Y-75038295D02*
X140049371Y-74238295D01*
X140049371Y-74238295D02*
X140354133Y-74238295D01*
X140354133Y-74238295D02*
X140430323Y-74276390D01*
X140430323Y-74276390D02*
X140468418Y-74314485D01*
X140468418Y-74314485D02*
X140506514Y-74390676D01*
X140506514Y-74390676D02*
X140506514Y-74504961D01*
X140506514Y-74504961D02*
X140468418Y-74581152D01*
X140468418Y-74581152D02*
X140430323Y-74619247D01*
X140430323Y-74619247D02*
X140354133Y-74657342D01*
X140354133Y-74657342D02*
X140049371Y-74657342D01*
X141268418Y-75038295D02*
X140811275Y-75038295D01*
X141039847Y-75038295D02*
X141039847Y-74238295D01*
X141039847Y-74238295D02*
X140963656Y-74352580D01*
X140963656Y-74352580D02*
X140887466Y-74428771D01*
X140887466Y-74428771D02*
X140811275Y-74466866D01*
X141573180Y-74314485D02*
X141611276Y-74276390D01*
X141611276Y-74276390D02*
X141687466Y-74238295D01*
X141687466Y-74238295D02*
X141877942Y-74238295D01*
X141877942Y-74238295D02*
X141954133Y-74276390D01*
X141954133Y-74276390D02*
X141992228Y-74314485D01*
X141992228Y-74314485D02*
X142030323Y-74390676D01*
X142030323Y-74390676D02*
X142030323Y-74466866D01*
X142030323Y-74466866D02*
X141992228Y-74581152D01*
X141992228Y-74581152D02*
X141535085Y-75038295D01*
X141535085Y-75038295D02*
X142030323Y-75038295D01*
X154633214Y-79694215D02*
X154366547Y-79313262D01*
X154176071Y-79694215D02*
X154176071Y-78894215D01*
X154176071Y-78894215D02*
X154480833Y-78894215D01*
X154480833Y-78894215D02*
X154557023Y-78932310D01*
X154557023Y-78932310D02*
X154595118Y-78970405D01*
X154595118Y-78970405D02*
X154633214Y-79046596D01*
X154633214Y-79046596D02*
X154633214Y-79160881D01*
X154633214Y-79160881D02*
X154595118Y-79237072D01*
X154595118Y-79237072D02*
X154557023Y-79275167D01*
X154557023Y-79275167D02*
X154480833Y-79313262D01*
X154480833Y-79313262D02*
X154176071Y-79313262D01*
X154937975Y-78970405D02*
X154976071Y-78932310D01*
X154976071Y-78932310D02*
X155052261Y-78894215D01*
X155052261Y-78894215D02*
X155242737Y-78894215D01*
X155242737Y-78894215D02*
X155318928Y-78932310D01*
X155318928Y-78932310D02*
X155357023Y-78970405D01*
X155357023Y-78970405D02*
X155395118Y-79046596D01*
X155395118Y-79046596D02*
X155395118Y-79122786D01*
X155395118Y-79122786D02*
X155357023Y-79237072D01*
X155357023Y-79237072D02*
X154899880Y-79694215D01*
X154899880Y-79694215D02*
X155395118Y-79694215D01*
X155776071Y-79694215D02*
X155928452Y-79694215D01*
X155928452Y-79694215D02*
X156004642Y-79656120D01*
X156004642Y-79656120D02*
X156042738Y-79618024D01*
X156042738Y-79618024D02*
X156118928Y-79503739D01*
X156118928Y-79503739D02*
X156157023Y-79351358D01*
X156157023Y-79351358D02*
X156157023Y-79046596D01*
X156157023Y-79046596D02*
X156118928Y-78970405D01*
X156118928Y-78970405D02*
X156080833Y-78932310D01*
X156080833Y-78932310D02*
X156004642Y-78894215D01*
X156004642Y-78894215D02*
X155852261Y-78894215D01*
X155852261Y-78894215D02*
X155776071Y-78932310D01*
X155776071Y-78932310D02*
X155737976Y-78970405D01*
X155737976Y-78970405D02*
X155699880Y-79046596D01*
X155699880Y-79046596D02*
X155699880Y-79237072D01*
X155699880Y-79237072D02*
X155737976Y-79313262D01*
X155737976Y-79313262D02*
X155776071Y-79351358D01*
X155776071Y-79351358D02*
X155852261Y-79389453D01*
X155852261Y-79389453D02*
X156004642Y-79389453D01*
X156004642Y-79389453D02*
X156080833Y-79351358D01*
X156080833Y-79351358D02*
X156118928Y-79313262D01*
X156118928Y-79313262D02*
X156157023Y-79237072D01*
X156076667Y-102978295D02*
X155810000Y-102597342D01*
X155619524Y-102978295D02*
X155619524Y-102178295D01*
X155619524Y-102178295D02*
X155924286Y-102178295D01*
X155924286Y-102178295D02*
X156000476Y-102216390D01*
X156000476Y-102216390D02*
X156038571Y-102254485D01*
X156038571Y-102254485D02*
X156076667Y-102330676D01*
X156076667Y-102330676D02*
X156076667Y-102444961D01*
X156076667Y-102444961D02*
X156038571Y-102521152D01*
X156038571Y-102521152D02*
X156000476Y-102559247D01*
X156000476Y-102559247D02*
X155924286Y-102597342D01*
X155924286Y-102597342D02*
X155619524Y-102597342D01*
X156457619Y-102978295D02*
X156610000Y-102978295D01*
X156610000Y-102978295D02*
X156686190Y-102940200D01*
X156686190Y-102940200D02*
X156724286Y-102902104D01*
X156724286Y-102902104D02*
X156800476Y-102787819D01*
X156800476Y-102787819D02*
X156838571Y-102635438D01*
X156838571Y-102635438D02*
X156838571Y-102330676D01*
X156838571Y-102330676D02*
X156800476Y-102254485D01*
X156800476Y-102254485D02*
X156762381Y-102216390D01*
X156762381Y-102216390D02*
X156686190Y-102178295D01*
X156686190Y-102178295D02*
X156533809Y-102178295D01*
X156533809Y-102178295D02*
X156457619Y-102216390D01*
X156457619Y-102216390D02*
X156419524Y-102254485D01*
X156419524Y-102254485D02*
X156381428Y-102330676D01*
X156381428Y-102330676D02*
X156381428Y-102521152D01*
X156381428Y-102521152D02*
X156419524Y-102597342D01*
X156419524Y-102597342D02*
X156457619Y-102635438D01*
X156457619Y-102635438D02*
X156533809Y-102673533D01*
X156533809Y-102673533D02*
X156686190Y-102673533D01*
X156686190Y-102673533D02*
X156762381Y-102635438D01*
X156762381Y-102635438D02*
X156800476Y-102597342D01*
X156800476Y-102597342D02*
X156838571Y-102521152D01*
X165358714Y-83946104D02*
X165320618Y-83984200D01*
X165320618Y-83984200D02*
X165206333Y-84022295D01*
X165206333Y-84022295D02*
X165130142Y-84022295D01*
X165130142Y-84022295D02*
X165015856Y-83984200D01*
X165015856Y-83984200D02*
X164939666Y-83908009D01*
X164939666Y-83908009D02*
X164901571Y-83831819D01*
X164901571Y-83831819D02*
X164863475Y-83679438D01*
X164863475Y-83679438D02*
X164863475Y-83565152D01*
X164863475Y-83565152D02*
X164901571Y-83412771D01*
X164901571Y-83412771D02*
X164939666Y-83336580D01*
X164939666Y-83336580D02*
X165015856Y-83260390D01*
X165015856Y-83260390D02*
X165130142Y-83222295D01*
X165130142Y-83222295D02*
X165206333Y-83222295D01*
X165206333Y-83222295D02*
X165320618Y-83260390D01*
X165320618Y-83260390D02*
X165358714Y-83298485D01*
X166120618Y-84022295D02*
X165663475Y-84022295D01*
X165892047Y-84022295D02*
X165892047Y-83222295D01*
X165892047Y-83222295D02*
X165815856Y-83336580D01*
X165815856Y-83336580D02*
X165739666Y-83412771D01*
X165739666Y-83412771D02*
X165663475Y-83450866D01*
X166501571Y-84022295D02*
X166653952Y-84022295D01*
X166653952Y-84022295D02*
X166730142Y-83984200D01*
X166730142Y-83984200D02*
X166768238Y-83946104D01*
X166768238Y-83946104D02*
X166844428Y-83831819D01*
X166844428Y-83831819D02*
X166882523Y-83679438D01*
X166882523Y-83679438D02*
X166882523Y-83374676D01*
X166882523Y-83374676D02*
X166844428Y-83298485D01*
X166844428Y-83298485D02*
X166806333Y-83260390D01*
X166806333Y-83260390D02*
X166730142Y-83222295D01*
X166730142Y-83222295D02*
X166577761Y-83222295D01*
X166577761Y-83222295D02*
X166501571Y-83260390D01*
X166501571Y-83260390D02*
X166463476Y-83298485D01*
X166463476Y-83298485D02*
X166425380Y-83374676D01*
X166425380Y-83374676D02*
X166425380Y-83565152D01*
X166425380Y-83565152D02*
X166463476Y-83641342D01*
X166463476Y-83641342D02*
X166501571Y-83679438D01*
X166501571Y-83679438D02*
X166577761Y-83717533D01*
X166577761Y-83717533D02*
X166730142Y-83717533D01*
X166730142Y-83717533D02*
X166806333Y-83679438D01*
X166806333Y-83679438D02*
X166844428Y-83641342D01*
X166844428Y-83641342D02*
X166882523Y-83565152D01*
X161279946Y-96444215D02*
X161013279Y-96063262D01*
X160822803Y-96444215D02*
X160822803Y-95644215D01*
X160822803Y-95644215D02*
X161127565Y-95644215D01*
X161127565Y-95644215D02*
X161203755Y-95682310D01*
X161203755Y-95682310D02*
X161241850Y-95720405D01*
X161241850Y-95720405D02*
X161279946Y-95796596D01*
X161279946Y-95796596D02*
X161279946Y-95910881D01*
X161279946Y-95910881D02*
X161241850Y-95987072D01*
X161241850Y-95987072D02*
X161203755Y-96025167D01*
X161203755Y-96025167D02*
X161127565Y-96063262D01*
X161127565Y-96063262D02*
X160822803Y-96063262D01*
X162041850Y-96444215D02*
X161584707Y-96444215D01*
X161813279Y-96444215D02*
X161813279Y-95644215D01*
X161813279Y-95644215D02*
X161737088Y-95758500D01*
X161737088Y-95758500D02*
X161660898Y-95834691D01*
X161660898Y-95834691D02*
X161584707Y-95872786D01*
X162803755Y-96444215D02*
X162346612Y-96444215D01*
X162575184Y-96444215D02*
X162575184Y-95644215D01*
X162575184Y-95644215D02*
X162498993Y-95758500D01*
X162498993Y-95758500D02*
X162422803Y-95834691D01*
X162422803Y-95834691D02*
X162346612Y-95872786D01*
X141536104Y-94046205D02*
X141574200Y-94084301D01*
X141574200Y-94084301D02*
X141612295Y-94198586D01*
X141612295Y-94198586D02*
X141612295Y-94274777D01*
X141612295Y-94274777D02*
X141574200Y-94389063D01*
X141574200Y-94389063D02*
X141498009Y-94465253D01*
X141498009Y-94465253D02*
X141421819Y-94503348D01*
X141421819Y-94503348D02*
X141269438Y-94541444D01*
X141269438Y-94541444D02*
X141155152Y-94541444D01*
X141155152Y-94541444D02*
X141002771Y-94503348D01*
X141002771Y-94503348D02*
X140926580Y-94465253D01*
X140926580Y-94465253D02*
X140850390Y-94389063D01*
X140850390Y-94389063D02*
X140812295Y-94274777D01*
X140812295Y-94274777D02*
X140812295Y-94198586D01*
X140812295Y-94198586D02*
X140850390Y-94084301D01*
X140850390Y-94084301D02*
X140888485Y-94046205D01*
X141612295Y-93284301D02*
X141612295Y-93741444D01*
X141612295Y-93512872D02*
X140812295Y-93512872D01*
X140812295Y-93512872D02*
X140926580Y-93589063D01*
X140926580Y-93589063D02*
X141002771Y-93665253D01*
X141002771Y-93665253D02*
X141040866Y-93741444D01*
X141612295Y-92522396D02*
X141612295Y-92979539D01*
X141612295Y-92750967D02*
X140812295Y-92750967D01*
X140812295Y-92750967D02*
X140926580Y-92827158D01*
X140926580Y-92827158D02*
X141002771Y-92903348D01*
X141002771Y-92903348D02*
X141040866Y-92979539D01*
X164185714Y-80194215D02*
X163919047Y-79813262D01*
X163728571Y-80194215D02*
X163728571Y-79394215D01*
X163728571Y-79394215D02*
X164033333Y-79394215D01*
X164033333Y-79394215D02*
X164109523Y-79432310D01*
X164109523Y-79432310D02*
X164147618Y-79470405D01*
X164147618Y-79470405D02*
X164185714Y-79546596D01*
X164185714Y-79546596D02*
X164185714Y-79660881D01*
X164185714Y-79660881D02*
X164147618Y-79737072D01*
X164147618Y-79737072D02*
X164109523Y-79775167D01*
X164109523Y-79775167D02*
X164033333Y-79813262D01*
X164033333Y-79813262D02*
X163728571Y-79813262D01*
X164947618Y-80194215D02*
X164490475Y-80194215D01*
X164719047Y-80194215D02*
X164719047Y-79394215D01*
X164719047Y-79394215D02*
X164642856Y-79508500D01*
X164642856Y-79508500D02*
X164566666Y-79584691D01*
X164566666Y-79584691D02*
X164490475Y-79622786D01*
X165404761Y-79737072D02*
X165328571Y-79698977D01*
X165328571Y-79698977D02*
X165290476Y-79660881D01*
X165290476Y-79660881D02*
X165252380Y-79584691D01*
X165252380Y-79584691D02*
X165252380Y-79546596D01*
X165252380Y-79546596D02*
X165290476Y-79470405D01*
X165290476Y-79470405D02*
X165328571Y-79432310D01*
X165328571Y-79432310D02*
X165404761Y-79394215D01*
X165404761Y-79394215D02*
X165557142Y-79394215D01*
X165557142Y-79394215D02*
X165633333Y-79432310D01*
X165633333Y-79432310D02*
X165671428Y-79470405D01*
X165671428Y-79470405D02*
X165709523Y-79546596D01*
X165709523Y-79546596D02*
X165709523Y-79584691D01*
X165709523Y-79584691D02*
X165671428Y-79660881D01*
X165671428Y-79660881D02*
X165633333Y-79698977D01*
X165633333Y-79698977D02*
X165557142Y-79737072D01*
X165557142Y-79737072D02*
X165404761Y-79737072D01*
X165404761Y-79737072D02*
X165328571Y-79775167D01*
X165328571Y-79775167D02*
X165290476Y-79813262D01*
X165290476Y-79813262D02*
X165252380Y-79889453D01*
X165252380Y-79889453D02*
X165252380Y-80041834D01*
X165252380Y-80041834D02*
X165290476Y-80118024D01*
X165290476Y-80118024D02*
X165328571Y-80156120D01*
X165328571Y-80156120D02*
X165404761Y-80194215D01*
X165404761Y-80194215D02*
X165557142Y-80194215D01*
X165557142Y-80194215D02*
X165633333Y-80156120D01*
X165633333Y-80156120D02*
X165671428Y-80118024D01*
X165671428Y-80118024D02*
X165709523Y-80041834D01*
X165709523Y-80041834D02*
X165709523Y-79889453D01*
X165709523Y-79889453D02*
X165671428Y-79813262D01*
X165671428Y-79813262D02*
X165633333Y-79775167D01*
X165633333Y-79775167D02*
X165557142Y-79737072D01*
X166840819Y-89233333D02*
X167555104Y-89233333D01*
X167555104Y-89233333D02*
X167697961Y-89280952D01*
X167697961Y-89280952D02*
X167793200Y-89376190D01*
X167793200Y-89376190D02*
X167840819Y-89519047D01*
X167840819Y-89519047D02*
X167840819Y-89614285D01*
X167840819Y-88233333D02*
X167840819Y-88804761D01*
X167840819Y-88519047D02*
X166840819Y-88519047D01*
X166840819Y-88519047D02*
X166983676Y-88614285D01*
X166983676Y-88614285D02*
X167078914Y-88709523D01*
X167078914Y-88709523D02*
X167126533Y-88804761D01*
X146085714Y-116664215D02*
X145819047Y-116283262D01*
X145628571Y-116664215D02*
X145628571Y-115864215D01*
X145628571Y-115864215D02*
X145933333Y-115864215D01*
X145933333Y-115864215D02*
X146009523Y-115902310D01*
X146009523Y-115902310D02*
X146047618Y-115940405D01*
X146047618Y-115940405D02*
X146085714Y-116016596D01*
X146085714Y-116016596D02*
X146085714Y-116130881D01*
X146085714Y-116130881D02*
X146047618Y-116207072D01*
X146047618Y-116207072D02*
X146009523Y-116245167D01*
X146009523Y-116245167D02*
X145933333Y-116283262D01*
X145933333Y-116283262D02*
X145628571Y-116283262D01*
X146390475Y-115940405D02*
X146428571Y-115902310D01*
X146428571Y-115902310D02*
X146504761Y-115864215D01*
X146504761Y-115864215D02*
X146695237Y-115864215D01*
X146695237Y-115864215D02*
X146771428Y-115902310D01*
X146771428Y-115902310D02*
X146809523Y-115940405D01*
X146809523Y-115940405D02*
X146847618Y-116016596D01*
X146847618Y-116016596D02*
X146847618Y-116092786D01*
X146847618Y-116092786D02*
X146809523Y-116207072D01*
X146809523Y-116207072D02*
X146352380Y-116664215D01*
X146352380Y-116664215D02*
X146847618Y-116664215D01*
X147342857Y-115864215D02*
X147419047Y-115864215D01*
X147419047Y-115864215D02*
X147495238Y-115902310D01*
X147495238Y-115902310D02*
X147533333Y-115940405D01*
X147533333Y-115940405D02*
X147571428Y-116016596D01*
X147571428Y-116016596D02*
X147609523Y-116168977D01*
X147609523Y-116168977D02*
X147609523Y-116359453D01*
X147609523Y-116359453D02*
X147571428Y-116511834D01*
X147571428Y-116511834D02*
X147533333Y-116588024D01*
X147533333Y-116588024D02*
X147495238Y-116626120D01*
X147495238Y-116626120D02*
X147419047Y-116664215D01*
X147419047Y-116664215D02*
X147342857Y-116664215D01*
X147342857Y-116664215D02*
X147266666Y-116626120D01*
X147266666Y-116626120D02*
X147228571Y-116588024D01*
X147228571Y-116588024D02*
X147190476Y-116511834D01*
X147190476Y-116511834D02*
X147152380Y-116359453D01*
X147152380Y-116359453D02*
X147152380Y-116168977D01*
X147152380Y-116168977D02*
X147190476Y-116016596D01*
X147190476Y-116016596D02*
X147228571Y-115940405D01*
X147228571Y-115940405D02*
X147266666Y-115902310D01*
X147266666Y-115902310D02*
X147342857Y-115864215D01*
X151938095Y-86034739D02*
X152509523Y-86034739D01*
X152223809Y-87034739D02*
X152223809Y-86034739D01*
X152842857Y-87034739D02*
X152842857Y-86034739D01*
X152842857Y-86034739D02*
X153223809Y-86034739D01*
X153223809Y-86034739D02*
X153319047Y-86082358D01*
X153319047Y-86082358D02*
X153366666Y-86129977D01*
X153366666Y-86129977D02*
X153414285Y-86225215D01*
X153414285Y-86225215D02*
X153414285Y-86368072D01*
X153414285Y-86368072D02*
X153366666Y-86463310D01*
X153366666Y-86463310D02*
X153319047Y-86510929D01*
X153319047Y-86510929D02*
X153223809Y-86558548D01*
X153223809Y-86558548D02*
X152842857Y-86558548D01*
X154366666Y-87034739D02*
X153795238Y-87034739D01*
X154080952Y-87034739D02*
X154080952Y-86034739D01*
X154080952Y-86034739D02*
X153985714Y-86177596D01*
X153985714Y-86177596D02*
X153890476Y-86272834D01*
X153890476Y-86272834D02*
X153795238Y-86320453D01*
X147585714Y-73662295D02*
X147319047Y-73281342D01*
X147128571Y-73662295D02*
X147128571Y-72862295D01*
X147128571Y-72862295D02*
X147433333Y-72862295D01*
X147433333Y-72862295D02*
X147509523Y-72900390D01*
X147509523Y-72900390D02*
X147547618Y-72938485D01*
X147547618Y-72938485D02*
X147585714Y-73014676D01*
X147585714Y-73014676D02*
X147585714Y-73128961D01*
X147585714Y-73128961D02*
X147547618Y-73205152D01*
X147547618Y-73205152D02*
X147509523Y-73243247D01*
X147509523Y-73243247D02*
X147433333Y-73281342D01*
X147433333Y-73281342D02*
X147128571Y-73281342D01*
X147890475Y-72938485D02*
X147928571Y-72900390D01*
X147928571Y-72900390D02*
X148004761Y-72862295D01*
X148004761Y-72862295D02*
X148195237Y-72862295D01*
X148195237Y-72862295D02*
X148271428Y-72900390D01*
X148271428Y-72900390D02*
X148309523Y-72938485D01*
X148309523Y-72938485D02*
X148347618Y-73014676D01*
X148347618Y-73014676D02*
X148347618Y-73090866D01*
X148347618Y-73090866D02*
X148309523Y-73205152D01*
X148309523Y-73205152D02*
X147852380Y-73662295D01*
X147852380Y-73662295D02*
X148347618Y-73662295D01*
X149033333Y-72862295D02*
X148880952Y-72862295D01*
X148880952Y-72862295D02*
X148804761Y-72900390D01*
X148804761Y-72900390D02*
X148766666Y-72938485D01*
X148766666Y-72938485D02*
X148690476Y-73052771D01*
X148690476Y-73052771D02*
X148652380Y-73205152D01*
X148652380Y-73205152D02*
X148652380Y-73509914D01*
X148652380Y-73509914D02*
X148690476Y-73586104D01*
X148690476Y-73586104D02*
X148728571Y-73624200D01*
X148728571Y-73624200D02*
X148804761Y-73662295D01*
X148804761Y-73662295D02*
X148957142Y-73662295D01*
X148957142Y-73662295D02*
X149033333Y-73624200D01*
X149033333Y-73624200D02*
X149071428Y-73586104D01*
X149071428Y-73586104D02*
X149109523Y-73509914D01*
X149109523Y-73509914D02*
X149109523Y-73319438D01*
X149109523Y-73319438D02*
X149071428Y-73243247D01*
X149071428Y-73243247D02*
X149033333Y-73205152D01*
X149033333Y-73205152D02*
X148957142Y-73167057D01*
X148957142Y-73167057D02*
X148804761Y-73167057D01*
X148804761Y-73167057D02*
X148728571Y-73205152D01*
X148728571Y-73205152D02*
X148690476Y-73243247D01*
X148690476Y-73243247D02*
X148652380Y-73319438D01*
X161421295Y-125625365D02*
X161040342Y-125892032D01*
X161421295Y-126082508D02*
X160621295Y-126082508D01*
X160621295Y-126082508D02*
X160621295Y-125777746D01*
X160621295Y-125777746D02*
X160659390Y-125701556D01*
X160659390Y-125701556D02*
X160697485Y-125663461D01*
X160697485Y-125663461D02*
X160773676Y-125625365D01*
X160773676Y-125625365D02*
X160887961Y-125625365D01*
X160887961Y-125625365D02*
X160964152Y-125663461D01*
X160964152Y-125663461D02*
X161002247Y-125701556D01*
X161002247Y-125701556D02*
X161040342Y-125777746D01*
X161040342Y-125777746D02*
X161040342Y-126082508D01*
X160697485Y-125320604D02*
X160659390Y-125282508D01*
X160659390Y-125282508D02*
X160621295Y-125206318D01*
X160621295Y-125206318D02*
X160621295Y-125015842D01*
X160621295Y-125015842D02*
X160659390Y-124939651D01*
X160659390Y-124939651D02*
X160697485Y-124901556D01*
X160697485Y-124901556D02*
X160773676Y-124863461D01*
X160773676Y-124863461D02*
X160849866Y-124863461D01*
X160849866Y-124863461D02*
X160964152Y-124901556D01*
X160964152Y-124901556D02*
X161421295Y-125358699D01*
X161421295Y-125358699D02*
X161421295Y-124863461D01*
X160887961Y-124177746D02*
X161421295Y-124177746D01*
X160583200Y-124368222D02*
X161154628Y-124558699D01*
X161154628Y-124558699D02*
X161154628Y-124063460D01*
X161379946Y-97368024D02*
X161341850Y-97406120D01*
X161341850Y-97406120D02*
X161227565Y-97444215D01*
X161227565Y-97444215D02*
X161151374Y-97444215D01*
X161151374Y-97444215D02*
X161037088Y-97406120D01*
X161037088Y-97406120D02*
X160960898Y-97329929D01*
X160960898Y-97329929D02*
X160922803Y-97253739D01*
X160922803Y-97253739D02*
X160884707Y-97101358D01*
X160884707Y-97101358D02*
X160884707Y-96987072D01*
X160884707Y-96987072D02*
X160922803Y-96834691D01*
X160922803Y-96834691D02*
X160960898Y-96758500D01*
X160960898Y-96758500D02*
X161037088Y-96682310D01*
X161037088Y-96682310D02*
X161151374Y-96644215D01*
X161151374Y-96644215D02*
X161227565Y-96644215D01*
X161227565Y-96644215D02*
X161341850Y-96682310D01*
X161341850Y-96682310D02*
X161379946Y-96720405D01*
X162141850Y-97444215D02*
X161684707Y-97444215D01*
X161913279Y-97444215D02*
X161913279Y-96644215D01*
X161913279Y-96644215D02*
X161837088Y-96758500D01*
X161837088Y-96758500D02*
X161760898Y-96834691D01*
X161760898Y-96834691D02*
X161684707Y-96872786D01*
X162446612Y-96720405D02*
X162484708Y-96682310D01*
X162484708Y-96682310D02*
X162560898Y-96644215D01*
X162560898Y-96644215D02*
X162751374Y-96644215D01*
X162751374Y-96644215D02*
X162827565Y-96682310D01*
X162827565Y-96682310D02*
X162865660Y-96720405D01*
X162865660Y-96720405D02*
X162903755Y-96796596D01*
X162903755Y-96796596D02*
X162903755Y-96872786D01*
X162903755Y-96872786D02*
X162865660Y-96987072D01*
X162865660Y-96987072D02*
X162408517Y-97444215D01*
X162408517Y-97444215D02*
X162903755Y-97444215D01*
X135557142Y-74214819D02*
X135223809Y-73738628D01*
X134985714Y-74214819D02*
X134985714Y-73214819D01*
X134985714Y-73214819D02*
X135366666Y-73214819D01*
X135366666Y-73214819D02*
X135461904Y-73262438D01*
X135461904Y-73262438D02*
X135509523Y-73310057D01*
X135509523Y-73310057D02*
X135557142Y-73405295D01*
X135557142Y-73405295D02*
X135557142Y-73548152D01*
X135557142Y-73548152D02*
X135509523Y-73643390D01*
X135509523Y-73643390D02*
X135461904Y-73691009D01*
X135461904Y-73691009D02*
X135366666Y-73738628D01*
X135366666Y-73738628D02*
X134985714Y-73738628D01*
X135938095Y-73310057D02*
X135985714Y-73262438D01*
X135985714Y-73262438D02*
X136080952Y-73214819D01*
X136080952Y-73214819D02*
X136319047Y-73214819D01*
X136319047Y-73214819D02*
X136414285Y-73262438D01*
X136414285Y-73262438D02*
X136461904Y-73310057D01*
X136461904Y-73310057D02*
X136509523Y-73405295D01*
X136509523Y-73405295D02*
X136509523Y-73500533D01*
X136509523Y-73500533D02*
X136461904Y-73643390D01*
X136461904Y-73643390D02*
X135890476Y-74214819D01*
X135890476Y-74214819D02*
X136509523Y-74214819D01*
X136890476Y-73310057D02*
X136938095Y-73262438D01*
X136938095Y-73262438D02*
X137033333Y-73214819D01*
X137033333Y-73214819D02*
X137271428Y-73214819D01*
X137271428Y-73214819D02*
X137366666Y-73262438D01*
X137366666Y-73262438D02*
X137414285Y-73310057D01*
X137414285Y-73310057D02*
X137461904Y-73405295D01*
X137461904Y-73405295D02*
X137461904Y-73500533D01*
X137461904Y-73500533D02*
X137414285Y-73643390D01*
X137414285Y-73643390D02*
X136842857Y-74214819D01*
X136842857Y-74214819D02*
X137461904Y-74214819D01*
X145266667Y-72686104D02*
X145228571Y-72724200D01*
X145228571Y-72724200D02*
X145114286Y-72762295D01*
X145114286Y-72762295D02*
X145038095Y-72762295D01*
X145038095Y-72762295D02*
X144923809Y-72724200D01*
X144923809Y-72724200D02*
X144847619Y-72648009D01*
X144847619Y-72648009D02*
X144809524Y-72571819D01*
X144809524Y-72571819D02*
X144771428Y-72419438D01*
X144771428Y-72419438D02*
X144771428Y-72305152D01*
X144771428Y-72305152D02*
X144809524Y-72152771D01*
X144809524Y-72152771D02*
X144847619Y-72076580D01*
X144847619Y-72076580D02*
X144923809Y-72000390D01*
X144923809Y-72000390D02*
X145038095Y-71962295D01*
X145038095Y-71962295D02*
X145114286Y-71962295D01*
X145114286Y-71962295D02*
X145228571Y-72000390D01*
X145228571Y-72000390D02*
X145266667Y-72038485D01*
X145647619Y-72762295D02*
X145800000Y-72762295D01*
X145800000Y-72762295D02*
X145876190Y-72724200D01*
X145876190Y-72724200D02*
X145914286Y-72686104D01*
X145914286Y-72686104D02*
X145990476Y-72571819D01*
X145990476Y-72571819D02*
X146028571Y-72419438D01*
X146028571Y-72419438D02*
X146028571Y-72114676D01*
X146028571Y-72114676D02*
X145990476Y-72038485D01*
X145990476Y-72038485D02*
X145952381Y-72000390D01*
X145952381Y-72000390D02*
X145876190Y-71962295D01*
X145876190Y-71962295D02*
X145723809Y-71962295D01*
X145723809Y-71962295D02*
X145647619Y-72000390D01*
X145647619Y-72000390D02*
X145609524Y-72038485D01*
X145609524Y-72038485D02*
X145571428Y-72114676D01*
X145571428Y-72114676D02*
X145571428Y-72305152D01*
X145571428Y-72305152D02*
X145609524Y-72381342D01*
X145609524Y-72381342D02*
X145647619Y-72419438D01*
X145647619Y-72419438D02*
X145723809Y-72457533D01*
X145723809Y-72457533D02*
X145876190Y-72457533D01*
X145876190Y-72457533D02*
X145952381Y-72419438D01*
X145952381Y-72419438D02*
X145990476Y-72381342D01*
X145990476Y-72381342D02*
X146028571Y-72305152D01*
X150559580Y-114942857D02*
X150607200Y-114990476D01*
X150607200Y-114990476D02*
X150654819Y-115133333D01*
X150654819Y-115133333D02*
X150654819Y-115228571D01*
X150654819Y-115228571D02*
X150607200Y-115371428D01*
X150607200Y-115371428D02*
X150511961Y-115466666D01*
X150511961Y-115466666D02*
X150416723Y-115514285D01*
X150416723Y-115514285D02*
X150226247Y-115561904D01*
X150226247Y-115561904D02*
X150083390Y-115561904D01*
X150083390Y-115561904D02*
X149892914Y-115514285D01*
X149892914Y-115514285D02*
X149797676Y-115466666D01*
X149797676Y-115466666D02*
X149702438Y-115371428D01*
X149702438Y-115371428D02*
X149654819Y-115228571D01*
X149654819Y-115228571D02*
X149654819Y-115133333D01*
X149654819Y-115133333D02*
X149702438Y-114990476D01*
X149702438Y-114990476D02*
X149750057Y-114942857D01*
X149750057Y-114561904D02*
X149702438Y-114514285D01*
X149702438Y-114514285D02*
X149654819Y-114419047D01*
X149654819Y-114419047D02*
X149654819Y-114180952D01*
X149654819Y-114180952D02*
X149702438Y-114085714D01*
X149702438Y-114085714D02*
X149750057Y-114038095D01*
X149750057Y-114038095D02*
X149845295Y-113990476D01*
X149845295Y-113990476D02*
X149940533Y-113990476D01*
X149940533Y-113990476D02*
X150083390Y-114038095D01*
X150083390Y-114038095D02*
X150654819Y-114609523D01*
X150654819Y-114609523D02*
X150654819Y-113990476D01*
X149988152Y-113133333D02*
X150654819Y-113133333D01*
X149607200Y-113371428D02*
X150321485Y-113609523D01*
X150321485Y-113609523D02*
X150321485Y-112990476D01*
X154583214Y-78684215D02*
X154316547Y-78303262D01*
X154126071Y-78684215D02*
X154126071Y-77884215D01*
X154126071Y-77884215D02*
X154430833Y-77884215D01*
X154430833Y-77884215D02*
X154507023Y-77922310D01*
X154507023Y-77922310D02*
X154545118Y-77960405D01*
X154545118Y-77960405D02*
X154583214Y-78036596D01*
X154583214Y-78036596D02*
X154583214Y-78150881D01*
X154583214Y-78150881D02*
X154545118Y-78227072D01*
X154545118Y-78227072D02*
X154507023Y-78265167D01*
X154507023Y-78265167D02*
X154430833Y-78303262D01*
X154430833Y-78303262D02*
X154126071Y-78303262D01*
X154849880Y-77884215D02*
X155345118Y-77884215D01*
X155345118Y-77884215D02*
X155078452Y-78188977D01*
X155078452Y-78188977D02*
X155192737Y-78188977D01*
X155192737Y-78188977D02*
X155268928Y-78227072D01*
X155268928Y-78227072D02*
X155307023Y-78265167D01*
X155307023Y-78265167D02*
X155345118Y-78341358D01*
X155345118Y-78341358D02*
X155345118Y-78531834D01*
X155345118Y-78531834D02*
X155307023Y-78608024D01*
X155307023Y-78608024D02*
X155268928Y-78646120D01*
X155268928Y-78646120D02*
X155192737Y-78684215D01*
X155192737Y-78684215D02*
X154964166Y-78684215D01*
X154964166Y-78684215D02*
X154887975Y-78646120D01*
X154887975Y-78646120D02*
X154849880Y-78608024D01*
X155840357Y-77884215D02*
X155916547Y-77884215D01*
X155916547Y-77884215D02*
X155992738Y-77922310D01*
X155992738Y-77922310D02*
X156030833Y-77960405D01*
X156030833Y-77960405D02*
X156068928Y-78036596D01*
X156068928Y-78036596D02*
X156107023Y-78188977D01*
X156107023Y-78188977D02*
X156107023Y-78379453D01*
X156107023Y-78379453D02*
X156068928Y-78531834D01*
X156068928Y-78531834D02*
X156030833Y-78608024D01*
X156030833Y-78608024D02*
X155992738Y-78646120D01*
X155992738Y-78646120D02*
X155916547Y-78684215D01*
X155916547Y-78684215D02*
X155840357Y-78684215D01*
X155840357Y-78684215D02*
X155764166Y-78646120D01*
X155764166Y-78646120D02*
X155726071Y-78608024D01*
X155726071Y-78608024D02*
X155687976Y-78531834D01*
X155687976Y-78531834D02*
X155649880Y-78379453D01*
X155649880Y-78379453D02*
X155649880Y-78188977D01*
X155649880Y-78188977D02*
X155687976Y-78036596D01*
X155687976Y-78036596D02*
X155726071Y-77960405D01*
X155726071Y-77960405D02*
X155764166Y-77922310D01*
X155764166Y-77922310D02*
X155840357Y-77884215D01*
X155915200Y-110807332D02*
X155962819Y-110664475D01*
X155962819Y-110664475D02*
X155962819Y-110426380D01*
X155962819Y-110426380D02*
X155915200Y-110331142D01*
X155915200Y-110331142D02*
X155867580Y-110283523D01*
X155867580Y-110283523D02*
X155772342Y-110235904D01*
X155772342Y-110235904D02*
X155677104Y-110235904D01*
X155677104Y-110235904D02*
X155581866Y-110283523D01*
X155581866Y-110283523D02*
X155534247Y-110331142D01*
X155534247Y-110331142D02*
X155486628Y-110426380D01*
X155486628Y-110426380D02*
X155439009Y-110616856D01*
X155439009Y-110616856D02*
X155391390Y-110712094D01*
X155391390Y-110712094D02*
X155343771Y-110759713D01*
X155343771Y-110759713D02*
X155248533Y-110807332D01*
X155248533Y-110807332D02*
X155153295Y-110807332D01*
X155153295Y-110807332D02*
X155058057Y-110759713D01*
X155058057Y-110759713D02*
X155010438Y-110712094D01*
X155010438Y-110712094D02*
X154962819Y-110616856D01*
X154962819Y-110616856D02*
X154962819Y-110378761D01*
X154962819Y-110378761D02*
X155010438Y-110235904D01*
X154962819Y-109902570D02*
X155962819Y-109664475D01*
X155962819Y-109664475D02*
X155248533Y-109473999D01*
X155248533Y-109473999D02*
X155962819Y-109283523D01*
X155962819Y-109283523D02*
X154962819Y-109045428D01*
X155058057Y-108712094D02*
X155010438Y-108664475D01*
X155010438Y-108664475D02*
X154962819Y-108569237D01*
X154962819Y-108569237D02*
X154962819Y-108331142D01*
X154962819Y-108331142D02*
X155010438Y-108235904D01*
X155010438Y-108235904D02*
X155058057Y-108188285D01*
X155058057Y-108188285D02*
X155153295Y-108140666D01*
X155153295Y-108140666D02*
X155248533Y-108140666D01*
X155248533Y-108140666D02*
X155391390Y-108188285D01*
X155391390Y-108188285D02*
X155962819Y-108759713D01*
X155962819Y-108759713D02*
X155962819Y-108140666D01*
%TO.C,C28*%
D12*
X134340000Y-93515835D02*
X134340000Y-93284165D01*
X135060000Y-93515835D02*
X135060000Y-93284165D01*
%TO.C,U4*%
X128240000Y-93240000D02*
X132360000Y-93240000D01*
X128240000Y-93335000D02*
X128240000Y-93240000D01*
X128240000Y-98360000D02*
X128240000Y-98265000D01*
X132360000Y-93240000D02*
X132360000Y-93335000D01*
X132360000Y-98265000D02*
X132360000Y-98360000D01*
X132360000Y-98360000D02*
X128240000Y-98360000D01*
X127700000Y-93330000D02*
X127460000Y-93000000D01*
X127940000Y-93000000D01*
X127700000Y-93330000D01*
G36*
X127700000Y-93330000D02*
G01*
X127460000Y-93000000D01*
X127940000Y-93000000D01*
X127700000Y-93330000D01*
G37*
%TO.C,R31*%
D13*
X127925000Y-93275000D02*
G75*
G02*
X127675000Y-93275000I-125000J0D01*
G01*
X127675000Y-93275000D02*
G75*
G02*
X127925000Y-93275000I125000J0D01*
G01*
D14*
X126750000Y-91050000D02*
G75*
G02*
X126050000Y-91050000I-350000J0D01*
G01*
X126050000Y-91050000D02*
G75*
G02*
X126750000Y-91050000I350000J0D01*
G01*
D15*
X126400000Y-89350000D02*
X126400000Y-92750000D01*
%TO.C,C26*%
D12*
X138815835Y-73960000D02*
X138584165Y-73960000D01*
X138815835Y-73240000D02*
X138584165Y-73240000D01*
%TO.C,R25*%
X138532379Y-72980000D02*
X138867621Y-72980000D01*
X138532379Y-72220000D02*
X138867621Y-72220000D01*
%TO.C,U3*%
X144000000Y-118956920D02*
X144000000Y-118456920D01*
X144500000Y-118456920D01*
X144000000Y-118956920D01*
G36*
X144000000Y-118956920D02*
G01*
X144000000Y-118456920D01*
X144500000Y-118456920D01*
X144000000Y-118956920D01*
G37*
X144000000Y-125331920D02*
X144000000Y-119131920D01*
X144000000Y-125331920D02*
X125600000Y-125331920D01*
X144000000Y-100481920D02*
X144000000Y-99481920D01*
X144000000Y-99481920D02*
X142500000Y-99481920D01*
X125600000Y-125331920D02*
X125600000Y-119131920D01*
X125600000Y-99481920D02*
X127100000Y-99481920D01*
X125600000Y-99481920D02*
X125600000Y-100481920D01*
%TO.C,J2*%
X121980000Y-100360000D02*
X121980000Y-99360000D01*
X121980000Y-99360000D02*
X120980000Y-99860000D01*
X120980000Y-99860000D02*
X121980000Y-100360000D01*
X120590000Y-105070000D02*
X111470000Y-105070000D01*
X120590000Y-90480000D02*
X119280000Y-90480000D01*
X120590000Y-71790000D02*
X120590000Y-105070000D01*
X119280000Y-103770000D02*
X112780000Y-103770000D01*
X119280000Y-90480000D02*
X119280000Y-103770000D01*
X119280000Y-86380000D02*
X120590000Y-86380000D01*
X119280000Y-73090000D02*
X119280000Y-86380000D01*
X112780000Y-103770000D02*
X112780000Y-73090000D01*
X112780000Y-73090000D02*
X119280000Y-73090000D01*
X111470000Y-105070000D02*
X111470000Y-71790000D01*
X111470000Y-71790000D02*
X120590000Y-71790000D01*
%TO.C,R33*%
D13*
X127925000Y-85175000D02*
G75*
G02*
X127675000Y-85175000I-125000J0D01*
G01*
X127675000Y-85175000D02*
G75*
G02*
X127925000Y-85175000I125000J0D01*
G01*
D15*
X126400000Y-81250000D02*
X126400000Y-84650000D01*
D14*
X126750000Y-82950000D02*
G75*
G02*
X126050000Y-82950000I-350000J0D01*
G01*
X126050000Y-82950000D02*
G75*
G02*
X126750000Y-82950000I350000J0D01*
G01*
%TO.C,R32*%
D13*
X127925000Y-81175000D02*
G75*
G02*
X127675000Y-81175000I-125000J0D01*
G01*
X127675000Y-81175000D02*
G75*
G02*
X127925000Y-81175000I125000J0D01*
G01*
D15*
X126400000Y-77250000D02*
X126400000Y-80650000D01*
D14*
X126750000Y-78950000D02*
G75*
G02*
X126050000Y-78950000I-350000J0D01*
G01*
X126050000Y-78950000D02*
G75*
G02*
X126750000Y-78950000I350000J0D01*
G01*
%TO.C,IC2*%
D12*
X159300000Y-78741920D02*
X158500000Y-78741920D01*
X159300000Y-78741920D02*
X160100000Y-78741920D01*
X160300000Y-75521920D02*
X158500000Y-75521920D01*
X160840000Y-79021920D02*
X160360000Y-79021920D01*
X160600000Y-78691920D01*
X160840000Y-79021920D01*
G36*
X160840000Y-79021920D02*
G01*
X160360000Y-79021920D01*
X160600000Y-78691920D01*
X160840000Y-79021920D01*
G37*
%TO.C,C18*%
X162211748Y-85125000D02*
X162734252Y-85125000D01*
X162211748Y-86595000D02*
X162734252Y-86595000D01*
%TO.C,U1*%
X138090000Y-77021920D02*
X139040000Y-77021920D01*
X138090000Y-77971920D02*
X138090000Y-77021920D01*
X138090000Y-87241920D02*
X138090000Y-86291920D01*
X139040000Y-87241920D02*
X138090000Y-87241920D01*
X147360000Y-77021920D02*
X148310000Y-77021920D01*
X148310000Y-77021920D02*
X148310000Y-77971920D01*
X148310000Y-86291920D02*
X148310000Y-87241920D01*
X148310000Y-87241920D02*
X147360000Y-87241920D01*
X137450000Y-77971920D02*
X137110000Y-77501920D01*
X137790000Y-77501920D01*
X137450000Y-77971920D01*
G36*
X137450000Y-77971920D02*
G01*
X137110000Y-77501920D01*
X137790000Y-77501920D01*
X137450000Y-77971920D01*
G37*
%TO.C,R15*%
X159032379Y-95201920D02*
X159367621Y-95201920D01*
X159032379Y-95961920D02*
X159367621Y-95961920D01*
%TO.C,R13*%
X167272000Y-107383500D02*
X168772000Y-107383500D01*
X168772000Y-107383500D02*
X168772000Y-107783500D01*
X168772000Y-109183500D02*
X168772000Y-112383500D01*
X168772000Y-113833500D02*
X168772000Y-114183500D01*
X168772000Y-114183500D02*
X167272000Y-114183500D01*
X171047000Y-114673500D02*
X170567000Y-114673500D01*
X170807000Y-114343500D01*
X171047000Y-114673500D01*
G36*
X171047000Y-114673500D02*
G01*
X170567000Y-114673500D01*
X170807000Y-114343500D01*
X171047000Y-114673500D01*
G37*
%TO.C,C7*%
X146290000Y-91016085D02*
X146290000Y-91247755D01*
X147010000Y-91016085D02*
X147010000Y-91247755D01*
%TO.C,Q1*%
X164627500Y-98271920D02*
X165627500Y-98271920D01*
X164627500Y-99791920D02*
X164627500Y-98271920D01*
X164677500Y-99791920D02*
X164627500Y-99791920D01*
X166577500Y-99791920D02*
X165797500Y-99791920D01*
X166747500Y-98271920D02*
X167747500Y-98271920D01*
X167747500Y-98271920D02*
X167747500Y-99791920D01*
X167747500Y-99791920D02*
X167697500Y-99791920D01*
X166137500Y-100571920D02*
X165807500Y-100331920D01*
X166137500Y-100091920D01*
X166137500Y-100571920D01*
G36*
X166137500Y-100571920D02*
G01*
X165807500Y-100331920D01*
X166137500Y-100091920D01*
X166137500Y-100571920D01*
G37*
%TO.C,U6*%
X158190000Y-79271920D02*
X160010000Y-79271920D01*
X158190000Y-79321920D02*
X158190000Y-79271920D01*
X158190000Y-81221920D02*
X158190000Y-80441920D01*
X158190000Y-82391920D02*
X158190000Y-82341920D01*
X160010000Y-79271920D02*
X160010000Y-79321920D01*
X160010000Y-82341920D02*
X160010000Y-82391920D01*
X160010000Y-82391920D02*
X158190000Y-82391920D01*
X160790000Y-82671920D02*
X160310000Y-82671920D01*
X160550000Y-82341920D01*
X160790000Y-82671920D01*
G36*
X160790000Y-82671920D02*
G01*
X160310000Y-82671920D01*
X160550000Y-82341920D01*
X160790000Y-82671920D01*
G37*
%TO.C,D1*%
X156852500Y-99281920D02*
X156852500Y-101566920D01*
X156852500Y-101566920D02*
X158322500Y-101566920D01*
X158322500Y-101566920D02*
X158322500Y-99281920D01*
%TO.C,SW1*%
X156755000Y-103602000D02*
X159475000Y-103602000D01*
X159475000Y-113822000D01*
X156755000Y-113822000D01*
X156755000Y-103602000D01*
%TO.C,R27*%
X152617621Y-81351920D02*
X152282379Y-81351920D01*
X152617621Y-82111920D02*
X152282379Y-82111920D01*
%TO.C,C8*%
X143515835Y-73171920D02*
X143284165Y-73171920D01*
X143515835Y-73891920D02*
X143284165Y-73891920D01*
%TO.C,C16*%
X162234232Y-93466085D02*
X162234232Y-93697755D01*
X162954232Y-93466085D02*
X162954232Y-93697755D01*
%TO.C,C15*%
X159084165Y-91471920D02*
X159315835Y-91471920D01*
X159084165Y-92191920D02*
X159315835Y-92191920D01*
%TO.C,R19*%
X140853179Y-72922400D02*
X141188421Y-72922400D01*
X140853179Y-72162400D02*
X141188421Y-72162400D01*
%TO.C,R23*%
D15*
X126400000Y-85300000D02*
X126400000Y-88700000D01*
D14*
X126750000Y-87000000D02*
G75*
G02*
X126050000Y-87000000I-350000J0D01*
G01*
X126050000Y-87000000D02*
G75*
G02*
X126750000Y-87000000I350000J0D01*
G01*
D13*
X127925000Y-89225000D02*
G75*
G02*
X127675000Y-89225000I-125000J0D01*
G01*
X127675000Y-89225000D02*
G75*
G02*
X127925000Y-89225000I125000J0D01*
G01*
%TO.C,C17*%
D12*
X162211748Y-87325000D02*
X162734252Y-87325000D01*
X162211748Y-88795000D02*
X162734252Y-88795000D01*
%TO.C,D2*%
X168347500Y-101481920D02*
X164337500Y-101481920D01*
X168347500Y-103481920D02*
X164337500Y-103481920D01*
X168347500Y-103481920D02*
X168347500Y-101481920D01*
%TO.C,U7*%
X161044000Y-120764000D02*
X162044000Y-120764000D01*
X161044000Y-123584000D02*
X161834000Y-123584000D01*
X162164000Y-123864000D02*
X162164000Y-123584000D01*
X162444000Y-123584000D01*
X162164000Y-123864000D01*
G36*
X162164000Y-123864000D02*
G01*
X162164000Y-123584000D01*
X162444000Y-123584000D01*
X162164000Y-123864000D01*
G37*
%TO.C,R28*%
X152617621Y-79951920D02*
X152282379Y-79951920D01*
X152617621Y-80711920D02*
X152282379Y-80711920D01*
%TO.C,C6*%
X144040000Y-91820668D02*
X144040000Y-93243172D01*
X145860000Y-91820668D02*
X145860000Y-93243172D01*
%TO.C,R21*%
X122332379Y-100751920D02*
X122667621Y-100751920D01*
X122332379Y-101511920D02*
X122667621Y-101511920D01*
%TO.C,C10*%
X142890000Y-91016085D02*
X142890000Y-91247755D01*
X143610000Y-91016085D02*
X143610000Y-91247755D01*
%TO.C,R17*%
X160367621Y-74251920D02*
X160032379Y-74251920D01*
X160367621Y-75011920D02*
X160032379Y-75011920D01*
%TO.C,R10*%
X158727500Y-100366085D02*
X158727500Y-100597755D01*
X159447500Y-100366085D02*
X159447500Y-100597755D01*
%TO.C,L2*%
X163390000Y-90521920D02*
X165090000Y-90521920D01*
X163390000Y-96241920D02*
X163390000Y-90521920D01*
X165090000Y-96241920D02*
X163390000Y-96241920D01*
X167210000Y-90521920D02*
X168910000Y-90521920D01*
X168910000Y-90521920D02*
X168910000Y-96241920D01*
X168910000Y-96241920D02*
X167210000Y-96241920D01*
%TO.C,R16*%
X159032379Y-92701920D02*
X159367621Y-92701920D01*
X159032379Y-93461920D02*
X159367621Y-93461920D01*
%TO.C,C22*%
X153840000Y-76547755D02*
X153840000Y-76316085D01*
X154560000Y-76547755D02*
X154560000Y-76316085D01*
%TO.C,F1*%
X156735200Y-85079636D02*
X156735200Y-89183764D01*
X160155200Y-85079636D02*
X160155200Y-89183764D01*
%TO.C,C21*%
X151990000Y-76078187D02*
X151990000Y-75785653D01*
X153010000Y-76078187D02*
X153010000Y-75785653D01*
%TO.C,IC1*%
X160815000Y-91507488D02*
X160815000Y-90371920D01*
X162685000Y-90371920D02*
X162685000Y-91791920D01*
X160810000Y-91801920D02*
X160620000Y-91941920D01*
X160620000Y-91661920D01*
X160810000Y-91801920D01*
G36*
X160810000Y-91801920D02*
G01*
X160620000Y-91941920D01*
X160620000Y-91661920D01*
X160810000Y-91801920D01*
G37*
%TO.C,C13*%
X161953335Y-105421920D02*
X161721665Y-105421920D01*
X161953335Y-106141920D02*
X161721665Y-106141920D01*
%TO.C,C1*%
X141890000Y-91247755D02*
X141890000Y-91016085D01*
X142610000Y-91247755D02*
X142610000Y-91016085D01*
%TO.C,U2*%
X159877500Y-101671920D02*
X159927500Y-101671920D01*
X159877500Y-103491920D02*
X159877500Y-101671920D01*
X159927500Y-103491920D02*
X159877500Y-103491920D01*
X161047500Y-101671920D02*
X161827500Y-101671920D01*
X162947500Y-101671920D02*
X162997500Y-101671920D01*
X162997500Y-101671920D02*
X162997500Y-103491920D01*
X162997500Y-103491920D02*
X162947500Y-103491920D01*
X159927500Y-104031920D02*
X159597500Y-104271920D01*
X159597500Y-103791920D01*
X159927500Y-104031920D01*
G36*
X159927500Y-104031920D02*
G01*
X159597500Y-104271920D01*
X159597500Y-103791920D01*
X159927500Y-104031920D01*
G37*
%TO.C,R14*%
X159367621Y-93951920D02*
X159032379Y-93951920D01*
X159367621Y-94711920D02*
X159032379Y-94711920D01*
%TO.C,R12*%
X141188421Y-73989200D02*
X140853179Y-73989200D01*
X141188421Y-73229200D02*
X140853179Y-73229200D01*
%TO.C,R29*%
X152617621Y-78951920D02*
X152282379Y-78951920D01*
X152617621Y-79711920D02*
X152282379Y-79711920D01*
%TO.C,R9*%
X158253335Y-102221920D02*
X158021665Y-102221920D01*
X158253335Y-102941920D02*
X158021665Y-102941920D01*
%TO.C,C19*%
X162211748Y-82925000D02*
X162734252Y-82925000D01*
X162211748Y-84395000D02*
X162734252Y-84395000D01*
%TO.C,R11*%
X161734165Y-97771920D02*
X161965835Y-97771920D01*
X161734165Y-98491920D02*
X161965835Y-98491920D01*
%TO.C,C11*%
X140890000Y-91247755D02*
X140890000Y-91016085D01*
X141610000Y-91247755D02*
X141610000Y-91016085D01*
%TO.C,R18*%
X162229879Y-79451920D02*
X162565121Y-79451920D01*
X162229879Y-80211920D02*
X162565121Y-80211920D01*
%TO.C,J1*%
X166490000Y-79821920D02*
X166490000Y-82321920D01*
X168290000Y-80121920D02*
X168290000Y-81121920D01*
X168290000Y-81121920D02*
X166790000Y-81121920D01*
X168290000Y-86841920D02*
X166790000Y-86841920D01*
X168290000Y-87841920D02*
X168290000Y-86841920D01*
X168990000Y-79821920D02*
X166490000Y-79821920D01*
X169100000Y-80121920D02*
X169100000Y-80621920D01*
X169100000Y-80621920D02*
X170310000Y-80621920D01*
X169100000Y-87341920D02*
X169100000Y-87841920D01*
X170310000Y-80621920D02*
X170310000Y-87341920D01*
X170310000Y-87341920D02*
X169100000Y-87341920D01*
X166790000Y-80121920D02*
X170810000Y-80121920D01*
X170810000Y-87841920D01*
X166790000Y-87841920D01*
X166790000Y-80121920D01*
%TO.C,R20*%
X146767621Y-114751920D02*
X146432379Y-114751920D01*
X146767621Y-115511920D02*
X146432379Y-115511920D01*
%TO.C,P1*%
X166490000Y-127547000D02*
X168410000Y-127547000D01*
X168410000Y-118387000D02*
X166490000Y-118387000D01*
X170420000Y-118387000D02*
X172125000Y-118387000D01*
X172125000Y-118387000D02*
X172125000Y-127547000D01*
X172125000Y-127547000D02*
X170420000Y-127547000D01*
%TO.C,TP1*%
X153900000Y-85131920D02*
G75*
G02*
X152500000Y-85131920I-700000J0D01*
G01*
X152500000Y-85131920D02*
G75*
G02*
X153900000Y-85131920I700000J0D01*
G01*
%TO.C,R26*%
X145732379Y-72951920D02*
X146067621Y-72951920D01*
X145732379Y-73711920D02*
X146067621Y-73711920D01*
%TO.C,R24*%
X161819000Y-124852165D02*
X161819000Y-125083835D01*
X162539000Y-124852165D02*
X162539000Y-125083835D01*
%TO.C,C12*%
X161965835Y-98971920D02*
X161734165Y-98971920D01*
X161965835Y-99691920D02*
X161734165Y-99691920D01*
%TO.C,R22*%
X136315835Y-72240000D02*
X136084165Y-72240000D01*
X136315835Y-72960000D02*
X136084165Y-72960000D01*
%TO.C,C9*%
X143515835Y-72171920D02*
X143284165Y-72171920D01*
X143515835Y-72891920D02*
X143284165Y-72891920D01*
%TO.C,C24*%
X148540000Y-114615835D02*
X148540000Y-114384165D01*
X149260000Y-114615835D02*
X149260000Y-114384165D01*
%TO.C,R30*%
X152617621Y-77951920D02*
X152282379Y-77951920D01*
X152617621Y-78711920D02*
X152282379Y-78711920D01*
%TO.C,SW2*%
X151208000Y-107274000D02*
X151208000Y-111674000D01*
X151208000Y-111674000D02*
X151328000Y-111674000D01*
X151328000Y-107274000D02*
X151208000Y-107274000D01*
X152338000Y-111674000D02*
X153478000Y-111674000D01*
X153478000Y-107274000D02*
X152338000Y-107274000D01*
X154488000Y-111674000D02*
X154608000Y-111674000D01*
X154608000Y-107274000D02*
X154488000Y-107274000D01*
X154608000Y-111674000D02*
X154608000Y-107274000D01*
%TD*%
M02*
