%TF.GenerationSoftware,KiCad,Pcbnew,10.0.1*%
%TF.CreationDate,2026-07-13T19:05:01+03:00*%
%TF.ProjectId,ads1299_test_board,61647331-3239-4395-9f74-6573745f626f,rev?*%
%TF.SameCoordinates,Original*%
%TF.FileFunction,Copper,L2,Bot*%
%TF.FilePolarity,Positive*%
%FSLAX46Y46*%
G04 Gerber Fmt 4.6, Leading zero omitted, Abs format (unit mm)*
G04 Created by KiCad (PCBNEW 10.0.1) date 2026-07-13 19:05:01*
%MOMM*%
%LPD*%
G01*
G04 APERTURE LIST*
G04 Aperture macros list*
%AMRoundRect*
0 Rectangle with rounded corners*
0 $1 Rounding radius*
0 $2 $3 $4 $5 $6 $7 $8 $9 X,Y pos of 4 corners*
0 Add a 4 corners polygon primitive as box body*
4,1,4,$2,$3,$4,$5,$6,$7,$8,$9,$2,$3,0*
0 Add four circle primitives for the rounded corners*
1,1,$1+$1,$2,$3*
1,1,$1+$1,$4,$5*
1,1,$1+$1,$6,$7*
1,1,$1+$1,$8,$9*
0 Add four rect primitives between the rounded corners*
20,1,$1+$1,$2,$3,$4,$5,0*
20,1,$1+$1,$4,$5,$6,$7,0*
20,1,$1+$1,$6,$7,$8,$9,0*
20,1,$1+$1,$8,$9,$2,$3,0*%
G04 Aperture macros list end*
%TA.AperFunction,ComponentPad*%
%ADD10R,1.500000X1.500000*%
%TD*%
%TA.AperFunction,ComponentPad*%
%ADD11C,1.600000*%
%TD*%
%TA.AperFunction,HeatsinkPad*%
%ADD12C,0.600000*%
%TD*%
%TA.AperFunction,ComponentPad*%
%ADD13RoundRect,0.250001X1.399999X-1.099999X1.399999X1.099999X-1.399999X1.099999X-1.399999X-1.099999X0*%
%TD*%
%TA.AperFunction,ComponentPad*%
%ADD14O,3.300000X2.700000*%
%TD*%
%TA.AperFunction,ComponentPad*%
%ADD15RoundRect,0.250000X-0.750000X0.600000X-0.750000X-0.600000X0.750000X-0.600000X0.750000X0.600000X0*%
%TD*%
%TA.AperFunction,ComponentPad*%
%ADD16O,2.000000X1.700000*%
%TD*%
%TA.AperFunction,ComponentPad*%
%ADD17O,2.100000X1.000000*%
%TD*%
%TA.AperFunction,ComponentPad*%
%ADD18O,1.800000X1.000000*%
%TD*%
%TA.AperFunction,ViaPad*%
%ADD19C,0.600000*%
%TD*%
%TA.AperFunction,Conductor*%
%ADD20C,0.200000*%
%TD*%
%TA.AperFunction,Conductor*%
%ADD21C,0.300000*%
%TD*%
G04 APERTURE END LIST*
D10*
%TO.P,SW1,1,B_1*%
%TO.N,/USB/Vbus*%
X163340000Y-108431920D03*
D11*
%TO.P,SW1,2,C_2*%
%TO.N,unconnected-(SW1-C-Pad2)*%
X165880000Y-108431920D03*
%TO.P,SW1,3,A_3*%
%TO.N,Net-(SW1-A)*%
X160800000Y-108431920D03*
%TD*%
D12*
%TO.P,U3,41,GND_41*%
%TO.N,GNDD*%
X137700000Y-110671920D03*
X137700000Y-109271920D03*
X137000000Y-111371920D03*
X137000000Y-109971920D03*
X137000000Y-108571920D03*
X136300000Y-110671920D03*
X136300000Y-109271920D03*
X135600000Y-111371920D03*
X135600000Y-109971920D03*
X135600000Y-108571920D03*
X134900000Y-110671920D03*
X134900000Y-109271920D03*
%TD*%
D13*
%TO.P,J3,1,Pin_1_1*%
%TO.N,/ads1299_AFE_/Bias_electrode*%
X109700000Y-94881920D03*
D14*
%TO.P,J3,2,Pin_2_2*%
%TO.N,/ads1299_AFE_/IN1N*%
X109700000Y-90681920D03*
%TO.P,J3,3,Pin_3_3*%
%TO.N,/ads1299_AFE_/IN2N*%
X109700000Y-86481920D03*
%TO.P,J3,4,Pin_4_4*%
%TO.N,/ads1299_AFE_/IN3N*%
X109700000Y-82281920D03*
%TO.P,J3,5,Pin_5_5*%
%TO.N,/ads1299_AFE_/IN4N*%
X109700000Y-78081920D03*
%TO.P,J3,6,Pin_6_6*%
%TO.N,/ads1299_AFE_/Ref_electrode*%
X115200000Y-94881920D03*
%TO.P,J3,7,Pin_7_7*%
%TO.N,/ads1299_AFE_/IN1P*%
X115200000Y-90681920D03*
%TO.P,J3,8,Pin_8_8*%
%TO.N,/ads1299_AFE_/IN2P*%
X115200000Y-86481920D03*
%TO.P,J3,9,Pin_9_9*%
%TO.N,/ads1299_AFE_/IN3P*%
X115200000Y-82281920D03*
%TO.P,J3,10,Pin_10_10*%
%TO.N,/ads1299_AFE_/IN4P*%
X115200000Y-78081920D03*
%TD*%
D15*
%TO.P,J1,1,Pin_1_1*%
%TO.N,GND*%
X169100000Y-82731920D03*
D16*
%TO.P,J1,2,Pin_2_2*%
%TO.N,Net-(J1-Pin_2)*%
X169100000Y-85231920D03*
%TD*%
D17*
%TO.P,P1,SH,SHIELD_SH*%
%TO.N,GND*%
X161375000Y-119951920D03*
D18*
X165575000Y-119951920D03*
D17*
X161375000Y-111311920D03*
D18*
X165575000Y-111311920D03*
%TD*%
D19*
%TO.N,GND*%
X160100000Y-99031920D03*
X164200000Y-83231920D03*
X164200000Y-88631920D03*
X154000000Y-80331920D03*
X141300000Y-92831920D03*
X165100000Y-85031920D03*
X142200000Y-93731920D03*
X163600000Y-77131920D03*
X165100000Y-87731920D03*
X134900000Y-92331920D03*
X124100000Y-96431920D03*
X134500000Y-85331920D03*
X143500000Y-86331920D03*
X165100000Y-83231920D03*
X162600000Y-77131920D03*
X165100000Y-85931920D03*
X141200000Y-89231920D03*
X143100000Y-93731920D03*
X164200000Y-85931920D03*
X146600000Y-92831920D03*
X165100000Y-84131920D03*
X160200000Y-105731920D03*
X157300000Y-94331920D03*
X142200000Y-94531920D03*
X144300000Y-86331920D03*
X146600000Y-94531920D03*
X163100000Y-89931920D03*
X164200000Y-84131920D03*
X160100000Y-98231920D03*
X141300000Y-94531920D03*
X143100000Y-94531920D03*
X159200000Y-99031920D03*
X142200000Y-92831920D03*
X160600000Y-100131920D03*
X133400000Y-74800000D03*
X161400000Y-100131920D03*
X143100000Y-92831920D03*
X142700000Y-86331920D03*
X141300000Y-93731920D03*
X164600000Y-77131920D03*
X165100000Y-86831920D03*
X146600000Y-93731920D03*
X164200000Y-86831920D03*
X154000000Y-78931920D03*
X162500000Y-95131920D03*
X154000000Y-81731920D03*
X134500000Y-82331920D03*
X142800000Y-74331920D03*
X146700000Y-86331920D03*
X164200000Y-85031920D03*
X142800000Y-75131920D03*
X159100000Y-114031920D03*
X154000000Y-81031920D03*
X154000000Y-79631920D03*
X159200000Y-98231920D03*
X134500000Y-81431920D03*
X144600000Y-74831920D03*
X155900000Y-113531920D03*
X164200000Y-87731920D03*
X134500000Y-86031920D03*
%TO.N,GNDD*%
X135200000Y-117731920D03*
X131600000Y-117731920D03*
X128905000Y-117729000D03*
X164300000Y-80931920D03*
X137922000Y-117729000D03*
X161800000Y-80831920D03*
X129800000Y-117731920D03*
X140589000Y-117729000D03*
X165200000Y-80931920D03*
X137000000Y-117731920D03*
X153500000Y-74831920D03*
X162600000Y-80831920D03*
X165200000Y-81731920D03*
X149400000Y-112800000D03*
X164300000Y-81731920D03*
X132500000Y-117731920D03*
X163400000Y-80831920D03*
X145900000Y-74631920D03*
X139700000Y-117731920D03*
X138800000Y-117731920D03*
X134300000Y-117731920D03*
X136100000Y-117731920D03*
X154200000Y-74831920D03*
X130700000Y-117731920D03*
X141478000Y-117729000D03*
X147050000Y-75081920D03*
X150100000Y-86731920D03*
X128016000Y-117731920D03*
X133400000Y-117731920D03*
X151400000Y-82831920D03*
%TO.N,/ESP32_S3_WROOM/Start*%
X145290000Y-111341920D03*
X147800000Y-111231920D03*
%TO.N,/ESP32_S3_WROOM/CS*%
X147900000Y-95231920D03*
X146442000Y-96910320D03*
%TO.N,/ESP32_S3_WROOM/DOUT*%
X142650000Y-85081920D03*
X140000000Y-91731920D03*
%TO.N,/ESP32_S3_WROOM/DRDY*%
X150700000Y-78331920D03*
X155300000Y-77631920D03*
%TO.N,/ads1299_AFE_/DVDD*%
X146500000Y-77700000D03*
X129900000Y-102831920D03*
X146900000Y-79500000D03*
X122300000Y-102831920D03*
%TO.N,/ads1299_AFE_/Bias_out*%
X129300000Y-75431920D03*
X120900000Y-97831920D03*
%TO.N,/ESP32_S3_WROOM/USB_D+*%
X147166031Y-104293969D03*
X154400000Y-114431920D03*
%TO.N,/ESP32_S3_WROOM/USB_D-*%
X155303554Y-114328366D03*
X146630585Y-103051415D03*
%TD*%
%TO.N,/ESP32_S3_WROOM/USB_D+*%
D20*
X154400000Y-111531920D02*
X154400000Y-114431920D01*
X147166031Y-104293969D02*
X148055031Y-105182969D01*
X148055031Y-105182969D02*
X148055031Y-105186951D01*
X148055031Y-105186951D02*
X154400000Y-111531920D01*
%TO.N,/ESP32_S3_WROOM/USB_D-*%
X155303554Y-111724384D02*
X155303554Y-114328366D01*
X146630585Y-103051415D02*
X155303554Y-111724384D01*
%TO.N,/ESP32_S3_WROOM/Start*%
X145400000Y-111231920D02*
X145290000Y-111341920D01*
X147800000Y-111231920D02*
X145400000Y-111231920D01*
%TO.N,/ESP32_S3_WROOM/CS*%
X147900000Y-95452320D02*
X147900000Y-95231920D01*
X146442000Y-96910320D02*
X147900000Y-95452320D01*
%TO.N,/ESP32_S3_WROOM/DOUT*%
X142650000Y-85081920D02*
X140000000Y-87731920D01*
X140000000Y-87731920D02*
X140000000Y-91731920D01*
%TO.N,/ESP32_S3_WROOM/DRDY*%
X151400000Y-77631920D02*
X150700000Y-78331920D01*
X155300000Y-77631920D02*
X151400000Y-77631920D01*
%TO.N,/ads1299_AFE_/DVDD*%
D21*
X146500000Y-78100000D02*
X146900000Y-78500000D01*
X146900000Y-78500000D02*
X146900000Y-79500000D01*
X146500000Y-77700000D02*
X146500000Y-78100000D01*
X129900000Y-102831920D02*
X122300000Y-102831920D01*
%TO.N,/ads1299_AFE_/Bias_out*%
D20*
X128000000Y-90731920D02*
X128000000Y-76731920D01*
X120900000Y-97831920D02*
X128000000Y-90731920D01*
X128000000Y-76731920D02*
X129300000Y-75431920D01*
%TD*%
%TA.AperFunction,Conductor*%
%TO.N,GND*%
G36*
X155247273Y-78032420D02*
G01*
X155352727Y-78032420D01*
X155354593Y-78031920D01*
X155405032Y-78031920D01*
X155429412Y-78031920D01*
X155419685Y-78041195D01*
X155400000Y-78108234D01*
X155400000Y-80007920D01*
X155411206Y-80059431D01*
X155456961Y-80112235D01*
X155524000Y-80131920D01*
X156500000Y-80131920D01*
X156500000Y-81907920D01*
X156480315Y-81974959D01*
X156427511Y-82020714D01*
X156376000Y-82031920D01*
X152824000Y-82031920D01*
X152756961Y-82012235D01*
X152711206Y-81959431D01*
X152700000Y-81907920D01*
X152700000Y-78155920D01*
X152719685Y-78088881D01*
X152772489Y-78043126D01*
X152824000Y-78031920D01*
X155245407Y-78031920D01*
X155247273Y-78032420D01*
G37*
%TD.AperFunction*%
%TD*%
%TA.AperFunction,Conductor*%
%TO.N,GND*%
G36*
X147680315Y-94882098D02*
G01*
X147659197Y-94905056D01*
X147659834Y-94905693D01*
X147579521Y-94986005D01*
X147526794Y-95077330D01*
X147526793Y-95077333D01*
X147499500Y-95179193D01*
X147499500Y-95284646D01*
X147526793Y-95386506D01*
X147526794Y-95386509D01*
X147536124Y-95402669D01*
X147552597Y-95470570D01*
X147529744Y-95536596D01*
X147516418Y-95552350D01*
X146594717Y-96474051D01*
X146533394Y-96507536D01*
X146502854Y-96508810D01*
X146502854Y-96509820D01*
X146389273Y-96509820D01*
X146287413Y-96537113D01*
X146287410Y-96537114D01*
X146196085Y-96589841D01*
X146121521Y-96664405D01*
X146068794Y-96755730D01*
X146068793Y-96755733D01*
X146041500Y-96857593D01*
X146041500Y-96963047D01*
X146068793Y-97064907D01*
X146121520Y-97156233D01*
X146196087Y-97230800D01*
X146249523Y-97261651D01*
X146266773Y-97279742D01*
X146286787Y-97294724D01*
X146290467Y-97304592D01*
X146297736Y-97312215D01*
X146302467Y-97336763D01*
X146311205Y-97360188D01*
X146308966Y-97370479D01*
X146310960Y-97380822D01*
X146301667Y-97404033D01*
X146296354Y-97428461D01*
X146286754Y-97441284D01*
X146284992Y-97445687D01*
X146275203Y-97456716D01*
X146236320Y-97495600D01*
X146174998Y-97529086D01*
X146148638Y-97531920D01*
X142800000Y-97531920D01*
X142800000Y-94831920D01*
X147695049Y-94831920D01*
X147680315Y-94882098D01*
G37*
%TD.AperFunction*%
%TD*%
%TA.AperFunction,Conductor*%
%TO.N,GNDD*%
G36*
X165493106Y-80405023D02*
G01*
X165508104Y-80409427D01*
X165523094Y-80419057D01*
X165540175Y-80424067D01*
X165566855Y-80447172D01*
X165568042Y-80448541D01*
X165595518Y-80503402D01*
X165597163Y-80510960D01*
X165600000Y-80537331D01*
X165600000Y-81858170D01*
X165594975Y-81893114D01*
X165590570Y-81908112D01*
X165580939Y-81923101D01*
X165575932Y-81940175D01*
X165552827Y-81966855D01*
X165551458Y-81968042D01*
X165496597Y-81995518D01*
X165489039Y-81997163D01*
X165462668Y-82000000D01*
X162099998Y-82000000D01*
X162013750Y-82077622D01*
X162009580Y-82081374D01*
X161988524Y-82097138D01*
X161956640Y-82129020D01*
X161954200Y-82131217D01*
X161100000Y-82899998D01*
X161100000Y-87732697D01*
X161099999Y-87732700D01*
X161100000Y-87732702D01*
X161094976Y-87767637D01*
X161087394Y-87793455D01*
X161058362Y-87843873D01*
X155766095Y-93420462D01*
X155766083Y-93420475D01*
X153992980Y-95288296D01*
X154019323Y-109839223D01*
X154014365Y-109874161D01*
X154011199Y-109885018D01*
X153973534Y-109943866D01*
X153910032Y-109973009D01*
X153840855Y-109963194D01*
X153833932Y-109960047D01*
X153797561Y-109934842D01*
X147079460Y-103216740D01*
X147058310Y-103188488D01*
X147047225Y-103168187D01*
X147032164Y-103113920D01*
X147032096Y-103112269D01*
X147032095Y-103112269D01*
X147031192Y-103090565D01*
X147031085Y-103085408D01*
X147031085Y-102998690D01*
X147031085Y-102998688D01*
X147003792Y-102896828D01*
X146951065Y-102805502D01*
X146876498Y-102730935D01*
X146809644Y-102692337D01*
X146785174Y-102678209D01*
X146785173Y-102678208D01*
X146785172Y-102678208D01*
X146683312Y-102650915D01*
X146683311Y-102650915D01*
X146577858Y-102650915D01*
X146475998Y-102678207D01*
X146475993Y-102678210D01*
X146384673Y-102730933D01*
X146384667Y-102730938D01*
X146310108Y-102805497D01*
X146310103Y-102805503D01*
X146257380Y-102896823D01*
X146257377Y-102896828D01*
X146230085Y-102998688D01*
X146230085Y-103104142D01*
X146247247Y-103168190D01*
X146257378Y-103206001D01*
X146257379Y-103206004D01*
X146271507Y-103230474D01*
X146310105Y-103297328D01*
X146384672Y-103371895D01*
X146475998Y-103424622D01*
X146577858Y-103451915D01*
X146577860Y-103451915D01*
X146666548Y-103451915D01*
X146685646Y-103453394D01*
X146691439Y-103454296D01*
X146691439Y-103454298D01*
X146719896Y-103458733D01*
X146772113Y-103479815D01*
X146774533Y-103481517D01*
X146782525Y-103488236D01*
X146783099Y-103488507D01*
X146783379Y-103488954D01*
X146790890Y-103495270D01*
X147014493Y-103718873D01*
X147035644Y-103747126D01*
X147042296Y-103759308D01*
X147046086Y-103776732D01*
X147054631Y-103792382D01*
X147053358Y-103810161D01*
X147057148Y-103827581D01*
X147050916Y-103844288D01*
X147049644Y-103862073D01*
X147032733Y-103893041D01*
X147032732Y-103893046D01*
X147032729Y-103893050D01*
X147027633Y-103899857D01*
X146990369Y-103932930D01*
X146920112Y-103973493D01*
X146845554Y-104048051D01*
X146845549Y-104048057D01*
X146792826Y-104139377D01*
X146792823Y-104139382D01*
X146765531Y-104241242D01*
X146765531Y-104346696D01*
X146792824Y-104448556D01*
X146845551Y-104539882D01*
X146920118Y-104614449D01*
X147011444Y-104667176D01*
X147113304Y-104694469D01*
X147113306Y-104694469D01*
X147201994Y-104694469D01*
X147221092Y-104695948D01*
X147226885Y-104696850D01*
X147226885Y-104696852D01*
X147255342Y-104701287D01*
X147307559Y-104722369D01*
X147309979Y-104724071D01*
X147317971Y-104730790D01*
X147318545Y-104731061D01*
X147318825Y-104731508D01*
X147326336Y-104737824D01*
X147864086Y-105275574D01*
X147872255Y-105284586D01*
X147879952Y-105293964D01*
X147882600Y-105297535D01*
X147885057Y-105300529D01*
X152458691Y-109874161D01*
X153973384Y-111388854D01*
X153994533Y-111417105D01*
X154007160Y-111440228D01*
X154022330Y-111499433D01*
X154027311Y-114250609D01*
X154026264Y-114266911D01*
X154024160Y-114283002D01*
X154020982Y-114299017D01*
X153999500Y-114379191D01*
X153999500Y-114484651D01*
X154021642Y-114567290D01*
X154024791Y-114583082D01*
X154026894Y-114598942D01*
X154027970Y-114615016D01*
X154034282Y-118100920D01*
X154029323Y-118135862D01*
X154024947Y-118150867D01*
X153987294Y-118209702D01*
X153985925Y-118210893D01*
X153931119Y-118238458D01*
X153923569Y-118240115D01*
X153897222Y-118242998D01*
X125071870Y-118297664D01*
X125071866Y-118297663D01*
X125071865Y-118297664D01*
X125036922Y-118292706D01*
X125028374Y-118290214D01*
X125021914Y-118288330D01*
X124963117Y-118250722D01*
X124962281Y-118249762D01*
X124934465Y-118193929D01*
X124932676Y-118185448D01*
X124930019Y-118158075D01*
X125029087Y-111289193D01*
X144889500Y-111289193D01*
X144889500Y-111394647D01*
X144916793Y-111496507D01*
X144969520Y-111587833D01*
X145044087Y-111662400D01*
X145135413Y-111715127D01*
X145237273Y-111742420D01*
X145237275Y-111742420D01*
X145342725Y-111742420D01*
X145342727Y-111742420D01*
X145444587Y-111715127D01*
X145535913Y-111662400D01*
X145610480Y-111587833D01*
X145655499Y-111509856D01*
X145673516Y-111486947D01*
X145677310Y-111482121D01*
X145690933Y-111469131D01*
X145747274Y-111438369D01*
X145757400Y-111435912D01*
X145786625Y-111432420D01*
X147365694Y-111432420D01*
X147400626Y-111437441D01*
X147422822Y-111443959D01*
X147471839Y-111471679D01*
X147473058Y-111472800D01*
X147473058Y-111472799D01*
X147489022Y-111487486D01*
X147492747Y-111491060D01*
X147554087Y-111552400D01*
X147645413Y-111605127D01*
X147747273Y-111632420D01*
X147747275Y-111632420D01*
X147852725Y-111632420D01*
X147852727Y-111632420D01*
X147954587Y-111605127D01*
X148045913Y-111552400D01*
X148120480Y-111477833D01*
X148173207Y-111386507D01*
X148200500Y-111284647D01*
X148200500Y-111179193D01*
X148173207Y-111077333D01*
X148120480Y-110986007D01*
X148045913Y-110911440D01*
X147979059Y-110872842D01*
X147954589Y-110858714D01*
X147954588Y-110858713D01*
X147954587Y-110858713D01*
X147852727Y-110831420D01*
X147852726Y-110831420D01*
X147747273Y-110831420D01*
X147645413Y-110858712D01*
X147645408Y-110858715D01*
X147554082Y-110911442D01*
X147491373Y-110974152D01*
X147476821Y-110986612D01*
X147448827Y-111007055D01*
X147397004Y-111029070D01*
X147394101Y-111029576D01*
X147383677Y-111030478D01*
X147383078Y-111030694D01*
X147382560Y-111030575D01*
X147372797Y-111031420D01*
X145602748Y-111031420D01*
X145570656Y-111027195D01*
X145540191Y-111019032D01*
X145510287Y-111006645D01*
X145444589Y-110968714D01*
X145444588Y-110968713D01*
X145444587Y-110968713D01*
X145342727Y-110941420D01*
X145342726Y-110941420D01*
X145237273Y-110941420D01*
X145135413Y-110968712D01*
X145135408Y-110968715D01*
X145044088Y-111021438D01*
X145044082Y-111021443D01*
X144969523Y-111096002D01*
X144969518Y-111096008D01*
X144916795Y-111187328D01*
X144916792Y-111187333D01*
X144892157Y-111279278D01*
X144889500Y-111289193D01*
X125029087Y-111289193D01*
X125140081Y-103593460D01*
X125145605Y-103558618D01*
X125150228Y-103543673D01*
X125188807Y-103485485D01*
X125190218Y-103484297D01*
X125245437Y-103457619D01*
X125252975Y-103456089D01*
X125279312Y-103453626D01*
X130623442Y-103526344D01*
X130698093Y-98040134D01*
X130703590Y-98005280D01*
X130708199Y-97990336D01*
X130746769Y-97932081D01*
X130746784Y-97932068D01*
X130748513Y-97930611D01*
X130802893Y-97904088D01*
X130807839Y-97903048D01*
X130809708Y-97902655D01*
X130835231Y-97900000D01*
X146200000Y-97900000D01*
X148200000Y-95900000D01*
X148200000Y-95562853D01*
X148204224Y-95530763D01*
X148212387Y-95500296D01*
X148224769Y-95470403D01*
X148273207Y-95386507D01*
X148300500Y-95284647D01*
X148300500Y-95179193D01*
X148273207Y-95077333D01*
X148224772Y-94993442D01*
X148212388Y-94963541D01*
X148204225Y-94933075D01*
X148200000Y-94900983D01*
X148200000Y-84331920D01*
X151600000Y-84331920D01*
X151600000Y-82500000D01*
X156900000Y-82500000D01*
X156900000Y-80541829D01*
X156905023Y-80506893D01*
X156909427Y-80491895D01*
X156947172Y-80433144D01*
X156947200Y-80433119D01*
X156947199Y-80433119D01*
X156948541Y-80431956D01*
X157003420Y-80404477D01*
X157010979Y-80402833D01*
X157037332Y-80400000D01*
X165458170Y-80400000D01*
X165493106Y-80405023D01*
G37*
%TD.AperFunction*%
%TD*%
%TA.AperFunction,Conductor*%
%TO.N,GNDD*%
G36*
X154793106Y-74036943D02*
G01*
X154808104Y-74041347D01*
X154823094Y-74050977D01*
X154840175Y-74055987D01*
X154866855Y-74079092D01*
X154868042Y-74080461D01*
X154895518Y-74135322D01*
X154897163Y-74142880D01*
X154900000Y-74169251D01*
X154900000Y-77090090D01*
X154894975Y-77125034D01*
X154890570Y-77140032D01*
X154880939Y-77155021D01*
X154875932Y-77172095D01*
X154852827Y-77198775D01*
X154851458Y-77199962D01*
X154796597Y-77227438D01*
X154789039Y-77229083D01*
X154762668Y-77231920D01*
X150000000Y-77231920D01*
X150000000Y-74031920D01*
X154758170Y-74031920D01*
X154793106Y-74036943D01*
G37*
%TD.AperFunction*%
%TD*%
%TA.AperFunction,Conductor*%
%TO.N,GNDD*%
G36*
X150000000Y-77231920D02*
G01*
X150000000Y-79031920D01*
X151476000Y-79031920D01*
X151543039Y-79051605D01*
X151588794Y-79104409D01*
X151600000Y-79155920D01*
X151600000Y-84331920D01*
X148200000Y-84331920D01*
X148200000Y-81831920D01*
X145724000Y-81831920D01*
X145656961Y-81812235D01*
X145611206Y-81759431D01*
X145600000Y-81707920D01*
X145600000Y-77647273D01*
X146099500Y-77647273D01*
X146099500Y-77752727D01*
X146126793Y-77854587D01*
X146171152Y-77931420D01*
X146179521Y-77945914D01*
X146213181Y-77979574D01*
X146246666Y-78040897D01*
X146249500Y-78067255D01*
X146249500Y-78149829D01*
X146287636Y-78241897D01*
X146613181Y-78567442D01*
X146646666Y-78628765D01*
X146649500Y-78655123D01*
X146649500Y-79132745D01*
X146629815Y-79199784D01*
X146613181Y-79220426D01*
X146579521Y-79254085D01*
X146526794Y-79345410D01*
X146526793Y-79345413D01*
X146499500Y-79447273D01*
X146499500Y-79552727D01*
X146526793Y-79654587D01*
X146579520Y-79745913D01*
X146654087Y-79820480D01*
X146745413Y-79873207D01*
X146847273Y-79900500D01*
X146847275Y-79900500D01*
X146952725Y-79900500D01*
X146952727Y-79900500D01*
X147054587Y-79873207D01*
X147145913Y-79820480D01*
X147220480Y-79745913D01*
X147273207Y-79654587D01*
X147300500Y-79552727D01*
X147300500Y-79447273D01*
X147273207Y-79345413D01*
X147220480Y-79254087D01*
X147186819Y-79220426D01*
X147153334Y-79159103D01*
X147150500Y-79132745D01*
X147150500Y-78450173D01*
X147150499Y-78450170D01*
X147112364Y-78358103D01*
X147041897Y-78287636D01*
X146843724Y-78089463D01*
X146810239Y-78028140D01*
X146815223Y-77958448D01*
X146824013Y-77939793D01*
X146873207Y-77854587D01*
X146900500Y-77752727D01*
X146900500Y-77647273D01*
X146873207Y-77545413D01*
X146820480Y-77454087D01*
X146745913Y-77379520D01*
X146654587Y-77326793D01*
X146552727Y-77299500D01*
X146447273Y-77299500D01*
X146345413Y-77326793D01*
X146345410Y-77326794D01*
X146254085Y-77379521D01*
X146179521Y-77454085D01*
X146126794Y-77545410D01*
X146126793Y-77545413D01*
X146099500Y-77647273D01*
X145600000Y-77647273D01*
X145600000Y-74155920D01*
X145619685Y-74088881D01*
X145672489Y-74043126D01*
X145724000Y-74031920D01*
X150000000Y-74031920D01*
X150000000Y-77231920D01*
G37*
%TD.AperFunction*%
%TD*%
%TA.AperFunction,Conductor*%
%TO.N,GND*%
G36*
X170842606Y-71836943D02*
G01*
X170857604Y-71841347D01*
X170872594Y-71850977D01*
X170889675Y-71855987D01*
X170916355Y-71879092D01*
X170917542Y-71880461D01*
X170945018Y-71935322D01*
X170946663Y-71942880D01*
X170949500Y-71969251D01*
X170949500Y-83576000D01*
X170929815Y-83643039D01*
X170877011Y-83688794D01*
X170825500Y-83700000D01*
X166024000Y-83700000D01*
X165956961Y-83680315D01*
X165911206Y-83627511D01*
X165900000Y-83576000D01*
X165900000Y-80131920D01*
X156500000Y-80131920D01*
X155524000Y-80131920D01*
X155456961Y-80112235D01*
X155411206Y-80059431D01*
X155400000Y-80007920D01*
X155400000Y-78108234D01*
X155419685Y-78041195D01*
X155462000Y-78000847D01*
X155545913Y-77952400D01*
X155620480Y-77877833D01*
X155673207Y-77786507D01*
X155700500Y-77684647D01*
X155700500Y-77579193D01*
X155673207Y-77477333D01*
X155620480Y-77386007D01*
X155545913Y-77311440D01*
X155503719Y-77287079D01*
X155477437Y-77271904D01*
X155449697Y-77250088D01*
X155436714Y-77236472D01*
X155405951Y-77180133D01*
X155403495Y-77170008D01*
X155400000Y-77140777D01*
X155400000Y-73731920D01*
X145000000Y-73731920D01*
X145000000Y-82431920D01*
X147558171Y-82431920D01*
X147593106Y-82436943D01*
X147608104Y-82441347D01*
X147666855Y-82479092D01*
X147666879Y-82479120D01*
X147666882Y-82479122D01*
X147666883Y-82479124D01*
X147668042Y-82480461D01*
X147695518Y-82535322D01*
X147697163Y-82542880D01*
X147700000Y-82569251D01*
X147700000Y-94707920D01*
X147680315Y-94774959D01*
X147627511Y-94820714D01*
X147576000Y-94831920D01*
X142800000Y-94831920D01*
X142800000Y-97407920D01*
X142780315Y-97474959D01*
X142727511Y-97520714D01*
X142676000Y-97531920D01*
X141900000Y-97531920D01*
X121800741Y-97531920D01*
X121765806Y-97526897D01*
X121754952Y-97523710D01*
X121696174Y-97485936D01*
X121667149Y-97422380D01*
X121669228Y-97407920D01*
X121677089Y-97353231D01*
X121680279Y-97346244D01*
X121705388Y-97310080D01*
X124690353Y-94325116D01*
X128169976Y-90845494D01*
X128200500Y-90771802D01*
X128200500Y-90692038D01*
X128200500Y-87231918D01*
X139300000Y-87231918D01*
X139300000Y-87231919D01*
X139300000Y-87231920D01*
X139300000Y-92431920D01*
X140900000Y-92431920D01*
X140900000Y-87501111D01*
X140905022Y-87466178D01*
X140912434Y-87440933D01*
X140943728Y-87388191D01*
X142751076Y-85580843D01*
X142779326Y-85559695D01*
X142802418Y-85547087D01*
X142861843Y-85531920D01*
X143400000Y-85531920D01*
X143400000Y-84431920D01*
X142100000Y-84431920D01*
X142099999Y-84431920D01*
X142099998Y-84431920D01*
X139300000Y-87231918D01*
X128200500Y-87231918D01*
X128200500Y-76884160D01*
X128205522Y-76849227D01*
X128212934Y-76823982D01*
X128244228Y-76771240D01*
X129134677Y-75880790D01*
X129162926Y-75859643D01*
X129183231Y-75848556D01*
X129237491Y-75833499D01*
X129260791Y-75832528D01*
X129265954Y-75832420D01*
X129352725Y-75832420D01*
X129352727Y-75832420D01*
X129454587Y-75805127D01*
X129545913Y-75752400D01*
X129620480Y-75677833D01*
X129673207Y-75586507D01*
X129700500Y-75484647D01*
X129700500Y-75379193D01*
X129673207Y-75277333D01*
X129620480Y-75186007D01*
X129545913Y-75111440D01*
X129479059Y-75072842D01*
X129454589Y-75058714D01*
X129454588Y-75058713D01*
X129454587Y-75058713D01*
X129352727Y-75031420D01*
X129352726Y-75031420D01*
X129247273Y-75031420D01*
X129145413Y-75058712D01*
X129145408Y-75058715D01*
X129054088Y-75111438D01*
X129054082Y-75111443D01*
X128979523Y-75186002D01*
X128979518Y-75186008D01*
X128926795Y-75277328D01*
X128926792Y-75277333D01*
X128899500Y-75379193D01*
X128899500Y-75467904D01*
X128898017Y-75487027D01*
X128892674Y-75521258D01*
X128871579Y-75573476D01*
X128869888Y-75575880D01*
X128863157Y-75583882D01*
X128862886Y-75584460D01*
X128862435Y-75584741D01*
X128856147Y-75592220D01*
X127886428Y-76561941D01*
X127886426Y-76561944D01*
X127858225Y-76590144D01*
X127830025Y-76618343D01*
X127799500Y-76692035D01*
X127799500Y-90579677D01*
X127799499Y-90579679D01*
X127799500Y-90579680D01*
X127794476Y-90614614D01*
X127787064Y-90639855D01*
X127755769Y-90692599D01*
X121065324Y-97383043D01*
X121037073Y-97404193D01*
X121028269Y-97409000D01*
X121016768Y-97415280D01*
X120962508Y-97430341D01*
X120939232Y-97431312D01*
X120934064Y-97431420D01*
X120847273Y-97431420D01*
X120745415Y-97458712D01*
X120745413Y-97458713D01*
X120745410Y-97458714D01*
X120745408Y-97458714D01*
X120745397Y-97458720D01*
X120686785Y-97492559D01*
X120686781Y-97492563D01*
X120668220Y-97503279D01*
X120668207Y-97503284D01*
X120661530Y-97507141D01*
X120631615Y-97519533D01*
X120601159Y-97527694D01*
X120569064Y-97531920D01*
X107142773Y-97531920D01*
X107142768Y-97531919D01*
X107142766Y-97531920D01*
X107107832Y-97526895D01*
X107092833Y-97522490D01*
X107034096Y-97484758D01*
X107032907Y-97483387D01*
X107005418Y-97428497D01*
X107003774Y-97420940D01*
X107000942Y-97394598D01*
X107000860Y-96296704D01*
X107000671Y-93748660D01*
X107949500Y-93748660D01*
X107949500Y-96015177D01*
X107959427Y-96083313D01*
X107978583Y-96122498D01*
X108010801Y-96188403D01*
X108010802Y-96188404D01*
X108093515Y-96271117D01*
X108093516Y-96271117D01*
X108093754Y-96271355D01*
X108096963Y-96272802D01*
X108198331Y-96322357D01*
X108198601Y-96322491D01*
X108198606Y-96322492D01*
X108198608Y-96322493D01*
X108198610Y-96322493D01*
X108198612Y-96322494D01*
X108198617Y-96322494D01*
X108202709Y-96323441D01*
X108207492Y-96323788D01*
X108216944Y-96325164D01*
X108220965Y-96325750D01*
X108266741Y-96332420D01*
X111133258Y-96332419D01*
X111201392Y-96322493D01*
X111306483Y-96271118D01*
X111389198Y-96188403D01*
X111440573Y-96083312D01*
X111450500Y-96015179D01*
X111450499Y-94767751D01*
X113449500Y-94767751D01*
X113449500Y-94996087D01*
X113485214Y-95221574D01*
X113485215Y-95221580D01*
X113555770Y-95438723D01*
X113649306Y-95622296D01*
X113659421Y-95642148D01*
X113793621Y-95826857D01*
X113955063Y-95988299D01*
X113992060Y-96015179D01*
X114139773Y-96122500D01*
X114189766Y-96147972D01*
X114235884Y-96171470D01*
X114336749Y-96222864D01*
X114338349Y-96223801D01*
X114342058Y-96225598D01*
X114344054Y-96226590D01*
X114347822Y-96227653D01*
X114459592Y-96263969D01*
X114560339Y-96296704D01*
X114785838Y-96332420D01*
X114785843Y-96332420D01*
X115614161Y-96332420D01*
X115614162Y-96332420D01*
X115839660Y-96296704D01*
X115918408Y-96271117D01*
X116056799Y-96226151D01*
X116260228Y-96122499D01*
X116444937Y-95988299D01*
X116606379Y-95826857D01*
X116740579Y-95642148D01*
X116844231Y-95438719D01*
X116914784Y-95221580D01*
X116950500Y-94996082D01*
X116950500Y-94767757D01*
X116914784Y-94542259D01*
X116844229Y-94325116D01*
X116740578Y-94121691D01*
X116606379Y-93936983D01*
X116444937Y-93775541D01*
X116260228Y-93641341D01*
X116056803Y-93537690D01*
X115839660Y-93467135D01*
X115832475Y-93465997D01*
X115614167Y-93431420D01*
X115614162Y-93431420D01*
X115614157Y-93431420D01*
X114785843Y-93431420D01*
X114785838Y-93431420D01*
X114785833Y-93431420D01*
X114560344Y-93467134D01*
X114560342Y-93467134D01*
X114560339Y-93467135D01*
X114343196Y-93537690D01*
X114269118Y-93575435D01*
X114139778Y-93641337D01*
X114139775Y-93641338D01*
X114139771Y-93641341D01*
X113955061Y-93775542D01*
X113955059Y-93775544D01*
X113955058Y-93775544D01*
X113793624Y-93936978D01*
X113793624Y-93936979D01*
X113793622Y-93936981D01*
X113659421Y-94121691D01*
X113555770Y-94325116D01*
X113485215Y-94542259D01*
X113485214Y-94542262D01*
X113485214Y-94542264D01*
X113449500Y-94767751D01*
X111450499Y-94767751D01*
X111450499Y-93748662D01*
X111440573Y-93680528D01*
X111390877Y-93578871D01*
X111389434Y-93575672D01*
X111306485Y-93492723D01*
X111306481Y-93492720D01*
X111279753Y-93479654D01*
X111254143Y-93467135D01*
X111201840Y-93441566D01*
X111201426Y-93441361D01*
X111201392Y-93441347D01*
X111201390Y-93441346D01*
X111201387Y-93441345D01*
X111133260Y-93431420D01*
X111133259Y-93431420D01*
X108266742Y-93431420D01*
X108208339Y-93439928D01*
X108198605Y-93441347D01*
X108198604Y-93441348D01*
X108093515Y-93492721D01*
X108010802Y-93575435D01*
X107959670Y-93680030D01*
X107959429Y-93680515D01*
X107959426Y-93680527D01*
X107959425Y-93680531D01*
X107959425Y-93680532D01*
X107949500Y-93748660D01*
X107000671Y-93748660D01*
X107000671Y-93744183D01*
X107000434Y-90567751D01*
X107949500Y-90567751D01*
X107949500Y-90796087D01*
X107985214Y-91021574D01*
X107985215Y-91021580D01*
X108055770Y-91238723D01*
X108159421Y-91442148D01*
X108293621Y-91626857D01*
X108455063Y-91788299D01*
X108578202Y-91877765D01*
X108639773Y-91922500D01*
X108689766Y-91947972D01*
X108735884Y-91971470D01*
X108836749Y-92022864D01*
X108838347Y-92023800D01*
X108842035Y-92025586D01*
X108844062Y-92026592D01*
X108847825Y-92027654D01*
X108894977Y-92042974D01*
X108923985Y-92052399D01*
X108923986Y-92052400D01*
X108969437Y-92067168D01*
X109060339Y-92096704D01*
X109285838Y-92132420D01*
X109285843Y-92132420D01*
X110114161Y-92132420D01*
X110114162Y-92132420D01*
X110339660Y-92096704D01*
X110556799Y-92026151D01*
X110760228Y-91922499D01*
X110944937Y-91788299D01*
X111106379Y-91626857D01*
X111240579Y-91442148D01*
X111344231Y-91238719D01*
X111414784Y-91021580D01*
X111450500Y-90796082D01*
X111450500Y-90567757D01*
X111450499Y-90567751D01*
X113449500Y-90567751D01*
X113449500Y-90796087D01*
X113485214Y-91021574D01*
X113485215Y-91021580D01*
X113555770Y-91238723D01*
X113659421Y-91442148D01*
X113793621Y-91626857D01*
X113955063Y-91788299D01*
X114078202Y-91877765D01*
X114139773Y-91922500D01*
X114189766Y-91947972D01*
X114235884Y-91971470D01*
X114336749Y-92022864D01*
X114338347Y-92023800D01*
X114342035Y-92025586D01*
X114344062Y-92026592D01*
X114347825Y-92027654D01*
X114394977Y-92042974D01*
X114423985Y-92052399D01*
X114423986Y-92052400D01*
X114469437Y-92067168D01*
X114560339Y-92096704D01*
X114785838Y-92132420D01*
X114785843Y-92132420D01*
X115614161Y-92132420D01*
X115614162Y-92132420D01*
X115839660Y-92096704D01*
X116056799Y-92026151D01*
X116260228Y-91922499D01*
X116444937Y-91788299D01*
X116606379Y-91626857D01*
X116740579Y-91442148D01*
X116844231Y-91238719D01*
X116914784Y-91021580D01*
X116950500Y-90796082D01*
X116950500Y-90567757D01*
X116914784Y-90342259D01*
X116844229Y-90125116D01*
X116740578Y-89921691D01*
X116606379Y-89736983D01*
X116444937Y-89575541D01*
X116260228Y-89441341D01*
X116056803Y-89337690D01*
X115839660Y-89267135D01*
X115839654Y-89267134D01*
X115614167Y-89231420D01*
X115614162Y-89231420D01*
X115614157Y-89231420D01*
X114785843Y-89231420D01*
X114785838Y-89231420D01*
X114785833Y-89231420D01*
X114560344Y-89267134D01*
X114560342Y-89267134D01*
X114560339Y-89267135D01*
X114343196Y-89337690D01*
X114233263Y-89393703D01*
X114139778Y-89441337D01*
X114139775Y-89441338D01*
X114139771Y-89441341D01*
X113955061Y-89575542D01*
X113955059Y-89575544D01*
X113955058Y-89575544D01*
X113793624Y-89736978D01*
X113793624Y-89736979D01*
X113793622Y-89736981D01*
X113659421Y-89921691D01*
X113555770Y-90125116D01*
X113485215Y-90342259D01*
X113485214Y-90342262D01*
X113485214Y-90342264D01*
X113449500Y-90567751D01*
X111450499Y-90567751D01*
X111414784Y-90342259D01*
X111344229Y-90125116D01*
X111240578Y-89921691D01*
X111106379Y-89736983D01*
X110944937Y-89575541D01*
X110760228Y-89441341D01*
X110556803Y-89337690D01*
X110339660Y-89267135D01*
X110339654Y-89267134D01*
X110114167Y-89231420D01*
X110114162Y-89231420D01*
X110114157Y-89231420D01*
X109285843Y-89231420D01*
X109285838Y-89231420D01*
X109285833Y-89231420D01*
X109060344Y-89267134D01*
X109060342Y-89267134D01*
X109060339Y-89267135D01*
X108843196Y-89337690D01*
X108733263Y-89393703D01*
X108639778Y-89441337D01*
X108639775Y-89441338D01*
X108639771Y-89441341D01*
X108455061Y-89575542D01*
X108455059Y-89575544D01*
X108455058Y-89575544D01*
X108293624Y-89736978D01*
X108293624Y-89736979D01*
X108293622Y-89736981D01*
X108159421Y-89921691D01*
X108055770Y-90125116D01*
X107985215Y-90342259D01*
X107985214Y-90342262D01*
X107985214Y-90342264D01*
X107949500Y-90567751D01*
X107000434Y-90567751D01*
X107000434Y-90562900D01*
X107000434Y-90562899D01*
X107000121Y-86367751D01*
X107949500Y-86367751D01*
X107949500Y-86596087D01*
X107985214Y-86821574D01*
X107985215Y-86821580D01*
X108055770Y-87038723D01*
X108122223Y-87169145D01*
X108154208Y-87231918D01*
X108159419Y-87242145D01*
X108159421Y-87242148D01*
X108293621Y-87426857D01*
X108455063Y-87588299D01*
X108578202Y-87677765D01*
X108639773Y-87722500D01*
X108689766Y-87747972D01*
X108735884Y-87771470D01*
X108836749Y-87822864D01*
X108838349Y-87823801D01*
X108842058Y-87825598D01*
X108844054Y-87826590D01*
X108847822Y-87827653D01*
X108959592Y-87863969D01*
X109060339Y-87896704D01*
X109285838Y-87932420D01*
X109285843Y-87932420D01*
X110114161Y-87932420D01*
X110114162Y-87932420D01*
X110339660Y-87896704D01*
X110556799Y-87826151D01*
X110760228Y-87722499D01*
X110944937Y-87588299D01*
X111106379Y-87426857D01*
X111240579Y-87242148D01*
X111344231Y-87038719D01*
X111414784Y-86821580D01*
X111437336Y-86679193D01*
X111450500Y-86596082D01*
X111450500Y-86367757D01*
X111450499Y-86367751D01*
X113449500Y-86367751D01*
X113449500Y-86596087D01*
X113485214Y-86821574D01*
X113485215Y-86821580D01*
X113555770Y-87038723D01*
X113622223Y-87169145D01*
X113654208Y-87231918D01*
X113659419Y-87242145D01*
X113659421Y-87242148D01*
X113793621Y-87426857D01*
X113955063Y-87588299D01*
X114078202Y-87677765D01*
X114139773Y-87722500D01*
X114189766Y-87747972D01*
X114235884Y-87771470D01*
X114336749Y-87822864D01*
X114338349Y-87823801D01*
X114342058Y-87825598D01*
X114344054Y-87826590D01*
X114347822Y-87827653D01*
X114459592Y-87863969D01*
X114560339Y-87896704D01*
X114785838Y-87932420D01*
X114785843Y-87932420D01*
X115614161Y-87932420D01*
X115614162Y-87932420D01*
X115839660Y-87896704D01*
X116056799Y-87826151D01*
X116260228Y-87722499D01*
X116444937Y-87588299D01*
X116606379Y-87426857D01*
X116740579Y-87242148D01*
X116844231Y-87038719D01*
X116914784Y-86821580D01*
X116937336Y-86679193D01*
X116950500Y-86596082D01*
X116950500Y-86367757D01*
X116914784Y-86142259D01*
X116844229Y-85925116D01*
X116740578Y-85721691D01*
X116606379Y-85536983D01*
X116444937Y-85375541D01*
X116260228Y-85241341D01*
X116250741Y-85236507D01*
X116250740Y-85236506D01*
X116187725Y-85204399D01*
X116056803Y-85137690D01*
X115839660Y-85067135D01*
X115839654Y-85067134D01*
X115614167Y-85031420D01*
X115614162Y-85031420D01*
X115614157Y-85031420D01*
X114785843Y-85031420D01*
X114785838Y-85031420D01*
X114785833Y-85031420D01*
X114560344Y-85067134D01*
X114560342Y-85067134D01*
X114560339Y-85067135D01*
X114343196Y-85137690D01*
X114233263Y-85193703D01*
X114139778Y-85241337D01*
X114139775Y-85241338D01*
X114139771Y-85241341D01*
X113955061Y-85375542D01*
X113955059Y-85375544D01*
X113955058Y-85375544D01*
X113793624Y-85536978D01*
X113793624Y-85536979D01*
X113793622Y-85536981D01*
X113659421Y-85721691D01*
X113555770Y-85925116D01*
X113485215Y-86142259D01*
X113485214Y-86142262D01*
X113485214Y-86142264D01*
X113449500Y-86367751D01*
X111450499Y-86367751D01*
X111414784Y-86142259D01*
X111344229Y-85925116D01*
X111240578Y-85721691D01*
X111106379Y-85536983D01*
X110944937Y-85375541D01*
X110760228Y-85241341D01*
X110750741Y-85236507D01*
X110750740Y-85236506D01*
X110687725Y-85204399D01*
X110556803Y-85137690D01*
X110339660Y-85067135D01*
X110339654Y-85067134D01*
X110114167Y-85031420D01*
X110114162Y-85031420D01*
X110114157Y-85031420D01*
X109285843Y-85031420D01*
X109285838Y-85031420D01*
X109285833Y-85031420D01*
X109060344Y-85067134D01*
X109060342Y-85067134D01*
X109060339Y-85067135D01*
X108843196Y-85137690D01*
X108733263Y-85193703D01*
X108639778Y-85241337D01*
X108639775Y-85241338D01*
X108639771Y-85241341D01*
X108455061Y-85375542D01*
X108455059Y-85375544D01*
X108455058Y-85375544D01*
X108293624Y-85536978D01*
X108293624Y-85536979D01*
X108293622Y-85536981D01*
X108159421Y-85721691D01*
X108055770Y-85925116D01*
X107985215Y-86142259D01*
X107985214Y-86142262D01*
X107985214Y-86142264D01*
X107949500Y-86367751D01*
X107000121Y-86367751D01*
X107000121Y-86362900D01*
X107000121Y-86362899D01*
X106999809Y-82167751D01*
X107949500Y-82167751D01*
X107949500Y-82396087D01*
X107976927Y-82569251D01*
X107985215Y-82621580D01*
X108055770Y-82838723D01*
X108159421Y-83042148D01*
X108293621Y-83226857D01*
X108455063Y-83388299D01*
X108578202Y-83477765D01*
X108639773Y-83522500D01*
X108689766Y-83547972D01*
X108735884Y-83571470D01*
X108836749Y-83622864D01*
X108838349Y-83623801D01*
X108842058Y-83625598D01*
X108844054Y-83626590D01*
X108847822Y-83627653D01*
X108959592Y-83663969D01*
X109060339Y-83696704D01*
X109285838Y-83732420D01*
X109285843Y-83732420D01*
X110114161Y-83732420D01*
X110114162Y-83732420D01*
X110339660Y-83696704D01*
X110556799Y-83626151D01*
X110760228Y-83522499D01*
X110944937Y-83388299D01*
X111106379Y-83226857D01*
X111240579Y-83042148D01*
X111344231Y-82838719D01*
X111414784Y-82621580D01*
X111420418Y-82586007D01*
X111450500Y-82396082D01*
X111450500Y-82167757D01*
X111450499Y-82167751D01*
X113449500Y-82167751D01*
X113449500Y-82396087D01*
X113476927Y-82569251D01*
X113485215Y-82621580D01*
X113555770Y-82838723D01*
X113659421Y-83042148D01*
X113793621Y-83226857D01*
X113955063Y-83388299D01*
X114078202Y-83477765D01*
X114139773Y-83522500D01*
X114189766Y-83547972D01*
X114235884Y-83571470D01*
X114336749Y-83622864D01*
X114338349Y-83623801D01*
X114342058Y-83625598D01*
X114344054Y-83626590D01*
X114347822Y-83627653D01*
X114459592Y-83663969D01*
X114560339Y-83696704D01*
X114785838Y-83732420D01*
X114785843Y-83732420D01*
X115614161Y-83732420D01*
X115614162Y-83732420D01*
X115839660Y-83696704D01*
X116056799Y-83626151D01*
X116260228Y-83522499D01*
X116444937Y-83388299D01*
X116606379Y-83226857D01*
X116740579Y-83042148D01*
X116844231Y-82838719D01*
X116914784Y-82621580D01*
X116920418Y-82586007D01*
X116950500Y-82396082D01*
X116950500Y-82167757D01*
X116914784Y-81942259D01*
X116844229Y-81725116D01*
X116740578Y-81521691D01*
X116737610Y-81517606D01*
X116714652Y-81486006D01*
X116714652Y-81486007D01*
X116606379Y-81336983D01*
X116444937Y-81175541D01*
X116260228Y-81041341D01*
X116056803Y-80937690D01*
X115839660Y-80867135D01*
X115839654Y-80867134D01*
X115614167Y-80831420D01*
X115614162Y-80831420D01*
X115614157Y-80831420D01*
X114785843Y-80831420D01*
X114785838Y-80831420D01*
X114785833Y-80831420D01*
X114560344Y-80867134D01*
X114560342Y-80867134D01*
X114560339Y-80867135D01*
X114343196Y-80937690D01*
X114233263Y-80993703D01*
X114139778Y-81041337D01*
X114139775Y-81041338D01*
X114139771Y-81041341D01*
X113955061Y-81175542D01*
X113955059Y-81175544D01*
X113955058Y-81175544D01*
X113793624Y-81336978D01*
X113793624Y-81336979D01*
X113793622Y-81336981D01*
X113659421Y-81521691D01*
X113555770Y-81725116D01*
X113485215Y-81942259D01*
X113485214Y-81942262D01*
X113485214Y-81942264D01*
X113449500Y-82167751D01*
X111450499Y-82167751D01*
X111414784Y-81942259D01*
X111344229Y-81725116D01*
X111240578Y-81521691D01*
X111237610Y-81517606D01*
X111214652Y-81486006D01*
X111214652Y-81486007D01*
X111106379Y-81336983D01*
X110944937Y-81175541D01*
X110760228Y-81041341D01*
X110556803Y-80937690D01*
X110339660Y-80867135D01*
X110339654Y-80867134D01*
X110114167Y-80831420D01*
X110114162Y-80831420D01*
X110114157Y-80831420D01*
X109285843Y-80831420D01*
X109285838Y-80831420D01*
X109285833Y-80831420D01*
X109060344Y-80867134D01*
X109060342Y-80867134D01*
X109060339Y-80867135D01*
X108843196Y-80937690D01*
X108733263Y-80993703D01*
X108639778Y-81041337D01*
X108639775Y-81041338D01*
X108639771Y-81041341D01*
X108455061Y-81175542D01*
X108455059Y-81175544D01*
X108455058Y-81175544D01*
X108293624Y-81336978D01*
X108293624Y-81336979D01*
X108293622Y-81336981D01*
X108159421Y-81521691D01*
X108055770Y-81725116D01*
X107985215Y-81942259D01*
X107985214Y-81942262D01*
X107985214Y-81942264D01*
X107949500Y-82167751D01*
X106999809Y-82167751D01*
X106999809Y-82162900D01*
X106999809Y-82162899D01*
X106999496Y-77967751D01*
X107949500Y-77967751D01*
X107949500Y-78196087D01*
X107956756Y-78241897D01*
X107985215Y-78421580D01*
X108055770Y-78638723D01*
X108159421Y-78842148D01*
X108293621Y-79026857D01*
X108455063Y-79188299D01*
X108578202Y-79277765D01*
X108639773Y-79322500D01*
X108689766Y-79347972D01*
X108735884Y-79371470D01*
X108836749Y-79422864D01*
X108838347Y-79423800D01*
X108842035Y-79425586D01*
X108844060Y-79426592D01*
X108847826Y-79427654D01*
X108872994Y-79435831D01*
X108908206Y-79447272D01*
X108908207Y-79447273D01*
X108946240Y-79459630D01*
X109060339Y-79496704D01*
X109285838Y-79532420D01*
X109285843Y-79532420D01*
X110114161Y-79532420D01*
X110114162Y-79532420D01*
X110339660Y-79496704D01*
X110556799Y-79426151D01*
X110760228Y-79322499D01*
X110944937Y-79188299D01*
X111106379Y-79026857D01*
X111240579Y-78842148D01*
X111344231Y-78638719D01*
X111414784Y-78421580D01*
X111443243Y-78241897D01*
X111450500Y-78196082D01*
X111450500Y-77967757D01*
X111450499Y-77967751D01*
X113449500Y-77967751D01*
X113449500Y-78196087D01*
X113456756Y-78241897D01*
X113485215Y-78421580D01*
X113555770Y-78638723D01*
X113659421Y-78842148D01*
X113793621Y-79026857D01*
X113955063Y-79188299D01*
X114078202Y-79277765D01*
X114139773Y-79322500D01*
X114189766Y-79347972D01*
X114235884Y-79371470D01*
X114336749Y-79422864D01*
X114338347Y-79423800D01*
X114342035Y-79425586D01*
X114344060Y-79426592D01*
X114347826Y-79427654D01*
X114372994Y-79435831D01*
X114408206Y-79447272D01*
X114408207Y-79447273D01*
X114446240Y-79459630D01*
X114560339Y-79496704D01*
X114785838Y-79532420D01*
X114785843Y-79532420D01*
X115614161Y-79532420D01*
X115614162Y-79532420D01*
X115839660Y-79496704D01*
X116056799Y-79426151D01*
X116260228Y-79322499D01*
X116444937Y-79188299D01*
X116606379Y-79026857D01*
X116740579Y-78842148D01*
X116844231Y-78638719D01*
X116914784Y-78421580D01*
X116943243Y-78241897D01*
X116950500Y-78196082D01*
X116950500Y-77967757D01*
X116914784Y-77742259D01*
X116844229Y-77525116D01*
X116740578Y-77321691D01*
X116704406Y-77271904D01*
X116697930Y-77262990D01*
X116697930Y-77262991D01*
X116606379Y-77136983D01*
X116444937Y-76975541D01*
X116260228Y-76841341D01*
X116208472Y-76814970D01*
X116056803Y-76737690D01*
X115839660Y-76667135D01*
X115839654Y-76667134D01*
X115614167Y-76631420D01*
X115614162Y-76631420D01*
X115614157Y-76631420D01*
X114785843Y-76631420D01*
X114785838Y-76631420D01*
X114785833Y-76631420D01*
X114560344Y-76667134D01*
X114560342Y-76667134D01*
X114560339Y-76667135D01*
X114343196Y-76737690D01*
X114233263Y-76793703D01*
X114139778Y-76841337D01*
X114139775Y-76841338D01*
X114139771Y-76841341D01*
X113955061Y-76975542D01*
X113955059Y-76975544D01*
X113955058Y-76975544D01*
X113793624Y-77136978D01*
X113793624Y-77136979D01*
X113793622Y-77136981D01*
X113659421Y-77321691D01*
X113555770Y-77525116D01*
X113485215Y-77742259D01*
X113485214Y-77742262D01*
X113485214Y-77742264D01*
X113449500Y-77967751D01*
X111450499Y-77967751D01*
X111414784Y-77742259D01*
X111344229Y-77525116D01*
X111240578Y-77321691D01*
X111204406Y-77271904D01*
X111197930Y-77262990D01*
X111197930Y-77262991D01*
X111106379Y-77136983D01*
X110944937Y-76975541D01*
X110760228Y-76841341D01*
X110708472Y-76814970D01*
X110556803Y-76737690D01*
X110339660Y-76667135D01*
X110339654Y-76667134D01*
X110114167Y-76631420D01*
X110114162Y-76631420D01*
X110114157Y-76631420D01*
X109285843Y-76631420D01*
X109285838Y-76631420D01*
X109285833Y-76631420D01*
X109060344Y-76667134D01*
X109060342Y-76667134D01*
X109060339Y-76667135D01*
X108843196Y-76737690D01*
X108733263Y-76793703D01*
X108639778Y-76841337D01*
X108639775Y-76841338D01*
X108639771Y-76841341D01*
X108455061Y-76975542D01*
X108455059Y-76975544D01*
X108455058Y-76975544D01*
X108293624Y-77136978D01*
X108293624Y-77136979D01*
X108293622Y-77136981D01*
X108159421Y-77321691D01*
X108055770Y-77525116D01*
X107985215Y-77742259D01*
X107985214Y-77742262D01*
X107985214Y-77742264D01*
X107949500Y-77967751D01*
X106999496Y-77967751D01*
X106999496Y-77962900D01*
X106999496Y-77962899D01*
X106999338Y-75834703D01*
X106999050Y-71975683D01*
X107004069Y-71940756D01*
X107008473Y-71925753D01*
X107018114Y-71910748D01*
X107023143Y-71893630D01*
X107046229Y-71866993D01*
X107046239Y-71866976D01*
X107047630Y-71865771D01*
X107102451Y-71838330D01*
X107110016Y-71836684D01*
X107136366Y-71833850D01*
X133100000Y-71831920D01*
X170807670Y-71831920D01*
X170842606Y-71836943D01*
G37*
%TD.AperFunction*%
%TD*%
%TA.AperFunction,Conductor*%
%TO.N,GND*%
G36*
X165900000Y-82176064D02*
G01*
X165900000Y-83700000D01*
X170949500Y-83700000D01*
X170949500Y-111409629D01*
X170949493Y-111410973D01*
X170846328Y-120925829D01*
X170825917Y-120992651D01*
X170772621Y-121037831D01*
X170723065Y-121048483D01*
X159801691Y-121112790D01*
X159734537Y-121093500D01*
X159688472Y-121040967D01*
X159676963Y-120989525D01*
X159661988Y-118446154D01*
X161319500Y-118446154D01*
X161319500Y-118597685D01*
X161358719Y-118744056D01*
X161396602Y-118809670D01*
X161434485Y-118875285D01*
X161541635Y-118982435D01*
X161672865Y-119058201D01*
X161819234Y-119097420D01*
X161819236Y-119097420D01*
X161970764Y-119097420D01*
X161970766Y-119097420D01*
X162117135Y-119058201D01*
X162248365Y-118982435D01*
X162355515Y-118875285D01*
X162431281Y-118744055D01*
X162470500Y-118597686D01*
X162470500Y-118446154D01*
X162431281Y-118299785D01*
X162355515Y-118168555D01*
X162248365Y-118061405D01*
X162182750Y-118023522D01*
X162117136Y-117985639D01*
X162043950Y-117966029D01*
X161970766Y-117946420D01*
X161819234Y-117946420D01*
X161672863Y-117985639D01*
X161541635Y-118061405D01*
X161541632Y-118061407D01*
X161434487Y-118168552D01*
X161434485Y-118168555D01*
X161358719Y-118299783D01*
X161319500Y-118446154D01*
X159661988Y-118446154D01*
X159659548Y-118031769D01*
X159659547Y-118031769D01*
X159659547Y-118031768D01*
X154318450Y-118065967D01*
X154251286Y-118046713D01*
X154205194Y-117994203D01*
X154193656Y-117941902D01*
X154195347Y-114953234D01*
X154215068Y-114886213D01*
X154267898Y-114840488D01*
X154337062Y-114830583D01*
X154343741Y-114831954D01*
X154347271Y-114832419D01*
X154347273Y-114832420D01*
X154347275Y-114832420D01*
X154452725Y-114832420D01*
X154452727Y-114832420D01*
X154554587Y-114805127D01*
X154645913Y-114752400D01*
X154720480Y-114677833D01*
X154773207Y-114586507D01*
X154773207Y-114586503D01*
X154774554Y-114584172D01*
X154825120Y-114535957D01*
X154893727Y-114522733D01*
X154958592Y-114548701D01*
X154980316Y-114570684D01*
X154983072Y-114574276D01*
X154983074Y-114574279D01*
X155057641Y-114648846D01*
X155148967Y-114701573D01*
X155250827Y-114728866D01*
X155250829Y-114728866D01*
X155356279Y-114728866D01*
X155356281Y-114728866D01*
X155458141Y-114701573D01*
X155549467Y-114648846D01*
X155624034Y-114574279D01*
X155676761Y-114482953D01*
X155704054Y-114381093D01*
X155704054Y-114275639D01*
X155676761Y-114173779D01*
X155624034Y-114082453D01*
X155549467Y-114007886D01*
X155549466Y-114007885D01*
X155543720Y-114002139D01*
X155545401Y-114000457D01*
X155511357Y-113953814D01*
X155504054Y-113911888D01*
X155504054Y-112666154D01*
X161319500Y-112666154D01*
X161319500Y-112817685D01*
X161358719Y-112964056D01*
X161396602Y-113029670D01*
X161434485Y-113095285D01*
X161541635Y-113202435D01*
X161672865Y-113278201D01*
X161819234Y-113317420D01*
X161819236Y-113317420D01*
X161970764Y-113317420D01*
X161970766Y-113317420D01*
X162117135Y-113278201D01*
X162248365Y-113202435D01*
X162355515Y-113095285D01*
X162431281Y-112964055D01*
X162470500Y-112817686D01*
X162470500Y-112666154D01*
X162431281Y-112519785D01*
X162355515Y-112388555D01*
X162248365Y-112281405D01*
X162182750Y-112243522D01*
X162117136Y-112205639D01*
X162043950Y-112186029D01*
X161970766Y-112166420D01*
X161819234Y-112166420D01*
X161672863Y-112205639D01*
X161541635Y-112281405D01*
X161541632Y-112281407D01*
X161434487Y-112388552D01*
X161434485Y-112388555D01*
X161358719Y-112519783D01*
X161319500Y-112666154D01*
X155504054Y-112666154D01*
X155504054Y-111684503D01*
X155504053Y-111684500D01*
X155475253Y-111614970D01*
X155473530Y-111610810D01*
X155417128Y-111554408D01*
X155410063Y-111547343D01*
X155410056Y-111547337D01*
X154234309Y-110371589D01*
X154200824Y-110310266D01*
X154197990Y-110283838D01*
X154199089Y-108343224D01*
X159899500Y-108343224D01*
X159899500Y-108520615D01*
X159934103Y-108694578D01*
X159934106Y-108694587D01*
X160001983Y-108858460D01*
X160001990Y-108858473D01*
X160100535Y-109005954D01*
X160100538Y-109005958D01*
X160225961Y-109131381D01*
X160225965Y-109131384D01*
X160373446Y-109229929D01*
X160373459Y-109229936D01*
X160486087Y-109276587D01*
X160537334Y-109297814D01*
X160537336Y-109297814D01*
X160537341Y-109297816D01*
X160711304Y-109332419D01*
X160711307Y-109332420D01*
X160711309Y-109332420D01*
X160888693Y-109332420D01*
X160888694Y-109332419D01*
X160946682Y-109320884D01*
X161062658Y-109297816D01*
X161062661Y-109297814D01*
X161062666Y-109297814D01*
X161226547Y-109229933D01*
X161374035Y-109131384D01*
X161499464Y-109005955D01*
X161598013Y-108858467D01*
X161665894Y-108694586D01*
X161700500Y-108520611D01*
X161700500Y-108343229D01*
X161700500Y-108343226D01*
X161700499Y-108343224D01*
X161665896Y-108169261D01*
X161665893Y-108169252D01*
X161598016Y-108005379D01*
X161598009Y-108005366D01*
X161499464Y-107857885D01*
X161499461Y-107857881D01*
X161374038Y-107732458D01*
X161374034Y-107732455D01*
X161283585Y-107672018D01*
X162489500Y-107672018D01*
X162489500Y-109191814D01*
X162489501Y-109191822D01*
X162495330Y-109221132D01*
X162517542Y-109254377D01*
X162534219Y-109265519D01*
X162550787Y-109276589D01*
X162550790Y-109276589D01*
X162550791Y-109276590D01*
X162560647Y-109278550D01*
X162580101Y-109282420D01*
X164099898Y-109282419D01*
X164129213Y-109276589D01*
X164162457Y-109254377D01*
X164184669Y-109221133D01*
X164190500Y-109191819D01*
X164190499Y-108343224D01*
X164979500Y-108343224D01*
X164979500Y-108520615D01*
X165014103Y-108694578D01*
X165014106Y-108694587D01*
X165081983Y-108858460D01*
X165081990Y-108858473D01*
X165180535Y-109005954D01*
X165180538Y-109005958D01*
X165305961Y-109131381D01*
X165305965Y-109131384D01*
X165453446Y-109229929D01*
X165453459Y-109229936D01*
X165566087Y-109276587D01*
X165617334Y-109297814D01*
X165617336Y-109297814D01*
X165617341Y-109297816D01*
X165791304Y-109332419D01*
X165791307Y-109332420D01*
X165791309Y-109332420D01*
X165968693Y-109332420D01*
X165968694Y-109332419D01*
X166026682Y-109320884D01*
X166142658Y-109297816D01*
X166142661Y-109297814D01*
X166142666Y-109297814D01*
X166306547Y-109229933D01*
X166454035Y-109131384D01*
X166579464Y-109005955D01*
X166678013Y-108858467D01*
X166745894Y-108694586D01*
X166780500Y-108520611D01*
X166780500Y-108343229D01*
X166780500Y-108343226D01*
X166780499Y-108343224D01*
X166745896Y-108169261D01*
X166745893Y-108169252D01*
X166678016Y-108005379D01*
X166678009Y-108005366D01*
X166579464Y-107857885D01*
X166579461Y-107857881D01*
X166454038Y-107732458D01*
X166454034Y-107732455D01*
X166306553Y-107633910D01*
X166306540Y-107633903D01*
X166142667Y-107566026D01*
X166142658Y-107566023D01*
X165968694Y-107531420D01*
X165968691Y-107531420D01*
X165791309Y-107531420D01*
X165791306Y-107531420D01*
X165617341Y-107566023D01*
X165617332Y-107566026D01*
X165453459Y-107633903D01*
X165453446Y-107633910D01*
X165305965Y-107732455D01*
X165305961Y-107732458D01*
X165180538Y-107857881D01*
X165180535Y-107857885D01*
X165081990Y-108005366D01*
X165081983Y-108005379D01*
X165014106Y-108169252D01*
X165014103Y-108169261D01*
X164979500Y-108343224D01*
X164190499Y-108343224D01*
X164190499Y-107672022D01*
X164184669Y-107642707D01*
X164178787Y-107633903D01*
X164162457Y-107609462D01*
X164129214Y-107587252D01*
X164129215Y-107587252D01*
X164129213Y-107587251D01*
X164129211Y-107587250D01*
X164129208Y-107587249D01*
X164099901Y-107581420D01*
X162580105Y-107581420D01*
X162580097Y-107581421D01*
X162550787Y-107587250D01*
X162517542Y-107609462D01*
X162495332Y-107642705D01*
X162495329Y-107642711D01*
X162489500Y-107672018D01*
X161283585Y-107672018D01*
X161226553Y-107633910D01*
X161226540Y-107633903D01*
X161062667Y-107566026D01*
X161062658Y-107566023D01*
X160888694Y-107531420D01*
X160888691Y-107531420D01*
X160711309Y-107531420D01*
X160711306Y-107531420D01*
X160537341Y-107566023D01*
X160537332Y-107566026D01*
X160373459Y-107633903D01*
X160373446Y-107633910D01*
X160225965Y-107732455D01*
X160225961Y-107732458D01*
X160100538Y-107857881D01*
X160100535Y-107857885D01*
X160001990Y-108005366D01*
X160001983Y-108005379D01*
X159934106Y-108169252D01*
X159934103Y-108169261D01*
X159899500Y-108343224D01*
X154199089Y-108343224D01*
X154199092Y-108337067D01*
X154206432Y-95365505D01*
X154226155Y-95298477D01*
X154240478Y-95280227D01*
X161400000Y-87734863D01*
X161400000Y-85138299D01*
X167999500Y-85138299D01*
X167999500Y-85325540D01*
X168036025Y-85509163D01*
X168036027Y-85509171D01*
X168107676Y-85682148D01*
X168107681Y-85682157D01*
X168211697Y-85837827D01*
X168211700Y-85837831D01*
X168344088Y-85970219D01*
X168344092Y-85970222D01*
X168499762Y-86074238D01*
X168499768Y-86074241D01*
X168499769Y-86074242D01*
X168672749Y-86145893D01*
X168856379Y-86182419D01*
X168856383Y-86182420D01*
X168856384Y-86182420D01*
X169343617Y-86182420D01*
X169343618Y-86182419D01*
X169527251Y-86145893D01*
X169700231Y-86074242D01*
X169855908Y-85970222D01*
X169988302Y-85837828D01*
X170092322Y-85682151D01*
X170163973Y-85509171D01*
X170200500Y-85325536D01*
X170200500Y-85138304D01*
X170163973Y-84954669D01*
X170092322Y-84781689D01*
X170092321Y-84781688D01*
X170092318Y-84781682D01*
X169988302Y-84626012D01*
X169988299Y-84626008D01*
X169855911Y-84493620D01*
X169855907Y-84493617D01*
X169700237Y-84389601D01*
X169700228Y-84389596D01*
X169527251Y-84317947D01*
X169527243Y-84317945D01*
X169343620Y-84281420D01*
X169343616Y-84281420D01*
X168856384Y-84281420D01*
X168856379Y-84281420D01*
X168672756Y-84317945D01*
X168672748Y-84317947D01*
X168499771Y-84389596D01*
X168499762Y-84389601D01*
X168344092Y-84493617D01*
X168344088Y-84493620D01*
X168211700Y-84626008D01*
X168211697Y-84626012D01*
X168107681Y-84781682D01*
X168107676Y-84781691D01*
X168036027Y-84954668D01*
X168036025Y-84954676D01*
X167999500Y-85138299D01*
X161400000Y-85138299D01*
X161400000Y-82886225D01*
X161419685Y-82819186D01*
X161436319Y-82798544D01*
X162063124Y-82171738D01*
X162124445Y-82138255D01*
X162152143Y-82135428D01*
X165900000Y-82176064D01*
G37*
%TD.AperFunction*%
%TD*%
M02*
