%TF.GenerationSoftware,KiCad,Pcbnew,10.0.5*%
%TF.CreationDate,2026-08-02T18:56:16+03:00*%
%TF.ProjectId,ads1299_test_board,61647331-3239-4395-9f74-6573745f626f,rev?*%
%TF.SameCoordinates,Original*%
%TF.FileFunction,Legend,Bot*%
%TF.FilePolarity,Positive*%
%FSLAX46Y46*%
G04 Gerber Fmt 4.6, Leading zero omitted, Abs format (unit mm)*
G04 Created by KiCad (PCBNEW 10.0.5) date 2026-08-02 18:56:16*
%MOMM*%
%LPD*%
G01*
G04 APERTURE LIST*
%ADD10C,0.101600*%
%ADD11C,0.200000*%
G04 APERTURE END LIST*
D10*
X136047619Y-77129379D02*
X136009523Y-77091284D01*
X136009523Y-77091284D02*
X135895238Y-77053188D01*
X135895238Y-77053188D02*
X135819047Y-77053188D01*
X135819047Y-77053188D02*
X135704761Y-77091284D01*
X135704761Y-77091284D02*
X135628571Y-77167474D01*
X135628571Y-77167474D02*
X135590476Y-77243664D01*
X135590476Y-77243664D02*
X135552380Y-77396045D01*
X135552380Y-77396045D02*
X135552380Y-77510331D01*
X135552380Y-77510331D02*
X135590476Y-77662712D01*
X135590476Y-77662712D02*
X135628571Y-77738903D01*
X135628571Y-77738903D02*
X135704761Y-77815093D01*
X135704761Y-77815093D02*
X135819047Y-77853188D01*
X135819047Y-77853188D02*
X135895238Y-77853188D01*
X135895238Y-77853188D02*
X136009523Y-77815093D01*
X136009523Y-77815093D02*
X136047619Y-77776998D01*
X136390476Y-77053188D02*
X136390476Y-77853188D01*
X136390476Y-77853188D02*
X136847619Y-77053188D01*
X136847619Y-77053188D02*
X136847619Y-77853188D01*
X137571428Y-77586522D02*
X137571428Y-77053188D01*
X137380952Y-77891284D02*
X137190475Y-77319855D01*
X137190475Y-77319855D02*
X137685714Y-77319855D01*
X134533379Y-86352380D02*
X134495284Y-86390476D01*
X134495284Y-86390476D02*
X134457188Y-86504761D01*
X134457188Y-86504761D02*
X134457188Y-86580952D01*
X134457188Y-86580952D02*
X134495284Y-86695238D01*
X134495284Y-86695238D02*
X134571474Y-86771428D01*
X134571474Y-86771428D02*
X134647664Y-86809523D01*
X134647664Y-86809523D02*
X134800045Y-86847619D01*
X134800045Y-86847619D02*
X134914331Y-86847619D01*
X134914331Y-86847619D02*
X135066712Y-86809523D01*
X135066712Y-86809523D02*
X135142903Y-86771428D01*
X135142903Y-86771428D02*
X135219093Y-86695238D01*
X135219093Y-86695238D02*
X135257188Y-86580952D01*
X135257188Y-86580952D02*
X135257188Y-86504761D01*
X135257188Y-86504761D02*
X135219093Y-86390476D01*
X135219093Y-86390476D02*
X135180998Y-86352380D01*
X134457188Y-86009523D02*
X135257188Y-86009523D01*
X135257188Y-86009523D02*
X134457188Y-85552380D01*
X134457188Y-85552380D02*
X135257188Y-85552380D01*
X134457188Y-84752381D02*
X134457188Y-85209524D01*
X134457188Y-84980952D02*
X135257188Y-84980952D01*
X135257188Y-84980952D02*
X135142903Y-85057143D01*
X135142903Y-85057143D02*
X135066712Y-85133333D01*
X135066712Y-85133333D02*
X135028617Y-85209524D01*
X134533379Y-81780380D02*
X134495284Y-81818476D01*
X134495284Y-81818476D02*
X134457188Y-81932761D01*
X134457188Y-81932761D02*
X134457188Y-82008952D01*
X134457188Y-82008952D02*
X134495284Y-82123238D01*
X134495284Y-82123238D02*
X134571474Y-82199428D01*
X134571474Y-82199428D02*
X134647664Y-82237523D01*
X134647664Y-82237523D02*
X134800045Y-82275619D01*
X134800045Y-82275619D02*
X134914331Y-82275619D01*
X134914331Y-82275619D02*
X135066712Y-82237523D01*
X135066712Y-82237523D02*
X135142903Y-82199428D01*
X135142903Y-82199428D02*
X135219093Y-82123238D01*
X135219093Y-82123238D02*
X135257188Y-82008952D01*
X135257188Y-82008952D02*
X135257188Y-81932761D01*
X135257188Y-81932761D02*
X135219093Y-81818476D01*
X135219093Y-81818476D02*
X135180998Y-81780380D01*
X134457188Y-81437523D02*
X135257188Y-81437523D01*
X135257188Y-81437523D02*
X134457188Y-80980380D01*
X134457188Y-80980380D02*
X135257188Y-80980380D01*
X135257188Y-80675619D02*
X135257188Y-80180381D01*
X135257188Y-80180381D02*
X134952426Y-80447047D01*
X134952426Y-80447047D02*
X134952426Y-80332762D01*
X134952426Y-80332762D02*
X134914331Y-80256571D01*
X134914331Y-80256571D02*
X134876236Y-80218476D01*
X134876236Y-80218476D02*
X134800045Y-80180381D01*
X134800045Y-80180381D02*
X134609569Y-80180381D01*
X134609569Y-80180381D02*
X134533379Y-80218476D01*
X134533379Y-80218476D02*
X134495284Y-80256571D01*
X134495284Y-80256571D02*
X134457188Y-80332762D01*
X134457188Y-80332762D02*
X134457188Y-80561333D01*
X134457188Y-80561333D02*
X134495284Y-80637524D01*
X134495284Y-80637524D02*
X134533379Y-80675619D01*
X134533379Y-84066380D02*
X134495284Y-84104476D01*
X134495284Y-84104476D02*
X134457188Y-84218761D01*
X134457188Y-84218761D02*
X134457188Y-84294952D01*
X134457188Y-84294952D02*
X134495284Y-84409238D01*
X134495284Y-84409238D02*
X134571474Y-84485428D01*
X134571474Y-84485428D02*
X134647664Y-84523523D01*
X134647664Y-84523523D02*
X134800045Y-84561619D01*
X134800045Y-84561619D02*
X134914331Y-84561619D01*
X134914331Y-84561619D02*
X135066712Y-84523523D01*
X135066712Y-84523523D02*
X135142903Y-84485428D01*
X135142903Y-84485428D02*
X135219093Y-84409238D01*
X135219093Y-84409238D02*
X135257188Y-84294952D01*
X135257188Y-84294952D02*
X135257188Y-84218761D01*
X135257188Y-84218761D02*
X135219093Y-84104476D01*
X135219093Y-84104476D02*
X135180998Y-84066380D01*
X134457188Y-83723523D02*
X135257188Y-83723523D01*
X135257188Y-83723523D02*
X134457188Y-83266380D01*
X134457188Y-83266380D02*
X135257188Y-83266380D01*
X135180998Y-82923524D02*
X135219093Y-82885428D01*
X135219093Y-82885428D02*
X135257188Y-82809238D01*
X135257188Y-82809238D02*
X135257188Y-82618762D01*
X135257188Y-82618762D02*
X135219093Y-82542571D01*
X135219093Y-82542571D02*
X135180998Y-82504476D01*
X135180998Y-82504476D02*
X135104807Y-82466381D01*
X135104807Y-82466381D02*
X135028617Y-82466381D01*
X135028617Y-82466381D02*
X134914331Y-82504476D01*
X134914331Y-82504476D02*
X134457188Y-82961619D01*
X134457188Y-82961619D02*
X134457188Y-82466381D01*
%TO.C,CN4*%
D11*
X138000000Y-78142000D02*
X138000000Y-78142000D01*
X138000000Y-78142000D02*
X138000000Y-78142000D01*
X138000000Y-78242000D02*
X138000000Y-78242000D01*
X138000000Y-78142000D02*
G75*
G02*
X138000000Y-78242000I0J-50000D01*
G01*
X138000000Y-78142000D02*
G75*
G02*
X138000000Y-78242000I0J-50000D01*
G01*
X138000000Y-78242000D02*
G75*
G02*
X138000000Y-78142000I0J50000D01*
G01*
%TO.C,CN1*%
X138000000Y-85000000D02*
X138000000Y-85000000D01*
X138000000Y-85000000D02*
X138000000Y-85000000D01*
X138000000Y-85100000D02*
X138000000Y-85100000D01*
X138000000Y-85000000D02*
G75*
G02*
X138000000Y-85100000I0J-50000D01*
G01*
X138000000Y-85000000D02*
G75*
G02*
X138000000Y-85100000I0J-50000D01*
G01*
X138000000Y-85100000D02*
G75*
G02*
X138000000Y-85000000I0J50000D01*
G01*
%TO.C,CN3*%
X138000000Y-80428000D02*
X138000000Y-80428000D01*
X138000000Y-80428000D02*
X138000000Y-80428000D01*
X138000000Y-80528000D02*
X138000000Y-80528000D01*
X138000000Y-80428000D02*
G75*
G02*
X138000000Y-80528000I0J-50000D01*
G01*
X138000000Y-80428000D02*
G75*
G02*
X138000000Y-80528000I0J-50000D01*
G01*
X138000000Y-80528000D02*
G75*
G02*
X138000000Y-80428000I0J50000D01*
G01*
%TO.C,CN2*%
X138000000Y-82714000D02*
X138000000Y-82714000D01*
X138000000Y-82714000D02*
X138000000Y-82714000D01*
X138000000Y-82814000D02*
X138000000Y-82814000D01*
X138000000Y-82714000D02*
G75*
G02*
X138000000Y-82814000I0J-50000D01*
G01*
X138000000Y-82714000D02*
G75*
G02*
X138000000Y-82814000I0J-50000D01*
G01*
X138000000Y-82814000D02*
G75*
G02*
X138000000Y-82714000I0J50000D01*
G01*
%TD*%
M02*
