M48
; DRILL file KiCad 10.0.1 date 2026-07-13T19:07:57
; FORMAT={-:-/ absolute / metric / decimal}
; #@! TF.CreationDate,2026-07-13T19:07:57+03:00
; #@! TF.GenerationSoftware,Kicad,Pcbnew,10.0.1
; #@! TF.FileFunction,Plated,1,2,PTH
FMAT,2
METRIC
; #@! TA.AperFunction,Plated,PTH,ComponentDrill
T1C0.200
; #@! TA.AperFunction,Plated,PTH,ViaDrill
T2C0.300
; #@! TA.AperFunction,Plated,PTH,ComponentDrill
T3C0.600
; #@! TA.AperFunction,Plated,PTH,ComponentDrill
T4C0.800
; #@! TA.AperFunction,Plated,PTH,ComponentDrill
T5C1.000
; #@! TA.AperFunction,Plated,PTH,ComponentDrill
T6C1.400
%
G90
G05
T1
X134.9Y-109.272
X134.9Y-110.672
X135.6Y-108.572
X135.6Y-109.972
X135.6Y-111.372
X136.3Y-109.272
X136.3Y-110.672
X137.0Y-108.572
X137.0Y-109.972
X137.0Y-111.372
X137.7Y-109.272
X137.7Y-110.672
T2
X120.9Y-97.832
X122.3Y-102.832
X124.1Y-96.432
X128.016Y-117.732
X128.905Y-117.729
X129.3Y-75.432
X129.8Y-117.732
X129.9Y-102.832
X130.7Y-117.732
X131.6Y-117.732
X132.5Y-117.732
X133.4Y-74.8
X133.4Y-117.732
X134.3Y-117.732
X134.5Y-81.432
X134.5Y-82.332
X134.5Y-85.332
X134.5Y-86.032
X134.9Y-92.332
X135.2Y-117.732
X136.1Y-117.732
X137.0Y-117.732
X137.922Y-117.729
X138.8Y-117.732
X139.7Y-117.732
X140.0Y-91.732
X140.589Y-117.729
X141.2Y-89.232
X141.3Y-92.832
X141.3Y-93.732
X141.3Y-94.532
X141.478Y-117.729
X142.2Y-92.832
X142.2Y-93.732
X142.2Y-94.532
X142.65Y-85.082
X142.7Y-86.332
X142.8Y-74.332
X142.8Y-75.132
X143.1Y-92.832
X143.1Y-93.732
X143.1Y-94.532
X143.5Y-86.332
X144.3Y-86.332
X144.6Y-74.832
X145.29Y-111.342
X145.9Y-74.632
X146.442Y-96.91
X146.5Y-77.7
X146.6Y-92.832
X146.6Y-93.732
X146.6Y-94.532
X146.631Y-103.051
X146.7Y-86.332
X146.9Y-79.5
X147.05Y-75.082
X147.166Y-104.294
X147.8Y-111.232
X147.9Y-95.232
X149.4Y-112.8
X150.1Y-86.732
X150.7Y-78.332
X151.4Y-82.832
X153.5Y-74.832
X154.0Y-78.932
X154.0Y-79.632
X154.0Y-80.332
X154.0Y-81.032
X154.0Y-81.732
X154.2Y-74.832
X154.4Y-114.432
X155.3Y-77.632
X155.304Y-114.328
X155.9Y-113.532
X157.3Y-94.332
X159.1Y-114.032
X159.2Y-98.232
X159.2Y-99.032
X160.1Y-98.232
X160.1Y-99.032
X160.2Y-105.732
X160.6Y-100.132
X161.4Y-100.132
X161.8Y-80.832
X162.5Y-95.132
X162.6Y-77.132
X162.6Y-80.832
X163.1Y-89.932
X163.4Y-80.832
X163.6Y-77.132
X164.2Y-83.232
X164.2Y-84.132
X164.2Y-85.032
X164.2Y-85.932
X164.2Y-86.832
X164.2Y-87.732
X164.2Y-88.632
X164.3Y-80.932
X164.3Y-81.732
X164.6Y-77.132
X165.1Y-83.232
X165.1Y-84.132
X165.1Y-85.032
X165.1Y-85.932
X165.1Y-86.832
X165.1Y-87.732
X165.2Y-80.932
X165.2Y-81.732
T4
X160.8Y-108.432
X163.34Y-108.432
X165.88Y-108.432
T5
X169.1Y-82.732
X169.1Y-85.232
T6
X109.7Y-78.082
X109.7Y-82.282
X109.7Y-86.482
X109.7Y-90.682
X109.7Y-94.882
X115.2Y-78.082
X115.2Y-82.282
X115.2Y-86.482
X115.2Y-90.682
X115.2Y-94.882
T3
G00X160.825Y-111.312
M15
G01X161.925Y-111.312
M16
G05
G00X160.825Y-119.952
M15
G01X161.925Y-119.952
M16
G05
G00X165.175Y-111.312
M15
G01X165.975Y-111.312
M16
G05
G00X165.175Y-119.952
M15
G01X165.975Y-119.952
M16
G05
M30
