%TF.GenerationSoftware,KiCad,Pcbnew,10.0.1*%
%TF.CreationDate,2026-07-14T21:52:37+03:00*%
%TF.ProjectId,ads1299_test_board,61647331-3239-4395-9f74-6573745f626f,rev?*%
%TF.SameCoordinates,Original*%
%TF.FileFunction,Copper,L1,Top*%
%TF.FilePolarity,Positive*%
%FSLAX46Y46*%
G04 Gerber Fmt 4.6, Leading zero omitted, Abs format (unit mm)*
G04 Created by KiCad (PCBNEW 10.0.1) date 2026-07-14 21:52:37*
%MOMM*%
%LPD*%
G01*
G04 APERTURE LIST*
G04 Aperture macros list*
%AMRoundRect*
0 Rectangle with rounded corners*
0 $1 Rounding radius*
0 $2 $3 $4 $5 $6 $7 $8 $9 X,Y pos of 4 corners*
0 Add a 4 corners polygon primitive as box body*
4,1,4,$2,$3,$4,$5,$6,$7,$8,$9,$2,$3,0*
0 Add four circle primitives for the rounded corners*
1,1,$1+$1,$2,$3*
1,1,$1+$1,$4,$5*
1,1,$1+$1,$6,$7*
1,1,$1+$1,$8,$9*
0 Add four rect primitives between the rounded corners*
20,1,$1+$1,$2,$3,$4,$5,0*
20,1,$1+$1,$4,$5,$6,$7,0*
20,1,$1+$1,$6,$7,$8,$9,0*
20,1,$1+$1,$8,$9,$2,$3,0*%
G04 Aperture macros list end*
%TA.AperFunction,SMDPad,CuDef*%
%ADD10RoundRect,0.155000X0.155000X-0.212500X0.155000X0.212500X-0.155000X0.212500X-0.155000X-0.212500X0*%
%TD*%
%TA.AperFunction,SMDPad,CuDef*%
%ADD11RoundRect,0.150000X-0.825000X-0.150000X0.825000X-0.150000X0.825000X0.150000X-0.825000X0.150000X0*%
%TD*%
%TA.AperFunction,SMDPad,CuDef*%
%ADD12R,0.950000X0.800000*%
%TD*%
%TA.AperFunction,SMDPad,CuDef*%
%ADD13R,0.950000X0.550000*%
%TD*%
%TA.AperFunction,SMDPad,CuDef*%
%ADD14RoundRect,0.155000X0.212500X0.155000X-0.212500X0.155000X-0.212500X-0.155000X0.212500X-0.155000X0*%
%TD*%
%TA.AperFunction,SMDPad,CuDef*%
%ADD15RoundRect,0.160000X-0.197500X-0.160000X0.197500X-0.160000X0.197500X0.160000X-0.197500X0.160000X0*%
%TD*%
%TA.AperFunction,HeatsinkPad*%
%ADD16C,0.600000*%
%TD*%
%TA.AperFunction,HeatsinkPad*%
%ADD17R,3.900000X3.900000*%
%TD*%
%TA.AperFunction,SMDPad,CuDef*%
%ADD18R,1.500000X0.900000*%
%TD*%
%TA.AperFunction,SMDPad,CuDef*%
%ADD19R,0.900000X1.500000*%
%TD*%
%TA.AperFunction,ComponentPad*%
%ADD20RoundRect,0.250000X0.600000X0.600000X-0.600000X0.600000X-0.600000X-0.600000X0.600000X-0.600000X0*%
%TD*%
%TA.AperFunction,ComponentPad*%
%ADD21C,1.700000*%
%TD*%
%TA.AperFunction,SMDPad,CuDef*%
%ADD22RoundRect,0.162500X0.617500X0.162500X-0.617500X0.162500X-0.617500X-0.162500X0.617500X-0.162500X0*%
%TD*%
%TA.AperFunction,SMDPad,CuDef*%
%ADD23RoundRect,0.250000X-0.337500X-0.475000X0.337500X-0.475000X0.337500X0.475000X-0.337500X0.475000X0*%
%TD*%
%TA.AperFunction,SMDPad,CuDef*%
%ADD24RoundRect,0.075000X-0.662500X-0.075000X0.662500X-0.075000X0.662500X0.075000X-0.662500X0.075000X0*%
%TD*%
%TA.AperFunction,SMDPad,CuDef*%
%ADD25RoundRect,0.075000X-0.075000X-0.662500X0.075000X-0.662500X0.075000X0.662500X-0.075000X0.662500X0*%
%TD*%
%TA.AperFunction,SMDPad,CuDef*%
%ADD26RoundRect,0.500000X1.250000X0.500000X-1.250000X0.500000X-1.250000X-0.500000X1.250000X-0.500000X0*%
%TD*%
%TA.AperFunction,SMDPad,CuDef*%
%ADD27RoundRect,0.250000X3.250000X3.250000X-3.250000X3.250000X-3.250000X-3.250000X3.250000X-3.250000X0*%
%TD*%
%TA.AperFunction,SMDPad,CuDef*%
%ADD28RoundRect,0.155000X-0.155000X0.212500X-0.155000X-0.212500X0.155000X-0.212500X0.155000X0.212500X0*%
%TD*%
%TA.AperFunction,SMDPad,CuDef*%
%ADD29RoundRect,0.150000X0.150000X-0.587500X0.150000X0.587500X-0.150000X0.587500X-0.150000X-0.587500X0*%
%TD*%
%TA.AperFunction,SMDPad,CuDef*%
%ADD30RoundRect,0.150000X0.512500X0.150000X-0.512500X0.150000X-0.512500X-0.150000X0.512500X-0.150000X0*%
%TD*%
%TA.AperFunction,SMDPad,CuDef*%
%ADD31RoundRect,0.218750X0.256250X-0.218750X0.256250X0.218750X-0.256250X0.218750X-0.256250X-0.218750X0*%
%TD*%
%TA.AperFunction,ComponentPad*%
%ADD32R,1.500000X1.500000*%
%TD*%
%TA.AperFunction,ComponentPad*%
%ADD33C,1.600000*%
%TD*%
%TA.AperFunction,SMDPad,CuDef*%
%ADD34RoundRect,0.160000X0.197500X0.160000X-0.197500X0.160000X-0.197500X-0.160000X0.197500X-0.160000X0*%
%TD*%
%TA.AperFunction,SMDPad,CuDef*%
%ADD35RoundRect,0.155000X-0.212500X-0.155000X0.212500X-0.155000X0.212500X0.155000X-0.212500X0.155000X0*%
%TD*%
%TA.AperFunction,SMDPad,CuDef*%
%ADD36RoundRect,0.225000X0.225000X0.375000X-0.225000X0.375000X-0.225000X-0.375000X0.225000X-0.375000X0*%
%TD*%
%TA.AperFunction,SMDPad,CuDef*%
%ADD37RoundRect,0.075000X0.200000X-0.075000X0.200000X0.075000X-0.200000X0.075000X-0.200000X-0.075000X0*%
%TD*%
%TA.AperFunction,SMDPad,CuDef*%
%ADD38RoundRect,0.250000X-0.650000X0.412500X-0.650000X-0.412500X0.650000X-0.412500X0.650000X0.412500X0*%
%TD*%
%TA.AperFunction,SMDPad,CuDef*%
%ADD39RoundRect,0.250000X0.550000X-0.700000X0.550000X0.700000X-0.550000X0.700000X-0.550000X-0.700000X0*%
%TD*%
%TA.AperFunction,SMDPad,CuDef*%
%ADD40RoundRect,0.249999X-1.425001X0.512501X-1.425001X-0.512501X1.425001X-0.512501X1.425001X0.512501X0*%
%TD*%
%TA.AperFunction,SMDPad,CuDef*%
%ADD41RoundRect,0.237500X0.237500X-0.300000X0.237500X0.300000X-0.237500X0.300000X-0.237500X-0.300000X0*%
%TD*%
%TA.AperFunction,SMDPad,CuDef*%
%ADD42RoundRect,0.087500X0.087500X-0.250000X0.087500X0.250000X-0.087500X0.250000X-0.087500X-0.250000X0*%
%TD*%
%TA.AperFunction,SMDPad,CuDef*%
%ADD43RoundRect,0.150000X0.150000X-0.512500X0.150000X0.512500X-0.150000X0.512500X-0.150000X-0.512500X0*%
%TD*%
%TA.AperFunction,ComponentPad*%
%ADD44RoundRect,0.250000X-0.750000X0.600000X-0.750000X-0.600000X0.750000X-0.600000X0.750000X0.600000X0*%
%TD*%
%TA.AperFunction,ComponentPad*%
%ADD45O,2.000000X1.700000*%
%TD*%
%TA.AperFunction,SMDPad,CuDef*%
%ADD46RoundRect,0.150000X0.470000X-0.150000X0.470000X0.150000X-0.470000X0.150000X-0.470000X-0.150000X0*%
%TD*%
%TA.AperFunction,SMDPad,CuDef*%
%ADD47RoundRect,0.075000X0.545000X-0.075000X0.545000X0.075000X-0.545000X0.075000X-0.545000X-0.075000X0*%
%TD*%
%TA.AperFunction,ComponentPad*%
%ADD48O,2.100000X1.000000*%
%TD*%
%TA.AperFunction,ComponentPad*%
%ADD49O,1.800000X1.000000*%
%TD*%
%TA.AperFunction,SMDPad,CuDef*%
%ADD50C,1.000000*%
%TD*%
%TA.AperFunction,SMDPad,CuDef*%
%ADD51R,0.650000X1.050000*%
%TD*%
%TA.AperFunction,ViaPad*%
%ADD52C,0.600000*%
%TD*%
%TA.AperFunction,Conductor*%
%ADD53C,0.300000*%
%TD*%
%TA.AperFunction,Conductor*%
%ADD54C,0.200000*%
%TD*%
%TA.AperFunction,Conductor*%
%ADD55C,0.400000*%
%TD*%
%TA.AperFunction,Conductor*%
%ADD56C,0.500000*%
%TD*%
G04 APERTURE END LIST*
D10*
%TO.P,C28,1*%
%TO.N,/ads1299_AFE_/AVDD*%
X134700000Y-93967500D03*
%TO.P,C28,2*%
%TO.N,GND*%
X134700000Y-92832500D03*
%TD*%
D11*
%TO.P,U4,1,NC_1*%
%TO.N,unconnected-(U4-NC-Pad1)*%
X127825000Y-93895000D03*
%TO.P,U4,2,-_2*%
%TO.N,/ads1299_AFE_/SRB1*%
X127825000Y-95165000D03*
%TO.P,U4,3,+_3*%
%TO.N,/ads1299_AFE_/Ref_electrode*%
X127825000Y-96435000D03*
%TO.P,U4,4,V-_4*%
%TO.N,GND*%
X127825000Y-97705000D03*
%TO.P,U4,5,NC_5*%
%TO.N,unconnected-(U4-NC-Pad5)*%
X132775000Y-97705000D03*
%TO.P,U4,6*%
%TO.N,/ads1299_AFE_/SRB1*%
X132775000Y-96435000D03*
%TO.P,U4,7,V+_7*%
%TO.N,/ads1299_AFE_/AVDD*%
X132775000Y-95165000D03*
%TO.P,U4,8,NC_8*%
%TO.N,unconnected-(U4-NC-Pad8)*%
X132775000Y-93895000D03*
%TD*%
D12*
%TO.P,R31,8,8_8*%
%TO.N,/ads1299_AFE_/IN1P*%
X125500000Y-92375000D03*
D13*
%TO.P,R31,7,7_7*%
%TO.N,/ads1299_AFE_/IN1N*%
X125500000Y-91450000D03*
%TO.P,R31,6,6_6*%
%TO.N,/ads1299_AFE_/IN2P*%
X125500000Y-90650000D03*
D12*
%TO.P,R31,5,5_5*%
%TO.N,/ads1299_AFE_/IN2N*%
X125500000Y-89725000D03*
%TO.P,R31,4,4_4*%
%TO.N,/ads1299_AFE_/2N*%
X127300000Y-89725000D03*
D13*
%TO.P,R31,3,3_3*%
%TO.N,/ads1299_AFE_/2P*%
X127300000Y-90650000D03*
%TO.P,R31,2,2_2*%
%TO.N,/ads1299_AFE_/1N*%
X127300000Y-91450000D03*
D12*
%TO.P,R31,1,1_1*%
%TO.N,/ads1299_AFE_/1P*%
X127300000Y-92375000D03*
%TD*%
D14*
%TO.P,C26,2*%
%TO.N,/ads1299_AFE_/Bias_out*%
X138132500Y-73600000D03*
%TO.P,C26,1*%
%TO.N,Net-(U1-BIASINV)*%
X139267500Y-73600000D03*
%TD*%
D15*
%TO.P,R25,2*%
%TO.N,Net-(U1-BIASINV)*%
X139297500Y-72600000D03*
%TO.P,R25,1*%
%TO.N,/ads1299_AFE_/Bias_out*%
X138102500Y-72600000D03*
%TD*%
D16*
%TO.P,U3,41,GND_41*%
%TO.N,GND*%
X134900000Y-109271920D03*
X134900000Y-110671920D03*
X135600000Y-108571920D03*
X135600000Y-109971920D03*
X135600000Y-111371920D03*
X136300000Y-109271920D03*
D17*
X136300000Y-109971920D03*
D16*
X136300000Y-110671920D03*
X137000000Y-108571920D03*
X137000000Y-109971920D03*
X137000000Y-111371920D03*
X137700000Y-109271920D03*
X137700000Y-110671920D03*
D18*
%TO.P,U3,40,GND_40*%
X126050000Y-117691920D03*
%TO.P,U3,39,IO1_39*%
%TO.N,unconnected-(U3-IO1-Pad39)*%
X126050000Y-116421920D03*
%TO.P,U3,38,IO2_38*%
%TO.N,unconnected-(U3-IO2-Pad38)*%
X126050000Y-115151920D03*
%TO.P,U3,37,TXD0_37*%
%TO.N,unconnected-(U3-TXD0-Pad37)*%
X126050000Y-113881920D03*
%TO.P,U3,36,RXD0_36*%
%TO.N,unconnected-(U3-RXD0-Pad36)*%
X126050000Y-112611920D03*
%TO.P,U3,35,IO42_35*%
%TO.N,unconnected-(U3-IO42-Pad35)*%
X126050000Y-111341920D03*
%TO.P,U3,34,IO41_34*%
%TO.N,unconnected-(U3-IO41-Pad34)*%
X126050000Y-110071920D03*
%TO.P,U3,33,IO40_33*%
%TO.N,unconnected-(U3-IO40-Pad33)*%
X126050000Y-108801920D03*
%TO.P,U3,32,IO39_32*%
%TO.N,unconnected-(U3-IO39-Pad32)*%
X126050000Y-107531920D03*
%TO.P,U3,31,IO38_31*%
%TO.N,unconnected-(U3-IO38-Pad31)*%
X126050000Y-106261920D03*
%TO.P,U3,30,IO37_30*%
%TO.N,unconnected-(U3-IO37-Pad30)*%
X126050000Y-104991920D03*
%TO.P,U3,29,IO36_29*%
%TO.N,unconnected-(U3-IO36-Pad29)*%
X126050000Y-103721920D03*
%TO.P,U3,28,IO35_28*%
%TO.N,unconnected-(U3-IO35-Pad28)*%
X126050000Y-102451920D03*
%TO.P,U3,27,IO0_27*%
%TO.N,Net-(U3-IO0)*%
X126050000Y-101181920D03*
D19*
%TO.P,U3,26,IO45_26*%
%TO.N,unconnected-(U3-IO45-Pad26)*%
X127815000Y-99931920D03*
%TO.P,U3,25,IO48_25*%
%TO.N,unconnected-(U3-IO48-Pad25)*%
X129085000Y-99931920D03*
%TO.P,U3,24,IO47_24*%
%TO.N,unconnected-(U3-IO47-Pad24)*%
X130355000Y-99931920D03*
%TO.P,U3,23,IO21_23*%
%TO.N,unconnected-(U3-IO21-Pad23)*%
X131625000Y-99931920D03*
%TO.P,U3,22,IO14_22*%
%TO.N,unconnected-(U3-IO14-Pad22)*%
X132895000Y-99931920D03*
%TO.P,U3,21,IO13_21*%
%TO.N,/ESP32_S3_WROOM/DOUT*%
X134165000Y-99931920D03*
%TO.P,U3,20,IO12_20*%
%TO.N,/ESP32_S3_WROOM/SCLK*%
X135435000Y-99931920D03*
%TO.P,U3,19,IO11_19*%
%TO.N,/ESP32_S3_WROOM/DIN*%
X136705000Y-99931920D03*
%TO.P,U3,18,IO10_18*%
%TO.N,/ESP32_S3_WROOM/CS*%
X137975000Y-99931920D03*
%TO.P,U3,17,IO9_17*%
%TO.N,unconnected-(U3-IO9-Pad17)*%
X139245000Y-99931920D03*
%TO.P,U3,16,IO46_16*%
%TO.N,unconnected-(U3-IO46-Pad16)*%
X140515000Y-99931920D03*
%TO.P,U3,15,IO3_15*%
%TO.N,unconnected-(U3-IO3-Pad15)*%
X141785000Y-99931920D03*
D18*
%TO.P,U3,14,USB_D+_14*%
%TO.N,/ESP32_S3_WROOM/USB_D+*%
X143550000Y-101181920D03*
%TO.P,U3,13,USB_D-_13*%
%TO.N,/ESP32_S3_WROOM/USB_D-*%
X143550000Y-102451920D03*
%TO.P,U3,12,IO8_12*%
%TO.N,unconnected-(U3-IO8-Pad12)*%
X143550000Y-103721920D03*
%TO.P,U3,11,IO18_11*%
%TO.N,unconnected-(U3-IO18-Pad11)*%
X143550000Y-104991920D03*
%TO.P,U3,10,IO17_10*%
%TO.N,unconnected-(U3-IO17-Pad10)*%
X143550000Y-106261920D03*
%TO.P,U3,9,IO16_9*%
%TO.N,unconnected-(U3-IO16-Pad9)*%
X143550000Y-107531920D03*
%TO.P,U3,8,IO15_8*%
%TO.N,unconnected-(U3-IO15-Pad8)*%
X143550000Y-108801920D03*
%TO.P,U3,7,IO7_7*%
%TO.N,/ESP32_S3_WROOM/Power_ads1299*%
X143550000Y-110071920D03*
%TO.P,U3,6,IO6_6*%
%TO.N,/ESP32_S3_WROOM/Start*%
X143550000Y-111341920D03*
%TO.P,U3,5,IO5_5*%
%TO.N,/ESP32_S3_WROOM/Reset_ads1299*%
X143550000Y-112611920D03*
%TO.P,U3,4,IO4_4*%
%TO.N,/ESP32_S3_WROOM/DRDY*%
X143550000Y-113881920D03*
%TO.P,U3,3,EN_3*%
%TO.N,/ESP32_S3_WROOM/en*%
X143550000Y-115151920D03*
%TO.P,U3,2,3V3_2*%
%TO.N,/ads1299_AFE_/DVDD*%
X143550000Y-116421920D03*
%TO.P,U3,1,GND_1*%
%TO.N,GND*%
X143550000Y-117691920D03*
%TD*%
D20*
%TO.P,J2,1,Pin_1_1*%
%TO.N,/ads1299_AFE_/IN1P*%
X117300000Y-99860000D03*
D21*
%TO.P,J2,2,Pin_2_2*%
%TO.N,/ads1299_AFE_/IN1N*%
X114760000Y-99860000D03*
%TO.P,J2,3,Pin_3_3*%
%TO.N,/ads1299_AFE_/IN2P*%
X117300000Y-97320000D03*
%TO.P,J2,4,Pin_4_4*%
%TO.N,/ads1299_AFE_/IN2N*%
X114760000Y-97320000D03*
%TO.P,J2,5,Pin_5_5*%
%TO.N,/ads1299_AFE_/IN3P*%
X117300000Y-94780000D03*
%TO.P,J2,6,Pin_6_6*%
%TO.N,/ads1299_AFE_/IN3N*%
X114760000Y-94780000D03*
%TO.P,J2,7,Pin_7_7*%
%TO.N,/ads1299_AFE_/IN4P*%
X117300000Y-92240000D03*
%TO.P,J2,8,Pin_8_8*%
%TO.N,/ads1299_AFE_/IN4N*%
X114760000Y-92240000D03*
%TO.P,J2,9,Pin_9_9*%
%TO.N,/ads1299_AFE_/IN5P*%
X117300000Y-89700000D03*
%TO.P,J2,10,Pin_10_10*%
%TO.N,/ads1299_AFE_/IN5N*%
X114760000Y-89700000D03*
%TO.P,J2,11,Pin_11_11*%
%TO.N,/ads1299_AFE_/IN6P*%
X117300000Y-87160000D03*
%TO.P,J2,12,Pin_12_12*%
%TO.N,/ads1299_AFE_/IN6N*%
X114760000Y-87160000D03*
%TO.P,J2,13,Pin_13_13*%
%TO.N,/ads1299_AFE_/IN7P*%
X117300000Y-84620000D03*
%TO.P,J2,14,Pin_14_14*%
%TO.N,/ads1299_AFE_/IN7N*%
X114760000Y-84620000D03*
%TO.P,J2,15,Pin_15_15*%
%TO.N,/ads1299_AFE_/IN8P*%
X117300000Y-82080000D03*
%TO.P,J2,16,Pin_16_16*%
%TO.N,/ads1299_AFE_/IN8N*%
X114760000Y-82080000D03*
%TO.P,J2,17,Pin_17_17*%
%TO.N,/ads1299_AFE_/Ref_electrode*%
X117300000Y-79540000D03*
%TO.P,J2,18,Pin_18_18*%
%TO.N,/ads1299_AFE_/Bias_electrode*%
X114760000Y-79540000D03*
%TO.P,J2,19,Pin_19_19*%
%TO.N,/ads1299_AFE_/AVDD*%
X117300000Y-77000000D03*
%TO.P,J2,20,Pin_20_20*%
X114760000Y-77000000D03*
%TD*%
D12*
%TO.P,R33,8,8_8*%
%TO.N,/ads1299_AFE_/IN5P*%
X125500000Y-84275000D03*
D13*
%TO.P,R33,7,7_7*%
%TO.N,/ads1299_AFE_/IN5N*%
X125500000Y-83350000D03*
%TO.P,R33,6,6_6*%
%TO.N,/ads1299_AFE_/IN6P*%
X125500000Y-82550000D03*
D12*
%TO.P,R33,5,5_5*%
%TO.N,/ads1299_AFE_/IN6N*%
X125500000Y-81625000D03*
%TO.P,R33,4,4_4*%
%TO.N,/ads1299_AFE_/6N*%
X127300000Y-81625000D03*
D13*
%TO.P,R33,3,3_3*%
%TO.N,/ads1299_AFE_/6P*%
X127300000Y-82550000D03*
%TO.P,R33,2,2_2*%
%TO.N,/ads1299_AFE_/5N*%
X127300000Y-83350000D03*
D12*
%TO.P,R33,1,1_1*%
%TO.N,/ads1299_AFE_/5P*%
X127300000Y-84275000D03*
%TD*%
%TO.P,R32,8,8_8*%
%TO.N,/ads1299_AFE_/IN7P*%
X125500000Y-80275000D03*
D13*
%TO.P,R32,7,7_7*%
%TO.N,/ads1299_AFE_/IN7N*%
X125500000Y-79350000D03*
%TO.P,R32,6,6_6*%
%TO.N,/ads1299_AFE_/IN8P*%
X125500000Y-78550000D03*
D12*
%TO.P,R32,5,5_5*%
%TO.N,/ads1299_AFE_/IN8N*%
X125500000Y-77625000D03*
%TO.P,R32,4,4_4*%
%TO.N,/ads1299_AFE_/8N*%
X127300000Y-77625000D03*
D13*
%TO.P,R32,3,3_3*%
%TO.N,/ads1299_AFE_/8P*%
X127300000Y-78550000D03*
%TO.P,R32,2,2_2*%
%TO.N,/ads1299_AFE_/7N*%
X127300000Y-79350000D03*
D12*
%TO.P,R32,1,1_1*%
%TO.N,/ads1299_AFE_/7P*%
X127300000Y-80275000D03*
%TD*%
D22*
%TO.P,IC2,1,IN_1*%
%TO.N,VCC*%
X160750000Y-78081920D03*
%TO.P,IC2,2,GND_2*%
%TO.N,GND*%
X160750000Y-77131920D03*
%TO.P,IC2,3,EN_3*%
%TO.N,Net-(IC2-EN)*%
X160750000Y-76181920D03*
%TO.P,IC2,4,N/C_4*%
%TO.N,unconnected-(IC2-N{slash}C-Pad4)*%
X158050000Y-76181920D03*
%TO.P,IC2,5,OUT_5*%
%TO.N,/ads1299_AFE_/AVDD*%
X158050000Y-78081920D03*
%TD*%
D23*
%TO.P,C18,1*%
%TO.N,Net-(IC1-VOUT)*%
X161435500Y-85860000D03*
%TO.P,C18,2*%
%TO.N,GND*%
X163510500Y-85860000D03*
%TD*%
D24*
%TO.P,U1,1,IN8N_1*%
%TO.N,/ads1299_AFE_/8N*%
X137537500Y-78381920D03*
%TO.P,U1,2,IN8P_2*%
%TO.N,/ads1299_AFE_/8P*%
X137537500Y-78881920D03*
%TO.P,U1,3,IN7N_3*%
%TO.N,/ads1299_AFE_/7N*%
X137537500Y-79381920D03*
%TO.P,U1,4,IN7P_4*%
%TO.N,/ads1299_AFE_/7P*%
X137537500Y-79881920D03*
%TO.P,U1,5,IN6N_5*%
%TO.N,/ads1299_AFE_/6N*%
X137537500Y-80381920D03*
%TO.P,U1,6,IN6P_6*%
%TO.N,/ads1299_AFE_/6P*%
X137537500Y-80881920D03*
%TO.P,U1,7,IN5N_7*%
%TO.N,/ads1299_AFE_/5N*%
X137537500Y-81381920D03*
%TO.P,U1,8,IN5P_8*%
%TO.N,/ads1299_AFE_/5P*%
X137537500Y-81881920D03*
%TO.P,U1,9,IN4N_9*%
%TO.N,/ads1299_AFE_/4N*%
X137537500Y-82381920D03*
%TO.P,U1,10,IN4P_10*%
%TO.N,/ads1299_AFE_/4P*%
X137537500Y-82881920D03*
%TO.P,U1,11,IN3N_11*%
%TO.N,/ads1299_AFE_/3N*%
X137537500Y-83381920D03*
%TO.P,U1,12,IN3P_12*%
%TO.N,/ads1299_AFE_/3P*%
X137537500Y-83881920D03*
%TO.P,U1,13,IN2N_13*%
%TO.N,/ads1299_AFE_/2N*%
X137537500Y-84381920D03*
%TO.P,U1,14,IN2P_14*%
%TO.N,/ads1299_AFE_/2P*%
X137537500Y-84881920D03*
%TO.P,U1,15,IN1N_15*%
%TO.N,/ads1299_AFE_/1N*%
X137537500Y-85381920D03*
%TO.P,U1,16,IN1P_16*%
%TO.N,/ads1299_AFE_/1P*%
X137537500Y-85881920D03*
D25*
%TO.P,U1,17,SRB1_17*%
%TO.N,/ads1299_AFE_/SRB1*%
X139450000Y-87794420D03*
%TO.P,U1,18,SRB2_18*%
%TO.N,unconnected-(U1-SRB2-Pad18)*%
X139950000Y-87794420D03*
%TO.P,U1,19,AVDD_19*%
%TO.N,/ads1299_AFE_/AVDD*%
X140450000Y-87794420D03*
%TO.P,U1,20,AVSS_20*%
%TO.N,GND*%
X140950000Y-87794420D03*
%TO.P,U1,21,AVDD_21*%
%TO.N,/ads1299_AFE_/AVDD*%
X141450000Y-87794420D03*
%TO.P,U1,22,AVDD_22*%
X141950000Y-87794420D03*
%TO.P,U1,23,AVSS_23*%
%TO.N,GND*%
X142450000Y-87794420D03*
%TO.P,U1,24,VREFP_24*%
%TO.N,/ads1299_AFE_/VREFP*%
X142950000Y-87794420D03*
%TO.P,U1,25,VREFN_25*%
%TO.N,GND*%
X143450000Y-87794420D03*
%TO.P,U1,26,VCAP4_26*%
%TO.N,/ads1299_AFE_/CAP4*%
X143950000Y-87794420D03*
%TO.P,U1,27,NC_27*%
%TO.N,unconnected-(U1-NC-Pad27)*%
X144450000Y-87794420D03*
%TO.P,U1,28,VCAP1_28*%
%TO.N,/ads1299_AFE_/CAP1*%
X144950000Y-87794420D03*
%TO.P,U1,29,NC_29*%
%TO.N,unconnected-(U1-NC-Pad29)*%
X145450000Y-87794420D03*
%TO.P,U1,30,VCAP2_30*%
%TO.N,/ads1299_AFE_/CAP2*%
X145950000Y-87794420D03*
%TO.P,U1,31,RESV1_31*%
%TO.N,unconnected-(U1-RESV1-Pad31)*%
X146450000Y-87794420D03*
%TO.P,U1,32,AVSS_32*%
%TO.N,GND*%
X146950000Y-87794420D03*
D24*
%TO.P,U1,33,DGND_33*%
X148862500Y-85881920D03*
%TO.P,U1,34,DIN_34*%
%TO.N,/ESP32_S3_WROOM/DIN*%
X148862500Y-85381920D03*
%TO.P,U1,35,~{PWDN}_35*%
%TO.N,/ESP32_S3_WROOM/Power_ads1299*%
X148862500Y-84881920D03*
%TO.P,U1,36,~{RESET}_36*%
%TO.N,/ESP32_S3_WROOM/Reset_ads1299*%
X148862500Y-84381920D03*
%TO.P,U1,37,CLK_37*%
%TO.N,Net-(U1-CLK)*%
X148862500Y-83881920D03*
%TO.P,U1,38,START_38*%
%TO.N,/ESP32_S3_WROOM/Start*%
X148862500Y-83381920D03*
%TO.P,U1,39,~{CS}_39*%
%TO.N,/ESP32_S3_WROOM/CS*%
X148862500Y-82881920D03*
%TO.P,U1,40,SCLK_40*%
%TO.N,/ESP32_S3_WROOM/SCLK*%
X148862500Y-82381920D03*
%TO.P,U1,41,DAISY_IN_41*%
%TO.N,GND*%
X148862500Y-81881920D03*
%TO.P,U1,42,GPIO1_42*%
%TO.N,Net-(U1-GPIO1)*%
X148862500Y-81381920D03*
%TO.P,U1,43,DOUT_43*%
%TO.N,/ESP32_S3_WROOM/DOUT*%
X148862500Y-80881920D03*
%TO.P,U1,44,GPIO2_44*%
%TO.N,Net-(U1-GPIO2)*%
X148862500Y-80381920D03*
%TO.P,U1,45,GPIO3_45*%
%TO.N,Net-(U1-GPIO3)*%
X148862500Y-79881920D03*
%TO.P,U1,46,GPIO4_46*%
%TO.N,Net-(U1-GPIO4)*%
X148862500Y-79381920D03*
%TO.P,U1,47,~{DRDY}_47*%
%TO.N,/ESP32_S3_WROOM/DRDY*%
X148862500Y-78881920D03*
%TO.P,U1,48,DVDD_48*%
%TO.N,/ads1299_AFE_/DVDD*%
X148862500Y-78381920D03*
D25*
%TO.P,U1,49,DGND_49*%
%TO.N,GND*%
X146950000Y-76469420D03*
%TO.P,U1,50,DVDD_50*%
%TO.N,/ads1299_AFE_/DVDD*%
X146450000Y-76469420D03*
%TO.P,U1,51,DGND_51*%
%TO.N,GND*%
X145950000Y-76469420D03*
%TO.P,U1,52,CLKSEL_52*%
%TO.N,Net-(U1-CLKSEL)*%
X145450000Y-76469420D03*
%TO.P,U1,53,AVSS1_53*%
%TO.N,GND*%
X144950000Y-76469420D03*
%TO.P,U1,54,AVDD1_54*%
%TO.N,/ads1299_AFE_/AVDD*%
X144450000Y-76469420D03*
%TO.P,U1,55,VCAP3_55*%
%TO.N,/ads1299_AFE_/CAP3*%
X143950000Y-76469420D03*
%TO.P,U1,56,AVDD_56*%
%TO.N,/ads1299_AFE_/AVDD*%
X143450000Y-76469420D03*
%TO.P,U1,57,AVSS_57*%
%TO.N,GND*%
X142950000Y-76469420D03*
%TO.P,U1,58,AVSS_58*%
X142450000Y-76469420D03*
%TO.P,U1,59,AVDD_59*%
%TO.N,/ads1299_AFE_/AVDD*%
X141950000Y-76469420D03*
%TO.P,U1,60,BIASREF_60*%
%TO.N,Net-(U1-BIASREF)*%
X141450000Y-76469420D03*
%TO.P,U1,61,BIASINV_61*%
%TO.N,Net-(U1-BIASINV)*%
X140950000Y-76469420D03*
%TO.P,U1,62,BIASIN_62*%
%TO.N,/ads1299_AFE_/Bias_out*%
X140450000Y-76469420D03*
%TO.P,U1,63,BIASOUT_63*%
X139950000Y-76469420D03*
%TO.P,U1,64,RESERVED_64*%
%TO.N,unconnected-(U1-RESERVED-Pad64)*%
X139450000Y-76469420D03*
%TD*%
D15*
%TO.P,R15,1*%
%TO.N,Net-(SW1-C)*%
X158602500Y-95581920D03*
%TO.P,R15,2*%
%TO.N,Net-(IC1-EN)*%
X159797500Y-95581920D03*
%TD*%
D26*
%TO.P,R13,1*%
%TO.N,Vbat*%
X171072000Y-113083500D03*
D27*
X163672000Y-110783500D03*
D26*
%TO.P,R13,2*%
%TO.N,Net-(J1-Pin_2)*%
X171072000Y-108503500D03*
%TD*%
D28*
%TO.P,C7,1*%
%TO.N,/ads1299_AFE_/CAP2*%
X146650000Y-90564420D03*
%TO.P,C7,2*%
%TO.N,GND*%
X146650000Y-91699420D03*
%TD*%
D29*
%TO.P,Q1,1,G_1*%
%TO.N,Net-(D2-K)*%
X165237500Y-99969420D03*
%TO.P,Q1,2,S_2*%
%TO.N,Vbat*%
X167137500Y-99969420D03*
%TO.P,Q1,3,D_3*%
%TO.N,/USB/Vbus*%
X166187500Y-98094420D03*
%TD*%
D30*
%TO.P,U6,1,VIN_1*%
%TO.N,VCC*%
X160237500Y-81781920D03*
%TO.P,U6,2,GND_2*%
%TO.N,GND*%
X160237500Y-80831920D03*
%TO.P,U6,3,EN_3*%
%TO.N,Net-(U6-EN)*%
X160237500Y-79881920D03*
%TO.P,U6,4,NC_4*%
%TO.N,unconnected-(U6-NC-Pad4)*%
X157962500Y-79881920D03*
%TO.P,U6,5,VOUT_5*%
%TO.N,/ads1299_AFE_/DVDD*%
X157962500Y-81781920D03*
%TD*%
D31*
%TO.P,D1,1,K_1*%
%TO.N,Net-(D1-K)*%
X157587500Y-100869420D03*
%TO.P,D1,2,A_2*%
%TO.N,/USB/Vbus*%
X157587500Y-99294420D03*
%TD*%
D32*
%TO.P,SW1,1,B_1*%
%TO.N,/USB/Vbus*%
X158115000Y-108712000D03*
D33*
%TO.P,SW1,2,C_2*%
%TO.N,Net-(SW1-C)*%
X158115000Y-106172000D03*
%TO.P,SW1,3,A_3*%
%TO.N,unconnected-(SW1-A-Pad3)*%
X158115000Y-111252000D03*
%TD*%
D34*
%TO.P,R27,1*%
%TO.N,GND*%
X153047500Y-81731920D03*
%TO.P,R27,2*%
%TO.N,Net-(U1-GPIO1)*%
X151852500Y-81731920D03*
%TD*%
D14*
%TO.P,C8,1*%
%TO.N,/ads1299_AFE_/CAP3*%
X143967500Y-73531920D03*
%TO.P,C8,2*%
%TO.N,GND*%
X142832500Y-73531920D03*
%TD*%
D28*
%TO.P,C16,1*%
%TO.N,/USB/Vbus*%
X162594232Y-93014420D03*
%TO.P,C16,2*%
%TO.N,GND*%
X162594232Y-94149420D03*
%TD*%
D35*
%TO.P,C15,1*%
%TO.N,Net-(IC1-VOUT)*%
X158632500Y-91831920D03*
%TO.P,C15,2*%
%TO.N,Net-(IC1-FB)*%
X159767500Y-91831920D03*
%TD*%
D15*
%TO.P,R19,1*%
%TO.N,Net-(U1-BIASREF)*%
X140423300Y-72542400D03*
%TO.P,R19,2*%
%TO.N,GND*%
X141618300Y-72542400D03*
%TD*%
D12*
%TO.P,R23,1,1_1*%
%TO.N,/ads1299_AFE_/3P*%
X127300000Y-88325000D03*
D13*
%TO.P,R23,2,2_2*%
%TO.N,/ads1299_AFE_/3N*%
X127300000Y-87400000D03*
%TO.P,R23,3,3_3*%
%TO.N,/ads1299_AFE_/4P*%
X127300000Y-86600000D03*
D12*
%TO.P,R23,4,4_4*%
%TO.N,/ads1299_AFE_/4N*%
X127300000Y-85675000D03*
%TO.P,R23,5,5_5*%
%TO.N,/ads1299_AFE_/IN4N*%
X125500000Y-85675000D03*
D13*
%TO.P,R23,6,6_6*%
%TO.N,/ads1299_AFE_/IN4P*%
X125500000Y-86600000D03*
%TO.P,R23,7,7_7*%
%TO.N,/ads1299_AFE_/IN3N*%
X125500000Y-87400000D03*
D12*
%TO.P,R23,8,8_8*%
%TO.N,/ads1299_AFE_/IN3P*%
X125500000Y-88325000D03*
%TD*%
D23*
%TO.P,C17,1*%
%TO.N,Net-(IC1-VOUT)*%
X161435500Y-88060000D03*
%TO.P,C17,2*%
%TO.N,GND*%
X163510500Y-88060000D03*
%TD*%
D36*
%TO.P,D2,1,K_1*%
%TO.N,Net-(D2-K)*%
X167637500Y-102481920D03*
%TO.P,D2,2,A_2*%
%TO.N,/USB/Vbus*%
X164337500Y-102481920D03*
%TD*%
D37*
%TO.P,U7,1,D1+_1*%
%TO.N,/ESP32_S3_WROOM/USB_D+*%
X161929000Y-123174000D03*
%TO.P,U7,2,D1-_2*%
%TO.N,/ESP32_S3_WROOM/USB_D-*%
X161929000Y-122674000D03*
%TO.P,U7,3,GND_3*%
%TO.N,GND*%
X161929000Y-122174000D03*
%TO.P,U7,4,D2+_4*%
%TO.N,/USB/Vbus*%
X161929000Y-121674000D03*
%TO.P,U7,5,D2-_5*%
%TO.N,unconnected-(U7-D2--Pad5)*%
X161929000Y-121174000D03*
%TO.P,U7,6,NC_6*%
%TO.N,unconnected-(U7-NC-Pad6)*%
X161159000Y-121174000D03*
%TO.P,U7,7,NC_7*%
%TO.N,/USB/Vbus*%
X161159000Y-121674000D03*
%TO.P,U7,8,GND_8*%
%TO.N,GND*%
X161159000Y-122174000D03*
%TO.P,U7,9,NC_9*%
%TO.N,/ESP32_S3_WROOM/USB_D-*%
X161159000Y-122674000D03*
%TO.P,U7,10,NC_10*%
%TO.N,/ESP32_S3_WROOM/USB_D+*%
X161159000Y-123174000D03*
%TD*%
D34*
%TO.P,R28,1*%
%TO.N,GND*%
X153047500Y-80331920D03*
%TO.P,R28,2*%
%TO.N,Net-(U1-GPIO2)*%
X151852500Y-80331920D03*
%TD*%
D38*
%TO.P,C6,1*%
%TO.N,/ads1299_AFE_/CAP1*%
X144950000Y-90969420D03*
%TO.P,C6,2*%
%TO.N,GND*%
X144950000Y-94094420D03*
%TD*%
D15*
%TO.P,R21,1*%
%TO.N,/ads1299_AFE_/DVDD*%
X121902500Y-101131920D03*
%TO.P,R21,2*%
%TO.N,Net-(U3-IO0)*%
X123097500Y-101131920D03*
%TD*%
D28*
%TO.P,C10,1*%
%TO.N,/ads1299_AFE_/CAP4*%
X143250000Y-90564420D03*
%TO.P,C10,2*%
%TO.N,GND*%
X143250000Y-91699420D03*
%TD*%
D34*
%TO.P,R17,1*%
%TO.N,Net-(IC2-EN)*%
X160797500Y-74631920D03*
%TO.P,R17,2*%
%TO.N,VCC*%
X159602500Y-74631920D03*
%TD*%
D28*
%TO.P,R10,1*%
%TO.N,GND*%
X159087500Y-99914420D03*
%TO.P,R10,2*%
%TO.N,Net-(U2-PROG)*%
X159087500Y-101049420D03*
%TD*%
D39*
%TO.P,L2,1,1_1*%
%TO.N,/USB/Vbus*%
X166150000Y-95431920D03*
%TO.P,L2,2,2_2*%
%TO.N,SW*%
X166150000Y-91331920D03*
%TD*%
D15*
%TO.P,R16,1*%
%TO.N,Net-(IC1-VOUT)*%
X158602500Y-93081920D03*
%TO.P,R16,2*%
%TO.N,Net-(IC1-FB)*%
X159797500Y-93081920D03*
%TD*%
D10*
%TO.P,C22,1*%
%TO.N,/ads1299_AFE_/DVDD*%
X154200000Y-76999420D03*
%TO.P,C22,2*%
%TO.N,GND*%
X154200000Y-75864420D03*
%TD*%
D40*
%TO.P,F1,1*%
%TO.N,VCC*%
X158445200Y-84144200D03*
%TO.P,F1,2*%
%TO.N,Net-(IC1-VOUT)*%
X158445200Y-90119200D03*
%TD*%
D41*
%TO.P,C21,1*%
%TO.N,/ads1299_AFE_/DVDD*%
X152500000Y-76794420D03*
%TO.P,C21,2*%
%TO.N,GND*%
X152500000Y-75069420D03*
%TD*%
D42*
%TO.P,IC1,1,FB_1*%
%TO.N,Net-(IC1-FB)*%
X161250000Y-91794420D03*
%TO.P,IC1,2,EN_2*%
%TO.N,Net-(IC1-EN)*%
X161750000Y-91794420D03*
%TO.P,IC1,3,VIN_3*%
%TO.N,/USB/Vbus*%
X162250000Y-91794420D03*
%TO.P,IC1,4,GND_4*%
%TO.N,GND*%
X162250000Y-90369420D03*
%TO.P,IC1,5,SW_5*%
%TO.N,SW*%
X161750000Y-90369420D03*
%TO.P,IC1,6,VOUT_6*%
%TO.N,Net-(IC1-VOUT)*%
X161250000Y-90369420D03*
%TD*%
D14*
%TO.P,C13,1*%
%TO.N,Vbat*%
X162405000Y-105781920D03*
%TO.P,C13,2*%
%TO.N,GND*%
X161270000Y-105781920D03*
%TD*%
D10*
%TO.P,C1,1*%
%TO.N,GND*%
X142250000Y-91699420D03*
%TO.P,C1,2*%
%TO.N,/ads1299_AFE_/VREFP*%
X142250000Y-90564420D03*
%TD*%
D43*
%TO.P,U2,1,STAT_1*%
%TO.N,Net-(U2-STAT)*%
X160487500Y-103719420D03*
%TO.P,U2,2,V_{SS}_2*%
%TO.N,GND*%
X161437500Y-103719420D03*
%TO.P,U2,3,V_{BAT}_3*%
%TO.N,Vbat*%
X162387500Y-103719420D03*
%TO.P,U2,4,V_{DD}_4*%
%TO.N,/USB/Vbus*%
X162387500Y-101444420D03*
%TO.P,U2,5,PROG_5*%
%TO.N,Net-(U2-PROG)*%
X160487500Y-101444420D03*
%TD*%
D34*
%TO.P,R14,1*%
%TO.N,Net-(IC1-FB)*%
X159797500Y-94331920D03*
%TO.P,R14,2*%
%TO.N,GND*%
X158602500Y-94331920D03*
%TD*%
%TO.P,R12,1*%
%TO.N,/ads1299_AFE_/AVDD*%
X141618300Y-73609200D03*
%TO.P,R12,2*%
%TO.N,Net-(U1-BIASREF)*%
X140423300Y-73609200D03*
%TD*%
%TO.P,R29,1*%
%TO.N,GND*%
X153047500Y-79331920D03*
%TO.P,R29,2*%
%TO.N,Net-(U1-GPIO3)*%
X151852500Y-79331920D03*
%TD*%
D14*
%TO.P,R9,1*%
%TO.N,Net-(U2-STAT)*%
X158705000Y-102581920D03*
%TO.P,R9,2*%
%TO.N,Net-(D1-K)*%
X157570000Y-102581920D03*
%TD*%
D23*
%TO.P,C19,1*%
%TO.N,Net-(IC1-VOUT)*%
X161435500Y-83660000D03*
%TO.P,C19,2*%
%TO.N,GND*%
X163510500Y-83660000D03*
%TD*%
D35*
%TO.P,R11,1*%
%TO.N,GND*%
X161282500Y-98131920D03*
%TO.P,R11,2*%
%TO.N,/USB/Vbus*%
X162417500Y-98131920D03*
%TD*%
D10*
%TO.P,C11,1*%
%TO.N,GND*%
X141250000Y-91699420D03*
%TO.P,C11,2*%
%TO.N,/ads1299_AFE_/VREFP*%
X141250000Y-90564420D03*
%TD*%
D15*
%TO.P,R18,1*%
%TO.N,Net-(U6-EN)*%
X161800000Y-79831920D03*
%TO.P,R18,2*%
%TO.N,VCC*%
X162995000Y-79831920D03*
%TD*%
D44*
%TO.P,J1,1,Pin_1_1*%
%TO.N,GND*%
X169100000Y-82731920D03*
D45*
%TO.P,J1,2,Pin_2_2*%
%TO.N,Net-(J1-Pin_2)*%
X169100000Y-85231920D03*
%TD*%
D34*
%TO.P,R20,1*%
%TO.N,/ads1299_AFE_/DVDD*%
X147197500Y-115131920D03*
%TO.P,R20,2*%
%TO.N,/ESP32_S3_WROOM/en*%
X146002500Y-115131920D03*
%TD*%
D46*
%TO.P,P1,A1,GND_A1*%
%TO.N,GND*%
X164615000Y-126167000D03*
%TO.P,P1,A4,VBUS_A4*%
%TO.N,/USB/Vbus*%
X164615000Y-125367000D03*
D47*
%TO.P,P1,A5,CC_A5*%
%TO.N,Net-(P1-CC)*%
X164615000Y-124217000D03*
%TO.P,P1,A6,D+_A6*%
%TO.N,/ESP32_S3_WROOM/USB_D+*%
X164615000Y-123217000D03*
%TO.P,P1,A7,D-_A7*%
%TO.N,/ESP32_S3_WROOM/USB_D-*%
X164615000Y-122717000D03*
%TO.P,P1,A8*%
%TO.N,N/C*%
X164615000Y-121717000D03*
D46*
%TO.P,P1,A9,VBUS_A9*%
%TO.N,/USB/Vbus*%
X164615000Y-120567000D03*
%TO.P,P1,A12,GND_A12*%
%TO.N,GND*%
X164615000Y-119767000D03*
%TO.P,P1,B1,GND_B1*%
X164615000Y-119767000D03*
%TO.P,P1,B4,VBUS_B4*%
%TO.N,/USB/Vbus*%
X164615000Y-120567000D03*
D47*
%TO.P,P1,B5,VCONN_B5*%
%TO.N,unconnected-(P1-VCONN-PadB5)*%
X164615000Y-121217000D03*
%TO.P,P1,B6*%
%TO.N,N/C*%
X164615000Y-122217000D03*
%TO.P,P1,B7*%
X164615000Y-123717000D03*
%TO.P,P1,B8*%
X164615000Y-124717000D03*
D46*
%TO.P,P1,B9,VBUS_B9*%
%TO.N,/USB/Vbus*%
X164615000Y-125367000D03*
%TO.P,P1,B12,GND_B12*%
%TO.N,GND*%
X164615000Y-126167000D03*
D48*
%TO.P,P1,SH,SHIELD_SH*%
X165215000Y-127287000D03*
D49*
X169415000Y-127287000D03*
D48*
X165215000Y-118647000D03*
D49*
X169415000Y-118647000D03*
%TD*%
D50*
%TO.P,TP1,1,1_1*%
%TO.N,Net-(U1-CLK)*%
X153200000Y-85131920D03*
%TD*%
D15*
%TO.P,R26,1*%
%TO.N,Net-(U1-CLKSEL)*%
X145302500Y-73331920D03*
%TO.P,R26,2*%
%TO.N,/ads1299_AFE_/DVDD*%
X146497500Y-73331920D03*
%TD*%
D28*
%TO.P,R24,1*%
%TO.N,Net-(P1-CC)*%
X162179000Y-124400500D03*
%TO.P,R24,2*%
%TO.N,GND*%
X162179000Y-125535500D03*
%TD*%
D14*
%TO.P,C12,1*%
%TO.N,/USB/Vbus*%
X162417500Y-99331920D03*
%TO.P,C12,2*%
%TO.N,GND*%
X161282500Y-99331920D03*
%TD*%
%TO.P,R22,1*%
%TO.N,/ads1299_AFE_/Bias_out*%
X136767500Y-72600000D03*
%TO.P,R22,2*%
%TO.N,/ads1299_AFE_/Bias_electrode*%
X135632500Y-72600000D03*
%TD*%
%TO.P,C9,1*%
%TO.N,/ads1299_AFE_/CAP3*%
X143967500Y-72531920D03*
%TO.P,C9,2*%
%TO.N,GND*%
X142832500Y-72531920D03*
%TD*%
D10*
%TO.P,C24,1*%
%TO.N,/ads1299_AFE_/DVDD*%
X148900000Y-115067500D03*
%TO.P,C24,2*%
%TO.N,GND*%
X148900000Y-113932500D03*
%TD*%
D34*
%TO.P,R30,1*%
%TO.N,GND*%
X153047500Y-78331920D03*
%TO.P,R30,2*%
%TO.N,Net-(U1-GPIO4)*%
X151852500Y-78331920D03*
%TD*%
D51*
%TO.P,SW2,1,1_1*%
%TO.N,GND*%
X153983000Y-107399000D03*
X153983000Y-111549000D03*
%TO.P,SW2,2,2_2*%
%TO.N,/ESP32_S3_WROOM/en*%
X151833000Y-107399000D03*
X151833000Y-111549000D03*
%TD*%
D52*
%TO.N,GND*%
X125100000Y-97000000D03*
X134900000Y-91800000D03*
%TO.N,/ads1299_AFE_/7P*%
X133980795Y-78722828D03*
%TO.N,/ads1299_AFE_/7N*%
X134100000Y-78000000D03*
%TO.N,/ads1299_AFE_/8P*%
X134100000Y-77200000D03*
%TO.N,/ads1299_AFE_/3P*%
X134000000Y-85200000D03*
%TO.N,/ads1299_AFE_/1N*%
X134100000Y-87500000D03*
%TO.N,/ads1299_AFE_/3N*%
X134100000Y-84400000D03*
%TO.N,/ads1299_AFE_/2N*%
X134100000Y-85900000D03*
%TO.N,/ads1299_AFE_/2P*%
X134100000Y-86700000D03*
%TO.N,/ads1299_AFE_/1P*%
X134164081Y-88521360D03*
%TO.N,/ads1299_AFE_/4P*%
X134200000Y-83500000D03*
%TO.N,/ads1299_AFE_/4N*%
X134200000Y-82700000D03*
%TO.N,/ads1299_AFE_/5P*%
X134200000Y-81900000D03*
%TO.N,/ads1299_AFE_/5N*%
X134300000Y-81100000D03*
%TO.N,/ads1299_AFE_/6N*%
X134300000Y-79500000D03*
%TO.N,/ads1299_AFE_/8N*%
X134200000Y-76200000D03*
%TO.N,GND*%
X135200000Y-117731920D03*
X160100000Y-99031920D03*
X164973000Y-82760000D03*
X131600000Y-117731920D03*
X128905000Y-117729000D03*
X164973000Y-88160000D03*
X164300000Y-80931920D03*
X137922000Y-117729000D03*
X154000000Y-80331920D03*
X141300000Y-92831920D03*
X165873000Y-84560000D03*
X142200000Y-93731920D03*
X163600000Y-77131920D03*
X165873000Y-87260000D03*
X161800000Y-80831920D03*
X129800000Y-117731920D03*
X140589000Y-117729000D03*
X143500000Y-86331920D03*
X165200000Y-80931920D03*
X165873000Y-82760000D03*
X162600000Y-77131920D03*
X165873000Y-85460000D03*
X137000000Y-117731920D03*
X141200000Y-89231920D03*
X153500000Y-74831920D03*
X143100000Y-93731920D03*
X164973000Y-85460000D03*
X162600000Y-80831920D03*
X146600000Y-92831920D03*
X165873000Y-83660000D03*
X160200000Y-105731920D03*
X157300000Y-94331920D03*
X165200000Y-81731920D03*
X149400000Y-112800000D03*
X142200000Y-94531920D03*
X164300000Y-81731920D03*
X132500000Y-117731920D03*
X144300000Y-86331920D03*
X146600000Y-94531920D03*
X163400000Y-80831920D03*
X163873000Y-89460000D03*
X145900000Y-74631920D03*
X164973000Y-83660000D03*
X160100000Y-98231920D03*
X141300000Y-94531920D03*
X143100000Y-94531920D03*
X159200000Y-99031920D03*
X142200000Y-92831920D03*
X139700000Y-117731920D03*
X138800000Y-117731920D03*
X160600000Y-100131920D03*
X134300000Y-117731920D03*
X161400000Y-100131920D03*
X143100000Y-92831920D03*
X142700000Y-86331920D03*
X162814000Y-122174000D03*
X141300000Y-93731920D03*
X164600000Y-77131920D03*
X165873000Y-86360000D03*
X136100000Y-117731920D03*
X146600000Y-93731920D03*
X154200000Y-74831920D03*
X130700000Y-117731920D03*
X164973000Y-86360000D03*
X154000000Y-78931920D03*
X162500000Y-95131920D03*
X141478000Y-117729000D03*
X154000000Y-81731920D03*
X142800000Y-74331920D03*
X146700000Y-86331920D03*
X164973000Y-84560000D03*
X142800000Y-75131920D03*
X147050000Y-75081920D03*
X150100000Y-86731920D03*
X128016000Y-117731920D03*
X154000000Y-81031920D03*
X133400000Y-117731920D03*
X151400000Y-82831920D03*
X154000000Y-79631920D03*
X159200000Y-98231920D03*
X144600000Y-74831920D03*
X164973000Y-87260000D03*
%TO.N,/ESP32_S3_WROOM/Start*%
X145290000Y-111341920D03*
X147800000Y-111231920D03*
%TO.N,/ESP32_S3_WROOM/CS*%
X147900000Y-95231920D03*
X146442000Y-96910320D03*
%TO.N,/ESP32_S3_WROOM/DOUT*%
X142650000Y-85081920D03*
X140000000Y-91731920D03*
%TO.N,/ESP32_S3_WROOM/DRDY*%
X150700000Y-78331920D03*
X155300000Y-77631920D03*
%TO.N,/ads1299_AFE_/DVDD*%
X146500000Y-77700000D03*
X129900000Y-102831920D03*
X146900000Y-79500000D03*
X122300000Y-102831920D03*
%TO.N,/ESP32_S3_WROOM/USB_D+*%
X147166031Y-104293969D03*
X154400000Y-114431920D03*
%TO.N,/ESP32_S3_WROOM/USB_D-*%
X155303554Y-114328366D03*
X146630585Y-103051415D03*
%TO.N,/ads1299_AFE_/6P*%
X133300000Y-80400000D03*
%TD*%
%TO.N,/ads1299_AFE_/AVDD*%
D53*
X119400000Y-77000000D02*
X117300000Y-77000000D01*
X124900000Y-71500000D02*
X119400000Y-77000000D01*
X152268080Y-71500000D02*
X124900000Y-71500000D01*
X154600000Y-73831920D02*
X152268080Y-71500000D01*
X117300000Y-77000000D02*
X114760000Y-77000000D01*
%TO.N,/ads1299_AFE_/IN1P*%
D54*
X119040000Y-99860000D02*
X121100000Y-97800000D01*
X121100000Y-96775000D02*
X125500000Y-92375000D01*
X117300000Y-99860000D02*
X119040000Y-99860000D01*
X121100000Y-97800000D02*
X121100000Y-96775000D01*
%TO.N,/ads1299_AFE_/IN1N*%
X124825000Y-91450000D02*
X125500000Y-91450000D01*
X120000000Y-97500000D02*
X120000000Y-96275000D01*
X119000000Y-98500000D02*
X120000000Y-97500000D01*
X116120000Y-98500000D02*
X119000000Y-98500000D01*
X114760000Y-99860000D02*
X116120000Y-98500000D01*
X120000000Y-96275000D02*
X124825000Y-91450000D01*
%TO.N,/ads1299_AFE_/Bias_electrode*%
X116000000Y-78300000D02*
X114760000Y-79540000D01*
X119400000Y-78300000D02*
X116000000Y-78300000D01*
X125100000Y-72600000D02*
X119400000Y-78300000D01*
X135632500Y-72600000D02*
X125100000Y-72600000D01*
%TO.N,/ads1299_AFE_/Ref_electrode*%
X126400000Y-95984999D02*
X126850001Y-96435000D01*
X126400000Y-76800000D02*
X126400000Y-95984999D01*
X125900000Y-76300000D02*
X126400000Y-76800000D01*
X122900000Y-76300000D02*
X125900000Y-76300000D01*
X119660000Y-79540000D02*
X122900000Y-76300000D01*
X117300000Y-79540000D02*
X119660000Y-79540000D01*
X126850001Y-96435000D02*
X127825000Y-96435000D01*
%TO.N,/ads1299_AFE_/IN8N*%
X122675000Y-77625000D02*
X125500000Y-77625000D01*
X119500000Y-80800000D02*
X122675000Y-77625000D01*
X114760000Y-82080000D02*
X116040000Y-80800000D01*
X116040000Y-80800000D02*
X119500000Y-80800000D01*
%TO.N,/ads1299_AFE_/IN8P*%
X119220000Y-82080000D02*
X122750000Y-78550000D01*
X122750000Y-78550000D02*
X125500000Y-78550000D01*
X117300000Y-82080000D02*
X119220000Y-82080000D01*
%TO.N,/ads1299_AFE_/IN7N*%
X119100000Y-83400000D02*
X123150000Y-79350000D01*
X115980000Y-83400000D02*
X119100000Y-83400000D01*
X114760000Y-84620000D02*
X115980000Y-83400000D01*
X123150000Y-79350000D02*
X125500000Y-79350000D01*
%TO.N,/ads1299_AFE_/IN7P*%
X118880000Y-84620000D02*
X123225000Y-80275000D01*
X123225000Y-80275000D02*
X125500000Y-80275000D01*
X117300000Y-84620000D02*
X118880000Y-84620000D01*
%TO.N,/ads1299_AFE_/IN6N*%
X122975000Y-81625000D02*
X125500000Y-81625000D01*
X118700000Y-85900000D02*
X122975000Y-81625000D01*
X116020000Y-85900000D02*
X118700000Y-85900000D01*
X114760000Y-87160000D02*
X116020000Y-85900000D01*
%TO.N,/ads1299_AFE_/IN6P*%
X119040000Y-87160000D02*
X123650000Y-82550000D01*
X117300000Y-87160000D02*
X119040000Y-87160000D01*
X123650000Y-82550000D02*
X125500000Y-82550000D01*
%TO.N,/ads1299_AFE_/IN3P*%
X123975000Y-88325000D02*
X125500000Y-88325000D01*
X117520000Y-94780000D02*
X123975000Y-88325000D01*
X117300000Y-94780000D02*
X117520000Y-94780000D01*
%TO.N,/ads1299_AFE_/IN4P*%
X123200000Y-86600000D02*
X125500000Y-86600000D01*
X117560000Y-92240000D02*
X123200000Y-86600000D01*
X117300000Y-92240000D02*
X117560000Y-92240000D01*
%TO.N,/ads1299_AFE_/IN5N*%
X123750000Y-83350000D02*
X125500000Y-83350000D01*
X118700000Y-88400000D02*
X123750000Y-83350000D01*
X116060000Y-88400000D02*
X118700000Y-88400000D01*
X114760000Y-89700000D02*
X116060000Y-88400000D01*
%TO.N,/ads1299_AFE_/IN5P*%
X123725000Y-84275000D02*
X125500000Y-84275000D01*
X118300000Y-89700000D02*
X123725000Y-84275000D01*
X117300000Y-89700000D02*
X118300000Y-89700000D01*
%TO.N,/ads1299_AFE_/IN4N*%
X123225000Y-85675000D02*
X125500000Y-85675000D01*
X116000000Y-91000000D02*
X117900000Y-91000000D01*
X114760000Y-92240000D02*
X116000000Y-91000000D01*
X117900000Y-91000000D02*
X123225000Y-85675000D01*
%TO.N,/ads1299_AFE_/IN3N*%
X117800000Y-93500000D02*
X123900000Y-87400000D01*
X116040000Y-93500000D02*
X117800000Y-93500000D01*
X123900000Y-87400000D02*
X125500000Y-87400000D01*
X114760000Y-94780000D02*
X116040000Y-93500000D01*
%TO.N,/ads1299_AFE_/IN2N*%
X117800000Y-96000000D02*
X124075000Y-89725000D01*
X116080000Y-96000000D02*
X117800000Y-96000000D01*
X114760000Y-97320000D02*
X116080000Y-96000000D01*
X124075000Y-89725000D02*
X125500000Y-89725000D01*
%TO.N,/ads1299_AFE_/IN2P*%
X123970000Y-90650000D02*
X125500000Y-90650000D01*
X117300000Y-97320000D02*
X123970000Y-90650000D01*
%TO.N,/ads1299_AFE_/AVDD*%
X134700000Y-94700000D02*
X134700000Y-93967500D01*
X134235000Y-95165000D02*
X134700000Y-94700000D01*
X132775000Y-95165000D02*
X134235000Y-95165000D01*
%TO.N,/ads1299_AFE_/SRB1*%
X132775000Y-96435000D02*
X134865000Y-96435000D01*
%TO.N,/ads1299_AFE_/AVDD*%
X141300000Y-86100000D02*
X140450000Y-86100000D01*
X141450000Y-86250000D02*
X141300000Y-86100000D01*
X141450000Y-87794420D02*
X141450000Y-86250000D01*
D53*
X139000000Y-86100000D02*
X140450000Y-86100000D01*
X137700000Y-90967500D02*
X137700000Y-87400000D01*
X134700000Y-93967500D02*
X137700000Y-90967500D01*
X137700000Y-87400000D02*
X139000000Y-86100000D01*
%TO.N,/ESP32_S3_WROOM/DOUT*%
D54*
X140000000Y-94200000D02*
X140000000Y-91731920D01*
X139200000Y-95000000D02*
X140000000Y-94200000D01*
X134165000Y-99035000D02*
X138200000Y-95000000D01*
X134165000Y-99931920D02*
X134165000Y-99035000D01*
X138200000Y-95000000D02*
X139200000Y-95000000D01*
%TO.N,/ESP32_S3_WROOM/SCLK*%
X147400000Y-83106921D02*
X148125001Y-82381920D01*
X147000000Y-95631920D02*
X147400000Y-95231920D01*
X148125001Y-82381920D02*
X148862500Y-82381920D01*
X135435000Y-98865000D02*
X138668080Y-95631920D01*
X135435000Y-99931920D02*
X135435000Y-98865000D01*
X138668080Y-95631920D02*
X147000000Y-95631920D01*
X147400000Y-95231920D02*
X147400000Y-83106921D01*
%TO.N,/ESP32_S3_WROOM/DIN*%
X136705000Y-99631920D02*
X136705000Y-99931920D01*
X139268080Y-96131920D02*
X136700000Y-98700000D01*
X147800000Y-96131920D02*
X139268080Y-96131920D01*
X150900000Y-86231920D02*
X150900000Y-93031920D01*
X150050000Y-85381920D02*
X150900000Y-86231920D01*
X150900000Y-93031920D02*
X147800000Y-96131920D01*
X148862500Y-85381920D02*
X150050000Y-85381920D01*
X136700000Y-98700000D02*
X136700000Y-99626920D01*
X136700000Y-99626920D02*
X136705000Y-99631920D01*
%TO.N,/ESP32_S3_WROOM/CS*%
X137975000Y-98425000D02*
X137975000Y-99931920D01*
X139489680Y-96910320D02*
X137975000Y-98425000D01*
X146442000Y-96910320D02*
X139489680Y-96910320D01*
%TO.N,GND*%
X125805000Y-97705000D02*
X125100000Y-97000000D01*
X127825000Y-97705000D02*
X125805000Y-97705000D01*
%TO.N,/ads1299_AFE_/SRB1*%
X130530001Y-95165000D02*
X127825000Y-95165000D01*
X131800001Y-96435000D02*
X130530001Y-95165000D01*
X132775000Y-96435000D02*
X131800001Y-96435000D01*
%TO.N,/ads1299_AFE_/AVDD*%
D53*
X140450000Y-86100000D02*
X140450000Y-79831920D01*
%TO.N,/ads1299_AFE_/SRB1*%
D54*
X134865000Y-96435000D02*
X139450000Y-91850000D01*
X139450000Y-91850000D02*
X139450000Y-87794420D01*
%TO.N,/ads1299_AFE_/AVDD*%
X144450000Y-78231920D02*
X144300000Y-78381920D01*
X144450000Y-76469420D02*
X144450000Y-78231920D01*
D53*
X144300000Y-78381920D02*
X143400000Y-78381920D01*
D54*
X143450000Y-78331920D02*
X143400000Y-78381920D01*
X143450000Y-76469420D02*
X143450000Y-78331920D01*
D53*
X143400000Y-78381920D02*
X142000000Y-78381920D01*
X146950000Y-78381920D02*
X144300000Y-78381920D01*
X142000000Y-78381920D02*
X141950000Y-78331920D01*
X140450000Y-79831920D02*
X141950000Y-78331920D01*
X140450000Y-87794420D02*
X140450000Y-86100000D01*
%TO.N,/ads1299_AFE_/1P*%
D54*
X132478640Y-88521360D02*
X134164081Y-88521360D01*
X128625000Y-92375000D02*
X132478640Y-88521360D01*
X127300000Y-92375000D02*
X128625000Y-92375000D01*
%TO.N,/ads1299_AFE_/1N*%
X132200000Y-87500000D02*
X134100000Y-87500000D01*
X128250000Y-91450000D02*
X132200000Y-87500000D01*
X127300000Y-91450000D02*
X128250000Y-91450000D01*
%TO.N,/ads1299_AFE_/2N*%
X131500000Y-85900000D02*
X134100000Y-85900000D01*
X127675000Y-89725000D02*
X131500000Y-85900000D01*
X127300000Y-89725000D02*
X127675000Y-89725000D01*
%TO.N,/ads1299_AFE_/2P*%
X131800000Y-86700000D02*
X134100000Y-86700000D01*
X127850000Y-90650000D02*
X131800000Y-86700000D01*
X127300000Y-90650000D02*
X127850000Y-90650000D01*
%TO.N,/ads1299_AFE_/3P*%
X131000000Y-85200000D02*
X134000000Y-85200000D01*
X127875000Y-88325000D02*
X131000000Y-85200000D01*
X127300000Y-88325000D02*
X127875000Y-88325000D01*
%TO.N,/ads1299_AFE_/3N*%
X131000000Y-84400000D02*
X134100000Y-84400000D01*
X128000000Y-87400000D02*
X131000000Y-84400000D01*
X127300000Y-87400000D02*
X128000000Y-87400000D01*
%TO.N,/ads1299_AFE_/4P*%
X131000000Y-83500000D02*
X134200000Y-83500000D01*
X127900000Y-86600000D02*
X131000000Y-83500000D01*
X127300000Y-86600000D02*
X127900000Y-86600000D01*
%TO.N,/ads1299_AFE_/4N*%
X131000000Y-82700000D02*
X134200000Y-82700000D01*
X128025000Y-85675000D02*
X131000000Y-82700000D01*
X127300000Y-85675000D02*
X128025000Y-85675000D01*
%TO.N,/ads1299_AFE_/8N*%
X131000000Y-76200000D02*
X134200000Y-76200000D01*
X129575000Y-77625000D02*
X131000000Y-76200000D01*
X127300000Y-77625000D02*
X129575000Y-77625000D01*
%TO.N,/ads1299_AFE_/8P*%
X131000000Y-77200000D02*
X134100000Y-77200000D01*
X127300000Y-78550000D02*
X129650000Y-78550000D01*
X129650000Y-78550000D02*
X131000000Y-77200000D01*
%TO.N,/ads1299_AFE_/7N*%
X131000000Y-78000000D02*
X134100000Y-78000000D01*
X129650000Y-79350000D02*
X131000000Y-78000000D01*
X127300000Y-79350000D02*
X129650000Y-79350000D01*
%TO.N,/ads1299_AFE_/7P*%
X129425000Y-80275000D02*
X130977172Y-78722828D01*
X130977172Y-78722828D02*
X133980795Y-78722828D01*
X127300000Y-80275000D02*
X129425000Y-80275000D01*
%TO.N,/ads1299_AFE_/6N*%
X131000000Y-79500000D02*
X134300000Y-79500000D01*
X127300000Y-81625000D02*
X128875000Y-81625000D01*
X128875000Y-81625000D02*
X131000000Y-79500000D01*
%TO.N,/ads1299_AFE_/6P*%
X131000000Y-80400000D02*
X133300000Y-80400000D01*
X127300000Y-82550000D02*
X128850000Y-82550000D01*
X128850000Y-82550000D02*
X131000000Y-80400000D01*
%TO.N,/ads1299_AFE_/5P*%
X131000000Y-81900000D02*
X134200000Y-81900000D01*
X128625000Y-84275000D02*
X131000000Y-81900000D01*
X127300000Y-84275000D02*
X128625000Y-84275000D01*
%TO.N,/ads1299_AFE_/5N*%
X131000000Y-81100000D02*
X134300000Y-81100000D01*
X128750000Y-83350000D02*
X131000000Y-81100000D01*
X127300000Y-83350000D02*
X128750000Y-83350000D01*
%TO.N,GND*%
X134700000Y-92000000D02*
X134900000Y-91800000D01*
X134700000Y-92832500D02*
X134700000Y-92000000D01*
%TO.N,/ads1299_AFE_/Bias_out*%
X136767500Y-72600000D02*
X138102500Y-72600000D01*
%TO.N,Net-(U1-BIASINV)*%
X140950000Y-75282500D02*
X140950000Y-76469420D01*
X139267500Y-73600000D02*
X140950000Y-75282500D01*
%TO.N,/ads1299_AFE_/Bias_out*%
X138102500Y-72600000D02*
X138102500Y-73570000D01*
X138102500Y-73570000D02*
X138132500Y-73600000D01*
X139950000Y-75750000D02*
X138132500Y-73932500D01*
X138132500Y-73932500D02*
X138132500Y-73600000D01*
X139950000Y-76469420D02*
X139950000Y-75750000D01*
%TO.N,/ads1299_AFE_/2N*%
X134100000Y-85900000D02*
X133900000Y-85900000D01*
%TO.N,/ads1299_AFE_/1P*%
X134164081Y-88335919D02*
X134164081Y-88521360D01*
X136618080Y-85881920D02*
X134164081Y-88335919D01*
X137537500Y-85881920D02*
X136618080Y-85881920D01*
%TO.N,/ads1299_AFE_/1N*%
X136218080Y-85381920D02*
X134100000Y-87500000D01*
X137537500Y-85381920D02*
X136218080Y-85381920D01*
%TO.N,/ads1299_AFE_/2P*%
X135918080Y-84881920D02*
X134100000Y-86700000D01*
X137537500Y-84881920D02*
X135918080Y-84881920D01*
%TO.N,/ads1299_AFE_/2N*%
X135618080Y-84381920D02*
X134100000Y-85900000D01*
X137537500Y-84381920D02*
X135618080Y-84381920D01*
%TO.N,/ads1299_AFE_/3P*%
X134200000Y-85200000D02*
X134000000Y-85200000D01*
X137537500Y-83881920D02*
X135518080Y-83881920D01*
X135518080Y-83881920D02*
X134200000Y-85200000D01*
%TO.N,/ads1299_AFE_/3N*%
X135118080Y-83381920D02*
X134100000Y-84400000D01*
X137537500Y-83381920D02*
X135118080Y-83381920D01*
%TO.N,/ads1299_AFE_/4P*%
X134818080Y-82881920D02*
X134200000Y-83500000D01*
X137537500Y-82881920D02*
X134818080Y-82881920D01*
%TO.N,/ads1299_AFE_/4N*%
X134518080Y-82381920D02*
X134200000Y-82700000D01*
X137537500Y-82381920D02*
X134518080Y-82381920D01*
%TO.N,/ads1299_AFE_/5P*%
X134218080Y-81881920D02*
X134200000Y-81900000D01*
X137537500Y-81881920D02*
X134218080Y-81881920D01*
%TO.N,/ads1299_AFE_/5N*%
X134581920Y-81381920D02*
X134300000Y-81100000D01*
X137537500Y-81381920D02*
X134581920Y-81381920D01*
%TO.N,/ads1299_AFE_/6N*%
X135181920Y-80381920D02*
X134300000Y-79500000D01*
X137537500Y-80381920D02*
X135181920Y-80381920D01*
%TO.N,/ads1299_AFE_/7P*%
X134229935Y-78722828D02*
X133980795Y-78722828D01*
X135389027Y-79881920D02*
X134229935Y-78722828D01*
X137537500Y-79881920D02*
X135389027Y-79881920D01*
%TO.N,/ads1299_AFE_/7N*%
X135481920Y-79381920D02*
X134100000Y-78000000D01*
X137537500Y-79381920D02*
X135481920Y-79381920D01*
%TO.N,/ads1299_AFE_/8P*%
X135781920Y-78881920D02*
X134100000Y-77200000D01*
X137537500Y-78881920D02*
X135781920Y-78881920D01*
%TO.N,/ads1299_AFE_/8N*%
X136381920Y-78381920D02*
X137537500Y-78381920D01*
X134200000Y-76200000D02*
X136381920Y-78381920D01*
%TO.N,Net-(U1-BIASREF)*%
X141450000Y-74635900D02*
X141450000Y-76469420D01*
X140423300Y-73609200D02*
X141450000Y-74635900D01*
X140423300Y-72542400D02*
X140423300Y-73609200D01*
%TO.N,GND*%
X142822020Y-72542400D02*
X142832500Y-72531920D01*
X141618300Y-72542400D02*
X142822020Y-72542400D01*
%TO.N,/ads1299_AFE_/AVDD*%
X141950000Y-73940900D02*
X141618300Y-73609200D01*
X141950000Y-76469420D02*
X141950000Y-73940900D01*
%TO.N,VCC*%
D53*
X159250000Y-81781920D02*
X159100000Y-81631920D01*
D54*
X162150000Y-78081920D02*
X160750000Y-78081920D01*
X159602500Y-74631920D02*
X159602500Y-78229420D01*
D53*
X159750000Y-78081920D02*
X160750000Y-78081920D01*
X159100000Y-81631920D02*
X159100000Y-79431920D01*
X159300000Y-79231920D02*
X159300000Y-78531920D01*
X159100000Y-79431920D02*
X159300000Y-79231920D01*
D55*
X160237500Y-82351900D02*
X160237500Y-81781920D01*
D54*
X162995000Y-79831920D02*
X162995000Y-78926920D01*
X162995000Y-78926920D02*
X162150000Y-78081920D01*
D53*
X159300000Y-78531920D02*
X159602500Y-78229420D01*
X159602500Y-78229420D02*
X159750000Y-78081920D01*
X160237500Y-81781920D02*
X159250000Y-81781920D01*
D55*
X158445200Y-84144200D02*
X160237500Y-82351900D01*
%TO.N,GND*%
D54*
X148900000Y-113932500D02*
X148900000Y-113300000D01*
X160200000Y-105731920D02*
X160250000Y-105781920D01*
X149650000Y-85881920D02*
X150100000Y-86331920D01*
X150350000Y-81881920D02*
X148862500Y-81881920D01*
X146950000Y-75181920D02*
X147050000Y-75081920D01*
D55*
X161437500Y-103719420D02*
X161437500Y-105614420D01*
D54*
X162810500Y-126167000D02*
X164615000Y-126167000D01*
X164615000Y-126167000D02*
X164615000Y-126687000D01*
X161929000Y-122174000D02*
X161159000Y-122174000D01*
X162179000Y-125535500D02*
X162810500Y-126167000D01*
D53*
X162250000Y-89320500D02*
X163510500Y-88060000D01*
D54*
X140950000Y-88981920D02*
X141200000Y-89231920D01*
X153983000Y-111549000D02*
X151599500Y-113932500D01*
X150100000Y-86331920D02*
X150100000Y-86731920D01*
X161437500Y-105614420D02*
X161270000Y-105781920D01*
X151400000Y-82831920D02*
X151300000Y-82831920D01*
X151300000Y-82831920D02*
X150350000Y-81881920D01*
X140950000Y-87794420D02*
X140950000Y-88981920D01*
X144950000Y-75181920D02*
X144600000Y-74831920D01*
X145950000Y-74681920D02*
X145900000Y-74631920D01*
X162594232Y-95037688D02*
X162500000Y-95131920D01*
X162594232Y-94149420D02*
X162594232Y-95037688D01*
X144950000Y-76469420D02*
X144950000Y-75181920D01*
X160250000Y-105781920D02*
X161270000Y-105781920D01*
X148862500Y-85881920D02*
X149650000Y-85881920D01*
X145950000Y-76469420D02*
X145950000Y-74681920D01*
X146950000Y-76469420D02*
X146950000Y-75181920D01*
X153983000Y-107399000D02*
X153983000Y-111549000D01*
X161929000Y-122174000D02*
X162814000Y-122174000D01*
D53*
X162250000Y-90369420D02*
X162250000Y-89320500D01*
D54*
X158602500Y-94331920D02*
X157300000Y-94331920D01*
X164615000Y-119767000D02*
X164615000Y-119247000D01*
X151599500Y-113932500D02*
X148900000Y-113932500D01*
X148900000Y-113300000D02*
X149400000Y-112800000D01*
X164615000Y-126687000D02*
X165215000Y-127287000D01*
X164615000Y-119247000D02*
X165215000Y-118647000D01*
%TO.N,Net-(IC2-EN)*%
X160797500Y-76134420D02*
X160797500Y-74631920D01*
X160750000Y-76181920D02*
X160797500Y-76134420D01*
%TO.N,/ads1299_AFE_/AVDD*%
D53*
X156700000Y-77731920D02*
X156700000Y-75931920D01*
X157100000Y-78131920D02*
X156700000Y-77731920D01*
X151500000Y-73831920D02*
X146950000Y-78381920D01*
X158050000Y-78081920D02*
X158000000Y-78131920D01*
D54*
X141950000Y-87794420D02*
X141450000Y-87794420D01*
X141950000Y-76469420D02*
X141950000Y-78331920D01*
D53*
X154600000Y-73831920D02*
X151500000Y-73831920D01*
X156700000Y-75931920D02*
X154600000Y-73831920D01*
X158000000Y-78131920D02*
X157100000Y-78131920D01*
%TO.N,/ads1299_AFE_/VREFP*%
D54*
X142950000Y-88806920D02*
X142250000Y-89506920D01*
X142250000Y-90564420D02*
X141250000Y-90564420D01*
X142250000Y-89506920D02*
X142250000Y-90564420D01*
X142950000Y-87794420D02*
X142950000Y-88806920D01*
%TO.N,/ads1299_AFE_/CAP4*%
X143250000Y-90081920D02*
X143250000Y-90564420D01*
X143950000Y-87794420D02*
X143950000Y-89381920D01*
X143950000Y-89381920D02*
X143250000Y-90081920D01*
%TO.N,/ads1299_AFE_/CAP1*%
X144950000Y-87794420D02*
X144950000Y-90969420D01*
%TO.N,/ads1299_AFE_/CAP2*%
X145950000Y-89381920D02*
X146650000Y-90081920D01*
X146650000Y-90081920D02*
X146650000Y-90564420D01*
X145950000Y-87794420D02*
X145950000Y-89381920D01*
%TO.N,/ESP32_S3_WROOM/Power_ads1299*%
X150350000Y-84881920D02*
X151300000Y-85831920D01*
X151300000Y-103462000D02*
X144690080Y-110071920D01*
X148862500Y-84881920D02*
X150350000Y-84881920D01*
X144690080Y-110071920D02*
X143550000Y-110071920D01*
X151300000Y-85831920D02*
X151300000Y-103462000D01*
%TO.N,/ESP32_S3_WROOM/Reset_ads1299*%
X151725200Y-103798800D02*
X146238800Y-109285200D01*
X148862500Y-84381920D02*
X150650000Y-84381920D01*
X145116800Y-112611920D02*
X143550000Y-112611920D01*
X146238800Y-111489920D02*
X145116800Y-112611920D01*
X150650000Y-84381920D02*
X151725200Y-85457120D01*
X146238800Y-109285200D02*
X146238800Y-111489920D01*
X151725200Y-85457120D02*
X151725200Y-103798800D01*
%TO.N,Net-(U1-CLK)*%
X152900000Y-84831920D02*
X153400000Y-84831920D01*
X151950000Y-83881920D02*
X152900000Y-84831920D01*
X148862500Y-83881920D02*
X151950000Y-83881920D01*
%TO.N,/ESP32_S3_WROOM/Start*%
X153289000Y-87884000D02*
X154584400Y-86588600D01*
X154584400Y-86588600D02*
X154584400Y-83718400D01*
X153289000Y-102997000D02*
X153289000Y-87884000D01*
X148300000Y-107986000D02*
X153289000Y-102997000D01*
X145290000Y-111341920D02*
X143550000Y-111341920D01*
X148300000Y-110731920D02*
X148300000Y-107986000D01*
X154584400Y-83718400D02*
X154247920Y-83381920D01*
X147800000Y-111231920D02*
X148300000Y-110731920D01*
X154247920Y-83381920D02*
X148862500Y-83381920D01*
%TO.N,/ESP32_S3_WROOM/CS*%
X147900000Y-94331920D02*
X147900000Y-95231920D01*
X148125001Y-82881920D02*
X147800000Y-83206921D01*
X148862500Y-82881920D02*
X148125001Y-82881920D01*
X147800000Y-83206921D02*
X147800000Y-94231920D01*
X147800000Y-94231920D02*
X147900000Y-94331920D01*
%TO.N,Net-(U1-GPIO1)*%
X151852500Y-81731920D02*
X150800000Y-81731920D01*
X150450000Y-81381920D02*
X148862500Y-81381920D01*
X150800000Y-81731920D02*
X150450000Y-81381920D01*
%TO.N,/ESP32_S3_WROOM/DOUT*%
X142650000Y-85081920D02*
X143400000Y-84331920D01*
X147450000Y-80881920D02*
X148862500Y-80881920D01*
X144000000Y-84331920D02*
X147450000Y-80881920D01*
X143400000Y-84331920D02*
X144000000Y-84331920D01*
%TO.N,Net-(U1-GPIO2)*%
X148862500Y-80381920D02*
X148912500Y-80331920D01*
X148912500Y-80331920D02*
X151852500Y-80331920D01*
%TO.N,Net-(U1-GPIO3)*%
X151050000Y-79331920D02*
X151852500Y-79331920D01*
X148862500Y-79881920D02*
X150500000Y-79881920D01*
X150500000Y-79881920D02*
X151050000Y-79331920D01*
%TO.N,Net-(U1-GPIO4)*%
X150450000Y-79381920D02*
X151500000Y-78331920D01*
X148862500Y-79381920D02*
X150450000Y-79381920D01*
X151500000Y-78331920D02*
X151852500Y-78331920D01*
%TO.N,/ESP32_S3_WROOM/DRDY*%
X150250000Y-78881920D02*
X148862500Y-78881920D01*
X149794800Y-110301200D02*
X149794800Y-107253200D01*
X149794800Y-107253200D02*
X153924000Y-103124000D01*
X150700000Y-78331920D02*
X150700000Y-78431920D01*
X155092400Y-86842600D02*
X155092400Y-77839520D01*
X150700000Y-78431920D02*
X150250000Y-78881920D01*
X153924000Y-103124000D02*
X153924000Y-88011000D01*
X153924000Y-88011000D02*
X155092400Y-86842600D01*
X155092400Y-77839520D02*
X155300000Y-77631920D01*
X143550000Y-113881920D02*
X146214080Y-113881920D01*
X146214080Y-113881920D02*
X149794800Y-110301200D01*
%TO.N,/ads1299_AFE_/DVDD*%
D53*
X142910000Y-116431920D02*
X142200000Y-116431920D01*
X141200000Y-104731920D02*
X139300000Y-102831920D01*
X141200000Y-115431920D02*
X141200000Y-104731920D01*
X148018080Y-78381920D02*
X146900000Y-79500000D01*
D56*
X148900000Y-115067500D02*
X152394500Y-115067500D01*
D53*
X156100000Y-77531920D02*
X156100000Y-81781920D01*
D54*
X146450000Y-73379420D02*
X146497500Y-73331920D01*
X146500000Y-77700000D02*
X146500000Y-77400000D01*
D56*
X154686000Y-105283000D02*
X154686000Y-88773000D01*
X143550000Y-116421920D02*
X146610000Y-116421920D01*
X148835580Y-115131920D02*
X148900000Y-115067500D01*
X146610000Y-116421920D02*
X147200000Y-115831920D01*
X155702000Y-111760000D02*
X155702000Y-106299000D01*
D53*
X148862500Y-78381920D02*
X149850000Y-78381920D01*
X142200000Y-116431920D02*
X141200000Y-115431920D01*
D54*
X146450000Y-76469420D02*
X146450000Y-73379420D01*
D53*
X148862500Y-78381920D02*
X148018080Y-78381920D01*
D56*
X147197500Y-115829420D02*
X147197500Y-115131920D01*
D54*
X146450000Y-77350000D02*
X146450000Y-76469420D01*
X146500000Y-77400000D02*
X146450000Y-77350000D01*
D53*
X149850000Y-78381920D02*
X151437500Y-76794420D01*
D56*
X154686000Y-88773000D02*
X155803600Y-87655400D01*
X152394500Y-115067500D02*
X155702000Y-111760000D01*
D54*
X121902500Y-101131920D02*
X121902500Y-102434420D01*
D56*
X147197500Y-115131920D02*
X148835580Y-115131920D01*
D53*
X153995000Y-76794420D02*
X154200000Y-76999420D01*
D56*
X147200000Y-115831920D02*
X147197500Y-115829420D01*
D53*
X142920000Y-116421920D02*
X142910000Y-116431920D01*
X143550000Y-116421920D02*
X142920000Y-116421920D01*
X151437500Y-76794420D02*
X152500000Y-76794420D01*
D54*
X121902500Y-102434420D02*
X122300000Y-102831920D01*
D56*
X155803600Y-82078320D02*
X156100000Y-81781920D01*
X157962500Y-81781920D02*
X156100000Y-81781920D01*
X155803600Y-87655400D02*
X155803600Y-82078320D01*
D53*
X155567500Y-76999420D02*
X156100000Y-77531920D01*
D56*
X155702000Y-106299000D02*
X154686000Y-105283000D01*
D53*
X152500000Y-76794420D02*
X153995000Y-76794420D01*
X154200000Y-76999420D02*
X155567500Y-76999420D01*
X139300000Y-102831920D02*
X129900000Y-102831920D01*
%TO.N,Net-(U1-CLKSEL)*%
D54*
X145300000Y-73334420D02*
X145302500Y-73331920D01*
X145450000Y-76469420D02*
X145450000Y-75081920D01*
X145300000Y-74931920D02*
X145300000Y-73334420D01*
X145450000Y-75081920D02*
X145300000Y-74931920D01*
%TO.N,/ads1299_AFE_/CAP3*%
X143950000Y-73549420D02*
X143967500Y-73531920D01*
X143967500Y-72531920D02*
X143967500Y-73531920D01*
X143950000Y-76469420D02*
X143950000Y-73549420D01*
%TO.N,Net-(U1-BIASINV)*%
X139250000Y-73617500D02*
X139267500Y-73600000D01*
X139267500Y-73600000D02*
X139267500Y-72630000D01*
X139250000Y-72647500D02*
X139297500Y-72600000D01*
X139267500Y-72630000D02*
X139297500Y-72600000D01*
%TO.N,Net-(IC1-EN)*%
X161750000Y-91794420D02*
X161750000Y-95181920D01*
X161350000Y-95581920D02*
X159797500Y-95581920D01*
X161750000Y-95181920D02*
X161350000Y-95581920D01*
%TO.N,Net-(D2-K)*%
X165237500Y-101119420D02*
X165237500Y-99969420D01*
X166600000Y-102481920D02*
X165237500Y-101119420D01*
X167637500Y-102481920D02*
X166600000Y-102481920D01*
%TO.N,Vbat*%
X169291000Y-104775000D02*
X169291000Y-100965000D01*
X168284080Y-105781920D02*
X169291000Y-104775000D01*
D55*
X162387500Y-103719420D02*
X162387500Y-105764420D01*
D54*
X167157920Y-99949000D02*
X167137500Y-99969420D01*
X169291000Y-100965000D02*
X168275000Y-99949000D01*
X162405000Y-105781920D02*
X168284080Y-105781920D01*
X168275000Y-99949000D02*
X167157920Y-99949000D01*
%TO.N,/USB/Vbus*%
X160418000Y-115460000D02*
X159385000Y-114427000D01*
X162417500Y-97749420D02*
X162417500Y-98131920D01*
X165234999Y-120567000D02*
X164615000Y-120567000D01*
X158050000Y-97281920D02*
X161950000Y-97281920D01*
X163278000Y-120567000D02*
X164615000Y-120567000D01*
X161929000Y-121674000D02*
X161159000Y-121674000D01*
X159385000Y-114427000D02*
X159385000Y-109982000D01*
X159385000Y-109982000D02*
X158115000Y-108712000D01*
X160663000Y-121674000D02*
X160418000Y-121429000D01*
X161929000Y-121674000D02*
X162171000Y-121674000D01*
X161950000Y-97281920D02*
X162417500Y-97749420D01*
X156591000Y-103124000D02*
X156591000Y-99695000D01*
X158750000Y-104521000D02*
X157988000Y-104521000D01*
X159385000Y-107442000D02*
X159385000Y-105156000D01*
X159385000Y-105156000D02*
X158750000Y-104521000D01*
X160418000Y-121429000D02*
X160418000Y-115460000D01*
X161159000Y-121674000D02*
X160663000Y-121674000D01*
X156591000Y-99695000D02*
X156991580Y-99294420D01*
X162171000Y-121674000D02*
X163278000Y-120567000D01*
X165234999Y-125367000D02*
X165862000Y-124739999D01*
X157988000Y-104521000D02*
X156591000Y-103124000D01*
X165862000Y-124739999D02*
X165862000Y-121194001D01*
X156991580Y-99294420D02*
X157587500Y-99294420D01*
X157587500Y-99294420D02*
X157587500Y-97744420D01*
X157587500Y-97744420D02*
X158050000Y-97281920D01*
X158115000Y-108712000D02*
X159385000Y-107442000D01*
X165862000Y-121194001D02*
X165234999Y-120567000D01*
X164615000Y-125367000D02*
X165234999Y-125367000D01*
%TO.N,Net-(U6-EN)*%
X161800000Y-79831920D02*
X160287500Y-79831920D01*
X160287500Y-79831920D02*
X160237500Y-79881920D01*
%TO.N,Net-(D1-K)*%
X157570000Y-102381920D02*
X157570000Y-100886920D01*
X157570000Y-100886920D02*
X157587500Y-100869420D01*
%TO.N,/ESP32_S3_WROOM/USB_D+*%
X147166031Y-102879753D02*
X145878198Y-101591920D01*
X144675001Y-101181920D02*
X143550000Y-101181920D01*
X159385000Y-115888198D02*
X158783802Y-115287000D01*
X159385000Y-122365198D02*
X159385000Y-115888198D01*
X162163000Y-123174000D02*
X162206000Y-123217000D01*
X145878198Y-101591920D02*
X145085001Y-101591920D01*
X161929000Y-123174000D02*
X161159000Y-123174000D01*
X161929000Y-123174000D02*
X162163000Y-123174000D01*
X162206000Y-123217000D02*
X164615000Y-123217000D01*
X155255080Y-115287000D02*
X154400000Y-114431920D01*
X158783802Y-115287000D02*
X155255080Y-115287000D01*
X147166031Y-104293969D02*
X147166031Y-102879753D01*
X145085001Y-101591920D02*
X144675001Y-101181920D01*
X160746499Y-123174000D02*
X160721499Y-123149000D01*
X160721499Y-123149000D02*
X160168802Y-123149000D01*
X160168802Y-123149000D02*
X159385000Y-122365198D01*
X161159000Y-123174000D02*
X160746499Y-123174000D01*
%TO.N,/ESP32_S3_WROOM/USB_D-*%
X161929000Y-122674000D02*
X161159000Y-122674000D01*
X144675001Y-102451920D02*
X145085001Y-102041920D01*
X155812188Y-114837000D02*
X155303554Y-114328366D01*
X145085001Y-102041920D02*
X145621090Y-102041920D01*
X159893000Y-115759802D02*
X158970198Y-114837000D01*
X158970198Y-114837000D02*
X155812188Y-114837000D01*
X143550000Y-102451920D02*
X144675001Y-102451920D01*
X162214000Y-122717000D02*
X164615000Y-122717000D01*
X159893000Y-122236802D02*
X159893000Y-115759802D01*
X160721499Y-122699000D02*
X160355198Y-122699000D01*
X160355198Y-122699000D02*
X159893000Y-122236802D01*
X161929000Y-122674000D02*
X162171000Y-122674000D01*
X160746499Y-122674000D02*
X160721499Y-122699000D01*
X162171000Y-122674000D02*
X162214000Y-122717000D01*
X146630585Y-103051415D02*
X145621090Y-102041920D01*
X161159000Y-122674000D02*
X160746499Y-122674000D01*
%TO.N,Net-(U3-IO0)*%
X123097500Y-101131920D02*
X126000000Y-101131920D01*
X126000000Y-101131920D02*
X126050000Y-101181920D01*
%TO.N,Net-(U2-PROG)*%
X159087500Y-101049420D02*
X159555000Y-101049420D01*
X159950000Y-101444420D02*
X160487500Y-101444420D01*
X159555000Y-101049420D02*
X159950000Y-101444420D01*
%TO.N,SW*%
D53*
X161950000Y-91081920D02*
X165900000Y-91081920D01*
X165900000Y-91081920D02*
X166150000Y-91331920D01*
X161750000Y-90369420D02*
X161750000Y-90881920D01*
X161750000Y-90881920D02*
X161950000Y-91081920D01*
%TO.N,/ESP32_S3_WROOM/en*%
D54*
X143570000Y-115131920D02*
X143550000Y-115151920D01*
X146002500Y-114993710D02*
X146002500Y-115131920D01*
X151833000Y-107399000D02*
X151833000Y-111549000D01*
X149447210Y-111549000D02*
X146002500Y-114993710D01*
X146002500Y-115131920D02*
X143570000Y-115131920D01*
X151833000Y-111549000D02*
X149447210Y-111549000D01*
%TO.N,Net-(U2-STAT)*%
X160137500Y-102581920D02*
X158705000Y-102581920D01*
X160487500Y-103719420D02*
X160487500Y-102931920D01*
X160487500Y-102931920D02*
X160137500Y-102581920D01*
%TO.N,Net-(J1-Pin_2)*%
D55*
X171072000Y-87203920D02*
X169100000Y-85231920D01*
X171072000Y-108503500D02*
X171072000Y-87203920D01*
%TO.N,Net-(P1-CC)*%
D54*
X162362500Y-124217000D02*
X164615000Y-124217000D01*
X162179000Y-124400500D02*
X162362500Y-124217000D01*
%TO.N,Net-(SW1-C)*%
X155956000Y-97409000D02*
X157783080Y-95581920D01*
X155956000Y-104013000D02*
X155956000Y-97409000D01*
X157783080Y-95581920D02*
X158602500Y-95581920D01*
X158115000Y-106172000D02*
X155956000Y-104013000D01*
%TO.N,/ads1299_AFE_/6P*%
X133300000Y-80400000D02*
X134400000Y-80400000D01*
X134881920Y-80881920D02*
X137537500Y-80881920D01*
X134400000Y-80400000D02*
X134881920Y-80881920D01*
%TD*%
%TA.AperFunction,Conductor*%
%TO.N,/USB/Vbus*%
G36*
X162719041Y-91436941D02*
G01*
X162745337Y-91444663D01*
X162793971Y-91472032D01*
X166038464Y-94431920D01*
X166902403Y-94431920D01*
X166937338Y-94436943D01*
X166952336Y-94441347D01*
X167011087Y-94479092D01*
X167011111Y-94479120D01*
X167011114Y-94479122D01*
X167011115Y-94479124D01*
X167012274Y-94480461D01*
X167039750Y-94535322D01*
X167041395Y-94542880D01*
X167044232Y-94569251D01*
X167044232Y-98690090D01*
X167044231Y-98690096D01*
X167044232Y-98690099D01*
X167039207Y-98725034D01*
X167034802Y-98740032D01*
X166997059Y-98798775D01*
X166997024Y-98798805D01*
X166997023Y-98798807D01*
X166997021Y-98798807D01*
X166995690Y-98799962D01*
X166940829Y-98827438D01*
X166933271Y-98829083D01*
X166906900Y-98831920D01*
X164644232Y-98831920D01*
X164644232Y-100954561D01*
X164639444Y-100976262D01*
X164853372Y-101229086D01*
X164853373Y-101229087D01*
X164872105Y-101259000D01*
X164883621Y-101285018D01*
X164894232Y-101335206D01*
X164894232Y-102990090D01*
X164889207Y-103025034D01*
X164884802Y-103040032D01*
X164847059Y-103098775D01*
X164845690Y-103099962D01*
X164790829Y-103127438D01*
X164783271Y-103129083D01*
X164756900Y-103131920D01*
X163942167Y-103131920D01*
X163911063Y-103127955D01*
X163881439Y-103120278D01*
X163852327Y-103108639D01*
X162124133Y-102148531D01*
X162096034Y-102127175D01*
X162083383Y-102114338D01*
X162051333Y-102057085D01*
X162048513Y-102045689D01*
X162044885Y-102014994D01*
X162050645Y-101229086D01*
X162090267Y-95822836D01*
X162095546Y-95787943D01*
X162100060Y-95772976D01*
X162138261Y-95714479D01*
X162139853Y-95713120D01*
X162194435Y-95686185D01*
X162197159Y-95685603D01*
X162201594Y-95684656D01*
X162227497Y-95681920D01*
X163094232Y-95681920D01*
X163094232Y-93531920D01*
X162236062Y-93531920D01*
X162236057Y-93531919D01*
X162236055Y-93531920D01*
X162201121Y-93526895D01*
X162186122Y-93522490D01*
X162127376Y-93484747D01*
X162127347Y-93484713D01*
X162127346Y-93484713D01*
X162127345Y-93484711D01*
X162126189Y-93483378D01*
X162098709Y-93428503D01*
X162097064Y-93420941D01*
X162094232Y-93394588D01*
X162094232Y-91573749D01*
X162099255Y-91538813D01*
X162103659Y-91523815D01*
X162141404Y-91465064D01*
X162141432Y-91465039D01*
X162141431Y-91465039D01*
X162142773Y-91463876D01*
X162197652Y-91436397D01*
X162205211Y-91434753D01*
X162231564Y-91431920D01*
X162684109Y-91431920D01*
X162719041Y-91436941D01*
G37*
%TD.AperFunction*%
%TD*%
%TA.AperFunction,Conductor*%
%TO.N,Net-(IC1-VOUT)*%
G36*
X161995039Y-82925285D02*
G01*
X162040794Y-82978089D01*
X162052000Y-83029600D01*
X162052000Y-88623600D01*
X162032315Y-88690639D01*
X161979511Y-88736394D01*
X161928000Y-88747600D01*
X161391600Y-88747600D01*
X161391600Y-90757200D01*
X161371915Y-90824239D01*
X161319111Y-90869994D01*
X161267600Y-90881200D01*
X159004000Y-90881200D01*
X159004000Y-93297200D01*
X158984315Y-93364239D01*
X158931511Y-93409994D01*
X158880000Y-93421200D01*
X158315200Y-93421200D01*
X158248161Y-93401515D01*
X158202406Y-93348711D01*
X158191200Y-93297200D01*
X158191200Y-90881200D01*
X156892800Y-90881200D01*
X156825761Y-90861515D01*
X156780006Y-90808711D01*
X156768800Y-90757200D01*
X156768800Y-89481200D01*
X156788485Y-89414161D01*
X156841289Y-89368406D01*
X156892800Y-89357200D01*
X160121599Y-89357200D01*
X160121600Y-89357200D01*
X160170629Y-85974203D01*
X160191283Y-85907456D01*
X160244744Y-85862471D01*
X160294616Y-85852000D01*
X160731200Y-85852000D01*
X160731200Y-83029600D01*
X160750885Y-82962561D01*
X160803689Y-82916806D01*
X160855200Y-82905600D01*
X161928000Y-82905600D01*
X161995039Y-82925285D01*
G37*
%TD.AperFunction*%
%TD*%
%TA.AperFunction,Conductor*%
%TO.N,GND*%
G36*
X143600000Y-86731920D02*
G01*
X143600000Y-88407920D01*
X143597449Y-88416605D01*
X143598738Y-88425567D01*
X143587759Y-88449607D01*
X143580315Y-88474959D01*
X143573474Y-88480886D01*
X143569713Y-88489123D01*
X143547478Y-88503412D01*
X143527511Y-88520714D01*
X143516996Y-88523001D01*
X143510935Y-88526897D01*
X143476000Y-88531920D01*
X143424000Y-88531920D01*
X143356961Y-88512235D01*
X143311206Y-88459431D01*
X143300000Y-88407920D01*
X143300000Y-86731920D01*
X143300000Y-85931920D01*
X143600000Y-85931920D01*
X143600000Y-86731920D01*
G37*
%TD.AperFunction*%
%TD*%
%TA.AperFunction,Conductor*%
%TO.N,Net-(IC1-FB)*%
G36*
X161409999Y-91485647D02*
G01*
X161416898Y-91488505D01*
X161432804Y-91504411D01*
X161443413Y-91515018D01*
X161446271Y-91521919D01*
X161450000Y-91540667D01*
X161450000Y-94623172D01*
X161446271Y-94641923D01*
X161443416Y-94648816D01*
X161416898Y-94675334D01*
X161410003Y-94678190D01*
X161391253Y-94681920D01*
X160650000Y-94681920D01*
X159508747Y-94681920D01*
X159489999Y-94678191D01*
X159483101Y-94675334D01*
X159456585Y-94648818D01*
X159453727Y-94641917D01*
X159450000Y-94623172D01*
X159450000Y-91540667D01*
X159453727Y-91521922D01*
X159456583Y-91515026D01*
X159483094Y-91488508D01*
X159490002Y-91485646D01*
X159508747Y-91481920D01*
X161391253Y-91481920D01*
X161409999Y-91485647D01*
G37*
%TD.AperFunction*%
%TD*%
%TA.AperFunction,Conductor*%
%TO.N,GND*%
G36*
X165543039Y-76851605D02*
G01*
X165588794Y-76904409D01*
X165600000Y-76955920D01*
X165600000Y-80631920D01*
X163700000Y-80631920D01*
X163700000Y-77431920D01*
X160124000Y-77431920D01*
X160056961Y-77412235D01*
X160011206Y-77359431D01*
X160000000Y-77307920D01*
X160000000Y-76955920D01*
X160019685Y-76888881D01*
X160072489Y-76843126D01*
X160124000Y-76831920D01*
X165476000Y-76831920D01*
X165543039Y-76851605D01*
G37*
%TD.AperFunction*%
%TD*%
%TA.AperFunction,Conductor*%
%TO.N,GND*%
G36*
X143185648Y-72246272D02*
G01*
X143200000Y-72280920D01*
X143200000Y-75782297D01*
X143199516Y-75787220D01*
X143199736Y-75787242D01*
X143199500Y-75789637D01*
X143199500Y-77149205D01*
X143199736Y-77151601D01*
X143199512Y-77151623D01*
X143200000Y-77156544D01*
X143200000Y-77182920D01*
X143185648Y-77217568D01*
X143151000Y-77231920D01*
X142349000Y-77231920D01*
X142314352Y-77217568D01*
X142300000Y-77182920D01*
X142300000Y-72280920D01*
X142314352Y-72246272D01*
X142349000Y-72231920D01*
X143151000Y-72231920D01*
X143185648Y-72246272D01*
G37*
%TD.AperFunction*%
%TD*%
%TA.AperFunction,Conductor*%
%TO.N,GND*%
G36*
X161697499Y-97785647D02*
G01*
X161704398Y-97788505D01*
X161720304Y-97804411D01*
X161730913Y-97815018D01*
X161733771Y-97821919D01*
X161737500Y-97840667D01*
X161737500Y-104323172D01*
X161733771Y-104341923D01*
X161730916Y-104348816D01*
X161704398Y-104375334D01*
X161697503Y-104378190D01*
X161678753Y-104381920D01*
X161196247Y-104381920D01*
X161177499Y-104378191D01*
X161170601Y-104375334D01*
X161144085Y-104348818D01*
X161141227Y-104341917D01*
X161137500Y-104323172D01*
X161137500Y-100381920D01*
X158696247Y-100381920D01*
X158677499Y-100378191D01*
X158670601Y-100375334D01*
X158644085Y-100348818D01*
X158641227Y-100341917D01*
X158637500Y-100323172D01*
X158637500Y-97840667D01*
X158641227Y-97821922D01*
X158644083Y-97815026D01*
X158670594Y-97788508D01*
X158677502Y-97785646D01*
X158696247Y-97781920D01*
X161678753Y-97781920D01*
X161697499Y-97785647D01*
G37*
%TD.AperFunction*%
%TD*%
%TA.AperFunction,Conductor*%
%TO.N,GND*%
G36*
X170885039Y-80501605D02*
G01*
X170930794Y-80554409D01*
X170942000Y-80605920D01*
X170942000Y-83569000D01*
X170922315Y-83636039D01*
X170869511Y-83681794D01*
X170818000Y-83693000D01*
X165100000Y-83693000D01*
X165100000Y-80631920D01*
X165600000Y-80631920D01*
X165600000Y-80481920D01*
X170818000Y-80481920D01*
X170885039Y-80501605D01*
G37*
%TD.AperFunction*%
%TD*%
%TA.AperFunction,NonConductor*%
G36*
X138243039Y-112042104D02*
G01*
X138288794Y-112094908D01*
X138300000Y-112146419D01*
X138300000Y-113631919D01*
X138299999Y-113631919D01*
X141283021Y-117211545D01*
X141310817Y-117275648D01*
X141299543Y-117344602D01*
X141276751Y-117377282D01*
X141264721Y-117389678D01*
X141232087Y-117408520D01*
X141157520Y-117483087D01*
X141133197Y-117525214D01*
X141122489Y-117536250D01*
X141104922Y-117546187D01*
X141090318Y-117560112D01*
X141075136Y-117563037D01*
X141061675Y-117570653D01*
X141041523Y-117569515D01*
X141021711Y-117573334D01*
X141007357Y-117567587D01*
X140991917Y-117566716D01*
X140975579Y-117554864D01*
X140956847Y-117547365D01*
X140942640Y-117530970D01*
X140935360Y-117525689D01*
X140933144Y-117520011D01*
X140926114Y-117511898D01*
X140921455Y-117503829D01*
X140909480Y-117483087D01*
X140834913Y-117408520D01*
X140768059Y-117369922D01*
X140743589Y-117355794D01*
X140743588Y-117355793D01*
X140743587Y-117355793D01*
X140641727Y-117328500D01*
X140536273Y-117328500D01*
X140434413Y-117355793D01*
X140434410Y-117355794D01*
X140343085Y-117408521D01*
X140268521Y-117483085D01*
X140251043Y-117513358D01*
X140200475Y-117561573D01*
X140131868Y-117574794D01*
X140067004Y-117548825D01*
X140036271Y-117513358D01*
X140030773Y-117503835D01*
X140020480Y-117486007D01*
X139945913Y-117411440D01*
X139854587Y-117358713D01*
X139752727Y-117331420D01*
X139647273Y-117331420D01*
X139545413Y-117358713D01*
X139545410Y-117358714D01*
X139454085Y-117411441D01*
X139379522Y-117486004D01*
X139379520Y-117486006D01*
X139379520Y-117486007D01*
X139357385Y-117524345D01*
X139306820Y-117572559D01*
X139238212Y-117585781D01*
X139173348Y-117559813D01*
X139142615Y-117524346D01*
X139120480Y-117486007D01*
X139045913Y-117411440D01*
X138954587Y-117358713D01*
X138852727Y-117331420D01*
X138747273Y-117331420D01*
X138645413Y-117358713D01*
X138645410Y-117358714D01*
X138554085Y-117411441D01*
X138479520Y-117486006D01*
X138469226Y-117503835D01*
X138418657Y-117552048D01*
X138350049Y-117565268D01*
X138285186Y-117539297D01*
X138254458Y-117503833D01*
X138242480Y-117483087D01*
X138167913Y-117408520D01*
X138101059Y-117369922D01*
X138076589Y-117355794D01*
X138076588Y-117355793D01*
X138076587Y-117355793D01*
X137974727Y-117328500D01*
X137869273Y-117328500D01*
X137767413Y-117355793D01*
X137767410Y-117355794D01*
X137676085Y-117408521D01*
X137601522Y-117483084D01*
X137601520Y-117483086D01*
X137601520Y-117483087D01*
X137569068Y-117539297D01*
X137567544Y-117541936D01*
X137516976Y-117590151D01*
X137448369Y-117603373D01*
X137383505Y-117577405D01*
X137352771Y-117541937D01*
X137320480Y-117486007D01*
X137245913Y-117411440D01*
X137154587Y-117358713D01*
X137052727Y-117331420D01*
X136947273Y-117331420D01*
X136845413Y-117358713D01*
X136845410Y-117358714D01*
X136754085Y-117411441D01*
X136679522Y-117486004D01*
X136679520Y-117486006D01*
X136679520Y-117486007D01*
X136657385Y-117524345D01*
X136606820Y-117572559D01*
X136538212Y-117585781D01*
X136473348Y-117559813D01*
X136442615Y-117524346D01*
X136420480Y-117486007D01*
X136345913Y-117411440D01*
X136254587Y-117358713D01*
X136152727Y-117331420D01*
X136047273Y-117331420D01*
X135945413Y-117358713D01*
X135945410Y-117358714D01*
X135854085Y-117411441D01*
X135779522Y-117486004D01*
X135779520Y-117486006D01*
X135779520Y-117486007D01*
X135757385Y-117524345D01*
X135706820Y-117572559D01*
X135638212Y-117585781D01*
X135573348Y-117559813D01*
X135542615Y-117524346D01*
X135520480Y-117486007D01*
X135445913Y-117411440D01*
X135354587Y-117358713D01*
X135252727Y-117331420D01*
X135147273Y-117331420D01*
X135045413Y-117358713D01*
X135045410Y-117358714D01*
X134954085Y-117411441D01*
X134879522Y-117486004D01*
X134879520Y-117486006D01*
X134879520Y-117486007D01*
X134857385Y-117524345D01*
X134806820Y-117572559D01*
X134738212Y-117585781D01*
X134673348Y-117559813D01*
X134642615Y-117524346D01*
X134620480Y-117486007D01*
X134545913Y-117411440D01*
X134454587Y-117358713D01*
X134352727Y-117331420D01*
X134247273Y-117331420D01*
X134145413Y-117358713D01*
X134145410Y-117358714D01*
X134054085Y-117411441D01*
X133979522Y-117486004D01*
X133979520Y-117486006D01*
X133979520Y-117486007D01*
X133957385Y-117524345D01*
X133906820Y-117572559D01*
X133838212Y-117585781D01*
X133773348Y-117559813D01*
X133742615Y-117524346D01*
X133720480Y-117486007D01*
X133645913Y-117411440D01*
X133554587Y-117358713D01*
X133452727Y-117331420D01*
X133347273Y-117331420D01*
X133245413Y-117358713D01*
X133245410Y-117358714D01*
X133154085Y-117411441D01*
X133079522Y-117486004D01*
X133079520Y-117486006D01*
X133079520Y-117486007D01*
X133057385Y-117524345D01*
X133006820Y-117572559D01*
X132938212Y-117585781D01*
X132873348Y-117559813D01*
X132842615Y-117524346D01*
X132820480Y-117486007D01*
X132745913Y-117411440D01*
X132654587Y-117358713D01*
X132552727Y-117331420D01*
X132447273Y-117331420D01*
X132345413Y-117358713D01*
X132345410Y-117358714D01*
X132254085Y-117411441D01*
X132179522Y-117486004D01*
X132179520Y-117486006D01*
X132179520Y-117486007D01*
X132157385Y-117524345D01*
X132106820Y-117572559D01*
X132038212Y-117585781D01*
X131973348Y-117559813D01*
X131942615Y-117524346D01*
X131920480Y-117486007D01*
X131845913Y-117411440D01*
X131754587Y-117358713D01*
X131652727Y-117331420D01*
X131547273Y-117331420D01*
X131445413Y-117358713D01*
X131445410Y-117358714D01*
X131354085Y-117411441D01*
X131279522Y-117486004D01*
X131279520Y-117486006D01*
X131279520Y-117486007D01*
X131257385Y-117524345D01*
X131206820Y-117572559D01*
X131138212Y-117585781D01*
X131073348Y-117559813D01*
X131042615Y-117524346D01*
X131020480Y-117486007D01*
X130945913Y-117411440D01*
X130854587Y-117358713D01*
X130752727Y-117331420D01*
X130647273Y-117331420D01*
X130545413Y-117358713D01*
X130545410Y-117358714D01*
X130454085Y-117411441D01*
X130379522Y-117486004D01*
X130379520Y-117486006D01*
X130379520Y-117486007D01*
X130357385Y-117524345D01*
X130306820Y-117572559D01*
X130238212Y-117585781D01*
X130173348Y-117559813D01*
X130142615Y-117524346D01*
X130120480Y-117486007D01*
X130045913Y-117411440D01*
X129954587Y-117358713D01*
X129852727Y-117331420D01*
X129747273Y-117331420D01*
X129645413Y-117358713D01*
X129645410Y-117358714D01*
X129554085Y-117411441D01*
X129479521Y-117486005D01*
X129460728Y-117518555D01*
X129410160Y-117566770D01*
X129341552Y-117579991D01*
X129276688Y-117554022D01*
X129245957Y-117518555D01*
X129225480Y-117483087D01*
X129150913Y-117408520D01*
X129084059Y-117369922D01*
X129059589Y-117355794D01*
X129059588Y-117355793D01*
X129059587Y-117355793D01*
X128957727Y-117328500D01*
X128852273Y-117328500D01*
X128750413Y-117355793D01*
X128750410Y-117355794D01*
X128659085Y-117408521D01*
X128584521Y-117483085D01*
X128567043Y-117513358D01*
X128516475Y-117561573D01*
X128447868Y-117574794D01*
X128383004Y-117548825D01*
X128363597Y-117529768D01*
X128357271Y-117522018D01*
X128336480Y-117486007D01*
X128289649Y-117439176D01*
X128285695Y-117434332D01*
X128274453Y-117407669D01*
X128260589Y-117382278D01*
X128261047Y-117375870D01*
X128258551Y-117369950D01*
X128263509Y-117341443D01*
X128265573Y-117312586D01*
X128269423Y-117307442D01*
X128270524Y-117301114D01*
X128290107Y-117279813D01*
X128307445Y-117256653D01*
X128313463Y-117254408D01*
X128317812Y-117249678D01*
X128345801Y-117242346D01*
X128372909Y-117232236D01*
X128381755Y-117231920D01*
X128400000Y-117231920D01*
X134400000Y-113631920D01*
X134400000Y-112146419D01*
X134419685Y-112079380D01*
X134472489Y-112033625D01*
X134523995Y-112022419D01*
X138176000Y-112022419D01*
X138243039Y-112042104D01*
G37*
%TD.AperFunction*%
%TA.AperFunction,NonConductor*%
G36*
X142642539Y-117251605D02*
G01*
X142688294Y-117304409D01*
X142699500Y-117355920D01*
X142699501Y-118007920D01*
X142679817Y-118074959D01*
X142627013Y-118120714D01*
X142575501Y-118131920D01*
X141922606Y-118131920D01*
X141855567Y-118112235D01*
X141809812Y-118059431D01*
X141799868Y-117990273D01*
X141815219Y-117945920D01*
X141851207Y-117883587D01*
X141878500Y-117781727D01*
X141878500Y-117676273D01*
X141851207Y-117574413D01*
X141798480Y-117483087D01*
X141758994Y-117443601D01*
X141725509Y-117382278D01*
X141730493Y-117312586D01*
X141772365Y-117256653D01*
X141837829Y-117232236D01*
X141846675Y-117231920D01*
X142575500Y-117231920D01*
X142642539Y-117251605D01*
G37*
%TD.AperFunction*%
%TA.AperFunction,Conductor*%
%TO.N,GND*%
G36*
X154443039Y-78051605D02*
G01*
X154488794Y-78104409D01*
X154500000Y-78155920D01*
X154500000Y-81907920D01*
X154480315Y-81974959D01*
X154427511Y-82020714D01*
X154376000Y-82031920D01*
X152824000Y-82031920D01*
X152756961Y-82012235D01*
X152711206Y-81959431D01*
X152700000Y-81907920D01*
X152700000Y-78155920D01*
X152719685Y-78088881D01*
X152772489Y-78043126D01*
X152824000Y-78031920D01*
X154376000Y-78031920D01*
X154443039Y-78051605D01*
G37*
%TD.AperFunction*%
%TD*%
%TA.AperFunction,Conductor*%
%TO.N,GND*%
G36*
X143300000Y-86731920D02*
G01*
X142600000Y-86731920D01*
X142600000Y-88407920D01*
X142597449Y-88416605D01*
X142598738Y-88425567D01*
X142587759Y-88449607D01*
X142580315Y-88474959D01*
X142573474Y-88480886D01*
X142569713Y-88489123D01*
X142547478Y-88503412D01*
X142527511Y-88520714D01*
X142516996Y-88523001D01*
X142510935Y-88526897D01*
X142476000Y-88531920D01*
X142424000Y-88531920D01*
X142356961Y-88512235D01*
X142311206Y-88459431D01*
X142300000Y-88407920D01*
X142300000Y-86055920D01*
X142319685Y-85988881D01*
X142372489Y-85943126D01*
X142424000Y-85931920D01*
X143300000Y-85931920D01*
X143300000Y-86731920D01*
G37*
%TD.AperFunction*%
%TA.AperFunction,Conductor*%
G36*
X147043039Y-85951605D02*
G01*
X147088794Y-86004409D01*
X147100000Y-86055920D01*
X147100000Y-88407920D01*
X147097449Y-88416605D01*
X147098738Y-88425567D01*
X147087759Y-88449607D01*
X147080315Y-88474959D01*
X147073474Y-88480886D01*
X147069713Y-88489123D01*
X147047478Y-88503412D01*
X147027511Y-88520714D01*
X147016996Y-88523001D01*
X147010935Y-88526897D01*
X146976000Y-88531920D01*
X146924000Y-88531920D01*
X146856961Y-88512235D01*
X146811206Y-88459431D01*
X146800000Y-88407920D01*
X146800000Y-86731920D01*
X143600000Y-86731920D01*
X143600000Y-85931920D01*
X146976000Y-85931920D01*
X147043039Y-85951605D01*
G37*
%TD.AperFunction*%
%TD*%
%TA.AperFunction,Conductor*%
%TO.N,GND*%
G36*
X143543039Y-91351605D02*
G01*
X143588794Y-91404409D01*
X143600000Y-91455920D01*
X143600000Y-93431920D01*
X146300000Y-93431920D01*
X146300000Y-91455920D01*
X146319685Y-91388881D01*
X146372489Y-91343126D01*
X146424000Y-91331920D01*
X146876000Y-91331920D01*
X146943039Y-91351605D01*
X146988794Y-91404409D01*
X147000000Y-91455920D01*
X147000000Y-94707920D01*
X146980315Y-94774959D01*
X146927511Y-94820714D01*
X146876000Y-94831920D01*
X141024000Y-94831920D01*
X140956961Y-94812235D01*
X140911206Y-94759431D01*
X140900000Y-94707920D01*
X140900000Y-91455920D01*
X140919685Y-91388881D01*
X140972489Y-91343126D01*
X141024000Y-91331920D01*
X143476000Y-91331920D01*
X143543039Y-91351605D01*
G37*
%TD.AperFunction*%
%TD*%
%TA.AperFunction,Conductor*%
%TO.N,GND*%
G36*
X165100000Y-83693000D02*
G01*
X166373000Y-83693000D01*
X166373000Y-88118354D01*
X166369269Y-88137107D01*
X166363481Y-88151079D01*
X166347103Y-88171903D01*
X163629186Y-90155984D01*
X163615490Y-90162991D01*
X163601409Y-90167584D01*
X163586214Y-90170000D01*
X162881747Y-90170000D01*
X162862999Y-90166271D01*
X162856101Y-90163414D01*
X162829585Y-90136898D01*
X162826727Y-90129997D01*
X162823000Y-90111252D01*
X162823000Y-81659000D01*
X162837352Y-81624352D01*
X162872000Y-81610000D01*
X165100000Y-81610000D01*
X165100000Y-83693000D01*
G37*
%TD.AperFunction*%
%TD*%
%TA.AperFunction,Conductor*%
%TO.N,GND*%
G36*
X163700000Y-80631920D02*
G01*
X165100000Y-80631920D01*
X165100000Y-81610000D01*
X162823000Y-81610000D01*
X162823000Y-82181920D01*
X162164680Y-82181920D01*
X162134087Y-82177074D01*
X162121401Y-82172952D01*
X162071901Y-82136988D01*
X162071894Y-82136978D01*
X162068900Y-82132856D01*
X162050000Y-82074676D01*
X162050000Y-81181921D01*
X162050000Y-81181920D01*
X162049999Y-81181920D01*
X159764680Y-81181920D01*
X159734087Y-81177074D01*
X159721401Y-81172952D01*
X159671901Y-81136988D01*
X159671894Y-81136978D01*
X159668900Y-81132856D01*
X159650000Y-81074676D01*
X159650000Y-80596600D01*
X159654843Y-80566014D01*
X159658966Y-80553323D01*
X159658969Y-80553319D01*
X159658969Y-80553314D01*
X159658972Y-80553306D01*
X159676720Y-80528885D01*
X159694923Y-80503826D01*
X159695522Y-80503391D01*
X159699063Y-80500820D01*
X159757243Y-80481920D01*
X163700000Y-80481920D01*
X163700000Y-80631920D01*
G37*
%TD.AperFunction*%
%TD*%
%TA.AperFunction,Conductor*%
%TO.N,Vbat*%
G36*
X162757039Y-103016685D02*
G01*
X162802794Y-103069489D01*
X162814000Y-103121000D01*
X162814000Y-105156000D01*
X165103000Y-105156000D01*
X165170039Y-105175685D01*
X165215794Y-105228489D01*
X165227000Y-105280000D01*
X165227000Y-112014000D01*
X172723000Y-112014000D01*
X172790039Y-112033685D01*
X172835794Y-112086489D01*
X172847000Y-112138000D01*
X172847000Y-114050233D01*
X172827315Y-114117272D01*
X172774511Y-114163027D01*
X172724240Y-114174227D01*
X160272240Y-114298747D01*
X160205007Y-114279734D01*
X160158726Y-114227390D01*
X160147000Y-114174753D01*
X160147000Y-107312000D01*
X160166685Y-107244961D01*
X160219489Y-107199206D01*
X160271000Y-107188000D01*
X162052000Y-107188000D01*
X162052000Y-103121000D01*
X162071685Y-103053961D01*
X162124489Y-103008206D01*
X162176000Y-102997000D01*
X162690000Y-102997000D01*
X162757039Y-103016685D01*
G37*
%TD.AperFunction*%
%TD*%
%TA.AperFunction,NonConductor*%
G36*
X153857062Y-75104899D02*
G01*
X153890521Y-75106483D01*
X153892344Y-75107422D01*
X153893334Y-75107493D01*
X153896777Y-75109706D01*
X153921896Y-75122646D01*
X153930347Y-75128660D01*
X153954087Y-75152400D01*
X154005063Y-75181831D01*
X154009862Y-75185246D01*
X154027968Y-75208255D01*
X154048182Y-75229455D01*
X154049327Y-75235397D01*
X154053070Y-75240154D01*
X154055862Y-75269309D01*
X154061404Y-75298063D01*
X154059154Y-75303680D01*
X154059732Y-75309705D01*
X154046319Y-75335740D01*
X154035436Y-75362927D01*
X154030507Y-75366436D01*
X154027735Y-75371818D01*
X154002372Y-75386471D01*
X153978522Y-75403455D01*
X153972478Y-75403742D01*
X153967237Y-75406771D01*
X153962159Y-75407892D01*
X153945309Y-75411243D01*
X153860794Y-75467714D01*
X153804323Y-75552230D01*
X153788434Y-75632111D01*
X153756049Y-75694022D01*
X153695334Y-75728596D01*
X153666817Y-75731920D01*
X153136045Y-75731920D01*
X153069006Y-75712235D01*
X153023251Y-75659431D01*
X153013307Y-75590273D01*
X153023663Y-75555515D01*
X153025195Y-75552230D01*
X153069019Y-75458250D01*
X153075500Y-75409023D01*
X153075499Y-75264064D01*
X153095183Y-75197027D01*
X153147987Y-75151272D01*
X153217145Y-75141328D01*
X153261497Y-75156678D01*
X153345413Y-75205127D01*
X153447273Y-75232420D01*
X153447275Y-75232420D01*
X153552725Y-75232420D01*
X153552727Y-75232420D01*
X153654587Y-75205127D01*
X153745913Y-75152400D01*
X153762319Y-75135994D01*
X153791697Y-75119951D01*
X153820729Y-75103179D01*
X153822280Y-75103252D01*
X153823642Y-75102509D01*
X153857062Y-75104899D01*
G37*
%TD.AperFunction*%
M02*
