%TF.GenerationSoftware,KiCad,Pcbnew,10.0.1*%
%TF.CreationDate,2026-07-14T21:52:37+03:00*%
%TF.ProjectId,ads1299_test_board,61647331-3239-4395-9f74-6573745f626f,rev?*%
%TF.SameCoordinates,Original*%
%TF.FileFunction,Copper,L2,Bot*%
%TF.FilePolarity,Positive*%
%FSLAX46Y46*%
G04 Gerber Fmt 4.6, Leading zero omitted, Abs format (unit mm)*
G04 Created by KiCad (PCBNEW 10.0.1) date 2026-07-14 21:52:37*
%MOMM*%
%LPD*%
G01*
G04 APERTURE LIST*
G04 Aperture macros list*
%AMRoundRect*
0 Rectangle with rounded corners*
0 $1 Rounding radius*
0 $2 $3 $4 $5 $6 $7 $8 $9 X,Y pos of 4 corners*
0 Add a 4 corners polygon primitive as box body*
4,1,4,$2,$3,$4,$5,$6,$7,$8,$9,$2,$3,0*
0 Add four circle primitives for the rounded corners*
1,1,$1+$1,$2,$3*
1,1,$1+$1,$4,$5*
1,1,$1+$1,$6,$7*
1,1,$1+$1,$8,$9*
0 Add four rect primitives between the rounded corners*
20,1,$1+$1,$2,$3,$4,$5,0*
20,1,$1+$1,$4,$5,$6,$7,0*
20,1,$1+$1,$6,$7,$8,$9,0*
20,1,$1+$1,$8,$9,$2,$3,0*%
G04 Aperture macros list end*
%TA.AperFunction,SMDPad,CuDef*%
%ADD10R,0.560000X0.300000*%
%TD*%
%TA.AperFunction,HeatsinkPad*%
%ADD11C,0.600000*%
%TD*%
%TA.AperFunction,ComponentPad*%
%ADD12RoundRect,0.250000X0.600000X0.600000X-0.600000X0.600000X-0.600000X-0.600000X0.600000X-0.600000X0*%
%TD*%
%TA.AperFunction,ComponentPad*%
%ADD13C,1.700000*%
%TD*%
%TA.AperFunction,ComponentPad*%
%ADD14R,1.500000X1.500000*%
%TD*%
%TA.AperFunction,ComponentPad*%
%ADD15C,1.600000*%
%TD*%
%TA.AperFunction,ComponentPad*%
%ADD16RoundRect,0.250000X-0.750000X0.600000X-0.750000X-0.600000X0.750000X-0.600000X0.750000X0.600000X0*%
%TD*%
%TA.AperFunction,ComponentPad*%
%ADD17O,2.000000X1.700000*%
%TD*%
%TA.AperFunction,ComponentPad*%
%ADD18O,2.100000X1.000000*%
%TD*%
%TA.AperFunction,ComponentPad*%
%ADD19O,1.800000X1.000000*%
%TD*%
%TA.AperFunction,ViaPad*%
%ADD20C,0.600000*%
%TD*%
%TA.AperFunction,Conductor*%
%ADD21C,0.200000*%
%TD*%
%TA.AperFunction,Conductor*%
%ADD22C,0.300000*%
%TD*%
G04 APERTURE END LIST*
D10*
%TO.P,CN1,8,8_8*%
%TO.N,/ads1299_AFE_/2N*%
X135940000Y-85050000D03*
%TO.P,CN1,7,7_7*%
%TO.N,/ads1299_AFE_/2P*%
X135940000Y-85550000D03*
%TO.P,CN1,6,6_6*%
%TO.N,/ads1299_AFE_/1N*%
X135940000Y-86050000D03*
%TO.P,CN1,5,5_5*%
%TO.N,/ads1299_AFE_/1P*%
X135940000Y-86550000D03*
%TO.P,CN1,4,4_4*%
%TO.N,GND*%
X137260000Y-86550000D03*
%TO.P,CN1,3,3_3*%
X137260000Y-86050000D03*
%TO.P,CN1,2,2_2*%
X137260000Y-85550000D03*
%TO.P,CN1,1,1_1*%
X137260000Y-85050000D03*
%TD*%
D11*
%TO.P,U3,41,GND_41*%
%TO.N,GND*%
X134900000Y-109271920D03*
X134900000Y-110671920D03*
X135600000Y-108571920D03*
X135600000Y-109971920D03*
X135600000Y-111371920D03*
X136300000Y-109271920D03*
X136300000Y-110671920D03*
X137000000Y-108571920D03*
X137000000Y-109971920D03*
X137000000Y-111371920D03*
X137700000Y-109271920D03*
X137700000Y-110671920D03*
%TD*%
D12*
%TO.P,J2,1,Pin_1_1*%
%TO.N,/ads1299_AFE_/IN1P*%
X117300000Y-99860000D03*
D13*
%TO.P,J2,2,Pin_2_2*%
%TO.N,/ads1299_AFE_/IN1N*%
X114760000Y-99860000D03*
%TO.P,J2,3,Pin_3_3*%
%TO.N,/ads1299_AFE_/IN2P*%
X117300000Y-97320000D03*
%TO.P,J2,4,Pin_4_4*%
%TO.N,/ads1299_AFE_/IN2N*%
X114760000Y-97320000D03*
%TO.P,J2,5,Pin_5_5*%
%TO.N,/ads1299_AFE_/IN3P*%
X117300000Y-94780000D03*
%TO.P,J2,6,Pin_6_6*%
%TO.N,/ads1299_AFE_/IN3N*%
X114760000Y-94780000D03*
%TO.P,J2,7,Pin_7_7*%
%TO.N,/ads1299_AFE_/IN4P*%
X117300000Y-92240000D03*
%TO.P,J2,8,Pin_8_8*%
%TO.N,/ads1299_AFE_/IN4N*%
X114760000Y-92240000D03*
%TO.P,J2,9,Pin_9_9*%
%TO.N,/ads1299_AFE_/IN5P*%
X117300000Y-89700000D03*
%TO.P,J2,10,Pin_10_10*%
%TO.N,/ads1299_AFE_/IN5N*%
X114760000Y-89700000D03*
%TO.P,J2,11,Pin_11_11*%
%TO.N,/ads1299_AFE_/IN6P*%
X117300000Y-87160000D03*
%TO.P,J2,12,Pin_12_12*%
%TO.N,/ads1299_AFE_/IN6N*%
X114760000Y-87160000D03*
%TO.P,J2,13,Pin_13_13*%
%TO.N,/ads1299_AFE_/IN7P*%
X117300000Y-84620000D03*
%TO.P,J2,14,Pin_14_14*%
%TO.N,/ads1299_AFE_/IN7N*%
X114760000Y-84620000D03*
%TO.P,J2,15,Pin_15_15*%
%TO.N,/ads1299_AFE_/IN8P*%
X117300000Y-82080000D03*
%TO.P,J2,16,Pin_16_16*%
%TO.N,/ads1299_AFE_/IN8N*%
X114760000Y-82080000D03*
%TO.P,J2,17,Pin_17_17*%
%TO.N,/ads1299_AFE_/Ref_electrode*%
X117300000Y-79540000D03*
%TO.P,J2,18,Pin_18_18*%
%TO.N,/ads1299_AFE_/Bias_electrode*%
X114760000Y-79540000D03*
%TO.P,J2,19,Pin_19_19*%
%TO.N,/ads1299_AFE_/AVDD*%
X117300000Y-77000000D03*
%TO.P,J2,20,Pin_20_20*%
X114760000Y-77000000D03*
%TD*%
D10*
%TO.P,CN4,8,8_8*%
%TO.N,/ads1299_AFE_/8N*%
X135940000Y-78192000D03*
%TO.P,CN4,7,7_7*%
%TO.N,/ads1299_AFE_/8P*%
X135940000Y-78692000D03*
%TO.P,CN4,6,6_6*%
%TO.N,/ads1299_AFE_/7N*%
X135940000Y-79192000D03*
%TO.P,CN4,5,5_5*%
%TO.N,/ads1299_AFE_/7P*%
X135940000Y-79692000D03*
%TO.P,CN4,4,4_4*%
%TO.N,GND*%
X137260000Y-79692000D03*
%TO.P,CN4,3,3_3*%
X137260000Y-79192000D03*
%TO.P,CN4,2,2_2*%
X137260000Y-78692000D03*
%TO.P,CN4,1,1_1*%
X137260000Y-78192000D03*
%TD*%
%TO.P,CN3,8,8_8*%
%TO.N,/ads1299_AFE_/6N*%
X135940000Y-80478000D03*
%TO.P,CN3,7,7_7*%
%TO.N,/ads1299_AFE_/6P*%
X135940000Y-80978000D03*
%TO.P,CN3,6,6_6*%
%TO.N,/ads1299_AFE_/5N*%
X135940000Y-81478000D03*
%TO.P,CN3,5,5_5*%
%TO.N,/ads1299_AFE_/5P*%
X135940000Y-81978000D03*
%TO.P,CN3,4,4_4*%
%TO.N,GND*%
X137260000Y-81978000D03*
%TO.P,CN3,3,3_3*%
X137260000Y-81478000D03*
%TO.P,CN3,2,2_2*%
X137260000Y-80978000D03*
%TO.P,CN3,1,1_1*%
X137260000Y-80478000D03*
%TD*%
D14*
%TO.P,SW1,1,B_1*%
%TO.N,/USB/Vbus*%
X158115000Y-108712000D03*
D15*
%TO.P,SW1,2,C_2*%
%TO.N,Net-(SW1-C)*%
X158115000Y-106172000D03*
%TO.P,SW1,3,A_3*%
%TO.N,unconnected-(SW1-A-Pad3)*%
X158115000Y-111252000D03*
%TD*%
D16*
%TO.P,J1,1,Pin_1_1*%
%TO.N,GND*%
X169100000Y-82731920D03*
D17*
%TO.P,J1,2,Pin_2_2*%
%TO.N,Net-(J1-Pin_2)*%
X169100000Y-85231920D03*
%TD*%
D18*
%TO.P,P1,SH,SHIELD_SH*%
%TO.N,GND*%
X165215000Y-127287000D03*
D19*
X169415000Y-127287000D03*
D18*
X165215000Y-118647000D03*
D19*
X169415000Y-118647000D03*
%TD*%
D10*
%TO.P,CN2,1,1_1*%
%TO.N,GND*%
X137260000Y-82764000D03*
%TO.P,CN2,2,2_2*%
X137260000Y-83264000D03*
%TO.P,CN2,3,3_3*%
X137260000Y-83764000D03*
%TO.P,CN2,4,4_4*%
X137260000Y-84264000D03*
%TO.P,CN2,5,5_5*%
%TO.N,/ads1299_AFE_/3P*%
X135940000Y-84264000D03*
%TO.P,CN2,6,6_6*%
%TO.N,/ads1299_AFE_/3N*%
X135940000Y-83764000D03*
%TO.P,CN2,7,7_7*%
%TO.N,/ads1299_AFE_/4P*%
X135940000Y-83264000D03*
%TO.P,CN2,8,8_8*%
%TO.N,/ads1299_AFE_/4N*%
X135940000Y-82764000D03*
%TD*%
D20*
%TO.N,GND*%
X125100000Y-97000000D03*
X134900000Y-91800000D03*
%TO.N,/ads1299_AFE_/7P*%
X133980795Y-78722828D03*
%TO.N,/ads1299_AFE_/7N*%
X134100000Y-78000000D03*
%TO.N,/ads1299_AFE_/8P*%
X134100000Y-77200000D03*
%TO.N,/ads1299_AFE_/3P*%
X134000000Y-85200000D03*
%TO.N,/ads1299_AFE_/1N*%
X134100000Y-87500000D03*
%TO.N,/ads1299_AFE_/3N*%
X134100000Y-84400000D03*
%TO.N,/ads1299_AFE_/2N*%
X134100000Y-85900000D03*
%TO.N,/ads1299_AFE_/2P*%
X134100000Y-86700000D03*
%TO.N,/ads1299_AFE_/1P*%
X134164081Y-88521360D03*
%TO.N,/ads1299_AFE_/4P*%
X134200000Y-83500000D03*
%TO.N,/ads1299_AFE_/4N*%
X134200000Y-82700000D03*
%TO.N,/ads1299_AFE_/5P*%
X134200000Y-81900000D03*
%TO.N,/ads1299_AFE_/5N*%
X134300000Y-81100000D03*
%TO.N,/ads1299_AFE_/6N*%
X134300000Y-79500000D03*
%TO.N,/ads1299_AFE_/8N*%
X134200000Y-76200000D03*
%TO.N,GND*%
X135200000Y-117731920D03*
X160100000Y-99031920D03*
X164973000Y-82760000D03*
X131600000Y-117731920D03*
X128905000Y-117729000D03*
X164973000Y-88160000D03*
X164300000Y-80931920D03*
X137922000Y-117729000D03*
X154000000Y-80331920D03*
X141300000Y-92831920D03*
X165873000Y-84560000D03*
X142200000Y-93731920D03*
X163600000Y-77131920D03*
X165873000Y-87260000D03*
X161800000Y-80831920D03*
X129800000Y-117731920D03*
X140589000Y-117729000D03*
X143500000Y-86331920D03*
X165200000Y-80931920D03*
X165873000Y-82760000D03*
X162600000Y-77131920D03*
X165873000Y-85460000D03*
X137000000Y-117731920D03*
X141200000Y-89231920D03*
X153500000Y-74831920D03*
X143100000Y-93731920D03*
X164973000Y-85460000D03*
X162600000Y-80831920D03*
X146600000Y-92831920D03*
X165873000Y-83660000D03*
X160200000Y-105731920D03*
X157300000Y-94331920D03*
X165200000Y-81731920D03*
X149400000Y-112800000D03*
X142200000Y-94531920D03*
X164300000Y-81731920D03*
X132500000Y-117731920D03*
X144300000Y-86331920D03*
X146600000Y-94531920D03*
X163400000Y-80831920D03*
X163873000Y-89460000D03*
X145900000Y-74631920D03*
X164973000Y-83660000D03*
X160100000Y-98231920D03*
X141300000Y-94531920D03*
X143100000Y-94531920D03*
X159200000Y-99031920D03*
X142200000Y-92831920D03*
X139700000Y-117731920D03*
X138800000Y-117731920D03*
X160600000Y-100131920D03*
X134300000Y-117731920D03*
X161400000Y-100131920D03*
X143100000Y-92831920D03*
X142700000Y-86331920D03*
X162814000Y-122174000D03*
X141300000Y-93731920D03*
X164600000Y-77131920D03*
X165873000Y-86360000D03*
X136100000Y-117731920D03*
X146600000Y-93731920D03*
X154200000Y-74831920D03*
X130700000Y-117731920D03*
X164973000Y-86360000D03*
X154000000Y-78931920D03*
X162500000Y-95131920D03*
X141478000Y-117729000D03*
X154000000Y-81731920D03*
X142800000Y-74331920D03*
X146700000Y-86331920D03*
X164973000Y-84560000D03*
X142800000Y-75131920D03*
X147050000Y-75081920D03*
X150100000Y-86731920D03*
X128016000Y-117731920D03*
X154000000Y-81031920D03*
X133400000Y-117731920D03*
X151400000Y-82831920D03*
X154000000Y-79631920D03*
X159200000Y-98231920D03*
X144600000Y-74831920D03*
X164973000Y-87260000D03*
%TO.N,/ESP32_S3_WROOM/Start*%
X145290000Y-111341920D03*
X147800000Y-111231920D03*
%TO.N,/ESP32_S3_WROOM/CS*%
X147900000Y-95231920D03*
X146442000Y-96910320D03*
%TO.N,/ESP32_S3_WROOM/DOUT*%
X142650000Y-85081920D03*
X140000000Y-91731920D03*
%TO.N,/ESP32_S3_WROOM/DRDY*%
X150700000Y-78331920D03*
X155300000Y-77631920D03*
%TO.N,/ads1299_AFE_/DVDD*%
X146500000Y-77700000D03*
X129900000Y-102831920D03*
X146900000Y-79500000D03*
X122300000Y-102831920D03*
%TO.N,/ESP32_S3_WROOM/USB_D+*%
X147166031Y-104293969D03*
X154400000Y-114431920D03*
%TO.N,/ESP32_S3_WROOM/USB_D-*%
X155303554Y-114328366D03*
X146630585Y-103051415D03*
%TO.N,/ads1299_AFE_/6P*%
X133300000Y-80400000D03*
%TD*%
%TO.N,/ads1299_AFE_/6P*%
D21*
X135031554Y-80978000D02*
X134453554Y-80400000D01*
X135940000Y-80978000D02*
X135031554Y-80978000D01*
X134453554Y-80400000D02*
X133300000Y-80400000D01*
%TO.N,/ads1299_AFE_/7P*%
X135292000Y-79692000D02*
X134300000Y-78700000D01*
X134300000Y-78700000D02*
X134000000Y-78700000D01*
X135940000Y-79692000D02*
X135292000Y-79692000D01*
%TO.N,/ads1299_AFE_/7N*%
X134300000Y-78000000D02*
X134100000Y-78000000D01*
X135492000Y-79192000D02*
X134300000Y-78000000D01*
X135940000Y-79192000D02*
X135492000Y-79192000D01*
%TO.N,/ads1299_AFE_/8N*%
X135892000Y-78192000D02*
X135940000Y-78192000D01*
X134200000Y-76500000D02*
X135892000Y-78192000D01*
X134200000Y-76200000D02*
X134200000Y-76500000D01*
%TO.N,/ads1299_AFE_/8P*%
X135592000Y-78692000D02*
X134100000Y-77200000D01*
X135940000Y-78692000D02*
X135592000Y-78692000D01*
%TO.N,/ads1299_AFE_/3P*%
X135036000Y-84264000D02*
X134100000Y-85200000D01*
X134100000Y-85200000D02*
X134000000Y-85200000D01*
X135940000Y-84264000D02*
X135036000Y-84264000D01*
%TO.N,/ads1299_AFE_/1P*%
X135750000Y-86550000D02*
X135940000Y-86550000D01*
X134600000Y-87700000D02*
X135750000Y-86550000D01*
X134307107Y-88000000D02*
X134600000Y-87707107D01*
X134300000Y-88000000D02*
X134307107Y-88000000D01*
X134600000Y-87707107D02*
X134600000Y-87700000D01*
X134164081Y-88521360D02*
X134164081Y-88135919D01*
X134164081Y-88135919D02*
X134300000Y-88000000D01*
%TO.N,/ads1299_AFE_/3N*%
X134936000Y-83764000D02*
X135940000Y-83764000D01*
X134400000Y-84300000D02*
X134936000Y-83764000D01*
X134200000Y-84300000D02*
X134400000Y-84300000D01*
X134100000Y-84400000D02*
X134200000Y-84300000D01*
%TO.N,/ads1299_AFE_/6N*%
X135278000Y-80478000D02*
X134300000Y-79500000D01*
X135940000Y-80478000D02*
X135278000Y-80478000D01*
%TO.N,/ads1299_AFE_/5N*%
X134678000Y-81478000D02*
X134300000Y-81100000D01*
X135940000Y-81478000D02*
X134678000Y-81478000D01*
%TO.N,/ads1299_AFE_/5P*%
X134278000Y-81978000D02*
X134200000Y-81900000D01*
X135940000Y-81978000D02*
X134278000Y-81978000D01*
%TO.N,/ads1299_AFE_/4N*%
X134264000Y-82764000D02*
X134200000Y-82700000D01*
X135940000Y-82764000D02*
X134264000Y-82764000D01*
%TO.N,/ads1299_AFE_/4P*%
X134436000Y-83264000D02*
X134200000Y-83500000D01*
X135940000Y-83264000D02*
X134436000Y-83264000D01*
%TO.N,/ads1299_AFE_/2N*%
X134950000Y-85050000D02*
X134100000Y-85900000D01*
X135940000Y-85050000D02*
X134950000Y-85050000D01*
%TO.N,/ads1299_AFE_/2P*%
X135250000Y-85550000D02*
X134100000Y-86700000D01*
X135940000Y-85550000D02*
X135250000Y-85550000D01*
%TO.N,/ads1299_AFE_/1N*%
X135550000Y-86050000D02*
X134100000Y-87500000D01*
X135940000Y-86050000D02*
X135550000Y-86050000D01*
%TO.N,/ESP32_S3_WROOM/Start*%
X145400000Y-111231920D02*
X145290000Y-111341920D01*
X147800000Y-111231920D02*
X145400000Y-111231920D01*
%TO.N,/ESP32_S3_WROOM/CS*%
X147900000Y-95452320D02*
X147900000Y-95231920D01*
X146442000Y-96910320D02*
X147900000Y-95452320D01*
%TO.N,/ESP32_S3_WROOM/DOUT*%
X142650000Y-85081920D02*
X140000000Y-87731920D01*
X140000000Y-87731920D02*
X140000000Y-91731920D01*
%TO.N,/ESP32_S3_WROOM/DRDY*%
X151400000Y-77631920D02*
X150700000Y-78331920D01*
X155300000Y-77631920D02*
X151400000Y-77631920D01*
%TO.N,/ads1299_AFE_/DVDD*%
D22*
X146500000Y-78100000D02*
X146900000Y-78500000D01*
X146900000Y-78500000D02*
X146900000Y-79500000D01*
X146500000Y-77700000D02*
X146500000Y-78100000D01*
X129900000Y-102831920D02*
X122300000Y-102831920D01*
%TO.N,/ESP32_S3_WROOM/USB_D+*%
D21*
X154400000Y-111531920D02*
X154400000Y-114431920D01*
X148055031Y-105186951D02*
X154400000Y-111531920D01*
X147166031Y-104293969D02*
X148055031Y-105182969D01*
X148055031Y-105182969D02*
X148055031Y-105186951D01*
%TO.N,/ESP32_S3_WROOM/USB_D-*%
X155303554Y-111724384D02*
X155303554Y-114328366D01*
X146630585Y-103051415D02*
X155303554Y-111724384D01*
%TO.N,/ads1299_AFE_/6P*%
X133300000Y-80400000D02*
X133400000Y-80300000D01*
%TD*%
%TA.AperFunction,Conductor*%
%TO.N,GND*%
G36*
X155247273Y-78032420D02*
G01*
X155352727Y-78032420D01*
X155354593Y-78031920D01*
X155400000Y-78031920D01*
X155400000Y-80131920D01*
X156500000Y-80131920D01*
X156500000Y-81907920D01*
X156480315Y-81974959D01*
X156427511Y-82020714D01*
X156376000Y-82031920D01*
X152824000Y-82031920D01*
X152756961Y-82012235D01*
X152711206Y-81959431D01*
X152700000Y-81907920D01*
X152700000Y-78155920D01*
X152719685Y-78088881D01*
X152772489Y-78043126D01*
X152824000Y-78031920D01*
X155245407Y-78031920D01*
X155247273Y-78032420D01*
G37*
%TD.AperFunction*%
%TD*%
%TA.AperFunction,Conductor*%
%TO.N,GND*%
G36*
X147680315Y-94882098D02*
G01*
X147659197Y-94905056D01*
X147659834Y-94905693D01*
X147579521Y-94986005D01*
X147526794Y-95077330D01*
X147526793Y-95077333D01*
X147499500Y-95179193D01*
X147499500Y-95284646D01*
X147526793Y-95386506D01*
X147526794Y-95386509D01*
X147536124Y-95402669D01*
X147552597Y-95470570D01*
X147529744Y-95536596D01*
X147516418Y-95552350D01*
X146594717Y-96474051D01*
X146533394Y-96507536D01*
X146502854Y-96508810D01*
X146502854Y-96509820D01*
X146389273Y-96509820D01*
X146287413Y-96537113D01*
X146287410Y-96537114D01*
X146196085Y-96589841D01*
X146121521Y-96664405D01*
X146068794Y-96755730D01*
X146068793Y-96755733D01*
X146041500Y-96857593D01*
X146041500Y-96963047D01*
X146068793Y-97064907D01*
X146121520Y-97156233D01*
X146196087Y-97230800D01*
X146249523Y-97261651D01*
X146266773Y-97279742D01*
X146286787Y-97294724D01*
X146290467Y-97304592D01*
X146297736Y-97312215D01*
X146302467Y-97336763D01*
X146311205Y-97360188D01*
X146308966Y-97370479D01*
X146310960Y-97380822D01*
X146301667Y-97404033D01*
X146296354Y-97428461D01*
X146286754Y-97441284D01*
X146284992Y-97445687D01*
X146275203Y-97456716D01*
X146236320Y-97495600D01*
X146174998Y-97529086D01*
X146148638Y-97531920D01*
X142800000Y-97531920D01*
X142800000Y-94831920D01*
X147695049Y-94831920D01*
X147680315Y-94882098D01*
G37*
%TD.AperFunction*%
%TD*%
%TA.AperFunction,Conductor*%
%TO.N,GND*%
G36*
X165543039Y-80419685D02*
G01*
X165588794Y-80472489D01*
X165600000Y-80524000D01*
X165600000Y-81876000D01*
X165580315Y-81943039D01*
X165527511Y-81988794D01*
X165476000Y-82000000D01*
X162099999Y-82000000D01*
X161100000Y-82899999D01*
X161100000Y-87750527D01*
X161080315Y-87817566D01*
X161065944Y-87835885D01*
X155766685Y-93419841D01*
X155766673Y-93419854D01*
X153992980Y-95288297D01*
X154019356Y-109857051D01*
X153999793Y-109924125D01*
X153947072Y-109969976D01*
X153877931Y-109980045D01*
X153814323Y-109951135D01*
X153807675Y-109944956D01*
X150935219Y-107072500D01*
X147066853Y-103204133D01*
X147033368Y-103142810D01*
X147032096Y-103112269D01*
X147031085Y-103112269D01*
X147031085Y-102998690D01*
X147031085Y-102998688D01*
X147003792Y-102896828D01*
X146951065Y-102805502D01*
X146876498Y-102730935D01*
X146785172Y-102678208D01*
X146683312Y-102650915D01*
X146577858Y-102650915D01*
X146475998Y-102678208D01*
X146475995Y-102678209D01*
X146384670Y-102730936D01*
X146310106Y-102805500D01*
X146257379Y-102896825D01*
X146257378Y-102896828D01*
X146230085Y-102998688D01*
X146230085Y-103104142D01*
X146257378Y-103206002D01*
X146310105Y-103297328D01*
X146384672Y-103371895D01*
X146475998Y-103424622D01*
X146577858Y-103451915D01*
X146577860Y-103451915D01*
X146691439Y-103451915D01*
X146691439Y-103454298D01*
X146748464Y-103463187D01*
X146783303Y-103487683D01*
X147027101Y-103731481D01*
X147060586Y-103792804D01*
X147055602Y-103862496D01*
X147013730Y-103918429D01*
X147001421Y-103926549D01*
X146920115Y-103973491D01*
X146845552Y-104048054D01*
X146792825Y-104139379D01*
X146792824Y-104139382D01*
X146765531Y-104241242D01*
X146765531Y-104346696D01*
X146792824Y-104448556D01*
X146845551Y-104539882D01*
X146920118Y-104614449D01*
X147011444Y-104667176D01*
X147113304Y-104694469D01*
X147113306Y-104694469D01*
X147226885Y-104694469D01*
X147226885Y-104696852D01*
X147283910Y-104705741D01*
X147318749Y-104730237D01*
X147868399Y-105279887D01*
X147883821Y-105298678D01*
X147885057Y-105300528D01*
X153985992Y-111401462D01*
X154019477Y-111462785D01*
X154022311Y-111488918D01*
X154027326Y-114258794D01*
X154023101Y-114291112D01*
X153999500Y-114379193D01*
X153999500Y-114484648D01*
X154023731Y-114575082D01*
X154027956Y-114606949D01*
X154034315Y-118118748D01*
X154014752Y-118185823D01*
X153962031Y-118231674D01*
X153910550Y-118242973D01*
X125054042Y-118297698D01*
X124986965Y-118278140D01*
X124941111Y-118225423D01*
X124929820Y-118171912D01*
X125029088Y-111289193D01*
X144889500Y-111289193D01*
X144889500Y-111394647D01*
X144916793Y-111496507D01*
X144969520Y-111587833D01*
X145044087Y-111662400D01*
X145135413Y-111715127D01*
X145237273Y-111742420D01*
X145237275Y-111742420D01*
X145342725Y-111742420D01*
X145342727Y-111742420D01*
X145444587Y-111715127D01*
X145535913Y-111662400D01*
X145610480Y-111587833D01*
X145663207Y-111496507D01*
X145663206Y-111496507D01*
X145664412Y-111494420D01*
X145714979Y-111446204D01*
X145771799Y-111432420D01*
X147383524Y-111432420D01*
X147450563Y-111452105D01*
X147473058Y-111472800D01*
X147473773Y-111472086D01*
X147479520Y-111477833D01*
X147554087Y-111552400D01*
X147645413Y-111605127D01*
X147747273Y-111632420D01*
X147747275Y-111632420D01*
X147852725Y-111632420D01*
X147852727Y-111632420D01*
X147954587Y-111605127D01*
X148045913Y-111552400D01*
X148120480Y-111477833D01*
X148173207Y-111386507D01*
X148200500Y-111284647D01*
X148200500Y-111179193D01*
X148173207Y-111077333D01*
X148120480Y-110986007D01*
X148045913Y-110911440D01*
X147954587Y-110858713D01*
X147852727Y-110831420D01*
X147747273Y-110831420D01*
X147645413Y-110858713D01*
X147645410Y-110858714D01*
X147554085Y-110911441D01*
X147473773Y-110991754D01*
X147472088Y-110990069D01*
X147425477Y-111024107D01*
X147383524Y-111031420D01*
X145586423Y-111031420D01*
X145524426Y-111014808D01*
X145444587Y-110968713D01*
X145342727Y-110941420D01*
X145237273Y-110941420D01*
X145135413Y-110968713D01*
X145135410Y-110968714D01*
X145044085Y-111021441D01*
X144969521Y-111096005D01*
X144916794Y-111187330D01*
X144916793Y-111187333D01*
X144889500Y-111289193D01*
X125029088Y-111289193D01*
X125140338Y-103575645D01*
X125160987Y-103508897D01*
X125214446Y-103463909D01*
X125266008Y-103453445D01*
X130623442Y-103526344D01*
X130698336Y-98022313D01*
X130718931Y-97955547D01*
X130772353Y-97910515D01*
X130822325Y-97900000D01*
X146200000Y-97900000D01*
X148200000Y-95900000D01*
X148200000Y-95546529D01*
X148216613Y-95484528D01*
X148220476Y-95477836D01*
X148220480Y-95477833D01*
X148273207Y-95386507D01*
X148300500Y-95284647D01*
X148300500Y-95179193D01*
X148273207Y-95077333D01*
X148220480Y-94986007D01*
X148220478Y-94986005D01*
X148216613Y-94979310D01*
X148200000Y-94917310D01*
X148200000Y-84331920D01*
X151600000Y-84331920D01*
X151600000Y-82500000D01*
X156900000Y-82500000D01*
X156900000Y-80524000D01*
X156919685Y-80456961D01*
X156972489Y-80411206D01*
X157024000Y-80400000D01*
X165476000Y-80400000D01*
X165543039Y-80419685D01*
G37*
%TD.AperFunction*%
%TD*%
%TA.AperFunction,Conductor*%
%TO.N,GND*%
G36*
X154843039Y-74051605D02*
G01*
X154888794Y-74104409D01*
X154900000Y-74155920D01*
X154900000Y-77107920D01*
X154880315Y-77174959D01*
X154827511Y-77220714D01*
X154776000Y-77231920D01*
X150000000Y-77231920D01*
X150000000Y-74031920D01*
X154776000Y-74031920D01*
X154843039Y-74051605D01*
G37*
%TD.AperFunction*%
%TD*%
%TA.AperFunction,Conductor*%
%TO.N,GND*%
G36*
X150000000Y-77231920D02*
G01*
X150000000Y-79031920D01*
X151476000Y-79031920D01*
X151543039Y-79051605D01*
X151588794Y-79104409D01*
X151600000Y-79155920D01*
X151600000Y-84331920D01*
X148200000Y-84331920D01*
X148200000Y-81831920D01*
X145724000Y-81831920D01*
X145656961Y-81812235D01*
X145611206Y-81759431D01*
X145600000Y-81707920D01*
X145600000Y-77647273D01*
X146099500Y-77647273D01*
X146099500Y-77752727D01*
X146126793Y-77854587D01*
X146171152Y-77931420D01*
X146179521Y-77945914D01*
X146213181Y-77979574D01*
X146246666Y-78040897D01*
X146249500Y-78067255D01*
X146249500Y-78149829D01*
X146287636Y-78241897D01*
X146613181Y-78567442D01*
X146646666Y-78628765D01*
X146649500Y-78655123D01*
X146649500Y-79132745D01*
X146629815Y-79199784D01*
X146613181Y-79220426D01*
X146579521Y-79254085D01*
X146526794Y-79345410D01*
X146526793Y-79345413D01*
X146499500Y-79447273D01*
X146499500Y-79552727D01*
X146526793Y-79654587D01*
X146579520Y-79745913D01*
X146654087Y-79820480D01*
X146745413Y-79873207D01*
X146847273Y-79900500D01*
X146847275Y-79900500D01*
X146952725Y-79900500D01*
X146952727Y-79900500D01*
X147054587Y-79873207D01*
X147145913Y-79820480D01*
X147220480Y-79745913D01*
X147273207Y-79654587D01*
X147300500Y-79552727D01*
X147300500Y-79447273D01*
X147273207Y-79345413D01*
X147220480Y-79254087D01*
X147186819Y-79220426D01*
X147153334Y-79159103D01*
X147150500Y-79132745D01*
X147150500Y-78450173D01*
X147150499Y-78450170D01*
X147112364Y-78358103D01*
X147041897Y-78287636D01*
X146843724Y-78089463D01*
X146810239Y-78028140D01*
X146815223Y-77958448D01*
X146824013Y-77939793D01*
X146873207Y-77854587D01*
X146900500Y-77752727D01*
X146900500Y-77647273D01*
X146873207Y-77545413D01*
X146820480Y-77454087D01*
X146745913Y-77379520D01*
X146654587Y-77326793D01*
X146552727Y-77299500D01*
X146447273Y-77299500D01*
X146345413Y-77326793D01*
X146345410Y-77326794D01*
X146254085Y-77379521D01*
X146179521Y-77454085D01*
X146126794Y-77545410D01*
X146126793Y-77545413D01*
X146099500Y-77647273D01*
X145600000Y-77647273D01*
X145600000Y-74155920D01*
X145619685Y-74088881D01*
X145672489Y-74043126D01*
X145724000Y-74031920D01*
X150000000Y-74031920D01*
X150000000Y-77231920D01*
G37*
%TD.AperFunction*%
%TD*%
%TA.AperFunction,Conductor*%
%TO.N,GND*%
G36*
X165900000Y-82176064D02*
G01*
X165900000Y-83700000D01*
X173235500Y-83700000D01*
X173235500Y-116176765D01*
X173235493Y-116178109D01*
X173108917Y-127852148D01*
X173088506Y-127918970D01*
X173035210Y-127964150D01*
X172985654Y-127974802D01*
X166062335Y-128015568D01*
X164715625Y-128023498D01*
X164714897Y-128023500D01*
X159841654Y-128023500D01*
X159774615Y-128003815D01*
X159728860Y-127951011D01*
X159717656Y-127900230D01*
X159713698Y-127228099D01*
X159705179Y-125781234D01*
X165159500Y-125781234D01*
X165159500Y-125932765D01*
X165198719Y-126079136D01*
X165236602Y-126144750D01*
X165274485Y-126210365D01*
X165381635Y-126317515D01*
X165512865Y-126393281D01*
X165659234Y-126432500D01*
X165659236Y-126432500D01*
X165810764Y-126432500D01*
X165810766Y-126432500D01*
X165957135Y-126393281D01*
X166088365Y-126317515D01*
X166195515Y-126210365D01*
X166271281Y-126079135D01*
X166310500Y-125932766D01*
X166310500Y-125781234D01*
X166271281Y-125634865D01*
X166195515Y-125503635D01*
X166088365Y-125396485D01*
X166022750Y-125358602D01*
X165957136Y-125320719D01*
X165883950Y-125301109D01*
X165810766Y-125281500D01*
X165659234Y-125281500D01*
X165512863Y-125320719D01*
X165381635Y-125396485D01*
X165381632Y-125396487D01*
X165274487Y-125503632D01*
X165274485Y-125503635D01*
X165198719Y-125634863D01*
X165159500Y-125781234D01*
X159705179Y-125781234D01*
X159671145Y-120001234D01*
X165159500Y-120001234D01*
X165159500Y-120152765D01*
X165198719Y-120299136D01*
X165236602Y-120364750D01*
X165274485Y-120430365D01*
X165381635Y-120537515D01*
X165512865Y-120613281D01*
X165659234Y-120652500D01*
X165659236Y-120652500D01*
X165810764Y-120652500D01*
X165810766Y-120652500D01*
X165957135Y-120613281D01*
X166088365Y-120537515D01*
X166195515Y-120430365D01*
X166271281Y-120299135D01*
X166310500Y-120152766D01*
X166310500Y-120001234D01*
X166271281Y-119854865D01*
X166195515Y-119723635D01*
X166088365Y-119616485D01*
X166022750Y-119578602D01*
X165957136Y-119540719D01*
X165883950Y-119521109D01*
X165810766Y-119501500D01*
X165659234Y-119501500D01*
X165512863Y-119540719D01*
X165381635Y-119616485D01*
X165381632Y-119616487D01*
X165274487Y-119723632D01*
X165274485Y-119723635D01*
X165198719Y-119854863D01*
X165159500Y-120001234D01*
X159671145Y-120001234D01*
X159659548Y-118031769D01*
X159659547Y-118031769D01*
X159659547Y-118031768D01*
X154318450Y-118065967D01*
X154251286Y-118046713D01*
X154205194Y-117994203D01*
X154193656Y-117941902D01*
X154195347Y-114953234D01*
X154215068Y-114886213D01*
X154267898Y-114840488D01*
X154337062Y-114830583D01*
X154343741Y-114831954D01*
X154347271Y-114832419D01*
X154347273Y-114832420D01*
X154347275Y-114832420D01*
X154452725Y-114832420D01*
X154452727Y-114832420D01*
X154554587Y-114805127D01*
X154645913Y-114752400D01*
X154720480Y-114677833D01*
X154773207Y-114586507D01*
X154773207Y-114586503D01*
X154774554Y-114584172D01*
X154825120Y-114535957D01*
X154893727Y-114522733D01*
X154958592Y-114548701D01*
X154980316Y-114570684D01*
X154983072Y-114574276D01*
X154983074Y-114574279D01*
X155057641Y-114648846D01*
X155148967Y-114701573D01*
X155250827Y-114728866D01*
X155250829Y-114728866D01*
X155356279Y-114728866D01*
X155356281Y-114728866D01*
X155458141Y-114701573D01*
X155549467Y-114648846D01*
X155624034Y-114574279D01*
X155676761Y-114482953D01*
X155704054Y-114381093D01*
X155704054Y-114275639D01*
X155676761Y-114173779D01*
X155624034Y-114082453D01*
X155549467Y-114007886D01*
X155549466Y-114007885D01*
X155543720Y-114002139D01*
X155545401Y-114000457D01*
X155511357Y-113953814D01*
X155504054Y-113911888D01*
X155504054Y-111684501D01*
X155501587Y-111678546D01*
X155501586Y-111678542D01*
X155487897Y-111645495D01*
X155487895Y-111645492D01*
X155473530Y-111610810D01*
X155417128Y-111554408D01*
X155410063Y-111547343D01*
X155410056Y-111547337D01*
X155107617Y-111244898D01*
X155026023Y-111163304D01*
X157214500Y-111163304D01*
X157214500Y-111340695D01*
X157249103Y-111514658D01*
X157249106Y-111514667D01*
X157316983Y-111678540D01*
X157316990Y-111678553D01*
X157415535Y-111826034D01*
X157415538Y-111826038D01*
X157540961Y-111951461D01*
X157540965Y-111951464D01*
X157688446Y-112050009D01*
X157688459Y-112050016D01*
X157811363Y-112100923D01*
X157852334Y-112117894D01*
X157852336Y-112117894D01*
X157852341Y-112117896D01*
X158026304Y-112152499D01*
X158026307Y-112152500D01*
X158026309Y-112152500D01*
X158203693Y-112152500D01*
X158203694Y-112152499D01*
X158261682Y-112140964D01*
X158377658Y-112117896D01*
X158377661Y-112117894D01*
X158377666Y-112117894D01*
X158541547Y-112050013D01*
X158689035Y-111951464D01*
X158814464Y-111826035D01*
X158913013Y-111678547D01*
X158980894Y-111514666D01*
X159015500Y-111340691D01*
X159015500Y-111163309D01*
X159015500Y-111163306D01*
X159015499Y-111163304D01*
X158980896Y-110989341D01*
X158980893Y-110989332D01*
X158913016Y-110825459D01*
X158913009Y-110825446D01*
X158814464Y-110677965D01*
X158814461Y-110677961D01*
X158689038Y-110552538D01*
X158689034Y-110552535D01*
X158541553Y-110453990D01*
X158541540Y-110453983D01*
X158377667Y-110386106D01*
X158377658Y-110386103D01*
X158203694Y-110351500D01*
X158203691Y-110351500D01*
X158026309Y-110351500D01*
X158026306Y-110351500D01*
X157852341Y-110386103D01*
X157852332Y-110386106D01*
X157688459Y-110453983D01*
X157688446Y-110453990D01*
X157540965Y-110552535D01*
X157540961Y-110552538D01*
X157415538Y-110677961D01*
X157415535Y-110677965D01*
X157316990Y-110825446D01*
X157316983Y-110825459D01*
X157249106Y-110989332D01*
X157249103Y-110989341D01*
X157214500Y-111163304D01*
X155026023Y-111163304D01*
X154234309Y-110371589D01*
X154200824Y-110310266D01*
X154197990Y-110283838D01*
X154198402Y-109556670D01*
X154199310Y-107952098D01*
X157264500Y-107952098D01*
X157264500Y-109471894D01*
X157264501Y-109471902D01*
X157270330Y-109501212D01*
X157292542Y-109534457D01*
X157309219Y-109545599D01*
X157325787Y-109556669D01*
X157325790Y-109556669D01*
X157325791Y-109556670D01*
X157335647Y-109558630D01*
X157355101Y-109562500D01*
X158874898Y-109562499D01*
X158904213Y-109556669D01*
X158937457Y-109534457D01*
X158959669Y-109501213D01*
X158965500Y-109471899D01*
X158965499Y-107952102D01*
X158959669Y-107922787D01*
X158959668Y-107922785D01*
X158937457Y-107889542D01*
X158904214Y-107867332D01*
X158904215Y-107867332D01*
X158904213Y-107867331D01*
X158904211Y-107867330D01*
X158904208Y-107867329D01*
X158874901Y-107861500D01*
X157355105Y-107861500D01*
X157355097Y-107861501D01*
X157325787Y-107867330D01*
X157292542Y-107889542D01*
X157270332Y-107922785D01*
X157270329Y-107922791D01*
X157264500Y-107952098D01*
X154199310Y-107952098D01*
X154200367Y-106083304D01*
X157214500Y-106083304D01*
X157214500Y-106260695D01*
X157249103Y-106434658D01*
X157249106Y-106434667D01*
X157316983Y-106598540D01*
X157316990Y-106598553D01*
X157415535Y-106746034D01*
X157415538Y-106746038D01*
X157540961Y-106871461D01*
X157540965Y-106871464D01*
X157688446Y-106970009D01*
X157688459Y-106970016D01*
X157811363Y-107020923D01*
X157852334Y-107037894D01*
X157852336Y-107037894D01*
X157852341Y-107037896D01*
X158026304Y-107072499D01*
X158026307Y-107072500D01*
X158026309Y-107072500D01*
X158203693Y-107072500D01*
X158203694Y-107072499D01*
X158261682Y-107060964D01*
X158377658Y-107037896D01*
X158377661Y-107037894D01*
X158377666Y-107037894D01*
X158541547Y-106970013D01*
X158689035Y-106871464D01*
X158814464Y-106746035D01*
X158913013Y-106598547D01*
X158980894Y-106434666D01*
X159015500Y-106260691D01*
X159015500Y-106083309D01*
X159015500Y-106083306D01*
X159015499Y-106083304D01*
X158980896Y-105909341D01*
X158980893Y-105909332D01*
X158913016Y-105745459D01*
X158913009Y-105745446D01*
X158814464Y-105597965D01*
X158814461Y-105597961D01*
X158689038Y-105472538D01*
X158689034Y-105472535D01*
X158541553Y-105373990D01*
X158541540Y-105373983D01*
X158377667Y-105306106D01*
X158377658Y-105306103D01*
X158203694Y-105271500D01*
X158203691Y-105271500D01*
X158026309Y-105271500D01*
X158026306Y-105271500D01*
X157852341Y-105306103D01*
X157852332Y-105306106D01*
X157688459Y-105373983D01*
X157688446Y-105373990D01*
X157540965Y-105472535D01*
X157540961Y-105472538D01*
X157415538Y-105597961D01*
X157415535Y-105597965D01*
X157316990Y-105745446D01*
X157316983Y-105745459D01*
X157249106Y-105909332D01*
X157249103Y-105909341D01*
X157214500Y-106083304D01*
X154200367Y-106083304D01*
X154206432Y-95365504D01*
X154226155Y-95298477D01*
X154240478Y-95280227D01*
X161400000Y-87734863D01*
X161400000Y-85138299D01*
X167999500Y-85138299D01*
X167999500Y-85325540D01*
X168036025Y-85509163D01*
X168036027Y-85509171D01*
X168107676Y-85682148D01*
X168107681Y-85682157D01*
X168211697Y-85837827D01*
X168211700Y-85837831D01*
X168344088Y-85970219D01*
X168344092Y-85970222D01*
X168499762Y-86074238D01*
X168499768Y-86074241D01*
X168499769Y-86074242D01*
X168672749Y-86145893D01*
X168856379Y-86182419D01*
X168856383Y-86182420D01*
X168856384Y-86182420D01*
X169343617Y-86182420D01*
X169343618Y-86182419D01*
X169527251Y-86145893D01*
X169700231Y-86074242D01*
X169855908Y-85970222D01*
X169988302Y-85837828D01*
X170092322Y-85682151D01*
X170163973Y-85509171D01*
X170200500Y-85325536D01*
X170200500Y-85138304D01*
X170163973Y-84954669D01*
X170092322Y-84781689D01*
X170092321Y-84781688D01*
X170092318Y-84781682D01*
X169988302Y-84626012D01*
X169988299Y-84626008D01*
X169855911Y-84493620D01*
X169855907Y-84493617D01*
X169700237Y-84389601D01*
X169700228Y-84389596D01*
X169527251Y-84317947D01*
X169527243Y-84317945D01*
X169343620Y-84281420D01*
X169343616Y-84281420D01*
X168856384Y-84281420D01*
X168856379Y-84281420D01*
X168672756Y-84317945D01*
X168672748Y-84317947D01*
X168499771Y-84389596D01*
X168499762Y-84389601D01*
X168344092Y-84493617D01*
X168344088Y-84493620D01*
X168211700Y-84626008D01*
X168211697Y-84626012D01*
X168107681Y-84781682D01*
X168107676Y-84781691D01*
X168036027Y-84954668D01*
X168036025Y-84954676D01*
X167999500Y-85138299D01*
X161400000Y-85138299D01*
X161400000Y-82886225D01*
X161419685Y-82819186D01*
X161436319Y-82798544D01*
X162063124Y-82171738D01*
X162124445Y-82138255D01*
X162152143Y-82135428D01*
X165900000Y-82176064D01*
G37*
%TD.AperFunction*%
%TD*%
%TA.AperFunction,Conductor*%
%TO.N,GND*%
G36*
X173178539Y-71420185D02*
G01*
X173224294Y-71472989D01*
X173235500Y-71524500D01*
X173235500Y-83700000D01*
X165900000Y-83700000D01*
X165900000Y-80131920D01*
X156500000Y-80131920D01*
X155400000Y-80131920D01*
X155400000Y-78031920D01*
X155405032Y-78031920D01*
X155448716Y-78006700D01*
X155454587Y-78005127D01*
X155545913Y-77952400D01*
X155620480Y-77877833D01*
X155673207Y-77786507D01*
X155700500Y-77684647D01*
X155700500Y-77579193D01*
X155673207Y-77477333D01*
X155620480Y-77386007D01*
X155545913Y-77311440D01*
X155461999Y-77262991D01*
X155413784Y-77212424D01*
X155400000Y-77155605D01*
X155400000Y-73731920D01*
X145000000Y-73731920D01*
X145000000Y-82431920D01*
X147576000Y-82431920D01*
X147643039Y-82451605D01*
X147688794Y-82504409D01*
X147700000Y-82555920D01*
X147700000Y-94815059D01*
X147695049Y-94831920D01*
X142800000Y-94831920D01*
X142800000Y-97531920D01*
X141900000Y-97531920D01*
X118374500Y-97531920D01*
X118307461Y-97512235D01*
X118261706Y-97459431D01*
X118250500Y-97407920D01*
X118250500Y-97226383D01*
X118250499Y-97226379D01*
X118213974Y-97042756D01*
X118213973Y-97042749D01*
X118142322Y-96869769D01*
X118142321Y-96869768D01*
X118142318Y-96869762D01*
X118038302Y-96714092D01*
X118038299Y-96714088D01*
X117905911Y-96581700D01*
X117905907Y-96581697D01*
X117750237Y-96477681D01*
X117750228Y-96477676D01*
X117577251Y-96406027D01*
X117577243Y-96406025D01*
X117393620Y-96369500D01*
X117393616Y-96369500D01*
X117206384Y-96369500D01*
X117206379Y-96369500D01*
X117022756Y-96406025D01*
X117022748Y-96406027D01*
X116849771Y-96477676D01*
X116849762Y-96477681D01*
X116694092Y-96581697D01*
X116694088Y-96581700D01*
X116561700Y-96714088D01*
X116561697Y-96714092D01*
X116457681Y-96869762D01*
X116457676Y-96869771D01*
X116386027Y-97042748D01*
X116386025Y-97042756D01*
X116349500Y-97226379D01*
X116349500Y-97407920D01*
X116329815Y-97474959D01*
X116277011Y-97520714D01*
X116225500Y-97531920D01*
X115834500Y-97531920D01*
X115767461Y-97512235D01*
X115721706Y-97459431D01*
X115710500Y-97407920D01*
X115710500Y-97226383D01*
X115710499Y-97226379D01*
X115673974Y-97042756D01*
X115673973Y-97042749D01*
X115602322Y-96869769D01*
X115602321Y-96869768D01*
X115602318Y-96869762D01*
X115498302Y-96714092D01*
X115498299Y-96714088D01*
X115365911Y-96581700D01*
X115365907Y-96581697D01*
X115210237Y-96477681D01*
X115210228Y-96477676D01*
X115037251Y-96406027D01*
X115037243Y-96406025D01*
X114853620Y-96369500D01*
X114853616Y-96369500D01*
X114666384Y-96369500D01*
X114666379Y-96369500D01*
X114482756Y-96406025D01*
X114482748Y-96406027D01*
X114309771Y-96477676D01*
X114309762Y-96477681D01*
X114154092Y-96581697D01*
X114154088Y-96581700D01*
X114021700Y-96714088D01*
X114021697Y-96714092D01*
X113917681Y-96869762D01*
X113917676Y-96869771D01*
X113846027Y-97042748D01*
X113846025Y-97042756D01*
X113809500Y-97226379D01*
X113809500Y-97407920D01*
X113789815Y-97474959D01*
X113737011Y-97520714D01*
X113685500Y-97531920D01*
X107124943Y-97531920D01*
X107057904Y-97512235D01*
X107012149Y-97459431D01*
X107000943Y-97407929D01*
X107000740Y-94686379D01*
X113809500Y-94686379D01*
X113809500Y-94873620D01*
X113846025Y-95057243D01*
X113846027Y-95057251D01*
X113917676Y-95230228D01*
X113917681Y-95230237D01*
X114021697Y-95385907D01*
X114021700Y-95385911D01*
X114154088Y-95518299D01*
X114154092Y-95518302D01*
X114309762Y-95622318D01*
X114309768Y-95622321D01*
X114309769Y-95622322D01*
X114482749Y-95693973D01*
X114666379Y-95730499D01*
X114666383Y-95730500D01*
X114666384Y-95730500D01*
X114853617Y-95730500D01*
X114853618Y-95730499D01*
X115037251Y-95693973D01*
X115210231Y-95622322D01*
X115365908Y-95518302D01*
X115498302Y-95385908D01*
X115602322Y-95230231D01*
X115673973Y-95057251D01*
X115710500Y-94873616D01*
X115710500Y-94686384D01*
X115710499Y-94686379D01*
X116349500Y-94686379D01*
X116349500Y-94873620D01*
X116386025Y-95057243D01*
X116386027Y-95057251D01*
X116457676Y-95230228D01*
X116457681Y-95230237D01*
X116561697Y-95385907D01*
X116561700Y-95385911D01*
X116694088Y-95518299D01*
X116694092Y-95518302D01*
X116849762Y-95622318D01*
X116849768Y-95622321D01*
X116849769Y-95622322D01*
X117022749Y-95693973D01*
X117206379Y-95730499D01*
X117206383Y-95730500D01*
X117206384Y-95730500D01*
X117393617Y-95730500D01*
X117393618Y-95730499D01*
X117577251Y-95693973D01*
X117750231Y-95622322D01*
X117905908Y-95518302D01*
X118038302Y-95385908D01*
X118142322Y-95230231D01*
X118213973Y-95057251D01*
X118250500Y-94873616D01*
X118250500Y-94686384D01*
X118213973Y-94502749D01*
X118142322Y-94329769D01*
X118142321Y-94329768D01*
X118142318Y-94329762D01*
X118038302Y-94174092D01*
X118038299Y-94174088D01*
X117905911Y-94041700D01*
X117905907Y-94041697D01*
X117750237Y-93937681D01*
X117750228Y-93937676D01*
X117577251Y-93866027D01*
X117577243Y-93866025D01*
X117393620Y-93829500D01*
X117393616Y-93829500D01*
X117206384Y-93829500D01*
X117206379Y-93829500D01*
X117022756Y-93866025D01*
X117022748Y-93866027D01*
X116849771Y-93937676D01*
X116849762Y-93937681D01*
X116694092Y-94041697D01*
X116694088Y-94041700D01*
X116561700Y-94174088D01*
X116561697Y-94174092D01*
X116457681Y-94329762D01*
X116457676Y-94329771D01*
X116386027Y-94502748D01*
X116386025Y-94502756D01*
X116349500Y-94686379D01*
X115710499Y-94686379D01*
X115673973Y-94502749D01*
X115602322Y-94329769D01*
X115602321Y-94329768D01*
X115602318Y-94329762D01*
X115498302Y-94174092D01*
X115498299Y-94174088D01*
X115365911Y-94041700D01*
X115365907Y-94041697D01*
X115210237Y-93937681D01*
X115210228Y-93937676D01*
X115037251Y-93866027D01*
X115037243Y-93866025D01*
X114853620Y-93829500D01*
X114853616Y-93829500D01*
X114666384Y-93829500D01*
X114666379Y-93829500D01*
X114482756Y-93866025D01*
X114482748Y-93866027D01*
X114309771Y-93937676D01*
X114309762Y-93937681D01*
X114154092Y-94041697D01*
X114154088Y-94041700D01*
X114021700Y-94174088D01*
X114021697Y-94174092D01*
X113917681Y-94329762D01*
X113917676Y-94329771D01*
X113846027Y-94502748D01*
X113846025Y-94502756D01*
X113809500Y-94686379D01*
X107000740Y-94686379D01*
X107000740Y-94680301D01*
X107000551Y-92146379D01*
X113809500Y-92146379D01*
X113809500Y-92333620D01*
X113846025Y-92517243D01*
X113846027Y-92517251D01*
X113917676Y-92690228D01*
X113917681Y-92690237D01*
X114021697Y-92845907D01*
X114021700Y-92845911D01*
X114154088Y-92978299D01*
X114154092Y-92978302D01*
X114309762Y-93082318D01*
X114309768Y-93082321D01*
X114309769Y-93082322D01*
X114482749Y-93153973D01*
X114666379Y-93190499D01*
X114666383Y-93190500D01*
X114666384Y-93190500D01*
X114853617Y-93190500D01*
X114853618Y-93190499D01*
X115037251Y-93153973D01*
X115210231Y-93082322D01*
X115365908Y-92978302D01*
X115498302Y-92845908D01*
X115602322Y-92690231D01*
X115673973Y-92517251D01*
X115710500Y-92333616D01*
X115710500Y-92146384D01*
X115710499Y-92146379D01*
X116349500Y-92146379D01*
X116349500Y-92333620D01*
X116386025Y-92517243D01*
X116386027Y-92517251D01*
X116457676Y-92690228D01*
X116457681Y-92690237D01*
X116561697Y-92845907D01*
X116561700Y-92845911D01*
X116694088Y-92978299D01*
X116694092Y-92978302D01*
X116849762Y-93082318D01*
X116849768Y-93082321D01*
X116849769Y-93082322D01*
X117022749Y-93153973D01*
X117206379Y-93190499D01*
X117206383Y-93190500D01*
X117206384Y-93190500D01*
X117393617Y-93190500D01*
X117393618Y-93190499D01*
X117577251Y-93153973D01*
X117750231Y-93082322D01*
X117905908Y-92978302D01*
X118038302Y-92845908D01*
X118142322Y-92690231D01*
X118213973Y-92517251D01*
X118250500Y-92333616D01*
X118250500Y-92146384D01*
X118213973Y-91962749D01*
X118142322Y-91789769D01*
X118142321Y-91789768D01*
X118142318Y-91789762D01*
X118038302Y-91634092D01*
X118038299Y-91634088D01*
X117905911Y-91501700D01*
X117905907Y-91501697D01*
X117750237Y-91397681D01*
X117750228Y-91397676D01*
X117577251Y-91326027D01*
X117577243Y-91326025D01*
X117393620Y-91289500D01*
X117393616Y-91289500D01*
X117206384Y-91289500D01*
X117206379Y-91289500D01*
X117022756Y-91326025D01*
X117022748Y-91326027D01*
X116849771Y-91397676D01*
X116849762Y-91397681D01*
X116694092Y-91501697D01*
X116694088Y-91501700D01*
X116561700Y-91634088D01*
X116561697Y-91634092D01*
X116457681Y-91789762D01*
X116457676Y-91789771D01*
X116386027Y-91962748D01*
X116386025Y-91962756D01*
X116349500Y-92146379D01*
X115710499Y-92146379D01*
X115673973Y-91962749D01*
X115602322Y-91789769D01*
X115602321Y-91789768D01*
X115602318Y-91789762D01*
X115498302Y-91634092D01*
X115498299Y-91634088D01*
X115365911Y-91501700D01*
X115365907Y-91501697D01*
X115210237Y-91397681D01*
X115210228Y-91397676D01*
X115037251Y-91326027D01*
X115037243Y-91326025D01*
X114853620Y-91289500D01*
X114853616Y-91289500D01*
X114666384Y-91289500D01*
X114666379Y-91289500D01*
X114482756Y-91326025D01*
X114482748Y-91326027D01*
X114309771Y-91397676D01*
X114309762Y-91397681D01*
X114154092Y-91501697D01*
X114154088Y-91501700D01*
X114021700Y-91634088D01*
X114021697Y-91634092D01*
X113917681Y-91789762D01*
X113917676Y-91789771D01*
X113846027Y-91962748D01*
X113846025Y-91962756D01*
X113809500Y-92146379D01*
X107000551Y-92146379D01*
X107000362Y-89606379D01*
X113809500Y-89606379D01*
X113809500Y-89793620D01*
X113846025Y-89977243D01*
X113846027Y-89977251D01*
X113917676Y-90150228D01*
X113917681Y-90150237D01*
X114021697Y-90305907D01*
X114021700Y-90305911D01*
X114154088Y-90438299D01*
X114154092Y-90438302D01*
X114309762Y-90542318D01*
X114309768Y-90542321D01*
X114309769Y-90542322D01*
X114482749Y-90613973D01*
X114666379Y-90650499D01*
X114666383Y-90650500D01*
X114666384Y-90650500D01*
X114853617Y-90650500D01*
X114853618Y-90650499D01*
X115037251Y-90613973D01*
X115210231Y-90542322D01*
X115365908Y-90438302D01*
X115498302Y-90305908D01*
X115602322Y-90150231D01*
X115673973Y-89977251D01*
X115710500Y-89793616D01*
X115710500Y-89606384D01*
X115710499Y-89606379D01*
X116349500Y-89606379D01*
X116349500Y-89793620D01*
X116386025Y-89977243D01*
X116386027Y-89977251D01*
X116457676Y-90150228D01*
X116457681Y-90150237D01*
X116561697Y-90305907D01*
X116561700Y-90305911D01*
X116694088Y-90438299D01*
X116694092Y-90438302D01*
X116849762Y-90542318D01*
X116849768Y-90542321D01*
X116849769Y-90542322D01*
X117022749Y-90613973D01*
X117206379Y-90650499D01*
X117206383Y-90650500D01*
X117206384Y-90650500D01*
X117393617Y-90650500D01*
X117393618Y-90650499D01*
X117577251Y-90613973D01*
X117750231Y-90542322D01*
X117905908Y-90438302D01*
X118038302Y-90305908D01*
X118142322Y-90150231D01*
X118213973Y-89977251D01*
X118250500Y-89793616D01*
X118250500Y-89606384D01*
X118213973Y-89422749D01*
X118142322Y-89249769D01*
X118142321Y-89249768D01*
X118142318Y-89249762D01*
X118038302Y-89094092D01*
X118038299Y-89094088D01*
X117905911Y-88961700D01*
X117905907Y-88961697D01*
X117750237Y-88857681D01*
X117750228Y-88857676D01*
X117577251Y-88786027D01*
X117577243Y-88786025D01*
X117393620Y-88749500D01*
X117393616Y-88749500D01*
X117206384Y-88749500D01*
X117206379Y-88749500D01*
X117022756Y-88786025D01*
X117022748Y-88786027D01*
X116849771Y-88857676D01*
X116849762Y-88857681D01*
X116694092Y-88961697D01*
X116694088Y-88961700D01*
X116561700Y-89094088D01*
X116561697Y-89094092D01*
X116457681Y-89249762D01*
X116457676Y-89249771D01*
X116386027Y-89422748D01*
X116386025Y-89422756D01*
X116349500Y-89606379D01*
X115710499Y-89606379D01*
X115673973Y-89422749D01*
X115602322Y-89249769D01*
X115602321Y-89249768D01*
X115602318Y-89249762D01*
X115498302Y-89094092D01*
X115498299Y-89094088D01*
X115365911Y-88961700D01*
X115365907Y-88961697D01*
X115210237Y-88857681D01*
X115210228Y-88857676D01*
X115037251Y-88786027D01*
X115037243Y-88786025D01*
X114853620Y-88749500D01*
X114853616Y-88749500D01*
X114666384Y-88749500D01*
X114666379Y-88749500D01*
X114482756Y-88786025D01*
X114482748Y-88786027D01*
X114309771Y-88857676D01*
X114309762Y-88857681D01*
X114154092Y-88961697D01*
X114154088Y-88961700D01*
X114021700Y-89094088D01*
X114021697Y-89094092D01*
X113917681Y-89249762D01*
X113917676Y-89249771D01*
X113846027Y-89422748D01*
X113846025Y-89422756D01*
X113809500Y-89606379D01*
X107000362Y-89606379D01*
X107000173Y-87066379D01*
X113809500Y-87066379D01*
X113809500Y-87253620D01*
X113846025Y-87437243D01*
X113846027Y-87437251D01*
X113917676Y-87610228D01*
X113917681Y-87610237D01*
X114021697Y-87765907D01*
X114021700Y-87765911D01*
X114154088Y-87898299D01*
X114154092Y-87898302D01*
X114309762Y-88002318D01*
X114309768Y-88002321D01*
X114309769Y-88002322D01*
X114482749Y-88073973D01*
X114666379Y-88110499D01*
X114666383Y-88110500D01*
X114666384Y-88110500D01*
X114853617Y-88110500D01*
X114853618Y-88110499D01*
X115037251Y-88073973D01*
X115210231Y-88002322D01*
X115365908Y-87898302D01*
X115498302Y-87765908D01*
X115602322Y-87610231D01*
X115673973Y-87437251D01*
X115710500Y-87253616D01*
X115710500Y-87066384D01*
X115710499Y-87066379D01*
X116349500Y-87066379D01*
X116349500Y-87253620D01*
X116386025Y-87437243D01*
X116386027Y-87437251D01*
X116457676Y-87610228D01*
X116457681Y-87610237D01*
X116561697Y-87765907D01*
X116561700Y-87765911D01*
X116694088Y-87898299D01*
X116694092Y-87898302D01*
X116849762Y-88002318D01*
X116849768Y-88002321D01*
X116849769Y-88002322D01*
X117022749Y-88073973D01*
X117206379Y-88110499D01*
X117206383Y-88110500D01*
X117206384Y-88110500D01*
X117393617Y-88110500D01*
X117393618Y-88110499D01*
X117577251Y-88073973D01*
X117750231Y-88002322D01*
X117905908Y-87898302D01*
X118038302Y-87765908D01*
X118142322Y-87610231D01*
X118213973Y-87437251D01*
X118250500Y-87253616D01*
X118250500Y-87066384D01*
X118213973Y-86882749D01*
X118142322Y-86709769D01*
X118142321Y-86709768D01*
X118142318Y-86709762D01*
X118038302Y-86554092D01*
X118038299Y-86554088D01*
X117905911Y-86421700D01*
X117905907Y-86421697D01*
X117750237Y-86317681D01*
X117750228Y-86317676D01*
X117577251Y-86246027D01*
X117577243Y-86246025D01*
X117393620Y-86209500D01*
X117393616Y-86209500D01*
X117206384Y-86209500D01*
X117206379Y-86209500D01*
X117022756Y-86246025D01*
X117022748Y-86246027D01*
X116849771Y-86317676D01*
X116849762Y-86317681D01*
X116694092Y-86421697D01*
X116694088Y-86421700D01*
X116561700Y-86554088D01*
X116561697Y-86554092D01*
X116457681Y-86709762D01*
X116457676Y-86709771D01*
X116386027Y-86882748D01*
X116386025Y-86882756D01*
X116349500Y-87066379D01*
X115710499Y-87066379D01*
X115673973Y-86882749D01*
X115602322Y-86709769D01*
X115602321Y-86709768D01*
X115602318Y-86709762D01*
X115498302Y-86554092D01*
X115498299Y-86554088D01*
X115365911Y-86421700D01*
X115365907Y-86421697D01*
X115210237Y-86317681D01*
X115210228Y-86317676D01*
X115037251Y-86246027D01*
X115037243Y-86246025D01*
X114853620Y-86209500D01*
X114853616Y-86209500D01*
X114666384Y-86209500D01*
X114666379Y-86209500D01*
X114482756Y-86246025D01*
X114482748Y-86246027D01*
X114309771Y-86317676D01*
X114309762Y-86317681D01*
X114154092Y-86421697D01*
X114154088Y-86421700D01*
X114021700Y-86554088D01*
X114021697Y-86554092D01*
X113917681Y-86709762D01*
X113917676Y-86709771D01*
X113846027Y-86882748D01*
X113846025Y-86882756D01*
X113809500Y-87066379D01*
X107000173Y-87066379D01*
X106999984Y-84526379D01*
X113809500Y-84526379D01*
X113809500Y-84713620D01*
X113846025Y-84897243D01*
X113846027Y-84897251D01*
X113917676Y-85070228D01*
X113917681Y-85070237D01*
X114021697Y-85225907D01*
X114021700Y-85225911D01*
X114154088Y-85358299D01*
X114154092Y-85358302D01*
X114309762Y-85462318D01*
X114309768Y-85462321D01*
X114309769Y-85462322D01*
X114482749Y-85533973D01*
X114655017Y-85568239D01*
X114666379Y-85570499D01*
X114666383Y-85570500D01*
X114666384Y-85570500D01*
X114853617Y-85570500D01*
X114853618Y-85570499D01*
X115037251Y-85533973D01*
X115210231Y-85462322D01*
X115365908Y-85358302D01*
X115498302Y-85225908D01*
X115602322Y-85070231D01*
X115673973Y-84897251D01*
X115710500Y-84713616D01*
X115710500Y-84526384D01*
X115710499Y-84526379D01*
X116349500Y-84526379D01*
X116349500Y-84713620D01*
X116386025Y-84897243D01*
X116386027Y-84897251D01*
X116457676Y-85070228D01*
X116457681Y-85070237D01*
X116561697Y-85225907D01*
X116561700Y-85225911D01*
X116694088Y-85358299D01*
X116694092Y-85358302D01*
X116849762Y-85462318D01*
X116849768Y-85462321D01*
X116849769Y-85462322D01*
X117022749Y-85533973D01*
X117195017Y-85568239D01*
X117206379Y-85570499D01*
X117206383Y-85570500D01*
X117206384Y-85570500D01*
X117393617Y-85570500D01*
X117393618Y-85570499D01*
X117577251Y-85533973D01*
X117750231Y-85462322D01*
X117905908Y-85358302D01*
X118038302Y-85225908D01*
X118142322Y-85070231D01*
X118213973Y-84897251D01*
X118250500Y-84713616D01*
X118250500Y-84526384D01*
X118213973Y-84342749D01*
X118142322Y-84169769D01*
X118142321Y-84169768D01*
X118142318Y-84169762D01*
X118038302Y-84014092D01*
X118038299Y-84014088D01*
X117905911Y-83881700D01*
X117905907Y-83881697D01*
X117750237Y-83777681D01*
X117750228Y-83777676D01*
X117577251Y-83706027D01*
X117577243Y-83706025D01*
X117393620Y-83669500D01*
X117393616Y-83669500D01*
X117206384Y-83669500D01*
X117206379Y-83669500D01*
X117022756Y-83706025D01*
X117022748Y-83706027D01*
X116849771Y-83777676D01*
X116849762Y-83777681D01*
X116694092Y-83881697D01*
X116694088Y-83881700D01*
X116561700Y-84014088D01*
X116561697Y-84014092D01*
X116457681Y-84169762D01*
X116457676Y-84169771D01*
X116386027Y-84342748D01*
X116386025Y-84342756D01*
X116349500Y-84526379D01*
X115710499Y-84526379D01*
X115673973Y-84342749D01*
X115602322Y-84169769D01*
X115602321Y-84169768D01*
X115602318Y-84169762D01*
X115498302Y-84014092D01*
X115498299Y-84014088D01*
X115365911Y-83881700D01*
X115365907Y-83881697D01*
X115210237Y-83777681D01*
X115210228Y-83777676D01*
X115037251Y-83706027D01*
X115037243Y-83706025D01*
X114853620Y-83669500D01*
X114853616Y-83669500D01*
X114666384Y-83669500D01*
X114666379Y-83669500D01*
X114482756Y-83706025D01*
X114482748Y-83706027D01*
X114309771Y-83777676D01*
X114309762Y-83777681D01*
X114154092Y-83881697D01*
X114154088Y-83881700D01*
X114021700Y-84014088D01*
X114021697Y-84014092D01*
X113917681Y-84169762D01*
X113917676Y-84169771D01*
X113846027Y-84342748D01*
X113846025Y-84342756D01*
X113809500Y-84526379D01*
X106999984Y-84526379D01*
X106999795Y-81986379D01*
X113809500Y-81986379D01*
X113809500Y-82173620D01*
X113846025Y-82357243D01*
X113846027Y-82357251D01*
X113917676Y-82530228D01*
X113917681Y-82530237D01*
X114021697Y-82685907D01*
X114021700Y-82685911D01*
X114154088Y-82818299D01*
X114154092Y-82818302D01*
X114309762Y-82922318D01*
X114309768Y-82922321D01*
X114309769Y-82922322D01*
X114482749Y-82993973D01*
X114616010Y-83020480D01*
X114666379Y-83030499D01*
X114666383Y-83030500D01*
X114666384Y-83030500D01*
X114853617Y-83030500D01*
X114853618Y-83030499D01*
X115037251Y-82993973D01*
X115210231Y-82922322D01*
X115365908Y-82818302D01*
X115498302Y-82685908D01*
X115602322Y-82530231D01*
X115673973Y-82357251D01*
X115710500Y-82173616D01*
X115710500Y-81986384D01*
X115710499Y-81986379D01*
X116349500Y-81986379D01*
X116349500Y-82173620D01*
X116386025Y-82357243D01*
X116386027Y-82357251D01*
X116457676Y-82530228D01*
X116457681Y-82530237D01*
X116561697Y-82685907D01*
X116561700Y-82685911D01*
X116694088Y-82818299D01*
X116694092Y-82818302D01*
X116849762Y-82922318D01*
X116849768Y-82922321D01*
X116849769Y-82922322D01*
X117022749Y-82993973D01*
X117156010Y-83020480D01*
X117206379Y-83030499D01*
X117206383Y-83030500D01*
X117206384Y-83030500D01*
X117393617Y-83030500D01*
X117393618Y-83030499D01*
X117577251Y-82993973D01*
X117750231Y-82922322D01*
X117905908Y-82818302D01*
X118038302Y-82685908D01*
X118142322Y-82530231D01*
X118213973Y-82357251D01*
X118250500Y-82173616D01*
X118250500Y-81986384D01*
X118213973Y-81802749D01*
X118149864Y-81647976D01*
X118142323Y-81629771D01*
X118142318Y-81629762D01*
X118038302Y-81474092D01*
X118038299Y-81474088D01*
X117905911Y-81341700D01*
X117905907Y-81341697D01*
X117750237Y-81237681D01*
X117750228Y-81237676D01*
X117577251Y-81166027D01*
X117577243Y-81166025D01*
X117393620Y-81129500D01*
X117393616Y-81129500D01*
X117206384Y-81129500D01*
X117206379Y-81129500D01*
X117022756Y-81166025D01*
X117022748Y-81166027D01*
X116849771Y-81237676D01*
X116849762Y-81237681D01*
X116694092Y-81341697D01*
X116694088Y-81341700D01*
X116561700Y-81474088D01*
X116561697Y-81474092D01*
X116457681Y-81629762D01*
X116457676Y-81629771D01*
X116386027Y-81802748D01*
X116386025Y-81802756D01*
X116349500Y-81986379D01*
X115710499Y-81986379D01*
X115673973Y-81802749D01*
X115609864Y-81647976D01*
X115602323Y-81629771D01*
X115602318Y-81629762D01*
X115498302Y-81474092D01*
X115498299Y-81474088D01*
X115365911Y-81341700D01*
X115365907Y-81341697D01*
X115210237Y-81237681D01*
X115210228Y-81237676D01*
X115037251Y-81166027D01*
X115037243Y-81166025D01*
X114853620Y-81129500D01*
X114853616Y-81129500D01*
X114666384Y-81129500D01*
X114666379Y-81129500D01*
X114482756Y-81166025D01*
X114482748Y-81166027D01*
X114309771Y-81237676D01*
X114309762Y-81237681D01*
X114154092Y-81341697D01*
X114154088Y-81341700D01*
X114021700Y-81474088D01*
X114021697Y-81474092D01*
X113917681Y-81629762D01*
X113917676Y-81629771D01*
X113846027Y-81802748D01*
X113846025Y-81802756D01*
X113809500Y-81986379D01*
X106999795Y-81986379D01*
X106999606Y-79446379D01*
X113809500Y-79446379D01*
X113809500Y-79633620D01*
X113846025Y-79817243D01*
X113846027Y-79817251D01*
X113917676Y-79990228D01*
X113917681Y-79990237D01*
X114021697Y-80145907D01*
X114021700Y-80145911D01*
X114154088Y-80278299D01*
X114154092Y-80278302D01*
X114309762Y-80382318D01*
X114309768Y-80382321D01*
X114309769Y-80382322D01*
X114482749Y-80453973D01*
X114666379Y-80490499D01*
X114666383Y-80490500D01*
X114666384Y-80490500D01*
X114853617Y-80490500D01*
X114853618Y-80490499D01*
X115037251Y-80453973D01*
X115210231Y-80382322D01*
X115365908Y-80278302D01*
X115498302Y-80145908D01*
X115602322Y-79990231D01*
X115673973Y-79817251D01*
X115710500Y-79633616D01*
X115710500Y-79446384D01*
X115710499Y-79446379D01*
X116349500Y-79446379D01*
X116349500Y-79633620D01*
X116386025Y-79817243D01*
X116386027Y-79817251D01*
X116457676Y-79990228D01*
X116457681Y-79990237D01*
X116561697Y-80145907D01*
X116561700Y-80145911D01*
X116694088Y-80278299D01*
X116694092Y-80278302D01*
X116849762Y-80382318D01*
X116849768Y-80382321D01*
X116849769Y-80382322D01*
X117022749Y-80453973D01*
X117206379Y-80490499D01*
X117206383Y-80490500D01*
X117206384Y-80490500D01*
X117393617Y-80490500D01*
X117393618Y-80490499D01*
X117577251Y-80453973D01*
X117750231Y-80382322D01*
X117802686Y-80347273D01*
X132899500Y-80347273D01*
X132899500Y-80452727D01*
X132926793Y-80554587D01*
X132979520Y-80645913D01*
X133054087Y-80720480D01*
X133145413Y-80773207D01*
X133247273Y-80800500D01*
X133247275Y-80800500D01*
X133352725Y-80800500D01*
X133352727Y-80800500D01*
X133454587Y-80773207D01*
X133545913Y-80720480D01*
X133620480Y-80645913D01*
X133620481Y-80645910D01*
X133622483Y-80643909D01*
X133622763Y-80643297D01*
X133623694Y-80642698D01*
X133626227Y-80640166D01*
X133626777Y-80640716D01*
X133649176Y-80626322D01*
X133674523Y-80607813D01*
X133679263Y-80606986D01*
X133681541Y-80605523D01*
X133716476Y-80600500D01*
X133933745Y-80600500D01*
X134000784Y-80620185D01*
X134046539Y-80672989D01*
X134056483Y-80742147D01*
X134027458Y-80805703D01*
X134021426Y-80812181D01*
X133979521Y-80854085D01*
X133926794Y-80945410D01*
X133926793Y-80945413D01*
X133899500Y-81047273D01*
X133899500Y-81152727D01*
X133926793Y-81254587D01*
X133977086Y-81341698D01*
X133979521Y-81345914D01*
X134004043Y-81370436D01*
X134037528Y-81431759D01*
X134032544Y-81501451D01*
X133990672Y-81557384D01*
X133978366Y-81565502D01*
X133954085Y-81579521D01*
X133879521Y-81654085D01*
X133826794Y-81745410D01*
X133826793Y-81745413D01*
X133799500Y-81847273D01*
X133799500Y-81952727D01*
X133826793Y-82054587D01*
X133874894Y-82137901D01*
X133879521Y-82145914D01*
X133945926Y-82212319D01*
X133979411Y-82273642D01*
X133974427Y-82343334D01*
X133945926Y-82387681D01*
X133879521Y-82454085D01*
X133826794Y-82545410D01*
X133826793Y-82545413D01*
X133799500Y-82647273D01*
X133799500Y-82752727D01*
X133826793Y-82854587D01*
X133866811Y-82923901D01*
X133879521Y-82945914D01*
X133945926Y-83012319D01*
X133979411Y-83073642D01*
X133974427Y-83143334D01*
X133945926Y-83187681D01*
X133879521Y-83254085D01*
X133826794Y-83345410D01*
X133826793Y-83345413D01*
X133799500Y-83447273D01*
X133799500Y-83552727D01*
X133826793Y-83654587D01*
X133879520Y-83745913D01*
X133954087Y-83820480D01*
X133954089Y-83820481D01*
X133956556Y-83822374D01*
X133958112Y-83824505D01*
X133959834Y-83826227D01*
X133959565Y-83826495D01*
X133997763Y-83878799D01*
X134001922Y-83948545D01*
X133967713Y-84009467D01*
X133943077Y-84028140D01*
X133854086Y-84079520D01*
X133779521Y-84154085D01*
X133726794Y-84245410D01*
X133726793Y-84245413D01*
X133699500Y-84347273D01*
X133699500Y-84452727D01*
X133716052Y-84514498D01*
X133726793Y-84554586D01*
X133726794Y-84554589D01*
X133779521Y-84645914D01*
X133804043Y-84670436D01*
X133837528Y-84731759D01*
X133832544Y-84801451D01*
X133790672Y-84857384D01*
X133778366Y-84865502D01*
X133754085Y-84879521D01*
X133679521Y-84954085D01*
X133626794Y-85045410D01*
X133626793Y-85045413D01*
X133599500Y-85147273D01*
X133599500Y-85252727D01*
X133625037Y-85348031D01*
X133626793Y-85354586D01*
X133626794Y-85354589D01*
X133679521Y-85445914D01*
X133751834Y-85518227D01*
X133785319Y-85579550D01*
X133780335Y-85649242D01*
X133771540Y-85667908D01*
X133726794Y-85745410D01*
X133726793Y-85745413D01*
X133699500Y-85847273D01*
X133699500Y-85952727D01*
X133726793Y-86054587D01*
X133779508Y-86145893D01*
X133779521Y-86145914D01*
X133845926Y-86212319D01*
X133879411Y-86273642D01*
X133874427Y-86343334D01*
X133845926Y-86387681D01*
X133779521Y-86454085D01*
X133726794Y-86545410D01*
X133726793Y-86545413D01*
X133699500Y-86647273D01*
X133699500Y-86752727D01*
X133712301Y-86800499D01*
X133726793Y-86854586D01*
X133726794Y-86854589D01*
X133779521Y-86945914D01*
X133845926Y-87012319D01*
X133879411Y-87073642D01*
X133874427Y-87143334D01*
X133845926Y-87187681D01*
X133779521Y-87254085D01*
X133726794Y-87345410D01*
X133726793Y-87345413D01*
X133699500Y-87447273D01*
X133699500Y-87552727D01*
X133726793Y-87654587D01*
X133779520Y-87745913D01*
X133854087Y-87820480D01*
X133940385Y-87870304D01*
X133961012Y-87891938D01*
X133983398Y-87911751D01*
X133984867Y-87916957D01*
X133988600Y-87920872D01*
X133994256Y-87950223D01*
X134002377Y-87978994D01*
X134001051Y-87985480D01*
X134001822Y-87989479D01*
X133996987Y-88013874D01*
X133994533Y-88021916D01*
X133994105Y-88022345D01*
X133963581Y-88096037D01*
X133963581Y-88123374D01*
X133958184Y-88141065D01*
X133948739Y-88155427D01*
X133943896Y-88171921D01*
X133923202Y-88194420D01*
X133923915Y-88195133D01*
X133920156Y-88198891D01*
X133919794Y-88199443D01*
X133919454Y-88199593D01*
X133843601Y-88275447D01*
X133790875Y-88366770D01*
X133790874Y-88366773D01*
X133763581Y-88468633D01*
X133763581Y-88574087D01*
X133790874Y-88675947D01*
X133843601Y-88767273D01*
X133918168Y-88841840D01*
X134009494Y-88894567D01*
X134111354Y-88921860D01*
X134111356Y-88921860D01*
X134216806Y-88921860D01*
X134216808Y-88921860D01*
X134318668Y-88894567D01*
X134409994Y-88841840D01*
X134484561Y-88767273D01*
X134537288Y-88675947D01*
X134564581Y-88574087D01*
X134564581Y-88468633D01*
X134537288Y-88366773D01*
X134484561Y-88275447D01*
X134484559Y-88275445D01*
X134484558Y-88275443D01*
X134479612Y-88268997D01*
X134481579Y-88267487D01*
X134454081Y-88217129D01*
X134459065Y-88147437D01*
X134487564Y-88103092D01*
X134769976Y-87820681D01*
X134769977Y-87820678D01*
X134776764Y-87810522D01*
X134778641Y-87811776D01*
X134792442Y-87791106D01*
X135351630Y-87231919D01*
X139300000Y-87231919D01*
X139300000Y-87231920D01*
X139300000Y-92431920D01*
X140900000Y-92431920D01*
X140900000Y-87483282D01*
X140919685Y-87416243D01*
X140936319Y-87395601D01*
X142763681Y-85568239D01*
X142825004Y-85534754D01*
X142851362Y-85531920D01*
X143400000Y-85531920D01*
X143400000Y-84431920D01*
X142100000Y-84431920D01*
X142099999Y-84431920D01*
X139300000Y-87231919D01*
X135351630Y-87231919D01*
X135746731Y-86836818D01*
X135808054Y-86803333D01*
X135834412Y-86800499D01*
X136229895Y-86800499D01*
X136229898Y-86800499D01*
X136259213Y-86794669D01*
X136292457Y-86772457D01*
X136314669Y-86739213D01*
X136320500Y-86709899D01*
X136320499Y-86390102D01*
X136314669Y-86360787D01*
X136309996Y-86349504D01*
X136313551Y-86348031D01*
X136299205Y-86302208D01*
X136313047Y-86251756D01*
X136309996Y-86250493D01*
X136314666Y-86239217D01*
X136314669Y-86239213D01*
X136320500Y-86209899D01*
X136320499Y-85890102D01*
X136314669Y-85860787D01*
X136309996Y-85849504D01*
X136313551Y-85848031D01*
X136299205Y-85802208D01*
X136313047Y-85751756D01*
X136309996Y-85750493D01*
X136314666Y-85739217D01*
X136314669Y-85739213D01*
X136320500Y-85709899D01*
X136320499Y-85390102D01*
X136314669Y-85360787D01*
X136309996Y-85349504D01*
X136313551Y-85348031D01*
X136299205Y-85302208D01*
X136313047Y-85251756D01*
X136309996Y-85250493D01*
X136314666Y-85239217D01*
X136314669Y-85239213D01*
X136320500Y-85209899D01*
X136320499Y-84890102D01*
X136314669Y-84860787D01*
X136306105Y-84847969D01*
X136292457Y-84827542D01*
X136259214Y-84805332D01*
X136259215Y-84805332D01*
X136259213Y-84805331D01*
X136259211Y-84805330D01*
X136259208Y-84805329D01*
X136229901Y-84799500D01*
X135650105Y-84799500D01*
X135650097Y-84799501D01*
X135620789Y-84805330D01*
X135620787Y-84805330D01*
X135620787Y-84805331D01*
X135587543Y-84827543D01*
X135587542Y-84827544D01*
X135585956Y-84828604D01*
X135576256Y-84831640D01*
X135568578Y-84838294D01*
X135524103Y-84847969D01*
X135519278Y-84849480D01*
X135518340Y-84849222D01*
X135517067Y-84849500D01*
X135033412Y-84849500D01*
X134966373Y-84829815D01*
X134920618Y-84777011D01*
X134910674Y-84707853D01*
X134939699Y-84644297D01*
X134945731Y-84637819D01*
X135082731Y-84500819D01*
X135144054Y-84467334D01*
X135170412Y-84464500D01*
X135517067Y-84464500D01*
X135525752Y-84467050D01*
X135534714Y-84465762D01*
X135558754Y-84476740D01*
X135584106Y-84484185D01*
X135585955Y-84485396D01*
X135587543Y-84486457D01*
X135620787Y-84508669D01*
X135620789Y-84508669D01*
X135620791Y-84508670D01*
X135630647Y-84510630D01*
X135650101Y-84514500D01*
X136229898Y-84514499D01*
X136259213Y-84508669D01*
X136292457Y-84486457D01*
X136314669Y-84453213D01*
X136320500Y-84423899D01*
X136320499Y-84104102D01*
X136314669Y-84074787D01*
X136309996Y-84063504D01*
X136313551Y-84062031D01*
X136299205Y-84016208D01*
X136313047Y-83965756D01*
X136309996Y-83964493D01*
X136314666Y-83953217D01*
X136314669Y-83953213D01*
X136320500Y-83923899D01*
X136320499Y-83604102D01*
X136314669Y-83574787D01*
X136309996Y-83563504D01*
X136313551Y-83562031D01*
X136299205Y-83516208D01*
X136313047Y-83465756D01*
X136309996Y-83464493D01*
X136314666Y-83453217D01*
X136314669Y-83453213D01*
X136320500Y-83423899D01*
X136320499Y-83104102D01*
X136314669Y-83074787D01*
X136309996Y-83063504D01*
X136313551Y-83062031D01*
X136299205Y-83016208D01*
X136313047Y-82965756D01*
X136309996Y-82964493D01*
X136314666Y-82953217D01*
X136314669Y-82953213D01*
X136320500Y-82923899D01*
X136320499Y-82604102D01*
X136314669Y-82574787D01*
X136302063Y-82555920D01*
X136292457Y-82541542D01*
X136259214Y-82519332D01*
X136259215Y-82519332D01*
X136259213Y-82519331D01*
X136259211Y-82519330D01*
X136259208Y-82519329D01*
X136229901Y-82513500D01*
X135650105Y-82513500D01*
X135650097Y-82513501D01*
X135620789Y-82519330D01*
X135620787Y-82519330D01*
X135620787Y-82519331D01*
X135587543Y-82541543D01*
X135587542Y-82541544D01*
X135585956Y-82542604D01*
X135576256Y-82545640D01*
X135568578Y-82552294D01*
X135524103Y-82561969D01*
X135519278Y-82563480D01*
X135518340Y-82563222D01*
X135517067Y-82563500D01*
X134655241Y-82563500D01*
X134588202Y-82543815D01*
X134547854Y-82501501D01*
X134520480Y-82454087D01*
X134456574Y-82390181D01*
X134423089Y-82328858D01*
X134428073Y-82259166D01*
X134469945Y-82203233D01*
X134535409Y-82178816D01*
X134544255Y-82178500D01*
X135517067Y-82178500D01*
X135525752Y-82181050D01*
X135534714Y-82179762D01*
X135558754Y-82190740D01*
X135584106Y-82198185D01*
X135585955Y-82199396D01*
X135587543Y-82200457D01*
X135620787Y-82222669D01*
X135620789Y-82222669D01*
X135620791Y-82222670D01*
X135630647Y-82224630D01*
X135650101Y-82228500D01*
X136229898Y-82228499D01*
X136259213Y-82222669D01*
X136292457Y-82200457D01*
X136314669Y-82167213D01*
X136320500Y-82137899D01*
X136320499Y-81818102D01*
X136314669Y-81788787D01*
X136309996Y-81777504D01*
X136313551Y-81776031D01*
X136299205Y-81730208D01*
X136313047Y-81679756D01*
X136309996Y-81678493D01*
X136314666Y-81667217D01*
X136314669Y-81667213D01*
X136320500Y-81637899D01*
X136320499Y-81318102D01*
X136314669Y-81288787D01*
X136309996Y-81277504D01*
X136313551Y-81276031D01*
X136299205Y-81230208D01*
X136313047Y-81179756D01*
X136309996Y-81178493D01*
X136314666Y-81167217D01*
X136314669Y-81167213D01*
X136320500Y-81137899D01*
X136320499Y-80818102D01*
X136314669Y-80788787D01*
X136309996Y-80777504D01*
X136313551Y-80776031D01*
X136299205Y-80730208D01*
X136313047Y-80679756D01*
X136309996Y-80678493D01*
X136314666Y-80667217D01*
X136314669Y-80667213D01*
X136320500Y-80637899D01*
X136320499Y-80318102D01*
X136314669Y-80288787D01*
X136292457Y-80255542D01*
X136259214Y-80233332D01*
X136259215Y-80233332D01*
X136259213Y-80233331D01*
X136259211Y-80233330D01*
X136259208Y-80233329D01*
X136229901Y-80227500D01*
X135650105Y-80227500D01*
X135650097Y-80227501D01*
X135620789Y-80233330D01*
X135620787Y-80233330D01*
X135620787Y-80233331D01*
X135587543Y-80255543D01*
X135587542Y-80255544D01*
X135585956Y-80256604D01*
X135567909Y-80262254D01*
X135552002Y-80272477D01*
X135521037Y-80276929D01*
X135519278Y-80277480D01*
X135517067Y-80277500D01*
X135412412Y-80277500D01*
X135345373Y-80257815D01*
X135324731Y-80241181D01*
X135187731Y-80104181D01*
X135154246Y-80042858D01*
X135159230Y-79973166D01*
X135201102Y-79917233D01*
X135266566Y-79892816D01*
X135275412Y-79892500D01*
X135517067Y-79892500D01*
X135584106Y-79912185D01*
X135585955Y-79913396D01*
X135587543Y-79914457D01*
X135620787Y-79936669D01*
X135620789Y-79936669D01*
X135620791Y-79936670D01*
X135630647Y-79938630D01*
X135650101Y-79942500D01*
X136229898Y-79942499D01*
X136259213Y-79936669D01*
X136292457Y-79914457D01*
X136314669Y-79881213D01*
X136320500Y-79851899D01*
X136320499Y-79532102D01*
X136314669Y-79502787D01*
X136309996Y-79491504D01*
X136313551Y-79490031D01*
X136299205Y-79444208D01*
X136313047Y-79393756D01*
X136309996Y-79392493D01*
X136314666Y-79381217D01*
X136314669Y-79381213D01*
X136320500Y-79351899D01*
X136320499Y-79032102D01*
X136314669Y-79002787D01*
X136309996Y-78991504D01*
X136313551Y-78990031D01*
X136299205Y-78944208D01*
X136313047Y-78893756D01*
X136309996Y-78892493D01*
X136314666Y-78881217D01*
X136314669Y-78881213D01*
X136320500Y-78851899D01*
X136320499Y-78532102D01*
X136314669Y-78502787D01*
X136309996Y-78491504D01*
X136313551Y-78490031D01*
X136299205Y-78444208D01*
X136313047Y-78393756D01*
X136309996Y-78392493D01*
X136314666Y-78381217D01*
X136314669Y-78381213D01*
X136320500Y-78351899D01*
X136320499Y-78032102D01*
X136314669Y-78002787D01*
X136292457Y-77969542D01*
X136259214Y-77947332D01*
X136259215Y-77947332D01*
X136259213Y-77947331D01*
X136259211Y-77947330D01*
X136259208Y-77947329D01*
X136229901Y-77941500D01*
X136229899Y-77941500D01*
X135976411Y-77941500D01*
X135909372Y-77921815D01*
X135888730Y-77905181D01*
X134554445Y-76570895D01*
X134520960Y-76509572D01*
X134525944Y-76439880D01*
X134534732Y-76421227D01*
X134573207Y-76354587D01*
X134600500Y-76252727D01*
X134600500Y-76147273D01*
X134573207Y-76045413D01*
X134520480Y-75954087D01*
X134445913Y-75879520D01*
X134354587Y-75826793D01*
X134252727Y-75799500D01*
X134147273Y-75799500D01*
X134045413Y-75826793D01*
X134045410Y-75826794D01*
X133954085Y-75879521D01*
X133879521Y-75954085D01*
X133826794Y-76045410D01*
X133826793Y-76045413D01*
X133799500Y-76147273D01*
X133799500Y-76252727D01*
X133826793Y-76354587D01*
X133879520Y-76445913D01*
X133954087Y-76520480D01*
X133966756Y-76527794D01*
X133978443Y-76539651D01*
X133991617Y-76546686D01*
X134005169Y-76566766D01*
X134013031Y-76574742D01*
X134016552Y-76581049D01*
X134030024Y-76613574D01*
X134040626Y-76624176D01*
X134049028Y-76639227D01*
X134053105Y-76657165D01*
X134061921Y-76673309D01*
X134060689Y-76690526D01*
X134064516Y-76707358D01*
X134058249Y-76724651D01*
X134056937Y-76743001D01*
X134046592Y-76756819D01*
X134040712Y-76773047D01*
X134026088Y-76784208D01*
X134015065Y-76798934D01*
X133992317Y-76809984D01*
X133985171Y-76815439D01*
X133980273Y-76815835D01*
X133972850Y-76819441D01*
X133961607Y-76822453D01*
X133945411Y-76826793D01*
X133945410Y-76826794D01*
X133854085Y-76879521D01*
X133779521Y-76954085D01*
X133726794Y-77045410D01*
X133726793Y-77045413D01*
X133699500Y-77147273D01*
X133699500Y-77252727D01*
X133726793Y-77354587D01*
X133771152Y-77431420D01*
X133779521Y-77445914D01*
X133845926Y-77512319D01*
X133879411Y-77573642D01*
X133874427Y-77643334D01*
X133845926Y-77687681D01*
X133779521Y-77754085D01*
X133726794Y-77845410D01*
X133726793Y-77845413D01*
X133699500Y-77947273D01*
X133699500Y-78052727D01*
X133726793Y-78154587D01*
X133769490Y-78228541D01*
X133774099Y-78236523D01*
X133790572Y-78304423D01*
X133767720Y-78370450D01*
X133739998Y-78395669D01*
X133741328Y-78397402D01*
X133734882Y-78402347D01*
X133660316Y-78476913D01*
X133607589Y-78568238D01*
X133607588Y-78568241D01*
X133580295Y-78670101D01*
X133580295Y-78775555D01*
X133607588Y-78877415D01*
X133660315Y-78968741D01*
X133734882Y-79043308D01*
X133826208Y-79096035D01*
X133881913Y-79110961D01*
X133941572Y-79147324D01*
X133972102Y-79210171D01*
X133963808Y-79279547D01*
X133957207Y-79292734D01*
X133926793Y-79345412D01*
X133926793Y-79345413D01*
X133899500Y-79447273D01*
X133899500Y-79552727D01*
X133926793Y-79654587D01*
X133979520Y-79745913D01*
X134054087Y-79820480D01*
X134145413Y-79873207D01*
X134247273Y-79900500D01*
X134247275Y-79900500D01*
X134360854Y-79900500D01*
X134360854Y-79902883D01*
X134417879Y-79911772D01*
X134452718Y-79936268D01*
X134504269Y-79987819D01*
X134537754Y-80049142D01*
X134532770Y-80118834D01*
X134490898Y-80174767D01*
X134425434Y-80199184D01*
X134416588Y-80199500D01*
X133716476Y-80199500D01*
X133649437Y-80179815D01*
X133626941Y-80159119D01*
X133626227Y-80159834D01*
X133545914Y-80079521D01*
X133545913Y-80079520D01*
X133454587Y-80026793D01*
X133352727Y-79999500D01*
X133247273Y-79999500D01*
X133145413Y-80026793D01*
X133145410Y-80026794D01*
X133054085Y-80079521D01*
X132979521Y-80154085D01*
X132926794Y-80245410D01*
X132926793Y-80245413D01*
X132899500Y-80347273D01*
X117802686Y-80347273D01*
X117905908Y-80278302D01*
X117911733Y-80272477D01*
X117932746Y-80251465D01*
X118038299Y-80145911D01*
X118038302Y-80145908D01*
X118142322Y-79990231D01*
X118213973Y-79817251D01*
X118250500Y-79633616D01*
X118250500Y-79446384D01*
X118213973Y-79262749D01*
X118146353Y-79099500D01*
X118142323Y-79089771D01*
X118142318Y-79089762D01*
X118038302Y-78934092D01*
X118038299Y-78934088D01*
X117905911Y-78801700D01*
X117905907Y-78801697D01*
X117750237Y-78697681D01*
X117750228Y-78697676D01*
X117577251Y-78626027D01*
X117577243Y-78626025D01*
X117393620Y-78589500D01*
X117393616Y-78589500D01*
X117206384Y-78589500D01*
X117206379Y-78589500D01*
X117022756Y-78626025D01*
X117022748Y-78626027D01*
X116849771Y-78697676D01*
X116849762Y-78697681D01*
X116694092Y-78801697D01*
X116694088Y-78801700D01*
X116561700Y-78934088D01*
X116561697Y-78934092D01*
X116457681Y-79089762D01*
X116457676Y-79089771D01*
X116386027Y-79262748D01*
X116386025Y-79262756D01*
X116349500Y-79446379D01*
X115710499Y-79446379D01*
X115673973Y-79262749D01*
X115606353Y-79099500D01*
X115602323Y-79089771D01*
X115602318Y-79089762D01*
X115498302Y-78934092D01*
X115498299Y-78934088D01*
X115365911Y-78801700D01*
X115365907Y-78801697D01*
X115210237Y-78697681D01*
X115210228Y-78697676D01*
X115037251Y-78626027D01*
X115037243Y-78626025D01*
X114853620Y-78589500D01*
X114853616Y-78589500D01*
X114666384Y-78589500D01*
X114666379Y-78589500D01*
X114482756Y-78626025D01*
X114482748Y-78626027D01*
X114309771Y-78697676D01*
X114309762Y-78697681D01*
X114154092Y-78801697D01*
X114154088Y-78801700D01*
X114021700Y-78934088D01*
X114021697Y-78934092D01*
X113917681Y-79089762D01*
X113917676Y-79089771D01*
X113846027Y-79262748D01*
X113846025Y-79262756D01*
X113809500Y-79446379D01*
X106999606Y-79446379D01*
X106999417Y-76906379D01*
X113809500Y-76906379D01*
X113809500Y-77093620D01*
X113846025Y-77277243D01*
X113846027Y-77277251D01*
X113917676Y-77450228D01*
X113917681Y-77450237D01*
X114021697Y-77605907D01*
X114021700Y-77605911D01*
X114154088Y-77738299D01*
X114154092Y-77738302D01*
X114309762Y-77842318D01*
X114309768Y-77842321D01*
X114309769Y-77842322D01*
X114482749Y-77913973D01*
X114650161Y-77947273D01*
X114666379Y-77950499D01*
X114666383Y-77950500D01*
X114666384Y-77950500D01*
X114853617Y-77950500D01*
X114853618Y-77950499D01*
X115037251Y-77913973D01*
X115210231Y-77842322D01*
X115365908Y-77738302D01*
X115498302Y-77605908D01*
X115602322Y-77450231D01*
X115673973Y-77277251D01*
X115710500Y-77093616D01*
X115710500Y-76906384D01*
X115710499Y-76906379D01*
X116349500Y-76906379D01*
X116349500Y-77093620D01*
X116386025Y-77277243D01*
X116386027Y-77277251D01*
X116457676Y-77450228D01*
X116457681Y-77450237D01*
X116561697Y-77605907D01*
X116561700Y-77605911D01*
X116694088Y-77738299D01*
X116694092Y-77738302D01*
X116849762Y-77842318D01*
X116849768Y-77842321D01*
X116849769Y-77842322D01*
X117022749Y-77913973D01*
X117190161Y-77947273D01*
X117206379Y-77950499D01*
X117206383Y-77950500D01*
X117206384Y-77950500D01*
X117393617Y-77950500D01*
X117393618Y-77950499D01*
X117577251Y-77913973D01*
X117750231Y-77842322D01*
X117905908Y-77738302D01*
X118038302Y-77605908D01*
X118142322Y-77450231D01*
X118213973Y-77277251D01*
X118250500Y-77093616D01*
X118250500Y-76906384D01*
X118213973Y-76722749D01*
X118151073Y-76570895D01*
X118142323Y-76549771D01*
X118142318Y-76549762D01*
X118038302Y-76394092D01*
X118038299Y-76394088D01*
X117905911Y-76261700D01*
X117905907Y-76261697D01*
X117750237Y-76157681D01*
X117750228Y-76157676D01*
X117577251Y-76086027D01*
X117577243Y-76086025D01*
X117393620Y-76049500D01*
X117393616Y-76049500D01*
X117206384Y-76049500D01*
X117206379Y-76049500D01*
X117022756Y-76086025D01*
X117022748Y-76086027D01*
X116849771Y-76157676D01*
X116849762Y-76157681D01*
X116694092Y-76261697D01*
X116694088Y-76261700D01*
X116561700Y-76394088D01*
X116561697Y-76394092D01*
X116457681Y-76549762D01*
X116457676Y-76549771D01*
X116386027Y-76722748D01*
X116386025Y-76722756D01*
X116349500Y-76906379D01*
X115710499Y-76906379D01*
X115673973Y-76722749D01*
X115611073Y-76570895D01*
X115602323Y-76549771D01*
X115602318Y-76549762D01*
X115498302Y-76394092D01*
X115498299Y-76394088D01*
X115365911Y-76261700D01*
X115365907Y-76261697D01*
X115210237Y-76157681D01*
X115210228Y-76157676D01*
X115037251Y-76086027D01*
X115037243Y-76086025D01*
X114853620Y-76049500D01*
X114853616Y-76049500D01*
X114666384Y-76049500D01*
X114666379Y-76049500D01*
X114482756Y-76086025D01*
X114482748Y-76086027D01*
X114309771Y-76157676D01*
X114309762Y-76157681D01*
X114154092Y-76261697D01*
X114154088Y-76261700D01*
X114021700Y-76394088D01*
X114021697Y-76394092D01*
X113917681Y-76549762D01*
X113917676Y-76549771D01*
X113846027Y-76722748D01*
X113846025Y-76722756D01*
X113809500Y-76906379D01*
X106999417Y-76906379D01*
X106999417Y-76900301D01*
X106999017Y-71524509D01*
X107018697Y-71457468D01*
X107071497Y-71411709D01*
X107123017Y-71400500D01*
X173111500Y-71400500D01*
X173178539Y-71420185D01*
G37*
%TD.AperFunction*%
%TD*%
M02*
