%TF.GenerationSoftware,KiCad,Pcbnew,10.0.5*%
%TF.CreationDate,2026-08-02T18:56:16+03:00*%
%TF.ProjectId,ads1299_test_board,61647331-3239-4395-9f74-6573745f626f,rev?*%
%TF.SameCoordinates,Original*%
%TF.FileFunction,Legend,Top*%
%TF.FilePolarity,Positive*%
%FSLAX46Y46*%
G04 Gerber Fmt 4.6, Leading zero omitted, Abs format (unit mm)*
G04 Created by KiCad (PCBNEW 10.0.5) date 2026-08-02 18:56:16*
%MOMM*%
%LPD*%
G01*
G04 APERTURE LIST*
%ADD10C,0.100000*%
%ADD11C,0.101600*%
%ADD12C,0.150000*%
%ADD13C,0.200000*%
%ADD14C,0.050000*%
%ADD15C,0.250000*%
%ADD16C,0.120000*%
G04 APERTURE END LIST*
D10*
X113522931Y-111901937D02*
X113637217Y-111940032D01*
X113637217Y-111940032D02*
X113675312Y-111978128D01*
X113675312Y-111978128D02*
X113713408Y-112054318D01*
X113713408Y-112054318D02*
X113713408Y-112168604D01*
X113713408Y-112168604D02*
X113675312Y-112244794D01*
X113675312Y-112244794D02*
X113637217Y-112282890D01*
X113637217Y-112282890D02*
X113561027Y-112320985D01*
X113561027Y-112320985D02*
X113256265Y-112320985D01*
X113256265Y-112320985D02*
X113256265Y-111520985D01*
X113256265Y-111520985D02*
X113522931Y-111520985D01*
X113522931Y-111520985D02*
X113599122Y-111559080D01*
X113599122Y-111559080D02*
X113637217Y-111597175D01*
X113637217Y-111597175D02*
X113675312Y-111673366D01*
X113675312Y-111673366D02*
X113675312Y-111749556D01*
X113675312Y-111749556D02*
X113637217Y-111825747D01*
X113637217Y-111825747D02*
X113599122Y-111863842D01*
X113599122Y-111863842D02*
X113522931Y-111901937D01*
X113522931Y-111901937D02*
X113256265Y-111901937D01*
X114056265Y-112320985D02*
X114056265Y-111787651D01*
X114056265Y-111520985D02*
X114018169Y-111559080D01*
X114018169Y-111559080D02*
X114056265Y-111597175D01*
X114056265Y-111597175D02*
X114094360Y-111559080D01*
X114094360Y-111559080D02*
X114056265Y-111520985D01*
X114056265Y-111520985D02*
X114056265Y-111597175D01*
X114780074Y-111787651D02*
X114780074Y-112435270D01*
X114780074Y-112435270D02*
X114741979Y-112511461D01*
X114741979Y-112511461D02*
X114703883Y-112549556D01*
X114703883Y-112549556D02*
X114627693Y-112587651D01*
X114627693Y-112587651D02*
X114513407Y-112587651D01*
X114513407Y-112587651D02*
X114437217Y-112549556D01*
X114780074Y-112282890D02*
X114703883Y-112320985D01*
X114703883Y-112320985D02*
X114551502Y-112320985D01*
X114551502Y-112320985D02*
X114475312Y-112282890D01*
X114475312Y-112282890D02*
X114437217Y-112244794D01*
X114437217Y-112244794D02*
X114399121Y-112168604D01*
X114399121Y-112168604D02*
X114399121Y-111940032D01*
X114399121Y-111940032D02*
X114437217Y-111863842D01*
X114437217Y-111863842D02*
X114475312Y-111825747D01*
X114475312Y-111825747D02*
X114551502Y-111787651D01*
X114551502Y-111787651D02*
X114703883Y-111787651D01*
X114703883Y-111787651D02*
X114780074Y-111825747D01*
X115161027Y-112244794D02*
X115199122Y-112282890D01*
X115199122Y-112282890D02*
X115161027Y-112320985D01*
X115161027Y-112320985D02*
X115122931Y-112282890D01*
X115122931Y-112282890D02*
X115161027Y-112244794D01*
X115161027Y-112244794D02*
X115161027Y-112320985D01*
X115808645Y-111901937D02*
X115922931Y-111940032D01*
X115922931Y-111940032D02*
X115961026Y-111978128D01*
X115961026Y-111978128D02*
X115999122Y-112054318D01*
X115999122Y-112054318D02*
X115999122Y-112168604D01*
X115999122Y-112168604D02*
X115961026Y-112244794D01*
X115961026Y-112244794D02*
X115922931Y-112282890D01*
X115922931Y-112282890D02*
X115846741Y-112320985D01*
X115846741Y-112320985D02*
X115541979Y-112320985D01*
X115541979Y-112320985D02*
X115541979Y-111520985D01*
X115541979Y-111520985D02*
X115808645Y-111520985D01*
X115808645Y-111520985D02*
X115884836Y-111559080D01*
X115884836Y-111559080D02*
X115922931Y-111597175D01*
X115922931Y-111597175D02*
X115961026Y-111673366D01*
X115961026Y-111673366D02*
X115961026Y-111749556D01*
X115961026Y-111749556D02*
X115922931Y-111825747D01*
X115922931Y-111825747D02*
X115884836Y-111863842D01*
X115884836Y-111863842D02*
X115808645Y-111901937D01*
X115808645Y-111901937D02*
X115541979Y-111901937D01*
X116341979Y-112320985D02*
X116341979Y-111787651D01*
X116341979Y-111940032D02*
X116380074Y-111863842D01*
X116380074Y-111863842D02*
X116418169Y-111825747D01*
X116418169Y-111825747D02*
X116494360Y-111787651D01*
X116494360Y-111787651D02*
X116570550Y-111787651D01*
X117180074Y-112320985D02*
X117180074Y-111901937D01*
X117180074Y-111901937D02*
X117141979Y-111825747D01*
X117141979Y-111825747D02*
X117065788Y-111787651D01*
X117065788Y-111787651D02*
X116913407Y-111787651D01*
X116913407Y-111787651D02*
X116837217Y-111825747D01*
X117180074Y-112282890D02*
X117103883Y-112320985D01*
X117103883Y-112320985D02*
X116913407Y-112320985D01*
X116913407Y-112320985D02*
X116837217Y-112282890D01*
X116837217Y-112282890D02*
X116799121Y-112206699D01*
X116799121Y-112206699D02*
X116799121Y-112130509D01*
X116799121Y-112130509D02*
X116837217Y-112054318D01*
X116837217Y-112054318D02*
X116913407Y-112016223D01*
X116913407Y-112016223D02*
X117103883Y-112016223D01*
X117103883Y-112016223D02*
X117180074Y-111978128D01*
X117561027Y-112320985D02*
X117561027Y-111787651D01*
X117561027Y-111520985D02*
X117522931Y-111559080D01*
X117522931Y-111559080D02*
X117561027Y-111597175D01*
X117561027Y-111597175D02*
X117599122Y-111559080D01*
X117599122Y-111559080D02*
X117561027Y-111520985D01*
X117561027Y-111520985D02*
X117561027Y-111597175D01*
X117941979Y-111787651D02*
X117941979Y-112320985D01*
X117941979Y-111863842D02*
X117980074Y-111825747D01*
X117980074Y-111825747D02*
X118056264Y-111787651D01*
X118056264Y-111787651D02*
X118170550Y-111787651D01*
X118170550Y-111787651D02*
X118246741Y-111825747D01*
X118246741Y-111825747D02*
X118284836Y-111901937D01*
X118284836Y-111901937D02*
X118284836Y-112320985D01*
X113180074Y-113075606D02*
X113370550Y-113608940D01*
X113370550Y-113608940D02*
X113561027Y-113075606D01*
X114894360Y-113608940D02*
X114437217Y-113608940D01*
X114665789Y-113608940D02*
X114665789Y-112808940D01*
X114665789Y-112808940D02*
X114589598Y-112923225D01*
X114589598Y-112923225D02*
X114513408Y-112999416D01*
X114513408Y-112999416D02*
X114437217Y-113037511D01*
X115237218Y-113532749D02*
X115275313Y-113570845D01*
X115275313Y-113570845D02*
X115237218Y-113608940D01*
X115237218Y-113608940D02*
X115199122Y-113570845D01*
X115199122Y-113570845D02*
X115237218Y-113532749D01*
X115237218Y-113532749D02*
X115237218Y-113608940D01*
X115770551Y-112808940D02*
X115846741Y-112808940D01*
X115846741Y-112808940D02*
X115922932Y-112847035D01*
X115922932Y-112847035D02*
X115961027Y-112885130D01*
X115961027Y-112885130D02*
X115999122Y-112961321D01*
X115999122Y-112961321D02*
X116037217Y-113113702D01*
X116037217Y-113113702D02*
X116037217Y-113304178D01*
X116037217Y-113304178D02*
X115999122Y-113456559D01*
X115999122Y-113456559D02*
X115961027Y-113532749D01*
X115961027Y-113532749D02*
X115922932Y-113570845D01*
X115922932Y-113570845D02*
X115846741Y-113608940D01*
X115846741Y-113608940D02*
X115770551Y-113608940D01*
X115770551Y-113608940D02*
X115694360Y-113570845D01*
X115694360Y-113570845D02*
X115656265Y-113532749D01*
X115656265Y-113532749D02*
X115618170Y-113456559D01*
X115618170Y-113456559D02*
X115580074Y-113304178D01*
X115580074Y-113304178D02*
X115580074Y-113113702D01*
X115580074Y-113113702D02*
X115618170Y-112961321D01*
X115618170Y-112961321D02*
X115656265Y-112885130D01*
X115656265Y-112885130D02*
X115694360Y-112847035D01*
X115694360Y-112847035D02*
X115770551Y-112808940D01*
X113713408Y-114896895D02*
X113446741Y-114515942D01*
X113256265Y-114896895D02*
X113256265Y-114096895D01*
X113256265Y-114096895D02*
X113561027Y-114096895D01*
X113561027Y-114096895D02*
X113637217Y-114134990D01*
X113637217Y-114134990D02*
X113675312Y-114173085D01*
X113675312Y-114173085D02*
X113713408Y-114249276D01*
X113713408Y-114249276D02*
X113713408Y-114363561D01*
X113713408Y-114363561D02*
X113675312Y-114439752D01*
X113675312Y-114439752D02*
X113637217Y-114477847D01*
X113637217Y-114477847D02*
X113561027Y-114515942D01*
X113561027Y-114515942D02*
X113256265Y-114515942D01*
X114361027Y-114858800D02*
X114284836Y-114896895D01*
X114284836Y-114896895D02*
X114132455Y-114896895D01*
X114132455Y-114896895D02*
X114056265Y-114858800D01*
X114056265Y-114858800D02*
X114018169Y-114782609D01*
X114018169Y-114782609D02*
X114018169Y-114477847D01*
X114018169Y-114477847D02*
X114056265Y-114401657D01*
X114056265Y-114401657D02*
X114132455Y-114363561D01*
X114132455Y-114363561D02*
X114284836Y-114363561D01*
X114284836Y-114363561D02*
X114361027Y-114401657D01*
X114361027Y-114401657D02*
X114399122Y-114477847D01*
X114399122Y-114477847D02*
X114399122Y-114554038D01*
X114399122Y-114554038D02*
X114018169Y-114630228D01*
X114665788Y-114363561D02*
X114856264Y-114896895D01*
X114856264Y-114896895D02*
X115046741Y-114363561D01*
X115922931Y-114668323D02*
X116303884Y-114668323D01*
X115846741Y-114896895D02*
X116113408Y-114096895D01*
X116113408Y-114096895D02*
X116380074Y-114896895D01*
X139586027Y-84000606D02*
X139505074Y-84648225D01*
X139505074Y-84648225D02*
X139457455Y-84724416D01*
X139457455Y-84724416D02*
X139414598Y-84762511D01*
X139414598Y-84762511D02*
X139333646Y-84800606D01*
X139333646Y-84800606D02*
X139219360Y-84800606D01*
X139219360Y-84800606D02*
X139147931Y-84762511D01*
X139524122Y-84495845D02*
X139443169Y-84533940D01*
X139443169Y-84533940D02*
X139290789Y-84533940D01*
X139290789Y-84533940D02*
X139219360Y-84495845D01*
X139219360Y-84495845D02*
X139186027Y-84457749D01*
X139186027Y-84457749D02*
X139157455Y-84381559D01*
X139157455Y-84381559D02*
X139186027Y-84152987D01*
X139186027Y-84152987D02*
X139233646Y-84076797D01*
X139233646Y-84076797D02*
X139276503Y-84038702D01*
X139276503Y-84038702D02*
X139357455Y-84000606D01*
X139357455Y-84000606D02*
X139509836Y-84000606D01*
X139509836Y-84000606D02*
X139581265Y-84038702D01*
X140014599Y-84533940D02*
X139943170Y-84495845D01*
X139943170Y-84495845D02*
X139909837Y-84457749D01*
X139909837Y-84457749D02*
X139881265Y-84381559D01*
X139881265Y-84381559D02*
X139909837Y-84152987D01*
X139909837Y-84152987D02*
X139957456Y-84076797D01*
X139957456Y-84076797D02*
X140000313Y-84038702D01*
X140000313Y-84038702D02*
X140081265Y-84000606D01*
X140081265Y-84000606D02*
X140195551Y-84000606D01*
X140195551Y-84000606D02*
X140266979Y-84038702D01*
X140266979Y-84038702D02*
X140300313Y-84076797D01*
X140300313Y-84076797D02*
X140328884Y-84152987D01*
X140328884Y-84152987D02*
X140300313Y-84381559D01*
X140300313Y-84381559D02*
X140252694Y-84457749D01*
X140252694Y-84457749D02*
X140209837Y-84495845D01*
X140209837Y-84495845D02*
X140128884Y-84533940D01*
X140128884Y-84533940D02*
X140014599Y-84533940D01*
X140738409Y-84533940D02*
X140666980Y-84495845D01*
X140666980Y-84495845D02*
X140633647Y-84457749D01*
X140633647Y-84457749D02*
X140605075Y-84381559D01*
X140605075Y-84381559D02*
X140633647Y-84152987D01*
X140633647Y-84152987D02*
X140681266Y-84076797D01*
X140681266Y-84076797D02*
X140724123Y-84038702D01*
X140724123Y-84038702D02*
X140805075Y-84000606D01*
X140805075Y-84000606D02*
X140919361Y-84000606D01*
X140919361Y-84000606D02*
X140990789Y-84038702D01*
X140990789Y-84038702D02*
X141024123Y-84076797D01*
X141024123Y-84076797D02*
X141052694Y-84152987D01*
X141052694Y-84152987D02*
X141024123Y-84381559D01*
X141024123Y-84381559D02*
X140976504Y-84457749D01*
X140976504Y-84457749D02*
X140933647Y-84495845D01*
X140933647Y-84495845D02*
X140852694Y-84533940D01*
X140852694Y-84533940D02*
X140738409Y-84533940D01*
X141690790Y-84533940D02*
X141790790Y-83733940D01*
X141695552Y-84495845D02*
X141614599Y-84533940D01*
X141614599Y-84533940D02*
X141462219Y-84533940D01*
X141462219Y-84533940D02*
X141390790Y-84495845D01*
X141390790Y-84495845D02*
X141357457Y-84457749D01*
X141357457Y-84457749D02*
X141328885Y-84381559D01*
X141328885Y-84381559D02*
X141357457Y-84152987D01*
X141357457Y-84152987D02*
X141405076Y-84076797D01*
X141405076Y-84076797D02*
X141447933Y-84038702D01*
X141447933Y-84038702D02*
X141528885Y-84000606D01*
X141528885Y-84000606D02*
X141681266Y-84000606D01*
X141681266Y-84000606D02*
X141752695Y-84038702D01*
X139290789Y-85821895D02*
X139219360Y-85783800D01*
X139219360Y-85783800D02*
X139190789Y-85707609D01*
X139190789Y-85707609D02*
X139276503Y-85021895D01*
X140005075Y-85288561D02*
X139938408Y-85821895D01*
X139662217Y-85288561D02*
X139609837Y-85707609D01*
X139609837Y-85707609D02*
X139638408Y-85783800D01*
X139638408Y-85783800D02*
X139709837Y-85821895D01*
X139709837Y-85821895D02*
X139824122Y-85821895D01*
X139824122Y-85821895D02*
X139905075Y-85783800D01*
X139905075Y-85783800D02*
X139947932Y-85745704D01*
X140666980Y-85783800D02*
X140586027Y-85821895D01*
X140586027Y-85821895D02*
X140433647Y-85821895D01*
X140433647Y-85821895D02*
X140362218Y-85783800D01*
X140362218Y-85783800D02*
X140328885Y-85745704D01*
X140328885Y-85745704D02*
X140300313Y-85669514D01*
X140300313Y-85669514D02*
X140328885Y-85440942D01*
X140328885Y-85440942D02*
X140376504Y-85364752D01*
X140376504Y-85364752D02*
X140419361Y-85326657D01*
X140419361Y-85326657D02*
X140500313Y-85288561D01*
X140500313Y-85288561D02*
X140652694Y-85288561D01*
X140652694Y-85288561D02*
X140724123Y-85326657D01*
X141005075Y-85821895D02*
X141105075Y-85021895D01*
X141119361Y-85517133D02*
X141309837Y-85821895D01*
X141376503Y-85288561D02*
X141033646Y-85593323D01*
D11*
X123285714Y-90182891D02*
X123019047Y-89801938D01*
X122828571Y-90182891D02*
X122828571Y-89382891D01*
X122828571Y-89382891D02*
X123133333Y-89382891D01*
X123133333Y-89382891D02*
X123209523Y-89420986D01*
X123209523Y-89420986D02*
X123247618Y-89459081D01*
X123247618Y-89459081D02*
X123285714Y-89535272D01*
X123285714Y-89535272D02*
X123285714Y-89649557D01*
X123285714Y-89649557D02*
X123247618Y-89725748D01*
X123247618Y-89725748D02*
X123209523Y-89763843D01*
X123209523Y-89763843D02*
X123133333Y-89801938D01*
X123133333Y-89801938D02*
X122828571Y-89801938D01*
X123552380Y-89382891D02*
X124047618Y-89382891D01*
X124047618Y-89382891D02*
X123780952Y-89687653D01*
X123780952Y-89687653D02*
X123895237Y-89687653D01*
X123895237Y-89687653D02*
X123971428Y-89725748D01*
X123971428Y-89725748D02*
X124009523Y-89763843D01*
X124009523Y-89763843D02*
X124047618Y-89840034D01*
X124047618Y-89840034D02*
X124047618Y-90030510D01*
X124047618Y-90030510D02*
X124009523Y-90106700D01*
X124009523Y-90106700D02*
X123971428Y-90144796D01*
X123971428Y-90144796D02*
X123895237Y-90182891D01*
X123895237Y-90182891D02*
X123666666Y-90182891D01*
X123666666Y-90182891D02*
X123590475Y-90144796D01*
X123590475Y-90144796D02*
X123552380Y-90106700D01*
X124809523Y-90182891D02*
X124352380Y-90182891D01*
X124580952Y-90182891D02*
X124580952Y-89382891D01*
X124580952Y-89382891D02*
X124504761Y-89497176D01*
X124504761Y-89497176D02*
X124428571Y-89573367D01*
X124428571Y-89573367D02*
X124352380Y-89611462D01*
X123285714Y-78168811D02*
X123019047Y-77787858D01*
X122828571Y-78168811D02*
X122828571Y-77368811D01*
X122828571Y-77368811D02*
X123133333Y-77368811D01*
X123133333Y-77368811D02*
X123209523Y-77406906D01*
X123209523Y-77406906D02*
X123247618Y-77445001D01*
X123247618Y-77445001D02*
X123285714Y-77521192D01*
X123285714Y-77521192D02*
X123285714Y-77635477D01*
X123285714Y-77635477D02*
X123247618Y-77711668D01*
X123247618Y-77711668D02*
X123209523Y-77749763D01*
X123209523Y-77749763D02*
X123133333Y-77787858D01*
X123133333Y-77787858D02*
X122828571Y-77787858D01*
X123552380Y-77368811D02*
X124047618Y-77368811D01*
X124047618Y-77368811D02*
X123780952Y-77673573D01*
X123780952Y-77673573D02*
X123895237Y-77673573D01*
X123895237Y-77673573D02*
X123971428Y-77711668D01*
X123971428Y-77711668D02*
X124009523Y-77749763D01*
X124009523Y-77749763D02*
X124047618Y-77825954D01*
X124047618Y-77825954D02*
X124047618Y-78016430D01*
X124047618Y-78016430D02*
X124009523Y-78092620D01*
X124009523Y-78092620D02*
X123971428Y-78130716D01*
X123971428Y-78130716D02*
X123895237Y-78168811D01*
X123895237Y-78168811D02*
X123666666Y-78168811D01*
X123666666Y-78168811D02*
X123590475Y-78130716D01*
X123590475Y-78130716D02*
X123552380Y-78092620D01*
X124352380Y-77445001D02*
X124390476Y-77406906D01*
X124390476Y-77406906D02*
X124466666Y-77368811D01*
X124466666Y-77368811D02*
X124657142Y-77368811D01*
X124657142Y-77368811D02*
X124733333Y-77406906D01*
X124733333Y-77406906D02*
X124771428Y-77445001D01*
X124771428Y-77445001D02*
X124809523Y-77521192D01*
X124809523Y-77521192D02*
X124809523Y-77597382D01*
X124809523Y-77597382D02*
X124771428Y-77711668D01*
X124771428Y-77711668D02*
X124314285Y-78168811D01*
X124314285Y-78168811D02*
X124809523Y-78168811D01*
X123285714Y-82114811D02*
X123019047Y-81733858D01*
X122828571Y-82114811D02*
X122828571Y-81314811D01*
X122828571Y-81314811D02*
X123133333Y-81314811D01*
X123133333Y-81314811D02*
X123209523Y-81352906D01*
X123209523Y-81352906D02*
X123247618Y-81391001D01*
X123247618Y-81391001D02*
X123285714Y-81467192D01*
X123285714Y-81467192D02*
X123285714Y-81581477D01*
X123285714Y-81581477D02*
X123247618Y-81657668D01*
X123247618Y-81657668D02*
X123209523Y-81695763D01*
X123209523Y-81695763D02*
X123133333Y-81733858D01*
X123133333Y-81733858D02*
X122828571Y-81733858D01*
X123552380Y-81314811D02*
X124047618Y-81314811D01*
X124047618Y-81314811D02*
X123780952Y-81619573D01*
X123780952Y-81619573D02*
X123895237Y-81619573D01*
X123895237Y-81619573D02*
X123971428Y-81657668D01*
X123971428Y-81657668D02*
X124009523Y-81695763D01*
X124009523Y-81695763D02*
X124047618Y-81771954D01*
X124047618Y-81771954D02*
X124047618Y-81962430D01*
X124047618Y-81962430D02*
X124009523Y-82038620D01*
X124009523Y-82038620D02*
X123971428Y-82076716D01*
X123971428Y-82076716D02*
X123895237Y-82114811D01*
X123895237Y-82114811D02*
X123666666Y-82114811D01*
X123666666Y-82114811D02*
X123590475Y-82076716D01*
X123590475Y-82076716D02*
X123552380Y-82038620D01*
X124314285Y-81314811D02*
X124809523Y-81314811D01*
X124809523Y-81314811D02*
X124542857Y-81619573D01*
X124542857Y-81619573D02*
X124657142Y-81619573D01*
X124657142Y-81619573D02*
X124733333Y-81657668D01*
X124733333Y-81657668D02*
X124771428Y-81695763D01*
X124771428Y-81695763D02*
X124809523Y-81771954D01*
X124809523Y-81771954D02*
X124809523Y-81962430D01*
X124809523Y-81962430D02*
X124771428Y-82038620D01*
X124771428Y-82038620D02*
X124733333Y-82076716D01*
X124733333Y-82076716D02*
X124657142Y-82114811D01*
X124657142Y-82114811D02*
X124428571Y-82114811D01*
X124428571Y-82114811D02*
X124352380Y-82076716D01*
X124352380Y-82076716D02*
X124314285Y-82038620D01*
X123285714Y-86198811D02*
X123019047Y-85817858D01*
X122828571Y-86198811D02*
X122828571Y-85398811D01*
X122828571Y-85398811D02*
X123133333Y-85398811D01*
X123133333Y-85398811D02*
X123209523Y-85436906D01*
X123209523Y-85436906D02*
X123247618Y-85475001D01*
X123247618Y-85475001D02*
X123285714Y-85551192D01*
X123285714Y-85551192D02*
X123285714Y-85665477D01*
X123285714Y-85665477D02*
X123247618Y-85741668D01*
X123247618Y-85741668D02*
X123209523Y-85779763D01*
X123209523Y-85779763D02*
X123133333Y-85817858D01*
X123133333Y-85817858D02*
X122828571Y-85817858D01*
X123590475Y-85475001D02*
X123628571Y-85436906D01*
X123628571Y-85436906D02*
X123704761Y-85398811D01*
X123704761Y-85398811D02*
X123895237Y-85398811D01*
X123895237Y-85398811D02*
X123971428Y-85436906D01*
X123971428Y-85436906D02*
X124009523Y-85475001D01*
X124009523Y-85475001D02*
X124047618Y-85551192D01*
X124047618Y-85551192D02*
X124047618Y-85627382D01*
X124047618Y-85627382D02*
X124009523Y-85741668D01*
X124009523Y-85741668D02*
X123552380Y-86198811D01*
X123552380Y-86198811D02*
X124047618Y-86198811D01*
X124314285Y-85398811D02*
X124809523Y-85398811D01*
X124809523Y-85398811D02*
X124542857Y-85703573D01*
X124542857Y-85703573D02*
X124657142Y-85703573D01*
X124657142Y-85703573D02*
X124733333Y-85741668D01*
X124733333Y-85741668D02*
X124771428Y-85779763D01*
X124771428Y-85779763D02*
X124809523Y-85855954D01*
X124809523Y-85855954D02*
X124809523Y-86046430D01*
X124809523Y-86046430D02*
X124771428Y-86122620D01*
X124771428Y-86122620D02*
X124733333Y-86160716D01*
X124733333Y-86160716D02*
X124657142Y-86198811D01*
X124657142Y-86198811D02*
X124428571Y-86198811D01*
X124428571Y-86198811D02*
X124352380Y-86160716D01*
X124352380Y-86160716D02*
X124314285Y-86122620D01*
D12*
X162954819Y-77708109D02*
X161954819Y-77708109D01*
X162859580Y-76660491D02*
X162907200Y-76708110D01*
X162907200Y-76708110D02*
X162954819Y-76850967D01*
X162954819Y-76850967D02*
X162954819Y-76946205D01*
X162954819Y-76946205D02*
X162907200Y-77089062D01*
X162907200Y-77089062D02*
X162811961Y-77184300D01*
X162811961Y-77184300D02*
X162716723Y-77231919D01*
X162716723Y-77231919D02*
X162526247Y-77279538D01*
X162526247Y-77279538D02*
X162383390Y-77279538D01*
X162383390Y-77279538D02*
X162192914Y-77231919D01*
X162192914Y-77231919D02*
X162097676Y-77184300D01*
X162097676Y-77184300D02*
X162002438Y-77089062D01*
X162002438Y-77089062D02*
X161954819Y-76946205D01*
X161954819Y-76946205D02*
X161954819Y-76850967D01*
X161954819Y-76850967D02*
X162002438Y-76708110D01*
X162002438Y-76708110D02*
X162050057Y-76660491D01*
X162050057Y-76279538D02*
X162002438Y-76231919D01*
X162002438Y-76231919D02*
X161954819Y-76136681D01*
X161954819Y-76136681D02*
X161954819Y-75898586D01*
X161954819Y-75898586D02*
X162002438Y-75803348D01*
X162002438Y-75803348D02*
X162050057Y-75755729D01*
X162050057Y-75755729D02*
X162145295Y-75708110D01*
X162145295Y-75708110D02*
X162240533Y-75708110D01*
X162240533Y-75708110D02*
X162383390Y-75755729D01*
X162383390Y-75755729D02*
X162954819Y-76327157D01*
X162954819Y-76327157D02*
X162954819Y-75708110D01*
X165358714Y-86146104D02*
X165320618Y-86184200D01*
X165320618Y-86184200D02*
X165206333Y-86222295D01*
X165206333Y-86222295D02*
X165130142Y-86222295D01*
X165130142Y-86222295D02*
X165015856Y-86184200D01*
X165015856Y-86184200D02*
X164939666Y-86108009D01*
X164939666Y-86108009D02*
X164901571Y-86031819D01*
X164901571Y-86031819D02*
X164863475Y-85879438D01*
X164863475Y-85879438D02*
X164863475Y-85765152D01*
X164863475Y-85765152D02*
X164901571Y-85612771D01*
X164901571Y-85612771D02*
X164939666Y-85536580D01*
X164939666Y-85536580D02*
X165015856Y-85460390D01*
X165015856Y-85460390D02*
X165130142Y-85422295D01*
X165130142Y-85422295D02*
X165206333Y-85422295D01*
X165206333Y-85422295D02*
X165320618Y-85460390D01*
X165320618Y-85460390D02*
X165358714Y-85498485D01*
X166120618Y-86222295D02*
X165663475Y-86222295D01*
X165892047Y-86222295D02*
X165892047Y-85422295D01*
X165892047Y-85422295D02*
X165815856Y-85536580D01*
X165815856Y-85536580D02*
X165739666Y-85612771D01*
X165739666Y-85612771D02*
X165663475Y-85650866D01*
X166577761Y-85765152D02*
X166501571Y-85727057D01*
X166501571Y-85727057D02*
X166463476Y-85688961D01*
X166463476Y-85688961D02*
X166425380Y-85612771D01*
X166425380Y-85612771D02*
X166425380Y-85574676D01*
X166425380Y-85574676D02*
X166463476Y-85498485D01*
X166463476Y-85498485D02*
X166501571Y-85460390D01*
X166501571Y-85460390D02*
X166577761Y-85422295D01*
X166577761Y-85422295D02*
X166730142Y-85422295D01*
X166730142Y-85422295D02*
X166806333Y-85460390D01*
X166806333Y-85460390D02*
X166844428Y-85498485D01*
X166844428Y-85498485D02*
X166882523Y-85574676D01*
X166882523Y-85574676D02*
X166882523Y-85612771D01*
X166882523Y-85612771D02*
X166844428Y-85688961D01*
X166844428Y-85688961D02*
X166806333Y-85727057D01*
X166806333Y-85727057D02*
X166730142Y-85765152D01*
X166730142Y-85765152D02*
X166577761Y-85765152D01*
X166577761Y-85765152D02*
X166501571Y-85803247D01*
X166501571Y-85803247D02*
X166463476Y-85841342D01*
X166463476Y-85841342D02*
X166425380Y-85917533D01*
X166425380Y-85917533D02*
X166425380Y-86069914D01*
X166425380Y-86069914D02*
X166463476Y-86146104D01*
X166463476Y-86146104D02*
X166501571Y-86184200D01*
X166501571Y-86184200D02*
X166577761Y-86222295D01*
X166577761Y-86222295D02*
X166730142Y-86222295D01*
X166730142Y-86222295D02*
X166806333Y-86184200D01*
X166806333Y-86184200D02*
X166844428Y-86146104D01*
X166844428Y-86146104D02*
X166882523Y-86069914D01*
X166882523Y-86069914D02*
X166882523Y-85917533D01*
X166882523Y-85917533D02*
X166844428Y-85841342D01*
X166844428Y-85841342D02*
X166806333Y-85803247D01*
X166806333Y-85803247D02*
X166730142Y-85765152D01*
X147988095Y-75486739D02*
X147988095Y-76296262D01*
X147988095Y-76296262D02*
X148035714Y-76391500D01*
X148035714Y-76391500D02*
X148083333Y-76439120D01*
X148083333Y-76439120D02*
X148178571Y-76486739D01*
X148178571Y-76486739D02*
X148369047Y-76486739D01*
X148369047Y-76486739D02*
X148464285Y-76439120D01*
X148464285Y-76439120D02*
X148511904Y-76391500D01*
X148511904Y-76391500D02*
X148559523Y-76296262D01*
X148559523Y-76296262D02*
X148559523Y-75486739D01*
X149559523Y-76486739D02*
X148988095Y-76486739D01*
X149273809Y-76486739D02*
X149273809Y-75486739D01*
X149273809Y-75486739D02*
X149178571Y-75629596D01*
X149178571Y-75629596D02*
X149083333Y-75724834D01*
X149083333Y-75724834D02*
X148988095Y-75772453D01*
X149338095Y-105154819D02*
X149909523Y-105154819D01*
X149623809Y-106154819D02*
X149623809Y-105154819D01*
X150242857Y-106154819D02*
X150242857Y-105154819D01*
X150242857Y-105154819D02*
X150623809Y-105154819D01*
X150623809Y-105154819D02*
X150719047Y-105202438D01*
X150719047Y-105202438D02*
X150766666Y-105250057D01*
X150766666Y-105250057D02*
X150814285Y-105345295D01*
X150814285Y-105345295D02*
X150814285Y-105488152D01*
X150814285Y-105488152D02*
X150766666Y-105583390D01*
X150766666Y-105583390D02*
X150719047Y-105631009D01*
X150719047Y-105631009D02*
X150623809Y-105678628D01*
X150623809Y-105678628D02*
X150242857Y-105678628D01*
X151195238Y-105250057D02*
X151242857Y-105202438D01*
X151242857Y-105202438D02*
X151338095Y-105154819D01*
X151338095Y-105154819D02*
X151576190Y-105154819D01*
X151576190Y-105154819D02*
X151671428Y-105202438D01*
X151671428Y-105202438D02*
X151719047Y-105250057D01*
X151719047Y-105250057D02*
X151766666Y-105345295D01*
X151766666Y-105345295D02*
X151766666Y-105440533D01*
X151766666Y-105440533D02*
X151719047Y-105583390D01*
X151719047Y-105583390D02*
X151147619Y-106154819D01*
X151147619Y-106154819D02*
X151766666Y-106154819D01*
X155985714Y-95944215D02*
X155719047Y-95563262D01*
X155528571Y-95944215D02*
X155528571Y-95144215D01*
X155528571Y-95144215D02*
X155833333Y-95144215D01*
X155833333Y-95144215D02*
X155909523Y-95182310D01*
X155909523Y-95182310D02*
X155947618Y-95220405D01*
X155947618Y-95220405D02*
X155985714Y-95296596D01*
X155985714Y-95296596D02*
X155985714Y-95410881D01*
X155985714Y-95410881D02*
X155947618Y-95487072D01*
X155947618Y-95487072D02*
X155909523Y-95525167D01*
X155909523Y-95525167D02*
X155833333Y-95563262D01*
X155833333Y-95563262D02*
X155528571Y-95563262D01*
X156747618Y-95944215D02*
X156290475Y-95944215D01*
X156519047Y-95944215D02*
X156519047Y-95144215D01*
X156519047Y-95144215D02*
X156442856Y-95258500D01*
X156442856Y-95258500D02*
X156366666Y-95334691D01*
X156366666Y-95334691D02*
X156290475Y-95372786D01*
X157471428Y-95144215D02*
X157090476Y-95144215D01*
X157090476Y-95144215D02*
X157052380Y-95525167D01*
X157052380Y-95525167D02*
X157090476Y-95487072D01*
X157090476Y-95487072D02*
X157166666Y-95448977D01*
X157166666Y-95448977D02*
X157357142Y-95448977D01*
X157357142Y-95448977D02*
X157433333Y-95487072D01*
X157433333Y-95487072D02*
X157471428Y-95525167D01*
X157471428Y-95525167D02*
X157509523Y-95601358D01*
X157509523Y-95601358D02*
X157509523Y-95791834D01*
X157509523Y-95791834D02*
X157471428Y-95868024D01*
X157471428Y-95868024D02*
X157433333Y-95906120D01*
X157433333Y-95906120D02*
X157357142Y-95944215D01*
X157357142Y-95944215D02*
X157166666Y-95944215D01*
X157166666Y-95944215D02*
X157090476Y-95906120D01*
X157090476Y-95906120D02*
X157052380Y-95868024D01*
X166557714Y-115695795D02*
X166291047Y-115314842D01*
X166100571Y-115695795D02*
X166100571Y-114895795D01*
X166100571Y-114895795D02*
X166405333Y-114895795D01*
X166405333Y-114895795D02*
X166481523Y-114933890D01*
X166481523Y-114933890D02*
X166519618Y-114971985D01*
X166519618Y-114971985D02*
X166557714Y-115048176D01*
X166557714Y-115048176D02*
X166557714Y-115162461D01*
X166557714Y-115162461D02*
X166519618Y-115238652D01*
X166519618Y-115238652D02*
X166481523Y-115276747D01*
X166481523Y-115276747D02*
X166405333Y-115314842D01*
X166405333Y-115314842D02*
X166100571Y-115314842D01*
X167319618Y-115695795D02*
X166862475Y-115695795D01*
X167091047Y-115695795D02*
X167091047Y-114895795D01*
X167091047Y-114895795D02*
X167014856Y-115010080D01*
X167014856Y-115010080D02*
X166938666Y-115086271D01*
X166938666Y-115086271D02*
X166862475Y-115124366D01*
X167586285Y-114895795D02*
X168081523Y-114895795D01*
X168081523Y-114895795D02*
X167814857Y-115200557D01*
X167814857Y-115200557D02*
X167929142Y-115200557D01*
X167929142Y-115200557D02*
X168005333Y-115238652D01*
X168005333Y-115238652D02*
X168043428Y-115276747D01*
X168043428Y-115276747D02*
X168081523Y-115352938D01*
X168081523Y-115352938D02*
X168081523Y-115543414D01*
X168081523Y-115543414D02*
X168043428Y-115619604D01*
X168043428Y-115619604D02*
X168005333Y-115657700D01*
X168005333Y-115657700D02*
X167929142Y-115695795D01*
X167929142Y-115695795D02*
X167700571Y-115695795D01*
X167700571Y-115695795D02*
X167624380Y-115657700D01*
X167624380Y-115657700D02*
X167586285Y-115619604D01*
X146936104Y-93265252D02*
X146974200Y-93303348D01*
X146974200Y-93303348D02*
X147012295Y-93417633D01*
X147012295Y-93417633D02*
X147012295Y-93493824D01*
X147012295Y-93493824D02*
X146974200Y-93608110D01*
X146974200Y-93608110D02*
X146898009Y-93684300D01*
X146898009Y-93684300D02*
X146821819Y-93722395D01*
X146821819Y-93722395D02*
X146669438Y-93760491D01*
X146669438Y-93760491D02*
X146555152Y-93760491D01*
X146555152Y-93760491D02*
X146402771Y-93722395D01*
X146402771Y-93722395D02*
X146326580Y-93684300D01*
X146326580Y-93684300D02*
X146250390Y-93608110D01*
X146250390Y-93608110D02*
X146212295Y-93493824D01*
X146212295Y-93493824D02*
X146212295Y-93417633D01*
X146212295Y-93417633D02*
X146250390Y-93303348D01*
X146250390Y-93303348D02*
X146288485Y-93265252D01*
X146212295Y-92998586D02*
X146212295Y-92465252D01*
X146212295Y-92465252D02*
X147012295Y-92808110D01*
X167692261Y-97981977D02*
X167597023Y-97934358D01*
X167597023Y-97934358D02*
X167501785Y-97839120D01*
X167501785Y-97839120D02*
X167358928Y-97696262D01*
X167358928Y-97696262D02*
X167263690Y-97648643D01*
X167263690Y-97648643D02*
X167168452Y-97648643D01*
X167216071Y-97886739D02*
X167120833Y-97839120D01*
X167120833Y-97839120D02*
X167025595Y-97743881D01*
X167025595Y-97743881D02*
X166977976Y-97553405D01*
X166977976Y-97553405D02*
X166977976Y-97220072D01*
X166977976Y-97220072D02*
X167025595Y-97029596D01*
X167025595Y-97029596D02*
X167120833Y-96934358D01*
X167120833Y-96934358D02*
X167216071Y-96886739D01*
X167216071Y-96886739D02*
X167406547Y-96886739D01*
X167406547Y-96886739D02*
X167501785Y-96934358D01*
X167501785Y-96934358D02*
X167597023Y-97029596D01*
X167597023Y-97029596D02*
X167644642Y-97220072D01*
X167644642Y-97220072D02*
X167644642Y-97553405D01*
X167644642Y-97553405D02*
X167597023Y-97743881D01*
X167597023Y-97743881D02*
X167501785Y-97839120D01*
X167501785Y-97839120D02*
X167406547Y-97886739D01*
X167406547Y-97886739D02*
X167216071Y-97886739D01*
X168597023Y-97886739D02*
X168025595Y-97886739D01*
X168311309Y-97886739D02*
X168311309Y-96886739D01*
X168311309Y-96886739D02*
X168216071Y-97029596D01*
X168216071Y-97029596D02*
X168120833Y-97124834D01*
X168120833Y-97124834D02*
X168025595Y-97172453D01*
X155229819Y-84011904D02*
X156039342Y-84011904D01*
X156039342Y-84011904D02*
X156134580Y-83964285D01*
X156134580Y-83964285D02*
X156182200Y-83916666D01*
X156182200Y-83916666D02*
X156229819Y-83821428D01*
X156229819Y-83821428D02*
X156229819Y-83630952D01*
X156229819Y-83630952D02*
X156182200Y-83535714D01*
X156182200Y-83535714D02*
X156134580Y-83488095D01*
X156134580Y-83488095D02*
X156039342Y-83440476D01*
X156039342Y-83440476D02*
X155229819Y-83440476D01*
X155229819Y-82535714D02*
X155229819Y-82726190D01*
X155229819Y-82726190D02*
X155277438Y-82821428D01*
X155277438Y-82821428D02*
X155325057Y-82869047D01*
X155325057Y-82869047D02*
X155467914Y-82964285D01*
X155467914Y-82964285D02*
X155658390Y-83011904D01*
X155658390Y-83011904D02*
X156039342Y-83011904D01*
X156039342Y-83011904D02*
X156134580Y-82964285D01*
X156134580Y-82964285D02*
X156182200Y-82916666D01*
X156182200Y-82916666D02*
X156229819Y-82821428D01*
X156229819Y-82821428D02*
X156229819Y-82630952D01*
X156229819Y-82630952D02*
X156182200Y-82535714D01*
X156182200Y-82535714D02*
X156134580Y-82488095D01*
X156134580Y-82488095D02*
X156039342Y-82440476D01*
X156039342Y-82440476D02*
X155801247Y-82440476D01*
X155801247Y-82440476D02*
X155706009Y-82488095D01*
X155706009Y-82488095D02*
X155658390Y-82535714D01*
X155658390Y-82535714D02*
X155610771Y-82630952D01*
X155610771Y-82630952D02*
X155610771Y-82821428D01*
X155610771Y-82821428D02*
X155658390Y-82916666D01*
X155658390Y-82916666D02*
X155706009Y-82964285D01*
X155706009Y-82964285D02*
X155801247Y-83011904D01*
X156089795Y-100989895D02*
X155289795Y-100989895D01*
X155289795Y-100989895D02*
X155289795Y-100799419D01*
X155289795Y-100799419D02*
X155327890Y-100685133D01*
X155327890Y-100685133D02*
X155404080Y-100608943D01*
X155404080Y-100608943D02*
X155480271Y-100570848D01*
X155480271Y-100570848D02*
X155632652Y-100532752D01*
X155632652Y-100532752D02*
X155746938Y-100532752D01*
X155746938Y-100532752D02*
X155899319Y-100570848D01*
X155899319Y-100570848D02*
X155975509Y-100608943D01*
X155975509Y-100608943D02*
X156051700Y-100685133D01*
X156051700Y-100685133D02*
X156089795Y-100799419D01*
X156089795Y-100799419D02*
X156089795Y-100989895D01*
X156089795Y-99770848D02*
X156089795Y-100227991D01*
X156089795Y-99999419D02*
X155289795Y-99999419D01*
X155289795Y-99999419D02*
X155404080Y-100075610D01*
X155404080Y-100075610D02*
X155480271Y-100151800D01*
X155480271Y-100151800D02*
X155518366Y-100227991D01*
X156934747Y-114979200D02*
X157077604Y-115026819D01*
X157077604Y-115026819D02*
X157315699Y-115026819D01*
X157315699Y-115026819D02*
X157410937Y-114979200D01*
X157410937Y-114979200D02*
X157458556Y-114931580D01*
X157458556Y-114931580D02*
X157506175Y-114836342D01*
X157506175Y-114836342D02*
X157506175Y-114741104D01*
X157506175Y-114741104D02*
X157458556Y-114645866D01*
X157458556Y-114645866D02*
X157410937Y-114598247D01*
X157410937Y-114598247D02*
X157315699Y-114550628D01*
X157315699Y-114550628D02*
X157125223Y-114503009D01*
X157125223Y-114503009D02*
X157029985Y-114455390D01*
X157029985Y-114455390D02*
X156982366Y-114407771D01*
X156982366Y-114407771D02*
X156934747Y-114312533D01*
X156934747Y-114312533D02*
X156934747Y-114217295D01*
X156934747Y-114217295D02*
X156982366Y-114122057D01*
X156982366Y-114122057D02*
X157029985Y-114074438D01*
X157029985Y-114074438D02*
X157125223Y-114026819D01*
X157125223Y-114026819D02*
X157363318Y-114026819D01*
X157363318Y-114026819D02*
X157506175Y-114074438D01*
X157839509Y-114026819D02*
X158077604Y-115026819D01*
X158077604Y-115026819D02*
X158268080Y-114312533D01*
X158268080Y-114312533D02*
X158458556Y-115026819D01*
X158458556Y-115026819D02*
X158696652Y-114026819D01*
X159601413Y-115026819D02*
X159029985Y-115026819D01*
X159315699Y-115026819D02*
X159315699Y-114026819D01*
X159315699Y-114026819D02*
X159220461Y-114169676D01*
X159220461Y-114169676D02*
X159125223Y-114264914D01*
X159125223Y-114264914D02*
X159029985Y-114312533D01*
X154583214Y-82114215D02*
X154316547Y-81733262D01*
X154126071Y-82114215D02*
X154126071Y-81314215D01*
X154126071Y-81314215D02*
X154430833Y-81314215D01*
X154430833Y-81314215D02*
X154507023Y-81352310D01*
X154507023Y-81352310D02*
X154545118Y-81390405D01*
X154545118Y-81390405D02*
X154583214Y-81466596D01*
X154583214Y-81466596D02*
X154583214Y-81580881D01*
X154583214Y-81580881D02*
X154545118Y-81657072D01*
X154545118Y-81657072D02*
X154507023Y-81695167D01*
X154507023Y-81695167D02*
X154430833Y-81733262D01*
X154430833Y-81733262D02*
X154126071Y-81733262D01*
X154887975Y-81390405D02*
X154926071Y-81352310D01*
X154926071Y-81352310D02*
X155002261Y-81314215D01*
X155002261Y-81314215D02*
X155192737Y-81314215D01*
X155192737Y-81314215D02*
X155268928Y-81352310D01*
X155268928Y-81352310D02*
X155307023Y-81390405D01*
X155307023Y-81390405D02*
X155345118Y-81466596D01*
X155345118Y-81466596D02*
X155345118Y-81542786D01*
X155345118Y-81542786D02*
X155307023Y-81657072D01*
X155307023Y-81657072D02*
X154849880Y-82114215D01*
X154849880Y-82114215D02*
X155345118Y-82114215D01*
X155611785Y-81314215D02*
X156145119Y-81314215D01*
X156145119Y-81314215D02*
X155802261Y-82114215D01*
X142966667Y-74986104D02*
X142928571Y-75024200D01*
X142928571Y-75024200D02*
X142814286Y-75062295D01*
X142814286Y-75062295D02*
X142738095Y-75062295D01*
X142738095Y-75062295D02*
X142623809Y-75024200D01*
X142623809Y-75024200D02*
X142547619Y-74948009D01*
X142547619Y-74948009D02*
X142509524Y-74871819D01*
X142509524Y-74871819D02*
X142471428Y-74719438D01*
X142471428Y-74719438D02*
X142471428Y-74605152D01*
X142471428Y-74605152D02*
X142509524Y-74452771D01*
X142509524Y-74452771D02*
X142547619Y-74376580D01*
X142547619Y-74376580D02*
X142623809Y-74300390D01*
X142623809Y-74300390D02*
X142738095Y-74262295D01*
X142738095Y-74262295D02*
X142814286Y-74262295D01*
X142814286Y-74262295D02*
X142928571Y-74300390D01*
X142928571Y-74300390D02*
X142966667Y-74338485D01*
X143423809Y-74605152D02*
X143347619Y-74567057D01*
X143347619Y-74567057D02*
X143309524Y-74528961D01*
X143309524Y-74528961D02*
X143271428Y-74452771D01*
X143271428Y-74452771D02*
X143271428Y-74414676D01*
X143271428Y-74414676D02*
X143309524Y-74338485D01*
X143309524Y-74338485D02*
X143347619Y-74300390D01*
X143347619Y-74300390D02*
X143423809Y-74262295D01*
X143423809Y-74262295D02*
X143576190Y-74262295D01*
X143576190Y-74262295D02*
X143652381Y-74300390D01*
X143652381Y-74300390D02*
X143690476Y-74338485D01*
X143690476Y-74338485D02*
X143728571Y-74414676D01*
X143728571Y-74414676D02*
X143728571Y-74452771D01*
X143728571Y-74452771D02*
X143690476Y-74528961D01*
X143690476Y-74528961D02*
X143652381Y-74567057D01*
X143652381Y-74567057D02*
X143576190Y-74605152D01*
X143576190Y-74605152D02*
X143423809Y-74605152D01*
X143423809Y-74605152D02*
X143347619Y-74643247D01*
X143347619Y-74643247D02*
X143309524Y-74681342D01*
X143309524Y-74681342D02*
X143271428Y-74757533D01*
X143271428Y-74757533D02*
X143271428Y-74909914D01*
X143271428Y-74909914D02*
X143309524Y-74986104D01*
X143309524Y-74986104D02*
X143347619Y-75024200D01*
X143347619Y-75024200D02*
X143423809Y-75062295D01*
X143423809Y-75062295D02*
X143576190Y-75062295D01*
X143576190Y-75062295D02*
X143652381Y-75024200D01*
X143652381Y-75024200D02*
X143690476Y-74986104D01*
X143690476Y-74986104D02*
X143728571Y-74909914D01*
X143728571Y-74909914D02*
X143728571Y-74757533D01*
X143728571Y-74757533D02*
X143690476Y-74681342D01*
X143690476Y-74681342D02*
X143652381Y-74643247D01*
X143652381Y-74643247D02*
X143576190Y-74605152D01*
X161880336Y-94096205D02*
X161918432Y-94134301D01*
X161918432Y-94134301D02*
X161956527Y-94248586D01*
X161956527Y-94248586D02*
X161956527Y-94324777D01*
X161956527Y-94324777D02*
X161918432Y-94439063D01*
X161918432Y-94439063D02*
X161842241Y-94515253D01*
X161842241Y-94515253D02*
X161766051Y-94553348D01*
X161766051Y-94553348D02*
X161613670Y-94591444D01*
X161613670Y-94591444D02*
X161499384Y-94591444D01*
X161499384Y-94591444D02*
X161347003Y-94553348D01*
X161347003Y-94553348D02*
X161270812Y-94515253D01*
X161270812Y-94515253D02*
X161194622Y-94439063D01*
X161194622Y-94439063D02*
X161156527Y-94324777D01*
X161156527Y-94324777D02*
X161156527Y-94248586D01*
X161156527Y-94248586D02*
X161194622Y-94134301D01*
X161194622Y-94134301D02*
X161232717Y-94096205D01*
X161956527Y-93334301D02*
X161956527Y-93791444D01*
X161956527Y-93562872D02*
X161156527Y-93562872D01*
X161156527Y-93562872D02*
X161270812Y-93639063D01*
X161270812Y-93639063D02*
X161347003Y-93715253D01*
X161347003Y-93715253D02*
X161385098Y-93791444D01*
X161156527Y-92648586D02*
X161156527Y-92800967D01*
X161156527Y-92800967D02*
X161194622Y-92877158D01*
X161194622Y-92877158D02*
X161232717Y-92915253D01*
X161232717Y-92915253D02*
X161347003Y-92991443D01*
X161347003Y-92991443D02*
X161499384Y-93029539D01*
X161499384Y-93029539D02*
X161804146Y-93029539D01*
X161804146Y-93029539D02*
X161880336Y-92991443D01*
X161880336Y-92991443D02*
X161918432Y-92953348D01*
X161918432Y-92953348D02*
X161956527Y-92877158D01*
X161956527Y-92877158D02*
X161956527Y-92724777D01*
X161956527Y-92724777D02*
X161918432Y-92648586D01*
X161918432Y-92648586D02*
X161880336Y-92610491D01*
X161880336Y-92610491D02*
X161804146Y-92572396D01*
X161804146Y-92572396D02*
X161613670Y-92572396D01*
X161613670Y-92572396D02*
X161537479Y-92610491D01*
X161537479Y-92610491D02*
X161499384Y-92648586D01*
X161499384Y-92648586D02*
X161461289Y-92724777D01*
X161461289Y-92724777D02*
X161461289Y-92877158D01*
X161461289Y-92877158D02*
X161499384Y-92953348D01*
X161499384Y-92953348D02*
X161537479Y-92991443D01*
X161537479Y-92991443D02*
X161613670Y-93029539D01*
X157680952Y-72154819D02*
X158252380Y-72154819D01*
X157966666Y-73154819D02*
X157966666Y-72154819D01*
X158585714Y-73154819D02*
X158585714Y-72154819D01*
X158585714Y-72154819D02*
X158966666Y-72154819D01*
X158966666Y-72154819D02*
X159061904Y-72202438D01*
X159061904Y-72202438D02*
X159109523Y-72250057D01*
X159109523Y-72250057D02*
X159157142Y-72345295D01*
X159157142Y-72345295D02*
X159157142Y-72488152D01*
X159157142Y-72488152D02*
X159109523Y-72583390D01*
X159109523Y-72583390D02*
X159061904Y-72631009D01*
X159061904Y-72631009D02*
X158966666Y-72678628D01*
X158966666Y-72678628D02*
X158585714Y-72678628D01*
X160061904Y-72154819D02*
X159585714Y-72154819D01*
X159585714Y-72154819D02*
X159538095Y-72631009D01*
X159538095Y-72631009D02*
X159585714Y-72583390D01*
X159585714Y-72583390D02*
X159680952Y-72535771D01*
X159680952Y-72535771D02*
X159919047Y-72535771D01*
X159919047Y-72535771D02*
X160014285Y-72583390D01*
X160014285Y-72583390D02*
X160061904Y-72631009D01*
X160061904Y-72631009D02*
X160109523Y-72726247D01*
X160109523Y-72726247D02*
X160109523Y-72964342D01*
X160109523Y-72964342D02*
X160061904Y-73059580D01*
X160061904Y-73059580D02*
X160014285Y-73107200D01*
X160014285Y-73107200D02*
X159919047Y-73154819D01*
X159919047Y-73154819D02*
X159680952Y-73154819D01*
X159680952Y-73154819D02*
X159585714Y-73107200D01*
X159585714Y-73107200D02*
X159538095Y-73059580D01*
X160442857Y-72488152D02*
X160680952Y-73154819D01*
X160680952Y-73154819D02*
X160919047Y-72488152D01*
X161823809Y-73154819D02*
X161252381Y-73154819D01*
X161538095Y-73154819D02*
X161538095Y-72154819D01*
X161538095Y-72154819D02*
X161442857Y-72297676D01*
X161442857Y-72297676D02*
X161347619Y-72392914D01*
X161347619Y-72392914D02*
X161252381Y-72440533D01*
X168338095Y-76006819D02*
X168909523Y-76006819D01*
X168623809Y-77006819D02*
X168623809Y-76006819D01*
X169242857Y-77006819D02*
X169242857Y-76006819D01*
X169242857Y-76006819D02*
X169623809Y-76006819D01*
X169623809Y-76006819D02*
X169719047Y-76054438D01*
X169719047Y-76054438D02*
X169766666Y-76102057D01*
X169766666Y-76102057D02*
X169814285Y-76197295D01*
X169814285Y-76197295D02*
X169814285Y-76340152D01*
X169814285Y-76340152D02*
X169766666Y-76435390D01*
X169766666Y-76435390D02*
X169719047Y-76483009D01*
X169719047Y-76483009D02*
X169623809Y-76530628D01*
X169623809Y-76530628D02*
X169242857Y-76530628D01*
X170147619Y-76006819D02*
X170766666Y-76006819D01*
X170766666Y-76006819D02*
X170433333Y-76387771D01*
X170433333Y-76387771D02*
X170576190Y-76387771D01*
X170576190Y-76387771D02*
X170671428Y-76435390D01*
X170671428Y-76435390D02*
X170719047Y-76483009D01*
X170719047Y-76483009D02*
X170766666Y-76578247D01*
X170766666Y-76578247D02*
X170766666Y-76816342D01*
X170766666Y-76816342D02*
X170719047Y-76911580D01*
X170719047Y-76911580D02*
X170671428Y-76959200D01*
X170671428Y-76959200D02*
X170576190Y-77006819D01*
X170576190Y-77006819D02*
X170290476Y-77006819D01*
X170290476Y-77006819D02*
X170195238Y-76959200D01*
X170195238Y-76959200D02*
X170147619Y-76911580D01*
X130556095Y-92177819D02*
X130556095Y-92987342D01*
X130556095Y-92987342D02*
X130603714Y-93082580D01*
X130603714Y-93082580D02*
X130651333Y-93130200D01*
X130651333Y-93130200D02*
X130746571Y-93177819D01*
X130746571Y-93177819D02*
X130937047Y-93177819D01*
X130937047Y-93177819D02*
X131032285Y-93130200D01*
X131032285Y-93130200D02*
X131079904Y-93082580D01*
X131079904Y-93082580D02*
X131127523Y-92987342D01*
X131127523Y-92987342D02*
X131127523Y-92177819D01*
X132079904Y-92177819D02*
X131603714Y-92177819D01*
X131603714Y-92177819D02*
X131556095Y-92654009D01*
X131556095Y-92654009D02*
X131603714Y-92606390D01*
X131603714Y-92606390D02*
X131698952Y-92558771D01*
X131698952Y-92558771D02*
X131937047Y-92558771D01*
X131937047Y-92558771D02*
X132032285Y-92606390D01*
X132032285Y-92606390D02*
X132079904Y-92654009D01*
X132079904Y-92654009D02*
X132127523Y-92749247D01*
X132127523Y-92749247D02*
X132127523Y-92987342D01*
X132127523Y-92987342D02*
X132079904Y-93082580D01*
X132079904Y-93082580D02*
X132032285Y-93130200D01*
X132032285Y-93130200D02*
X131937047Y-93177819D01*
X131937047Y-93177819D02*
X131698952Y-93177819D01*
X131698952Y-93177819D02*
X131603714Y-93130200D01*
X131603714Y-93130200D02*
X131556095Y-93082580D01*
X156003214Y-92118024D02*
X155965118Y-92156120D01*
X155965118Y-92156120D02*
X155850833Y-92194215D01*
X155850833Y-92194215D02*
X155774642Y-92194215D01*
X155774642Y-92194215D02*
X155660356Y-92156120D01*
X155660356Y-92156120D02*
X155584166Y-92079929D01*
X155584166Y-92079929D02*
X155546071Y-92003739D01*
X155546071Y-92003739D02*
X155507975Y-91851358D01*
X155507975Y-91851358D02*
X155507975Y-91737072D01*
X155507975Y-91737072D02*
X155546071Y-91584691D01*
X155546071Y-91584691D02*
X155584166Y-91508500D01*
X155584166Y-91508500D02*
X155660356Y-91432310D01*
X155660356Y-91432310D02*
X155774642Y-91394215D01*
X155774642Y-91394215D02*
X155850833Y-91394215D01*
X155850833Y-91394215D02*
X155965118Y-91432310D01*
X155965118Y-91432310D02*
X156003214Y-91470405D01*
X156765118Y-92194215D02*
X156307975Y-92194215D01*
X156536547Y-92194215D02*
X156536547Y-91394215D01*
X156536547Y-91394215D02*
X156460356Y-91508500D01*
X156460356Y-91508500D02*
X156384166Y-91584691D01*
X156384166Y-91584691D02*
X156307975Y-91622786D01*
X157488928Y-91394215D02*
X157107976Y-91394215D01*
X157107976Y-91394215D02*
X157069880Y-91775167D01*
X157069880Y-91775167D02*
X157107976Y-91737072D01*
X157107976Y-91737072D02*
X157184166Y-91698977D01*
X157184166Y-91698977D02*
X157374642Y-91698977D01*
X157374642Y-91698977D02*
X157450833Y-91737072D01*
X157450833Y-91737072D02*
X157488928Y-91775167D01*
X157488928Y-91775167D02*
X157527023Y-91851358D01*
X157527023Y-91851358D02*
X157527023Y-92041834D01*
X157527023Y-92041834D02*
X157488928Y-92118024D01*
X157488928Y-92118024D02*
X157450833Y-92156120D01*
X157450833Y-92156120D02*
X157374642Y-92194215D01*
X157374642Y-92194215D02*
X157184166Y-92194215D01*
X157184166Y-92194215D02*
X157107976Y-92156120D01*
X157107976Y-92156120D02*
X157069880Y-92118024D01*
X140506514Y-71888695D02*
X140239847Y-71507742D01*
X140049371Y-71888695D02*
X140049371Y-71088695D01*
X140049371Y-71088695D02*
X140354133Y-71088695D01*
X140354133Y-71088695D02*
X140430323Y-71126790D01*
X140430323Y-71126790D02*
X140468418Y-71164885D01*
X140468418Y-71164885D02*
X140506514Y-71241076D01*
X140506514Y-71241076D02*
X140506514Y-71355361D01*
X140506514Y-71355361D02*
X140468418Y-71431552D01*
X140468418Y-71431552D02*
X140430323Y-71469647D01*
X140430323Y-71469647D02*
X140354133Y-71507742D01*
X140354133Y-71507742D02*
X140049371Y-71507742D01*
X141268418Y-71888695D02*
X140811275Y-71888695D01*
X141039847Y-71888695D02*
X141039847Y-71088695D01*
X141039847Y-71088695D02*
X140963656Y-71202980D01*
X140963656Y-71202980D02*
X140887466Y-71279171D01*
X140887466Y-71279171D02*
X140811275Y-71317266D01*
X141649371Y-71888695D02*
X141801752Y-71888695D01*
X141801752Y-71888695D02*
X141877942Y-71850600D01*
X141877942Y-71850600D02*
X141916038Y-71812504D01*
X141916038Y-71812504D02*
X141992228Y-71698219D01*
X141992228Y-71698219D02*
X142030323Y-71545838D01*
X142030323Y-71545838D02*
X142030323Y-71241076D01*
X142030323Y-71241076D02*
X141992228Y-71164885D01*
X141992228Y-71164885D02*
X141954133Y-71126790D01*
X141954133Y-71126790D02*
X141877942Y-71088695D01*
X141877942Y-71088695D02*
X141725561Y-71088695D01*
X141725561Y-71088695D02*
X141649371Y-71126790D01*
X141649371Y-71126790D02*
X141611276Y-71164885D01*
X141611276Y-71164885D02*
X141573180Y-71241076D01*
X141573180Y-71241076D02*
X141573180Y-71431552D01*
X141573180Y-71431552D02*
X141611276Y-71507742D01*
X141611276Y-71507742D02*
X141649371Y-71545838D01*
X141649371Y-71545838D02*
X141725561Y-71583933D01*
X141725561Y-71583933D02*
X141877942Y-71583933D01*
X141877942Y-71583933D02*
X141954133Y-71545838D01*
X141954133Y-71545838D02*
X141992228Y-71507742D01*
X141992228Y-71507742D02*
X142030323Y-71431552D01*
X165321214Y-88346104D02*
X165283118Y-88384200D01*
X165283118Y-88384200D02*
X165168833Y-88422295D01*
X165168833Y-88422295D02*
X165092642Y-88422295D01*
X165092642Y-88422295D02*
X164978356Y-88384200D01*
X164978356Y-88384200D02*
X164902166Y-88308009D01*
X164902166Y-88308009D02*
X164864071Y-88231819D01*
X164864071Y-88231819D02*
X164825975Y-88079438D01*
X164825975Y-88079438D02*
X164825975Y-87965152D01*
X164825975Y-87965152D02*
X164864071Y-87812771D01*
X164864071Y-87812771D02*
X164902166Y-87736580D01*
X164902166Y-87736580D02*
X164978356Y-87660390D01*
X164978356Y-87660390D02*
X165092642Y-87622295D01*
X165092642Y-87622295D02*
X165168833Y-87622295D01*
X165168833Y-87622295D02*
X165283118Y-87660390D01*
X165283118Y-87660390D02*
X165321214Y-87698485D01*
X166083118Y-88422295D02*
X165625975Y-88422295D01*
X165854547Y-88422295D02*
X165854547Y-87622295D01*
X165854547Y-87622295D02*
X165778356Y-87736580D01*
X165778356Y-87736580D02*
X165702166Y-87812771D01*
X165702166Y-87812771D02*
X165625975Y-87850866D01*
X166349785Y-87622295D02*
X166883119Y-87622295D01*
X166883119Y-87622295D02*
X166540261Y-88422295D01*
X165403756Y-104544215D02*
X165403756Y-103744215D01*
X165403756Y-103744215D02*
X165594232Y-103744215D01*
X165594232Y-103744215D02*
X165708518Y-103782310D01*
X165708518Y-103782310D02*
X165784708Y-103858500D01*
X165784708Y-103858500D02*
X165822803Y-103934691D01*
X165822803Y-103934691D02*
X165860899Y-104087072D01*
X165860899Y-104087072D02*
X165860899Y-104201358D01*
X165860899Y-104201358D02*
X165822803Y-104353739D01*
X165822803Y-104353739D02*
X165784708Y-104429929D01*
X165784708Y-104429929D02*
X165708518Y-104506120D01*
X165708518Y-104506120D02*
X165594232Y-104544215D01*
X165594232Y-104544215D02*
X165403756Y-104544215D01*
X166165660Y-103820405D02*
X166203756Y-103782310D01*
X166203756Y-103782310D02*
X166279946Y-103744215D01*
X166279946Y-103744215D02*
X166470422Y-103744215D01*
X166470422Y-103744215D02*
X166546613Y-103782310D01*
X166546613Y-103782310D02*
X166584708Y-103820405D01*
X166584708Y-103820405D02*
X166622803Y-103896596D01*
X166622803Y-103896596D02*
X166622803Y-103972786D01*
X166622803Y-103972786D02*
X166584708Y-104087072D01*
X166584708Y-104087072D02*
X166127565Y-104544215D01*
X166127565Y-104544215D02*
X166622803Y-104544215D01*
X161786095Y-119378819D02*
X161786095Y-120188342D01*
X161786095Y-120188342D02*
X161833714Y-120283580D01*
X161833714Y-120283580D02*
X161881333Y-120331200D01*
X161881333Y-120331200D02*
X161976571Y-120378819D01*
X161976571Y-120378819D02*
X162167047Y-120378819D01*
X162167047Y-120378819D02*
X162262285Y-120331200D01*
X162262285Y-120331200D02*
X162309904Y-120283580D01*
X162309904Y-120283580D02*
X162357523Y-120188342D01*
X162357523Y-120188342D02*
X162357523Y-119378819D01*
X162738476Y-119378819D02*
X163405142Y-119378819D01*
X163405142Y-119378819D02*
X162976571Y-120378819D01*
X154633214Y-80704215D02*
X154366547Y-80323262D01*
X154176071Y-80704215D02*
X154176071Y-79904215D01*
X154176071Y-79904215D02*
X154480833Y-79904215D01*
X154480833Y-79904215D02*
X154557023Y-79942310D01*
X154557023Y-79942310D02*
X154595118Y-79980405D01*
X154595118Y-79980405D02*
X154633214Y-80056596D01*
X154633214Y-80056596D02*
X154633214Y-80170881D01*
X154633214Y-80170881D02*
X154595118Y-80247072D01*
X154595118Y-80247072D02*
X154557023Y-80285167D01*
X154557023Y-80285167D02*
X154480833Y-80323262D01*
X154480833Y-80323262D02*
X154176071Y-80323262D01*
X154937975Y-79980405D02*
X154976071Y-79942310D01*
X154976071Y-79942310D02*
X155052261Y-79904215D01*
X155052261Y-79904215D02*
X155242737Y-79904215D01*
X155242737Y-79904215D02*
X155318928Y-79942310D01*
X155318928Y-79942310D02*
X155357023Y-79980405D01*
X155357023Y-79980405D02*
X155395118Y-80056596D01*
X155395118Y-80056596D02*
X155395118Y-80132786D01*
X155395118Y-80132786D02*
X155357023Y-80247072D01*
X155357023Y-80247072D02*
X154899880Y-80704215D01*
X154899880Y-80704215D02*
X155395118Y-80704215D01*
X155852261Y-80247072D02*
X155776071Y-80208977D01*
X155776071Y-80208977D02*
X155737976Y-80170881D01*
X155737976Y-80170881D02*
X155699880Y-80094691D01*
X155699880Y-80094691D02*
X155699880Y-80056596D01*
X155699880Y-80056596D02*
X155737976Y-79980405D01*
X155737976Y-79980405D02*
X155776071Y-79942310D01*
X155776071Y-79942310D02*
X155852261Y-79904215D01*
X155852261Y-79904215D02*
X156004642Y-79904215D01*
X156004642Y-79904215D02*
X156080833Y-79942310D01*
X156080833Y-79942310D02*
X156118928Y-79980405D01*
X156118928Y-79980405D02*
X156157023Y-80056596D01*
X156157023Y-80056596D02*
X156157023Y-80094691D01*
X156157023Y-80094691D02*
X156118928Y-80170881D01*
X156118928Y-80170881D02*
X156080833Y-80208977D01*
X156080833Y-80208977D02*
X156004642Y-80247072D01*
X156004642Y-80247072D02*
X155852261Y-80247072D01*
X155852261Y-80247072D02*
X155776071Y-80285167D01*
X155776071Y-80285167D02*
X155737976Y-80323262D01*
X155737976Y-80323262D02*
X155699880Y-80399453D01*
X155699880Y-80399453D02*
X155699880Y-80551834D01*
X155699880Y-80551834D02*
X155737976Y-80628024D01*
X155737976Y-80628024D02*
X155776071Y-80666120D01*
X155776071Y-80666120D02*
X155852261Y-80704215D01*
X155852261Y-80704215D02*
X156004642Y-80704215D01*
X156004642Y-80704215D02*
X156080833Y-80666120D01*
X156080833Y-80666120D02*
X156118928Y-80628024D01*
X156118928Y-80628024D02*
X156157023Y-80551834D01*
X156157023Y-80551834D02*
X156157023Y-80399453D01*
X156157023Y-80399453D02*
X156118928Y-80323262D01*
X156118928Y-80323262D02*
X156080833Y-80285167D01*
X156080833Y-80285167D02*
X156004642Y-80247072D01*
X145236104Y-95965252D02*
X145274200Y-96003348D01*
X145274200Y-96003348D02*
X145312295Y-96117633D01*
X145312295Y-96117633D02*
X145312295Y-96193824D01*
X145312295Y-96193824D02*
X145274200Y-96308110D01*
X145274200Y-96308110D02*
X145198009Y-96384300D01*
X145198009Y-96384300D02*
X145121819Y-96422395D01*
X145121819Y-96422395D02*
X144969438Y-96460491D01*
X144969438Y-96460491D02*
X144855152Y-96460491D01*
X144855152Y-96460491D02*
X144702771Y-96422395D01*
X144702771Y-96422395D02*
X144626580Y-96384300D01*
X144626580Y-96384300D02*
X144550390Y-96308110D01*
X144550390Y-96308110D02*
X144512295Y-96193824D01*
X144512295Y-96193824D02*
X144512295Y-96117633D01*
X144512295Y-96117633D02*
X144550390Y-96003348D01*
X144550390Y-96003348D02*
X144588485Y-95965252D01*
X144512295Y-95279538D02*
X144512295Y-95431919D01*
X144512295Y-95431919D02*
X144550390Y-95508110D01*
X144550390Y-95508110D02*
X144588485Y-95546205D01*
X144588485Y-95546205D02*
X144702771Y-95622395D01*
X144702771Y-95622395D02*
X144855152Y-95660491D01*
X144855152Y-95660491D02*
X145159914Y-95660491D01*
X145159914Y-95660491D02*
X145236104Y-95622395D01*
X145236104Y-95622395D02*
X145274200Y-95584300D01*
X145274200Y-95584300D02*
X145312295Y-95508110D01*
X145312295Y-95508110D02*
X145312295Y-95355729D01*
X145312295Y-95355729D02*
X145274200Y-95279538D01*
X145274200Y-95279538D02*
X145236104Y-95241443D01*
X145236104Y-95241443D02*
X145159914Y-95203348D01*
X145159914Y-95203348D02*
X144969438Y-95203348D01*
X144969438Y-95203348D02*
X144893247Y-95241443D01*
X144893247Y-95241443D02*
X144855152Y-95279538D01*
X144855152Y-95279538D02*
X144817057Y-95355729D01*
X144817057Y-95355729D02*
X144817057Y-95508110D01*
X144817057Y-95508110D02*
X144855152Y-95584300D01*
X144855152Y-95584300D02*
X144893247Y-95622395D01*
X144893247Y-95622395D02*
X144969438Y-95660491D01*
X122235714Y-102862295D02*
X121969047Y-102481342D01*
X121778571Y-102862295D02*
X121778571Y-102062295D01*
X121778571Y-102062295D02*
X122083333Y-102062295D01*
X122083333Y-102062295D02*
X122159523Y-102100390D01*
X122159523Y-102100390D02*
X122197618Y-102138485D01*
X122197618Y-102138485D02*
X122235714Y-102214676D01*
X122235714Y-102214676D02*
X122235714Y-102328961D01*
X122235714Y-102328961D02*
X122197618Y-102405152D01*
X122197618Y-102405152D02*
X122159523Y-102443247D01*
X122159523Y-102443247D02*
X122083333Y-102481342D01*
X122083333Y-102481342D02*
X121778571Y-102481342D01*
X122540475Y-102138485D02*
X122578571Y-102100390D01*
X122578571Y-102100390D02*
X122654761Y-102062295D01*
X122654761Y-102062295D02*
X122845237Y-102062295D01*
X122845237Y-102062295D02*
X122921428Y-102100390D01*
X122921428Y-102100390D02*
X122959523Y-102138485D01*
X122959523Y-102138485D02*
X122997618Y-102214676D01*
X122997618Y-102214676D02*
X122997618Y-102290866D01*
X122997618Y-102290866D02*
X122959523Y-102405152D01*
X122959523Y-102405152D02*
X122502380Y-102862295D01*
X122502380Y-102862295D02*
X122997618Y-102862295D01*
X123759523Y-102862295D02*
X123302380Y-102862295D01*
X123530952Y-102862295D02*
X123530952Y-102062295D01*
X123530952Y-102062295D02*
X123454761Y-102176580D01*
X123454761Y-102176580D02*
X123378571Y-102252771D01*
X123378571Y-102252771D02*
X123302380Y-102290866D01*
X137085714Y-75362295D02*
X136819047Y-74981342D01*
X136628571Y-75362295D02*
X136628571Y-74562295D01*
X136628571Y-74562295D02*
X136933333Y-74562295D01*
X136933333Y-74562295D02*
X137009523Y-74600390D01*
X137009523Y-74600390D02*
X137047618Y-74638485D01*
X137047618Y-74638485D02*
X137085714Y-74714676D01*
X137085714Y-74714676D02*
X137085714Y-74828961D01*
X137085714Y-74828961D02*
X137047618Y-74905152D01*
X137047618Y-74905152D02*
X137009523Y-74943247D01*
X137009523Y-74943247D02*
X136933333Y-74981342D01*
X136933333Y-74981342D02*
X136628571Y-74981342D01*
X137390475Y-74638485D02*
X137428571Y-74600390D01*
X137428571Y-74600390D02*
X137504761Y-74562295D01*
X137504761Y-74562295D02*
X137695237Y-74562295D01*
X137695237Y-74562295D02*
X137771428Y-74600390D01*
X137771428Y-74600390D02*
X137809523Y-74638485D01*
X137809523Y-74638485D02*
X137847618Y-74714676D01*
X137847618Y-74714676D02*
X137847618Y-74790866D01*
X137847618Y-74790866D02*
X137809523Y-74905152D01*
X137809523Y-74905152D02*
X137352380Y-75362295D01*
X137352380Y-75362295D02*
X137847618Y-75362295D01*
X138571428Y-74562295D02*
X138190476Y-74562295D01*
X138190476Y-74562295D02*
X138152380Y-74943247D01*
X138152380Y-74943247D02*
X138190476Y-74905152D01*
X138190476Y-74905152D02*
X138266666Y-74867057D01*
X138266666Y-74867057D02*
X138457142Y-74867057D01*
X138457142Y-74867057D02*
X138533333Y-74905152D01*
X138533333Y-74905152D02*
X138571428Y-74943247D01*
X138571428Y-74943247D02*
X138609523Y-75019438D01*
X138609523Y-75019438D02*
X138609523Y-75209914D01*
X138609523Y-75209914D02*
X138571428Y-75286104D01*
X138571428Y-75286104D02*
X138533333Y-75324200D01*
X138533333Y-75324200D02*
X138457142Y-75362295D01*
X138457142Y-75362295D02*
X138266666Y-75362295D01*
X138266666Y-75362295D02*
X138190476Y-75324200D01*
X138190476Y-75324200D02*
X138152380Y-75286104D01*
X143536104Y-94046205D02*
X143574200Y-94084301D01*
X143574200Y-94084301D02*
X143612295Y-94198586D01*
X143612295Y-94198586D02*
X143612295Y-94274777D01*
X143612295Y-94274777D02*
X143574200Y-94389063D01*
X143574200Y-94389063D02*
X143498009Y-94465253D01*
X143498009Y-94465253D02*
X143421819Y-94503348D01*
X143421819Y-94503348D02*
X143269438Y-94541444D01*
X143269438Y-94541444D02*
X143155152Y-94541444D01*
X143155152Y-94541444D02*
X143002771Y-94503348D01*
X143002771Y-94503348D02*
X142926580Y-94465253D01*
X142926580Y-94465253D02*
X142850390Y-94389063D01*
X142850390Y-94389063D02*
X142812295Y-94274777D01*
X142812295Y-94274777D02*
X142812295Y-94198586D01*
X142812295Y-94198586D02*
X142850390Y-94084301D01*
X142850390Y-94084301D02*
X142888485Y-94046205D01*
X143612295Y-93284301D02*
X143612295Y-93741444D01*
X143612295Y-93512872D02*
X142812295Y-93512872D01*
X142812295Y-93512872D02*
X142926580Y-93589063D01*
X142926580Y-93589063D02*
X143002771Y-93665253D01*
X143002771Y-93665253D02*
X143040866Y-93741444D01*
X142812295Y-92789062D02*
X142812295Y-92712872D01*
X142812295Y-92712872D02*
X142850390Y-92636681D01*
X142850390Y-92636681D02*
X142888485Y-92598586D01*
X142888485Y-92598586D02*
X142964676Y-92560491D01*
X142964676Y-92560491D02*
X143117057Y-92522396D01*
X143117057Y-92522396D02*
X143307533Y-92522396D01*
X143307533Y-92522396D02*
X143459914Y-92560491D01*
X143459914Y-92560491D02*
X143536104Y-92598586D01*
X143536104Y-92598586D02*
X143574200Y-92636681D01*
X143574200Y-92636681D02*
X143612295Y-92712872D01*
X143612295Y-92712872D02*
X143612295Y-92789062D01*
X143612295Y-92789062D02*
X143574200Y-92865253D01*
X143574200Y-92865253D02*
X143536104Y-92903348D01*
X143536104Y-92903348D02*
X143459914Y-92941443D01*
X143459914Y-92941443D02*
X143307533Y-92979539D01*
X143307533Y-92979539D02*
X143117057Y-92979539D01*
X143117057Y-92979539D02*
X142964676Y-92941443D01*
X142964676Y-92941443D02*
X142888485Y-92903348D01*
X142888485Y-92903348D02*
X142850390Y-92865253D01*
X142850390Y-92865253D02*
X142812295Y-92789062D01*
X157385714Y-74994215D02*
X157119047Y-74613262D01*
X156928571Y-74994215D02*
X156928571Y-74194215D01*
X156928571Y-74194215D02*
X157233333Y-74194215D01*
X157233333Y-74194215D02*
X157309523Y-74232310D01*
X157309523Y-74232310D02*
X157347618Y-74270405D01*
X157347618Y-74270405D02*
X157385714Y-74346596D01*
X157385714Y-74346596D02*
X157385714Y-74460881D01*
X157385714Y-74460881D02*
X157347618Y-74537072D01*
X157347618Y-74537072D02*
X157309523Y-74575167D01*
X157309523Y-74575167D02*
X157233333Y-74613262D01*
X157233333Y-74613262D02*
X156928571Y-74613262D01*
X158147618Y-74994215D02*
X157690475Y-74994215D01*
X157919047Y-74994215D02*
X157919047Y-74194215D01*
X157919047Y-74194215D02*
X157842856Y-74308500D01*
X157842856Y-74308500D02*
X157766666Y-74384691D01*
X157766666Y-74384691D02*
X157690475Y-74422786D01*
X158414285Y-74194215D02*
X158947619Y-74194215D01*
X158947619Y-74194215D02*
X158604761Y-74994215D01*
X159462295Y-98714285D02*
X159081342Y-98980952D01*
X159462295Y-99171428D02*
X158662295Y-99171428D01*
X158662295Y-99171428D02*
X158662295Y-98866666D01*
X158662295Y-98866666D02*
X158700390Y-98790476D01*
X158700390Y-98790476D02*
X158738485Y-98752381D01*
X158738485Y-98752381D02*
X158814676Y-98714285D01*
X158814676Y-98714285D02*
X158928961Y-98714285D01*
X158928961Y-98714285D02*
X159005152Y-98752381D01*
X159005152Y-98752381D02*
X159043247Y-98790476D01*
X159043247Y-98790476D02*
X159081342Y-98866666D01*
X159081342Y-98866666D02*
X159081342Y-99171428D01*
X159462295Y-97952381D02*
X159462295Y-98409524D01*
X159462295Y-98180952D02*
X158662295Y-98180952D01*
X158662295Y-98180952D02*
X158776580Y-98257143D01*
X158776580Y-98257143D02*
X158852771Y-98333333D01*
X158852771Y-98333333D02*
X158890866Y-98409524D01*
X158662295Y-97457142D02*
X158662295Y-97380952D01*
X158662295Y-97380952D02*
X158700390Y-97304761D01*
X158700390Y-97304761D02*
X158738485Y-97266666D01*
X158738485Y-97266666D02*
X158814676Y-97228571D01*
X158814676Y-97228571D02*
X158967057Y-97190476D01*
X158967057Y-97190476D02*
X159157533Y-97190476D01*
X159157533Y-97190476D02*
X159309914Y-97228571D01*
X159309914Y-97228571D02*
X159386104Y-97266666D01*
X159386104Y-97266666D02*
X159424200Y-97304761D01*
X159424200Y-97304761D02*
X159462295Y-97380952D01*
X159462295Y-97380952D02*
X159462295Y-97457142D01*
X159462295Y-97457142D02*
X159424200Y-97533333D01*
X159424200Y-97533333D02*
X159386104Y-97571428D01*
X159386104Y-97571428D02*
X159309914Y-97609523D01*
X159309914Y-97609523D02*
X159157533Y-97647619D01*
X159157533Y-97647619D02*
X158967057Y-97647619D01*
X158967057Y-97647619D02*
X158814676Y-97609523D01*
X158814676Y-97609523D02*
X158738485Y-97571428D01*
X158738485Y-97571428D02*
X158700390Y-97533333D01*
X158700390Y-97533333D02*
X158662295Y-97457142D01*
X170254819Y-93548586D02*
X170254819Y-94024776D01*
X170254819Y-94024776D02*
X169254819Y-94024776D01*
X169350057Y-93262871D02*
X169302438Y-93215252D01*
X169302438Y-93215252D02*
X169254819Y-93120014D01*
X169254819Y-93120014D02*
X169254819Y-92881919D01*
X169254819Y-92881919D02*
X169302438Y-92786681D01*
X169302438Y-92786681D02*
X169350057Y-92739062D01*
X169350057Y-92739062D02*
X169445295Y-92691443D01*
X169445295Y-92691443D02*
X169540533Y-92691443D01*
X169540533Y-92691443D02*
X169683390Y-92739062D01*
X169683390Y-92739062D02*
X170254819Y-93310490D01*
X170254819Y-93310490D02*
X170254819Y-92691443D01*
X145845180Y-100270015D02*
X145035657Y-100270015D01*
X145035657Y-100270015D02*
X144940419Y-100317634D01*
X144940419Y-100317634D02*
X144892800Y-100365253D01*
X144892800Y-100365253D02*
X144845180Y-100460491D01*
X144845180Y-100460491D02*
X144845180Y-100650967D01*
X144845180Y-100650967D02*
X144892800Y-100746205D01*
X144892800Y-100746205D02*
X144940419Y-100793824D01*
X144940419Y-100793824D02*
X145035657Y-100841443D01*
X145035657Y-100841443D02*
X145845180Y-100841443D01*
X145845180Y-101222396D02*
X145845180Y-101841443D01*
X145845180Y-101841443D02*
X145464228Y-101508110D01*
X145464228Y-101508110D02*
X145464228Y-101650967D01*
X145464228Y-101650967D02*
X145416609Y-101746205D01*
X145416609Y-101746205D02*
X145368990Y-101793824D01*
X145368990Y-101793824D02*
X145273752Y-101841443D01*
X145273752Y-101841443D02*
X145035657Y-101841443D01*
X145035657Y-101841443D02*
X144940419Y-101793824D01*
X144940419Y-101793824D02*
X144892800Y-101746205D01*
X144892800Y-101746205D02*
X144845180Y-101650967D01*
X144845180Y-101650967D02*
X144845180Y-101365253D01*
X144845180Y-101365253D02*
X144892800Y-101270015D01*
X144892800Y-101270015D02*
X144940419Y-101222396D01*
X162863095Y-72131819D02*
X163434523Y-72131819D01*
X163148809Y-73131819D02*
X163148809Y-72131819D01*
X163767857Y-73131819D02*
X163767857Y-72131819D01*
X163767857Y-72131819D02*
X164148809Y-72131819D01*
X164148809Y-72131819D02*
X164244047Y-72179438D01*
X164244047Y-72179438D02*
X164291666Y-72227057D01*
X164291666Y-72227057D02*
X164339285Y-72322295D01*
X164339285Y-72322295D02*
X164339285Y-72465152D01*
X164339285Y-72465152D02*
X164291666Y-72560390D01*
X164291666Y-72560390D02*
X164244047Y-72608009D01*
X164244047Y-72608009D02*
X164148809Y-72655628D01*
X164148809Y-72655628D02*
X163767857Y-72655628D01*
X165196428Y-72465152D02*
X165196428Y-73131819D01*
X164958333Y-72084200D02*
X164720238Y-72798485D01*
X164720238Y-72798485D02*
X165339285Y-72798485D01*
X156003214Y-93444215D02*
X155736547Y-93063262D01*
X155546071Y-93444215D02*
X155546071Y-92644215D01*
X155546071Y-92644215D02*
X155850833Y-92644215D01*
X155850833Y-92644215D02*
X155927023Y-92682310D01*
X155927023Y-92682310D02*
X155965118Y-92720405D01*
X155965118Y-92720405D02*
X156003214Y-92796596D01*
X156003214Y-92796596D02*
X156003214Y-92910881D01*
X156003214Y-92910881D02*
X155965118Y-92987072D01*
X155965118Y-92987072D02*
X155927023Y-93025167D01*
X155927023Y-93025167D02*
X155850833Y-93063262D01*
X155850833Y-93063262D02*
X155546071Y-93063262D01*
X156765118Y-93444215D02*
X156307975Y-93444215D01*
X156536547Y-93444215D02*
X156536547Y-92644215D01*
X156536547Y-92644215D02*
X156460356Y-92758500D01*
X156460356Y-92758500D02*
X156384166Y-92834691D01*
X156384166Y-92834691D02*
X156307975Y-92872786D01*
X157450833Y-92644215D02*
X157298452Y-92644215D01*
X157298452Y-92644215D02*
X157222261Y-92682310D01*
X157222261Y-92682310D02*
X157184166Y-92720405D01*
X157184166Y-92720405D02*
X157107976Y-92834691D01*
X157107976Y-92834691D02*
X157069880Y-92987072D01*
X157069880Y-92987072D02*
X157069880Y-93291834D01*
X157069880Y-93291834D02*
X157107976Y-93368024D01*
X157107976Y-93368024D02*
X157146071Y-93406120D01*
X157146071Y-93406120D02*
X157222261Y-93444215D01*
X157222261Y-93444215D02*
X157374642Y-93444215D01*
X157374642Y-93444215D02*
X157450833Y-93406120D01*
X157450833Y-93406120D02*
X157488928Y-93368024D01*
X157488928Y-93368024D02*
X157527023Y-93291834D01*
X157527023Y-93291834D02*
X157527023Y-93101358D01*
X157527023Y-93101358D02*
X157488928Y-93025167D01*
X157488928Y-93025167D02*
X157450833Y-92987072D01*
X157450833Y-92987072D02*
X157374642Y-92948977D01*
X157374642Y-92948977D02*
X157222261Y-92948977D01*
X157222261Y-92948977D02*
X157146071Y-92987072D01*
X157146071Y-92987072D02*
X157107976Y-93025167D01*
X157107976Y-93025167D02*
X157069880Y-93101358D01*
X154486104Y-74546205D02*
X154524200Y-74584301D01*
X154524200Y-74584301D02*
X154562295Y-74698586D01*
X154562295Y-74698586D02*
X154562295Y-74774777D01*
X154562295Y-74774777D02*
X154524200Y-74889063D01*
X154524200Y-74889063D02*
X154448009Y-74965253D01*
X154448009Y-74965253D02*
X154371819Y-75003348D01*
X154371819Y-75003348D02*
X154219438Y-75041444D01*
X154219438Y-75041444D02*
X154105152Y-75041444D01*
X154105152Y-75041444D02*
X153952771Y-75003348D01*
X153952771Y-75003348D02*
X153876580Y-74965253D01*
X153876580Y-74965253D02*
X153800390Y-74889063D01*
X153800390Y-74889063D02*
X153762295Y-74774777D01*
X153762295Y-74774777D02*
X153762295Y-74698586D01*
X153762295Y-74698586D02*
X153800390Y-74584301D01*
X153800390Y-74584301D02*
X153838485Y-74546205D01*
X153838485Y-74241444D02*
X153800390Y-74203348D01*
X153800390Y-74203348D02*
X153762295Y-74127158D01*
X153762295Y-74127158D02*
X153762295Y-73936682D01*
X153762295Y-73936682D02*
X153800390Y-73860491D01*
X153800390Y-73860491D02*
X153838485Y-73822396D01*
X153838485Y-73822396D02*
X153914676Y-73784301D01*
X153914676Y-73784301D02*
X153990866Y-73784301D01*
X153990866Y-73784301D02*
X154105152Y-73822396D01*
X154105152Y-73822396D02*
X154562295Y-74279539D01*
X154562295Y-74279539D02*
X154562295Y-73784301D01*
X153838485Y-73479539D02*
X153800390Y-73441443D01*
X153800390Y-73441443D02*
X153762295Y-73365253D01*
X153762295Y-73365253D02*
X153762295Y-73174777D01*
X153762295Y-73174777D02*
X153800390Y-73098586D01*
X153800390Y-73098586D02*
X153838485Y-73060491D01*
X153838485Y-73060491D02*
X153914676Y-73022396D01*
X153914676Y-73022396D02*
X153990866Y-73022396D01*
X153990866Y-73022396D02*
X154105152Y-73060491D01*
X154105152Y-73060491D02*
X154562295Y-73517634D01*
X154562295Y-73517634D02*
X154562295Y-73022396D01*
X158427009Y-87465033D02*
X158427009Y-87798366D01*
X158950819Y-87798366D02*
X157950819Y-87798366D01*
X157950819Y-87798366D02*
X157950819Y-87322176D01*
X158950819Y-86417414D02*
X158950819Y-86988842D01*
X158950819Y-86703128D02*
X157950819Y-86703128D01*
X157950819Y-86703128D02*
X158093676Y-86798366D01*
X158093676Y-86798366D02*
X158188914Y-86893604D01*
X158188914Y-86893604D02*
X158236533Y-86988842D01*
X151286104Y-76146205D02*
X151324200Y-76184301D01*
X151324200Y-76184301D02*
X151362295Y-76298586D01*
X151362295Y-76298586D02*
X151362295Y-76374777D01*
X151362295Y-76374777D02*
X151324200Y-76489063D01*
X151324200Y-76489063D02*
X151248009Y-76565253D01*
X151248009Y-76565253D02*
X151171819Y-76603348D01*
X151171819Y-76603348D02*
X151019438Y-76641444D01*
X151019438Y-76641444D02*
X150905152Y-76641444D01*
X150905152Y-76641444D02*
X150752771Y-76603348D01*
X150752771Y-76603348D02*
X150676580Y-76565253D01*
X150676580Y-76565253D02*
X150600390Y-76489063D01*
X150600390Y-76489063D02*
X150562295Y-76374777D01*
X150562295Y-76374777D02*
X150562295Y-76298586D01*
X150562295Y-76298586D02*
X150600390Y-76184301D01*
X150600390Y-76184301D02*
X150638485Y-76146205D01*
X150638485Y-75841444D02*
X150600390Y-75803348D01*
X150600390Y-75803348D02*
X150562295Y-75727158D01*
X150562295Y-75727158D02*
X150562295Y-75536682D01*
X150562295Y-75536682D02*
X150600390Y-75460491D01*
X150600390Y-75460491D02*
X150638485Y-75422396D01*
X150638485Y-75422396D02*
X150714676Y-75384301D01*
X150714676Y-75384301D02*
X150790866Y-75384301D01*
X150790866Y-75384301D02*
X150905152Y-75422396D01*
X150905152Y-75422396D02*
X151362295Y-75879539D01*
X151362295Y-75879539D02*
X151362295Y-75384301D01*
X151362295Y-74622396D02*
X151362295Y-75079539D01*
X151362295Y-74850967D02*
X150562295Y-74850967D01*
X150562295Y-74850967D02*
X150676580Y-74927158D01*
X150676580Y-74927158D02*
X150752771Y-75003348D01*
X150752771Y-75003348D02*
X150790866Y-75079539D01*
X163019048Y-90087295D02*
X163019048Y-89287295D01*
X163857143Y-90011104D02*
X163819047Y-90049200D01*
X163819047Y-90049200D02*
X163704762Y-90087295D01*
X163704762Y-90087295D02*
X163628571Y-90087295D01*
X163628571Y-90087295D02*
X163514285Y-90049200D01*
X163514285Y-90049200D02*
X163438095Y-89973009D01*
X163438095Y-89973009D02*
X163400000Y-89896819D01*
X163400000Y-89896819D02*
X163361904Y-89744438D01*
X163361904Y-89744438D02*
X163361904Y-89630152D01*
X163361904Y-89630152D02*
X163400000Y-89477771D01*
X163400000Y-89477771D02*
X163438095Y-89401580D01*
X163438095Y-89401580D02*
X163514285Y-89325390D01*
X163514285Y-89325390D02*
X163628571Y-89287295D01*
X163628571Y-89287295D02*
X163704762Y-89287295D01*
X163704762Y-89287295D02*
X163819047Y-89325390D01*
X163819047Y-89325390D02*
X163857143Y-89363485D01*
X164619047Y-90087295D02*
X164161904Y-90087295D01*
X164390476Y-90087295D02*
X164390476Y-89287295D01*
X164390476Y-89287295D02*
X164314285Y-89401580D01*
X164314285Y-89401580D02*
X164238095Y-89477771D01*
X164238095Y-89477771D02*
X164161904Y-89515866D01*
X163696714Y-106077104D02*
X163658618Y-106115200D01*
X163658618Y-106115200D02*
X163544333Y-106153295D01*
X163544333Y-106153295D02*
X163468142Y-106153295D01*
X163468142Y-106153295D02*
X163353856Y-106115200D01*
X163353856Y-106115200D02*
X163277666Y-106039009D01*
X163277666Y-106039009D02*
X163239571Y-105962819D01*
X163239571Y-105962819D02*
X163201475Y-105810438D01*
X163201475Y-105810438D02*
X163201475Y-105696152D01*
X163201475Y-105696152D02*
X163239571Y-105543771D01*
X163239571Y-105543771D02*
X163277666Y-105467580D01*
X163277666Y-105467580D02*
X163353856Y-105391390D01*
X163353856Y-105391390D02*
X163468142Y-105353295D01*
X163468142Y-105353295D02*
X163544333Y-105353295D01*
X163544333Y-105353295D02*
X163658618Y-105391390D01*
X163658618Y-105391390D02*
X163696714Y-105429485D01*
X164458618Y-106153295D02*
X164001475Y-106153295D01*
X164230047Y-106153295D02*
X164230047Y-105353295D01*
X164230047Y-105353295D02*
X164153856Y-105467580D01*
X164153856Y-105467580D02*
X164077666Y-105543771D01*
X164077666Y-105543771D02*
X164001475Y-105581866D01*
X164725285Y-105353295D02*
X165220523Y-105353295D01*
X165220523Y-105353295D02*
X164953857Y-105658057D01*
X164953857Y-105658057D02*
X165068142Y-105658057D01*
X165068142Y-105658057D02*
X165144333Y-105696152D01*
X165144333Y-105696152D02*
X165182428Y-105734247D01*
X165182428Y-105734247D02*
X165220523Y-105810438D01*
X165220523Y-105810438D02*
X165220523Y-106000914D01*
X165220523Y-106000914D02*
X165182428Y-106077104D01*
X165182428Y-106077104D02*
X165144333Y-106115200D01*
X165144333Y-106115200D02*
X165068142Y-106153295D01*
X165068142Y-106153295D02*
X164839571Y-106153295D01*
X164839571Y-106153295D02*
X164763380Y-106115200D01*
X164763380Y-106115200D02*
X164725285Y-106077104D01*
X142536104Y-93665252D02*
X142574200Y-93703348D01*
X142574200Y-93703348D02*
X142612295Y-93817633D01*
X142612295Y-93817633D02*
X142612295Y-93893824D01*
X142612295Y-93893824D02*
X142574200Y-94008110D01*
X142574200Y-94008110D02*
X142498009Y-94084300D01*
X142498009Y-94084300D02*
X142421819Y-94122395D01*
X142421819Y-94122395D02*
X142269438Y-94160491D01*
X142269438Y-94160491D02*
X142155152Y-94160491D01*
X142155152Y-94160491D02*
X142002771Y-94122395D01*
X142002771Y-94122395D02*
X141926580Y-94084300D01*
X141926580Y-94084300D02*
X141850390Y-94008110D01*
X141850390Y-94008110D02*
X141812295Y-93893824D01*
X141812295Y-93893824D02*
X141812295Y-93817633D01*
X141812295Y-93817633D02*
X141850390Y-93703348D01*
X141850390Y-93703348D02*
X141888485Y-93665252D01*
X142612295Y-92903348D02*
X142612295Y-93360491D01*
X142612295Y-93131919D02*
X141812295Y-93131919D01*
X141812295Y-93131919D02*
X141926580Y-93208110D01*
X141926580Y-93208110D02*
X142002771Y-93284300D01*
X142002771Y-93284300D02*
X142040866Y-93360491D01*
X163192319Y-101193824D02*
X164001842Y-101193824D01*
X164001842Y-101193824D02*
X164097080Y-101146205D01*
X164097080Y-101146205D02*
X164144700Y-101098586D01*
X164144700Y-101098586D02*
X164192319Y-101003348D01*
X164192319Y-101003348D02*
X164192319Y-100812872D01*
X164192319Y-100812872D02*
X164144700Y-100717634D01*
X164144700Y-100717634D02*
X164097080Y-100670015D01*
X164097080Y-100670015D02*
X164001842Y-100622396D01*
X164001842Y-100622396D02*
X163192319Y-100622396D01*
X163287557Y-100193824D02*
X163239938Y-100146205D01*
X163239938Y-100146205D02*
X163192319Y-100050967D01*
X163192319Y-100050967D02*
X163192319Y-99812872D01*
X163192319Y-99812872D02*
X163239938Y-99717634D01*
X163239938Y-99717634D02*
X163287557Y-99670015D01*
X163287557Y-99670015D02*
X163382795Y-99622396D01*
X163382795Y-99622396D02*
X163478033Y-99622396D01*
X163478033Y-99622396D02*
X163620890Y-99670015D01*
X163620890Y-99670015D02*
X164192319Y-100241443D01*
X164192319Y-100241443D02*
X164192319Y-99622396D01*
X137936104Y-92489285D02*
X137974200Y-92527381D01*
X137974200Y-92527381D02*
X138012295Y-92641666D01*
X138012295Y-92641666D02*
X138012295Y-92717857D01*
X138012295Y-92717857D02*
X137974200Y-92832143D01*
X137974200Y-92832143D02*
X137898009Y-92908333D01*
X137898009Y-92908333D02*
X137821819Y-92946428D01*
X137821819Y-92946428D02*
X137669438Y-92984524D01*
X137669438Y-92984524D02*
X137555152Y-92984524D01*
X137555152Y-92984524D02*
X137402771Y-92946428D01*
X137402771Y-92946428D02*
X137326580Y-92908333D01*
X137326580Y-92908333D02*
X137250390Y-92832143D01*
X137250390Y-92832143D02*
X137212295Y-92717857D01*
X137212295Y-92717857D02*
X137212295Y-92641666D01*
X137212295Y-92641666D02*
X137250390Y-92527381D01*
X137250390Y-92527381D02*
X137288485Y-92489285D01*
X137288485Y-92184524D02*
X137250390Y-92146428D01*
X137250390Y-92146428D02*
X137212295Y-92070238D01*
X137212295Y-92070238D02*
X137212295Y-91879762D01*
X137212295Y-91879762D02*
X137250390Y-91803571D01*
X137250390Y-91803571D02*
X137288485Y-91765476D01*
X137288485Y-91765476D02*
X137364676Y-91727381D01*
X137364676Y-91727381D02*
X137440866Y-91727381D01*
X137440866Y-91727381D02*
X137555152Y-91765476D01*
X137555152Y-91765476D02*
X138012295Y-92222619D01*
X138012295Y-92222619D02*
X138012295Y-91727381D01*
X137555152Y-91270238D02*
X137517057Y-91346428D01*
X137517057Y-91346428D02*
X137478961Y-91384523D01*
X137478961Y-91384523D02*
X137402771Y-91422619D01*
X137402771Y-91422619D02*
X137364676Y-91422619D01*
X137364676Y-91422619D02*
X137288485Y-91384523D01*
X137288485Y-91384523D02*
X137250390Y-91346428D01*
X137250390Y-91346428D02*
X137212295Y-91270238D01*
X137212295Y-91270238D02*
X137212295Y-91117857D01*
X137212295Y-91117857D02*
X137250390Y-91041666D01*
X137250390Y-91041666D02*
X137288485Y-91003571D01*
X137288485Y-91003571D02*
X137364676Y-90965476D01*
X137364676Y-90965476D02*
X137402771Y-90965476D01*
X137402771Y-90965476D02*
X137478961Y-91003571D01*
X137478961Y-91003571D02*
X137517057Y-91041666D01*
X137517057Y-91041666D02*
X137555152Y-91117857D01*
X137555152Y-91117857D02*
X137555152Y-91270238D01*
X137555152Y-91270238D02*
X137593247Y-91346428D01*
X137593247Y-91346428D02*
X137631342Y-91384523D01*
X137631342Y-91384523D02*
X137707533Y-91422619D01*
X137707533Y-91422619D02*
X137859914Y-91422619D01*
X137859914Y-91422619D02*
X137936104Y-91384523D01*
X137936104Y-91384523D02*
X137974200Y-91346428D01*
X137974200Y-91346428D02*
X138012295Y-91270238D01*
X138012295Y-91270238D02*
X138012295Y-91117857D01*
X138012295Y-91117857D02*
X137974200Y-91041666D01*
X137974200Y-91041666D02*
X137936104Y-91003571D01*
X137936104Y-91003571D02*
X137859914Y-90965476D01*
X137859914Y-90965476D02*
X137707533Y-90965476D01*
X137707533Y-90965476D02*
X137631342Y-91003571D01*
X137631342Y-91003571D02*
X137593247Y-91041666D01*
X137593247Y-91041666D02*
X137555152Y-91117857D01*
X156003214Y-94694215D02*
X155736547Y-94313262D01*
X155546071Y-94694215D02*
X155546071Y-93894215D01*
X155546071Y-93894215D02*
X155850833Y-93894215D01*
X155850833Y-93894215D02*
X155927023Y-93932310D01*
X155927023Y-93932310D02*
X155965118Y-93970405D01*
X155965118Y-93970405D02*
X156003214Y-94046596D01*
X156003214Y-94046596D02*
X156003214Y-94160881D01*
X156003214Y-94160881D02*
X155965118Y-94237072D01*
X155965118Y-94237072D02*
X155927023Y-94275167D01*
X155927023Y-94275167D02*
X155850833Y-94313262D01*
X155850833Y-94313262D02*
X155546071Y-94313262D01*
X156765118Y-94694215D02*
X156307975Y-94694215D01*
X156536547Y-94694215D02*
X156536547Y-93894215D01*
X156536547Y-93894215D02*
X156460356Y-94008500D01*
X156460356Y-94008500D02*
X156384166Y-94084691D01*
X156384166Y-94084691D02*
X156307975Y-94122786D01*
X157450833Y-94160881D02*
X157450833Y-94694215D01*
X157260357Y-93856120D02*
X157069880Y-94427548D01*
X157069880Y-94427548D02*
X157565119Y-94427548D01*
X140506514Y-75038295D02*
X140239847Y-74657342D01*
X140049371Y-75038295D02*
X140049371Y-74238295D01*
X140049371Y-74238295D02*
X140354133Y-74238295D01*
X140354133Y-74238295D02*
X140430323Y-74276390D01*
X140430323Y-74276390D02*
X140468418Y-74314485D01*
X140468418Y-74314485D02*
X140506514Y-74390676D01*
X140506514Y-74390676D02*
X140506514Y-74504961D01*
X140506514Y-74504961D02*
X140468418Y-74581152D01*
X140468418Y-74581152D02*
X140430323Y-74619247D01*
X140430323Y-74619247D02*
X140354133Y-74657342D01*
X140354133Y-74657342D02*
X140049371Y-74657342D01*
X141268418Y-75038295D02*
X140811275Y-75038295D01*
X141039847Y-75038295D02*
X141039847Y-74238295D01*
X141039847Y-74238295D02*
X140963656Y-74352580D01*
X140963656Y-74352580D02*
X140887466Y-74428771D01*
X140887466Y-74428771D02*
X140811275Y-74466866D01*
X141573180Y-74314485D02*
X141611276Y-74276390D01*
X141611276Y-74276390D02*
X141687466Y-74238295D01*
X141687466Y-74238295D02*
X141877942Y-74238295D01*
X141877942Y-74238295D02*
X141954133Y-74276390D01*
X141954133Y-74276390D02*
X141992228Y-74314485D01*
X141992228Y-74314485D02*
X142030323Y-74390676D01*
X142030323Y-74390676D02*
X142030323Y-74466866D01*
X142030323Y-74466866D02*
X141992228Y-74581152D01*
X141992228Y-74581152D02*
X141535085Y-75038295D01*
X141535085Y-75038295D02*
X142030323Y-75038295D01*
X154633214Y-79694215D02*
X154366547Y-79313262D01*
X154176071Y-79694215D02*
X154176071Y-78894215D01*
X154176071Y-78894215D02*
X154480833Y-78894215D01*
X154480833Y-78894215D02*
X154557023Y-78932310D01*
X154557023Y-78932310D02*
X154595118Y-78970405D01*
X154595118Y-78970405D02*
X154633214Y-79046596D01*
X154633214Y-79046596D02*
X154633214Y-79160881D01*
X154633214Y-79160881D02*
X154595118Y-79237072D01*
X154595118Y-79237072D02*
X154557023Y-79275167D01*
X154557023Y-79275167D02*
X154480833Y-79313262D01*
X154480833Y-79313262D02*
X154176071Y-79313262D01*
X154937975Y-78970405D02*
X154976071Y-78932310D01*
X154976071Y-78932310D02*
X155052261Y-78894215D01*
X155052261Y-78894215D02*
X155242737Y-78894215D01*
X155242737Y-78894215D02*
X155318928Y-78932310D01*
X155318928Y-78932310D02*
X155357023Y-78970405D01*
X155357023Y-78970405D02*
X155395118Y-79046596D01*
X155395118Y-79046596D02*
X155395118Y-79122786D01*
X155395118Y-79122786D02*
X155357023Y-79237072D01*
X155357023Y-79237072D02*
X154899880Y-79694215D01*
X154899880Y-79694215D02*
X155395118Y-79694215D01*
X155776071Y-79694215D02*
X155928452Y-79694215D01*
X155928452Y-79694215D02*
X156004642Y-79656120D01*
X156004642Y-79656120D02*
X156042738Y-79618024D01*
X156042738Y-79618024D02*
X156118928Y-79503739D01*
X156118928Y-79503739D02*
X156157023Y-79351358D01*
X156157023Y-79351358D02*
X156157023Y-79046596D01*
X156157023Y-79046596D02*
X156118928Y-78970405D01*
X156118928Y-78970405D02*
X156080833Y-78932310D01*
X156080833Y-78932310D02*
X156004642Y-78894215D01*
X156004642Y-78894215D02*
X155852261Y-78894215D01*
X155852261Y-78894215D02*
X155776071Y-78932310D01*
X155776071Y-78932310D02*
X155737976Y-78970405D01*
X155737976Y-78970405D02*
X155699880Y-79046596D01*
X155699880Y-79046596D02*
X155699880Y-79237072D01*
X155699880Y-79237072D02*
X155737976Y-79313262D01*
X155737976Y-79313262D02*
X155776071Y-79351358D01*
X155776071Y-79351358D02*
X155852261Y-79389453D01*
X155852261Y-79389453D02*
X156004642Y-79389453D01*
X156004642Y-79389453D02*
X156080833Y-79351358D01*
X156080833Y-79351358D02*
X156118928Y-79313262D01*
X156118928Y-79313262D02*
X156157023Y-79237072D01*
X155716667Y-102937295D02*
X155450000Y-102556342D01*
X155259524Y-102937295D02*
X155259524Y-102137295D01*
X155259524Y-102137295D02*
X155564286Y-102137295D01*
X155564286Y-102137295D02*
X155640476Y-102175390D01*
X155640476Y-102175390D02*
X155678571Y-102213485D01*
X155678571Y-102213485D02*
X155716667Y-102289676D01*
X155716667Y-102289676D02*
X155716667Y-102403961D01*
X155716667Y-102403961D02*
X155678571Y-102480152D01*
X155678571Y-102480152D02*
X155640476Y-102518247D01*
X155640476Y-102518247D02*
X155564286Y-102556342D01*
X155564286Y-102556342D02*
X155259524Y-102556342D01*
X156097619Y-102937295D02*
X156250000Y-102937295D01*
X156250000Y-102937295D02*
X156326190Y-102899200D01*
X156326190Y-102899200D02*
X156364286Y-102861104D01*
X156364286Y-102861104D02*
X156440476Y-102746819D01*
X156440476Y-102746819D02*
X156478571Y-102594438D01*
X156478571Y-102594438D02*
X156478571Y-102289676D01*
X156478571Y-102289676D02*
X156440476Y-102213485D01*
X156440476Y-102213485D02*
X156402381Y-102175390D01*
X156402381Y-102175390D02*
X156326190Y-102137295D01*
X156326190Y-102137295D02*
X156173809Y-102137295D01*
X156173809Y-102137295D02*
X156097619Y-102175390D01*
X156097619Y-102175390D02*
X156059524Y-102213485D01*
X156059524Y-102213485D02*
X156021428Y-102289676D01*
X156021428Y-102289676D02*
X156021428Y-102480152D01*
X156021428Y-102480152D02*
X156059524Y-102556342D01*
X156059524Y-102556342D02*
X156097619Y-102594438D01*
X156097619Y-102594438D02*
X156173809Y-102632533D01*
X156173809Y-102632533D02*
X156326190Y-102632533D01*
X156326190Y-102632533D02*
X156402381Y-102594438D01*
X156402381Y-102594438D02*
X156440476Y-102556342D01*
X156440476Y-102556342D02*
X156478571Y-102480152D01*
X165358714Y-83946104D02*
X165320618Y-83984200D01*
X165320618Y-83984200D02*
X165206333Y-84022295D01*
X165206333Y-84022295D02*
X165130142Y-84022295D01*
X165130142Y-84022295D02*
X165015856Y-83984200D01*
X165015856Y-83984200D02*
X164939666Y-83908009D01*
X164939666Y-83908009D02*
X164901571Y-83831819D01*
X164901571Y-83831819D02*
X164863475Y-83679438D01*
X164863475Y-83679438D02*
X164863475Y-83565152D01*
X164863475Y-83565152D02*
X164901571Y-83412771D01*
X164901571Y-83412771D02*
X164939666Y-83336580D01*
X164939666Y-83336580D02*
X165015856Y-83260390D01*
X165015856Y-83260390D02*
X165130142Y-83222295D01*
X165130142Y-83222295D02*
X165206333Y-83222295D01*
X165206333Y-83222295D02*
X165320618Y-83260390D01*
X165320618Y-83260390D02*
X165358714Y-83298485D01*
X166120618Y-84022295D02*
X165663475Y-84022295D01*
X165892047Y-84022295D02*
X165892047Y-83222295D01*
X165892047Y-83222295D02*
X165815856Y-83336580D01*
X165815856Y-83336580D02*
X165739666Y-83412771D01*
X165739666Y-83412771D02*
X165663475Y-83450866D01*
X166501571Y-84022295D02*
X166653952Y-84022295D01*
X166653952Y-84022295D02*
X166730142Y-83984200D01*
X166730142Y-83984200D02*
X166768238Y-83946104D01*
X166768238Y-83946104D02*
X166844428Y-83831819D01*
X166844428Y-83831819D02*
X166882523Y-83679438D01*
X166882523Y-83679438D02*
X166882523Y-83374676D01*
X166882523Y-83374676D02*
X166844428Y-83298485D01*
X166844428Y-83298485D02*
X166806333Y-83260390D01*
X166806333Y-83260390D02*
X166730142Y-83222295D01*
X166730142Y-83222295D02*
X166577761Y-83222295D01*
X166577761Y-83222295D02*
X166501571Y-83260390D01*
X166501571Y-83260390D02*
X166463476Y-83298485D01*
X166463476Y-83298485D02*
X166425380Y-83374676D01*
X166425380Y-83374676D02*
X166425380Y-83565152D01*
X166425380Y-83565152D02*
X166463476Y-83641342D01*
X166463476Y-83641342D02*
X166501571Y-83679438D01*
X166501571Y-83679438D02*
X166577761Y-83717533D01*
X166577761Y-83717533D02*
X166730142Y-83717533D01*
X166730142Y-83717533D02*
X166806333Y-83679438D01*
X166806333Y-83679438D02*
X166844428Y-83641342D01*
X166844428Y-83641342D02*
X166882523Y-83565152D01*
X161335714Y-96487295D02*
X161069047Y-96106342D01*
X160878571Y-96487295D02*
X160878571Y-95687295D01*
X160878571Y-95687295D02*
X161183333Y-95687295D01*
X161183333Y-95687295D02*
X161259523Y-95725390D01*
X161259523Y-95725390D02*
X161297618Y-95763485D01*
X161297618Y-95763485D02*
X161335714Y-95839676D01*
X161335714Y-95839676D02*
X161335714Y-95953961D01*
X161335714Y-95953961D02*
X161297618Y-96030152D01*
X161297618Y-96030152D02*
X161259523Y-96068247D01*
X161259523Y-96068247D02*
X161183333Y-96106342D01*
X161183333Y-96106342D02*
X160878571Y-96106342D01*
X162097618Y-96487295D02*
X161640475Y-96487295D01*
X161869047Y-96487295D02*
X161869047Y-95687295D01*
X161869047Y-95687295D02*
X161792856Y-95801580D01*
X161792856Y-95801580D02*
X161716666Y-95877771D01*
X161716666Y-95877771D02*
X161640475Y-95915866D01*
X162859523Y-96487295D02*
X162402380Y-96487295D01*
X162630952Y-96487295D02*
X162630952Y-95687295D01*
X162630952Y-95687295D02*
X162554761Y-95801580D01*
X162554761Y-95801580D02*
X162478571Y-95877771D01*
X162478571Y-95877771D02*
X162402380Y-95915866D01*
X115696666Y-105414819D02*
X115696666Y-106129104D01*
X115696666Y-106129104D02*
X115649047Y-106271961D01*
X115649047Y-106271961D02*
X115553809Y-106367200D01*
X115553809Y-106367200D02*
X115410952Y-106414819D01*
X115410952Y-106414819D02*
X115315714Y-106414819D01*
X116125238Y-105510057D02*
X116172857Y-105462438D01*
X116172857Y-105462438D02*
X116268095Y-105414819D01*
X116268095Y-105414819D02*
X116506190Y-105414819D01*
X116506190Y-105414819D02*
X116601428Y-105462438D01*
X116601428Y-105462438D02*
X116649047Y-105510057D01*
X116649047Y-105510057D02*
X116696666Y-105605295D01*
X116696666Y-105605295D02*
X116696666Y-105700533D01*
X116696666Y-105700533D02*
X116649047Y-105843390D01*
X116649047Y-105843390D02*
X116077619Y-106414819D01*
X116077619Y-106414819D02*
X116696666Y-106414819D01*
X141536104Y-94046205D02*
X141574200Y-94084301D01*
X141574200Y-94084301D02*
X141612295Y-94198586D01*
X141612295Y-94198586D02*
X141612295Y-94274777D01*
X141612295Y-94274777D02*
X141574200Y-94389063D01*
X141574200Y-94389063D02*
X141498009Y-94465253D01*
X141498009Y-94465253D02*
X141421819Y-94503348D01*
X141421819Y-94503348D02*
X141269438Y-94541444D01*
X141269438Y-94541444D02*
X141155152Y-94541444D01*
X141155152Y-94541444D02*
X141002771Y-94503348D01*
X141002771Y-94503348D02*
X140926580Y-94465253D01*
X140926580Y-94465253D02*
X140850390Y-94389063D01*
X140850390Y-94389063D02*
X140812295Y-94274777D01*
X140812295Y-94274777D02*
X140812295Y-94198586D01*
X140812295Y-94198586D02*
X140850390Y-94084301D01*
X140850390Y-94084301D02*
X140888485Y-94046205D01*
X141612295Y-93284301D02*
X141612295Y-93741444D01*
X141612295Y-93512872D02*
X140812295Y-93512872D01*
X140812295Y-93512872D02*
X140926580Y-93589063D01*
X140926580Y-93589063D02*
X141002771Y-93665253D01*
X141002771Y-93665253D02*
X141040866Y-93741444D01*
X141612295Y-92522396D02*
X141612295Y-92979539D01*
X141612295Y-92750967D02*
X140812295Y-92750967D01*
X140812295Y-92750967D02*
X140926580Y-92827158D01*
X140926580Y-92827158D02*
X141002771Y-92903348D01*
X141002771Y-92903348D02*
X141040866Y-92979539D01*
X164185714Y-80194215D02*
X163919047Y-79813262D01*
X163728571Y-80194215D02*
X163728571Y-79394215D01*
X163728571Y-79394215D02*
X164033333Y-79394215D01*
X164033333Y-79394215D02*
X164109523Y-79432310D01*
X164109523Y-79432310D02*
X164147618Y-79470405D01*
X164147618Y-79470405D02*
X164185714Y-79546596D01*
X164185714Y-79546596D02*
X164185714Y-79660881D01*
X164185714Y-79660881D02*
X164147618Y-79737072D01*
X164147618Y-79737072D02*
X164109523Y-79775167D01*
X164109523Y-79775167D02*
X164033333Y-79813262D01*
X164033333Y-79813262D02*
X163728571Y-79813262D01*
X164947618Y-80194215D02*
X164490475Y-80194215D01*
X164719047Y-80194215D02*
X164719047Y-79394215D01*
X164719047Y-79394215D02*
X164642856Y-79508500D01*
X164642856Y-79508500D02*
X164566666Y-79584691D01*
X164566666Y-79584691D02*
X164490475Y-79622786D01*
X165404761Y-79737072D02*
X165328571Y-79698977D01*
X165328571Y-79698977D02*
X165290476Y-79660881D01*
X165290476Y-79660881D02*
X165252380Y-79584691D01*
X165252380Y-79584691D02*
X165252380Y-79546596D01*
X165252380Y-79546596D02*
X165290476Y-79470405D01*
X165290476Y-79470405D02*
X165328571Y-79432310D01*
X165328571Y-79432310D02*
X165404761Y-79394215D01*
X165404761Y-79394215D02*
X165557142Y-79394215D01*
X165557142Y-79394215D02*
X165633333Y-79432310D01*
X165633333Y-79432310D02*
X165671428Y-79470405D01*
X165671428Y-79470405D02*
X165709523Y-79546596D01*
X165709523Y-79546596D02*
X165709523Y-79584691D01*
X165709523Y-79584691D02*
X165671428Y-79660881D01*
X165671428Y-79660881D02*
X165633333Y-79698977D01*
X165633333Y-79698977D02*
X165557142Y-79737072D01*
X165557142Y-79737072D02*
X165404761Y-79737072D01*
X165404761Y-79737072D02*
X165328571Y-79775167D01*
X165328571Y-79775167D02*
X165290476Y-79813262D01*
X165290476Y-79813262D02*
X165252380Y-79889453D01*
X165252380Y-79889453D02*
X165252380Y-80041834D01*
X165252380Y-80041834D02*
X165290476Y-80118024D01*
X165290476Y-80118024D02*
X165328571Y-80156120D01*
X165328571Y-80156120D02*
X165404761Y-80194215D01*
X165404761Y-80194215D02*
X165557142Y-80194215D01*
X165557142Y-80194215D02*
X165633333Y-80156120D01*
X165633333Y-80156120D02*
X165671428Y-80118024D01*
X165671428Y-80118024D02*
X165709523Y-80041834D01*
X165709523Y-80041834D02*
X165709523Y-79889453D01*
X165709523Y-79889453D02*
X165671428Y-79813262D01*
X165671428Y-79813262D02*
X165633333Y-79775167D01*
X165633333Y-79775167D02*
X165557142Y-79737072D01*
X168220819Y-89233333D02*
X168935104Y-89233333D01*
X168935104Y-89233333D02*
X169077961Y-89280952D01*
X169077961Y-89280952D02*
X169173200Y-89376190D01*
X169173200Y-89376190D02*
X169220819Y-89519047D01*
X169220819Y-89519047D02*
X169220819Y-89614285D01*
X169220819Y-88233333D02*
X169220819Y-88804761D01*
X169220819Y-88519047D02*
X168220819Y-88519047D01*
X168220819Y-88519047D02*
X168363676Y-88614285D01*
X168363676Y-88614285D02*
X168458914Y-88709523D01*
X168458914Y-88709523D02*
X168506533Y-88804761D01*
X146085714Y-116664215D02*
X145819047Y-116283262D01*
X145628571Y-116664215D02*
X145628571Y-115864215D01*
X145628571Y-115864215D02*
X145933333Y-115864215D01*
X145933333Y-115864215D02*
X146009523Y-115902310D01*
X146009523Y-115902310D02*
X146047618Y-115940405D01*
X146047618Y-115940405D02*
X146085714Y-116016596D01*
X146085714Y-116016596D02*
X146085714Y-116130881D01*
X146085714Y-116130881D02*
X146047618Y-116207072D01*
X146047618Y-116207072D02*
X146009523Y-116245167D01*
X146009523Y-116245167D02*
X145933333Y-116283262D01*
X145933333Y-116283262D02*
X145628571Y-116283262D01*
X146390475Y-115940405D02*
X146428571Y-115902310D01*
X146428571Y-115902310D02*
X146504761Y-115864215D01*
X146504761Y-115864215D02*
X146695237Y-115864215D01*
X146695237Y-115864215D02*
X146771428Y-115902310D01*
X146771428Y-115902310D02*
X146809523Y-115940405D01*
X146809523Y-115940405D02*
X146847618Y-116016596D01*
X146847618Y-116016596D02*
X146847618Y-116092786D01*
X146847618Y-116092786D02*
X146809523Y-116207072D01*
X146809523Y-116207072D02*
X146352380Y-116664215D01*
X146352380Y-116664215D02*
X146847618Y-116664215D01*
X147342857Y-115864215D02*
X147419047Y-115864215D01*
X147419047Y-115864215D02*
X147495238Y-115902310D01*
X147495238Y-115902310D02*
X147533333Y-115940405D01*
X147533333Y-115940405D02*
X147571428Y-116016596D01*
X147571428Y-116016596D02*
X147609523Y-116168977D01*
X147609523Y-116168977D02*
X147609523Y-116359453D01*
X147609523Y-116359453D02*
X147571428Y-116511834D01*
X147571428Y-116511834D02*
X147533333Y-116588024D01*
X147533333Y-116588024D02*
X147495238Y-116626120D01*
X147495238Y-116626120D02*
X147419047Y-116664215D01*
X147419047Y-116664215D02*
X147342857Y-116664215D01*
X147342857Y-116664215D02*
X147266666Y-116626120D01*
X147266666Y-116626120D02*
X147228571Y-116588024D01*
X147228571Y-116588024D02*
X147190476Y-116511834D01*
X147190476Y-116511834D02*
X147152380Y-116359453D01*
X147152380Y-116359453D02*
X147152380Y-116168977D01*
X147152380Y-116168977D02*
X147190476Y-116016596D01*
X147190476Y-116016596D02*
X147228571Y-115940405D01*
X147228571Y-115940405D02*
X147266666Y-115902310D01*
X147266666Y-115902310D02*
X147342857Y-115864215D01*
X151938095Y-86034739D02*
X152509523Y-86034739D01*
X152223809Y-87034739D02*
X152223809Y-86034739D01*
X152842857Y-87034739D02*
X152842857Y-86034739D01*
X152842857Y-86034739D02*
X153223809Y-86034739D01*
X153223809Y-86034739D02*
X153319047Y-86082358D01*
X153319047Y-86082358D02*
X153366666Y-86129977D01*
X153366666Y-86129977D02*
X153414285Y-86225215D01*
X153414285Y-86225215D02*
X153414285Y-86368072D01*
X153414285Y-86368072D02*
X153366666Y-86463310D01*
X153366666Y-86463310D02*
X153319047Y-86510929D01*
X153319047Y-86510929D02*
X153223809Y-86558548D01*
X153223809Y-86558548D02*
X152842857Y-86558548D01*
X154366666Y-87034739D02*
X153795238Y-87034739D01*
X154080952Y-87034739D02*
X154080952Y-86034739D01*
X154080952Y-86034739D02*
X153985714Y-86177596D01*
X153985714Y-86177596D02*
X153890476Y-86272834D01*
X153890476Y-86272834D02*
X153795238Y-86320453D01*
X148135714Y-73930375D02*
X147869047Y-73549422D01*
X147678571Y-73930375D02*
X147678571Y-73130375D01*
X147678571Y-73130375D02*
X147983333Y-73130375D01*
X147983333Y-73130375D02*
X148059523Y-73168470D01*
X148059523Y-73168470D02*
X148097618Y-73206565D01*
X148097618Y-73206565D02*
X148135714Y-73282756D01*
X148135714Y-73282756D02*
X148135714Y-73397041D01*
X148135714Y-73397041D02*
X148097618Y-73473232D01*
X148097618Y-73473232D02*
X148059523Y-73511327D01*
X148059523Y-73511327D02*
X147983333Y-73549422D01*
X147983333Y-73549422D02*
X147678571Y-73549422D01*
X148440475Y-73206565D02*
X148478571Y-73168470D01*
X148478571Y-73168470D02*
X148554761Y-73130375D01*
X148554761Y-73130375D02*
X148745237Y-73130375D01*
X148745237Y-73130375D02*
X148821428Y-73168470D01*
X148821428Y-73168470D02*
X148859523Y-73206565D01*
X148859523Y-73206565D02*
X148897618Y-73282756D01*
X148897618Y-73282756D02*
X148897618Y-73358946D01*
X148897618Y-73358946D02*
X148859523Y-73473232D01*
X148859523Y-73473232D02*
X148402380Y-73930375D01*
X148402380Y-73930375D02*
X148897618Y-73930375D01*
X149583333Y-73130375D02*
X149430952Y-73130375D01*
X149430952Y-73130375D02*
X149354761Y-73168470D01*
X149354761Y-73168470D02*
X149316666Y-73206565D01*
X149316666Y-73206565D02*
X149240476Y-73320851D01*
X149240476Y-73320851D02*
X149202380Y-73473232D01*
X149202380Y-73473232D02*
X149202380Y-73777994D01*
X149202380Y-73777994D02*
X149240476Y-73854184D01*
X149240476Y-73854184D02*
X149278571Y-73892280D01*
X149278571Y-73892280D02*
X149354761Y-73930375D01*
X149354761Y-73930375D02*
X149507142Y-73930375D01*
X149507142Y-73930375D02*
X149583333Y-73892280D01*
X149583333Y-73892280D02*
X149621428Y-73854184D01*
X149621428Y-73854184D02*
X149659523Y-73777994D01*
X149659523Y-73777994D02*
X149659523Y-73587518D01*
X149659523Y-73587518D02*
X149621428Y-73511327D01*
X149621428Y-73511327D02*
X149583333Y-73473232D01*
X149583333Y-73473232D02*
X149507142Y-73435137D01*
X149507142Y-73435137D02*
X149354761Y-73435137D01*
X149354761Y-73435137D02*
X149278571Y-73473232D01*
X149278571Y-73473232D02*
X149240476Y-73511327D01*
X149240476Y-73511327D02*
X149202380Y-73587518D01*
X162245295Y-125625365D02*
X161864342Y-125892032D01*
X162245295Y-126082508D02*
X161445295Y-126082508D01*
X161445295Y-126082508D02*
X161445295Y-125777746D01*
X161445295Y-125777746D02*
X161483390Y-125701556D01*
X161483390Y-125701556D02*
X161521485Y-125663461D01*
X161521485Y-125663461D02*
X161597676Y-125625365D01*
X161597676Y-125625365D02*
X161711961Y-125625365D01*
X161711961Y-125625365D02*
X161788152Y-125663461D01*
X161788152Y-125663461D02*
X161826247Y-125701556D01*
X161826247Y-125701556D02*
X161864342Y-125777746D01*
X161864342Y-125777746D02*
X161864342Y-126082508D01*
X161521485Y-125320604D02*
X161483390Y-125282508D01*
X161483390Y-125282508D02*
X161445295Y-125206318D01*
X161445295Y-125206318D02*
X161445295Y-125015842D01*
X161445295Y-125015842D02*
X161483390Y-124939651D01*
X161483390Y-124939651D02*
X161521485Y-124901556D01*
X161521485Y-124901556D02*
X161597676Y-124863461D01*
X161597676Y-124863461D02*
X161673866Y-124863461D01*
X161673866Y-124863461D02*
X161788152Y-124901556D01*
X161788152Y-124901556D02*
X162245295Y-125358699D01*
X162245295Y-125358699D02*
X162245295Y-124863461D01*
X161711961Y-124177746D02*
X162245295Y-124177746D01*
X161407200Y-124368222D02*
X161978628Y-124558699D01*
X161978628Y-124558699D02*
X161978628Y-124063460D01*
X161335714Y-97436104D02*
X161297618Y-97474200D01*
X161297618Y-97474200D02*
X161183333Y-97512295D01*
X161183333Y-97512295D02*
X161107142Y-97512295D01*
X161107142Y-97512295D02*
X160992856Y-97474200D01*
X160992856Y-97474200D02*
X160916666Y-97398009D01*
X160916666Y-97398009D02*
X160878571Y-97321819D01*
X160878571Y-97321819D02*
X160840475Y-97169438D01*
X160840475Y-97169438D02*
X160840475Y-97055152D01*
X160840475Y-97055152D02*
X160878571Y-96902771D01*
X160878571Y-96902771D02*
X160916666Y-96826580D01*
X160916666Y-96826580D02*
X160992856Y-96750390D01*
X160992856Y-96750390D02*
X161107142Y-96712295D01*
X161107142Y-96712295D02*
X161183333Y-96712295D01*
X161183333Y-96712295D02*
X161297618Y-96750390D01*
X161297618Y-96750390D02*
X161335714Y-96788485D01*
X162097618Y-97512295D02*
X161640475Y-97512295D01*
X161869047Y-97512295D02*
X161869047Y-96712295D01*
X161869047Y-96712295D02*
X161792856Y-96826580D01*
X161792856Y-96826580D02*
X161716666Y-96902771D01*
X161716666Y-96902771D02*
X161640475Y-96940866D01*
X162402380Y-96788485D02*
X162440476Y-96750390D01*
X162440476Y-96750390D02*
X162516666Y-96712295D01*
X162516666Y-96712295D02*
X162707142Y-96712295D01*
X162707142Y-96712295D02*
X162783333Y-96750390D01*
X162783333Y-96750390D02*
X162821428Y-96788485D01*
X162821428Y-96788485D02*
X162859523Y-96864676D01*
X162859523Y-96864676D02*
X162859523Y-96940866D01*
X162859523Y-96940866D02*
X162821428Y-97055152D01*
X162821428Y-97055152D02*
X162364285Y-97512295D01*
X162364285Y-97512295D02*
X162859523Y-97512295D01*
X135557142Y-74214819D02*
X135223809Y-73738628D01*
X134985714Y-74214819D02*
X134985714Y-73214819D01*
X134985714Y-73214819D02*
X135366666Y-73214819D01*
X135366666Y-73214819D02*
X135461904Y-73262438D01*
X135461904Y-73262438D02*
X135509523Y-73310057D01*
X135509523Y-73310057D02*
X135557142Y-73405295D01*
X135557142Y-73405295D02*
X135557142Y-73548152D01*
X135557142Y-73548152D02*
X135509523Y-73643390D01*
X135509523Y-73643390D02*
X135461904Y-73691009D01*
X135461904Y-73691009D02*
X135366666Y-73738628D01*
X135366666Y-73738628D02*
X134985714Y-73738628D01*
X135938095Y-73310057D02*
X135985714Y-73262438D01*
X135985714Y-73262438D02*
X136080952Y-73214819D01*
X136080952Y-73214819D02*
X136319047Y-73214819D01*
X136319047Y-73214819D02*
X136414285Y-73262438D01*
X136414285Y-73262438D02*
X136461904Y-73310057D01*
X136461904Y-73310057D02*
X136509523Y-73405295D01*
X136509523Y-73405295D02*
X136509523Y-73500533D01*
X136509523Y-73500533D02*
X136461904Y-73643390D01*
X136461904Y-73643390D02*
X135890476Y-74214819D01*
X135890476Y-74214819D02*
X136509523Y-74214819D01*
X136890476Y-73310057D02*
X136938095Y-73262438D01*
X136938095Y-73262438D02*
X137033333Y-73214819D01*
X137033333Y-73214819D02*
X137271428Y-73214819D01*
X137271428Y-73214819D02*
X137366666Y-73262438D01*
X137366666Y-73262438D02*
X137414285Y-73310057D01*
X137414285Y-73310057D02*
X137461904Y-73405295D01*
X137461904Y-73405295D02*
X137461904Y-73500533D01*
X137461904Y-73500533D02*
X137414285Y-73643390D01*
X137414285Y-73643390D02*
X136842857Y-74214819D01*
X136842857Y-74214819D02*
X137461904Y-74214819D01*
X137085714Y-76286104D02*
X137047618Y-76324200D01*
X137047618Y-76324200D02*
X136933333Y-76362295D01*
X136933333Y-76362295D02*
X136857142Y-76362295D01*
X136857142Y-76362295D02*
X136742856Y-76324200D01*
X136742856Y-76324200D02*
X136666666Y-76248009D01*
X136666666Y-76248009D02*
X136628571Y-76171819D01*
X136628571Y-76171819D02*
X136590475Y-76019438D01*
X136590475Y-76019438D02*
X136590475Y-75905152D01*
X136590475Y-75905152D02*
X136628571Y-75752771D01*
X136628571Y-75752771D02*
X136666666Y-75676580D01*
X136666666Y-75676580D02*
X136742856Y-75600390D01*
X136742856Y-75600390D02*
X136857142Y-75562295D01*
X136857142Y-75562295D02*
X136933333Y-75562295D01*
X136933333Y-75562295D02*
X137047618Y-75600390D01*
X137047618Y-75600390D02*
X137085714Y-75638485D01*
X137390475Y-75638485D02*
X137428571Y-75600390D01*
X137428571Y-75600390D02*
X137504761Y-75562295D01*
X137504761Y-75562295D02*
X137695237Y-75562295D01*
X137695237Y-75562295D02*
X137771428Y-75600390D01*
X137771428Y-75600390D02*
X137809523Y-75638485D01*
X137809523Y-75638485D02*
X137847618Y-75714676D01*
X137847618Y-75714676D02*
X137847618Y-75790866D01*
X137847618Y-75790866D02*
X137809523Y-75905152D01*
X137809523Y-75905152D02*
X137352380Y-76362295D01*
X137352380Y-76362295D02*
X137847618Y-76362295D01*
X138533333Y-75562295D02*
X138380952Y-75562295D01*
X138380952Y-75562295D02*
X138304761Y-75600390D01*
X138304761Y-75600390D02*
X138266666Y-75638485D01*
X138266666Y-75638485D02*
X138190476Y-75752771D01*
X138190476Y-75752771D02*
X138152380Y-75905152D01*
X138152380Y-75905152D02*
X138152380Y-76209914D01*
X138152380Y-76209914D02*
X138190476Y-76286104D01*
X138190476Y-76286104D02*
X138228571Y-76324200D01*
X138228571Y-76324200D02*
X138304761Y-76362295D01*
X138304761Y-76362295D02*
X138457142Y-76362295D01*
X138457142Y-76362295D02*
X138533333Y-76324200D01*
X138533333Y-76324200D02*
X138571428Y-76286104D01*
X138571428Y-76286104D02*
X138609523Y-76209914D01*
X138609523Y-76209914D02*
X138609523Y-76019438D01*
X138609523Y-76019438D02*
X138571428Y-75943247D01*
X138571428Y-75943247D02*
X138533333Y-75905152D01*
X138533333Y-75905152D02*
X138457142Y-75867057D01*
X138457142Y-75867057D02*
X138304761Y-75867057D01*
X138304761Y-75867057D02*
X138228571Y-75905152D01*
X138228571Y-75905152D02*
X138190476Y-75943247D01*
X138190476Y-75943247D02*
X138152380Y-76019438D01*
X145266667Y-72686104D02*
X145228571Y-72724200D01*
X145228571Y-72724200D02*
X145114286Y-72762295D01*
X145114286Y-72762295D02*
X145038095Y-72762295D01*
X145038095Y-72762295D02*
X144923809Y-72724200D01*
X144923809Y-72724200D02*
X144847619Y-72648009D01*
X144847619Y-72648009D02*
X144809524Y-72571819D01*
X144809524Y-72571819D02*
X144771428Y-72419438D01*
X144771428Y-72419438D02*
X144771428Y-72305152D01*
X144771428Y-72305152D02*
X144809524Y-72152771D01*
X144809524Y-72152771D02*
X144847619Y-72076580D01*
X144847619Y-72076580D02*
X144923809Y-72000390D01*
X144923809Y-72000390D02*
X145038095Y-71962295D01*
X145038095Y-71962295D02*
X145114286Y-71962295D01*
X145114286Y-71962295D02*
X145228571Y-72000390D01*
X145228571Y-72000390D02*
X145266667Y-72038485D01*
X145647619Y-72762295D02*
X145800000Y-72762295D01*
X145800000Y-72762295D02*
X145876190Y-72724200D01*
X145876190Y-72724200D02*
X145914286Y-72686104D01*
X145914286Y-72686104D02*
X145990476Y-72571819D01*
X145990476Y-72571819D02*
X146028571Y-72419438D01*
X146028571Y-72419438D02*
X146028571Y-72114676D01*
X146028571Y-72114676D02*
X145990476Y-72038485D01*
X145990476Y-72038485D02*
X145952381Y-72000390D01*
X145952381Y-72000390D02*
X145876190Y-71962295D01*
X145876190Y-71962295D02*
X145723809Y-71962295D01*
X145723809Y-71962295D02*
X145647619Y-72000390D01*
X145647619Y-72000390D02*
X145609524Y-72038485D01*
X145609524Y-72038485D02*
X145571428Y-72114676D01*
X145571428Y-72114676D02*
X145571428Y-72305152D01*
X145571428Y-72305152D02*
X145609524Y-72381342D01*
X145609524Y-72381342D02*
X145647619Y-72419438D01*
X145647619Y-72419438D02*
X145723809Y-72457533D01*
X145723809Y-72457533D02*
X145876190Y-72457533D01*
X145876190Y-72457533D02*
X145952381Y-72419438D01*
X145952381Y-72419438D02*
X145990476Y-72381342D01*
X145990476Y-72381342D02*
X146028571Y-72305152D01*
X150486104Y-114814285D02*
X150524200Y-114852381D01*
X150524200Y-114852381D02*
X150562295Y-114966666D01*
X150562295Y-114966666D02*
X150562295Y-115042857D01*
X150562295Y-115042857D02*
X150524200Y-115157143D01*
X150524200Y-115157143D02*
X150448009Y-115233333D01*
X150448009Y-115233333D02*
X150371819Y-115271428D01*
X150371819Y-115271428D02*
X150219438Y-115309524D01*
X150219438Y-115309524D02*
X150105152Y-115309524D01*
X150105152Y-115309524D02*
X149952771Y-115271428D01*
X149952771Y-115271428D02*
X149876580Y-115233333D01*
X149876580Y-115233333D02*
X149800390Y-115157143D01*
X149800390Y-115157143D02*
X149762295Y-115042857D01*
X149762295Y-115042857D02*
X149762295Y-114966666D01*
X149762295Y-114966666D02*
X149800390Y-114852381D01*
X149800390Y-114852381D02*
X149838485Y-114814285D01*
X149838485Y-114509524D02*
X149800390Y-114471428D01*
X149800390Y-114471428D02*
X149762295Y-114395238D01*
X149762295Y-114395238D02*
X149762295Y-114204762D01*
X149762295Y-114204762D02*
X149800390Y-114128571D01*
X149800390Y-114128571D02*
X149838485Y-114090476D01*
X149838485Y-114090476D02*
X149914676Y-114052381D01*
X149914676Y-114052381D02*
X149990866Y-114052381D01*
X149990866Y-114052381D02*
X150105152Y-114090476D01*
X150105152Y-114090476D02*
X150562295Y-114547619D01*
X150562295Y-114547619D02*
X150562295Y-114052381D01*
X150028961Y-113366666D02*
X150562295Y-113366666D01*
X149724200Y-113557142D02*
X150295628Y-113747619D01*
X150295628Y-113747619D02*
X150295628Y-113252380D01*
X154583214Y-78684215D02*
X154316547Y-78303262D01*
X154126071Y-78684215D02*
X154126071Y-77884215D01*
X154126071Y-77884215D02*
X154430833Y-77884215D01*
X154430833Y-77884215D02*
X154507023Y-77922310D01*
X154507023Y-77922310D02*
X154545118Y-77960405D01*
X154545118Y-77960405D02*
X154583214Y-78036596D01*
X154583214Y-78036596D02*
X154583214Y-78150881D01*
X154583214Y-78150881D02*
X154545118Y-78227072D01*
X154545118Y-78227072D02*
X154507023Y-78265167D01*
X154507023Y-78265167D02*
X154430833Y-78303262D01*
X154430833Y-78303262D02*
X154126071Y-78303262D01*
X154849880Y-77884215D02*
X155345118Y-77884215D01*
X155345118Y-77884215D02*
X155078452Y-78188977D01*
X155078452Y-78188977D02*
X155192737Y-78188977D01*
X155192737Y-78188977D02*
X155268928Y-78227072D01*
X155268928Y-78227072D02*
X155307023Y-78265167D01*
X155307023Y-78265167D02*
X155345118Y-78341358D01*
X155345118Y-78341358D02*
X155345118Y-78531834D01*
X155345118Y-78531834D02*
X155307023Y-78608024D01*
X155307023Y-78608024D02*
X155268928Y-78646120D01*
X155268928Y-78646120D02*
X155192737Y-78684215D01*
X155192737Y-78684215D02*
X154964166Y-78684215D01*
X154964166Y-78684215D02*
X154887975Y-78646120D01*
X154887975Y-78646120D02*
X154849880Y-78608024D01*
X155840357Y-77884215D02*
X155916547Y-77884215D01*
X155916547Y-77884215D02*
X155992738Y-77922310D01*
X155992738Y-77922310D02*
X156030833Y-77960405D01*
X156030833Y-77960405D02*
X156068928Y-78036596D01*
X156068928Y-78036596D02*
X156107023Y-78188977D01*
X156107023Y-78188977D02*
X156107023Y-78379453D01*
X156107023Y-78379453D02*
X156068928Y-78531834D01*
X156068928Y-78531834D02*
X156030833Y-78608024D01*
X156030833Y-78608024D02*
X155992738Y-78646120D01*
X155992738Y-78646120D02*
X155916547Y-78684215D01*
X155916547Y-78684215D02*
X155840357Y-78684215D01*
X155840357Y-78684215D02*
X155764166Y-78646120D01*
X155764166Y-78646120D02*
X155726071Y-78608024D01*
X155726071Y-78608024D02*
X155687976Y-78531834D01*
X155687976Y-78531834D02*
X155649880Y-78379453D01*
X155649880Y-78379453D02*
X155649880Y-78188977D01*
X155649880Y-78188977D02*
X155687976Y-78036596D01*
X155687976Y-78036596D02*
X155726071Y-77960405D01*
X155726071Y-77960405D02*
X155764166Y-77922310D01*
X155764166Y-77922310D02*
X155840357Y-77884215D01*
X155915200Y-110807332D02*
X155962819Y-110664475D01*
X155962819Y-110664475D02*
X155962819Y-110426380D01*
X155962819Y-110426380D02*
X155915200Y-110331142D01*
X155915200Y-110331142D02*
X155867580Y-110283523D01*
X155867580Y-110283523D02*
X155772342Y-110235904D01*
X155772342Y-110235904D02*
X155677104Y-110235904D01*
X155677104Y-110235904D02*
X155581866Y-110283523D01*
X155581866Y-110283523D02*
X155534247Y-110331142D01*
X155534247Y-110331142D02*
X155486628Y-110426380D01*
X155486628Y-110426380D02*
X155439009Y-110616856D01*
X155439009Y-110616856D02*
X155391390Y-110712094D01*
X155391390Y-110712094D02*
X155343771Y-110759713D01*
X155343771Y-110759713D02*
X155248533Y-110807332D01*
X155248533Y-110807332D02*
X155153295Y-110807332D01*
X155153295Y-110807332D02*
X155058057Y-110759713D01*
X155058057Y-110759713D02*
X155010438Y-110712094D01*
X155010438Y-110712094D02*
X154962819Y-110616856D01*
X154962819Y-110616856D02*
X154962819Y-110378761D01*
X154962819Y-110378761D02*
X155010438Y-110235904D01*
X154962819Y-109902570D02*
X155962819Y-109664475D01*
X155962819Y-109664475D02*
X155248533Y-109473999D01*
X155248533Y-109473999D02*
X155962819Y-109283523D01*
X155962819Y-109283523D02*
X154962819Y-109045428D01*
X155058057Y-108712094D02*
X155010438Y-108664475D01*
X155010438Y-108664475D02*
X154962819Y-108569237D01*
X154962819Y-108569237D02*
X154962819Y-108331142D01*
X154962819Y-108331142D02*
X155010438Y-108235904D01*
X155010438Y-108235904D02*
X155058057Y-108188285D01*
X155058057Y-108188285D02*
X155153295Y-108140666D01*
X155153295Y-108140666D02*
X155248533Y-108140666D01*
X155248533Y-108140666D02*
X155391390Y-108188285D01*
X155391390Y-108188285D02*
X155962819Y-108759713D01*
X155962819Y-108759713D02*
X155962819Y-108140666D01*
X148266667Y-96954819D02*
X148838095Y-96954819D01*
X148552381Y-97954819D02*
X148552381Y-96954819D01*
X149171429Y-97954819D02*
X149171429Y-96954819D01*
X149171429Y-96954819D02*
X149552381Y-96954819D01*
X149552381Y-96954819D02*
X149647619Y-97002438D01*
X149647619Y-97002438D02*
X149695238Y-97050057D01*
X149695238Y-97050057D02*
X149742857Y-97145295D01*
X149742857Y-97145295D02*
X149742857Y-97288152D01*
X149742857Y-97288152D02*
X149695238Y-97383390D01*
X149695238Y-97383390D02*
X149647619Y-97431009D01*
X149647619Y-97431009D02*
X149552381Y-97478628D01*
X149552381Y-97478628D02*
X149171429Y-97478628D01*
X150076191Y-96954819D02*
X150695238Y-96954819D01*
X150695238Y-96954819D02*
X150361905Y-97335771D01*
X150361905Y-97335771D02*
X150504762Y-97335771D01*
X150504762Y-97335771D02*
X150600000Y-97383390D01*
X150600000Y-97383390D02*
X150647619Y-97431009D01*
X150647619Y-97431009D02*
X150695238Y-97526247D01*
X150695238Y-97526247D02*
X150695238Y-97764342D01*
X150695238Y-97764342D02*
X150647619Y-97859580D01*
X150647619Y-97859580D02*
X150600000Y-97907200D01*
X150600000Y-97907200D02*
X150504762Y-97954819D01*
X150504762Y-97954819D02*
X150219048Y-97954819D01*
X150219048Y-97954819D02*
X150123810Y-97907200D01*
X150123810Y-97907200D02*
X150076191Y-97859580D01*
X151123810Y-97859580D02*
X151171429Y-97907200D01*
X151171429Y-97907200D02*
X151123810Y-97954819D01*
X151123810Y-97954819D02*
X151076191Y-97907200D01*
X151076191Y-97907200D02*
X151123810Y-97859580D01*
X151123810Y-97859580D02*
X151123810Y-97954819D01*
X151504762Y-96954819D02*
X152123809Y-96954819D01*
X152123809Y-96954819D02*
X151790476Y-97335771D01*
X151790476Y-97335771D02*
X151933333Y-97335771D01*
X151933333Y-97335771D02*
X152028571Y-97383390D01*
X152028571Y-97383390D02*
X152076190Y-97431009D01*
X152076190Y-97431009D02*
X152123809Y-97526247D01*
X152123809Y-97526247D02*
X152123809Y-97764342D01*
X152123809Y-97764342D02*
X152076190Y-97859580D01*
X152076190Y-97859580D02*
X152028571Y-97907200D01*
X152028571Y-97907200D02*
X151933333Y-97954819D01*
X151933333Y-97954819D02*
X151647619Y-97954819D01*
X151647619Y-97954819D02*
X151552381Y-97907200D01*
X151552381Y-97907200D02*
X151504762Y-97859580D01*
X152457143Y-97288152D02*
X152695238Y-97954819D01*
X152695238Y-97954819D02*
X152933333Y-97288152D01*
X153838095Y-97954819D02*
X153266667Y-97954819D01*
X153552381Y-97954819D02*
X153552381Y-96954819D01*
X153552381Y-96954819D02*
X153457143Y-97097676D01*
X153457143Y-97097676D02*
X153361905Y-97192914D01*
X153361905Y-97192914D02*
X153266667Y-97240533D01*
%TO.C,R31*%
D13*
X126400000Y-89350000D02*
X126400000Y-92750000D01*
D14*
X126750000Y-91050000D02*
G75*
G02*
X126050000Y-91050000I-350000J0D01*
G01*
X126050000Y-91050000D02*
G75*
G02*
X126750000Y-91050000I350000J0D01*
G01*
D15*
X128525000Y-93275000D02*
G75*
G02*
X128275000Y-93275000I-125000J0D01*
G01*
X128275000Y-93275000D02*
G75*
G02*
X128525000Y-93275000I125000J0D01*
G01*
%TO.C,R32*%
D13*
X126400000Y-77250000D02*
X126400000Y-80650000D01*
D14*
X126750000Y-78950000D02*
G75*
G02*
X126050000Y-78950000I-350000J0D01*
G01*
X126050000Y-78950000D02*
G75*
G02*
X126750000Y-78950000I350000J0D01*
G01*
D15*
X128525000Y-81175000D02*
G75*
G02*
X128275000Y-81175000I-125000J0D01*
G01*
X128275000Y-81175000D02*
G75*
G02*
X128525000Y-81175000I125000J0D01*
G01*
%TO.C,R33*%
D13*
X126400000Y-81250000D02*
X126400000Y-84650000D01*
D14*
X126750000Y-82950000D02*
G75*
G02*
X126050000Y-82950000I-350000J0D01*
G01*
X126050000Y-82950000D02*
G75*
G02*
X126750000Y-82950000I350000J0D01*
G01*
D15*
X128525000Y-85175000D02*
G75*
G02*
X128275000Y-85175000I-125000J0D01*
G01*
X128275000Y-85175000D02*
G75*
G02*
X128525000Y-85175000I125000J0D01*
G01*
%TO.C,R23*%
X128525000Y-89225000D02*
G75*
G02*
X128275000Y-89225000I-125000J0D01*
G01*
X128275000Y-89225000D02*
G75*
G02*
X128525000Y-89225000I125000J0D01*
G01*
D13*
X126400000Y-85300000D02*
X126400000Y-88700000D01*
D14*
X126750000Y-87000000D02*
G75*
G02*
X126050000Y-87000000I-350000J0D01*
G01*
X126050000Y-87000000D02*
G75*
G02*
X126750000Y-87000000I350000J0D01*
G01*
%TO.C,IC2*%
D16*
X159300000Y-78741920D02*
X158500000Y-78741920D01*
X159300000Y-78741920D02*
X160100000Y-78741920D01*
X160300000Y-75521920D02*
X158500000Y-75521920D01*
X160600000Y-78691920D02*
X160840000Y-79021920D01*
X160360000Y-79021920D01*
X160600000Y-78691920D01*
G36*
X160840000Y-79021920D02*
G01*
X160360000Y-79021920D01*
X160600000Y-78691920D01*
X160840000Y-79021920D01*
G37*
%TO.C,C18*%
X162211748Y-85125000D02*
X162734252Y-85125000D01*
X162211748Y-86595000D02*
X162734252Y-86595000D01*
%TO.C,U1*%
X138090000Y-77021920D02*
X139040000Y-77021920D01*
X138090000Y-77971920D02*
X138090000Y-77021920D01*
X138090000Y-87241920D02*
X138090000Y-86291920D01*
X139040000Y-87241920D02*
X138090000Y-87241920D01*
X147360000Y-77021920D02*
X148310000Y-77021920D01*
X148310000Y-77021920D02*
X148310000Y-77971920D01*
X148310000Y-86291920D02*
X148310000Y-87241920D01*
X148310000Y-87241920D02*
X147360000Y-87241920D01*
X137450000Y-77971920D02*
X137110000Y-77501920D01*
X137790000Y-77501920D01*
X137450000Y-77971920D01*
G36*
X137450000Y-77971920D02*
G01*
X137110000Y-77501920D01*
X137790000Y-77501920D01*
X137450000Y-77971920D01*
G37*
%TO.C,TP2*%
X153800000Y-104000000D02*
G75*
G02*
X152400000Y-104000000I-700000J0D01*
G01*
X152400000Y-104000000D02*
G75*
G02*
X153800000Y-104000000I700000J0D01*
G01*
%TO.C,R15*%
X159032379Y-95201920D02*
X159367621Y-95201920D01*
X159032379Y-95961920D02*
X159367621Y-95961920D01*
%TO.C,R13*%
X167272000Y-107383500D02*
X168772000Y-107383500D01*
X168772000Y-107383500D02*
X168772000Y-107783500D01*
X168772000Y-109183500D02*
X168772000Y-112383500D01*
X168772000Y-113833500D02*
X168772000Y-114183500D01*
X168772000Y-114183500D02*
X167272000Y-114183500D01*
X170807000Y-114343500D02*
X171047000Y-114673500D01*
X170567000Y-114673500D01*
X170807000Y-114343500D01*
G36*
X171047000Y-114673500D02*
G01*
X170567000Y-114673500D01*
X170807000Y-114343500D01*
X171047000Y-114673500D01*
G37*
%TO.C,C7*%
X146290000Y-91016085D02*
X146290000Y-91247755D01*
X147010000Y-91016085D02*
X147010000Y-91247755D01*
%TO.C,Q1*%
X164627500Y-98271920D02*
X165627500Y-98271920D01*
X164627500Y-99791920D02*
X164627500Y-98271920D01*
X164677500Y-99791920D02*
X164627500Y-99791920D01*
X166577500Y-99791920D02*
X165797500Y-99791920D01*
X166747500Y-98271920D02*
X167747500Y-98271920D01*
X167747500Y-98271920D02*
X167747500Y-99791920D01*
X167747500Y-99791920D02*
X167697500Y-99791920D01*
X165807500Y-100331920D02*
X166137500Y-100091920D01*
X166137500Y-100571920D01*
X165807500Y-100331920D01*
G36*
X166137500Y-100571920D02*
G01*
X165807500Y-100331920D01*
X166137500Y-100091920D01*
X166137500Y-100571920D01*
G37*
%TO.C,U6*%
X158190000Y-79271920D02*
X160010000Y-79271920D01*
X158190000Y-79321920D02*
X158190000Y-79271920D01*
X158190000Y-81221920D02*
X158190000Y-80441920D01*
X158190000Y-82391920D02*
X158190000Y-82341920D01*
X160010000Y-79271920D02*
X160010000Y-79321920D01*
X160010000Y-82341920D02*
X160010000Y-82391920D01*
X160010000Y-82391920D02*
X158190000Y-82391920D01*
X160550000Y-82341920D02*
X160790000Y-82671920D01*
X160310000Y-82671920D01*
X160550000Y-82341920D01*
G36*
X160790000Y-82671920D02*
G01*
X160310000Y-82671920D01*
X160550000Y-82341920D01*
X160790000Y-82671920D01*
G37*
%TO.C,D1*%
X156852500Y-99281920D02*
X156852500Y-101566920D01*
X156852500Y-101566920D02*
X158322500Y-101566920D01*
X158322500Y-101566920D02*
X158322500Y-99281920D01*
%TO.C,SW1*%
X156755000Y-103602000D02*
X159475000Y-103602000D01*
X159475000Y-113822000D01*
X156755000Y-113822000D01*
X156755000Y-103602000D01*
%TO.C,R27*%
X152617621Y-81351920D02*
X152282379Y-81351920D01*
X152617621Y-82111920D02*
X152282379Y-82111920D01*
%TO.C,C8*%
X143515835Y-73171920D02*
X143284165Y-73171920D01*
X143515835Y-73891920D02*
X143284165Y-73891920D01*
%TO.C,C16*%
X162234232Y-93466085D02*
X162234232Y-93697755D01*
X162954232Y-93466085D02*
X162954232Y-93697755D01*
%TO.C,TP5v1*%
X157000000Y-72800000D02*
G75*
G02*
X155600000Y-72800000I-700000J0D01*
G01*
X155600000Y-72800000D02*
G75*
G02*
X157000000Y-72800000I700000J0D01*
G01*
%TO.C,TP3*%
X170300000Y-78000000D02*
G75*
G02*
X168900000Y-78000000I-700000J0D01*
G01*
X168900000Y-78000000D02*
G75*
G02*
X170300000Y-78000000I700000J0D01*
G01*
%TO.C,U5*%
X130408000Y-93563000D02*
X132228000Y-93563000D01*
X130408000Y-93613000D02*
X130408000Y-93563000D01*
X130408000Y-96683000D02*
X130408000Y-96633000D01*
X132228000Y-93563000D02*
X132228000Y-93613000D01*
X132228000Y-94733000D02*
X132228000Y-95513000D01*
X132228000Y-96633000D02*
X132228000Y-96683000D01*
X132228000Y-96683000D02*
X130408000Y-96683000D01*
X129868000Y-93613000D02*
X129628000Y-93283000D01*
X130108000Y-93283000D01*
X129868000Y-93613000D01*
G36*
X129868000Y-93613000D02*
G01*
X129628000Y-93283000D01*
X130108000Y-93283000D01*
X129868000Y-93613000D01*
G37*
%TO.C,C15*%
X159084165Y-91471920D02*
X159315835Y-91471920D01*
X159084165Y-92191920D02*
X159315835Y-92191920D01*
%TO.C,R19*%
X140853179Y-72162400D02*
X141188421Y-72162400D01*
X140853179Y-72922400D02*
X141188421Y-72922400D01*
%TO.C,C17*%
X162211748Y-87325000D02*
X162734252Y-87325000D01*
X162211748Y-88795000D02*
X162734252Y-88795000D01*
%TO.C,D2*%
X168347500Y-101481920D02*
X164337500Y-101481920D01*
X168347500Y-103481920D02*
X164337500Y-103481920D01*
X168347500Y-103481920D02*
X168347500Y-101481920D01*
%TO.C,U7*%
X161868000Y-120764000D02*
X162868000Y-120764000D01*
X161868000Y-123584000D02*
X162658000Y-123584000D01*
X162988000Y-123584000D02*
X163268000Y-123584000D01*
X162988000Y-123864000D01*
X162988000Y-123584000D01*
G36*
X162988000Y-123864000D02*
G01*
X162988000Y-123584000D01*
X163268000Y-123584000D01*
X162988000Y-123864000D01*
G37*
%TO.C,R28*%
X152617621Y-79951920D02*
X152282379Y-79951920D01*
X152617621Y-80711920D02*
X152282379Y-80711920D01*
%TO.C,C6*%
X144040000Y-91820668D02*
X144040000Y-93243172D01*
X145860000Y-91820668D02*
X145860000Y-93243172D01*
%TO.C,R21*%
X122332379Y-100751920D02*
X122667621Y-100751920D01*
X122332379Y-101511920D02*
X122667621Y-101511920D01*
%TO.C,R25*%
X138532379Y-72220000D02*
X138867621Y-72220000D01*
X138532379Y-72980000D02*
X138867621Y-72980000D01*
%TO.C,C10*%
X142890000Y-91016085D02*
X142890000Y-91247755D01*
X143610000Y-91016085D02*
X143610000Y-91247755D01*
%TO.C,R17*%
X160367621Y-74251920D02*
X160032379Y-74251920D01*
X160367621Y-75011920D02*
X160032379Y-75011920D01*
%TO.C,R10*%
X158707500Y-100314299D02*
X158707500Y-100649541D01*
X159467500Y-100314299D02*
X159467500Y-100649541D01*
%TO.C,L2*%
X163390000Y-90521920D02*
X165090000Y-90521920D01*
X163390000Y-96241920D02*
X163390000Y-90521920D01*
X165090000Y-96241920D02*
X163390000Y-96241920D01*
X167210000Y-90521920D02*
X168910000Y-90521920D01*
X168910000Y-90521920D02*
X168910000Y-96241920D01*
X168910000Y-96241920D02*
X167210000Y-96241920D01*
%TO.C,U3*%
X125600000Y-99481920D02*
X125600000Y-100481920D01*
X125600000Y-99481920D02*
X127100000Y-99481920D01*
X125600000Y-125331920D02*
X125600000Y-119131920D01*
X144000000Y-99481920D02*
X142500000Y-99481920D01*
X144000000Y-100481920D02*
X144000000Y-99481920D01*
X144000000Y-125331920D02*
X125600000Y-125331920D01*
X144000000Y-125331920D02*
X144000000Y-119131920D01*
X144000000Y-118456920D02*
X144500000Y-118456920D01*
X144000000Y-118956920D01*
X144000000Y-118456920D01*
G36*
X144000000Y-118956920D02*
G01*
X144000000Y-118456920D01*
X144500000Y-118456920D01*
X144000000Y-118956920D01*
G37*
%TO.C,TP4*%
X164825000Y-74125000D02*
G75*
G02*
X163425000Y-74125000I-700000J0D01*
G01*
X163425000Y-74125000D02*
G75*
G02*
X164825000Y-74125000I700000J0D01*
G01*
%TO.C,R16*%
X159032379Y-92701920D02*
X159367621Y-92701920D01*
X159032379Y-93461920D02*
X159367621Y-93461920D01*
%TO.C,C22*%
X153840000Y-76547755D02*
X153840000Y-76316085D01*
X154560000Y-76547755D02*
X154560000Y-76316085D01*
%TO.C,F1*%
X156735200Y-85079636D02*
X156735200Y-89183764D01*
X160155200Y-85079636D02*
X160155200Y-89183764D01*
%TO.C,C21*%
X151990000Y-76078187D02*
X151990000Y-75785653D01*
X153010000Y-76078187D02*
X153010000Y-75785653D01*
%TO.C,IC1*%
X160815000Y-91507488D02*
X160815000Y-90371920D01*
X162685000Y-90371920D02*
X162685000Y-91791920D01*
X160810000Y-91801920D02*
X160620000Y-91941920D01*
X160620000Y-91661920D01*
X160810000Y-91801920D01*
G36*
X160810000Y-91801920D02*
G01*
X160620000Y-91941920D01*
X160620000Y-91661920D01*
X160810000Y-91801920D01*
G37*
%TO.C,C13*%
X161953335Y-105421920D02*
X161721665Y-105421920D01*
X161953335Y-106141920D02*
X161721665Y-106141920D01*
%TO.C,C1*%
X141890000Y-91247755D02*
X141890000Y-91016085D01*
X142610000Y-91247755D02*
X142610000Y-91016085D01*
%TO.C,U2*%
X159877500Y-101671920D02*
X159927500Y-101671920D01*
X159877500Y-103491920D02*
X159877500Y-101671920D01*
X159927500Y-103491920D02*
X159877500Y-103491920D01*
X161047500Y-101671920D02*
X161827500Y-101671920D01*
X162947500Y-101671920D02*
X162997500Y-101671920D01*
X162997500Y-101671920D02*
X162997500Y-103491920D01*
X162997500Y-103491920D02*
X162947500Y-103491920D01*
X159927500Y-104031920D02*
X159597500Y-104271920D01*
X159597500Y-103791920D01*
X159927500Y-104031920D01*
G36*
X159927500Y-104031920D02*
G01*
X159597500Y-104271920D01*
X159597500Y-103791920D01*
X159927500Y-104031920D01*
G37*
%TO.C,C28*%
X138390000Y-91959165D02*
X138390000Y-92190835D01*
X139110000Y-91959165D02*
X139110000Y-92190835D01*
%TO.C,R14*%
X159367621Y-93951920D02*
X159032379Y-93951920D01*
X159367621Y-94711920D02*
X159032379Y-94711920D01*
%TO.C,R12*%
X141188421Y-73229200D02*
X140853179Y-73229200D01*
X141188421Y-73989200D02*
X140853179Y-73989200D01*
%TO.C,R29*%
X152617621Y-78951920D02*
X152282379Y-78951920D01*
X152617621Y-79711920D02*
X152282379Y-79711920D01*
%TO.C,R9*%
X158305121Y-102201920D02*
X157969879Y-102201920D01*
X158305121Y-102961920D02*
X157969879Y-102961920D01*
%TO.C,C19*%
X162211748Y-82925000D02*
X162734252Y-82925000D01*
X162211748Y-84395000D02*
X162734252Y-84395000D01*
%TO.C,R11*%
X161682379Y-97751920D02*
X162017621Y-97751920D01*
X161682379Y-98511920D02*
X162017621Y-98511920D01*
%TO.C,J2*%
X111470000Y-71790000D02*
X120590000Y-71790000D01*
X111470000Y-105070000D02*
X111470000Y-71790000D01*
X112780000Y-73090000D02*
X119280000Y-73090000D01*
X112780000Y-103770000D02*
X112780000Y-73090000D01*
X119280000Y-73090000D02*
X119280000Y-86380000D01*
X119280000Y-86380000D02*
X120590000Y-86380000D01*
X119280000Y-90480000D02*
X119280000Y-103770000D01*
X119280000Y-103770000D02*
X112780000Y-103770000D01*
X120590000Y-71790000D02*
X120590000Y-105070000D01*
X120590000Y-90480000D02*
X119280000Y-90480000D01*
X120590000Y-105070000D02*
X111470000Y-105070000D01*
X120980000Y-99860000D02*
X121980000Y-100360000D01*
X121980000Y-99360000D02*
X120980000Y-99860000D01*
X121980000Y-100360000D02*
X121980000Y-99360000D01*
%TO.C,C11*%
X140890000Y-91247755D02*
X140890000Y-91016085D01*
X141610000Y-91247755D02*
X141610000Y-91016085D01*
%TO.C,R18*%
X162229879Y-79451920D02*
X162565121Y-79451920D01*
X162229879Y-80211920D02*
X162565121Y-80211920D01*
%TO.C,J1*%
X167870000Y-79821920D02*
X167870000Y-82321920D01*
X169670000Y-80121920D02*
X169670000Y-81121920D01*
X169670000Y-81121920D02*
X168170000Y-81121920D01*
X169670000Y-86841920D02*
X168170000Y-86841920D01*
X169670000Y-87841920D02*
X169670000Y-86841920D01*
X170370000Y-79821920D02*
X167870000Y-79821920D01*
X170480000Y-80121920D02*
X170480000Y-80621920D01*
X170480000Y-80621920D02*
X171690000Y-80621920D01*
X170480000Y-87341920D02*
X170480000Y-87841920D01*
X171690000Y-80621920D02*
X171690000Y-87341920D01*
X171690000Y-87341920D02*
X170480000Y-87341920D01*
X168170000Y-80121920D02*
X172190000Y-80121920D01*
X172190000Y-87841920D01*
X168170000Y-87841920D01*
X168170000Y-80121920D01*
%TO.C,R20*%
X146767621Y-114751920D02*
X146432379Y-114751920D01*
X146767621Y-115511920D02*
X146432379Y-115511920D01*
%TO.C,P1*%
X167314000Y-127547000D02*
X169234000Y-127547000D01*
X169234000Y-118387000D02*
X167314000Y-118387000D01*
X171244000Y-118387000D02*
X172949000Y-118387000D01*
X172949000Y-118387000D02*
X172949000Y-127547000D01*
X172949000Y-127547000D02*
X171244000Y-127547000D01*
%TO.C,TP1*%
X153900000Y-85131920D02*
G75*
G02*
X152500000Y-85131920I-700000J0D01*
G01*
X152500000Y-85131920D02*
G75*
G02*
X153900000Y-85131920I700000J0D01*
G01*
%TO.C,R26*%
X146282379Y-73220000D02*
X146617621Y-73220000D01*
X146282379Y-73980000D02*
X146617621Y-73980000D01*
%TO.C,R24*%
X162643000Y-124852165D02*
X162643000Y-125083835D01*
X163363000Y-124852165D02*
X163363000Y-125083835D01*
%TO.C,C12*%
X161965835Y-98971920D02*
X161734165Y-98971920D01*
X161965835Y-99691920D02*
X161734165Y-99691920D01*
%TO.C,R22*%
X136315835Y-72240000D02*
X136084165Y-72240000D01*
X136315835Y-72960000D02*
X136084165Y-72960000D01*
%TO.C,C26*%
X138815835Y-73240000D02*
X138584165Y-73240000D01*
X138815835Y-73960000D02*
X138584165Y-73960000D01*
%TO.C,C9*%
X143515835Y-72171920D02*
X143284165Y-72171920D01*
X143515835Y-72891920D02*
X143284165Y-72891920D01*
%TO.C,C24*%
X148540000Y-114615835D02*
X148540000Y-114384165D01*
X149260000Y-114615835D02*
X149260000Y-114384165D01*
%TO.C,R30*%
X152617621Y-77951920D02*
X152282379Y-77951920D01*
X152617621Y-78711920D02*
X152282379Y-78711920D01*
%TO.C,SW2*%
X151208000Y-107274000D02*
X151208000Y-111674000D01*
X151208000Y-111674000D02*
X151328000Y-111674000D01*
X151328000Y-107274000D02*
X151208000Y-107274000D01*
X152338000Y-111674000D02*
X153478000Y-111674000D01*
X153478000Y-107274000D02*
X152338000Y-107274000D01*
X154488000Y-111674000D02*
X154608000Y-111674000D01*
X154608000Y-107274000D02*
X154488000Y-107274000D01*
X154608000Y-111674000D02*
X154608000Y-107274000D01*
%TO.C,TP3.3v1*%
X154100000Y-95600000D02*
G75*
G02*
X152700000Y-95600000I-700000J0D01*
G01*
X152700000Y-95600000D02*
G75*
G02*
X154100000Y-95600000I700000J0D01*
G01*
%TD*%
M02*
