%TF.GenerationSoftware,KiCad,Pcbnew,10.0.1*%
%TF.CreationDate,2026-07-13T19:05:01+03:00*%
%TF.ProjectId,ads1299_test_board,61647331-3239-4395-9f74-6573745f626f,rev?*%
%TF.SameCoordinates,Original*%
%TF.FileFunction,Copper,L1,Top*%
%TF.FilePolarity,Positive*%
%FSLAX46Y46*%
G04 Gerber Fmt 4.6, Leading zero omitted, Abs format (unit mm)*
G04 Created by KiCad (PCBNEW 10.0.1) date 2026-07-13 19:05:01*
%MOMM*%
%LPD*%
G01*
G04 APERTURE LIST*
G04 Aperture macros list*
%AMRoundRect*
0 Rectangle with rounded corners*
0 $1 Rounding radius*
0 $2 $3 $4 $5 $6 $7 $8 $9 X,Y pos of 4 corners*
0 Add a 4 corners polygon primitive as box body*
4,1,4,$2,$3,$4,$5,$6,$7,$8,$9,$2,$3,0*
0 Add four circle primitives for the rounded corners*
1,1,$1+$1,$2,$3*
1,1,$1+$1,$4,$5*
1,1,$1+$1,$6,$7*
1,1,$1+$1,$8,$9*
0 Add four rect primitives between the rounded corners*
20,1,$1+$1,$2,$3,$4,$5,0*
20,1,$1+$1,$4,$5,$6,$7,0*
20,1,$1+$1,$6,$7,$8,$9,0*
20,1,$1+$1,$8,$9,$2,$3,0*%
G04 Aperture macros list end*
%TA.AperFunction,SMDPad,CuDef*%
%ADD10R,0.650000X1.050000*%
%TD*%
%TA.AperFunction,SMDPad,CuDef*%
%ADD11RoundRect,0.162500X0.617500X0.162500X-0.617500X0.162500X-0.617500X-0.162500X0.617500X-0.162500X0*%
%TD*%
%TA.AperFunction,SMDPad,CuDef*%
%ADD12RoundRect,0.250000X-0.337500X-0.475000X0.337500X-0.475000X0.337500X0.475000X-0.337500X0.475000X0*%
%TD*%
%TA.AperFunction,SMDPad,CuDef*%
%ADD13RoundRect,0.075000X-0.662500X-0.075000X0.662500X-0.075000X0.662500X0.075000X-0.662500X0.075000X0*%
%TD*%
%TA.AperFunction,SMDPad,CuDef*%
%ADD14RoundRect,0.075000X-0.075000X-0.662500X0.075000X-0.662500X0.075000X0.662500X-0.075000X0.662500X0*%
%TD*%
%TA.AperFunction,SMDPad,CuDef*%
%ADD15RoundRect,0.160000X-0.197500X-0.160000X0.197500X-0.160000X0.197500X0.160000X-0.197500X0.160000X0*%
%TD*%
%TA.AperFunction,SMDPad,CuDef*%
%ADD16RoundRect,0.155000X-0.155000X0.212500X-0.155000X-0.212500X0.155000X-0.212500X0.155000X0.212500X0*%
%TD*%
%TA.AperFunction,SMDPad,CuDef*%
%ADD17RoundRect,0.150000X0.150000X-0.587500X0.150000X0.587500X-0.150000X0.587500X-0.150000X-0.587500X0*%
%TD*%
%TA.AperFunction,SMDPad,CuDef*%
%ADD18RoundRect,0.150000X0.512500X0.150000X-0.512500X0.150000X-0.512500X-0.150000X0.512500X-0.150000X0*%
%TD*%
%TA.AperFunction,SMDPad,CuDef*%
%ADD19RoundRect,0.218750X0.256250X-0.218750X0.256250X0.218750X-0.256250X0.218750X-0.256250X-0.218750X0*%
%TD*%
%TA.AperFunction,ComponentPad*%
%ADD20R,1.500000X1.500000*%
%TD*%
%TA.AperFunction,ComponentPad*%
%ADD21C,1.600000*%
%TD*%
%TA.AperFunction,SMDPad,CuDef*%
%ADD22R,0.950000X0.800000*%
%TD*%
%TA.AperFunction,SMDPad,CuDef*%
%ADD23R,0.950000X0.550000*%
%TD*%
%TA.AperFunction,SMDPad,CuDef*%
%ADD24RoundRect,0.160000X0.197500X0.160000X-0.197500X0.160000X-0.197500X-0.160000X0.197500X-0.160000X0*%
%TD*%
%TA.AperFunction,SMDPad,CuDef*%
%ADD25RoundRect,0.155000X0.212500X0.155000X-0.212500X0.155000X-0.212500X-0.155000X0.212500X-0.155000X0*%
%TD*%
%TA.AperFunction,SMDPad,CuDef*%
%ADD26R,0.560000X0.300000*%
%TD*%
%TA.AperFunction,SMDPad,CuDef*%
%ADD27RoundRect,0.155000X-0.212500X-0.155000X0.212500X-0.155000X0.212500X0.155000X-0.212500X0.155000X0*%
%TD*%
%TA.AperFunction,SMDPad,CuDef*%
%ADD28RoundRect,0.225000X0.225000X0.375000X-0.225000X0.375000X-0.225000X-0.375000X0.225000X-0.375000X0*%
%TD*%
%TA.AperFunction,SMDPad,CuDef*%
%ADD29RoundRect,0.075000X0.200000X-0.075000X0.200000X0.075000X-0.200000X0.075000X-0.200000X-0.075000X0*%
%TD*%
%TA.AperFunction,SMDPad,CuDef*%
%ADD30RoundRect,0.150000X-0.825000X-0.150000X0.825000X-0.150000X0.825000X0.150000X-0.825000X0.150000X0*%
%TD*%
%TA.AperFunction,SMDPad,CuDef*%
%ADD31RoundRect,0.250000X-0.650000X0.412500X-0.650000X-0.412500X0.650000X-0.412500X0.650000X0.412500X0*%
%TD*%
%TA.AperFunction,SMDPad,CuDef*%
%ADD32RoundRect,0.250000X0.550000X-0.700000X0.550000X0.700000X-0.550000X0.700000X-0.550000X-0.700000X0*%
%TD*%
%TA.AperFunction,SMDPad,CuDef*%
%ADD33R,1.500000X0.900000*%
%TD*%
%TA.AperFunction,SMDPad,CuDef*%
%ADD34R,0.900000X1.500000*%
%TD*%
%TA.AperFunction,HeatsinkPad*%
%ADD35C,0.600000*%
%TD*%
%TA.AperFunction,HeatsinkPad*%
%ADD36R,3.900000X3.900000*%
%TD*%
%TA.AperFunction,SMDPad,CuDef*%
%ADD37RoundRect,0.155000X0.155000X-0.212500X0.155000X0.212500X-0.155000X0.212500X-0.155000X-0.212500X0*%
%TD*%
%TA.AperFunction,SMDPad,CuDef*%
%ADD38RoundRect,0.237500X0.237500X-0.300000X0.237500X0.300000X-0.237500X0.300000X-0.237500X-0.300000X0*%
%TD*%
%TA.AperFunction,SMDPad,CuDef*%
%ADD39RoundRect,0.087500X0.087500X-0.250000X0.087500X0.250000X-0.087500X0.250000X-0.087500X-0.250000X0*%
%TD*%
%TA.AperFunction,SMDPad,CuDef*%
%ADD40RoundRect,0.150000X0.150000X-0.512500X0.150000X0.512500X-0.150000X0.512500X-0.150000X-0.512500X0*%
%TD*%
%TA.AperFunction,ComponentPad*%
%ADD41RoundRect,0.250001X1.399999X-1.099999X1.399999X1.099999X-1.399999X1.099999X-1.399999X-1.099999X0*%
%TD*%
%TA.AperFunction,ComponentPad*%
%ADD42O,3.300000X2.700000*%
%TD*%
%TA.AperFunction,ComponentPad*%
%ADD43RoundRect,0.250000X-0.750000X0.600000X-0.750000X-0.600000X0.750000X-0.600000X0.750000X0.600000X0*%
%TD*%
%TA.AperFunction,ComponentPad*%
%ADD44O,2.000000X1.700000*%
%TD*%
%TA.AperFunction,SMDPad,CuDef*%
%ADD45RoundRect,0.150000X0.470000X-0.150000X0.470000X0.150000X-0.470000X0.150000X-0.470000X-0.150000X0*%
%TD*%
%TA.AperFunction,SMDPad,CuDef*%
%ADD46RoundRect,0.075000X0.545000X-0.075000X0.545000X0.075000X-0.545000X0.075000X-0.545000X-0.075000X0*%
%TD*%
%TA.AperFunction,ComponentPad*%
%ADD47O,2.100000X1.000000*%
%TD*%
%TA.AperFunction,ComponentPad*%
%ADD48O,1.800000X1.000000*%
%TD*%
%TA.AperFunction,SMDPad,CuDef*%
%ADD49C,1.000000*%
%TD*%
%TA.AperFunction,ViaPad*%
%ADD50C,0.600000*%
%TD*%
%TA.AperFunction,Conductor*%
%ADD51C,0.200000*%
%TD*%
%TA.AperFunction,Conductor*%
%ADD52C,0.500000*%
%TD*%
%TA.AperFunction,Conductor*%
%ADD53C,0.400000*%
%TD*%
%TA.AperFunction,Conductor*%
%ADD54C,0.300000*%
%TD*%
G04 APERTURE END LIST*
D10*
%TO.P,SW2,2,2_2*%
%TO.N,/ESP32_S3_WROOM/en*%
X151833000Y-111549000D03*
X151833000Y-107399000D03*
%TO.P,SW2,1,1_1*%
%TO.N,GNDD*%
X153983000Y-111549000D03*
X153983000Y-107399000D03*
%TD*%
D11*
%TO.P,IC2,1,IN_1*%
%TO.N,VCC*%
X160750000Y-78081920D03*
%TO.P,IC2,2,GND_2*%
%TO.N,GND*%
X160750000Y-77131920D03*
%TO.P,IC2,3,EN_3*%
%TO.N,Net-(IC2-EN)*%
X160750000Y-76181920D03*
%TO.P,IC2,4,N/C_4*%
%TO.N,unconnected-(IC2-N{slash}C-Pad4)*%
X158050000Y-76181920D03*
%TO.P,IC2,5,OUT_5*%
%TO.N,/ads1299_AFE_/AVDD*%
X158050000Y-78081920D03*
%TD*%
D12*
%TO.P,C18,1*%
%TO.N,VCC*%
X160662500Y-86331920D03*
%TO.P,C18,2*%
%TO.N,GND*%
X162737500Y-86331920D03*
%TD*%
D13*
%TO.P,U1,1,IN8N_1*%
%TO.N,/ads1299_AFE_/AVDD*%
X137537500Y-78381920D03*
%TO.P,U1,2,IN8P_2*%
X137537500Y-78881920D03*
%TO.P,U1,3,IN7N_3*%
X137537500Y-79381920D03*
%TO.P,U1,4,IN7P_4*%
X137537500Y-79881920D03*
%TO.P,U1,5,IN6N_5*%
X137537500Y-80381920D03*
%TO.P,U1,6,IN6P_6*%
X137537500Y-80881920D03*
%TO.P,U1,7,IN5N_7*%
X137537500Y-81381920D03*
%TO.P,U1,8,IN5P_8*%
X137537500Y-81881920D03*
%TO.P,U1,9,IN4N_9*%
%TO.N,/ads1299_AFE_/4N*%
X137537500Y-82381920D03*
%TO.P,U1,10,IN4P_10*%
%TO.N,/ads1299_AFE_/4P*%
X137537500Y-82881920D03*
%TO.P,U1,11,IN3N_11*%
%TO.N,/ads1299_AFE_/3N*%
X137537500Y-83381920D03*
%TO.P,U1,12,IN3P_12*%
%TO.N,/ads1299_AFE_/3P*%
X137537500Y-83881920D03*
%TO.P,U1,13,IN2N_13*%
%TO.N,/ads1299_AFE_/2N*%
X137537500Y-84381920D03*
%TO.P,U1,14,IN2P_14*%
%TO.N,/ads1299_AFE_/2P*%
X137537500Y-84881920D03*
%TO.P,U1,15,IN1N_15*%
%TO.N,/ads1299_AFE_/1N*%
X137537500Y-85381920D03*
%TO.P,U1,16,IN1P_16*%
%TO.N,/ads1299_AFE_/1P*%
X137537500Y-85881920D03*
D14*
%TO.P,U1,17,SRB1_17*%
%TO.N,/ads1299_AFE_/SRB1*%
X139450000Y-87794420D03*
%TO.P,U1,18,SRB2_18*%
%TO.N,unconnected-(U1-SRB2-Pad18)*%
X139950000Y-87794420D03*
%TO.P,U1,19,AVDD_19*%
%TO.N,/ads1299_AFE_/AVDD*%
X140450000Y-87794420D03*
%TO.P,U1,20,AVSS_20*%
%TO.N,GND*%
X140950000Y-87794420D03*
%TO.P,U1,21,AVDD_21*%
%TO.N,/ads1299_AFE_/AVDD*%
X141450000Y-87794420D03*
%TO.P,U1,22,AVDD_22*%
X141950000Y-87794420D03*
%TO.P,U1,23,AVSS_23*%
%TO.N,GND*%
X142450000Y-87794420D03*
%TO.P,U1,24,VREFP_24*%
%TO.N,/ads1299_AFE_/VREFP*%
X142950000Y-87794420D03*
%TO.P,U1,25,VREFN_25*%
%TO.N,GND*%
X143450000Y-87794420D03*
%TO.P,U1,26,VCAP4_26*%
%TO.N,/ads1299_AFE_/CAP4*%
X143950000Y-87794420D03*
%TO.P,U1,27,NC_27*%
%TO.N,unconnected-(U1-NC-Pad27)*%
X144450000Y-87794420D03*
%TO.P,U1,28,VCAP1_28*%
%TO.N,/ads1299_AFE_/CAP1*%
X144950000Y-87794420D03*
%TO.P,U1,29,NC_29*%
%TO.N,unconnected-(U1-NC-Pad29)*%
X145450000Y-87794420D03*
%TO.P,U1,30,VCAP2_30*%
%TO.N,/ads1299_AFE_/CAP2*%
X145950000Y-87794420D03*
%TO.P,U1,31,RESV1_31*%
%TO.N,unconnected-(U1-RESV1-Pad31)*%
X146450000Y-87794420D03*
%TO.P,U1,32,AVSS_32*%
%TO.N,GND*%
X146950000Y-87794420D03*
D13*
%TO.P,U1,33,DGND_33*%
%TO.N,GNDD*%
X148862500Y-85881920D03*
%TO.P,U1,34,DIN_34*%
%TO.N,/ESP32_S3_WROOM/DIN*%
X148862500Y-85381920D03*
%TO.P,U1,35,~{PWDN}_35*%
%TO.N,/ESP32_S3_WROOM/Power_ads1299*%
X148862500Y-84881920D03*
%TO.P,U1,36,~{RESET}_36*%
%TO.N,/ESP32_S3_WROOM/Reset_ads1299*%
X148862500Y-84381920D03*
%TO.P,U1,37,CLK_37*%
%TO.N,Net-(U1-CLK)*%
X148862500Y-83881920D03*
%TO.P,U1,38,START_38*%
%TO.N,/ESP32_S3_WROOM/Start*%
X148862500Y-83381920D03*
%TO.P,U1,39,~{CS}_39*%
%TO.N,/ESP32_S3_WROOM/CS*%
X148862500Y-82881920D03*
%TO.P,U1,40,SCLK_40*%
%TO.N,/ESP32_S3_WROOM/SCLK*%
X148862500Y-82381920D03*
%TO.P,U1,41,DAISY_IN_41*%
%TO.N,GNDD*%
X148862500Y-81881920D03*
%TO.P,U1,42,GPIO1_42*%
%TO.N,Net-(U1-GPIO1)*%
X148862500Y-81381920D03*
%TO.P,U1,43,DOUT_43*%
%TO.N,/ESP32_S3_WROOM/DOUT*%
X148862500Y-80881920D03*
%TO.P,U1,44,GPIO2_44*%
%TO.N,Net-(U1-GPIO2)*%
X148862500Y-80381920D03*
%TO.P,U1,45,GPIO3_45*%
%TO.N,Net-(U1-GPIO3)*%
X148862500Y-79881920D03*
%TO.P,U1,46,GPIO4_46*%
%TO.N,Net-(U1-GPIO4)*%
X148862500Y-79381920D03*
%TO.P,U1,47,~{DRDY}_47*%
%TO.N,/ESP32_S3_WROOM/DRDY*%
X148862500Y-78881920D03*
%TO.P,U1,48,DVDD_48*%
%TO.N,/ads1299_AFE_/DVDD*%
X148862500Y-78381920D03*
D14*
%TO.P,U1,49,DGND_49*%
%TO.N,GNDD*%
X146950000Y-76469420D03*
%TO.P,U1,50,DVDD_50*%
%TO.N,/ads1299_AFE_/DVDD*%
X146450000Y-76469420D03*
%TO.P,U1,51,DGND_51*%
%TO.N,GNDD*%
X145950000Y-76469420D03*
%TO.P,U1,52,CLKSEL_52*%
%TO.N,Net-(U1-CLKSEL)*%
X145450000Y-76469420D03*
%TO.P,U1,53,AVSS1_53*%
%TO.N,GND*%
X144950000Y-76469420D03*
%TO.P,U1,54,AVDD1_54*%
%TO.N,/ads1299_AFE_/AVDD*%
X144450000Y-76469420D03*
%TO.P,U1,55,VCAP3_55*%
%TO.N,/ads1299_AFE_/CAP3*%
X143950000Y-76469420D03*
%TO.P,U1,56,AVDD_56*%
%TO.N,/ads1299_AFE_/AVDD*%
X143450000Y-76469420D03*
%TO.P,U1,57,AVSS_57*%
%TO.N,GND*%
X142950000Y-76469420D03*
%TO.P,U1,58,AVSS_58*%
X142450000Y-76469420D03*
%TO.P,U1,59,AVDD_59*%
%TO.N,/ads1299_AFE_/AVDD*%
X141950000Y-76469420D03*
%TO.P,U1,60,BIASREF_60*%
%TO.N,Net-(U1-BIASREF)*%
X141450000Y-76469420D03*
%TO.P,U1,61,BIASINV_61*%
%TO.N,Net-(U1-BIASINV)*%
X140950000Y-76469420D03*
%TO.P,U1,62,BIASIN_62*%
%TO.N,/ads1299_AFE_/Bias_out*%
X140450000Y-76469420D03*
%TO.P,U1,63,BIASOUT_63*%
X139950000Y-76469420D03*
%TO.P,U1,64,RESERVED_64*%
%TO.N,unconnected-(U1-RESERVED-Pad64)*%
X139450000Y-76469420D03*
%TD*%
D15*
%TO.P,R15,1*%
%TO.N,Net-(SW1-A)*%
X158602500Y-95581920D03*
%TO.P,R15,2*%
%TO.N,Net-(IC1-EN)*%
X159797500Y-95581920D03*
%TD*%
D16*
%TO.P,C7,1*%
%TO.N,/ads1299_AFE_/CAP2*%
X146650000Y-90564420D03*
%TO.P,C7,2*%
%TO.N,GND*%
X146650000Y-91699420D03*
%TD*%
D17*
%TO.P,Q1,1,G_1*%
%TO.N,Net-(D2-K)*%
X165237500Y-99969420D03*
%TO.P,Q1,2,S_2*%
%TO.N,Vbat*%
X167137500Y-99969420D03*
%TO.P,Q1,3,D_3*%
%TO.N,/USB/Vbus*%
X166187500Y-98094420D03*
%TD*%
D18*
%TO.P,U6,1,VIN_1*%
%TO.N,VCC*%
X160237500Y-81781920D03*
%TO.P,U6,2,GND_2*%
%TO.N,GNDD*%
X160237500Y-80831920D03*
%TO.P,U6,3,EN_3*%
%TO.N,Net-(U6-EN)*%
X160237500Y-79881920D03*
%TO.P,U6,4,NC_4*%
%TO.N,unconnected-(U6-NC-Pad4)*%
X157962500Y-79881920D03*
%TO.P,U6,5,VOUT_5*%
%TO.N,/ads1299_AFE_/DVDD*%
X157962500Y-81781920D03*
%TD*%
D19*
%TO.P,D1,1,K_1*%
%TO.N,Net-(D1-K)*%
X157587500Y-100869420D03*
%TO.P,D1,2,A_2*%
%TO.N,/USB/Vbus*%
X157587500Y-99294420D03*
%TD*%
D20*
%TO.P,SW1,1,B_1*%
%TO.N,/USB/Vbus*%
X163340000Y-108431920D03*
D21*
%TO.P,SW1,2,C_2*%
%TO.N,unconnected-(SW1-C-Pad2)*%
X165880000Y-108431920D03*
%TO.P,SW1,3,A_3*%
%TO.N,Net-(SW1-A)*%
X160800000Y-108431920D03*
%TD*%
D22*
%TO.P,R31,1,1_1*%
%TO.N,/ads1299_AFE_/1P*%
X128900000Y-89356920D03*
D23*
%TO.P,R31,2,2_2*%
%TO.N,/ads1299_AFE_/1N*%
X128900000Y-88431920D03*
%TO.P,R31,3,3_3*%
%TO.N,/ads1299_AFE_/2P*%
X128900000Y-87631920D03*
D22*
%TO.P,R31,4,4_4*%
%TO.N,/ads1299_AFE_/2N*%
X128900000Y-86706920D03*
%TO.P,R31,5,5_5*%
%TO.N,/ads1299_AFE_/IN2N*%
X127100000Y-86706920D03*
D23*
%TO.P,R31,6,6_6*%
%TO.N,/ads1299_AFE_/IN2P*%
X127100000Y-87631920D03*
%TO.P,R31,7,7_7*%
%TO.N,/ads1299_AFE_/IN1N*%
X127100000Y-88431920D03*
D22*
%TO.P,R31,8,8_8*%
%TO.N,/ads1299_AFE_/IN1P*%
X127100000Y-89356920D03*
%TD*%
D24*
%TO.P,R27,1*%
%TO.N,GND*%
X153047500Y-81731920D03*
%TO.P,R27,2*%
%TO.N,Net-(U1-GPIO1)*%
X151852500Y-81731920D03*
%TD*%
D25*
%TO.P,C8,1*%
%TO.N,/ads1299_AFE_/CAP3*%
X143967500Y-73531920D03*
%TO.P,C8,2*%
%TO.N,GND*%
X142832500Y-73531920D03*
%TD*%
D16*
%TO.P,C16,1*%
%TO.N,/USB/Vbus*%
X162594232Y-93014420D03*
%TO.P,C16,2*%
%TO.N,GND*%
X162594232Y-94149420D03*
%TD*%
D26*
%TO.P,CN1,1,1_1*%
%TO.N,GND*%
X133660000Y-86481920D03*
%TO.P,CN1,2,2_2*%
X133660000Y-85981920D03*
%TO.P,CN1,3,3_3*%
X133660000Y-85481920D03*
%TO.P,CN1,4,4_4*%
X133660000Y-84981920D03*
%TO.P,CN1,5,5_5*%
%TO.N,/ads1299_AFE_/2N*%
X132340000Y-84981920D03*
%TO.P,CN1,6,6_6*%
%TO.N,/ads1299_AFE_/2P*%
X132340000Y-85481920D03*
%TO.P,CN1,7,7_7*%
%TO.N,/ads1299_AFE_/1N*%
X132340000Y-85981920D03*
%TO.P,CN1,8,8_8*%
%TO.N,/ads1299_AFE_/1P*%
X132340000Y-86481920D03*
%TD*%
D27*
%TO.P,C15,1*%
%TO.N,VCC*%
X158632500Y-91831920D03*
%TO.P,C15,2*%
%TO.N,Net-(IC1-FB)*%
X159767500Y-91831920D03*
%TD*%
D24*
%TO.P,R19,1*%
%TO.N,Net-(U1-BIASREF)*%
X136097500Y-75200000D03*
%TO.P,R19,2*%
%TO.N,GND*%
X134902500Y-75200000D03*
%TD*%
D22*
%TO.P,R23,1,1_1*%
%TO.N,/ads1299_AFE_/3P*%
X128900000Y-81056920D03*
D23*
%TO.P,R23,2,2_2*%
%TO.N,/ads1299_AFE_/3N*%
X128900000Y-80131920D03*
%TO.P,R23,3,3_3*%
%TO.N,/ads1299_AFE_/4P*%
X128900000Y-79331920D03*
D22*
%TO.P,R23,4,4_4*%
%TO.N,/ads1299_AFE_/4N*%
X128900000Y-78406920D03*
%TO.P,R23,5,5_5*%
%TO.N,/ads1299_AFE_/IN4N*%
X127100000Y-78406920D03*
D23*
%TO.P,R23,6,6_6*%
%TO.N,/ads1299_AFE_/IN4P*%
X127100000Y-79331920D03*
%TO.P,R23,7,7_7*%
%TO.N,/ads1299_AFE_/IN3N*%
X127100000Y-80131920D03*
D22*
%TO.P,R23,8,8_8*%
%TO.N,/ads1299_AFE_/IN3P*%
X127100000Y-81056920D03*
%TD*%
D12*
%TO.P,C17,1*%
%TO.N,VCC*%
X160662500Y-88531920D03*
%TO.P,C17,2*%
%TO.N,GND*%
X162737500Y-88531920D03*
%TD*%
D28*
%TO.P,D2,1,K_1*%
%TO.N,Net-(D2-K)*%
X167637500Y-102481920D03*
%TO.P,D2,2,A_2*%
%TO.N,/USB/Vbus*%
X164337500Y-102481920D03*
%TD*%
D29*
%TO.P,U7,1,D1+_1*%
%TO.N,/ESP32_S3_WROOM/USB_D+*%
X157685000Y-115231920D03*
%TO.P,U7,2,D1-_2*%
%TO.N,/ESP32_S3_WROOM/USB_D-*%
X157685000Y-114731920D03*
%TO.P,U7,3,GND_3*%
%TO.N,GND*%
X157685000Y-114231920D03*
%TO.P,U7,4,D2+_4*%
%TO.N,/USB/Vbus*%
X157685000Y-113731920D03*
%TO.P,U7,5,D2-_5*%
%TO.N,unconnected-(U7-D2--Pad5)*%
X157685000Y-113231920D03*
%TO.P,U7,6,NC_6*%
%TO.N,unconnected-(U7-NC-Pad6)*%
X156915000Y-113231920D03*
%TO.P,U7,7,NC_7*%
%TO.N,/USB/Vbus*%
X156915000Y-113731920D03*
%TO.P,U7,8,GND_8*%
%TO.N,GND*%
X156915000Y-114231920D03*
%TO.P,U7,9,NC_9*%
%TO.N,/ESP32_S3_WROOM/USB_D-*%
X156915000Y-114731920D03*
%TO.P,U7,10,NC_10*%
%TO.N,/ESP32_S3_WROOM/USB_D+*%
X156915000Y-115231920D03*
%TD*%
D24*
%TO.P,R28,1*%
%TO.N,GND*%
X153047500Y-80331920D03*
%TO.P,R28,2*%
%TO.N,Net-(U1-GPIO2)*%
X151852500Y-80331920D03*
%TD*%
D30*
%TO.P,U4,1,NC_1*%
%TO.N,unconnected-(U4-NC-Pad1)*%
X126225000Y-92376920D03*
%TO.P,U4,2,-_2*%
%TO.N,/ads1299_AFE_/SRB1*%
X126225000Y-93646920D03*
%TO.P,U4,3,+_3*%
%TO.N,/ads1299_AFE_/Ref_electrode*%
X126225000Y-94916920D03*
%TO.P,U4,4,V-_4*%
%TO.N,GND*%
X126225000Y-96186920D03*
%TO.P,U4,5,NC_5*%
%TO.N,unconnected-(U4-NC-Pad5)*%
X131175000Y-96186920D03*
%TO.P,U4,6*%
%TO.N,/ads1299_AFE_/SRB1*%
X131175000Y-94916920D03*
%TO.P,U4,7,V+_7*%
%TO.N,/ads1299_AFE_/AVDD*%
X131175000Y-93646920D03*
%TO.P,U4,8,NC_8*%
%TO.N,unconnected-(U4-NC-Pad8)*%
X131175000Y-92376920D03*
%TD*%
D31*
%TO.P,C6,1*%
%TO.N,/ads1299_AFE_/CAP1*%
X144950000Y-90969420D03*
%TO.P,C6,2*%
%TO.N,GND*%
X144950000Y-94094420D03*
%TD*%
D15*
%TO.P,R21,1*%
%TO.N,/ads1299_AFE_/DVDD*%
X121902500Y-101131920D03*
%TO.P,R21,2*%
%TO.N,Net-(U3-IO0)*%
X123097500Y-101131920D03*
%TD*%
%TO.P,R25,1*%
%TO.N,/ads1299_AFE_/Bias_out*%
X139802500Y-72900000D03*
%TO.P,R25,2*%
%TO.N,Net-(U1-BIASINV)*%
X140997500Y-72900000D03*
%TD*%
D16*
%TO.P,C10,1*%
%TO.N,/ads1299_AFE_/CAP4*%
X143250000Y-90564420D03*
%TO.P,C10,2*%
%TO.N,GND*%
X143250000Y-91699420D03*
%TD*%
D24*
%TO.P,R17,1*%
%TO.N,Net-(IC2-EN)*%
X160797500Y-74631920D03*
%TO.P,R17,2*%
%TO.N,VCC*%
X159602500Y-74631920D03*
%TD*%
D16*
%TO.P,R10,1*%
%TO.N,GND*%
X159087500Y-99914420D03*
%TO.P,R10,2*%
%TO.N,Net-(U2-PROG)*%
X159087500Y-101049420D03*
%TD*%
D32*
%TO.P,L2,1,1_1*%
%TO.N,/USB/Vbus*%
X166150000Y-95431920D03*
%TO.P,L2,2,2_2*%
%TO.N,SW*%
X166150000Y-91331920D03*
%TD*%
D33*
%TO.P,U3,1,GND_1*%
%TO.N,GNDD*%
X143550000Y-117691920D03*
%TO.P,U3,2,3V3_2*%
%TO.N,/ads1299_AFE_/DVDD*%
X143550000Y-116421920D03*
%TO.P,U3,3,EN_3*%
%TO.N,/ESP32_S3_WROOM/en*%
X143550000Y-115151920D03*
%TO.P,U3,4,IO4_4*%
%TO.N,/ESP32_S3_WROOM/DRDY*%
X143550000Y-113881920D03*
%TO.P,U3,5,IO5_5*%
%TO.N,/ESP32_S3_WROOM/Reset_ads1299*%
X143550000Y-112611920D03*
%TO.P,U3,6,IO6_6*%
%TO.N,/ESP32_S3_WROOM/Start*%
X143550000Y-111341920D03*
%TO.P,U3,7,IO7_7*%
%TO.N,/ESP32_S3_WROOM/Power_ads1299*%
X143550000Y-110071920D03*
%TO.P,U3,8,IO15_8*%
%TO.N,unconnected-(U3-IO15-Pad8)*%
X143550000Y-108801920D03*
%TO.P,U3,9,IO16_9*%
%TO.N,unconnected-(U3-IO16-Pad9)*%
X143550000Y-107531920D03*
%TO.P,U3,10,IO17_10*%
%TO.N,unconnected-(U3-IO17-Pad10)*%
X143550000Y-106261920D03*
%TO.P,U3,11,IO18_11*%
%TO.N,unconnected-(U3-IO18-Pad11)*%
X143550000Y-104991920D03*
%TO.P,U3,12,IO8_12*%
%TO.N,unconnected-(U3-IO8-Pad12)*%
X143550000Y-103721920D03*
%TO.P,U3,13,USB_D-_13*%
%TO.N,/ESP32_S3_WROOM/USB_D-*%
X143550000Y-102451920D03*
%TO.P,U3,14,USB_D+_14*%
%TO.N,/ESP32_S3_WROOM/USB_D+*%
X143550000Y-101181920D03*
D34*
%TO.P,U3,15,IO3_15*%
%TO.N,unconnected-(U3-IO3-Pad15)*%
X141785000Y-99931920D03*
%TO.P,U3,16,IO46_16*%
%TO.N,unconnected-(U3-IO46-Pad16)*%
X140515000Y-99931920D03*
%TO.P,U3,17,IO9_17*%
%TO.N,unconnected-(U3-IO9-Pad17)*%
X139245000Y-99931920D03*
%TO.P,U3,18,IO10_18*%
%TO.N,/ESP32_S3_WROOM/CS*%
X137975000Y-99931920D03*
%TO.P,U3,19,IO11_19*%
%TO.N,/ESP32_S3_WROOM/DIN*%
X136705000Y-99931920D03*
%TO.P,U3,20,IO12_20*%
%TO.N,/ESP32_S3_WROOM/SCLK*%
X135435000Y-99931920D03*
%TO.P,U3,21,IO13_21*%
%TO.N,/ESP32_S3_WROOM/DOUT*%
X134165000Y-99931920D03*
%TO.P,U3,22,IO14_22*%
%TO.N,unconnected-(U3-IO14-Pad22)*%
X132895000Y-99931920D03*
%TO.P,U3,23,IO21_23*%
%TO.N,unconnected-(U3-IO21-Pad23)*%
X131625000Y-99931920D03*
%TO.P,U3,24,IO47_24*%
%TO.N,unconnected-(U3-IO47-Pad24)*%
X130355000Y-99931920D03*
%TO.P,U3,25,IO48_25*%
%TO.N,unconnected-(U3-IO48-Pad25)*%
X129085000Y-99931920D03*
%TO.P,U3,26,IO45_26*%
%TO.N,unconnected-(U3-IO45-Pad26)*%
X127815000Y-99931920D03*
D33*
%TO.P,U3,27,IO0_27*%
%TO.N,Net-(U3-IO0)*%
X126050000Y-101181920D03*
%TO.P,U3,28,IO35_28*%
%TO.N,unconnected-(U3-IO35-Pad28)*%
X126050000Y-102451920D03*
%TO.P,U3,29,IO36_29*%
%TO.N,unconnected-(U3-IO36-Pad29)*%
X126050000Y-103721920D03*
%TO.P,U3,30,IO37_30*%
%TO.N,unconnected-(U3-IO37-Pad30)*%
X126050000Y-104991920D03*
%TO.P,U3,31,IO38_31*%
%TO.N,unconnected-(U3-IO38-Pad31)*%
X126050000Y-106261920D03*
%TO.P,U3,32,IO39_32*%
%TO.N,unconnected-(U3-IO39-Pad32)*%
X126050000Y-107531920D03*
%TO.P,U3,33,IO40_33*%
%TO.N,unconnected-(U3-IO40-Pad33)*%
X126050000Y-108801920D03*
%TO.P,U3,34,IO41_34*%
%TO.N,unconnected-(U3-IO41-Pad34)*%
X126050000Y-110071920D03*
%TO.P,U3,35,IO42_35*%
%TO.N,unconnected-(U3-IO42-Pad35)*%
X126050000Y-111341920D03*
%TO.P,U3,36,RXD0_36*%
%TO.N,unconnected-(U3-RXD0-Pad36)*%
X126050000Y-112611920D03*
%TO.P,U3,37,TXD0_37*%
%TO.N,unconnected-(U3-TXD0-Pad37)*%
X126050000Y-113881920D03*
%TO.P,U3,38,IO2_38*%
%TO.N,unconnected-(U3-IO2-Pad38)*%
X126050000Y-115151920D03*
%TO.P,U3,39,IO1_39*%
%TO.N,unconnected-(U3-IO1-Pad39)*%
X126050000Y-116421920D03*
%TO.P,U3,40,GND_40*%
%TO.N,GNDD*%
X126050000Y-117691920D03*
D35*
%TO.P,U3,41,GND_41*%
X137700000Y-110671920D03*
X137700000Y-109271920D03*
X137000000Y-111371920D03*
X137000000Y-109971920D03*
X137000000Y-108571920D03*
X136300000Y-110671920D03*
D36*
X136300000Y-109971920D03*
D35*
X136300000Y-109271920D03*
X135600000Y-111371920D03*
X135600000Y-109971920D03*
X135600000Y-108571920D03*
X134900000Y-110671920D03*
X134900000Y-109271920D03*
%TD*%
D15*
%TO.P,R16,1*%
%TO.N,VCC*%
X158602500Y-93081920D03*
%TO.P,R16,2*%
%TO.N,Net-(IC1-FB)*%
X159797500Y-93081920D03*
%TD*%
D37*
%TO.P,C22,1*%
%TO.N,/ads1299_AFE_/DVDD*%
X154200000Y-76999420D03*
%TO.P,C22,2*%
%TO.N,GNDD*%
X154200000Y-75864420D03*
%TD*%
D38*
%TO.P,C21,1*%
%TO.N,/ads1299_AFE_/DVDD*%
X152500000Y-76794420D03*
%TO.P,C21,2*%
%TO.N,GNDD*%
X152500000Y-75069420D03*
%TD*%
D39*
%TO.P,IC1,1,FB_1*%
%TO.N,Net-(IC1-FB)*%
X161250000Y-91794420D03*
%TO.P,IC1,2,EN_2*%
%TO.N,Net-(IC1-EN)*%
X161750000Y-91794420D03*
%TO.P,IC1,3,VIN_3*%
%TO.N,/USB/Vbus*%
X162250000Y-91794420D03*
%TO.P,IC1,4,GND_4*%
%TO.N,GND*%
X162250000Y-90369420D03*
%TO.P,IC1,5,SW_5*%
%TO.N,SW*%
X161750000Y-90369420D03*
%TO.P,IC1,6,VOUT_6*%
%TO.N,VCC*%
X161250000Y-90369420D03*
%TD*%
D25*
%TO.P,C13,1*%
%TO.N,Vbat*%
X162405000Y-105781920D03*
%TO.P,C13,2*%
%TO.N,GND*%
X161270000Y-105781920D03*
%TD*%
D37*
%TO.P,C1,1*%
%TO.N,GND*%
X142250000Y-91699420D03*
%TO.P,C1,2*%
%TO.N,/ads1299_AFE_/VREFP*%
X142250000Y-90564420D03*
%TD*%
D40*
%TO.P,U2,1,STAT_1*%
%TO.N,Net-(U2-STAT)*%
X160487500Y-103719420D03*
%TO.P,U2,2,V_{SS}_2*%
%TO.N,GND*%
X161437500Y-103719420D03*
%TO.P,U2,3,V_{BAT}_3*%
%TO.N,Vbat*%
X162387500Y-103719420D03*
%TO.P,U2,4,V_{DD}_4*%
%TO.N,/USB/Vbus*%
X162387500Y-101444420D03*
%TO.P,U2,5,PROG_5*%
%TO.N,Net-(U2-PROG)*%
X160487500Y-101444420D03*
%TD*%
D37*
%TO.P,C28,1*%
%TO.N,/ads1299_AFE_/AVDD*%
X133800000Y-93549420D03*
%TO.P,C28,2*%
%TO.N,GND*%
X133800000Y-92414420D03*
%TD*%
D41*
%TO.P,J3,1,Pin_1_1*%
%TO.N,/ads1299_AFE_/Bias_electrode*%
X109700000Y-94881920D03*
D42*
%TO.P,J3,2,Pin_2_2*%
%TO.N,/ads1299_AFE_/IN1N*%
X109700000Y-90681920D03*
%TO.P,J3,3,Pin_3_3*%
%TO.N,/ads1299_AFE_/IN2N*%
X109700000Y-86481920D03*
%TO.P,J3,4,Pin_4_4*%
%TO.N,/ads1299_AFE_/IN3N*%
X109700000Y-82281920D03*
%TO.P,J3,5,Pin_5_5*%
%TO.N,/ads1299_AFE_/IN4N*%
X109700000Y-78081920D03*
%TO.P,J3,6,Pin_6_6*%
%TO.N,/ads1299_AFE_/Ref_electrode*%
X115200000Y-94881920D03*
%TO.P,J3,7,Pin_7_7*%
%TO.N,/ads1299_AFE_/IN1P*%
X115200000Y-90681920D03*
%TO.P,J3,8,Pin_8_8*%
%TO.N,/ads1299_AFE_/IN2P*%
X115200000Y-86481920D03*
%TO.P,J3,9,Pin_9_9*%
%TO.N,/ads1299_AFE_/IN3P*%
X115200000Y-82281920D03*
%TO.P,J3,10,Pin_10_10*%
%TO.N,/ads1299_AFE_/IN4P*%
X115200000Y-78081920D03*
%TD*%
D24*
%TO.P,R14,1*%
%TO.N,Net-(IC1-FB)*%
X159797500Y-94331920D03*
%TO.P,R14,2*%
%TO.N,GND*%
X158602500Y-94331920D03*
%TD*%
D15*
%TO.P,R12,1*%
%TO.N,/ads1299_AFE_/AVDD*%
X134902500Y-76200000D03*
%TO.P,R12,2*%
%TO.N,Net-(U1-BIASREF)*%
X136097500Y-76200000D03*
%TD*%
D24*
%TO.P,R29,1*%
%TO.N,GND*%
X153047500Y-79331920D03*
%TO.P,R29,2*%
%TO.N,Net-(U1-GPIO3)*%
X151852500Y-79331920D03*
%TD*%
D25*
%TO.P,R9,1*%
%TO.N,Net-(U2-STAT)*%
X158705000Y-102581920D03*
%TO.P,R9,2*%
%TO.N,Net-(D1-K)*%
X157570000Y-102581920D03*
%TD*%
D12*
%TO.P,C19,1*%
%TO.N,VCC*%
X160662500Y-84131920D03*
%TO.P,C19,2*%
%TO.N,GND*%
X162737500Y-84131920D03*
%TD*%
D27*
%TO.P,R11,1*%
%TO.N,GND*%
X161282500Y-98131920D03*
%TO.P,R11,2*%
%TO.N,/USB/Vbus*%
X162417500Y-98131920D03*
%TD*%
D37*
%TO.P,C11,1*%
%TO.N,GND*%
X141250000Y-91699420D03*
%TO.P,C11,2*%
%TO.N,/ads1299_AFE_/VREFP*%
X141250000Y-90564420D03*
%TD*%
D15*
%TO.P,R18,1*%
%TO.N,Net-(U6-EN)*%
X161800000Y-79831920D03*
%TO.P,R18,2*%
%TO.N,VCC*%
X162995000Y-79831920D03*
%TD*%
D43*
%TO.P,J1,1,Pin_1_1*%
%TO.N,GND*%
X169100000Y-82731920D03*
D44*
%TO.P,J1,2,Pin_2_2*%
%TO.N,Net-(J1-Pin_2)*%
X169100000Y-85231920D03*
%TD*%
D24*
%TO.P,R20,1*%
%TO.N,/ads1299_AFE_/DVDD*%
X147197500Y-115131920D03*
%TO.P,R20,2*%
%TO.N,/ESP32_S3_WROOM/en*%
X146002500Y-115131920D03*
%TD*%
D26*
%TO.P,CN2,1,1_1*%
%TO.N,GND*%
X133660000Y-82581920D03*
%TO.P,CN2,2,2_2*%
X133660000Y-82081920D03*
%TO.P,CN2,3,3_3*%
X133660000Y-81581920D03*
%TO.P,CN2,4,4_4*%
X133660000Y-81081920D03*
%TO.P,CN2,5,5_5*%
%TO.N,/ads1299_AFE_/4N*%
X132340000Y-81081920D03*
%TO.P,CN2,6,6_6*%
%TO.N,/ads1299_AFE_/4P*%
X132340000Y-81581920D03*
%TO.P,CN2,7,7_7*%
%TO.N,/ads1299_AFE_/3N*%
X132340000Y-82081920D03*
%TO.P,CN2,8,8_8*%
%TO.N,/ads1299_AFE_/3P*%
X132340000Y-82581920D03*
%TD*%
D45*
%TO.P,P1,A1,GND_A1*%
%TO.N,GND*%
X160775000Y-118831920D03*
%TO.P,P1,A4,VBUS_A4*%
%TO.N,/USB/Vbus*%
X160775000Y-118031920D03*
D46*
%TO.P,P1,A5,CC_A5*%
%TO.N,Net-(P1-CC)*%
X160775000Y-116881920D03*
%TO.P,P1,A6,D+_A6*%
%TO.N,/ESP32_S3_WROOM/USB_D+*%
X160775000Y-115881920D03*
%TO.P,P1,A7,D-_A7*%
%TO.N,/ESP32_S3_WROOM/USB_D-*%
X160775000Y-115381920D03*
%TO.P,P1,A8*%
%TO.N,N/C*%
X160775000Y-114381920D03*
D45*
%TO.P,P1,A9,VBUS_A9*%
%TO.N,/USB/Vbus*%
X160775000Y-113231920D03*
%TO.P,P1,A12,GND_A12*%
%TO.N,GND*%
X160775000Y-112431920D03*
%TO.P,P1,B1,GND_B1*%
X160775000Y-112431920D03*
%TO.P,P1,B4,VBUS_B4*%
%TO.N,/USB/Vbus*%
X160775000Y-113231920D03*
D46*
%TO.P,P1,B5,VCONN_B5*%
%TO.N,unconnected-(P1-VCONN-PadB5)*%
X160775000Y-113881920D03*
%TO.P,P1,B6*%
%TO.N,N/C*%
X160775000Y-114881920D03*
%TO.P,P1,B7*%
X160775000Y-116381920D03*
%TO.P,P1,B8*%
X160775000Y-117381920D03*
D45*
%TO.P,P1,B9,VBUS_B9*%
%TO.N,/USB/Vbus*%
X160775000Y-118031920D03*
%TO.P,P1,B12,GND_B12*%
%TO.N,GND*%
X160775000Y-118831920D03*
D47*
%TO.P,P1,SH,SHIELD_SH*%
X161375000Y-119951920D03*
D48*
X165575000Y-119951920D03*
D47*
X161375000Y-111311920D03*
D48*
X165575000Y-111311920D03*
%TD*%
D49*
%TO.P,TP1,1,1_1*%
%TO.N,Net-(U1-CLK)*%
X153200000Y-85131920D03*
%TD*%
D15*
%TO.P,R26,1*%
%TO.N,Net-(U1-CLKSEL)*%
X145302500Y-73331920D03*
%TO.P,R26,2*%
%TO.N,/ads1299_AFE_/DVDD*%
X146497500Y-73331920D03*
%TD*%
D16*
%TO.P,R24,1*%
%TO.N,Net-(P1-CC)*%
X158600000Y-116764420D03*
%TO.P,R24,2*%
%TO.N,GND*%
X158600000Y-117899420D03*
%TD*%
D25*
%TO.P,C12,1*%
%TO.N,/USB/Vbus*%
X162417500Y-99331920D03*
%TO.P,C12,2*%
%TO.N,GND*%
X161282500Y-99331920D03*
%TD*%
%TO.P,R22,1*%
%TO.N,/ads1299_AFE_/Bias_out*%
X117367500Y-99031920D03*
%TO.P,R22,2*%
%TO.N,/ads1299_AFE_/Bias_electrode*%
X116232500Y-99031920D03*
%TD*%
%TO.P,C26,1*%
%TO.N,Net-(U1-BIASINV)*%
X140967500Y-73900000D03*
%TO.P,C26,2*%
%TO.N,/ads1299_AFE_/Bias_out*%
X139832500Y-73900000D03*
%TD*%
%TO.P,C9,1*%
%TO.N,/ads1299_AFE_/CAP3*%
X143967500Y-72531920D03*
%TO.P,C9,2*%
%TO.N,GND*%
X142832500Y-72531920D03*
%TD*%
D37*
%TO.P,C24,1*%
%TO.N,/ads1299_AFE_/DVDD*%
X148900000Y-115067500D03*
%TO.P,C24,2*%
%TO.N,GNDD*%
X148900000Y-113932500D03*
%TD*%
D24*
%TO.P,R30,1*%
%TO.N,GND*%
X153047500Y-78331920D03*
%TO.P,R30,2*%
%TO.N,Net-(U1-GPIO4)*%
X151852500Y-78331920D03*
%TD*%
D50*
%TO.N,GND*%
X160100000Y-99031920D03*
X164200000Y-83231920D03*
X164200000Y-88631920D03*
X154000000Y-80331920D03*
X141300000Y-92831920D03*
X165100000Y-85031920D03*
X142200000Y-93731920D03*
X163600000Y-77131920D03*
X165100000Y-87731920D03*
X134900000Y-92331920D03*
X124100000Y-96431920D03*
X134500000Y-85331920D03*
X143500000Y-86331920D03*
X165100000Y-83231920D03*
X162600000Y-77131920D03*
X165100000Y-85931920D03*
X141200000Y-89231920D03*
X143100000Y-93731920D03*
X164200000Y-85931920D03*
X146600000Y-92831920D03*
X165100000Y-84131920D03*
X160200000Y-105731920D03*
X157300000Y-94331920D03*
X142200000Y-94531920D03*
X144300000Y-86331920D03*
X146600000Y-94531920D03*
X163100000Y-89931920D03*
X164200000Y-84131920D03*
X160100000Y-98231920D03*
X141300000Y-94531920D03*
X143100000Y-94531920D03*
X159200000Y-99031920D03*
X142200000Y-92831920D03*
X160600000Y-100131920D03*
X133400000Y-74800000D03*
X161400000Y-100131920D03*
X143100000Y-92831920D03*
X142700000Y-86331920D03*
X141300000Y-93731920D03*
X164600000Y-77131920D03*
X165100000Y-86831920D03*
X146600000Y-93731920D03*
X164200000Y-86831920D03*
X154000000Y-78931920D03*
X162500000Y-95131920D03*
X154000000Y-81731920D03*
X134500000Y-82331920D03*
X142800000Y-74331920D03*
X146700000Y-86331920D03*
X164200000Y-85031920D03*
X142800000Y-75131920D03*
X159100000Y-114031920D03*
X154000000Y-81031920D03*
X154000000Y-79631920D03*
X159200000Y-98231920D03*
X134500000Y-81431920D03*
X144600000Y-74831920D03*
X155900000Y-113531920D03*
X164200000Y-87731920D03*
X134500000Y-86031920D03*
%TO.N,GNDD*%
X135200000Y-117731920D03*
X131600000Y-117731920D03*
X128905000Y-117729000D03*
X164300000Y-80931920D03*
X137922000Y-117729000D03*
X161800000Y-80831920D03*
X129800000Y-117731920D03*
X140589000Y-117729000D03*
X165200000Y-80931920D03*
X137000000Y-117731920D03*
X153500000Y-74831920D03*
X162600000Y-80831920D03*
X165200000Y-81731920D03*
X149400000Y-112800000D03*
X164300000Y-81731920D03*
X132500000Y-117731920D03*
X163400000Y-80831920D03*
X145900000Y-74631920D03*
X139700000Y-117731920D03*
X138800000Y-117731920D03*
X134300000Y-117731920D03*
X136100000Y-117731920D03*
X154200000Y-74831920D03*
X130700000Y-117731920D03*
X141478000Y-117729000D03*
X147050000Y-75081920D03*
X150100000Y-86731920D03*
X128016000Y-117731920D03*
X133400000Y-117731920D03*
X151400000Y-82831920D03*
%TO.N,/ESP32_S3_WROOM/Start*%
X145290000Y-111341920D03*
X147800000Y-111231920D03*
%TO.N,/ESP32_S3_WROOM/CS*%
X147900000Y-95231920D03*
X146442000Y-96910320D03*
%TO.N,/ESP32_S3_WROOM/DOUT*%
X142650000Y-85081920D03*
X140000000Y-91731920D03*
%TO.N,/ESP32_S3_WROOM/DRDY*%
X150700000Y-78331920D03*
X155300000Y-77631920D03*
%TO.N,/ads1299_AFE_/DVDD*%
X146500000Y-77700000D03*
X129900000Y-102831920D03*
X146900000Y-79500000D03*
X122300000Y-102831920D03*
%TO.N,/ads1299_AFE_/Bias_out*%
X129300000Y-75431920D03*
X120900000Y-97831920D03*
%TO.N,/ESP32_S3_WROOM/USB_D+*%
X147166031Y-104293969D03*
X154400000Y-114431920D03*
%TO.N,/ESP32_S3_WROOM/USB_D-*%
X155303554Y-114328366D03*
X146630585Y-103051415D03*
%TD*%
%TO.N,/ESP32_S3_WROOM/en*%
D51*
X149447210Y-111549000D02*
X146002500Y-114993710D01*
X146002500Y-114993710D02*
X146002500Y-115131920D01*
X151833000Y-111549000D02*
X149447210Y-111549000D01*
%TO.N,/ESP32_S3_WROOM/DRDY*%
X146214080Y-113881920D02*
X143550000Y-113881920D01*
X149794800Y-110301200D02*
X146214080Y-113881920D01*
X149794800Y-107253200D02*
X149794800Y-110301200D01*
X155500000Y-77831920D02*
X155500000Y-101548000D01*
X155500000Y-101548000D02*
X149794800Y-107253200D01*
X155300000Y-77631920D02*
X155500000Y-77831920D01*
%TO.N,/ESP32_S3_WROOM/en*%
X151833000Y-107399000D02*
X151833000Y-111549000D01*
%TO.N,GNDD*%
X151599500Y-113932500D02*
X148900000Y-113932500D01*
X153983000Y-111549000D02*
X151599500Y-113932500D01*
X153983000Y-107399000D02*
X153983000Y-111549000D01*
%TO.N,/ads1299_AFE_/DVDD*%
D52*
X156100000Y-111362000D02*
X152394500Y-115067500D01*
X152394500Y-115067500D02*
X148900000Y-115067500D01*
X156100000Y-81781920D02*
X156100000Y-111362000D01*
%TO.N,/ESP32_S3_WROOM/Start*%
D51*
X154900000Y-84531920D02*
X153750000Y-83381920D01*
X148300000Y-107986000D02*
X154900000Y-101386000D01*
X148300000Y-110731920D02*
X148300000Y-107986000D01*
X153750000Y-83381920D02*
X148862500Y-83381920D01*
X147800000Y-111231920D02*
X148300000Y-110731920D01*
X154900000Y-101386000D02*
X154900000Y-84531920D01*
%TO.N,/ESP32_S3_WROOM/Reset_ads1299*%
X151725200Y-103798800D02*
X146238800Y-109285200D01*
X146238800Y-109285200D02*
X146238800Y-111489920D01*
X145116800Y-112611920D02*
X143550000Y-112611920D01*
X151725200Y-85457120D02*
X151725200Y-103798800D01*
X150650000Y-84381920D02*
X151725200Y-85457120D01*
X148862500Y-84381920D02*
X150650000Y-84381920D01*
X146238800Y-111489920D02*
X145116800Y-112611920D01*
%TO.N,/ESP32_S3_WROOM/Power_ads1299*%
X144690080Y-110071920D02*
X143550000Y-110071920D01*
X151300000Y-103462000D02*
X144690080Y-110071920D01*
X151300000Y-85831920D02*
X151300000Y-103462000D01*
X150350000Y-84881920D02*
X151300000Y-85831920D01*
X148862500Y-84881920D02*
X150350000Y-84881920D01*
%TO.N,/ESP32_S3_WROOM/USB_D+*%
X144675001Y-101181920D02*
X143550000Y-101181920D01*
X145085001Y-101591920D02*
X144675001Y-101181920D01*
X145878198Y-101591920D02*
X145085001Y-101591920D01*
X147166031Y-102879753D02*
X145878198Y-101591920D01*
X147166031Y-104293969D02*
X147166031Y-102879753D01*
%TO.N,/ESP32_S3_WROOM/USB_D-*%
X146630585Y-103051415D02*
X145621090Y-102041920D01*
%TO.N,VCC*%
D53*
X159250000Y-81781920D02*
X159100000Y-81631920D01*
D51*
X162150000Y-78081920D02*
X160750000Y-78081920D01*
X159602500Y-74631920D02*
X159602500Y-78229420D01*
D53*
X159750000Y-78081920D02*
X160750000Y-78081920D01*
X159100000Y-81631920D02*
X159100000Y-79431920D01*
X159300000Y-79231920D02*
X159300000Y-78531920D01*
X159100000Y-79431920D02*
X159300000Y-79231920D01*
D51*
X162995000Y-79831920D02*
X162995000Y-78926920D01*
X162995000Y-78926920D02*
X162150000Y-78081920D01*
D53*
X159300000Y-78531920D02*
X159602500Y-78229420D01*
X159602500Y-78229420D02*
X159750000Y-78081920D01*
X160237500Y-81781920D02*
X159250000Y-81781920D01*
%TO.N,GND*%
D51*
X156600000Y-114231920D02*
X155900000Y-113531920D01*
X134902500Y-75200000D02*
X133800000Y-75200000D01*
X160200000Y-105731920D02*
X160250000Y-105781920D01*
X158600000Y-117899420D02*
X159532500Y-118831920D01*
X133800000Y-92414420D02*
X134817500Y-92414420D01*
X126225000Y-96186920D02*
X124345000Y-96186920D01*
D53*
X161437500Y-103719420D02*
X161437500Y-105614420D01*
D51*
X157685000Y-114231920D02*
X156915000Y-114231920D01*
X133800000Y-75200000D02*
X133400000Y-74800000D01*
X156915000Y-114231920D02*
X156600000Y-114231920D01*
X140950000Y-88981920D02*
X141200000Y-89231920D01*
X161437500Y-105614420D02*
X161270000Y-105781920D01*
X157685000Y-114231920D02*
X158900000Y-114231920D01*
X140950000Y-87794420D02*
X140950000Y-88981920D01*
X144950000Y-75181920D02*
X144600000Y-74831920D01*
X162594232Y-95037688D02*
X162500000Y-95131920D01*
X162594232Y-94149420D02*
X162594232Y-95037688D01*
X134817500Y-92414420D02*
X134900000Y-92331920D01*
X124345000Y-96186920D02*
X124100000Y-96431920D01*
X160775000Y-119351920D02*
X161375000Y-119951920D01*
X144950000Y-76469420D02*
X144950000Y-75181920D01*
X160250000Y-105781920D02*
X161270000Y-105781920D01*
X160775000Y-111911920D02*
X161375000Y-111311920D01*
X160775000Y-118831920D02*
X160775000Y-119351920D01*
X159532500Y-118831920D02*
X160775000Y-118831920D01*
X158602500Y-94331920D02*
X157300000Y-94331920D01*
X158900000Y-114231920D02*
X159100000Y-114031920D01*
X160775000Y-112431920D02*
X160775000Y-111911920D01*
%TO.N,Net-(IC2-EN)*%
X160797500Y-76134420D02*
X160797500Y-74631920D01*
X160750000Y-76181920D02*
X160797500Y-76134420D01*
%TO.N,/ads1299_AFE_/AVDD*%
D54*
X138900000Y-81931920D02*
X140450000Y-83481920D01*
X156700000Y-77731920D02*
X156700000Y-75931920D01*
D51*
X138850000Y-79881920D02*
X138900000Y-79931920D01*
X144450000Y-78331920D02*
X144500000Y-78381920D01*
X143450000Y-78331920D02*
X143500000Y-78381920D01*
X137537500Y-79381920D02*
X138850000Y-79381920D01*
D54*
X157100000Y-78131920D02*
X156700000Y-77731920D01*
X151500000Y-73831920D02*
X146950000Y-78381920D01*
X140500000Y-78381920D02*
X138900000Y-78381920D01*
D51*
X137537500Y-80881920D02*
X138850000Y-80881920D01*
D54*
X138900000Y-80831920D02*
X138900000Y-81431920D01*
X158050000Y-78081920D02*
X158000000Y-78131920D01*
X138900000Y-78931920D02*
X138900000Y-79431920D01*
D51*
X137182500Y-93549420D02*
X140450000Y-90281920D01*
D54*
X135781920Y-78381920D02*
X134900000Y-77500000D01*
X138900000Y-81431920D02*
X138900000Y-81931920D01*
D51*
X141950000Y-87794420D02*
X141450000Y-87794420D01*
X137537500Y-78881920D02*
X138850000Y-78881920D01*
D54*
X144500000Y-78381920D02*
X143500000Y-78381920D01*
D51*
X138850000Y-78881920D02*
X138900000Y-78931920D01*
D54*
X134902500Y-77497500D02*
X134902500Y-76200000D01*
D51*
X137537500Y-79881920D02*
X138850000Y-79881920D01*
D54*
X143500000Y-78381920D02*
X141900000Y-78381920D01*
D51*
X141950000Y-76469420D02*
X141950000Y-78331920D01*
X133800000Y-93549420D02*
X131272500Y-93549420D01*
X141950000Y-78331920D02*
X141900000Y-78381920D01*
X140450000Y-90281920D02*
X140450000Y-87794420D01*
X137537500Y-81381920D02*
X138850000Y-81381920D01*
D54*
X138900000Y-78381920D02*
X138900000Y-78931920D01*
D51*
X140450000Y-86431920D02*
X141300000Y-86431920D01*
X141450000Y-86581920D02*
X141450000Y-87794420D01*
D54*
X138900000Y-79431920D02*
X138900000Y-79931920D01*
D51*
X141300000Y-86431920D02*
X141450000Y-86581920D01*
D54*
X134900000Y-77500000D02*
X134902500Y-77497500D01*
D51*
X144450000Y-76469420D02*
X144450000Y-78331920D01*
X131272500Y-93549420D02*
X131175000Y-93646920D01*
X138850000Y-80381920D02*
X138900000Y-80331920D01*
X138850000Y-81881920D02*
X138900000Y-81931920D01*
D54*
X154600000Y-73831920D02*
X151500000Y-73831920D01*
X138900000Y-79931920D02*
X138900000Y-80331920D01*
X138900000Y-80331920D02*
X138900000Y-80831920D01*
D51*
X133800000Y-93549420D02*
X137182500Y-93549420D01*
X137537500Y-80381920D02*
X138850000Y-80381920D01*
D54*
X137537500Y-78381920D02*
X135781920Y-78381920D01*
D51*
X143450000Y-76469420D02*
X143450000Y-78331920D01*
X138850000Y-80881920D02*
X138900000Y-80831920D01*
D54*
X146950000Y-78381920D02*
X144500000Y-78381920D01*
D51*
X137537500Y-81881920D02*
X138850000Y-81881920D01*
X137537500Y-78381920D02*
X137537500Y-81881920D01*
X138850000Y-79381920D02*
X138900000Y-79431920D01*
X138850000Y-81381920D02*
X138900000Y-81431920D01*
D54*
X141900000Y-78381920D02*
X140500000Y-78381920D01*
X156700000Y-75931920D02*
X154600000Y-73831920D01*
X138900000Y-78381920D02*
X137537500Y-78381920D01*
X140450000Y-83481920D02*
X140450000Y-87794420D01*
X158000000Y-78131920D02*
X157100000Y-78131920D01*
%TO.N,/ads1299_AFE_/4N*%
D51*
X131950000Y-81081920D02*
X132340000Y-81081920D01*
X132340000Y-81081920D02*
X132340000Y-80791920D01*
X135600000Y-81031920D02*
X135600000Y-82231920D01*
X132340000Y-80791920D02*
X133000000Y-80131920D01*
X133000000Y-80131920D02*
X134700000Y-80131920D01*
X135750000Y-82381920D02*
X137537500Y-82381920D01*
X134700000Y-80131920D02*
X135600000Y-81031920D01*
X129275000Y-78406920D02*
X131950000Y-81081920D01*
X128900000Y-78406920D02*
X129275000Y-78406920D01*
X135600000Y-82231920D02*
X135750000Y-82381920D01*
%TO.N,/ads1299_AFE_/4P*%
X132340000Y-81581920D02*
X132750000Y-81581920D01*
X128900000Y-79331920D02*
X129500000Y-79331920D01*
X133000000Y-81331920D02*
X133000000Y-80731920D01*
X132750000Y-81581920D02*
X133000000Y-81331920D01*
X133200000Y-80531920D02*
X134500000Y-80531920D01*
X135650000Y-82881920D02*
X137537500Y-82881920D01*
X131750000Y-81581920D02*
X132340000Y-81581920D01*
X133000000Y-80731920D02*
X133200000Y-80531920D01*
X135200000Y-82431920D02*
X135650000Y-82881920D01*
X129500000Y-79331920D02*
X131750000Y-81581920D01*
X134500000Y-80531920D02*
X135200000Y-81231920D01*
X135200000Y-81231920D02*
X135200000Y-82431920D01*
X129050000Y-79481920D02*
X128900000Y-79331920D01*
%TO.N,/ads1299_AFE_/3N*%
X133000000Y-82931920D02*
X133000000Y-82321919D01*
X129050000Y-79981920D02*
X128900000Y-80131920D01*
X129600000Y-80131920D02*
X131550000Y-82081920D01*
X132760001Y-82081920D02*
X132340000Y-82081920D01*
X131550000Y-82081920D02*
X132340000Y-82081920D01*
X135350000Y-83381920D02*
X135100000Y-83131920D01*
X133200000Y-83131920D02*
X133000000Y-82931920D01*
X128900000Y-80131920D02*
X129600000Y-80131920D01*
X133000000Y-82321919D02*
X132760001Y-82081920D01*
X137537500Y-83381920D02*
X135350000Y-83381920D01*
X135100000Y-83131920D02*
X133200000Y-83131920D01*
%TO.N,/ads1299_AFE_/3P*%
X128900000Y-81056920D02*
X129762500Y-81056920D01*
X132400000Y-82931920D02*
X132400000Y-82581920D01*
X137537500Y-83881920D02*
X135298528Y-83881920D01*
X131287500Y-82581920D02*
X132340000Y-82581920D01*
X132400000Y-82581920D02*
X132340000Y-82581920D01*
X134948528Y-83531920D02*
X133000000Y-83531920D01*
X133000000Y-83531920D02*
X132400000Y-82931920D01*
X132340000Y-82581920D02*
X132290000Y-82631920D01*
X129762500Y-81056920D02*
X131287500Y-82581920D01*
X135298528Y-83881920D02*
X134948528Y-83531920D01*
%TO.N,/ads1299_AFE_/2N*%
X129825000Y-86706920D02*
X131550000Y-84981920D01*
X133100000Y-83931920D02*
X132340000Y-84691920D01*
X131550000Y-84981920D02*
X132340000Y-84981920D01*
X132340000Y-84981920D02*
X132340000Y-84691920D01*
X135212132Y-84381920D02*
X134762132Y-83931920D01*
X137537500Y-84381920D02*
X135212132Y-84381920D01*
X134762132Y-83931920D02*
X133100000Y-83931920D01*
X128900000Y-86706920D02*
X129825000Y-86706920D01*
%TO.N,/ads1299_AFE_/2P*%
X131750000Y-85481920D02*
X132340000Y-85481920D01*
X129600000Y-87631920D02*
X131750000Y-85481920D01*
X134600000Y-84331920D02*
X133300000Y-84331920D01*
X135150000Y-84881920D02*
X134600000Y-84331920D01*
X132750000Y-85481920D02*
X133000000Y-85231920D01*
X137537500Y-84881920D02*
X135150000Y-84881920D01*
X133000000Y-84631920D02*
X133000000Y-85231920D01*
X133300000Y-84331920D02*
X133000000Y-84631920D01*
X128900000Y-87631920D02*
X129600000Y-87631920D01*
X132340000Y-85481920D02*
X132750000Y-85481920D01*
%TO.N,/ads1299_AFE_/1N*%
X131950000Y-85981920D02*
X132340000Y-85981920D01*
X136050000Y-85381920D02*
X134300000Y-87131920D01*
X129500000Y-88431920D02*
X131950000Y-85981920D01*
X132760001Y-85981920D02*
X133000000Y-86221919D01*
X133000000Y-86221919D02*
X133000000Y-86831920D01*
X133300000Y-87131920D02*
X134300000Y-87131920D01*
X128900000Y-88431920D02*
X129500000Y-88431920D01*
X132340000Y-85981920D02*
X132760001Y-85981920D01*
X133000000Y-86831920D02*
X133300000Y-87131920D01*
X137537500Y-85381920D02*
X136050000Y-85381920D01*
%TO.N,/ads1299_AFE_/1P*%
X137537500Y-85881920D02*
X136150000Y-85881920D01*
X133100000Y-87531920D02*
X134500000Y-87531920D01*
X132400000Y-86831920D02*
X132400000Y-86541920D01*
X136150000Y-85881920D02*
X134500000Y-87531920D01*
X132118080Y-86481920D02*
X129243080Y-89356920D01*
X132340000Y-86481920D02*
X132118080Y-86481920D01*
X132400000Y-86831920D02*
X133100000Y-87531920D01*
X129243080Y-89356920D02*
X128900000Y-89356920D01*
X132400000Y-86541920D02*
X132340000Y-86481920D01*
%TO.N,/ads1299_AFE_/SRB1*%
X124300000Y-93031920D02*
X124300000Y-91731920D01*
X124300000Y-91731920D02*
X124900000Y-91131920D01*
X139450000Y-89281920D02*
X139450000Y-87794420D01*
X128165000Y-93646920D02*
X129435000Y-94916920D01*
X126225000Y-93646920D02*
X128165000Y-93646920D01*
X129435000Y-94916920D02*
X131175000Y-94916920D01*
X126225000Y-93646920D02*
X124915000Y-93646920D01*
X137600000Y-91131920D02*
X139450000Y-89281920D01*
X124900000Y-91131920D02*
X137600000Y-91131920D01*
X124915000Y-93646920D02*
X124300000Y-93031920D01*
%TO.N,/ads1299_AFE_/VREFP*%
X142950000Y-88806920D02*
X142250000Y-89506920D01*
X142250000Y-90564420D02*
X141250000Y-90564420D01*
X142250000Y-89506920D02*
X142250000Y-90564420D01*
X142950000Y-87794420D02*
X142950000Y-88806920D01*
%TO.N,/ads1299_AFE_/CAP4*%
X143250000Y-90081920D02*
X143250000Y-90564420D01*
X143950000Y-87794420D02*
X143950000Y-89381920D01*
X143950000Y-89381920D02*
X143250000Y-90081920D01*
%TO.N,/ads1299_AFE_/CAP1*%
X144950000Y-87794420D02*
X144950000Y-90969420D01*
%TO.N,/ads1299_AFE_/CAP2*%
X145950000Y-89381920D02*
X146650000Y-90081920D01*
X146650000Y-90081920D02*
X146650000Y-90564420D01*
X145950000Y-87794420D02*
X145950000Y-89381920D01*
%TO.N,GNDD*%
X148900000Y-113932500D02*
X148900000Y-113300000D01*
X149650000Y-85881920D02*
X150100000Y-86331920D01*
X150350000Y-81881920D02*
X148862500Y-81881920D01*
X146950000Y-75181920D02*
X147050000Y-75081920D01*
X150100000Y-86331920D02*
X150100000Y-86731920D01*
X151400000Y-82831920D02*
X151300000Y-82831920D01*
X151300000Y-82831920D02*
X150350000Y-81881920D01*
X145950000Y-74681920D02*
X145900000Y-74631920D01*
X148862500Y-85881920D02*
X149650000Y-85881920D01*
X145950000Y-76469420D02*
X145950000Y-74681920D01*
X146950000Y-76469420D02*
X146950000Y-75181920D01*
X148900000Y-113300000D02*
X149400000Y-112800000D01*
%TO.N,/ESP32_S3_WROOM/DIN*%
X138100000Y-96131920D02*
X136700000Y-97531920D01*
X136700000Y-97531920D02*
X136700000Y-99626920D01*
X150050000Y-85381920D02*
X150900000Y-86231920D01*
X147800000Y-96131920D02*
X138100000Y-96131920D01*
X150900000Y-93031920D02*
X147800000Y-96131920D01*
X136705000Y-99631920D02*
X136705000Y-99931920D01*
X148862500Y-85381920D02*
X150050000Y-85381920D01*
X136700000Y-99626920D02*
X136705000Y-99631920D01*
X150900000Y-86231920D02*
X150900000Y-93031920D01*
%TO.N,Net-(U1-CLK)*%
X152900000Y-84831920D02*
X153400000Y-84831920D01*
X151950000Y-83881920D02*
X152900000Y-84831920D01*
X148862500Y-83881920D02*
X151950000Y-83881920D01*
%TO.N,/ESP32_S3_WROOM/Start*%
X145290000Y-111341920D02*
X143550000Y-111341920D01*
%TO.N,/ESP32_S3_WROOM/CS*%
X147900000Y-94331920D02*
X147900000Y-95231920D01*
X137975000Y-97356920D02*
X137975000Y-99931920D01*
X148125001Y-82881920D02*
X147800000Y-83206921D01*
X146442000Y-96910320D02*
X138421600Y-96910320D01*
X148862500Y-82881920D02*
X148125001Y-82881920D01*
X147800000Y-83206921D02*
X147800000Y-94231920D01*
X147800000Y-94231920D02*
X147900000Y-94331920D01*
X138421600Y-96910320D02*
X137975000Y-97356920D01*
%TO.N,/ESP32_S3_WROOM/SCLK*%
X135435000Y-97696920D02*
X137500000Y-95631920D01*
X147000000Y-95631920D02*
X147400000Y-95231920D01*
X147400000Y-83106921D02*
X148125001Y-82381920D01*
X137500000Y-95631920D02*
X147000000Y-95631920D01*
X148125001Y-82381920D02*
X148862500Y-82381920D01*
X135435000Y-99931920D02*
X135435000Y-97696920D01*
X147400000Y-95231920D02*
X147400000Y-83106921D01*
%TO.N,Net-(U1-GPIO1)*%
X151852500Y-81731920D02*
X150800000Y-81731920D01*
X150450000Y-81381920D02*
X148862500Y-81381920D01*
X150800000Y-81731920D02*
X150450000Y-81381920D01*
%TO.N,/ESP32_S3_WROOM/DOUT*%
X134165000Y-99931920D02*
X134165000Y-97566920D01*
X140000000Y-91731920D02*
X134165000Y-97566920D01*
X142650000Y-85081920D02*
X143400000Y-84331920D01*
X147450000Y-80881920D02*
X148862500Y-80881920D01*
X144000000Y-84331920D02*
X147450000Y-80881920D01*
X143400000Y-84331920D02*
X144000000Y-84331920D01*
%TO.N,Net-(U1-GPIO2)*%
X148862500Y-80381920D02*
X148912500Y-80331920D01*
X148912500Y-80331920D02*
X151852500Y-80331920D01*
%TO.N,Net-(U1-GPIO3)*%
X151050000Y-79331920D02*
X151852500Y-79331920D01*
X148862500Y-79881920D02*
X150500000Y-79881920D01*
X150500000Y-79881920D02*
X151050000Y-79331920D01*
%TO.N,Net-(U1-GPIO4)*%
X150450000Y-79381920D02*
X151500000Y-78331920D01*
X148862500Y-79381920D02*
X150450000Y-79381920D01*
X151500000Y-78331920D02*
X151852500Y-78331920D01*
%TO.N,/ESP32_S3_WROOM/DRDY*%
X150250000Y-78881920D02*
X148862500Y-78881920D01*
X150700000Y-78331920D02*
X150700000Y-78431920D01*
X150700000Y-78431920D02*
X150250000Y-78881920D01*
%TO.N,/ads1299_AFE_/DVDD*%
D54*
X142910000Y-116431920D02*
X142200000Y-116431920D01*
X141200000Y-104731920D02*
X139300000Y-102831920D01*
X141200000Y-115431920D02*
X141200000Y-104731920D01*
X148018080Y-78381920D02*
X146900000Y-79500000D01*
X156100000Y-77531920D02*
X156100000Y-81781920D01*
D51*
X146450000Y-73379420D02*
X146497500Y-73331920D01*
X146500000Y-77700000D02*
X146500000Y-77400000D01*
D52*
X143550000Y-116421920D02*
X146610000Y-116421920D01*
X148835580Y-115131920D02*
X148900000Y-115067500D01*
X146610000Y-116421920D02*
X147200000Y-115831920D01*
D54*
X148862500Y-78381920D02*
X149850000Y-78381920D01*
X142200000Y-116431920D02*
X141200000Y-115431920D01*
D51*
X146450000Y-76469420D02*
X146450000Y-73379420D01*
D54*
X148862500Y-78381920D02*
X148018080Y-78381920D01*
D52*
X147197500Y-115829420D02*
X147197500Y-115131920D01*
D51*
X146450000Y-77350000D02*
X146450000Y-76469420D01*
X146500000Y-77400000D02*
X146450000Y-77350000D01*
D54*
X149850000Y-78381920D02*
X151437500Y-76794420D01*
D51*
X121902500Y-101131920D02*
X121902500Y-102434420D01*
D52*
X147197500Y-115131920D02*
X148835580Y-115131920D01*
D54*
X153995000Y-76794420D02*
X154200000Y-76999420D01*
D52*
X147200000Y-115831920D02*
X147197500Y-115829420D01*
D54*
X142920000Y-116421920D02*
X142910000Y-116431920D01*
X143550000Y-116421920D02*
X142920000Y-116421920D01*
X151437500Y-76794420D02*
X152500000Y-76794420D01*
D51*
X121902500Y-102434420D02*
X122300000Y-102831920D01*
D52*
X157962500Y-81781920D02*
X156100000Y-81781920D01*
D54*
X155567500Y-76999420D02*
X156100000Y-77531920D01*
X152500000Y-76794420D02*
X153995000Y-76794420D01*
X154200000Y-76999420D02*
X155567500Y-76999420D01*
X139300000Y-102831920D02*
X129900000Y-102831920D01*
%TO.N,Net-(U1-CLKSEL)*%
D51*
X145300000Y-73334420D02*
X145302500Y-73331920D01*
X145450000Y-76469420D02*
X145450000Y-75081920D01*
X145300000Y-74931920D02*
X145300000Y-73334420D01*
X145450000Y-75081920D02*
X145300000Y-74931920D01*
%TO.N,/ads1299_AFE_/CAP3*%
X143950000Y-73549420D02*
X143967500Y-73531920D01*
X143967500Y-72531920D02*
X143967500Y-73531920D01*
X143950000Y-76469420D02*
X143950000Y-73549420D01*
%TO.N,Net-(U1-BIASREF)*%
X138700000Y-77700000D02*
X141200000Y-77700000D01*
X137200000Y-76200000D02*
X138700000Y-77700000D01*
X141200000Y-77700000D02*
X141450000Y-77450000D01*
X141450000Y-77450000D02*
X141450000Y-76469420D01*
X136097500Y-76200000D02*
X136097500Y-75200000D01*
X136097500Y-76200000D02*
X137200000Y-76200000D01*
%TO.N,Net-(U1-BIASINV)*%
X140950000Y-76469420D02*
X140950000Y-73917500D01*
X140950000Y-73917500D02*
X140967500Y-73900000D01*
X140967500Y-73900000D02*
X140967500Y-72930000D01*
X140950000Y-72947500D02*
X140997500Y-72900000D01*
X140967500Y-72930000D02*
X140997500Y-72900000D01*
%TO.N,/ads1299_AFE_/Bias_out*%
X139950000Y-76469420D02*
X140450000Y-76469420D01*
X117367500Y-99031920D02*
X119700000Y-99031920D01*
X139802500Y-74302500D02*
X139802500Y-72900000D01*
X139950000Y-74450000D02*
X139802500Y-74302500D01*
X131831920Y-72900000D02*
X139802500Y-72900000D01*
X119700000Y-99031920D02*
X120900000Y-97831920D01*
X139950000Y-76469420D02*
X139950000Y-74450000D01*
X139832500Y-73900000D02*
X139832500Y-72930000D01*
X139832500Y-72930000D02*
X139802500Y-72900000D01*
X129300000Y-75431920D02*
X131831920Y-72900000D01*
%TO.N,Net-(SW1-A)*%
X158602500Y-95581920D02*
X156700000Y-97484420D01*
X156700000Y-97484420D02*
X156700000Y-104331920D01*
X156700000Y-104331920D02*
X160800000Y-108431920D01*
%TO.N,Net-(IC1-EN)*%
X161750000Y-91794420D02*
X161750000Y-95181920D01*
X161350000Y-95581920D02*
X159797500Y-95581920D01*
X161750000Y-95181920D02*
X161350000Y-95581920D01*
%TO.N,Net-(D2-K)*%
X165237500Y-101119420D02*
X165237500Y-99969420D01*
X166600000Y-102481920D02*
X165237500Y-101119420D01*
X167637500Y-102481920D02*
X166600000Y-102481920D01*
%TO.N,Vbat*%
D53*
X168750000Y-100431920D02*
X168750000Y-105281920D01*
D51*
X162387500Y-105764420D02*
X162405000Y-105781920D01*
D53*
X162387500Y-103719420D02*
X162387500Y-105764420D01*
X168287500Y-99969420D02*
X168750000Y-100431920D01*
X167137500Y-99969420D02*
X168287500Y-99969420D01*
X168750000Y-105281920D02*
X168250000Y-105781920D01*
X168250000Y-105781920D02*
X162405000Y-105781920D01*
%TO.N,/USB/Vbus*%
D51*
X162417500Y-97749420D02*
X162417500Y-98131920D01*
X163500000Y-107531920D02*
X164400000Y-106631920D01*
X160960000Y-113416920D02*
X162174594Y-113416920D01*
X158050000Y-97281920D02*
X161950000Y-97281920D01*
X157685000Y-113731920D02*
X156915000Y-113731920D01*
X169600000Y-99931920D02*
X167762500Y-98094420D01*
X168600000Y-106631920D02*
X169600000Y-105631920D01*
X163340000Y-108431920D02*
X163500000Y-108271920D01*
X164400000Y-106631920D02*
X168600000Y-106631920D01*
X161950000Y-97281920D02*
X162417500Y-97749420D01*
X161394999Y-118031920D02*
X162174594Y-117252325D01*
X160775000Y-118031920D02*
X161394999Y-118031920D01*
X162174594Y-117252325D02*
X162174594Y-113416920D01*
X167762500Y-98094420D02*
X166187500Y-98094420D01*
X157685000Y-113731920D02*
X158500000Y-113731920D01*
X169600000Y-105631920D02*
X169600000Y-99931920D01*
X157587500Y-99294420D02*
X157587500Y-97744420D01*
X157587500Y-97744420D02*
X158050000Y-97281920D01*
X160775000Y-113231920D02*
X160960000Y-113416920D01*
X163500000Y-108271920D02*
X163500000Y-107531920D01*
X159000000Y-113231920D02*
X160775000Y-113231920D01*
X162174594Y-113416920D02*
X163340000Y-112251514D01*
X158500000Y-113731920D02*
X159000000Y-113231920D01*
X163340000Y-112251514D02*
X163340000Y-108431920D01*
%TO.N,Net-(U6-EN)*%
X161800000Y-79831920D02*
X160287500Y-79831920D01*
X160287500Y-79831920D02*
X160237500Y-79881920D01*
%TO.N,Net-(D1-K)*%
X157570000Y-102381920D02*
X157570000Y-100886920D01*
X157570000Y-100886920D02*
X157587500Y-100869420D01*
%TO.N,/ads1299_AFE_/IN2N*%
X110100000Y-86081920D02*
X110100000Y-86531920D01*
X127100000Y-86706920D02*
X125925000Y-85531920D01*
X111750000Y-84431920D02*
X110100000Y-86081920D01*
X125925000Y-85531920D02*
X117600000Y-85531920D01*
X116500000Y-84431920D02*
X111750000Y-84431920D01*
X117600000Y-85531920D02*
X116500000Y-84431920D01*
%TO.N,/ads1299_AFE_/IN2P*%
X120255000Y-86791920D02*
X120255000Y-86581920D01*
X122655000Y-87481920D02*
X122655000Y-87031920D01*
X122295000Y-87721920D02*
X122415000Y-87721920D01*
X121695000Y-86341920D02*
X121815000Y-86341920D01*
X123255000Y-86581920D02*
X123255000Y-87031920D01*
X124095000Y-87031920D02*
X124215000Y-87031920D01*
X123255000Y-87271920D02*
X123255000Y-87481920D01*
X124215000Y-87031920D02*
X124676092Y-87031920D01*
X122055000Y-86581920D02*
X122055000Y-87031920D01*
X124676092Y-87031920D02*
X125300000Y-87031920D01*
X125300000Y-87031920D02*
X125900000Y-87631920D01*
X123495000Y-87721920D02*
X123615000Y-87721920D01*
X120855000Y-87031920D02*
X120855000Y-87481920D01*
X122055000Y-87031920D02*
X122055000Y-87481920D01*
X121455000Y-87031920D02*
X121455000Y-86581920D01*
X123255000Y-87031920D02*
X123255000Y-87271920D01*
X120855000Y-86791920D02*
X120855000Y-87031920D01*
X115750000Y-87031920D02*
X120015000Y-87031920D01*
X120495000Y-86341920D02*
X120615000Y-86341920D01*
X115550000Y-86481920D02*
X115200000Y-86481920D01*
X120855000Y-86581920D02*
X120855000Y-86791920D01*
X121095000Y-87721920D02*
X121215000Y-87721920D01*
X115600000Y-86531920D02*
X115550000Y-86481920D01*
X125900000Y-87631920D02*
X127100000Y-87631920D01*
X122895000Y-86341920D02*
X123015000Y-86341920D01*
X123855000Y-87481920D02*
X123855000Y-87271920D01*
X115200000Y-86481920D02*
X115750000Y-87031920D01*
X122655000Y-87031920D02*
X122655000Y-86581920D01*
X121455000Y-87481920D02*
X121455000Y-87031920D01*
X123855000Y-87271920D02*
G75*
G02*
X124095000Y-87031900I240000J20D01*
G01*
X122655000Y-86581920D02*
G75*
G02*
X122895000Y-86341900I240000J20D01*
G01*
X123015000Y-86341920D02*
G75*
G02*
X123254980Y-86581920I0J-239980D01*
G01*
X121215000Y-87721920D02*
G75*
G03*
X121455020Y-87481920I0J240020D01*
G01*
X122415000Y-87721920D02*
G75*
G03*
X122655020Y-87481920I0J240020D01*
G01*
X121455000Y-86581920D02*
G75*
G02*
X121695000Y-86341900I240000J20D01*
G01*
X123615000Y-87721920D02*
G75*
G03*
X123855020Y-87481920I0J240020D01*
G01*
X123255000Y-87481920D02*
G75*
G03*
X123495000Y-87721900I240000J20D01*
G01*
X121815000Y-86341920D02*
G75*
G02*
X122054980Y-86581920I0J-239980D01*
G01*
X120255000Y-86581920D02*
G75*
G02*
X120495000Y-86341900I240000J20D01*
G01*
X120855000Y-87481920D02*
G75*
G03*
X121095000Y-87721900I240000J20D01*
G01*
X122055000Y-87481920D02*
G75*
G03*
X122295000Y-87721900I240000J20D01*
G01*
X120015000Y-87031920D02*
G75*
G03*
X120255020Y-86791920I0J240020D01*
G01*
X120615000Y-86341920D02*
G75*
G02*
X120854980Y-86581920I0J-239980D01*
G01*
%TO.N,/ads1299_AFE_/IN1N*%
X109700000Y-90681920D02*
X110950000Y-90681920D01*
X110100000Y-90731920D02*
X109750000Y-90731920D01*
X109750000Y-90731920D02*
X109700000Y-90681920D01*
X110950000Y-90681920D02*
X113200000Y-88431920D01*
X113200000Y-88431920D02*
X127100000Y-88431920D01*
%TO.N,/ads1299_AFE_/IN1P*%
X121731194Y-89731920D02*
X121731194Y-90091920D01*
X119931194Y-89491920D02*
X119931194Y-89371920D01*
X120771194Y-90331920D02*
X120891194Y-90331920D01*
X125725000Y-89731920D02*
X126100000Y-89356920D01*
X120531194Y-89491920D02*
X120531194Y-89731920D01*
X124200000Y-89731920D02*
X125725000Y-89731920D01*
X122931194Y-89371920D02*
X122931194Y-89731920D01*
X122331194Y-90091920D02*
X122331194Y-89731920D01*
X123891194Y-89731920D02*
X124200000Y-89731920D01*
X121731194Y-89371920D02*
X121731194Y-89731920D01*
X123771194Y-89731920D02*
X123891194Y-89731920D01*
X123171194Y-90331920D02*
X123291194Y-90331920D01*
X122331194Y-89731920D02*
X122331194Y-89371920D01*
X120171194Y-89131920D02*
X120291194Y-89131920D01*
X121131194Y-89731920D02*
X121131194Y-89371920D01*
X120531194Y-89731920D02*
X120531194Y-90091920D01*
X119691194Y-89731920D02*
X116150000Y-89731920D01*
X120531194Y-89371920D02*
X120531194Y-89491920D01*
X115600000Y-90281920D02*
X115600000Y-90731920D01*
X122571194Y-89131920D02*
X122691194Y-89131920D01*
X122931194Y-89971920D02*
X122931194Y-90091920D01*
X122931194Y-89731920D02*
X122931194Y-89971920D01*
X126100000Y-89356920D02*
X127100000Y-89356920D01*
X123531194Y-90091920D02*
X123531194Y-89971920D01*
X121131194Y-90091920D02*
X121131194Y-89731920D01*
X116150000Y-89731920D02*
X115600000Y-90281920D01*
X121971194Y-90331920D02*
X122091194Y-90331920D01*
X121371194Y-89131920D02*
X121491194Y-89131920D01*
X123291194Y-90331920D02*
G75*
G03*
X123531220Y-90091920I6J240020D01*
G01*
X122931194Y-90091920D02*
G75*
G03*
X123171194Y-90331906I240006J20D01*
G01*
X123531194Y-89971920D02*
G75*
G02*
X123771194Y-89731894I240006J20D01*
G01*
X120291194Y-89131920D02*
G75*
G02*
X120531180Y-89371920I6J-239980D01*
G01*
X121491194Y-89131920D02*
G75*
G02*
X121731180Y-89371920I6J-239980D01*
G01*
X122331194Y-89371920D02*
G75*
G02*
X122571194Y-89131894I240006J20D01*
G01*
X120531194Y-90091920D02*
G75*
G03*
X120771194Y-90331906I240006J20D01*
G01*
X120891194Y-90331920D02*
G75*
G03*
X121131220Y-90091920I6J240020D01*
G01*
X121731194Y-90091920D02*
G75*
G03*
X121971194Y-90331906I240006J20D01*
G01*
X121131194Y-89371920D02*
G75*
G02*
X121371194Y-89131894I240006J20D01*
G01*
X119691194Y-89731920D02*
G75*
G03*
X119931220Y-89491920I6J240020D01*
G01*
X122091194Y-90331920D02*
G75*
G03*
X122331220Y-90091920I6J240020D01*
G01*
X122691194Y-89131920D02*
G75*
G02*
X122931180Y-89371920I6J-239980D01*
G01*
X119931194Y-89371920D02*
G75*
G02*
X120171194Y-89131894I240006J20D01*
G01*
%TO.N,/ads1299_AFE_/IN4N*%
X125775000Y-78406920D02*
X127100000Y-78406920D01*
X110100000Y-77681920D02*
X111650000Y-76131920D01*
X110100000Y-78131920D02*
X110100000Y-77681920D01*
X117500000Y-76931920D02*
X124300000Y-76931920D01*
X116700000Y-76131920D02*
X117500000Y-76931920D01*
X124300000Y-76931920D02*
X125775000Y-78406920D01*
X111650000Y-76131920D02*
X116700000Y-76131920D01*
%TO.N,/ads1299_AFE_/IN4P*%
X115550000Y-78081920D02*
X115200000Y-78081920D01*
X121071138Y-78531920D02*
X121071138Y-78081920D01*
X120711138Y-79221920D02*
X120831138Y-79221920D01*
X121671138Y-78081920D02*
X121671138Y-78531920D01*
X120471138Y-78081920D02*
X120471138Y-78531920D01*
X122271138Y-78981920D02*
X122271138Y-78531920D01*
X119871138Y-78981920D02*
X119871138Y-78771920D01*
X120471138Y-78531920D02*
X120471138Y-78981920D01*
X115600000Y-78131920D02*
X115550000Y-78081920D01*
X122511138Y-77841920D02*
X122631138Y-77841920D01*
X115650000Y-78531920D02*
X119031138Y-78531920D01*
X122271138Y-78531920D02*
X122271138Y-78291920D01*
X120111138Y-77841920D02*
X120231138Y-77841920D01*
X122271138Y-78291920D02*
X122271138Y-78081920D01*
X115200000Y-78081920D02*
X115650000Y-78531920D01*
X121071138Y-78981920D02*
X121071138Y-78531920D01*
X125350000Y-79331920D02*
X127100000Y-79331920D01*
X121671138Y-78531920D02*
X121671138Y-78981920D01*
X119871138Y-78531920D02*
X119871138Y-78081920D01*
X123111138Y-78531920D02*
X123231138Y-78531920D01*
X119271138Y-78771920D02*
X119271138Y-78981920D01*
X122871138Y-78081920D02*
X122871138Y-78291920D01*
X123231138Y-78531920D02*
X123600000Y-78531920D01*
X123600000Y-78531920D02*
X124550000Y-78531920D01*
X121311138Y-77841920D02*
X121431138Y-77841920D01*
X124550000Y-78531920D02*
X125350000Y-79331920D01*
X121911138Y-79221920D02*
X122031138Y-79221920D01*
X119511138Y-79221920D02*
X119631138Y-79221920D01*
X119871138Y-78771920D02*
X119871138Y-78531920D01*
X120831138Y-79221920D02*
G75*
G03*
X121071120Y-78981920I-38J240020D01*
G01*
X121431138Y-77841920D02*
G75*
G02*
X121671080Y-78081920I-38J-239980D01*
G01*
X120231138Y-77841920D02*
G75*
G02*
X120471080Y-78081920I-38J-239980D01*
G01*
X119031138Y-78531920D02*
G75*
G02*
X119271080Y-78771920I-38J-239980D01*
G01*
X122871138Y-78291920D02*
G75*
G03*
X123111138Y-78531862I239962J20D01*
G01*
X119271138Y-78981920D02*
G75*
G03*
X119511138Y-79221862I239962J20D01*
G01*
X122271138Y-78081920D02*
G75*
G02*
X122511138Y-77841938I239962J20D01*
G01*
X121071138Y-78081920D02*
G75*
G02*
X121311138Y-77841938I239962J20D01*
G01*
X121671138Y-78981920D02*
G75*
G03*
X121911138Y-79221862I239962J20D01*
G01*
X122031138Y-79221920D02*
G75*
G03*
X122271120Y-78981920I-38J240020D01*
G01*
X120471138Y-78981920D02*
G75*
G03*
X120711138Y-79221862I239962J20D01*
G01*
X122631138Y-77841920D02*
G75*
G02*
X122871080Y-78081920I-38J-239980D01*
G01*
X119631138Y-79221920D02*
G75*
G03*
X119871120Y-78981920I-38J240020D01*
G01*
X119871138Y-78081920D02*
G75*
G02*
X120111138Y-77841938I239962J20D01*
G01*
%TO.N,/ads1299_AFE_/IN3N*%
X111850000Y-80131920D02*
X110100000Y-81881920D01*
X127100000Y-80131920D02*
X111850000Y-80131920D01*
X110100000Y-81881920D02*
X110100000Y-82331920D01*
%TO.N,/ads1299_AFE_/IN3P*%
X115200000Y-82281920D02*
X116050000Y-81431920D01*
X122160081Y-81811920D02*
X122160081Y-81431920D01*
X116050000Y-81431920D02*
X120120081Y-81431920D01*
X120960081Y-81431920D02*
X120960081Y-81051920D01*
X124320081Y-81431920D02*
X124574720Y-81431920D01*
X121560081Y-81431920D02*
X121560081Y-81811920D01*
X120360081Y-81671920D02*
X120360081Y-81811920D01*
X120600081Y-82051920D02*
X120720081Y-82051920D01*
X125875000Y-81056920D02*
X127100000Y-81056920D01*
X123360081Y-81431920D02*
X123360081Y-81191920D01*
X115550000Y-82281920D02*
X115200000Y-82281920D01*
X123960081Y-81051920D02*
X123960081Y-81191920D01*
X121800081Y-82051920D02*
X121920081Y-82051920D01*
X124574720Y-81431920D02*
X125500000Y-81431920D01*
X123000081Y-82051920D02*
X123120081Y-82051920D01*
X121200081Y-80811920D02*
X121320081Y-80811920D01*
X121560081Y-81051920D02*
X121560081Y-81431920D01*
X124200081Y-81431920D02*
X124320081Y-81431920D01*
X123360081Y-81811920D02*
X123360081Y-81431920D01*
X122160081Y-81431920D02*
X122160081Y-81051920D01*
X122760081Y-81431920D02*
X122760081Y-81811920D01*
X120960081Y-81671920D02*
X120960081Y-81431920D01*
X122400081Y-80811920D02*
X122520081Y-80811920D01*
X125500000Y-81431920D02*
X125875000Y-81056920D01*
X120960081Y-81811920D02*
X120960081Y-81671920D01*
X123600081Y-80811920D02*
X123720081Y-80811920D01*
X122760081Y-81051920D02*
X122760081Y-81431920D01*
X123360081Y-81191920D02*
X123360081Y-81051920D01*
X115600000Y-82331920D02*
X115550000Y-82281920D01*
X123960081Y-81191920D02*
G75*
G03*
X124200081Y-81431919I240019J20D01*
G01*
X122160081Y-81051920D02*
G75*
G02*
X122400081Y-80811881I240019J20D01*
G01*
X122520081Y-80811920D02*
G75*
G02*
X122760080Y-81051920I19J-239980D01*
G01*
X123720081Y-80811920D02*
G75*
G02*
X123960080Y-81051920I19J-239980D01*
G01*
X120360081Y-81811920D02*
G75*
G03*
X120600081Y-82051919I240019J20D01*
G01*
X123120081Y-82051920D02*
G75*
G03*
X123360120Y-81811920I19J240020D01*
G01*
X121920081Y-82051920D02*
G75*
G03*
X122160120Y-81811920I19J240020D01*
G01*
X120120081Y-81431920D02*
G75*
G02*
X120360080Y-81671920I19J-239980D01*
G01*
X122760081Y-81811920D02*
G75*
G03*
X123000081Y-82051919I240019J20D01*
G01*
X123360081Y-81051920D02*
G75*
G02*
X123600081Y-80811881I240019J20D01*
G01*
X120960081Y-81051920D02*
G75*
G02*
X121200081Y-80811881I240019J20D01*
G01*
X121320081Y-80811920D02*
G75*
G02*
X121560080Y-81051920I19J-239980D01*
G01*
X120720081Y-82051920D02*
G75*
G03*
X120960120Y-81811920I19J240020D01*
G01*
X121560081Y-81811920D02*
G75*
G03*
X121800081Y-82051919I240019J20D01*
G01*
%TO.N,/ESP32_S3_WROOM/USB_D+*%
X157685000Y-115231920D02*
X158900000Y-115231920D01*
X158900000Y-115231920D02*
X159550000Y-115881920D01*
X157685000Y-115231920D02*
X156915000Y-115231920D01*
X159550000Y-115881920D02*
X160775000Y-115881920D01*
X154400000Y-114431920D02*
X155200000Y-115231920D01*
X155200000Y-115231920D02*
X156915000Y-115231920D01*
%TO.N,/ESP32_S3_WROOM/USB_D-*%
X157685000Y-114731920D02*
X156915000Y-114731920D01*
X144675001Y-102451920D02*
X145085001Y-102041920D01*
X145085001Y-102041920D02*
X145621090Y-102041920D01*
X159650000Y-115381920D02*
X160775000Y-115381920D01*
X155303554Y-114328366D02*
X155707108Y-114731920D01*
X143550000Y-102451920D02*
X144675001Y-102451920D01*
X157685000Y-114731920D02*
X159000000Y-114731920D01*
X155707108Y-114731920D02*
X156915000Y-114731920D01*
X159000000Y-114731920D02*
X159650000Y-115381920D01*
%TO.N,/ads1299_AFE_/Ref_electrode*%
X115235000Y-94916920D02*
X115200000Y-94881920D01*
X126225000Y-94916920D02*
X115235000Y-94916920D01*
%TO.N,Net-(U3-IO0)*%
X123097500Y-101131920D02*
X126000000Y-101131920D01*
X126000000Y-101131920D02*
X126050000Y-101181920D01*
%TO.N,Net-(U2-PROG)*%
X159087500Y-101049420D02*
X159555000Y-101049420D01*
X159950000Y-101444420D02*
X160487500Y-101444420D01*
X159555000Y-101049420D02*
X159950000Y-101444420D01*
%TO.N,SW*%
D54*
X161950000Y-91081920D02*
X165900000Y-91081920D01*
X165900000Y-91081920D02*
X166150000Y-91331920D01*
X161750000Y-90369420D02*
X161750000Y-90881920D01*
X161750000Y-90881920D02*
X161950000Y-91081920D01*
%TO.N,/ESP32_S3_WROOM/en*%
D51*
X143570000Y-115131920D02*
X143550000Y-115151920D01*
X146002500Y-115131920D02*
X143570000Y-115131920D01*
%TO.N,Net-(U2-STAT)*%
X160137500Y-102581920D02*
X158705000Y-102581920D01*
X160487500Y-103719420D02*
X160487500Y-102931920D01*
X160487500Y-102931920D02*
X160137500Y-102581920D01*
%TO.N,/ads1299_AFE_/Bias_electrode*%
X113850000Y-99031920D02*
X109700000Y-94881920D01*
X116232500Y-99031920D02*
X113850000Y-99031920D01*
%TO.N,Net-(P1-CC)*%
X160775000Y-116881920D02*
X158717500Y-116881920D01*
X158717500Y-116881920D02*
X158600000Y-116764420D01*
%TD*%
%TA.AperFunction,Conductor*%
%TO.N,/USB/Vbus*%
G36*
X162719041Y-91436941D02*
G01*
X162745337Y-91444663D01*
X162793971Y-91472032D01*
X166038464Y-94431920D01*
X166902403Y-94431920D01*
X166937338Y-94436943D01*
X166952336Y-94441347D01*
X167011087Y-94479092D01*
X167011111Y-94479120D01*
X167011114Y-94479122D01*
X167011115Y-94479124D01*
X167012274Y-94480461D01*
X167039750Y-94535322D01*
X167041395Y-94542880D01*
X167044232Y-94569251D01*
X167044232Y-98690090D01*
X167044231Y-98690096D01*
X167044232Y-98690099D01*
X167039207Y-98725034D01*
X167034802Y-98740032D01*
X166997059Y-98798775D01*
X166997024Y-98798805D01*
X166997023Y-98798807D01*
X166997021Y-98798807D01*
X166995690Y-98799962D01*
X166940829Y-98827438D01*
X166933271Y-98829083D01*
X166906900Y-98831920D01*
X164644232Y-98831920D01*
X164644232Y-100954561D01*
X164639444Y-100976262D01*
X164853372Y-101229086D01*
X164853373Y-101229087D01*
X164872105Y-101259000D01*
X164883621Y-101285018D01*
X164894232Y-101335206D01*
X164894232Y-102990090D01*
X164889207Y-103025034D01*
X164884802Y-103040032D01*
X164847059Y-103098775D01*
X164845690Y-103099962D01*
X164790829Y-103127438D01*
X164783271Y-103129083D01*
X164756900Y-103131920D01*
X163942167Y-103131920D01*
X163911063Y-103127955D01*
X163881439Y-103120278D01*
X163852327Y-103108639D01*
X162124133Y-102148531D01*
X162096034Y-102127175D01*
X162083383Y-102114338D01*
X162051333Y-102057085D01*
X162048513Y-102045689D01*
X162044885Y-102014994D01*
X162050645Y-101229086D01*
X162090267Y-95822836D01*
X162095546Y-95787943D01*
X162100060Y-95772976D01*
X162138261Y-95714479D01*
X162139853Y-95713120D01*
X162194435Y-95686185D01*
X162197159Y-95685603D01*
X162201594Y-95684656D01*
X162227497Y-95681920D01*
X163094232Y-95681920D01*
X163094232Y-93531920D01*
X162236062Y-93531920D01*
X162236057Y-93531919D01*
X162236055Y-93531920D01*
X162201121Y-93526895D01*
X162186122Y-93522490D01*
X162127376Y-93484747D01*
X162127347Y-93484713D01*
X162127346Y-93484713D01*
X162127345Y-93484711D01*
X162126189Y-93483378D01*
X162098709Y-93428503D01*
X162097064Y-93420941D01*
X162094232Y-93394588D01*
X162094232Y-91573749D01*
X162099255Y-91538813D01*
X162103659Y-91523815D01*
X162141404Y-91465064D01*
X162141432Y-91465039D01*
X162141431Y-91465039D01*
X162142773Y-91463876D01*
X162197652Y-91436397D01*
X162205211Y-91434753D01*
X162231564Y-91431920D01*
X162684109Y-91431920D01*
X162719041Y-91436941D01*
G37*
%TD.AperFunction*%
%TD*%
%TA.AperFunction,Conductor*%
%TO.N,GND*%
G36*
X143600000Y-86731920D02*
G01*
X143600000Y-88407920D01*
X143597449Y-88416605D01*
X143598738Y-88425567D01*
X143587759Y-88449607D01*
X143580315Y-88474959D01*
X143573474Y-88480886D01*
X143569713Y-88489123D01*
X143547478Y-88503412D01*
X143527511Y-88520714D01*
X143516996Y-88523001D01*
X143510935Y-88526897D01*
X143476000Y-88531920D01*
X143424000Y-88531920D01*
X143356961Y-88512235D01*
X143311206Y-88459431D01*
X143300000Y-88407920D01*
X143300000Y-86731920D01*
X143300000Y-85931920D01*
X143600000Y-85931920D01*
X143600000Y-86731920D01*
G37*
%TD.AperFunction*%
%TD*%
%TA.AperFunction,Conductor*%
%TO.N,GND*%
G36*
X134625706Y-84851605D02*
G01*
X134633062Y-84856716D01*
X134950400Y-85094720D01*
X134992221Y-85150691D01*
X135000000Y-85193920D01*
X135000000Y-85980558D01*
X134980315Y-86047597D01*
X134963681Y-86068239D01*
X134436319Y-86595601D01*
X134374996Y-86629086D01*
X134348638Y-86631920D01*
X133524000Y-86631920D01*
X133456961Y-86612235D01*
X133411206Y-86559431D01*
X133400000Y-86507920D01*
X133400000Y-84955920D01*
X133419685Y-84888881D01*
X133472489Y-84843126D01*
X133524000Y-84831920D01*
X134558667Y-84831920D01*
X134625706Y-84851605D01*
G37*
%TD.AperFunction*%
%TD*%
%TA.AperFunction,Conductor*%
%TO.N,Net-(IC1-FB)*%
G36*
X161409999Y-91485647D02*
G01*
X161416898Y-91488505D01*
X161432804Y-91504411D01*
X161443413Y-91515018D01*
X161446271Y-91521919D01*
X161450000Y-91540667D01*
X161450000Y-94623172D01*
X161446271Y-94641923D01*
X161443416Y-94648816D01*
X161416898Y-94675334D01*
X161410003Y-94678190D01*
X161391253Y-94681920D01*
X160650000Y-94681920D01*
X159508747Y-94681920D01*
X159489999Y-94678191D01*
X159483101Y-94675334D01*
X159456585Y-94648818D01*
X159453727Y-94641917D01*
X159450000Y-94623172D01*
X159450000Y-91540667D01*
X159453727Y-91521922D01*
X159456583Y-91515026D01*
X159483094Y-91488508D01*
X159490002Y-91485646D01*
X159508747Y-91481920D01*
X161391253Y-91481920D01*
X161409999Y-91485647D01*
G37*
%TD.AperFunction*%
%TD*%
%TA.AperFunction,Conductor*%
%TO.N,GND*%
G36*
X165543039Y-76851605D02*
G01*
X165588794Y-76904409D01*
X165600000Y-76955920D01*
X165600000Y-80485628D01*
X165580315Y-80552667D01*
X165527511Y-80598422D01*
X165458353Y-80608366D01*
X165414000Y-80593015D01*
X165354589Y-80558714D01*
X165354588Y-80558713D01*
X165354587Y-80558713D01*
X165252727Y-80531420D01*
X165147273Y-80531420D01*
X165045413Y-80558713D01*
X165045410Y-80558714D01*
X164998138Y-80586007D01*
X164954087Y-80611440D01*
X164954086Y-80611440D01*
X164947390Y-80615307D01*
X164885390Y-80631920D01*
X164614610Y-80631920D01*
X164552610Y-80615307D01*
X164545914Y-80611441D01*
X164545913Y-80611440D01*
X164454587Y-80558713D01*
X164352727Y-80531420D01*
X164247273Y-80531420D01*
X164145413Y-80558713D01*
X164145410Y-80558714D01*
X164098138Y-80586007D01*
X164054087Y-80611440D01*
X164054086Y-80611440D01*
X164047390Y-80615307D01*
X164031901Y-80619457D01*
X164020325Y-80626897D01*
X163985390Y-80631920D01*
X163824000Y-80631920D01*
X163756961Y-80612235D01*
X163711206Y-80559431D01*
X163700000Y-80507920D01*
X163700000Y-77431920D01*
X160124000Y-77431920D01*
X160056961Y-77412235D01*
X160011206Y-77359431D01*
X160000000Y-77307920D01*
X160000000Y-76955920D01*
X160019685Y-76888881D01*
X160072489Y-76843126D01*
X160124000Y-76831920D01*
X165476000Y-76831920D01*
X165543039Y-76851605D01*
G37*
%TD.AperFunction*%
%TD*%
%TA.AperFunction,Conductor*%
%TO.N,GND*%
G36*
X143185648Y-72246272D02*
G01*
X143200000Y-72280920D01*
X143200000Y-75782297D01*
X143199516Y-75787220D01*
X143199736Y-75787242D01*
X143199500Y-75789637D01*
X143199500Y-77149205D01*
X143199736Y-77151601D01*
X143199512Y-77151623D01*
X143200000Y-77156544D01*
X143200000Y-77182920D01*
X143185648Y-77217568D01*
X143151000Y-77231920D01*
X142349000Y-77231920D01*
X142314352Y-77217568D01*
X142300000Y-77182920D01*
X142300000Y-72280920D01*
X142314352Y-72246272D01*
X142349000Y-72231920D01*
X143151000Y-72231920D01*
X143185648Y-72246272D01*
G37*
%TD.AperFunction*%
%TD*%
%TA.AperFunction,Conductor*%
%TO.N,GND*%
G36*
X161723148Y-97796272D02*
G01*
X161737500Y-97830920D01*
X161737500Y-104332920D01*
X161723148Y-104367568D01*
X161688500Y-104381920D01*
X161186500Y-104381920D01*
X161151852Y-104367568D01*
X161137500Y-104332920D01*
X161137500Y-100381920D01*
X158686500Y-100381920D01*
X158651852Y-100367568D01*
X158637500Y-100332920D01*
X158637500Y-97830920D01*
X158651852Y-97796272D01*
X158686500Y-97781920D01*
X161688500Y-97781920D01*
X161723148Y-97796272D01*
G37*
%TD.AperFunction*%
%TD*%
%TA.AperFunction,Conductor*%
%TO.N,GNDD*%
G36*
X138243039Y-108051605D02*
G01*
X138288794Y-108104409D01*
X138300000Y-108155920D01*
X138300000Y-113631919D01*
X138299999Y-113631919D01*
X138300000Y-113631920D01*
X141300000Y-117231920D01*
X144176000Y-117231920D01*
X144243039Y-117251605D01*
X144288794Y-117304409D01*
X144300000Y-117355920D01*
X144300000Y-118007920D01*
X144280315Y-118074959D01*
X144227511Y-118120714D01*
X144176000Y-118131920D01*
X125424000Y-118131920D01*
X125356961Y-118112235D01*
X125311206Y-118059431D01*
X125300000Y-118007920D01*
X125300000Y-117355920D01*
X125319685Y-117288881D01*
X125372489Y-117243126D01*
X125424000Y-117231920D01*
X128400000Y-117231920D01*
X134400000Y-113631920D01*
X134400000Y-108155920D01*
X134419685Y-108088881D01*
X134472489Y-108043126D01*
X134524000Y-108031920D01*
X138176000Y-108031920D01*
X138243039Y-108051605D01*
G37*
%TD.AperFunction*%
%TD*%
%TA.AperFunction,Conductor*%
%TO.N,GND*%
G36*
X154443039Y-78051605D02*
G01*
X154488794Y-78104409D01*
X154500000Y-78155920D01*
X154500000Y-81907920D01*
X154480315Y-81974959D01*
X154427511Y-82020714D01*
X154376000Y-82031920D01*
X152824000Y-82031920D01*
X152756961Y-82012235D01*
X152711206Y-81959431D01*
X152700000Y-81907920D01*
X152700000Y-78155920D01*
X152719685Y-78088881D01*
X152772489Y-78043126D01*
X152824000Y-78031920D01*
X154376000Y-78031920D01*
X154443039Y-78051605D01*
G37*
%TD.AperFunction*%
%TD*%
%TA.AperFunction,Conductor*%
%TO.N,GND*%
G36*
X143300000Y-86731920D02*
G01*
X142600000Y-86731920D01*
X142600000Y-88407920D01*
X142597449Y-88416605D01*
X142598738Y-88425567D01*
X142587759Y-88449607D01*
X142580315Y-88474959D01*
X142573474Y-88480886D01*
X142569713Y-88489123D01*
X142547478Y-88503412D01*
X142527511Y-88520714D01*
X142516996Y-88523001D01*
X142510935Y-88526897D01*
X142476000Y-88531920D01*
X142424000Y-88531920D01*
X142356961Y-88512235D01*
X142311206Y-88459431D01*
X142300000Y-88407920D01*
X142300000Y-86055920D01*
X142319685Y-85988881D01*
X142372489Y-85943126D01*
X142424000Y-85931920D01*
X143300000Y-85931920D01*
X143300000Y-86731920D01*
G37*
%TD.AperFunction*%
%TA.AperFunction,Conductor*%
G36*
X147043039Y-85951605D02*
G01*
X147088794Y-86004409D01*
X147100000Y-86055920D01*
X147100000Y-88407920D01*
X147097449Y-88416605D01*
X147098738Y-88425567D01*
X147087759Y-88449607D01*
X147080315Y-88474959D01*
X147073474Y-88480886D01*
X147069713Y-88489123D01*
X147047478Y-88503412D01*
X147027511Y-88520714D01*
X147016996Y-88523001D01*
X147010935Y-88526897D01*
X146976000Y-88531920D01*
X146924000Y-88531920D01*
X146856961Y-88512235D01*
X146811206Y-88459431D01*
X146800000Y-88407920D01*
X146800000Y-86731920D01*
X143600000Y-86731920D01*
X143600000Y-85931920D01*
X146976000Y-85931920D01*
X147043039Y-85951605D01*
G37*
%TD.AperFunction*%
%TD*%
%TA.AperFunction,Conductor*%
%TO.N,GND*%
G36*
X143543039Y-91351605D02*
G01*
X143588794Y-91404409D01*
X143600000Y-91455920D01*
X143600000Y-93431920D01*
X146300000Y-93431920D01*
X146300000Y-91455920D01*
X146319685Y-91388881D01*
X146372489Y-91343126D01*
X146424000Y-91331920D01*
X146876000Y-91331920D01*
X146943039Y-91351605D01*
X146988794Y-91404409D01*
X147000000Y-91455920D01*
X147000000Y-94707920D01*
X146980315Y-94774959D01*
X146927511Y-94820714D01*
X146876000Y-94831920D01*
X141024000Y-94831920D01*
X140956961Y-94812235D01*
X140911206Y-94759431D01*
X140900000Y-94707920D01*
X140900000Y-91455920D01*
X140919685Y-91388881D01*
X140972489Y-91343126D01*
X141024000Y-91331920D01*
X143476000Y-91331920D01*
X143543039Y-91351605D01*
G37*
%TD.AperFunction*%
%TD*%
%TA.AperFunction,Conductor*%
%TO.N,GND*%
G36*
X134512248Y-80949773D02*
G01*
X134532915Y-80966371D01*
X134863538Y-81295907D01*
X134897123Y-81357173D01*
X134900000Y-81383731D01*
X134900000Y-82580558D01*
X134891355Y-82609998D01*
X134884832Y-82639985D01*
X134881077Y-82645000D01*
X134880315Y-82647597D01*
X134863681Y-82668239D01*
X134836319Y-82695601D01*
X134774996Y-82729086D01*
X134748638Y-82731920D01*
X133524000Y-82731920D01*
X133456961Y-82712235D01*
X133411206Y-82659431D01*
X133400000Y-82607920D01*
X133400000Y-81055716D01*
X133419685Y-80988677D01*
X133472489Y-80942922D01*
X133523794Y-80931716D01*
X134445177Y-80930199D01*
X134512248Y-80949773D01*
G37*
%TD.AperFunction*%
%TD*%
%TA.AperFunction,Conductor*%
%TO.N,GND*%
G36*
X164098316Y-82083589D02*
G01*
X164100349Y-82084133D01*
X164110356Y-82086815D01*
X164122172Y-82091709D01*
X164145410Y-82105126D01*
X164145411Y-82105126D01*
X164145412Y-82105126D01*
X164145413Y-82105127D01*
X164225747Y-82126652D01*
X164244172Y-82131589D01*
X164246620Y-82132420D01*
X164352730Y-82132420D01*
X164359523Y-82132420D01*
X164365407Y-82129022D01*
X164454587Y-82105127D01*
X164469925Y-82096272D01*
X164477825Y-82091711D01*
X164489639Y-82086816D01*
X164501684Y-82083588D01*
X164514363Y-82081920D01*
X164985637Y-82081920D01*
X164998316Y-82083589D01*
X165000349Y-82084133D01*
X165010356Y-82086815D01*
X165022172Y-82091709D01*
X165045410Y-82105126D01*
X165045412Y-82105126D01*
X165045413Y-82105127D01*
X165125747Y-82126652D01*
X165144172Y-82131589D01*
X165146620Y-82132420D01*
X165252730Y-82132420D01*
X165259523Y-82132420D01*
X165265407Y-82129022D01*
X165354587Y-82105127D01*
X165369925Y-82096272D01*
X165377825Y-82091711D01*
X165389639Y-82086816D01*
X165401684Y-82083588D01*
X165414363Y-82081920D01*
X165541253Y-82081920D01*
X165559999Y-82085647D01*
X165566893Y-82088503D01*
X165593413Y-82115018D01*
X165596271Y-82121919D01*
X165600000Y-82140667D01*
X165600000Y-88590274D01*
X165596269Y-88609027D01*
X165590481Y-88622999D01*
X165574103Y-88643823D01*
X162732898Y-90717904D01*
X162719202Y-90724911D01*
X162705121Y-90729504D01*
X162689926Y-90731920D01*
X162108747Y-90731920D01*
X162089999Y-90728191D01*
X162083101Y-90725334D01*
X162056585Y-90698818D01*
X162053727Y-90691917D01*
X162050000Y-90673172D01*
X162050000Y-82140667D01*
X162053727Y-82121922D01*
X162056583Y-82115026D01*
X162083094Y-82088508D01*
X162090002Y-82085646D01*
X162108747Y-82081920D01*
X164085637Y-82081920D01*
X164098316Y-82083589D01*
G37*
%TD.AperFunction*%
%TD*%
%TA.AperFunction,Conductor*%
%TO.N,GNDD*%
G36*
X163564788Y-80500827D02*
G01*
X163600752Y-80550327D01*
X163603334Y-80559874D01*
X163608116Y-80581856D01*
X163608116Y-80581857D01*
X163608117Y-80581858D01*
X163631474Y-80628519D01*
X163677229Y-80681323D01*
X163681994Y-80684385D01*
X163716674Y-80706673D01*
X163727237Y-80713461D01*
X163794276Y-80733146D01*
X163824000Y-80737420D01*
X163985390Y-80737420D01*
X164000405Y-80736346D01*
X164035340Y-80731323D01*
X164065317Y-80720140D01*
X164069457Y-80718615D01*
X164074694Y-80717213D01*
X164086166Y-80712459D01*
X164087993Y-80711787D01*
X164091514Y-80711650D01*
X164097339Y-80708287D01*
X164097381Y-80708266D01*
X164100148Y-80706667D01*
X164100151Y-80706666D01*
X164103280Y-80704858D01*
X164106835Y-80702805D01*
X164106836Y-80702806D01*
X164174846Y-80663539D01*
X164198721Y-80653650D01*
X164232711Y-80644542D01*
X164248573Y-80640293D01*
X164274194Y-80636920D01*
X164325806Y-80636920D01*
X164351427Y-80640293D01*
X164361584Y-80643014D01*
X164401277Y-80653649D01*
X164425144Y-80663535D01*
X164499860Y-80706673D01*
X164525304Y-80717212D01*
X164587304Y-80733825D01*
X164614610Y-80737420D01*
X164885389Y-80737420D01*
X164885390Y-80737420D01*
X164912696Y-80733825D01*
X164974696Y-80717212D01*
X165000151Y-80706666D01*
X165004205Y-80704323D01*
X165006835Y-80702805D01*
X165006836Y-80702806D01*
X165074846Y-80663539D01*
X165098721Y-80653650D01*
X165132711Y-80644542D01*
X165148573Y-80640293D01*
X165174194Y-80636920D01*
X165225806Y-80636920D01*
X165251426Y-80640292D01*
X165301276Y-80653649D01*
X165325147Y-80663537D01*
X165361250Y-80684381D01*
X165379494Y-80692712D01*
X165423847Y-80708063D01*
X165473368Y-80712792D01*
X165486908Y-80710845D01*
X165547198Y-80721277D01*
X165589841Y-80765154D01*
X165600000Y-80808837D01*
X165600000Y-81877420D01*
X165581093Y-81935611D01*
X165531593Y-81971575D01*
X165501000Y-81976420D01*
X165414371Y-81976420D01*
X165414363Y-81976420D01*
X165402504Y-81977196D01*
X165400616Y-81977320D01*
X165400602Y-81977321D01*
X165387930Y-81978987D01*
X165374384Y-81981681D01*
X165374377Y-81981683D01*
X165362337Y-81984909D01*
X165349246Y-81989353D01*
X165337450Y-81994242D01*
X165337446Y-81994243D01*
X165337441Y-81994246D01*
X165331620Y-81997116D01*
X165325075Y-82000345D01*
X165323653Y-82001106D01*
X165323628Y-82001059D01*
X165323625Y-82001061D01*
X165323577Y-82000965D01*
X165323573Y-82000956D01*
X165301281Y-82010188D01*
X165251425Y-82023547D01*
X165225802Y-82026920D01*
X165174197Y-82026920D01*
X165148574Y-82023547D01*
X165098722Y-82010189D01*
X165076436Y-82000957D01*
X165076356Y-82001109D01*
X165074934Y-82000349D01*
X165074922Y-82000343D01*
X165062543Y-81994239D01*
X165062537Y-81994236D01*
X165062534Y-81994235D01*
X165050738Y-81989349D01*
X165050730Y-81989346D01*
X165050727Y-81989345D01*
X165037661Y-81984910D01*
X165037660Y-81984909D01*
X165037658Y-81984909D01*
X165037644Y-81984905D01*
X165025640Y-81981689D01*
X165025634Y-81981687D01*
X165025621Y-81981684D01*
X165025616Y-81981683D01*
X165025604Y-81981680D01*
X165012098Y-81978993D01*
X165012049Y-81978985D01*
X164999416Y-81977322D01*
X164985641Y-81976420D01*
X164985637Y-81976420D01*
X164514363Y-81976420D01*
X164502504Y-81977196D01*
X164500616Y-81977320D01*
X164500602Y-81977321D01*
X164487930Y-81978987D01*
X164474384Y-81981681D01*
X164474377Y-81981683D01*
X164462337Y-81984909D01*
X164449246Y-81989353D01*
X164437450Y-81994242D01*
X164437446Y-81994243D01*
X164437441Y-81994246D01*
X164431620Y-81997116D01*
X164425075Y-82000345D01*
X164423653Y-82001106D01*
X164423628Y-82001059D01*
X164423625Y-82001061D01*
X164423577Y-82000965D01*
X164423573Y-82000956D01*
X164401281Y-82010188D01*
X164351425Y-82023547D01*
X164325802Y-82026920D01*
X164274197Y-82026920D01*
X164248574Y-82023547D01*
X164198722Y-82010189D01*
X164176434Y-82000954D01*
X164176353Y-82001107D01*
X164174929Y-82000346D01*
X164162558Y-81994246D01*
X164162533Y-81994234D01*
X164150738Y-81989349D01*
X164150730Y-81989346D01*
X164150727Y-81989345D01*
X164137661Y-81984910D01*
X164137660Y-81984909D01*
X164137658Y-81984909D01*
X164137644Y-81984905D01*
X164125640Y-81981689D01*
X164125634Y-81981687D01*
X164125621Y-81981684D01*
X164125616Y-81981683D01*
X164125604Y-81981680D01*
X164112098Y-81978993D01*
X164112049Y-81978985D01*
X164099416Y-81977322D01*
X164085641Y-81976420D01*
X164085637Y-81976420D01*
X162149000Y-81976420D01*
X162090809Y-81957513D01*
X162054845Y-81908013D01*
X162050000Y-81877420D01*
X162050000Y-81181921D01*
X162050000Y-81181920D01*
X162049999Y-81181920D01*
X159764680Y-81181920D01*
X159734087Y-81177074D01*
X159721401Y-81172952D01*
X159671901Y-81136988D01*
X159671894Y-81136978D01*
X159668900Y-81132856D01*
X159650000Y-81074676D01*
X159650000Y-80596600D01*
X159654843Y-80566014D01*
X159656838Y-80559874D01*
X159658966Y-80553323D01*
X159658969Y-80553319D01*
X159658969Y-80553314D01*
X159658972Y-80553306D01*
X159676720Y-80528885D01*
X159694923Y-80503826D01*
X159695522Y-80503391D01*
X159699063Y-80500820D01*
X159757243Y-80481920D01*
X163506597Y-80481920D01*
X163564788Y-80500827D01*
G37*
%TD.AperFunction*%
%TD*%
%TA.AperFunction,Conductor*%
%TO.N,VCC*%
G36*
X161359999Y-81435647D02*
G01*
X161366898Y-81438505D01*
X161382804Y-81454411D01*
X161393413Y-81465018D01*
X161396271Y-81471919D01*
X161400000Y-81490667D01*
X161400000Y-90673172D01*
X161396271Y-90691923D01*
X161393416Y-90698816D01*
X161366898Y-90725334D01*
X161360003Y-90728190D01*
X161341253Y-90731920D01*
X159000000Y-90731920D01*
X159000000Y-93373172D01*
X158996271Y-93391923D01*
X158993416Y-93398816D01*
X158966898Y-93425334D01*
X158960003Y-93428190D01*
X158941253Y-93431920D01*
X158308747Y-93431920D01*
X158289999Y-93428191D01*
X158283101Y-93425334D01*
X158283099Y-93425332D01*
X158283096Y-93425332D01*
X158271732Y-93413965D01*
X158256585Y-93398818D01*
X158253727Y-93391917D01*
X158250000Y-93373172D01*
X158250000Y-82340667D01*
X158253727Y-82321922D01*
X158256583Y-82315026D01*
X158283094Y-82288508D01*
X158290002Y-82285646D01*
X158308747Y-82281920D01*
X159650000Y-82281920D01*
X159650000Y-81490667D01*
X159653727Y-81471922D01*
X159656583Y-81465026D01*
X159683094Y-81438508D01*
X159690002Y-81435646D01*
X159708747Y-81431920D01*
X161341253Y-81431920D01*
X161359999Y-81435647D01*
G37*
%TD.AperFunction*%
%TD*%
%TA.AperFunction,Conductor*%
%TO.N,GNDD*%
G36*
X154415677Y-74551605D02*
G01*
X154436319Y-74568239D01*
X154463681Y-74595601D01*
X154497166Y-74656924D01*
X154500000Y-74683282D01*
X154500000Y-76107920D01*
X154480315Y-76174959D01*
X154427511Y-76220714D01*
X154376000Y-76231920D01*
X153924000Y-76231920D01*
X153856961Y-76212235D01*
X153811206Y-76159431D01*
X153800000Y-76107920D01*
X153800000Y-75731920D01*
X152124000Y-75731920D01*
X152056961Y-75712235D01*
X152011206Y-75659431D01*
X152000000Y-75607920D01*
X152000000Y-74655920D01*
X152019685Y-74588881D01*
X152072489Y-74543126D01*
X152124000Y-74531920D01*
X154348638Y-74531920D01*
X154415677Y-74551605D01*
G37*
%TD.AperFunction*%
%TD*%
M02*
