%TF.GenerationSoftware,KiCad,Pcbnew,10.0.5*%
%TF.CreationDate,2026-08-02T18:56:16+03:00*%
%TF.ProjectId,ads1299_test_board,61647331-3239-4395-9f74-6573745f626f,rev?*%
%TF.SameCoordinates,Original*%
%TF.FileFunction,Copper,L1,Top*%
%TF.FilePolarity,Positive*%
%FSLAX46Y46*%
G04 Gerber Fmt 4.6, Leading zero omitted, Abs format (unit mm)*
G04 Created by KiCad (PCBNEW 10.0.5) date 2026-08-02 18:56:16*
%MOMM*%
%LPD*%
G01*
G04 APERTURE LIST*
G04 Aperture macros list*
%AMRoundRect*
0 Rectangle with rounded corners*
0 $1 Rounding radius*
0 $2 $3 $4 $5 $6 $7 $8 $9 X,Y pos of 4 corners*
0 Add a 4 corners polygon primitive as box body*
4,1,4,$2,$3,$4,$5,$6,$7,$8,$9,$2,$3,0*
0 Add four circle primitives for the rounded corners*
1,1,$1+$1,$2,$3*
1,1,$1+$1,$4,$5*
1,1,$1+$1,$6,$7*
1,1,$1+$1,$8,$9*
0 Add four rect primitives between the rounded corners*
20,1,$1+$1,$2,$3,$4,$5,0*
20,1,$1+$1,$4,$5,$6,$7,0*
20,1,$1+$1,$6,$7,$8,$9,0*
20,1,$1+$1,$8,$9,$2,$3,0*%
G04 Aperture macros list end*
%TA.AperFunction,SMDPad,CuDef*%
%ADD10R,0.950000X0.800000*%
%TD*%
%TA.AperFunction,SMDPad,CuDef*%
%ADD11R,0.950000X0.550000*%
%TD*%
%TA.AperFunction,SMDPad,CuDef*%
%ADD12RoundRect,0.162500X0.617500X0.162500X-0.617500X0.162500X-0.617500X-0.162500X0.617500X-0.162500X0*%
%TD*%
%TA.AperFunction,SMDPad,CuDef*%
%ADD13RoundRect,0.250000X-0.337500X-0.475000X0.337500X-0.475000X0.337500X0.475000X-0.337500X0.475000X0*%
%TD*%
%TA.AperFunction,SMDPad,CuDef*%
%ADD14RoundRect,0.075000X-0.662500X-0.075000X0.662500X-0.075000X0.662500X0.075000X-0.662500X0.075000X0*%
%TD*%
%TA.AperFunction,SMDPad,CuDef*%
%ADD15RoundRect,0.075000X-0.075000X-0.662500X0.075000X-0.662500X0.075000X0.662500X-0.075000X0.662500X0*%
%TD*%
%TA.AperFunction,SMDPad,CuDef*%
%ADD16C,1.000000*%
%TD*%
%TA.AperFunction,SMDPad,CuDef*%
%ADD17RoundRect,0.160000X-0.197500X-0.160000X0.197500X-0.160000X0.197500X0.160000X-0.197500X0.160000X0*%
%TD*%
%TA.AperFunction,SMDPad,CuDef*%
%ADD18RoundRect,0.500000X1.250000X0.500000X-1.250000X0.500000X-1.250000X-0.500000X1.250000X-0.500000X0*%
%TD*%
%TA.AperFunction,SMDPad,CuDef*%
%ADD19RoundRect,0.250000X3.250000X3.250000X-3.250000X3.250000X-3.250000X-3.250000X3.250000X-3.250000X0*%
%TD*%
%TA.AperFunction,SMDPad,CuDef*%
%ADD20RoundRect,0.155000X-0.155000X0.212500X-0.155000X-0.212500X0.155000X-0.212500X0.155000X0.212500X0*%
%TD*%
%TA.AperFunction,SMDPad,CuDef*%
%ADD21RoundRect,0.150000X0.150000X-0.587500X0.150000X0.587500X-0.150000X0.587500X-0.150000X-0.587500X0*%
%TD*%
%TA.AperFunction,SMDPad,CuDef*%
%ADD22RoundRect,0.150000X0.512500X0.150000X-0.512500X0.150000X-0.512500X-0.150000X0.512500X-0.150000X0*%
%TD*%
%TA.AperFunction,SMDPad,CuDef*%
%ADD23RoundRect,0.218750X0.256250X-0.218750X0.256250X0.218750X-0.256250X0.218750X-0.256250X-0.218750X0*%
%TD*%
%TA.AperFunction,ComponentPad*%
%ADD24R,1.500000X1.500000*%
%TD*%
%TA.AperFunction,ComponentPad*%
%ADD25C,1.600000*%
%TD*%
%TA.AperFunction,SMDPad,CuDef*%
%ADD26RoundRect,0.160000X0.197500X0.160000X-0.197500X0.160000X-0.197500X-0.160000X0.197500X-0.160000X0*%
%TD*%
%TA.AperFunction,SMDPad,CuDef*%
%ADD27RoundRect,0.155000X0.212500X0.155000X-0.212500X0.155000X-0.212500X-0.155000X0.212500X-0.155000X0*%
%TD*%
%TA.AperFunction,SMDPad,CuDef*%
%ADD28RoundRect,0.150000X-0.512500X-0.150000X0.512500X-0.150000X0.512500X0.150000X-0.512500X0.150000X0*%
%TD*%
%TA.AperFunction,SMDPad,CuDef*%
%ADD29RoundRect,0.155000X-0.212500X-0.155000X0.212500X-0.155000X0.212500X0.155000X-0.212500X0.155000X0*%
%TD*%
%TA.AperFunction,SMDPad,CuDef*%
%ADD30RoundRect,0.225000X0.225000X0.375000X-0.225000X0.375000X-0.225000X-0.375000X0.225000X-0.375000X0*%
%TD*%
%TA.AperFunction,SMDPad,CuDef*%
%ADD31RoundRect,0.075000X0.200000X-0.075000X0.200000X0.075000X-0.200000X0.075000X-0.200000X-0.075000X0*%
%TD*%
%TA.AperFunction,SMDPad,CuDef*%
%ADD32RoundRect,0.250000X-0.650000X0.412500X-0.650000X-0.412500X0.650000X-0.412500X0.650000X0.412500X0*%
%TD*%
%TA.AperFunction,SMDPad,CuDef*%
%ADD33RoundRect,0.160000X-0.160000X0.197500X-0.160000X-0.197500X0.160000X-0.197500X0.160000X0.197500X0*%
%TD*%
%TA.AperFunction,SMDPad,CuDef*%
%ADD34RoundRect,0.250000X0.550000X-0.700000X0.550000X0.700000X-0.550000X0.700000X-0.550000X-0.700000X0*%
%TD*%
%TA.AperFunction,SMDPad,CuDef*%
%ADD35R,1.500000X0.900000*%
%TD*%
%TA.AperFunction,SMDPad,CuDef*%
%ADD36R,0.900000X1.500000*%
%TD*%
%TA.AperFunction,HeatsinkPad*%
%ADD37C,0.600000*%
%TD*%
%TA.AperFunction,HeatsinkPad*%
%ADD38R,3.900000X3.900000*%
%TD*%
%TA.AperFunction,SMDPad,CuDef*%
%ADD39RoundRect,0.155000X0.155000X-0.212500X0.155000X0.212500X-0.155000X0.212500X-0.155000X-0.212500X0*%
%TD*%
%TA.AperFunction,SMDPad,CuDef*%
%ADD40RoundRect,0.249999X-1.425001X0.512501X-1.425001X-0.512501X1.425001X-0.512501X1.425001X0.512501X0*%
%TD*%
%TA.AperFunction,SMDPad,CuDef*%
%ADD41RoundRect,0.237500X0.237500X-0.300000X0.237500X0.300000X-0.237500X0.300000X-0.237500X-0.300000X0*%
%TD*%
%TA.AperFunction,SMDPad,CuDef*%
%ADD42RoundRect,0.087500X0.087500X-0.250000X0.087500X0.250000X-0.087500X0.250000X-0.087500X-0.250000X0*%
%TD*%
%TA.AperFunction,SMDPad,CuDef*%
%ADD43RoundRect,0.150000X0.150000X-0.512500X0.150000X0.512500X-0.150000X0.512500X-0.150000X-0.512500X0*%
%TD*%
%TA.AperFunction,ComponentPad*%
%ADD44RoundRect,0.250000X0.600000X0.600000X-0.600000X0.600000X-0.600000X-0.600000X0.600000X-0.600000X0*%
%TD*%
%TA.AperFunction,ComponentPad*%
%ADD45C,1.700000*%
%TD*%
%TA.AperFunction,ComponentPad*%
%ADD46RoundRect,0.250000X-0.750000X0.600000X-0.750000X-0.600000X0.750000X-0.600000X0.750000X0.600000X0*%
%TD*%
%TA.AperFunction,ComponentPad*%
%ADD47O,2.000000X1.700000*%
%TD*%
%TA.AperFunction,SMDPad,CuDef*%
%ADD48RoundRect,0.150000X0.470000X-0.150000X0.470000X0.150000X-0.470000X0.150000X-0.470000X-0.150000X0*%
%TD*%
%TA.AperFunction,SMDPad,CuDef*%
%ADD49RoundRect,0.075000X0.545000X-0.075000X0.545000X0.075000X-0.545000X0.075000X-0.545000X-0.075000X0*%
%TD*%
%TA.AperFunction,ComponentPad*%
%ADD50O,2.100000X1.000000*%
%TD*%
%TA.AperFunction,ComponentPad*%
%ADD51O,1.800000X1.000000*%
%TD*%
%TA.AperFunction,SMDPad,CuDef*%
%ADD52R,0.650000X1.050000*%
%TD*%
%TA.AperFunction,ViaPad*%
%ADD53C,0.600000*%
%TD*%
%TA.AperFunction,Conductor*%
%ADD54C,0.200000*%
%TD*%
%TA.AperFunction,Conductor*%
%ADD55C,0.400000*%
%TD*%
%TA.AperFunction,Conductor*%
%ADD56C,0.300000*%
%TD*%
%TA.AperFunction,Conductor*%
%ADD57C,0.500000*%
%TD*%
G04 APERTURE END LIST*
D10*
%TO.P,R31,1,1_1*%
%TO.N,/ads1299_AFE_/1P*%
X127300000Y-92375000D03*
D11*
%TO.P,R31,2,2_2*%
%TO.N,/ads1299_AFE_/1N*%
X127300000Y-91450000D03*
%TO.P,R31,3,3_3*%
%TO.N,/ads1299_AFE_/2P*%
X127300000Y-90650000D03*
D10*
%TO.P,R31,4,4_4*%
%TO.N,/ads1299_AFE_/2N*%
X127300000Y-89725000D03*
%TO.P,R31,5,5_5*%
%TO.N,/ads1299_AFE_/IN2N*%
X125500000Y-89725000D03*
D11*
%TO.P,R31,6,6_6*%
%TO.N,/ads1299_AFE_/IN2P*%
X125500000Y-90650000D03*
%TO.P,R31,7,7_7*%
%TO.N,/ads1299_AFE_/IN1N*%
X125500000Y-91450000D03*
D10*
%TO.P,R31,8,8_8*%
%TO.N,/ads1299_AFE_/IN1P*%
X125500000Y-92375000D03*
%TD*%
%TO.P,R32,1,1_1*%
%TO.N,/ads1299_AFE_/7P*%
X127300000Y-80275000D03*
D11*
%TO.P,R32,2,2_2*%
%TO.N,/ads1299_AFE_/7N*%
X127300000Y-79350000D03*
%TO.P,R32,3,3_3*%
%TO.N,/ads1299_AFE_/8P*%
X127300000Y-78550000D03*
D10*
%TO.P,R32,4,4_4*%
%TO.N,/ads1299_AFE_/8N*%
X127300000Y-77625000D03*
%TO.P,R32,5,5_5*%
%TO.N,/ads1299_AFE_/IN8N*%
X125500000Y-77625000D03*
D11*
%TO.P,R32,6,6_6*%
%TO.N,/ads1299_AFE_/IN8P*%
X125500000Y-78550000D03*
%TO.P,R32,7,7_7*%
%TO.N,/ads1299_AFE_/IN7N*%
X125500000Y-79350000D03*
D10*
%TO.P,R32,8,8_8*%
%TO.N,/ads1299_AFE_/IN7P*%
X125500000Y-80275000D03*
%TD*%
%TO.P,R33,1,1_1*%
%TO.N,/ads1299_AFE_/5P*%
X127300000Y-84275000D03*
D11*
%TO.P,R33,2,2_2*%
%TO.N,/ads1299_AFE_/5N*%
X127300000Y-83350000D03*
%TO.P,R33,3,3_3*%
%TO.N,/ads1299_AFE_/6P*%
X127300000Y-82550000D03*
D10*
%TO.P,R33,4,4_4*%
%TO.N,/ads1299_AFE_/6N*%
X127300000Y-81625000D03*
%TO.P,R33,5,5_5*%
%TO.N,/ads1299_AFE_/IN6N*%
X125500000Y-81625000D03*
D11*
%TO.P,R33,6,6_6*%
%TO.N,/ads1299_AFE_/IN6P*%
X125500000Y-82550000D03*
%TO.P,R33,7,7_7*%
%TO.N,/ads1299_AFE_/IN5N*%
X125500000Y-83350000D03*
D10*
%TO.P,R33,8,8_8*%
%TO.N,/ads1299_AFE_/IN5P*%
X125500000Y-84275000D03*
%TD*%
%TO.P,R23,1,1_1*%
%TO.N,/ads1299_AFE_/3P*%
X127300000Y-88325000D03*
D11*
%TO.P,R23,2,2_2*%
%TO.N,/ads1299_AFE_/3N*%
X127300000Y-87400000D03*
%TO.P,R23,3,3_3*%
%TO.N,/ads1299_AFE_/4P*%
X127300000Y-86600000D03*
D10*
%TO.P,R23,4,4_4*%
%TO.N,/ads1299_AFE_/4N*%
X127300000Y-85675000D03*
%TO.P,R23,5,5_5*%
%TO.N,/ads1299_AFE_/IN4N*%
X125500000Y-85675000D03*
D11*
%TO.P,R23,6,6_6*%
%TO.N,/ads1299_AFE_/IN4P*%
X125500000Y-86600000D03*
%TO.P,R23,7,7_7*%
%TO.N,/ads1299_AFE_/IN3N*%
X125500000Y-87400000D03*
D10*
%TO.P,R23,8,8_8*%
%TO.N,/ads1299_AFE_/IN3P*%
X125500000Y-88325000D03*
%TD*%
D12*
%TO.P,IC2,1,IN_1*%
%TO.N,VCC*%
X160750000Y-78081920D03*
%TO.P,IC2,2,GND_2*%
%TO.N,GND*%
X160750000Y-77131920D03*
%TO.P,IC2,3,EN_3*%
%TO.N,Net-(IC2-EN)*%
X160750000Y-76181920D03*
%TO.P,IC2,4,N/C_4*%
%TO.N,unconnected-(IC2-N{slash}C-Pad4)*%
X158050000Y-76181920D03*
%TO.P,IC2,5,OUT_5*%
%TO.N,/ads1299_AFE_/AVDD*%
X158050000Y-78081920D03*
%TD*%
D13*
%TO.P,C18,1*%
%TO.N,Net-(IC1-VOUT)*%
X161435500Y-85860000D03*
%TO.P,C18,2*%
%TO.N,GND*%
X163510500Y-85860000D03*
%TD*%
D14*
%TO.P,U1,1,IN8N_1*%
%TO.N,/ads1299_AFE_/8N*%
X137537500Y-78381920D03*
%TO.P,U1,2,IN8P_2*%
%TO.N,/ads1299_AFE_/8P*%
X137537500Y-78881920D03*
%TO.P,U1,3,IN7N_3*%
%TO.N,/ads1299_AFE_/7N*%
X137537500Y-79381920D03*
%TO.P,U1,4,IN7P_4*%
%TO.N,/ads1299_AFE_/7P*%
X137537500Y-79881920D03*
%TO.P,U1,5,IN6N_5*%
%TO.N,/ads1299_AFE_/6N*%
X137537500Y-80381920D03*
%TO.P,U1,6,IN6P_6*%
%TO.N,/ads1299_AFE_/6P*%
X137537500Y-80881920D03*
%TO.P,U1,7,IN5N_7*%
%TO.N,/ads1299_AFE_/5N*%
X137537500Y-81381920D03*
%TO.P,U1,8,IN5P_8*%
%TO.N,/ads1299_AFE_/5P*%
X137537500Y-81881920D03*
%TO.P,U1,9,IN4N_9*%
%TO.N,/ads1299_AFE_/4N*%
X137537500Y-82381920D03*
%TO.P,U1,10,IN4P_10*%
%TO.N,/ads1299_AFE_/4P*%
X137537500Y-82881920D03*
%TO.P,U1,11,IN3N_11*%
%TO.N,/ads1299_AFE_/3N*%
X137537500Y-83381920D03*
%TO.P,U1,12,IN3P_12*%
%TO.N,/ads1299_AFE_/3P*%
X137537500Y-83881920D03*
%TO.P,U1,13,IN2N_13*%
%TO.N,/ads1299_AFE_/2N*%
X137537500Y-84381920D03*
%TO.P,U1,14,IN2P_14*%
%TO.N,/ads1299_AFE_/2P*%
X137537500Y-84881920D03*
%TO.P,U1,15,IN1N_15*%
%TO.N,/ads1299_AFE_/1N*%
X137537500Y-85381920D03*
%TO.P,U1,16,IN1P_16*%
%TO.N,/ads1299_AFE_/1P*%
X137537500Y-85881920D03*
D15*
%TO.P,U1,17,SRB1_17*%
%TO.N,/ads1299_AFE_/SRB1*%
X139450000Y-87794420D03*
%TO.P,U1,18,SRB2_18*%
%TO.N,unconnected-(U1-SRB2-Pad18)*%
X139950000Y-87794420D03*
%TO.P,U1,19,AVDD_19*%
%TO.N,/ads1299_AFE_/AVDD*%
X140450000Y-87794420D03*
%TO.P,U1,20,AVSS_20*%
%TO.N,GND*%
X140950000Y-87794420D03*
%TO.P,U1,21,AVDD_21*%
%TO.N,/ads1299_AFE_/AVDD*%
X141450000Y-87794420D03*
%TO.P,U1,22,AVDD_22*%
X141950000Y-87794420D03*
%TO.P,U1,23,AVSS_23*%
%TO.N,GND*%
X142450000Y-87794420D03*
%TO.P,U1,24,VREFP_24*%
%TO.N,/ads1299_AFE_/VREFP*%
X142950000Y-87794420D03*
%TO.P,U1,25,VREFN_25*%
%TO.N,GND*%
X143450000Y-87794420D03*
%TO.P,U1,26,VCAP4_26*%
%TO.N,/ads1299_AFE_/CAP4*%
X143950000Y-87794420D03*
%TO.P,U1,27,NC_27*%
%TO.N,unconnected-(U1-NC-Pad27)*%
X144450000Y-87794420D03*
%TO.P,U1,28,VCAP1_28*%
%TO.N,/ads1299_AFE_/CAP1*%
X144950000Y-87794420D03*
%TO.P,U1,29,NC_29*%
%TO.N,unconnected-(U1-NC-Pad29)*%
X145450000Y-87794420D03*
%TO.P,U1,30,VCAP2_30*%
%TO.N,/ads1299_AFE_/CAP2*%
X145950000Y-87794420D03*
%TO.P,U1,31,RESV1_31*%
%TO.N,unconnected-(U1-RESV1-Pad31)*%
X146450000Y-87794420D03*
%TO.P,U1,32,AVSS_32*%
%TO.N,GND*%
X146950000Y-87794420D03*
D14*
%TO.P,U1,33,DGND_33*%
X148862500Y-85881920D03*
%TO.P,U1,34,DIN_34*%
%TO.N,/ESP32_S3_WROOM/DIN*%
X148862500Y-85381920D03*
%TO.P,U1,35,~{PWDN}_35*%
%TO.N,/ESP32_S3_WROOM/Power_ads1299*%
X148862500Y-84881920D03*
%TO.P,U1,36,~{RESET}_36*%
%TO.N,/ESP32_S3_WROOM/Reset_ads1299*%
X148862500Y-84381920D03*
%TO.P,U1,37,CLK_37*%
%TO.N,Net-(U1-CLK)*%
X148862500Y-83881920D03*
%TO.P,U1,38,START_38*%
%TO.N,/ESP32_S3_WROOM/Start*%
X148862500Y-83381920D03*
%TO.P,U1,39,~{CS}_39*%
%TO.N,/ESP32_S3_WROOM/CS*%
X148862500Y-82881920D03*
%TO.P,U1,40,SCLK_40*%
%TO.N,/ESP32_S3_WROOM/SCLK*%
X148862500Y-82381920D03*
%TO.P,U1,41,DAISY_IN_41*%
%TO.N,GND*%
X148862500Y-81881920D03*
%TO.P,U1,42,GPIO1_42*%
%TO.N,Net-(U1-GPIO1)*%
X148862500Y-81381920D03*
%TO.P,U1,43,DOUT_43*%
%TO.N,/ESP32_S3_WROOM/DOUT*%
X148862500Y-80881920D03*
%TO.P,U1,44,GPIO2_44*%
%TO.N,Net-(U1-GPIO2)*%
X148862500Y-80381920D03*
%TO.P,U1,45,GPIO3_45*%
%TO.N,Net-(U1-GPIO3)*%
X148862500Y-79881920D03*
%TO.P,U1,46,GPIO4_46*%
%TO.N,Net-(U1-GPIO4)*%
X148862500Y-79381920D03*
%TO.P,U1,47,~{DRDY}_47*%
%TO.N,/ESP32_S3_WROOM/DRDY*%
X148862500Y-78881920D03*
%TO.P,U1,48,DVDD_48*%
%TO.N,/ads1299_AFE_/DVDD*%
X148862500Y-78381920D03*
D15*
%TO.P,U1,49,DGND_49*%
%TO.N,GND*%
X146950000Y-76469420D03*
%TO.P,U1,50,DVDD_50*%
%TO.N,/ads1299_AFE_/DVDD*%
X146450000Y-76469420D03*
%TO.P,U1,51,DGND_51*%
%TO.N,GND*%
X145950000Y-76469420D03*
%TO.P,U1,52,CLKSEL_52*%
%TO.N,Net-(U1-CLKSEL)*%
X145450000Y-76469420D03*
%TO.P,U1,53,AVSS1_53*%
%TO.N,GND*%
X144950000Y-76469420D03*
%TO.P,U1,54,AVDD1_54*%
%TO.N,/ads1299_AFE_/AVDD*%
X144450000Y-76469420D03*
%TO.P,U1,55,VCAP3_55*%
%TO.N,/ads1299_AFE_/CAP3*%
X143950000Y-76469420D03*
%TO.P,U1,56,AVDD_56*%
%TO.N,/ads1299_AFE_/AVDD*%
X143450000Y-76469420D03*
%TO.P,U1,57,AVSS_57*%
%TO.N,GND*%
X142950000Y-76469420D03*
%TO.P,U1,58,AVSS_58*%
X142450000Y-76469420D03*
%TO.P,U1,59,AVDD_59*%
%TO.N,/ads1299_AFE_/AVDD*%
X141950000Y-76469420D03*
%TO.P,U1,60,BIASREF_60*%
%TO.N,Net-(U1-BIASREF)*%
X141450000Y-76469420D03*
%TO.P,U1,61,BIASINV_61*%
%TO.N,Net-(U1-BIASINV)*%
X140950000Y-76469420D03*
%TO.P,U1,62,BIASIN_62*%
%TO.N,/ads1299_AFE_/Bias_out*%
X140450000Y-76469420D03*
%TO.P,U1,63,BIASOUT_63*%
X139950000Y-76469420D03*
%TO.P,U1,64,RESERVED_64*%
%TO.N,unconnected-(U1-RESERVED-Pad64)*%
X139450000Y-76469420D03*
%TD*%
D16*
%TO.P,TP2,1,1_1*%
%TO.N,GND*%
X153100000Y-104000000D03*
%TD*%
D17*
%TO.P,R15,1*%
%TO.N,Net-(SW1-C)*%
X158602500Y-95581920D03*
%TO.P,R15,2*%
%TO.N,Net-(IC1-EN)*%
X159797500Y-95581920D03*
%TD*%
D18*
%TO.P,R13,1*%
%TO.N,Vbat*%
X171072000Y-113083500D03*
D19*
X163672000Y-110783500D03*
D18*
%TO.P,R13,2*%
%TO.N,Net-(J1-Pin_2)*%
X171072000Y-108503500D03*
%TD*%
D20*
%TO.P,C7,1*%
%TO.N,/ads1299_AFE_/CAP2*%
X146650000Y-90564420D03*
%TO.P,C7,2*%
%TO.N,GND*%
X146650000Y-91699420D03*
%TD*%
D21*
%TO.P,Q1,1,G_1*%
%TO.N,Net-(D2-K)*%
X165237500Y-99969420D03*
%TO.P,Q1,2,S_2*%
%TO.N,Vbat*%
X167137500Y-99969420D03*
%TO.P,Q1,3,D_3*%
%TO.N,/USB/Vbus*%
X166187500Y-98094420D03*
%TD*%
D22*
%TO.P,U6,1,VIN_1*%
%TO.N,VCC*%
X160237500Y-81781920D03*
%TO.P,U6,2,GND_2*%
%TO.N,GND*%
X160237500Y-80831920D03*
%TO.P,U6,3,EN_3*%
%TO.N,Net-(U6-EN)*%
X160237500Y-79881920D03*
%TO.P,U6,4,NC_4*%
%TO.N,unconnected-(U6-NC-Pad4)*%
X157962500Y-79881920D03*
%TO.P,U6,5,VOUT_5*%
%TO.N,/ads1299_AFE_/DVDD*%
X157962500Y-81781920D03*
%TD*%
D23*
%TO.P,D1,1,K_1*%
%TO.N,Net-(D1-K)*%
X157587500Y-100869420D03*
%TO.P,D1,2,A_2*%
%TO.N,/USB/Vbus*%
X157587500Y-99294420D03*
%TD*%
D24*
%TO.P,SW1,1,B_1*%
%TO.N,/USB/Vbus*%
X158115000Y-108712000D03*
D25*
%TO.P,SW1,2,C_2*%
%TO.N,Net-(SW1-C)*%
X158115000Y-106172000D03*
%TO.P,SW1,3,A_3*%
%TO.N,unconnected-(SW1-A-Pad3)*%
X158115000Y-111252000D03*
%TD*%
D26*
%TO.P,R27,1*%
%TO.N,GND*%
X153047500Y-81731920D03*
%TO.P,R27,2*%
%TO.N,Net-(U1-GPIO1)*%
X151852500Y-81731920D03*
%TD*%
D27*
%TO.P,C8,1*%
%TO.N,/ads1299_AFE_/CAP3*%
X143967500Y-73531920D03*
%TO.P,C8,2*%
%TO.N,GND*%
X142832500Y-73531920D03*
%TD*%
D20*
%TO.P,C16,1*%
%TO.N,/USB/Vbus*%
X162594232Y-93014420D03*
%TO.P,C16,2*%
%TO.N,GND*%
X162594232Y-94149420D03*
%TD*%
D16*
%TO.P,TP5v1,1,1_1*%
%TO.N,/ads1299_AFE_/AVDD*%
X156300000Y-72800000D03*
%TD*%
%TO.P,TP3,1,1_1*%
%TO.N,GND*%
X169600000Y-78000000D03*
%TD*%
D28*
%TO.P,U5,1*%
%TO.N,/ads1299_AFE_/SRB1*%
X130180500Y-94173000D03*
%TO.P,U5,2,V-_2*%
%TO.N,GND*%
X130180500Y-95123000D03*
%TO.P,U5,3,+_3*%
%TO.N,/ads1299_AFE_/Ref_electrode*%
X130180500Y-96073000D03*
%TO.P,U5,4,-_4*%
%TO.N,/ads1299_AFE_/SRB1*%
X132455500Y-96073000D03*
%TO.P,U5,5,V+_5*%
%TO.N,/ads1299_AFE_/AVDD*%
X132455500Y-94173000D03*
%TD*%
D29*
%TO.P,C15,1*%
%TO.N,Net-(IC1-VOUT)*%
X158632500Y-91831920D03*
%TO.P,C15,2*%
%TO.N,Net-(IC1-FB)*%
X159767500Y-91831920D03*
%TD*%
D17*
%TO.P,R19,1*%
%TO.N,Net-(U1-BIASREF)*%
X140423300Y-72542400D03*
%TO.P,R19,2*%
%TO.N,GND*%
X141618300Y-72542400D03*
%TD*%
D13*
%TO.P,C17,1*%
%TO.N,Net-(IC1-VOUT)*%
X161435500Y-88060000D03*
%TO.P,C17,2*%
%TO.N,GND*%
X163510500Y-88060000D03*
%TD*%
D30*
%TO.P,D2,1,K_1*%
%TO.N,Net-(D2-K)*%
X167637500Y-102481920D03*
%TO.P,D2,2,A_2*%
%TO.N,/USB/Vbus*%
X164337500Y-102481920D03*
%TD*%
D31*
%TO.P,U7,1,D1+_1*%
%TO.N,/ESP32_S3_WROOM/USB_D+*%
X162753000Y-123174000D03*
%TO.P,U7,2,D1-_2*%
%TO.N,/ESP32_S3_WROOM/USB_D-*%
X162753000Y-122674000D03*
%TO.P,U7,3,GND_3*%
%TO.N,GND*%
X162753000Y-122174000D03*
%TO.P,U7,4,D2+_4*%
%TO.N,/USB/Vbus*%
X162753000Y-121674000D03*
%TO.P,U7,5,D2-_5*%
%TO.N,unconnected-(U7-D2--Pad5)*%
X162753000Y-121174000D03*
%TO.P,U7,6,NC_6*%
%TO.N,unconnected-(U7-NC-Pad6)*%
X161983000Y-121174000D03*
%TO.P,U7,7,NC_7*%
%TO.N,/USB/Vbus*%
X161983000Y-121674000D03*
%TO.P,U7,8,GND_8*%
%TO.N,GND*%
X161983000Y-122174000D03*
%TO.P,U7,9,NC_9*%
%TO.N,/ESP32_S3_WROOM/USB_D-*%
X161983000Y-122674000D03*
%TO.P,U7,10,NC_10*%
%TO.N,/ESP32_S3_WROOM/USB_D+*%
X161983000Y-123174000D03*
%TD*%
D26*
%TO.P,R28,1*%
%TO.N,GND*%
X153047500Y-80331920D03*
%TO.P,R28,2*%
%TO.N,Net-(U1-GPIO2)*%
X151852500Y-80331920D03*
%TD*%
D32*
%TO.P,C6,1*%
%TO.N,/ads1299_AFE_/CAP1*%
X144950000Y-90969420D03*
%TO.P,C6,2*%
%TO.N,GND*%
X144950000Y-94094420D03*
%TD*%
D17*
%TO.P,R21,1*%
%TO.N,/ads1299_AFE_/DVDD*%
X121902500Y-101131920D03*
%TO.P,R21,2*%
%TO.N,Net-(U3-IO0)*%
X123097500Y-101131920D03*
%TD*%
%TO.P,R25,1*%
%TO.N,/ads1299_AFE_/Bias_out*%
X138102500Y-72600000D03*
%TO.P,R25,2*%
%TO.N,Net-(U1-BIASINV)*%
X139297500Y-72600000D03*
%TD*%
D20*
%TO.P,C10,1*%
%TO.N,/ads1299_AFE_/CAP4*%
X143250000Y-90564420D03*
%TO.P,C10,2*%
%TO.N,GND*%
X143250000Y-91699420D03*
%TD*%
D26*
%TO.P,R17,1*%
%TO.N,Net-(IC2-EN)*%
X160797500Y-74631920D03*
%TO.P,R17,2*%
%TO.N,VCC*%
X159602500Y-74631920D03*
%TD*%
D33*
%TO.P,R10,1*%
%TO.N,GND*%
X159087500Y-99884420D03*
%TO.P,R10,2*%
%TO.N,Net-(U2-PROG)*%
X159087500Y-101079420D03*
%TD*%
D34*
%TO.P,L2,1,1_1*%
%TO.N,/USB/Vbus*%
X166150000Y-95431920D03*
%TO.P,L2,2,2_2*%
%TO.N,SW*%
X166150000Y-91331920D03*
%TD*%
D35*
%TO.P,U3,1,GND_1*%
%TO.N,GND*%
X143550000Y-117691920D03*
%TO.P,U3,2,3V3_2*%
%TO.N,/ads1299_AFE_/DVDD*%
X143550000Y-116421920D03*
%TO.P,U3,3,EN_3*%
%TO.N,/ESP32_S3_WROOM/en*%
X143550000Y-115151920D03*
%TO.P,U3,4,IO4_4*%
%TO.N,/ESP32_S3_WROOM/DRDY*%
X143550000Y-113881920D03*
%TO.P,U3,5,IO5_5*%
%TO.N,/ESP32_S3_WROOM/Reset_ads1299*%
X143550000Y-112611920D03*
%TO.P,U3,6,IO6_6*%
%TO.N,/ESP32_S3_WROOM/Start*%
X143550000Y-111341920D03*
%TO.P,U3,7,IO7_7*%
%TO.N,/ESP32_S3_WROOM/Power_ads1299*%
X143550000Y-110071920D03*
%TO.P,U3,8,IO15_8*%
%TO.N,unconnected-(U3-IO15-Pad8)*%
X143550000Y-108801920D03*
%TO.P,U3,9,IO16_9*%
%TO.N,unconnected-(U3-IO16-Pad9)*%
X143550000Y-107531920D03*
%TO.P,U3,10,IO17_10*%
%TO.N,unconnected-(U3-IO17-Pad10)*%
X143550000Y-106261920D03*
%TO.P,U3,11,IO18_11*%
%TO.N,unconnected-(U3-IO18-Pad11)*%
X143550000Y-104991920D03*
%TO.P,U3,12,IO8_12*%
%TO.N,unconnected-(U3-IO8-Pad12)*%
X143550000Y-103721920D03*
%TO.P,U3,13,USB_D-_13*%
%TO.N,/ESP32_S3_WROOM/USB_D-*%
X143550000Y-102451920D03*
%TO.P,U3,14,USB_D+_14*%
%TO.N,/ESP32_S3_WROOM/USB_D+*%
X143550000Y-101181920D03*
D36*
%TO.P,U3,15,IO3_15*%
%TO.N,unconnected-(U3-IO3-Pad15)*%
X141785000Y-99931920D03*
%TO.P,U3,16,IO46_16*%
%TO.N,unconnected-(U3-IO46-Pad16)*%
X140515000Y-99931920D03*
%TO.P,U3,17,IO9_17*%
%TO.N,unconnected-(U3-IO9-Pad17)*%
X139245000Y-99931920D03*
%TO.P,U3,18,IO10_18*%
%TO.N,/ESP32_S3_WROOM/CS*%
X137975000Y-99931920D03*
%TO.P,U3,19,IO11_19*%
%TO.N,/ESP32_S3_WROOM/DIN*%
X136705000Y-99931920D03*
%TO.P,U3,20,IO12_20*%
%TO.N,/ESP32_S3_WROOM/SCLK*%
X135435000Y-99931920D03*
%TO.P,U3,21,IO13_21*%
%TO.N,/ESP32_S3_WROOM/DOUT*%
X134165000Y-99931920D03*
%TO.P,U3,22,IO14_22*%
%TO.N,unconnected-(U3-IO14-Pad22)*%
X132895000Y-99931920D03*
%TO.P,U3,23,IO21_23*%
%TO.N,unconnected-(U3-IO21-Pad23)*%
X131625000Y-99931920D03*
%TO.P,U3,24,IO47_24*%
%TO.N,unconnected-(U3-IO47-Pad24)*%
X130355000Y-99931920D03*
%TO.P,U3,25,IO48_25*%
%TO.N,unconnected-(U3-IO48-Pad25)*%
X129085000Y-99931920D03*
%TO.P,U3,26,IO45_26*%
%TO.N,unconnected-(U3-IO45-Pad26)*%
X127815000Y-99931920D03*
D35*
%TO.P,U3,27,IO0_27*%
%TO.N,Net-(U3-IO0)*%
X126050000Y-101181920D03*
%TO.P,U3,28,IO35_28*%
%TO.N,unconnected-(U3-IO35-Pad28)*%
X126050000Y-102451920D03*
%TO.P,U3,29,IO36_29*%
%TO.N,unconnected-(U3-IO36-Pad29)*%
X126050000Y-103721920D03*
%TO.P,U3,30,IO37_30*%
%TO.N,unconnected-(U3-IO37-Pad30)*%
X126050000Y-104991920D03*
%TO.P,U3,31,IO38_31*%
%TO.N,unconnected-(U3-IO38-Pad31)*%
X126050000Y-106261920D03*
%TO.P,U3,32,IO39_32*%
%TO.N,unconnected-(U3-IO39-Pad32)*%
X126050000Y-107531920D03*
%TO.P,U3,33,IO40_33*%
%TO.N,unconnected-(U3-IO40-Pad33)*%
X126050000Y-108801920D03*
%TO.P,U3,34,IO41_34*%
%TO.N,unconnected-(U3-IO41-Pad34)*%
X126050000Y-110071920D03*
%TO.P,U3,35,IO42_35*%
%TO.N,unconnected-(U3-IO42-Pad35)*%
X126050000Y-111341920D03*
%TO.P,U3,36,RXD0_36*%
%TO.N,unconnected-(U3-RXD0-Pad36)*%
X126050000Y-112611920D03*
%TO.P,U3,37,TXD0_37*%
%TO.N,unconnected-(U3-TXD0-Pad37)*%
X126050000Y-113881920D03*
%TO.P,U3,38,IO2_38*%
%TO.N,unconnected-(U3-IO2-Pad38)*%
X126050000Y-115151920D03*
%TO.P,U3,39,IO1_39*%
%TO.N,unconnected-(U3-IO1-Pad39)*%
X126050000Y-116421920D03*
%TO.P,U3,40,GND_40*%
%TO.N,GND*%
X126050000Y-117691920D03*
D37*
%TO.P,U3,41,GND_41*%
X137700000Y-110671920D03*
X137700000Y-109271920D03*
X137000000Y-111371920D03*
X137000000Y-109971920D03*
X137000000Y-108571920D03*
X136300000Y-110671920D03*
D38*
X136300000Y-109971920D03*
D37*
X136300000Y-109271920D03*
X135600000Y-111371920D03*
X135600000Y-109971920D03*
X135600000Y-108571920D03*
X134900000Y-110671920D03*
X134900000Y-109271920D03*
%TD*%
D16*
%TO.P,TP4,1,1_1*%
%TO.N,VCC*%
X164125000Y-74125000D03*
%TD*%
D17*
%TO.P,R16,1*%
%TO.N,Net-(IC1-VOUT)*%
X158602500Y-93081920D03*
%TO.P,R16,2*%
%TO.N,Net-(IC1-FB)*%
X159797500Y-93081920D03*
%TD*%
D39*
%TO.P,C22,1*%
%TO.N,/ads1299_AFE_/DVDD*%
X154200000Y-76999420D03*
%TO.P,C22,2*%
%TO.N,GND*%
X154200000Y-75864420D03*
%TD*%
D40*
%TO.P,F1,1*%
%TO.N,VCC*%
X158445200Y-84144200D03*
%TO.P,F1,2*%
%TO.N,Net-(IC1-VOUT)*%
X158445200Y-90119200D03*
%TD*%
D41*
%TO.P,C21,1*%
%TO.N,/ads1299_AFE_/DVDD*%
X152500000Y-76794420D03*
%TO.P,C21,2*%
%TO.N,GND*%
X152500000Y-75069420D03*
%TD*%
D42*
%TO.P,IC1,1,FB_1*%
%TO.N,Net-(IC1-FB)*%
X161250000Y-91794420D03*
%TO.P,IC1,2,EN_2*%
%TO.N,Net-(IC1-EN)*%
X161750000Y-91794420D03*
%TO.P,IC1,3,VIN_3*%
%TO.N,/USB/Vbus*%
X162250000Y-91794420D03*
%TO.P,IC1,4,GND_4*%
%TO.N,GND*%
X162250000Y-90369420D03*
%TO.P,IC1,5,SW_5*%
%TO.N,SW*%
X161750000Y-90369420D03*
%TO.P,IC1,6,VOUT_6*%
%TO.N,Net-(IC1-VOUT)*%
X161250000Y-90369420D03*
%TD*%
D27*
%TO.P,C13,1*%
%TO.N,Vbat*%
X162405000Y-105781920D03*
%TO.P,C13,2*%
%TO.N,GND*%
X161270000Y-105781920D03*
%TD*%
D39*
%TO.P,C1,1*%
%TO.N,GND*%
X142250000Y-91699420D03*
%TO.P,C1,2*%
%TO.N,/ads1299_AFE_/VREFP*%
X142250000Y-90564420D03*
%TD*%
D43*
%TO.P,U2,1,STAT_1*%
%TO.N,Net-(U2-STAT)*%
X160487500Y-103719420D03*
%TO.P,U2,2,V_{SS}_2*%
%TO.N,GND*%
X161437500Y-103719420D03*
%TO.P,U2,3,V_{BAT}_3*%
%TO.N,Vbat*%
X162387500Y-103719420D03*
%TO.P,U2,4,V_{DD}_4*%
%TO.N,/USB/Vbus*%
X162387500Y-101444420D03*
%TO.P,U2,5,PROG_5*%
%TO.N,Net-(U2-PROG)*%
X160487500Y-101444420D03*
%TD*%
D20*
%TO.P,C28,1*%
%TO.N,/ads1299_AFE_/AVDD*%
X138750000Y-91507500D03*
%TO.P,C28,2*%
%TO.N,GND*%
X138750000Y-92642500D03*
%TD*%
D26*
%TO.P,R14,1*%
%TO.N,Net-(IC1-FB)*%
X159797500Y-94331920D03*
%TO.P,R14,2*%
%TO.N,GND*%
X158602500Y-94331920D03*
%TD*%
%TO.P,R12,1*%
%TO.N,/ads1299_AFE_/AVDD*%
X141618300Y-73609200D03*
%TO.P,R12,2*%
%TO.N,Net-(U1-BIASREF)*%
X140423300Y-73609200D03*
%TD*%
%TO.P,R29,1*%
%TO.N,GND*%
X153047500Y-79331920D03*
%TO.P,R29,2*%
%TO.N,Net-(U1-GPIO3)*%
X151852500Y-79331920D03*
%TD*%
%TO.P,R9,1*%
%TO.N,Net-(U2-STAT)*%
X158735000Y-102581920D03*
%TO.P,R9,2*%
%TO.N,Net-(D1-K)*%
X157540000Y-102581920D03*
%TD*%
D13*
%TO.P,C19,1*%
%TO.N,Net-(IC1-VOUT)*%
X161435500Y-83660000D03*
%TO.P,C19,2*%
%TO.N,GND*%
X163510500Y-83660000D03*
%TD*%
D17*
%TO.P,R11,1*%
%TO.N,GND*%
X161252500Y-98131920D03*
%TO.P,R11,2*%
%TO.N,/USB/Vbus*%
X162447500Y-98131920D03*
%TD*%
D44*
%TO.P,J2,1,Pin_1_1*%
%TO.N,/ads1299_AFE_/IN1P*%
X117300000Y-99860000D03*
D45*
%TO.P,J2,2,Pin_2_2*%
%TO.N,/ads1299_AFE_/IN1N*%
X114760000Y-99860000D03*
%TO.P,J2,3,Pin_3_3*%
%TO.N,/ads1299_AFE_/IN2P*%
X117300000Y-97320000D03*
%TO.P,J2,4,Pin_4_4*%
%TO.N,/ads1299_AFE_/IN2N*%
X114760000Y-97320000D03*
%TO.P,J2,5,Pin_5_5*%
%TO.N,/ads1299_AFE_/IN3P*%
X117300000Y-94780000D03*
%TO.P,J2,6,Pin_6_6*%
%TO.N,/ads1299_AFE_/IN3N*%
X114760000Y-94780000D03*
%TO.P,J2,7,Pin_7_7*%
%TO.N,/ads1299_AFE_/IN4P*%
X117300000Y-92240000D03*
%TO.P,J2,8,Pin_8_8*%
%TO.N,/ads1299_AFE_/IN4N*%
X114760000Y-92240000D03*
%TO.P,J2,9,Pin_9_9*%
%TO.N,/ads1299_AFE_/IN5P*%
X117300000Y-89700000D03*
%TO.P,J2,10,Pin_10_10*%
%TO.N,/ads1299_AFE_/IN5N*%
X114760000Y-89700000D03*
%TO.P,J2,11,Pin_11_11*%
%TO.N,/ads1299_AFE_/IN6P*%
X117300000Y-87160000D03*
%TO.P,J2,12,Pin_12_12*%
%TO.N,/ads1299_AFE_/IN6N*%
X114760000Y-87160000D03*
%TO.P,J2,13,Pin_13_13*%
%TO.N,/ads1299_AFE_/IN7P*%
X117300000Y-84620000D03*
%TO.P,J2,14,Pin_14_14*%
%TO.N,/ads1299_AFE_/IN7N*%
X114760000Y-84620000D03*
%TO.P,J2,15,Pin_15_15*%
%TO.N,/ads1299_AFE_/IN8P*%
X117300000Y-82080000D03*
%TO.P,J2,16,Pin_16_16*%
%TO.N,/ads1299_AFE_/IN8N*%
X114760000Y-82080000D03*
%TO.P,J2,17,Pin_17_17*%
%TO.N,/ads1299_AFE_/Ref_electrode*%
X117300000Y-79540000D03*
%TO.P,J2,18,Pin_18_18*%
%TO.N,/ads1299_AFE_/Bias_electrode*%
X114760000Y-79540000D03*
%TO.P,J2,19,Pin_19_19*%
%TO.N,/ads1299_AFE_/AVDD*%
X117300000Y-77000000D03*
%TO.P,J2,20,Pin_20_20*%
X114760000Y-77000000D03*
%TD*%
D39*
%TO.P,C11,1*%
%TO.N,GND*%
X141250000Y-91699420D03*
%TO.P,C11,2*%
%TO.N,/ads1299_AFE_/VREFP*%
X141250000Y-90564420D03*
%TD*%
D17*
%TO.P,R18,1*%
%TO.N,Net-(U6-EN)*%
X161800000Y-79831920D03*
%TO.P,R18,2*%
%TO.N,VCC*%
X162995000Y-79831920D03*
%TD*%
D46*
%TO.P,J1,1,Pin_1_1*%
%TO.N,GND*%
X170480000Y-82731920D03*
D47*
%TO.P,J1,2,Pin_2_2*%
%TO.N,Net-(J1-Pin_2)*%
X170480000Y-85231920D03*
%TD*%
D26*
%TO.P,R20,1*%
%TO.N,/ads1299_AFE_/DVDD*%
X147197500Y-115131920D03*
%TO.P,R20,2*%
%TO.N,/ESP32_S3_WROOM/en*%
X146002500Y-115131920D03*
%TD*%
D48*
%TO.P,P1,A1,GND_A1*%
%TO.N,GND*%
X165439000Y-126167000D03*
%TO.P,P1,A4,VBUS_A4*%
%TO.N,/USB/Vbus*%
X165439000Y-125367000D03*
D49*
%TO.P,P1,A5,CC_A5*%
%TO.N,Net-(P1-CC)*%
X165439000Y-124217000D03*
%TO.P,P1,A6,D+_A6*%
%TO.N,/ESP32_S3_WROOM/USB_D+*%
X165439000Y-123217000D03*
%TO.P,P1,A7,D-_A7*%
%TO.N,/ESP32_S3_WROOM/USB_D-*%
X165439000Y-122717000D03*
%TO.P,P1,A8*%
%TO.N,N/C*%
X165439000Y-121717000D03*
D48*
%TO.P,P1,A9,VBUS_A9*%
%TO.N,/USB/Vbus*%
X165439000Y-120567000D03*
%TO.P,P1,A12,GND_A12*%
%TO.N,GND*%
X165439000Y-119767000D03*
%TO.P,P1,B1,GND_B1*%
X165439000Y-119767000D03*
%TO.P,P1,B4,VBUS_B4*%
%TO.N,/USB/Vbus*%
X165439000Y-120567000D03*
D49*
%TO.P,P1,B5,VCONN_B5*%
%TO.N,unconnected-(P1-VCONN-PadB5)*%
X165439000Y-121217000D03*
%TO.P,P1,B6*%
%TO.N,N/C*%
X165439000Y-122217000D03*
%TO.P,P1,B7*%
X165439000Y-123717000D03*
%TO.P,P1,B8*%
X165439000Y-124717000D03*
D48*
%TO.P,P1,B9,VBUS_B9*%
%TO.N,/USB/Vbus*%
X165439000Y-125367000D03*
%TO.P,P1,B12,GND_B12*%
%TO.N,GND*%
X165439000Y-126167000D03*
D50*
%TO.P,P1,SH,SHIELD_SH*%
X166039000Y-127287000D03*
D51*
X170239000Y-127287000D03*
D50*
X166039000Y-118647000D03*
D51*
X170239000Y-118647000D03*
%TD*%
D16*
%TO.P,TP1,1,1_1*%
%TO.N,Net-(U1-CLK)*%
X153200000Y-85131920D03*
%TD*%
D17*
%TO.P,R26,1*%
%TO.N,Net-(U1-CLKSEL)*%
X145852500Y-73600000D03*
%TO.P,R26,2*%
%TO.N,/ads1299_AFE_/DVDD*%
X147047500Y-73600000D03*
%TD*%
D20*
%TO.P,R24,1*%
%TO.N,Net-(P1-CC)*%
X163003000Y-124400500D03*
%TO.P,R24,2*%
%TO.N,GND*%
X163003000Y-125535500D03*
%TD*%
D27*
%TO.P,C12,1*%
%TO.N,/USB/Vbus*%
X162417500Y-99331920D03*
%TO.P,C12,2*%
%TO.N,GND*%
X161282500Y-99331920D03*
%TD*%
%TO.P,R22,1*%
%TO.N,/ads1299_AFE_/Bias_out*%
X136767500Y-72600000D03*
%TO.P,R22,2*%
%TO.N,/ads1299_AFE_/Bias_electrode*%
X135632500Y-72600000D03*
%TD*%
%TO.P,C26,1*%
%TO.N,Net-(U1-BIASINV)*%
X139267500Y-73600000D03*
%TO.P,C26,2*%
%TO.N,/ads1299_AFE_/Bias_out*%
X138132500Y-73600000D03*
%TD*%
%TO.P,C9,1*%
%TO.N,/ads1299_AFE_/CAP3*%
X143967500Y-72531920D03*
%TO.P,C9,2*%
%TO.N,GND*%
X142832500Y-72531920D03*
%TD*%
D39*
%TO.P,C24,1*%
%TO.N,/ads1299_AFE_/DVDD*%
X148900000Y-115067500D03*
%TO.P,C24,2*%
%TO.N,GND*%
X148900000Y-113932500D03*
%TD*%
D26*
%TO.P,R30,1*%
%TO.N,GND*%
X153047500Y-78331920D03*
%TO.P,R30,2*%
%TO.N,Net-(U1-GPIO4)*%
X151852500Y-78331920D03*
%TD*%
D52*
%TO.P,SW2,1,1_1*%
%TO.N,GND*%
X153983000Y-107399000D03*
X153983000Y-111549000D03*
%TO.P,SW2,2,2_2*%
%TO.N,/ESP32_S3_WROOM/en*%
X151833000Y-107399000D03*
X151833000Y-111549000D03*
%TD*%
D16*
%TO.P,TP3.3v1,1,1_1*%
%TO.N,/ads1299_AFE_/DVDD*%
X153400000Y-95600000D03*
%TD*%
D53*
%TO.N,GND*%
X135200000Y-117731920D03*
X160100000Y-99031920D03*
X164973000Y-82760000D03*
X143375000Y-89450000D03*
X131600000Y-117731920D03*
X128905000Y-117729000D03*
X164973000Y-88160000D03*
X164300000Y-80931920D03*
X137922000Y-117729000D03*
X154000000Y-80331920D03*
X141300000Y-92831920D03*
X165873000Y-84560000D03*
X142200000Y-93731920D03*
X163600000Y-77131920D03*
X165873000Y-87260000D03*
X161800000Y-80831920D03*
X129800000Y-117731920D03*
X140589000Y-117729000D03*
X138550000Y-93675000D03*
X165200000Y-80931920D03*
X128524000Y-94869000D03*
X165873000Y-82760000D03*
X162600000Y-77131920D03*
X165873000Y-85460000D03*
X137000000Y-117731920D03*
X146700000Y-89325000D03*
X141200000Y-89231920D03*
X153500000Y-74831920D03*
X143100000Y-93731920D03*
X164973000Y-85460000D03*
X162600000Y-80831920D03*
X146600000Y-92831920D03*
X165873000Y-83660000D03*
X160200000Y-105731920D03*
X157300000Y-94331920D03*
X165200000Y-81731920D03*
X149400000Y-112800000D03*
X142200000Y-94531920D03*
X164300000Y-81731920D03*
X132500000Y-117731920D03*
X146600000Y-94531920D03*
X163400000Y-80831920D03*
X163873000Y-89460000D03*
X146150000Y-74850000D03*
X164973000Y-83660000D03*
X160100000Y-98231920D03*
X141300000Y-94531920D03*
X143100000Y-94531920D03*
X159200000Y-99031920D03*
X142200000Y-92831920D03*
X139700000Y-117731920D03*
X138800000Y-117731920D03*
X160600000Y-100131920D03*
X134300000Y-117731920D03*
X161400000Y-100131920D03*
X143100000Y-92831920D03*
X163638000Y-122174000D03*
X141300000Y-93731920D03*
X164600000Y-77131920D03*
X165873000Y-86360000D03*
X136100000Y-117731920D03*
X146600000Y-93731920D03*
X154200000Y-74831920D03*
X130700000Y-117731920D03*
X164973000Y-86360000D03*
X154000000Y-78931920D03*
X162500000Y-95131920D03*
X141478000Y-117729000D03*
X154000000Y-81731920D03*
X142800000Y-74331920D03*
X164973000Y-84560000D03*
X164146000Y-119634000D03*
X142800000Y-75131920D03*
X147725000Y-74900000D03*
X145150000Y-74552817D03*
X150100000Y-86731920D03*
X163634500Y-126167000D03*
X128016000Y-117731920D03*
X154000000Y-81031920D03*
X133400000Y-117731920D03*
X150650000Y-82400000D03*
X154000000Y-79631920D03*
X142175000Y-89225000D03*
X159200000Y-98231920D03*
X164973000Y-87260000D03*
%TO.N,/ads1299_AFE_/8N*%
X134200000Y-76200000D03*
%TO.N,/ads1299_AFE_/8P*%
X134100000Y-77200000D03*
%TO.N,/ads1299_AFE_/7N*%
X134100000Y-78000000D03*
%TO.N,/ads1299_AFE_/7P*%
X133980795Y-78722828D03*
%TO.N,/ads1299_AFE_/6N*%
X134300000Y-79500000D03*
%TO.N,/ads1299_AFE_/6P*%
X133300000Y-80400000D03*
%TO.N,/ads1299_AFE_/5N*%
X134300000Y-81100000D03*
%TO.N,/ads1299_AFE_/5P*%
X134200000Y-81900000D03*
%TO.N,/ads1299_AFE_/4N*%
X134200000Y-82700000D03*
%TO.N,/ads1299_AFE_/4P*%
X134200000Y-83500000D03*
%TO.N,/ads1299_AFE_/3N*%
X134100000Y-84400000D03*
%TO.N,/ads1299_AFE_/3P*%
X134000000Y-85200000D03*
%TO.N,/ads1299_AFE_/2N*%
X134100000Y-85900000D03*
%TO.N,/ads1299_AFE_/2P*%
X134100000Y-86700000D03*
%TO.N,/ads1299_AFE_/1N*%
X134100000Y-87500000D03*
%TO.N,/ads1299_AFE_/1P*%
X134164081Y-88521360D03*
%TO.N,/ESP32_S3_WROOM/Start*%
X145290000Y-111341920D03*
X147800000Y-111231920D03*
%TO.N,/ESP32_S3_WROOM/CS*%
X147900000Y-95231920D03*
X146442000Y-96910320D03*
%TO.N,/ESP32_S3_WROOM/DOUT*%
X142650000Y-85081920D03*
X140000000Y-91731920D03*
%TO.N,/ESP32_S3_WROOM/DRDY*%
X150700000Y-78331920D03*
X155067000Y-77631920D03*
%TO.N,/ads1299_AFE_/DVDD*%
X129900000Y-102831920D03*
X122300000Y-102831920D03*
%TO.N,/ESP32_S3_WROOM/USB_D+*%
X147166031Y-104293969D03*
X154400000Y-114431920D03*
%TO.N,/ESP32_S3_WROOM/USB_D-*%
X155303554Y-114328366D03*
X146630585Y-103051415D03*
%TD*%
%TO.N,/USB/Vbus*%
D54*
X161487000Y-121674000D02*
X161983000Y-121674000D01*
X161242000Y-121429000D02*
X161487000Y-121674000D01*
X159385000Y-109982000D02*
X159385000Y-115697000D01*
X158115000Y-108712000D02*
X159385000Y-109982000D01*
X159385000Y-115697000D02*
X161242000Y-117554000D01*
X161242000Y-117554000D02*
X161242000Y-121429000D01*
%TO.N,/ESP32_S3_WROOM/USB_D-*%
X157884198Y-114837000D02*
X160717000Y-117669802D01*
X155812188Y-114837000D02*
X157884198Y-114837000D01*
%TO.N,/ESP32_S3_WROOM/USB_D+*%
X157640000Y-115287000D02*
X160209000Y-117856000D01*
X160209000Y-122365198D02*
X160209000Y-117856000D01*
X155255080Y-115287000D02*
X157640000Y-115287000D01*
%TO.N,GND*%
X170180000Y-82431920D02*
X170180000Y-78580000D01*
X170480000Y-82731920D02*
X170180000Y-82431920D01*
X170180000Y-78580000D02*
X169600000Y-78000000D01*
%TO.N,Net-(J1-Pin_2)*%
D55*
X170480000Y-86611920D02*
X170480000Y-85231920D01*
X171072000Y-87203920D02*
X170480000Y-86611920D01*
X171072000Y-108503500D02*
X171072000Y-87203920D01*
%TO.N,VCC*%
D56*
X159250000Y-81781920D02*
X159100000Y-81631920D01*
D54*
X162150000Y-78081920D02*
X160750000Y-78081920D01*
X159602500Y-74631920D02*
X159602500Y-78229420D01*
D56*
X159750000Y-78081920D02*
X160750000Y-78081920D01*
X159100000Y-81631920D02*
X159100000Y-79431920D01*
D54*
X159602500Y-74097500D02*
X160074999Y-73625001D01*
D56*
X159300000Y-79231920D02*
X159300000Y-78531920D01*
X159100000Y-79431920D02*
X159300000Y-79231920D01*
D55*
X160237500Y-82351900D02*
X160237500Y-81781920D01*
D54*
X162995000Y-79831920D02*
X162995000Y-78926920D01*
X162995000Y-78926920D02*
X162150000Y-78081920D01*
D56*
X159300000Y-78531920D02*
X159602500Y-78229420D01*
X159602500Y-78229420D02*
X159750000Y-78081920D01*
D54*
X163625001Y-73625001D02*
X164125000Y-74125000D01*
D56*
X160237500Y-81781920D02*
X159250000Y-81781920D01*
D54*
X160074999Y-73625001D02*
X163625001Y-73625001D01*
X159602500Y-74631920D02*
X159602500Y-74097500D01*
D55*
X158445200Y-84144200D02*
X160237500Y-82351900D01*
%TO.N,GND*%
D54*
X143450000Y-87794420D02*
X143450000Y-89375000D01*
X148900000Y-113932500D02*
X148900000Y-113300000D01*
X143450000Y-89375000D02*
X143375000Y-89450000D01*
X160200000Y-105731920D02*
X160250000Y-105781920D01*
X145150000Y-74552817D02*
X144950000Y-74752817D01*
X149650000Y-85881920D02*
X150100000Y-86331920D01*
X146950000Y-89000000D02*
X146950000Y-87794420D01*
X138750000Y-92642500D02*
X138750000Y-93475000D01*
X142450000Y-87794420D02*
X142450000Y-88950000D01*
X150350000Y-81881920D02*
X148862500Y-81881920D01*
X153100000Y-106334000D02*
X153100000Y-104000000D01*
X153983000Y-107217000D02*
X153100000Y-106334000D01*
D55*
X161437500Y-103719420D02*
X161437500Y-105614420D01*
D54*
X146700000Y-89250000D02*
X146950000Y-89000000D01*
X162753000Y-122174000D02*
X161983000Y-122174000D01*
X150650000Y-82181920D02*
X150350000Y-81881920D01*
X138750000Y-93475000D02*
X138550000Y-93675000D01*
X163003000Y-125535500D02*
X163634500Y-126167000D01*
D56*
X162250000Y-89320500D02*
X163510500Y-88060000D01*
D54*
X150650000Y-82400000D02*
X150650000Y-82181920D01*
X140950000Y-88981920D02*
X141200000Y-89231920D01*
X153983000Y-111549000D02*
X151599500Y-113932500D01*
X145150000Y-74552817D02*
X145102817Y-74600000D01*
X150100000Y-86331920D02*
X150100000Y-86731920D01*
X161437500Y-105614420D02*
X161270000Y-105781920D01*
X128778000Y-95123000D02*
X128524000Y-94869000D01*
X164279000Y-119767000D02*
X164146000Y-119634000D01*
X130180500Y-95123000D02*
X128778000Y-95123000D01*
X140950000Y-87794420D02*
X140950000Y-88981920D01*
X153983000Y-107399000D02*
X153983000Y-107217000D01*
X147518080Y-74981920D02*
X146950000Y-75550000D01*
X162594232Y-95037688D02*
X162500000Y-95131920D01*
X162594232Y-94149420D02*
X162594232Y-95037688D01*
X145102817Y-74600000D02*
X145075000Y-74600000D01*
X160250000Y-105781920D02*
X161270000Y-105781920D01*
X148862500Y-85881920D02*
X149650000Y-85881920D01*
X153983000Y-107399000D02*
X153983000Y-111549000D01*
X162753000Y-122174000D02*
X163638000Y-122174000D01*
D56*
X162250000Y-90369420D02*
X162250000Y-89320500D01*
D54*
X146700000Y-89325000D02*
X146700000Y-89250000D01*
X144950000Y-76469420D02*
X144950000Y-74752817D01*
X141618300Y-72542400D02*
X142822020Y-72542400D01*
X158602500Y-94331920D02*
X157300000Y-94331920D01*
X145950000Y-75050000D02*
X145950000Y-76469420D01*
X151599500Y-113932500D02*
X148900000Y-113932500D01*
X142822020Y-72542400D02*
X142832500Y-72531920D01*
X148900000Y-113300000D02*
X149400000Y-112800000D01*
X142450000Y-88950000D02*
X142175000Y-89225000D01*
X147643080Y-74981920D02*
X147518080Y-74981920D01*
X165439000Y-119767000D02*
X164279000Y-119767000D01*
X147725000Y-74900000D02*
X147643080Y-74981920D01*
X146950000Y-75550000D02*
X146950000Y-76469420D01*
X146150000Y-74850000D02*
X145950000Y-75050000D01*
%TO.N,Net-(IC2-EN)*%
X160797500Y-76134420D02*
X160797500Y-74631920D01*
X160750000Y-76181920D02*
X160797500Y-76134420D01*
%TO.N,/ads1299_AFE_/AVDD*%
D56*
X156700000Y-77731920D02*
X156700000Y-75931920D01*
X157100000Y-78131920D02*
X156700000Y-77731920D01*
X144450000Y-77450000D02*
X144200000Y-77700000D01*
X152268080Y-71500000D02*
X145000000Y-71500000D01*
D54*
X134502000Y-94173000D02*
X137175000Y-91500000D01*
D56*
X158050000Y-78081920D02*
X158000000Y-78131920D01*
X145000000Y-71500000D02*
X124900000Y-71500000D01*
D54*
X140450000Y-89807500D02*
X138750000Y-91507500D01*
D56*
X117300000Y-77000000D02*
X114760000Y-77000000D01*
X145000000Y-73925000D02*
X145000000Y-71500000D01*
X124900000Y-71500000D02*
X119400000Y-77000000D01*
D54*
X154984040Y-74115960D02*
X154884040Y-74115960D01*
D56*
X143450000Y-77700000D02*
X141950000Y-77700000D01*
X141950000Y-86650000D02*
X141950000Y-87794420D01*
X141950000Y-77700000D02*
X141950000Y-86650000D01*
X144450000Y-76469420D02*
X144450000Y-77450000D01*
X144450000Y-74475000D02*
X145000000Y-73925000D01*
X143450000Y-76469420D02*
X143450000Y-77700000D01*
D54*
X137175000Y-91500000D02*
X137182500Y-91507500D01*
X141950000Y-76469420D02*
X141950000Y-73940900D01*
D56*
X119400000Y-77000000D02*
X117300000Y-77000000D01*
X144450000Y-76469420D02*
X144450000Y-74475000D01*
D54*
X156300000Y-72800000D02*
X154984040Y-74115960D01*
X132455500Y-94173000D02*
X134502000Y-94173000D01*
D56*
X156700000Y-75931920D02*
X154884040Y-74115960D01*
X154600000Y-73831920D02*
X152268080Y-71500000D01*
D54*
X137182500Y-91507500D02*
X138750000Y-91507500D01*
D56*
X144200000Y-77700000D02*
X143450000Y-77700000D01*
X141950000Y-77700000D02*
X141950000Y-76469420D01*
D54*
X140450000Y-87794420D02*
X140450000Y-89807500D01*
X141950000Y-73940900D02*
X141618300Y-73609200D01*
D56*
X154884040Y-74115960D02*
X154600000Y-73831920D01*
X158000000Y-78131920D02*
X157100000Y-78131920D01*
%TO.N,/ads1299_AFE_/8N*%
D54*
X136381920Y-78381920D02*
X137537500Y-78381920D01*
X127300000Y-77625000D02*
X129575000Y-77625000D01*
X131000000Y-76200000D02*
X134200000Y-76200000D01*
X129575000Y-77625000D02*
X131000000Y-76200000D01*
X134200000Y-76200000D02*
X136381920Y-78381920D01*
%TO.N,/ads1299_AFE_/8P*%
X137537500Y-78881920D02*
X135781920Y-78881920D01*
X131000000Y-77200000D02*
X134100000Y-77200000D01*
X127300000Y-78550000D02*
X129650000Y-78550000D01*
X129650000Y-78550000D02*
X131000000Y-77200000D01*
X135781920Y-78881920D02*
X134100000Y-77200000D01*
%TO.N,/ads1299_AFE_/7N*%
X137537500Y-79381920D02*
X135581920Y-79381920D01*
X129650000Y-79350000D02*
X131000000Y-78000000D01*
X134200000Y-78000000D02*
X134100000Y-78000000D01*
X127300000Y-79350000D02*
X129650000Y-79350000D01*
X135581920Y-79381920D02*
X134200000Y-78000000D01*
X131000000Y-78000000D02*
X134100000Y-78000000D01*
%TO.N,/ads1299_AFE_/7P*%
X137537500Y-79881920D02*
X135389027Y-79881920D01*
X135389027Y-79881920D02*
X134229935Y-78722828D01*
X134229935Y-78722828D02*
X133980795Y-78722828D01*
X127300000Y-80275000D02*
X129425000Y-80275000D01*
X130977172Y-78722828D02*
X133980795Y-78722828D01*
X129425000Y-80275000D02*
X130977172Y-78722828D01*
%TO.N,/ads1299_AFE_/6N*%
X131000000Y-79500000D02*
X134300000Y-79500000D01*
X127300000Y-81625000D02*
X128875000Y-81625000D01*
X128875000Y-81625000D02*
X131000000Y-79500000D01*
X137537500Y-80381920D02*
X135181920Y-80381920D01*
X135181920Y-80381920D02*
X134300000Y-79500000D01*
%TO.N,/ads1299_AFE_/6P*%
X128850000Y-82550000D02*
X131000000Y-80400000D01*
X134400000Y-80400000D02*
X134881920Y-80881920D01*
X133300000Y-80400000D02*
X134400000Y-80400000D01*
X131000000Y-80400000D02*
X133300000Y-80400000D01*
X134881920Y-80881920D02*
X137537500Y-80881920D01*
X127300000Y-82550000D02*
X128850000Y-82550000D01*
%TO.N,/ads1299_AFE_/5N*%
X131000000Y-81100000D02*
X134300000Y-81100000D01*
X137537500Y-81381920D02*
X134581920Y-81381920D01*
X127300000Y-83350000D02*
X128750000Y-83350000D01*
X128750000Y-83350000D02*
X131000000Y-81100000D01*
X134581920Y-81381920D02*
X134300000Y-81100000D01*
%TO.N,/ads1299_AFE_/5P*%
X137537500Y-81881920D02*
X134218080Y-81881920D01*
X128625000Y-84275000D02*
X131000000Y-81900000D01*
X131000000Y-81900000D02*
X134200000Y-81900000D01*
X134218080Y-81881920D02*
X134200000Y-81900000D01*
X127300000Y-84275000D02*
X128625000Y-84275000D01*
%TO.N,/ads1299_AFE_/4N*%
X128025000Y-85675000D02*
X131000000Y-82700000D01*
X127300000Y-85675000D02*
X128025000Y-85675000D01*
X137537500Y-82381920D02*
X134518080Y-82381920D01*
X131000000Y-82700000D02*
X134200000Y-82700000D01*
X134518080Y-82381920D02*
X134200000Y-82700000D01*
%TO.N,/ads1299_AFE_/4P*%
X127900000Y-86600000D02*
X131000000Y-83500000D01*
X137537500Y-82881920D02*
X134818080Y-82881920D01*
X131000000Y-83500000D02*
X134200000Y-83500000D01*
X127300000Y-86600000D02*
X127900000Y-86600000D01*
X134818080Y-82881920D02*
X134200000Y-83500000D01*
%TO.N,/ads1299_AFE_/3N*%
X137537500Y-83381920D02*
X135118080Y-83381920D01*
X131000000Y-84400000D02*
X134100000Y-84400000D01*
X128000000Y-87400000D02*
X131000000Y-84400000D01*
X135118080Y-83381920D02*
X134100000Y-84400000D01*
X127300000Y-87400000D02*
X128000000Y-87400000D01*
%TO.N,/ads1299_AFE_/3P*%
X131000000Y-85200000D02*
X134000000Y-85200000D01*
X137537500Y-83881920D02*
X135518080Y-83881920D01*
X127875000Y-88325000D02*
X131000000Y-85200000D01*
X135518080Y-83881920D02*
X134200000Y-85200000D01*
X134200000Y-85200000D02*
X134000000Y-85200000D01*
X127300000Y-88325000D02*
X127875000Y-88325000D01*
%TO.N,/ads1299_AFE_/2N*%
X134100000Y-85900000D02*
X133900000Y-85900000D01*
X135618080Y-84381920D02*
X134100000Y-85900000D01*
X137537500Y-84381920D02*
X135618080Y-84381920D01*
X127300000Y-89725000D02*
X127675000Y-89725000D01*
X127675000Y-89725000D02*
X131500000Y-85900000D01*
X131500000Y-85900000D02*
X134100000Y-85900000D01*
%TO.N,/ads1299_AFE_/2P*%
X131800000Y-86700000D02*
X134100000Y-86700000D01*
X135918080Y-84881920D02*
X134100000Y-86700000D01*
X127850000Y-90650000D02*
X131800000Y-86700000D01*
X127300000Y-90650000D02*
X127850000Y-90650000D01*
X137537500Y-84881920D02*
X135918080Y-84881920D01*
%TO.N,/ads1299_AFE_/1N*%
X132200000Y-87500000D02*
X134100000Y-87500000D01*
X136218080Y-85381920D02*
X134100000Y-87500000D01*
X127300000Y-91450000D02*
X128250000Y-91450000D01*
X137537500Y-85381920D02*
X136218080Y-85381920D01*
X128250000Y-91450000D02*
X132200000Y-87500000D01*
%TO.N,/ads1299_AFE_/1P*%
X128625000Y-92375000D02*
X132478640Y-88521360D01*
X132478640Y-88521360D02*
X134164081Y-88521360D01*
X134164081Y-88335919D02*
X134164081Y-88521360D01*
X137537500Y-85881920D02*
X136618080Y-85881920D01*
X136618080Y-85881920D02*
X134164081Y-88335919D01*
X127300000Y-92375000D02*
X128625000Y-92375000D01*
%TO.N,/ads1299_AFE_/SRB1*%
X139450000Y-89050000D02*
X139050000Y-89450000D01*
X130175000Y-91825000D02*
X130175000Y-93450000D01*
X139450000Y-87794420D02*
X139450000Y-89050000D01*
X132455500Y-95755500D02*
X130873000Y-94173000D01*
X130175000Y-93450000D02*
X130180500Y-93455500D01*
X132550000Y-89450000D02*
X130175000Y-91825000D01*
X139050000Y-89450000D02*
X132550000Y-89450000D01*
X132455500Y-96073000D02*
X132455500Y-95755500D01*
X130180500Y-93455500D02*
X130180500Y-94173000D01*
X130873000Y-94173000D02*
X130180500Y-94173000D01*
%TO.N,/ads1299_AFE_/VREFP*%
X142950000Y-87794420D02*
X142950000Y-89175000D01*
X142250000Y-89875000D02*
X142250000Y-90564420D01*
X142250000Y-90564420D02*
X141250000Y-90564420D01*
X142950000Y-89175000D02*
X142250000Y-89875000D01*
%TO.N,/ads1299_AFE_/CAP4*%
X143250000Y-90350000D02*
X143250000Y-90564420D01*
X143950000Y-89650000D02*
X143250000Y-90350000D01*
X143950000Y-87794420D02*
X143950000Y-89650000D01*
%TO.N,/ads1299_AFE_/CAP1*%
X144950000Y-87794420D02*
X144950000Y-90969420D01*
%TO.N,/ads1299_AFE_/CAP2*%
X145950000Y-87794420D02*
X145950000Y-89625000D01*
X145950000Y-89625000D02*
X146650000Y-90325000D01*
X146650000Y-90325000D02*
X146650000Y-90564420D01*
%TO.N,/ESP32_S3_WROOM/DIN*%
X150700000Y-93231920D02*
X147800000Y-96131920D01*
X136705000Y-99631920D02*
X136705000Y-99931920D01*
X136700000Y-99626920D02*
X136705000Y-99631920D01*
X147800000Y-96131920D02*
X139268080Y-96131920D01*
X139268080Y-96131920D02*
X136700000Y-98700000D01*
X150050000Y-85381920D02*
X150700000Y-86031920D01*
X150700000Y-86031920D02*
X150700000Y-93231920D01*
X148862500Y-85381920D02*
X150050000Y-85381920D01*
X136700000Y-98700000D02*
X136700000Y-99626920D01*
%TO.N,/ESP32_S3_WROOM/Power_ads1299*%
X150700000Y-93778092D02*
X150700000Y-93775736D01*
X150350000Y-84881920D02*
X148862500Y-84881920D01*
X144690080Y-110071920D02*
X150600000Y-104162000D01*
X151100000Y-85631920D02*
X150350000Y-84881920D01*
X150600000Y-93878092D02*
X150700000Y-93778092D01*
X143550000Y-110071920D02*
X144690080Y-110071920D01*
X150700000Y-93775736D02*
X151100000Y-93375736D01*
X150600000Y-104162000D02*
X150600000Y-93878092D01*
X151100000Y-93375736D02*
X151100000Y-85631920D01*
%TO.N,/ESP32_S3_WROOM/Reset_ads1299*%
X146238800Y-109285200D02*
X151000000Y-104524000D01*
X151000000Y-94000000D02*
X151500000Y-93500000D01*
X151000000Y-104524000D02*
X151000000Y-94000000D01*
X151500000Y-85231920D02*
X150650000Y-84381920D01*
X143550000Y-112611920D02*
X145116800Y-112611920D01*
X151500000Y-93500000D02*
X151500000Y-85231920D01*
X150650000Y-84381920D02*
X148862500Y-84381920D01*
X146238800Y-111489920D02*
X146238800Y-109285200D01*
X145116800Y-112611920D02*
X146238800Y-111489920D01*
%TO.N,Net-(U1-CLK)*%
X152900000Y-84831920D02*
X153400000Y-84831920D01*
X151950000Y-83881920D02*
X152900000Y-84831920D01*
X148862500Y-83881920D02*
X151950000Y-83881920D01*
%TO.N,/ESP32_S3_WROOM/Start*%
X148300000Y-107986000D02*
X151400000Y-104886000D01*
X151400000Y-104886000D02*
X151400000Y-94100000D01*
X148300000Y-110731920D02*
X148300000Y-107986000D01*
X154584400Y-83718400D02*
X154247920Y-83381920D01*
X145290000Y-111341920D02*
X143550000Y-111341920D01*
X151400000Y-94100000D02*
X151900000Y-93600000D01*
X154247920Y-83381920D02*
X148862500Y-83381920D01*
X147800000Y-111231920D02*
X148300000Y-110731920D01*
X154584400Y-86588600D02*
X154584400Y-83718400D01*
X151900000Y-93600000D02*
X151900000Y-89273000D01*
X151900000Y-89273000D02*
X154584400Y-86588600D01*
%TO.N,/ESP32_S3_WROOM/CS*%
X137975000Y-98425000D02*
X137975000Y-99931920D01*
X139489680Y-96910320D02*
X137975000Y-98425000D01*
X147900000Y-94331920D02*
X147900000Y-95231920D01*
X147800000Y-94231920D02*
X147900000Y-94331920D01*
X148862500Y-82881920D02*
X147943080Y-82881920D01*
X147943080Y-82881920D02*
X147800000Y-83025000D01*
X146442000Y-96910320D02*
X139489680Y-96910320D01*
X147800000Y-83025000D02*
X147800000Y-94231920D01*
%TO.N,/ESP32_S3_WROOM/SCLK*%
X147000000Y-95631920D02*
X147400000Y-95231920D01*
X138668080Y-95631920D02*
X147000000Y-95631920D01*
X147793080Y-82381920D02*
X148862500Y-82381920D01*
X135435000Y-98865000D02*
X138668080Y-95631920D01*
X147400000Y-82775000D02*
X147793080Y-82381920D01*
X135435000Y-99931920D02*
X135435000Y-98865000D01*
X147400000Y-95231920D02*
X147400000Y-82775000D01*
%TO.N,Net-(U1-GPIO1)*%
X151852500Y-81731920D02*
X150800000Y-81731920D01*
X150450000Y-81381920D02*
X148862500Y-81381920D01*
X150800000Y-81731920D02*
X150450000Y-81381920D01*
%TO.N,/ESP32_S3_WROOM/DOUT*%
X134165000Y-99931920D02*
X134165000Y-99035000D01*
X142650000Y-85081920D02*
X143400000Y-84331920D01*
X147450000Y-80881920D02*
X148862500Y-80881920D01*
X144000000Y-84331920D02*
X147450000Y-80881920D01*
X134165000Y-99035000D02*
X140000000Y-93200000D01*
X143400000Y-84331920D02*
X144000000Y-84331920D01*
X140000000Y-93200000D02*
X140000000Y-91731920D01*
%TO.N,Net-(U1-GPIO2)*%
X148862500Y-80381920D02*
X148912500Y-80331920D01*
X148912500Y-80331920D02*
X151852500Y-80331920D01*
%TO.N,Net-(U1-GPIO3)*%
X151050000Y-79331920D02*
X151852500Y-79331920D01*
X148862500Y-79881920D02*
X150500000Y-79881920D01*
X150500000Y-79881920D02*
X151050000Y-79331920D01*
%TO.N,Net-(U1-GPIO4)*%
X150450000Y-79381920D02*
X151500000Y-78331920D01*
X148862500Y-79381920D02*
X150450000Y-79381920D01*
X151500000Y-78331920D02*
X151852500Y-78331920D01*
%TO.N,/ESP32_S3_WROOM/DRDY*%
X151800000Y-94264488D02*
X151800000Y-105248000D01*
X155092400Y-86842600D02*
X152300000Y-89635000D01*
X151800000Y-105248000D02*
X149794800Y-107253200D01*
X150250000Y-78881920D02*
X148862500Y-78881920D01*
X155092400Y-77839520D02*
X155092400Y-86842600D01*
X150700000Y-78331920D02*
X150700000Y-78431920D01*
X152300000Y-93764488D02*
X151800000Y-94264488D01*
X150700000Y-78431920D02*
X150250000Y-78881920D01*
X155067000Y-77631920D02*
X155067000Y-77814120D01*
X149794800Y-110301200D02*
X146214080Y-113881920D01*
X152300000Y-89635000D02*
X152300000Y-93764488D01*
X149794800Y-107253200D02*
X149794800Y-110301200D01*
X146214080Y-113881920D02*
X143550000Y-113881920D01*
X155067000Y-77814120D02*
X155092400Y-77839520D01*
%TO.N,/ads1299_AFE_/DVDD*%
D56*
X142910000Y-116431920D02*
X142200000Y-116431920D01*
X141200000Y-104731920D02*
X139300000Y-102831920D01*
D54*
X146450000Y-76469420D02*
X146450000Y-75257107D01*
X153400000Y-95600000D02*
X154686000Y-95600000D01*
D56*
X141200000Y-115431920D02*
X141200000Y-104731920D01*
D54*
X146450000Y-77100000D02*
X147731920Y-78381920D01*
D57*
X148900000Y-115067500D02*
X152394500Y-115067500D01*
D54*
X147047500Y-74659607D02*
X147047500Y-73600000D01*
D56*
X156100000Y-77531920D02*
X156100000Y-81781920D01*
D57*
X154686000Y-105283000D02*
X154686000Y-95600000D01*
X143550000Y-116421920D02*
X146610000Y-116421920D01*
X148835580Y-115131920D02*
X148900000Y-115067500D01*
X146610000Y-116421920D02*
X147200000Y-115831920D01*
X155702000Y-111760000D02*
X155702000Y-106299000D01*
D56*
X148862500Y-78381920D02*
X149850000Y-78381920D01*
X142200000Y-116431920D02*
X141200000Y-115431920D01*
X148862500Y-78381920D02*
X148018080Y-78381920D01*
D57*
X147197500Y-115829420D02*
X147197500Y-115131920D01*
D56*
X149850000Y-78381920D02*
X151437500Y-76794420D01*
D57*
X154686000Y-95600000D02*
X154686000Y-88773000D01*
X154686000Y-88773000D02*
X155803600Y-87655400D01*
X152394500Y-115067500D02*
X155702000Y-111760000D01*
D54*
X121902500Y-101131920D02*
X121902500Y-102434420D01*
D57*
X147197500Y-115131920D02*
X148835580Y-115131920D01*
D56*
X153995000Y-76794420D02*
X154200000Y-76999420D01*
D54*
X146450000Y-75257107D02*
X147047500Y-74659607D01*
D57*
X147200000Y-115831920D02*
X147197500Y-115829420D01*
D56*
X142920000Y-116421920D02*
X142910000Y-116431920D01*
X143550000Y-116421920D02*
X142920000Y-116421920D01*
X151437500Y-76794420D02*
X152500000Y-76794420D01*
D54*
X121902500Y-102434420D02*
X122300000Y-102831920D01*
D57*
X155803600Y-82078320D02*
X156100000Y-81781920D01*
X157962500Y-81781920D02*
X156100000Y-81781920D01*
X155803600Y-87655400D02*
X155803600Y-82078320D01*
D56*
X155567500Y-76999420D02*
X156100000Y-77531920D01*
D57*
X155702000Y-106299000D02*
X154686000Y-105283000D01*
D56*
X152500000Y-76794420D02*
X153995000Y-76794420D01*
D54*
X147731920Y-78381920D02*
X148862500Y-78381920D01*
D56*
X154200000Y-76999420D02*
X155567500Y-76999420D01*
D54*
X146450000Y-76469420D02*
X146450000Y-77100000D01*
D56*
X139300000Y-102831920D02*
X129900000Y-102831920D01*
%TO.N,Net-(U1-CLKSEL)*%
D54*
X145450000Y-75081920D02*
X145650000Y-74881920D01*
X145450000Y-76469420D02*
X145450000Y-75081920D01*
X145650000Y-73802500D02*
X145852500Y-73600000D01*
X145650000Y-74881920D02*
X145650000Y-73802500D01*
%TO.N,/ads1299_AFE_/CAP3*%
X143950000Y-73549420D02*
X143967500Y-73531920D01*
X143967500Y-72531920D02*
X143967500Y-73531920D01*
X143950000Y-76469420D02*
X143950000Y-73549420D01*
%TO.N,Net-(U1-BIASREF)*%
X140423300Y-73609200D02*
X141450000Y-74635900D01*
X140423300Y-72542400D02*
X140423300Y-73609200D01*
X141450000Y-74635900D02*
X141450000Y-76469420D01*
%TO.N,Net-(U1-BIASINV)*%
X139250000Y-73617500D02*
X139267500Y-73600000D01*
X139267500Y-73600000D02*
X139267500Y-72630000D01*
X139250000Y-72647500D02*
X139297500Y-72600000D01*
X139267500Y-72630000D02*
X139297500Y-72600000D01*
X140950000Y-75282500D02*
X140950000Y-76469420D01*
X139267500Y-73600000D02*
X140950000Y-75282500D01*
%TO.N,/ads1299_AFE_/Bias_out*%
X139950000Y-75750000D02*
X138132500Y-73932500D01*
X138132500Y-73932500D02*
X138132500Y-73600000D01*
X138102500Y-73570000D02*
X138132500Y-73600000D01*
X138102500Y-72600000D02*
X138102500Y-73570000D01*
X136767500Y-72600000D02*
X138102500Y-72600000D01*
X139950000Y-76469420D02*
X139950000Y-75750000D01*
%TO.N,Net-(SW1-C)*%
X155956000Y-97409000D02*
X157783080Y-95581920D01*
X155956000Y-104013000D02*
X155956000Y-97409000D01*
X157783080Y-95581920D02*
X158602500Y-95581920D01*
X158115000Y-106172000D02*
X155956000Y-104013000D01*
%TO.N,Net-(IC1-EN)*%
X161750000Y-91794420D02*
X161750000Y-95181920D01*
X161350000Y-95581920D02*
X159797500Y-95581920D01*
X161750000Y-95181920D02*
X161350000Y-95581920D01*
%TO.N,Vbat*%
D56*
X169291000Y-104775000D02*
X169291000Y-100965000D01*
X168284080Y-105781920D02*
X169291000Y-104775000D01*
D55*
X162387500Y-103719420D02*
X162387500Y-105764420D01*
D56*
X167157920Y-99949000D02*
X167137500Y-99969420D01*
X169291000Y-100965000D02*
X168275000Y-99949000D01*
X162405000Y-105781920D02*
X168284080Y-105781920D01*
X168275000Y-99949000D02*
X167157920Y-99949000D01*
%TO.N,Net-(D2-K)*%
D54*
X165237500Y-101119420D02*
X165237500Y-99969420D01*
X166600000Y-102481920D02*
X165237500Y-101119420D01*
X167637500Y-102481920D02*
X166600000Y-102481920D01*
%TO.N,/USB/Vbus*%
X162417500Y-97749420D02*
X162417500Y-98131920D01*
X166058999Y-120567000D02*
X165439000Y-120567000D01*
X158050000Y-97281920D02*
X161950000Y-97281920D01*
X164102000Y-120567000D02*
X165439000Y-120567000D01*
X162753000Y-121674000D02*
X161983000Y-121674000D01*
X162753000Y-121674000D02*
X162995000Y-121674000D01*
X161950000Y-97281920D02*
X162417500Y-97749420D01*
X156591000Y-103124000D02*
X156591000Y-99695000D01*
X158750000Y-104521000D02*
X157988000Y-104521000D01*
X159385000Y-107442000D02*
X159385000Y-105156000D01*
X159385000Y-105156000D02*
X158750000Y-104521000D01*
X156591000Y-99695000D02*
X156991580Y-99294420D01*
X162995000Y-121674000D02*
X164102000Y-120567000D01*
X166058999Y-125367000D02*
X166686000Y-124739999D01*
X157988000Y-104521000D02*
X156591000Y-103124000D01*
X166686000Y-124739999D02*
X166686000Y-121194001D01*
X156991580Y-99294420D02*
X157587500Y-99294420D01*
X157587500Y-99294420D02*
X157587500Y-97744420D01*
X157587500Y-97744420D02*
X158050000Y-97281920D01*
X158115000Y-108712000D02*
X159385000Y-107442000D01*
X166686000Y-121194001D02*
X166058999Y-120567000D01*
X165439000Y-125367000D02*
X166058999Y-125367000D01*
%TO.N,Net-(U6-EN)*%
X161800000Y-79831920D02*
X160287500Y-79831920D01*
X160287500Y-79831920D02*
X160237500Y-79881920D01*
%TO.N,Net-(D1-K)*%
X157570000Y-102381920D02*
X157570000Y-100886920D01*
X157570000Y-100886920D02*
X157587500Y-100869420D01*
%TO.N,/ads1299_AFE_/IN2N*%
X124075000Y-89725000D02*
X125500000Y-89725000D01*
X116080000Y-96000000D02*
X117800000Y-96000000D01*
X117800000Y-96000000D02*
X124075000Y-89725000D01*
X114760000Y-97320000D02*
X116080000Y-96000000D01*
%TO.N,/ads1299_AFE_/IN2P*%
X117740000Y-97320000D02*
X124410000Y-90650000D01*
X124410000Y-90650000D02*
X125500000Y-90650000D01*
X117300000Y-97320000D02*
X117740000Y-97320000D01*
%TO.N,/ads1299_AFE_/IN1N*%
X118872000Y-97536000D02*
X124958000Y-91450000D01*
X118872000Y-97790000D02*
X118872000Y-97536000D01*
X118162000Y-98500000D02*
X118872000Y-97790000D01*
X124958000Y-91450000D02*
X125500000Y-91450000D01*
X116120000Y-98500000D02*
X118162000Y-98500000D01*
X114760000Y-99860000D02*
X116120000Y-98500000D01*
%TO.N,/ads1299_AFE_/IN1P*%
X117300000Y-99860000D02*
X118015000Y-99860000D01*
X118015000Y-99860000D02*
X125500000Y-92375000D01*
%TO.N,/ads1299_AFE_/Ref_electrode*%
X127096000Y-96073000D02*
X126400000Y-95377000D01*
X122900000Y-76300000D02*
X119660000Y-79540000D01*
X130180500Y-96073000D02*
X127096000Y-96073000D01*
X126400000Y-76800000D02*
X125900000Y-76300000D01*
X126400000Y-95377000D02*
X126400000Y-76800000D01*
X119660000Y-79540000D02*
X117300000Y-79540000D01*
X125900000Y-76300000D02*
X122900000Y-76300000D01*
%TO.N,/ads1299_AFE_/IN4N*%
X123225000Y-85675000D02*
X125500000Y-85675000D01*
X116000000Y-91000000D02*
X117900000Y-91000000D01*
X114760000Y-92240000D02*
X116000000Y-91000000D01*
X117900000Y-91000000D02*
X123225000Y-85675000D01*
%TO.N,/ads1299_AFE_/IN4P*%
X117300000Y-92240000D02*
X117560000Y-92240000D01*
X117560000Y-92240000D02*
X123200000Y-86600000D01*
X123200000Y-86600000D02*
X125500000Y-86600000D01*
%TO.N,/ads1299_AFE_/IN3N*%
X116040000Y-93500000D02*
X117800000Y-93500000D01*
X114760000Y-94780000D02*
X116040000Y-93500000D01*
X117800000Y-93500000D02*
X123900000Y-87400000D01*
X123900000Y-87400000D02*
X125500000Y-87400000D01*
%TO.N,/ads1299_AFE_/IN3P*%
X123975000Y-88325000D02*
X125500000Y-88325000D01*
X117520000Y-94780000D02*
X123975000Y-88325000D01*
X117300000Y-94780000D02*
X117520000Y-94780000D01*
%TO.N,/ESP32_S3_WROOM/USB_D+*%
X147166031Y-102879753D02*
X145878198Y-101591920D01*
X144675001Y-101181920D02*
X143550000Y-101181920D01*
X162987000Y-123174000D02*
X163030000Y-123217000D01*
X145878198Y-101591920D02*
X145085001Y-101591920D01*
X162753000Y-123174000D02*
X161983000Y-123174000D01*
X162753000Y-123174000D02*
X162987000Y-123174000D01*
X163030000Y-123217000D02*
X165439000Y-123217000D01*
X155255080Y-115287000D02*
X154400000Y-114431920D01*
X147166031Y-104293969D02*
X147166031Y-102879753D01*
X145085001Y-101591920D02*
X144675001Y-101181920D01*
X161570499Y-123174000D02*
X161545499Y-123149000D01*
X161545499Y-123149000D02*
X160992802Y-123149000D01*
X160992802Y-123149000D02*
X160209000Y-122365198D01*
X161983000Y-123174000D02*
X161570499Y-123174000D01*
%TO.N,/ESP32_S3_WROOM/USB_D-*%
X162753000Y-122674000D02*
X161983000Y-122674000D01*
X144675001Y-102451920D02*
X145085001Y-102041920D01*
X155812188Y-114837000D02*
X155303554Y-114328366D01*
X145085001Y-102041920D02*
X145621090Y-102041920D01*
X143550000Y-102451920D02*
X144675001Y-102451920D01*
X163038000Y-122717000D02*
X165439000Y-122717000D01*
X161545499Y-122699000D02*
X161179198Y-122699000D01*
X161179198Y-122699000D02*
X160717000Y-122236802D01*
X162753000Y-122674000D02*
X162995000Y-122674000D01*
X160717000Y-117669802D02*
X160717000Y-122236802D01*
X161570499Y-122674000D02*
X161545499Y-122699000D01*
X162995000Y-122674000D02*
X163038000Y-122717000D01*
X146630585Y-103051415D02*
X145621090Y-102041920D01*
X161983000Y-122674000D02*
X161570499Y-122674000D01*
%TO.N,Net-(U3-IO0)*%
X123097500Y-101131920D02*
X126000000Y-101131920D01*
X126000000Y-101131920D02*
X126050000Y-101181920D01*
%TO.N,Net-(U2-PROG)*%
X159087500Y-101049420D02*
X159555000Y-101049420D01*
X159950000Y-101444420D02*
X160487500Y-101444420D01*
X159555000Y-101049420D02*
X159950000Y-101444420D01*
%TO.N,SW*%
D56*
X161950000Y-91081920D02*
X165900000Y-91081920D01*
X165900000Y-91081920D02*
X166150000Y-91331920D01*
X161750000Y-90369420D02*
X161750000Y-90881920D01*
X161750000Y-90881920D02*
X161950000Y-91081920D01*
%TO.N,/ESP32_S3_WROOM/en*%
D54*
X143570000Y-115131920D02*
X143550000Y-115151920D01*
X146002500Y-114993710D02*
X146002500Y-115131920D01*
X151833000Y-107399000D02*
X151833000Y-111549000D01*
X149447210Y-111549000D02*
X146002500Y-114993710D01*
X146002500Y-115131920D02*
X143570000Y-115131920D01*
X151833000Y-111549000D02*
X149447210Y-111549000D01*
%TO.N,Net-(U2-STAT)*%
X160137500Y-102581920D02*
X158705000Y-102581920D01*
X160487500Y-103719420D02*
X160487500Y-102931920D01*
X160487500Y-102931920D02*
X160137500Y-102581920D01*
%TO.N,/ads1299_AFE_/IN5P*%
X117300000Y-89700000D02*
X118300000Y-89700000D01*
X118300000Y-89700000D02*
X123725000Y-84275000D01*
X123725000Y-84275000D02*
X125500000Y-84275000D01*
%TO.N,/ads1299_AFE_/IN5N*%
X114760000Y-89700000D02*
X116060000Y-88400000D01*
X123750000Y-83350000D02*
X125500000Y-83350000D01*
X118700000Y-88400000D02*
X123750000Y-83350000D01*
X116060000Y-88400000D02*
X118700000Y-88400000D01*
%TO.N,/ads1299_AFE_/IN6P*%
X118590000Y-87160000D02*
X123200000Y-82550000D01*
X117300000Y-87160000D02*
X118590000Y-87160000D01*
X123200000Y-82550000D02*
X125500000Y-82550000D01*
%TO.N,/ads1299_AFE_/IN6N*%
X116020000Y-85900000D02*
X118700000Y-85900000D01*
X114760000Y-87160000D02*
X116020000Y-85900000D01*
X122975000Y-81625000D02*
X125500000Y-81625000D01*
X118700000Y-85900000D02*
X122975000Y-81625000D01*
%TO.N,/ads1299_AFE_/IN7P*%
X123225000Y-80275000D02*
X125500000Y-80275000D01*
X118880000Y-84620000D02*
X123225000Y-80275000D01*
X117300000Y-84620000D02*
X118880000Y-84620000D01*
%TO.N,/ads1299_AFE_/IN7N*%
X114760000Y-84620000D02*
X115980000Y-83400000D01*
X115980000Y-83400000D02*
X119100000Y-83400000D01*
X119100000Y-83400000D02*
X123150000Y-79350000D01*
X123150000Y-79350000D02*
X125500000Y-79350000D01*
%TO.N,/ads1299_AFE_/IN8P*%
X122750000Y-78550000D02*
X125500000Y-78550000D01*
X119220000Y-82080000D02*
X122750000Y-78550000D01*
X117300000Y-82080000D02*
X119220000Y-82080000D01*
%TO.N,/ads1299_AFE_/IN8N*%
X114760000Y-82080000D02*
X116040000Y-80800000D01*
X116040000Y-80800000D02*
X119500000Y-80800000D01*
X119500000Y-80800000D02*
X122675000Y-77625000D01*
X122675000Y-77625000D02*
X125500000Y-77625000D01*
%TO.N,/ads1299_AFE_/Bias_electrode*%
X125100000Y-72600000D02*
X119400000Y-78300000D01*
X119400000Y-78300000D02*
X116000000Y-78300000D01*
X116000000Y-78300000D02*
X114760000Y-79540000D01*
X135632500Y-72600000D02*
X125100000Y-72600000D01*
%TO.N,Net-(P1-CC)*%
X163186500Y-124217000D02*
X165439000Y-124217000D01*
X163003000Y-124400500D02*
X163186500Y-124217000D01*
%TD*%
%TA.AperFunction,Conductor*%
%TO.N,/USB/Vbus*%
G36*
X162719041Y-91436941D02*
G01*
X162745337Y-91444663D01*
X162793971Y-91472032D01*
X166038464Y-94431920D01*
X166902402Y-94431920D01*
X166937338Y-94436943D01*
X166952336Y-94441347D01*
X167011087Y-94479092D01*
X167012274Y-94480461D01*
X167039750Y-94535322D01*
X167041395Y-94542880D01*
X167044232Y-94569251D01*
X167044232Y-98690090D01*
X167039207Y-98725034D01*
X167034802Y-98740032D01*
X166997059Y-98798775D01*
X166995690Y-98799962D01*
X166940829Y-98827438D01*
X166933271Y-98829083D01*
X166906900Y-98831920D01*
X164644232Y-98831920D01*
X164644232Y-100954561D01*
X164639444Y-100976262D01*
X164853376Y-101229091D01*
X164872105Y-101259000D01*
X164883621Y-101285018D01*
X164894232Y-101335206D01*
X164894232Y-102990090D01*
X164889207Y-103025034D01*
X164884802Y-103040032D01*
X164847059Y-103098775D01*
X164845690Y-103099962D01*
X164790829Y-103127438D01*
X164783271Y-103129083D01*
X164756900Y-103131920D01*
X163942167Y-103131920D01*
X163911063Y-103127955D01*
X163881439Y-103120278D01*
X163852327Y-103108639D01*
X162124133Y-102148531D01*
X162096034Y-102127175D01*
X162083383Y-102114338D01*
X162051333Y-102057085D01*
X162048513Y-102045689D01*
X162044885Y-102014994D01*
X162050645Y-101229091D01*
X162090267Y-95822836D01*
X162095546Y-95787943D01*
X162100060Y-95772976D01*
X162138261Y-95714479D01*
X162139853Y-95713120D01*
X162194435Y-95686185D01*
X162197159Y-95685603D01*
X162201594Y-95684656D01*
X162227497Y-95681920D01*
X163094232Y-95681920D01*
X163094232Y-93531920D01*
X162236062Y-93531920D01*
X162201121Y-93526895D01*
X162186122Y-93522490D01*
X162127376Y-93484747D01*
X162126189Y-93483378D01*
X162098709Y-93428503D01*
X162097064Y-93420941D01*
X162094232Y-93394588D01*
X162094232Y-91573749D01*
X162099255Y-91538813D01*
X162103659Y-91523815D01*
X162141404Y-91465064D01*
X162142773Y-91463877D01*
X162197652Y-91436397D01*
X162205211Y-91434753D01*
X162231564Y-91431920D01*
X162684109Y-91431920D01*
X162719041Y-91436941D01*
G37*
%TD.AperFunction*%
%TD*%
%TA.AperFunction,Conductor*%
%TO.N,/ads1299_AFE_/AVDD*%
G36*
X142043039Y-86569685D02*
G01*
X142088794Y-86622489D01*
X142100000Y-86674000D01*
X142100000Y-88401000D01*
X142080315Y-88468039D01*
X142027511Y-88513794D01*
X141976000Y-88525000D01*
X141424000Y-88525000D01*
X141356961Y-88505315D01*
X141311206Y-88452511D01*
X141300000Y-88401000D01*
X141300000Y-86900000D01*
X140600000Y-86900000D01*
X140600000Y-88401000D01*
X140580315Y-88468039D01*
X140527511Y-88513794D01*
X140476000Y-88525000D01*
X140424000Y-88525000D01*
X140356961Y-88505315D01*
X140311206Y-88452511D01*
X140300000Y-88401000D01*
X140300000Y-86674000D01*
X140319685Y-86606961D01*
X140372489Y-86561206D01*
X140424000Y-86550000D01*
X141976000Y-86550000D01*
X142043039Y-86569685D01*
G37*
%TD.AperFunction*%
%TD*%
%TA.AperFunction,Conductor*%
%TO.N,Net-(IC1-VOUT)*%
G36*
X161995039Y-82925285D02*
G01*
X162040794Y-82978089D01*
X162052000Y-83029600D01*
X162052000Y-88623600D01*
X162032315Y-88690639D01*
X161979511Y-88736394D01*
X161928000Y-88747600D01*
X161391600Y-88747600D01*
X161391600Y-90757200D01*
X161371915Y-90824239D01*
X161319111Y-90869994D01*
X161267600Y-90881200D01*
X159004000Y-90881200D01*
X159004000Y-93297200D01*
X158984315Y-93364239D01*
X158931511Y-93409994D01*
X158880000Y-93421200D01*
X158315200Y-93421200D01*
X158248161Y-93401515D01*
X158202406Y-93348711D01*
X158191200Y-93297200D01*
X158191200Y-90881200D01*
X156892800Y-90881200D01*
X156825761Y-90861515D01*
X156780006Y-90808711D01*
X156768800Y-90757200D01*
X156768800Y-89481200D01*
X156788485Y-89414161D01*
X156841289Y-89368406D01*
X156892800Y-89357200D01*
X160121599Y-89357200D01*
X160121600Y-89357200D01*
X160170629Y-85974203D01*
X160191283Y-85907456D01*
X160244744Y-85862471D01*
X160294616Y-85852000D01*
X160731200Y-85852000D01*
X160731200Y-83029600D01*
X160750885Y-82962561D01*
X160803689Y-82916806D01*
X160855200Y-82905600D01*
X161928000Y-82905600D01*
X161995039Y-82925285D01*
G37*
%TD.AperFunction*%
%TD*%
%TA.AperFunction,Conductor*%
%TO.N,Net-(IC1-FB)*%
G36*
X161409999Y-91485647D02*
G01*
X161416893Y-91488503D01*
X161443413Y-91515018D01*
X161446271Y-91521919D01*
X161450000Y-91540667D01*
X161450000Y-94623172D01*
X161446271Y-94641923D01*
X161443416Y-94648816D01*
X161416898Y-94675334D01*
X161410003Y-94678190D01*
X161391253Y-94681920D01*
X160650000Y-94681920D01*
X159508747Y-94681920D01*
X159489999Y-94678191D01*
X159483101Y-94675334D01*
X159456585Y-94648818D01*
X159453727Y-94641917D01*
X159450000Y-94623172D01*
X159450000Y-91540667D01*
X159453727Y-91521922D01*
X159456583Y-91515026D01*
X159483094Y-91488508D01*
X159490002Y-91485646D01*
X159508747Y-91481920D01*
X161391253Y-91481920D01*
X161409999Y-91485647D01*
G37*
%TD.AperFunction*%
%TD*%
%TA.AperFunction,Conductor*%
%TO.N,GND*%
G36*
X165543039Y-76851605D02*
G01*
X165588794Y-76904409D01*
X165600000Y-76955920D01*
X165600000Y-80631920D01*
X163700000Y-80631920D01*
X163700000Y-77431920D01*
X160124000Y-77431920D01*
X160056961Y-77412235D01*
X160011206Y-77359431D01*
X160000000Y-77307920D01*
X160000000Y-76955920D01*
X160019685Y-76888881D01*
X160072489Y-76843126D01*
X160124000Y-76831920D01*
X165476000Y-76831920D01*
X165543039Y-76851605D01*
G37*
%TD.AperFunction*%
%TD*%
%TA.AperFunction,Conductor*%
%TO.N,GND*%
G36*
X143185648Y-72246272D02*
G01*
X143200000Y-72280920D01*
X143200000Y-75782297D01*
X143199516Y-75787220D01*
X143199736Y-75787242D01*
X143199500Y-75789637D01*
X143199500Y-77182920D01*
X143185148Y-77217568D01*
X143150500Y-77231920D01*
X142349000Y-77231920D01*
X142314352Y-77217568D01*
X142300000Y-77182920D01*
X142300000Y-72280920D01*
X142314352Y-72246272D01*
X142349000Y-72231920D01*
X143151000Y-72231920D01*
X143185648Y-72246272D01*
G37*
%TD.AperFunction*%
%TD*%
%TA.AperFunction,Conductor*%
%TO.N,GND*%
G36*
X161697499Y-97785647D02*
G01*
X161704393Y-97788503D01*
X161730913Y-97815018D01*
X161733771Y-97821919D01*
X161737500Y-97840667D01*
X161737500Y-104323172D01*
X161733771Y-104341923D01*
X161730916Y-104348816D01*
X161704398Y-104375334D01*
X161697503Y-104378190D01*
X161678753Y-104381920D01*
X161196247Y-104381920D01*
X161177499Y-104378191D01*
X161170601Y-104375334D01*
X161144085Y-104348818D01*
X161141227Y-104341917D01*
X161137500Y-104323172D01*
X161137500Y-100381920D01*
X158696247Y-100381920D01*
X158677499Y-100378191D01*
X158670601Y-100375334D01*
X158644085Y-100348818D01*
X158641227Y-100341917D01*
X158637500Y-100323172D01*
X158637500Y-97840667D01*
X158641227Y-97821922D01*
X158644083Y-97815026D01*
X158670594Y-97788508D01*
X158677502Y-97785646D01*
X158696247Y-97781920D01*
X161678753Y-97781920D01*
X161697499Y-97785647D01*
G37*
%TD.AperFunction*%
%TD*%
%TA.AperFunction,Conductor*%
%TO.N,GND*%
G36*
X170885039Y-80501605D02*
G01*
X170930794Y-80554409D01*
X170942000Y-80605920D01*
X170942000Y-83569000D01*
X170922315Y-83636039D01*
X170869511Y-83681794D01*
X170818000Y-83693000D01*
X165100000Y-83693000D01*
X165100000Y-80631920D01*
X165600000Y-80631920D01*
X165600000Y-80481920D01*
X170818000Y-80481920D01*
X170885039Y-80501605D01*
G37*
%TD.AperFunction*%
%TD*%
%TA.AperFunction,Conductor*%
%TO.N,GND*%
G36*
X138243039Y-108051605D02*
G01*
X138288794Y-108104409D01*
X138300000Y-108155920D01*
X138300000Y-113631919D01*
X138299999Y-113631919D01*
X138300000Y-113631920D01*
X141300000Y-117231920D01*
X144176000Y-117231920D01*
X144243039Y-117251605D01*
X144288794Y-117304409D01*
X144300000Y-117355920D01*
X144300000Y-118007920D01*
X144280315Y-118074959D01*
X144227511Y-118120714D01*
X144176000Y-118131920D01*
X125424000Y-118131920D01*
X125356961Y-118112235D01*
X125311206Y-118059431D01*
X125300000Y-118007920D01*
X125300000Y-117355920D01*
X125319685Y-117288881D01*
X125372489Y-117243126D01*
X125424000Y-117231920D01*
X128400000Y-117231920D01*
X134400000Y-113631920D01*
X134400000Y-108155920D01*
X134419685Y-108088881D01*
X134472489Y-108043126D01*
X134524000Y-108031920D01*
X138176000Y-108031920D01*
X138243039Y-108051605D01*
G37*
%TD.AperFunction*%
%TD*%
%TA.AperFunction,Conductor*%
%TO.N,GND*%
G36*
X154443039Y-78051605D02*
G01*
X154488794Y-78104409D01*
X154500000Y-78155920D01*
X154500000Y-81907920D01*
X154480315Y-81974959D01*
X154427511Y-82020714D01*
X154376000Y-82031920D01*
X152824000Y-82031920D01*
X152756961Y-82012235D01*
X152711206Y-81959431D01*
X152700000Y-81907920D01*
X152700000Y-78155920D01*
X152719685Y-78088881D01*
X152772489Y-78043126D01*
X152824000Y-78031920D01*
X154376000Y-78031920D01*
X154443039Y-78051605D01*
G37*
%TD.AperFunction*%
%TD*%
%TA.AperFunction,Conductor*%
%TO.N,GND*%
G36*
X143543039Y-91351605D02*
G01*
X143588794Y-91404409D01*
X143600000Y-91455920D01*
X143600000Y-93431920D01*
X146300000Y-93431920D01*
X146300000Y-91455920D01*
X146319685Y-91388881D01*
X146372489Y-91343126D01*
X146424000Y-91331920D01*
X146876000Y-91331920D01*
X146943039Y-91351605D01*
X146988794Y-91404409D01*
X147000000Y-91455920D01*
X147000000Y-94707920D01*
X146980315Y-94774959D01*
X146927511Y-94820714D01*
X146876000Y-94831920D01*
X141024000Y-94831920D01*
X140956961Y-94812235D01*
X140911206Y-94759431D01*
X140900000Y-94707920D01*
X140900000Y-91455920D01*
X140919685Y-91388881D01*
X140972489Y-91343126D01*
X141024000Y-91331920D01*
X143476000Y-91331920D01*
X143543039Y-91351605D01*
G37*
%TD.AperFunction*%
%TD*%
%TA.AperFunction,Conductor*%
%TO.N,GND*%
G36*
X165100000Y-83693000D02*
G01*
X166373000Y-83693000D01*
X166373000Y-88118354D01*
X166369269Y-88137107D01*
X166363481Y-88151079D01*
X166347103Y-88171903D01*
X163629186Y-90155984D01*
X163615490Y-90162991D01*
X163601409Y-90167584D01*
X163586214Y-90170000D01*
X162881747Y-90170000D01*
X162862999Y-90166271D01*
X162856101Y-90163414D01*
X162829585Y-90136898D01*
X162826727Y-90129997D01*
X162823000Y-90111252D01*
X162823000Y-81659000D01*
X162837352Y-81624352D01*
X162872000Y-81610000D01*
X165100000Y-81610000D01*
X165100000Y-83693000D01*
G37*
%TD.AperFunction*%
%TD*%
%TA.AperFunction,Conductor*%
%TO.N,GND*%
G36*
X163700000Y-80631920D02*
G01*
X165100000Y-80631920D01*
X165100000Y-81610000D01*
X162872000Y-81610000D01*
X162837352Y-81624352D01*
X162823000Y-81659000D01*
X162823000Y-82181920D01*
X162164680Y-82181920D01*
X162134087Y-82177074D01*
X162121401Y-82172952D01*
X162071901Y-82136988D01*
X162071894Y-82136978D01*
X162068900Y-82132856D01*
X162050000Y-82074676D01*
X162050000Y-81181921D01*
X162050000Y-81181920D01*
X162049999Y-81181920D01*
X159764680Y-81181920D01*
X159734087Y-81177074D01*
X159721401Y-81172952D01*
X159671901Y-81136988D01*
X159671894Y-81136978D01*
X159668900Y-81132856D01*
X159650000Y-81074676D01*
X159650000Y-80596600D01*
X159654843Y-80566014D01*
X159658965Y-80553325D01*
X159694923Y-80503826D01*
X159695522Y-80503391D01*
X159699063Y-80500820D01*
X159757243Y-80481920D01*
X163700000Y-80481920D01*
X163700000Y-80631920D01*
G37*
%TD.AperFunction*%
%TD*%
%TA.AperFunction,Conductor*%
%TO.N,Vbat*%
G36*
X162757039Y-103016685D02*
G01*
X162802794Y-103069489D01*
X162814000Y-103121000D01*
X162814000Y-105156000D01*
X165103000Y-105156000D01*
X165170039Y-105175685D01*
X165215794Y-105228489D01*
X165227000Y-105280000D01*
X165227000Y-112014000D01*
X172723000Y-112014000D01*
X172790039Y-112033685D01*
X172835794Y-112086489D01*
X172847000Y-112138000D01*
X172847000Y-114050233D01*
X172827315Y-114117272D01*
X172774511Y-114163027D01*
X172724240Y-114174227D01*
X160272240Y-114298747D01*
X160205007Y-114279734D01*
X160158726Y-114227390D01*
X160147000Y-114174753D01*
X160147000Y-107312000D01*
X160166685Y-107244961D01*
X160219489Y-107199206D01*
X160271000Y-107188000D01*
X162052000Y-107188000D01*
X162052000Y-103121000D01*
X162071685Y-103053961D01*
X162124489Y-103008206D01*
X162176000Y-102997000D01*
X162690000Y-102997000D01*
X162757039Y-103016685D01*
G37*
%TD.AperFunction*%
%TD*%
%TA.AperFunction,Conductor*%
%TO.N,GND*%
G36*
X154415677Y-74551605D02*
G01*
X154436319Y-74568239D01*
X154463681Y-74595601D01*
X154497166Y-74656924D01*
X154500000Y-74683282D01*
X154500000Y-76107920D01*
X154480315Y-76174959D01*
X154427511Y-76220714D01*
X154376000Y-76231920D01*
X153924000Y-76231920D01*
X153856961Y-76212235D01*
X153811206Y-76159431D01*
X153800000Y-76107920D01*
X153800000Y-75731920D01*
X152124000Y-75731920D01*
X152056961Y-75712235D01*
X152011206Y-75659431D01*
X152000000Y-75607920D01*
X152000000Y-74655920D01*
X152019685Y-74588881D01*
X152072489Y-74543126D01*
X152124000Y-74531920D01*
X154348638Y-74531920D01*
X154415677Y-74551605D01*
G37*
%TD.AperFunction*%
%TD*%
M02*
